<?xml version="1.0" encoding="UTF-8" standalone="no"?>
<!DOCTYPE svg PUBLIC "-//W3C//DTD SVG 1.1//EN"
 "http://www.w3.org/Graphics/SVG/1.1/DTD/svg11.dtd">
<!-- Generated by graphviz version 12.2.1 (20241206.2353)
 -->
<!-- Title: JovialCutscene::render Pages: 1 -->
<svg width="322pt" height="66pt"
 viewBox="0.00 0.00 321.50 66.00" xmlns="http://www.w3.org/2000/svg" xmlns:xlink="http://www.w3.org/1999/xlink">
<g id="graph0" class="graph" transform="scale(1 1) rotate(0) translate(4 62)">
<title>JovialCutscene::render</title>
<!-- Node1 -->
<g id="Node000001" class="node">
<title>Node1</title>
<g id="a_Node000001"><a xlink:title=" ">
<polygon fill="#999999" stroke="#666666" points="116.5,-39 0,-39 0,-19 116.5,-19 116.5,-39"/>
<text text-anchor="middle" x="58.25" y="-25.5" font-family="Helvetica,sans-Serif" font-size="10.00">JovialCutscene::render</text>
</a>
</g>
</g>
<!-- Node2 -->
<g id="Node000002" class="node">
<title>Node2</title>
<g id="a_Node000002"><a xlink:href="extras_8cpp.html#a99d2755bf0660601280710515b3f512c" target="_top" xlink:title="Colors text.">
<polygon fill="white" stroke="#666666" points="222.12,-58 153.62,-58 153.62,-38 222.12,-38 222.12,-58"/>
<text text-anchor="middle" x="187.88" y="-44.5" font-family="Helvetica,sans-Serif" font-size="10.00">colorizeText</text>
</a>
</g>
</g>
<!-- Node1&#45;&gt;Node2 -->
<g id="edge1_Node000001_Node000002" class="edge">
<title>Node1&#45;&gt;Node2</title>
<g id="a_edge1_Node000001_Node000002"><a xlink:title=" ">
<path fill="none" stroke="#63b8ff" d="M116.72,-37.56C125.26,-38.83 133.96,-40.12 142.19,-41.35"/>
<polygon fill="#63b8ff" stroke="#63b8ff" points="141.54,-44.79 151.95,-42.8 142.57,-37.87 141.54,-44.79"/>
</a>
</g>
</g>
<!-- Node3 -->
<g id="Node000003" class="node">
<title>Node3</title>
<g id="a_Node000003"><a xlink:href="extras_8cpp.html#a251383c9dea6cb260fb6f9ebb010139f" target="_top" xlink:title="Outputs a text character by character with a given delay.">
<polygon fill="white" stroke="#666666" points="223.25,-20 152.5,-20 152.5,0 223.25,0 223.25,-20"/>
<text text-anchor="middle" x="187.88" y="-6.5" font-family="Helvetica,sans-Serif" font-size="10.00">printAnimate</text>
</a>
</g>
</g>
<!-- Node1&#45;&gt;Node3 -->
<g id="edge2_Node000001_Node000003" class="edge">
<title>Node1&#45;&gt;Node3</title>
<g id="a_edge2_Node000001_Node000003"><a xlink:title=" ">
<path fill="none" stroke="#63b8ff" d="M116.72,-20.44C124.81,-19.24 133.03,-18.02 140.87,-16.85"/>
<polygon fill="#63b8ff" stroke="#63b8ff" points="141.14,-20.35 150.52,-15.41 140.11,-13.42 141.14,-20.35"/>
</a>
</g>
</g>
<!-- Node4 -->
<g id="Node000004" class="node">
<title>Node4</title>
<g id="a_Node000004"><a xlink:href="extras_8cpp.html#aea0e34fe8a665ef6cb1fd6526ce1deb0" target="_top" xlink:title=" ">
<polygon fill="white" stroke="#666666" points="313.5,-20 259.25,-20 259.25,0 313.5,0 313.5,-20"/>
<text text-anchor="middle" x="286.38" y="-6.5" font-family="Helvetica,sans-Serif" font-size="10.00">sleepMS</text>
</a>
</g>
</g>
<!-- Node3&#45;&gt;Node4 -->
<g id="edge3_Node000003_Node000004" class="edge">
<title>Node3&#45;&gt;Node4</title>
<g id="a_edge3_Node000003_Node000004"><a xlink:title=" ">
<path fill="none" stroke="#63b8ff" d="M223.71,-10C231.39,-10 239.55,-10 247.34,-10"/>
<polygon fill="#63b8ff" stroke="#63b8ff" points="247.25,-13.5 257.25,-10 247.25,-6.5 247.25,-13.5"/>
</a>
</g>
</g>
</g>
</svg>
