<?xml version="1.0" encoding="UTF-8" standalone="no"?>
<!DOCTYPE svg PUBLIC "-//W3C//DTD SVG 1.1//EN"
 "http://www.w3.org/Graphics/SVG/1.1/DTD/svg11.dtd">
<!-- Generated by graphviz version 12.2.1 (20241206.2353)
 -->
<!-- Title: IEnemyItem Pages: 1 -->
<!--zoomable 512 -->

<svg id="main" version="1.1" xmlns="http://www.w3.org/2000/svg" xmlns:xlink="http://www.w3.org/1999/xlink" xml:space="preserve" onload="init(evt)">

<style type="text/css"><![CDATA[
.node, .edge {opacity: 0.7;}
.node.selected, .edge.selected {opacity: 1;}
.edge:hover path { stroke: red; }
.edge:hover polygon { stroke: red; fill: red; }
]]></style>

<defs>
  <circle id="rim" cx="0" cy="0" r="7"/>
  <circle id="rim2" cx="0" cy="0" r="3.5"/>
  <g id="zoomPlus">
    <use xlink:href="#rim" fill="#404040"><set attributeName="fill" to="#808080" begin="zoomplus.mouseover" end="zoomplus.mouseout"/></use>
    <path d="M-4,0h8M0,-4v8" fill="none" stroke="white" stroke-width="1.5" pointer-events="none"/>
  </g>
  <g id="zoomMin">
    <use xlink:href="#rim" fill="#404040"><set attributeName="fill" to="#808080" begin="zoomminus.mouseover" end="zoomminus.mouseout"/></use>
    <path d="M-4,0h8" fill="none" stroke="white" stroke-width="1.5" pointer-events="none"/>
  </g>
  <g id="arrowUp" transform="translate(30 24)">
    <use xlink:href="#rim"/>
    <path pointer-events="none" fill="none" stroke="white" stroke-width="1.5" d="M0,-3.0v7 M-2.5,-0.5L0,-3.0L2.5,-0.5"/>
  </g>
  <g id="arrowRight" transform="rotate(90) translate(36 -43)">
    <use xlink:href="#rim"/>
    <path pointer-events="none" fill="none" stroke="white" stroke-width="1.5" d="M0,-3.0v7 M-2.5,-0.5L0,-3.0L2.5,-0.5"/>
  </g>
  <g id="arrowDown" transform="rotate(180) translate(-30 -48)">
    <use xlink:href="#rim"/>
    <path pointer-events="none" fill="none" stroke="white" stroke-width="1.5" d="M0,-3.0v7 M-2.5,-0.5L0,-3.0L2.5,-0.5"/>
  </g>
  <g id="arrowLeft" transform="rotate(270) translate(-36 17)">
    <use xlink:href="#rim"/>
    <path pointer-events="none" fill="none" stroke="white" stroke-width="1.5" d="M0,-3.0v7 M-2.5,-0.5L0,-3.0L2.5,-0.5"/>
  </g>
  <g id="resetDef">
    <use xlink:href="#rim2" fill="#404040"><set attributeName="fill" to="#808080" begin="reset.mouseover" end="reset.mouseout"/></use>
  </g>
</defs>
<script type="application/ecmascript">
var viewWidth = 276;
var viewHeight = 512;
var sectionId = 'dynsection-0';
</script>
<script type="application/ecmascript" xlink:href="svg.min.js"/>
<svg id="graph" class="graph">
<g id="viewport">
<title>IEnemyItem</title>
<!-- Node1 -->
<g id="Node000001" class="node">
<title>Node1</title>
<g id="a_Node000001"><a xlink:title="Enemy items. The use function takes in a player and an enemy.">
<polygon fill="#999999" stroke="none" points="210.5,-324 56.75,-324 56.75,-232 210.5,-232 210.5,-324"/>
<text text-anchor="start" x="107" y="-310.5" font-family="Helvetica,sans-Serif" font-size="10.00">IEnemyItem</text>
<text text-anchor="start" x="132.12" y="-294.5" font-family="Helvetica,sans-Serif" font-size="10.00"> </text>
<text text-anchor="start" x="60.75" y="-278.5" font-family="Helvetica,sans-Serif" font-size="10.00">+</text>
<text text-anchor="start" x="70.75" y="-278.5" font-family="Helvetica,sans-Serif" font-size="10.00">IEnemyItem(string n, string</text>
<text text-anchor="start" x="70.75" y="-266.5" font-family="Helvetica,sans-Serif" font-size="10.00"> t, string d, int c)</text>
<text text-anchor="start" x="60.75" y="-250.5" font-family="Helvetica,sans-Serif" font-size="10.00">+</text>
<text text-anchor="start" x="70.75" y="-250.5" font-family="Helvetica,sans-Serif" font-size="10.00">virtual bool use(Player &amp;player,</text>
<text text-anchor="start" x="70.75" y="-238.5" font-family="Helvetica,sans-Serif" font-size="10.00"> Entity &amp;enemy)=0</text>
<polygon fill="#666666" stroke="#666666" points="56.75,-306 56.75,-306 210.5,-306 210.5,-306 56.75,-306"/>
<polygon fill="#666666" stroke="#666666" points="56.75,-290 56.75,-290 210.5,-290 210.5,-290 56.75,-290"/>
<polygon fill="none" stroke="#666666" points="56.75,-232 56.75,-324 210.5,-324 210.5,-232 56.75,-232"/>
</a>
</g>
</g>
<!-- Node3 -->
<g id="Node000003" class="node">
<title>Node3</title>
<g id="a_Node000003"><a xlink:href="class_weapon.html" target="_top" xlink:title="Weapons set the type to &quot;Weapon&quot; and implement the use function cuz all weapons attack lmao.">
<polygon fill="white" stroke="none" points="210.12,-196 57.12,-196 57.12,-104 210.12,-104 210.12,-196"/>
<text text-anchor="start" x="116" y="-182.5" font-family="Helvetica,sans-Serif" font-size="10.00">Weapon</text>
<text text-anchor="start" x="61.12" y="-166.5" font-family="Helvetica,sans-Serif" font-size="10.00">+</text>
<text text-anchor="start" x="71.12" y="-166.5" font-family="Helvetica,sans-Serif" font-size="10.00">int dmg</text>
<text text-anchor="start" x="61.12" y="-150.5" font-family="Helvetica,sans-Serif" font-size="10.00">+</text>
<text text-anchor="start" x="71.12" y="-150.5" font-family="Helvetica,sans-Serif" font-size="10.00">Weapon(string name, string</text>
<text text-anchor="start" x="71.12" y="-138.5" font-family="Helvetica,sans-Serif" font-size="10.00"> desc, int count, int dmg)</text>
<text text-anchor="start" x="61.12" y="-122.5" font-family="Helvetica,sans-Serif" font-size="10.00">+</text>
<text text-anchor="start" x="71.12" y="-122.5" font-family="Helvetica,sans-Serif" font-size="10.00">bool use(Player &amp;player, Entity</text>
<text text-anchor="start" x="71.12" y="-110.5" font-family="Helvetica,sans-Serif" font-size="10.00"> &amp;enemy) override</text>
<polygon fill="#666666" stroke="#666666" points="57.12,-178 57.12,-178 210.12,-178 210.12,-178 57.12,-178"/>
<polygon fill="#666666" stroke="#666666" points="57.12,-162 57.12,-162 69.12,-162 69.12,-162 57.12,-162"/>
<polygon fill="#666666" stroke="#666666" points="69.12,-162 69.12,-162 210.12,-162 210.12,-162 69.12,-162"/>
<polygon fill="none" stroke="#666666" points="57.12,-104 57.12,-196 210.12,-196 210.12,-104 57.12,-104"/>
</a>
</g>
</g>
<!-- Node1&#45;&gt;Node3 -->
<g id="edge2_Node000001_Node000003" class="edge">
<title>Node1&#45;&gt;Node3</title>
<g id="a_edge2_Node000001_Node000003"><a xlink:title=" ">
<path fill="none" stroke="#63b8ff" d="M133.62,-220.86C133.62,-212.41 133.62,-203.8 133.62,-195.63"/>
<polygon fill="none" stroke="#63b8ff" points="130.13,-220.71 133.63,-230.71 137.13,-220.71 130.13,-220.71"/>
</a>
</g>
</g>
<!-- Node2 -->
<g id="Node000002" class="node">
<title>Node2</title>
<g id="a_Node000002"><a xlink:href="class_i_item.html" target="_top" xlink:title="Base class for all items in the game.">
<polygon fill="white" stroke="none" points="192.12,-504 75.12,-504 75.12,-360 192.12,-360 192.12,-504"/>
<text text-anchor="start" x="122.38" y="-490.5" font-family="Helvetica,sans-Serif" font-size="10.00">IItem</text>
<text text-anchor="start" x="79.12" y="-474.5" font-family="Helvetica,sans-Serif" font-size="10.00">+</text>
<text text-anchor="start" x="89.12" y="-474.5" font-family="Helvetica,sans-Serif" font-size="10.00">string name</text>
<text text-anchor="start" x="79.12" y="-458.5" font-family="Helvetica,sans-Serif" font-size="10.00">+</text>
<text text-anchor="start" x="89.12" y="-458.5" font-family="Helvetica,sans-Serif" font-size="10.00">string type</text>
<text text-anchor="start" x="79.12" y="-442.5" font-family="Helvetica,sans-Serif" font-size="10.00">+</text>
<text text-anchor="start" x="89.12" y="-442.5" font-family="Helvetica,sans-Serif" font-size="10.00">int count</text>
<text text-anchor="start" x="80.62" y="-426.5" font-family="Helvetica,sans-Serif" font-size="10.00">&#45;</text>
<text text-anchor="start" x="89.12" y="-426.5" font-family="Helvetica,sans-Serif" font-size="10.00">string desc</text>
<text text-anchor="start" x="79.12" y="-410.5" font-family="Helvetica,sans-Serif" font-size="10.00">+</text>
<text text-anchor="start" x="89.12" y="-410.5" font-family="Helvetica,sans-Serif" font-size="10.00">IItem(string n, string t,</text>
<text text-anchor="start" x="89.12" y="-398.5" font-family="Helvetica,sans-Serif" font-size="10.00"> string d, int c)</text>
<text text-anchor="start" x="79.12" y="-382.5" font-family="Helvetica,sans-Serif" font-size="10.00">+</text>
<text text-anchor="start" x="89.12" y="-382.5" font-family="Helvetica,sans-Serif" font-size="10.00">virtual ~IItem()</text>
<text text-anchor="start" x="79.12" y="-366.5" font-family="Helvetica,sans-Serif" font-size="10.00">+</text>
<text text-anchor="start" x="89.12" y="-366.5" font-family="Helvetica,sans-Serif" font-size="10.00">virtual string getDesc()</text>
<polygon fill="#666666" stroke="#666666" points="75.12,-486 75.12,-486 192.12,-486 192.12,-486 75.12,-486"/>
<polygon fill="#666666" stroke="#666666" points="75.12,-422 75.12,-422 87.12,-422 87.12,-422 75.12,-422"/>
<polygon fill="#666666" stroke="#666666" points="87.12,-422 87.12,-422 192.12,-422 192.12,-422 87.12,-422"/>
<polygon fill="none" stroke="#666666" points="75.12,-360 75.12,-504 192.12,-504 192.12,-360 75.12,-360"/>
</a>
</g>
</g>
<!-- Node2&#45;&gt;Node1 -->
<g id="edge1_Node000001_Node000002" class="edge">
<title>Node2&#45;&gt;Node1</title>
<g id="a_edge1_Node000001_Node000002"><a xlink:title=" ">
<path fill="none" stroke="#63b8ff" d="M133.62,-348.99C133.62,-340.37 133.62,-331.85 133.62,-323.89"/>
<polygon fill="none" stroke="#63b8ff" points="130.13,-348.83 133.63,-358.83 137.13,-348.83 130.13,-348.83"/>
</a>
</g>
</g>
<!-- Node4 -->
<g id="Node000004" class="node">
<title>Node4</title>
<g id="a_Node000004"><a xlink:href="class_cool_stick.html" target="_top" xlink:title="The Cool Stick is the first weapon the player gets.">
<polygon fill="white" stroke="none" points="125.25,-68 0,-68 0,0 125.25,0 125.25,-68"/>
<text text-anchor="start" x="41.25" y="-54.5" font-family="Helvetica,sans-Serif" font-size="10.00">CoolStick</text>
<text text-anchor="start" x="61.12" y="-38.5" font-family="Helvetica,sans-Serif" font-size="10.00"> </text>
<text text-anchor="start" x="4" y="-22.5" font-family="Helvetica,sans-Serif" font-size="10.00">+</text>
<text text-anchor="start" x="14" y="-22.5" font-family="Helvetica,sans-Serif" font-size="10.00">CoolStick()</text>
<text text-anchor="start" x="4" y="-6.5" font-family="Helvetica,sans-Serif" font-size="10.00">+</text>
<text text-anchor="start" x="14" y="-6.5" font-family="Helvetica,sans-Serif" font-size="10.00">string getDesc() override</text>
<polygon fill="#666666" stroke="#666666" points="0,-50 0,-50 125.25,-50 125.25,-50 0,-50"/>
<polygon fill="#666666" stroke="#666666" points="0,-34 0,-34 125.25,-34 125.25,-34 0,-34"/>
<polygon fill="none" stroke="#666666" points="0,0 0,-68 125.25,-68 125.25,0 0,0"/>
</a>
</g>
</g>
<!-- Node3&#45;&gt;Node4 -->
<g id="edge3_Node000003_Node000004" class="edge">
<title>Node3&#45;&gt;Node4</title>
<g id="a_edge3_Node000003_Node000004"><a xlink:title=" ">
<path fill="none" stroke="#63b8ff" d="M99.69,-94.51C94.04,-85.44 88.34,-76.29 83.16,-67.97"/>
<polygon fill="none" stroke="#63b8ff" points="96.71,-96.35 104.97,-102.99 102.65,-92.65 96.71,-96.35"/>
</a>
</g>
</g>
<!-- Node5 -->
<g id="Node000005" class="node">
<title>Node5</title>
<g id="a_Node000005"><a xlink:href="class_yamato.html" target="_top" xlink:title="The OP weapon of the game, the Yamato!!!">
<polygon fill="white" stroke="none" points="268.25,-68 143,-68 143,0 268.25,0 268.25,-68"/>
<text text-anchor="start" x="189.12" y="-54.5" font-family="Helvetica,sans-Serif" font-size="10.00">Yamato</text>
<text text-anchor="start" x="204.12" y="-38.5" font-family="Helvetica,sans-Serif" font-size="10.00"> </text>
<text text-anchor="start" x="147" y="-22.5" font-family="Helvetica,sans-Serif" font-size="10.00">+</text>
<text text-anchor="start" x="157" y="-22.5" font-family="Helvetica,sans-Serif" font-size="10.00">Yamato()</text>
<text text-anchor="start" x="147" y="-6.5" font-family="Helvetica,sans-Serif" font-size="10.00">+</text>
<text text-anchor="start" x="157" y="-6.5" font-family="Helvetica,sans-Serif" font-size="10.00">string getDesc() override</text>
<polygon fill="#666666" stroke="#666666" points="143,-50 143,-50 268.25,-50 268.25,-50 143,-50"/>
<polygon fill="#666666" stroke="#666666" points="143,-34 143,-34 268.25,-34 268.25,-34 143,-34"/>
<polygon fill="none" stroke="#666666" points="143,0 143,-68 268.25,-68 268.25,0 143,0"/>
</a>
</g>
</g>
<!-- Node3&#45;&gt;Node5 -->
<g id="edge4_Node000003_Node000005" class="edge">
<title>Node3&#45;&gt;Node5</title>
<g id="a_edge4_Node000003_Node000005"><a xlink:title=" ">
<path fill="none" stroke="#63b8ff" d="M167.86,-94.8C173.65,-85.63 179.49,-76.37 184.8,-67.97"/>
<polygon fill="none" stroke="#63b8ff" points="165.06,-92.67 162.68,-102.99 170.98,-96.41 165.06,-92.67"/>
</a>
</g>
</g>
</g>
</svg>

<g id="navigator" transform="translate(0 0)" fill="#404254">
  <rect fill="#f2f5e9" fill-opacity="0.5" stroke="#606060" stroke-width=".5" x="0" y="0" width="60" height="60"/>
  <use id="zoomplus" xlink:href="#zoomPlus" x="17" y="9" onmousedown="handleZoom(evt,'in')"/>
  <use id="zoomminus" xlink:href="#zoomMin" x="42" y="9" onmousedown="handleZoom(evt,'out')"/>
  <use id="reset" xlink:href="#resetDef" x="30" y="36" onmousedown="handleReset()"/>
   <use id="arrowup" xlink:href="#arrowUp" x="0" y="0" onmousedown="handlePan(0,-1)"/>
  <use id="arrowright" xlink:href="#arrowRight" x="0" y="0" onmousedown="handlePan(1,0)"/>
  <use id="arrowdown" xlink:href="#arrowDown" x="0" y="0" onmousedown="handlePan(0,1)"/>
  <use id="arrowleft" xlink:href="#arrowLeft" x="0" y="0" onmousedown="handlePan(-1,0)"/>
</g>
<svg viewBox="0 0 15 15" width="100%" height="30px" preserveAspectRatio="xMaxYMin meet">
 <g id="arrow_out" transform="scale(0.3 0.3)">
  <a xlink:href="class_i_enemy_item__inherit__graph_org.svg" target="_base">
   <rect id="button" ry="5" rx="5" y="6" x="6" height="38" width="38"
        fill="#f2f5e9" fill-opacity="0.5" stroke="#606060" stroke-width="1.0"/>
   <path id="arrow"
     d="M 11.500037,31.436501 C 11.940474,20.09759 22.043105,11.32322 32.158766,21.979434 L 37.068811,17.246167 C 37.068811,17.246167 37.088388,32 37.088388,32 L 22.160133,31.978069 C 22.160133,31.978069 26.997745,27.140456 26.997745,27.140456 C 18.528582,18.264221 13.291696,25.230495 11.500037,31.436501 z"
     style="fill:#404040;"/>
  </a>
 </g>
</svg>

<style type='text/css'>
<![CDATA[
[data-mouse-over-selected='false'] { opacity: 0.7; }
[data-mouse-over-selected='true']  { opacity: 1.0; }
]]>
</style>
<script type="application/ecmascript"><![CDATA[
document.addEventListener('DOMContentLoaded', (event) => {
  highlightEdges();
  highlightAdjacentNodes();
});
]]></script>
</svg>
