<?xml version="1.0" encoding="UTF-8" standalone="no"?>
<!DOCTYPE svg PUBLIC "-//W3C//DTD SVG 1.1//EN"
 "http://www.w3.org/Graphics/SVG/1.1/DTD/svg11.dtd">
<!-- Generated by graphviz version 12.2.1 (20241206.2353)
 -->
<!-- Title: IPlayerItem Pages: 1 -->
<svg width="173pt" height="396pt"
 viewBox="0.00 0.00 173.00 396.00" xmlns="http://www.w3.org/2000/svg" xmlns:xlink="http://www.w3.org/1999/xlink">

<svg id="main" version="1.1" xmlns="http://www.w3.org/2000/svg" xmlns:xlink="http://www.w3.org/1999/xlink" xml:space="preserve">

<style type="text/css"><![CDATA[
.node, .edge {opacity: 0.7;}
.node.selected, .edge.selected {opacity: 1;}
.edge:hover path { stroke: red; }
.edge:hover polygon { stroke: red; fill: red; }
]]></style>
<script type="application/ecmascript" xlink:href="svg.min.js"/>
<svg id="graph" class="graph">
<g id="graph0" class="graph" transform="scale(1 1) rotate(0) translate(4 392)">
<title>IPlayerItem</title>
<!-- Node1 -->
<g id="Node000001" class="node">
<title>Node1</title>
<g id="a_Node000001"><a xlink:title="Player items. The use function takes in a player only.">
<polygon fill="#999999" stroke="none" points="165,-80 0,-80 0,0 165,0 165,-80"/>
<text text-anchor="start" x="57.38" y="-66.5" font-family="Helvetica,sans-Serif" font-size="10.00">IPlayerItem</text>
<text text-anchor="start" x="81" y="-50.5" font-family="Helvetica,sans-Serif" font-size="10.00"> </text>
<text text-anchor="start" x="4" y="-34.5" font-family="Helvetica,sans-Serif" font-size="10.00">+</text>
<text text-anchor="start" x="14" y="-34.5" font-family="Helvetica,sans-Serif" font-size="10.00">IPlayerItem(string n, string</text>
<text text-anchor="start" x="14" y="-22.5" font-family="Helvetica,sans-Serif" font-size="10.00"> t, string d, int c)</text>
<text text-anchor="start" x="4" y="-6.5" font-family="Helvetica,sans-Serif" font-size="10.00">+</text>
<text text-anchor="start" x="14" y="-6.5" font-family="Helvetica,sans-Serif" font-size="10.00">virtual bool use(Player &amp;player)=0</text>
<polygon fill="#666666" stroke="#666666" points="0,-62 0,-62 165,-62 165,-62 0,-62"/>
<polygon fill="#666666" stroke="#666666" points="0,-46 0,-46 165,-46 165,-46 0,-46"/>
<polygon fill="none" stroke="#666666" points="0,0 0,-80 165,-80 165,0 0,0"/>
</a>
</g>
</g>
<!-- Node2 -->
<g id="Node000002" class="node">
<title>Node2</title>
<g id="a_Node000002"><a xlink:href="class_i_item.html" target="_top" xlink:title="Base class for all items in the game.">
<polygon fill="white" stroke="none" points="150.75,-388 14.25,-388 14.25,-116 150.75,-116 150.75,-388"/>
<text text-anchor="start" x="71.25" y="-374.5" font-family="Helvetica,sans-Serif" font-size="10.00">IItem</text>
<text text-anchor="start" x="19.75" y="-358.5" font-family="Helvetica,sans-Serif" font-size="10.00">&#45;</text>
<text text-anchor="start" x="28.25" y="-358.5" font-family="Helvetica,sans-Serif" font-size="10.00">string desc</text>
<text text-anchor="start" x="19.75" y="-342.5" font-family="Helvetica,sans-Serif" font-size="10.00">&#45;</text>
<text text-anchor="start" x="28.25" y="-342.5" font-family="Helvetica,sans-Serif" font-size="10.00">string name</text>
<text text-anchor="start" x="19.75" y="-326.5" font-family="Helvetica,sans-Serif" font-size="10.00">&#45;</text>
<text text-anchor="start" x="28.25" y="-326.5" font-family="Helvetica,sans-Serif" font-size="10.00">string type</text>
<text text-anchor="start" x="19.75" y="-310.5" font-family="Helvetica,sans-Serif" font-size="10.00">&#45;</text>
<text text-anchor="start" x="28.25" y="-310.5" font-family="Helvetica,sans-Serif" font-size="10.00">int count</text>
<text text-anchor="start" x="18.25" y="-294.5" font-family="Helvetica,sans-Serif" font-size="10.00">+</text>
<text text-anchor="start" x="28.25" y="-294.5" font-family="Helvetica,sans-Serif" font-size="10.00">IItem(string n, string t,</text>
<text text-anchor="start" x="28.25" y="-282.5" font-family="Helvetica,sans-Serif" font-size="10.00"> string d, int c)</text>
<text text-anchor="start" x="18.25" y="-266.5" font-family="Helvetica,sans-Serif" font-size="10.00">+</text>
<text text-anchor="start" x="28.25" y="-266.5" font-family="Helvetica,sans-Serif" font-size="10.00">virtual ~IItem()</text>
<text text-anchor="start" x="18.25" y="-250.5" font-family="Helvetica,sans-Serif" font-size="10.00">+</text>
<text text-anchor="start" x="28.25" y="-250.5" font-family="Helvetica,sans-Serif" font-size="10.00">virtual string getDesc()</text>
<text text-anchor="start" x="18.25" y="-234.5" font-family="Helvetica,sans-Serif" font-size="10.00">+</text>
<text text-anchor="start" x="28.25" y="-234.5" font-family="Helvetica,sans-Serif" font-size="10.00">string getName()</text>
<text text-anchor="start" x="18.25" y="-218.5" font-family="Helvetica,sans-Serif" font-size="10.00">+</text>
<text text-anchor="start" x="28.25" y="-218.5" font-family="Helvetica,sans-Serif" font-size="10.00">string getType()</text>
<text text-anchor="start" x="18.25" y="-202.5" font-family="Helvetica,sans-Serif" font-size="10.00">+</text>
<text text-anchor="start" x="28.25" y="-202.5" font-family="Helvetica,sans-Serif" font-size="10.00">void increment(int amount)</text>
<text text-anchor="start" x="18.25" y="-186.5" font-family="Helvetica,sans-Serif" font-size="10.00">+</text>
<text text-anchor="start" x="28.25" y="-186.5" font-family="Helvetica,sans-Serif" font-size="10.00">void decrement(int amount)</text>
<text text-anchor="start" x="18.25" y="-170.5" font-family="Helvetica,sans-Serif" font-size="10.00">+</text>
<text text-anchor="start" x="28.25" y="-170.5" font-family="Helvetica,sans-Serif" font-size="10.00">int getCount()</text>
<text text-anchor="start" x="18.25" y="-154.5" font-family="Helvetica,sans-Serif" font-size="10.00">+</text>
<text text-anchor="start" x="28.25" y="-154.5" font-family="Helvetica,sans-Serif" font-size="10.00">bool isInfinite()</text>
<text text-anchor="start" x="18.25" y="-138.5" font-family="Helvetica,sans-Serif" font-size="10.00">+</text>
<text text-anchor="start" x="28.25" y="-138.5" font-family="Helvetica,sans-Serif" font-size="10.00">bool isDepleted()</text>
<text text-anchor="start" x="18.25" y="-122.5" font-family="Helvetica,sans-Serif" font-size="10.00">+</text>
<text text-anchor="start" x="28.25" y="-122.5" font-family="Helvetica,sans-Serif" font-size="10.00">bool matches(IItem *item)</text>
<polygon fill="#666666" stroke="#666666" points="14.25,-370 14.25,-370 150.75,-370 150.75,-370 14.25,-370"/>
<polygon fill="#666666" stroke="#666666" points="14.25,-306 14.25,-306 26.25,-306 26.25,-306 14.25,-306"/>
<polygon fill="#666666" stroke="#666666" points="26.25,-306 26.25,-306 150.75,-306 150.75,-306 26.25,-306"/>
<polygon fill="none" stroke="#666666" points="14.25,-116 14.25,-388 150.75,-388 150.75,-116 14.25,-116"/>
</a>
</g>
</g>
<!-- Node2&#45;&gt;Node1 -->
<g id="edge1_Node000001_Node000002" class="edge">
<title>Node2&#45;&gt;Node1</title>
<g id="a_edge1_Node000001_Node000002"><a xlink:title=" ">
<path fill="none" stroke="#63b8ff" d="M82.5,-104.76C82.5,-95.88 82.5,-87.48 82.5,-79.86"/>
<polygon fill="none" stroke="#63b8ff" points="79,-104.71 82.5,-114.71 86,-104.71 79,-104.71"/>
</a>
</g>
</g>
</g>
</svg>
</svg>

<style type='text/css'>
<![CDATA[
[data-mouse-over-selected='false'] { opacity: 0.7; }
[data-mouse-over-selected='true']  { opacity: 1.0; }
]]>
</style>
<script type="application/ecmascript"><![CDATA[
document.addEventListener('DOMContentLoaded', (event) => {
  highlightEdges();
  highlightAdjacentNodes();
});
]]></script>
</svg>
