<?xml version="1.0" encoding="UTF-8" standalone="no"?>
<!DOCTYPE svg PUBLIC "-//W3C//DTD SVG 1.1//EN"
 "http://www.w3.org/Graphics/SVG/1.1/DTD/svg11.dtd">
<!-- Generated by graphviz version 12.2.1 (20241206.2353)
 -->
<!-- Title: JovialAftermath Pages: 1 -->
<!--zoomable 657 -->

<svg id="main" version="1.1" xmlns="http://www.w3.org/2000/svg" xmlns:xlink="http://www.w3.org/1999/xlink" xml:space="preserve" onload="init(evt)">

<style type="text/css"><![CDATA[
.node, .edge {opacity: 0.7;}
.node.selected, .edge.selected {opacity: 1;}
.edge:hover path { stroke: red; }
.edge:hover polygon { stroke: red; fill: red; }
]]></style>

<defs>
  <circle id="rim" cx="0" cy="0" r="7"/>
  <circle id="rim2" cx="0" cy="0" r="3.5"/>
  <g id="zoomPlus">
    <use xlink:href="#rim" fill="#404040"><set attributeName="fill" to="#808080" begin="zoomplus.mouseover" end="zoomplus.mouseout"/></use>
    <path d="M-4,0h8M0,-4v8" fill="none" stroke="white" stroke-width="1.5" pointer-events="none"/>
  </g>
  <g id="zoomMin">
    <use xlink:href="#rim" fill="#404040"><set attributeName="fill" to="#808080" begin="zoomminus.mouseover" end="zoomminus.mouseout"/></use>
    <path d="M-4,0h8" fill="none" stroke="white" stroke-width="1.5" pointer-events="none"/>
  </g>
  <g id="arrowUp" transform="translate(30 24)">
    <use xlink:href="#rim"/>
    <path pointer-events="none" fill="none" stroke="white" stroke-width="1.5" d="M0,-3.0v7 M-2.5,-0.5L0,-3.0L2.5,-0.5"/>
  </g>
  <g id="arrowRight" transform="rotate(90) translate(36 -43)">
    <use xlink:href="#rim"/>
    <path pointer-events="none" fill="none" stroke="white" stroke-width="1.5" d="M0,-3.0v7 M-2.5,-0.5L0,-3.0L2.5,-0.5"/>
  </g>
  <g id="arrowDown" transform="rotate(180) translate(-30 -48)">
    <use xlink:href="#rim"/>
    <path pointer-events="none" fill="none" stroke="white" stroke-width="1.5" d="M0,-3.0v7 M-2.5,-0.5L0,-3.0L2.5,-0.5"/>
  </g>
  <g id="arrowLeft" transform="rotate(270) translate(-36 17)">
    <use xlink:href="#rim"/>
    <path pointer-events="none" fill="none" stroke="white" stroke-width="1.5" d="M0,-3.0v7 M-2.5,-0.5L0,-3.0L2.5,-0.5"/>
  </g>
  <g id="resetDef">
    <use xlink:href="#rim2" fill="#404040"><set attributeName="fill" to="#808080" begin="reset.mouseover" end="reset.mouseout"/></use>
  </g>
</defs>
<script type="application/ecmascript">
var viewWidth = 383;
var viewHeight = 657;
var sectionId = 'dynsection-1';
</script>
<script type="application/ecmascript" xlink:href="svg.min.js"/>
<svg id="graph" class="graph">
<g id="viewport">
<title>JovialAftermath</title>
<!-- Node1 -->
<g id="Node000001" class="node">
<title>Node1</title>
<g id="a_Node000001"><a xlink:title="The cutscene after the player wins the Jovial fight.">
<polygon fill="#999999" stroke="none" points="175,-80 17.5,-80 17.5,0 175,0 175,-80"/>
<text text-anchor="start" x="62.12" y="-66.5" font-family="Helvetica,sans-Serif" font-size="10.00">JovialAftermath</text>
<text text-anchor="start" x="21.5" y="-50.5" font-family="Helvetica,sans-Serif" font-size="10.00">+</text>
<text text-anchor="start" x="31.5" y="-50.5" font-family="Helvetica,sans-Serif" font-size="10.00">string battleStatus</text>
<text text-anchor="start" x="21.5" y="-34.5" font-family="Helvetica,sans-Serif" font-size="10.00">+</text>
<text text-anchor="start" x="31.5" y="-34.5" font-family="Helvetica,sans-Serif" font-size="10.00">JovialAftermath(Player player,</text>
<text text-anchor="start" x="31.5" y="-22.5" font-family="Helvetica,sans-Serif" font-size="10.00"> string bs)</text>
<text text-anchor="start" x="21.5" y="-6.5" font-family="Helvetica,sans-Serif" font-size="10.00">+</text>
<text text-anchor="start" x="31.5" y="-6.5" font-family="Helvetica,sans-Serif" font-size="10.00">UserInterface * render() override</text>
<polygon fill="#666666" stroke="#666666" points="17.5,-62 17.5,-62 175,-62 175,-62 17.5,-62"/>
<polygon fill="#666666" stroke="#666666" points="17.5,-46 17.5,-46 29.5,-46 29.5,-46 17.5,-46"/>
<polygon fill="#666666" stroke="#666666" points="29.5,-46 29.5,-46 175,-46 175,-46 29.5,-46"/>
<polygon fill="none" stroke="#666666" points="17.5,0 17.5,-80 175,-80 175,0 17.5,0"/>
</a>
</g>
</g>
<!-- Node2 -->
<g id="Node000002" class="node">
<title>Node2</title>
<g id="a_Node000002"><a xlink:href="class_u_i_with_player.html" target="_top" xlink:title="Basically just the base class for all user interfaces that have a player.">
<polygon fill="white" stroke="none" points="166,-185 26.5,-185 26.5,-117 166,-117 166,-185"/>
<text text-anchor="start" x="67" y="-171.5" font-family="Helvetica,sans-Serif" font-size="10.00">UIWithPlayer</text>
<text text-anchor="start" x="94.75" y="-155.5" font-family="Helvetica,sans-Serif" font-size="10.00"> </text>
<text text-anchor="start" x="30.5" y="-139.5" font-family="Helvetica,sans-Serif" font-size="10.00">+</text>
<text text-anchor="start" x="40.5" y="-139.5" font-family="Helvetica,sans-Serif" font-size="10.00">UIWithPlayer()</text>
<text text-anchor="start" x="30.5" y="-123.5" font-family="Helvetica,sans-Serif" font-size="10.00">+</text>
<text text-anchor="start" x="40.5" y="-123.5" font-family="Helvetica,sans-Serif" font-size="10.00">UIWithPlayer(Player player)</text>
<polygon fill="#666666" stroke="#666666" points="26.5,-167 26.5,-167 166,-167 166,-167 26.5,-167"/>
<polygon fill="#666666" stroke="#666666" points="26.5,-151 26.5,-151 166,-151 166,-151 26.5,-151"/>
<polygon fill="none" stroke="#666666" points="26.5,-117 26.5,-185 166,-185 166,-117 26.5,-117"/>
</a>
</g>
</g>
<!-- Node2&#45;&gt;Node1 -->
<g id="edge1_Node000001_Node000002" class="edge">
<title>Node2&#45;&gt;Node1</title>
<g id="a_edge1_Node000001_Node000002"><a xlink:title=" ">
<path fill="none" stroke="#63b8ff" d="M96.25,-105.57C96.25,-96.97 96.25,-88.03 96.25,-79.63"/>
<polygon fill="none" stroke="#63b8ff" points="92.75,-105.49 96.25,-115.49 99.75,-105.49 92.75,-105.49"/>
</a>
</g>
</g>
<!-- Node3 -->
<g id="Node000003" class="node">
<title>Node3</title>
<g id="a_Node000003"><a xlink:href="class_user_interface.html" target="_top" xlink:title="Base class for all user interfaces in the game.">
<polygon fill="white" stroke="none" points="160.5,-315 0,-315 0,-247 160.5,-247 160.5,-315"/>
<text text-anchor="start" x="50.62" y="-301.5" font-family="Helvetica,sans-Serif" font-size="10.00">UserInterface</text>
<text text-anchor="start" x="4" y="-285.5" font-family="Helvetica,sans-Serif" font-size="10.00">+</text>
<text text-anchor="start" x="14" y="-285.5" font-family="Helvetica,sans-Serif" font-size="10.00">bool quitGame</text>
<text text-anchor="start" x="4" y="-269.5" font-family="Helvetica,sans-Serif" font-size="10.00">+</text>
<text text-anchor="start" x="14" y="-269.5" font-family="Helvetica,sans-Serif" font-size="10.00">virtual UserInterface * render()=0</text>
<text text-anchor="start" x="4" y="-253.5" font-family="Helvetica,sans-Serif" font-size="10.00">+</text>
<text text-anchor="start" x="14" y="-253.5" font-family="Helvetica,sans-Serif" font-size="10.00">virtual ~UserInterface()</text>
<polygon fill="#666666" stroke="#666666" points="0,-297 0,-297 160.5,-297 160.5,-297 0,-297"/>
<polygon fill="#666666" stroke="#666666" points="0,-281 0,-281 12,-281 12,-281 0,-281"/>
<polygon fill="#666666" stroke="#666666" points="12,-281 12,-281 160.5,-281 160.5,-281 12,-281"/>
<polygon fill="none" stroke="#666666" points="0,-247 0,-315 160.5,-315 160.5,-247 0,-247"/>
</a>
</g>
</g>
<!-- Node3&#45;&gt;Node2 -->
<g id="edge2_Node000002_Node000003" class="edge">
<title>Node3&#45;&gt;Node2</title>
<g id="a_edge2_Node000002_Node000003"><a xlink:title=" ">
<path fill="none" stroke="#63b8ff" d="M85.77,-235.84C87.86,-219.1 90.2,-200.36 92.14,-184.85"/>
<polygon fill="none" stroke="#63b8ff" points="82.33,-235.18 84.56,-245.53 89.27,-236.05 82.33,-235.18"/>
</a>
</g>
</g>
<!-- Node4 -->
<g id="Node000004" class="node">
<title>Node4</title>
<g id="a_Node000004"><a xlink:href="class_player.html" target="_top" xlink:title="The Player class is an Entity that has an inventory and money.">
<polygon fill="white" stroke="none" points="341.62,-329 178.88,-329 178.88,-233 341.62,-233 341.62,-329"/>
<text text-anchor="start" x="246.38" y="-315.5" font-family="Helvetica,sans-Serif" font-size="10.00">Player</text>
<text text-anchor="start" x="182.88" y="-299.5" font-family="Helvetica,sans-Serif" font-size="10.00">+</text>
<text text-anchor="start" x="192.88" y="-299.5" font-family="Helvetica,sans-Serif" font-size="10.00">int money</text>
<text text-anchor="start" x="182.88" y="-283.5" font-family="Helvetica,sans-Serif" font-size="10.00">+</text>
<text text-anchor="start" x="192.88" y="-283.5" font-family="Helvetica,sans-Serif" font-size="10.00">Player()</text>
<text text-anchor="start" x="182.88" y="-267.5" font-family="Helvetica,sans-Serif" font-size="10.00">+</text>
<text text-anchor="start" x="192.88" y="-267.5" font-family="Helvetica,sans-Serif" font-size="10.00">Player(int health, string</text>
<text text-anchor="start" x="192.88" y="-255.5" font-family="Helvetica,sans-Serif" font-size="10.00"> name, int atk, int def, int money)</text>
<text text-anchor="start" x="182.88" y="-239.5" font-family="Helvetica,sans-Serif" font-size="10.00">+</text>
<text text-anchor="start" x="192.88" y="-239.5" font-family="Helvetica,sans-Serif" font-size="10.00">void addMoney(int amount)</text>
<polygon fill="#666666" stroke="#666666" points="178.88,-311 178.88,-311 341.62,-311 341.62,-311 178.88,-311"/>
<polygon fill="#666666" stroke="#666666" points="178.88,-295 178.88,-295 190.88,-295 190.88,-295 178.88,-295"/>
<polygon fill="#666666" stroke="#666666" points="190.88,-295 190.88,-295 341.62,-295 341.62,-295 190.88,-295"/>
<polygon fill="none" stroke="#666666" points="178.88,-233 178.88,-329 341.62,-329 341.62,-233 178.88,-233"/>
</a>
</g>
</g>
<!-- Node4&#45;&gt;Node2 -->
<g id="edge3_Node000002_Node000004" class="edge">
<title>Node4&#45;&gt;Node2</title>
<g id="a_edge3_Node000002_Node000004"><a xlink:title=" ">
<path fill="none" stroke="#63b8ff" d="M200.11,-233.06C183.16,-219.83 164.85,-205.54 148.4,-192.71"/>
<polygon fill="none" stroke="#63b8ff" points="148.6,-192.86 141.41,-192.32 139.14,-185.48 146.33,-186.01 148.6,-192.86"/>
</a>
</g>
<text text-anchor="middle" x="190.96" y="-205.5" font-family="Helvetica,sans-Serif" font-size="10.00" fill="grey"> +player</text>
</g>
<!-- Node5 -->
<g id="Node000005" class="node">
<title>Node5</title>
<g id="a_Node000005"><a xlink:href="class_entity.html" target="_top" xlink:title="Base class for all entities in the game. This includes the player and enemies.">
<polygon fill="white" stroke="none" points="219.25,-517 87.25,-517 87.25,-377 219.25,-377 219.25,-517"/>
<text text-anchor="start" x="140.5" y="-503.5" font-family="Helvetica,sans-Serif" font-size="10.00">Entity</text>
<text text-anchor="start" x="91.25" y="-487.5" font-family="Helvetica,sans-Serif" font-size="10.00">+</text>
<text text-anchor="start" x="101.25" y="-487.5" font-family="Helvetica,sans-Serif" font-size="10.00">int maxHealth</text>
<text text-anchor="start" x="91.25" y="-471.5" font-family="Helvetica,sans-Serif" font-size="10.00">+</text>
<text text-anchor="start" x="101.25" y="-471.5" font-family="Helvetica,sans-Serif" font-size="10.00">int currHealth</text>
<text text-anchor="start" x="91.25" y="-455.5" font-family="Helvetica,sans-Serif" font-size="10.00">+</text>
<text text-anchor="start" x="101.25" y="-455.5" font-family="Helvetica,sans-Serif" font-size="10.00">string name</text>
<text text-anchor="start" x="91.25" y="-439.5" font-family="Helvetica,sans-Serif" font-size="10.00">+</text>
<text text-anchor="start" x="101.25" y="-439.5" font-family="Helvetica,sans-Serif" font-size="10.00">Entity(int health, string</text>
<text text-anchor="start" x="101.25" y="-427.5" font-family="Helvetica,sans-Serif" font-size="10.00"> name, int atk, int def)</text>
<text text-anchor="start" x="91.25" y="-411.5" font-family="Helvetica,sans-Serif" font-size="10.00">+</text>
<text text-anchor="start" x="101.25" y="-411.5" font-family="Helvetica,sans-Serif" font-size="10.00">virtual ~Entity()</text>
<text text-anchor="start" x="91.25" y="-395.5" font-family="Helvetica,sans-Serif" font-size="10.00">+</text>
<text text-anchor="start" x="101.25" y="-395.5" font-family="Helvetica,sans-Serif" font-size="10.00">void attack(Entity &amp;target,</text>
<text text-anchor="start" x="101.25" y="-383.5" font-family="Helvetica,sans-Serif" font-size="10.00"> int extraDmg=0)</text>
<polygon fill="#666666" stroke="#666666" points="87.25,-499 87.25,-499 219.25,-499 219.25,-499 87.25,-499"/>
<polygon fill="#666666" stroke="#666666" points="87.25,-451 87.25,-451 99.25,-451 99.25,-451 87.25,-451"/>
<polygon fill="#666666" stroke="#666666" points="99.25,-451 99.25,-451 219.25,-451 219.25,-451 99.25,-451"/>
<polygon fill="none" stroke="#666666" points="87.25,-377 87.25,-517 219.25,-517 219.25,-377 87.25,-377"/>
</a>
</g>
</g>
<!-- Node5&#45;&gt;Node4 -->
<g id="edge4_Node000004_Node000005" class="edge">
<title>Node5&#45;&gt;Node4</title>
<g id="a_edge4_Node000004_Node000005"><a xlink:title=" ">
<path fill="none" stroke="#63b8ff" d="M204.29,-367.77C212.96,-354.49 221.71,-341.07 229.64,-328.92"/>
<polygon fill="none" stroke="#63b8ff" points="201.37,-365.84 198.83,-376.13 207.23,-369.67 201.37,-365.84"/>
</a>
</g>
</g>
<!-- Node6 -->
<g id="Node000006" class="node">
<title>Node6</title>
<g id="a_Node000006"><a xlink:href="class_stats.html" target="_top" xlink:title="Stats for all entities.">
<polygon fill="white" stroke="none" points="198.62,-649 107.88,-649 107.88,-565 198.62,-565 198.62,-649"/>
<text text-anchor="start" x="141.62" y="-635.5" font-family="Helvetica,sans-Serif" font-size="10.00">Stats</text>
<text text-anchor="start" x="111.88" y="-619.5" font-family="Helvetica,sans-Serif" font-size="10.00">+</text>
<text text-anchor="start" x="121.88" y="-619.5" font-family="Helvetica,sans-Serif" font-size="10.00">int atk</text>
<text text-anchor="start" x="111.88" y="-603.5" font-family="Helvetica,sans-Serif" font-size="10.00">+</text>
<text text-anchor="start" x="121.88" y="-603.5" font-family="Helvetica,sans-Serif" font-size="10.00">int def</text>
<text text-anchor="start" x="111.88" y="-587.5" font-family="Helvetica,sans-Serif" font-size="10.00">+</text>
<text text-anchor="start" x="121.88" y="-587.5" font-family="Helvetica,sans-Serif" font-size="10.00">Stats()</text>
<text text-anchor="start" x="111.88" y="-571.5" font-family="Helvetica,sans-Serif" font-size="10.00">+</text>
<text text-anchor="start" x="121.88" y="-571.5" font-family="Helvetica,sans-Serif" font-size="10.00">Stats(int x, int y)</text>
<polygon fill="#666666" stroke="#666666" points="107.88,-631 107.88,-631 198.62,-631 198.62,-631 107.88,-631"/>
<polygon fill="#666666" stroke="#666666" points="107.88,-599 107.88,-599 119.88,-599 119.88,-599 107.88,-599"/>
<polygon fill="#666666" stroke="#666666" points="119.88,-599 119.88,-599 198.62,-599 198.62,-599 119.88,-599"/>
<polygon fill="none" stroke="#666666" points="107.88,-565 107.88,-649 198.62,-649 198.62,-565 107.88,-565"/>
</a>
</g>
</g>
<!-- Node6&#45;&gt;Node5 -->
<g id="edge5_Node000005_Node000006" class="edge">
<title>Node6&#45;&gt;Node5</title>
<g id="a_edge5_Node000005_Node000006"><a xlink:title=" ">
<path fill="none" stroke="#63b8ff" d="M153.25,-565.31C153.25,-554.32 153.25,-542.02 153.25,-529.63"/>
<polygon fill="none" stroke="#63b8ff" points="153.25,-529.65 149.25,-523.65 153.25,-517.65 157.25,-523.65 153.25,-529.65"/>
</a>
</g>
<text text-anchor="middle" x="168.62" y="-537.5" font-family="Helvetica,sans-Serif" font-size="10.00" fill="grey"> +stats</text>
</g>
<!-- Node7 -->
<g id="Node000007" class="node">
<title>Node7</title>
<g id="a_Node000007"><a xlink:href="class_inventory.html" target="_top" xlink:title="Inventory class that holds all items for the player.">
<polygon fill="white" stroke="none" points="374.88,-503 237.62,-503 237.62,-391 374.88,-391 374.88,-503"/>
<text text-anchor="start" x="286" y="-489.5" font-family="Helvetica,sans-Serif" font-size="10.00">Inventory</text>
<text text-anchor="start" x="241.62" y="-473.5" font-family="Helvetica,sans-Serif" font-size="10.00">+</text>
<text text-anchor="start" x="251.62" y="-473.5" font-family="Helvetica,sans-Serif" font-size="10.00">vector&lt; IItem * &gt; items</text>
<text text-anchor="start" x="241.62" y="-457.5" font-family="Helvetica,sans-Serif" font-size="10.00">+</text>
<text text-anchor="start" x="251.62" y="-457.5" font-family="Helvetica,sans-Serif" font-size="10.00">void addItem(IItem *item)</text>
<text text-anchor="start" x="241.62" y="-441.5" font-family="Helvetica,sans-Serif" font-size="10.00">+</text>
<text text-anchor="start" x="251.62" y="-441.5" font-family="Helvetica,sans-Serif" font-size="10.00">void listItems()</text>
<text text-anchor="start" x="241.62" y="-425.5" font-family="Helvetica,sans-Serif" font-size="10.00">+</text>
<text text-anchor="start" x="251.62" y="-425.5" font-family="Helvetica,sans-Serif" font-size="10.00">bool useItem(int idx, Player</text>
<text text-anchor="start" x="251.62" y="-413.5" font-family="Helvetica,sans-Serif" font-size="10.00"> &amp;player, Entity *enemy)</text>
<text text-anchor="start" x="241.62" y="-397.5" font-family="Helvetica,sans-Serif" font-size="10.00">+</text>
<text text-anchor="start" x="251.62" y="-397.5" font-family="Helvetica,sans-Serif" font-size="10.00">void dropItem(int idx)</text>
<polygon fill="#666666" stroke="#666666" points="237.62,-485 237.62,-485 374.88,-485 374.88,-485 237.62,-485"/>
<polygon fill="#666666" stroke="#666666" points="237.62,-469 237.62,-469 249.62,-469 249.62,-469 237.62,-469"/>
<polygon fill="#666666" stroke="#666666" points="249.62,-469 249.62,-469 374.88,-469 374.88,-469 249.62,-469"/>
<polygon fill="none" stroke="#666666" points="237.62,-391 237.62,-503 374.88,-503 374.88,-391 237.62,-391"/>
</a>
</g>
</g>
<!-- Node7&#45;&gt;Node4 -->
<g id="edge6_Node000004_Node000007" class="edge">
<title>Node7&#45;&gt;Node4</title>
<g id="a_edge6_Node000004_Node000007"><a xlink:title=" ">
<path fill="none" stroke="#63b8ff" d="M290.93,-391.39C286.41,-375.28 281.45,-357.57 276.85,-341.18"/>
<polygon fill="none" stroke="#63b8ff" points="276.91,-341.38 271.43,-336.69 273.67,-329.83 279.14,-334.52 276.91,-341.38"/>
</a>
</g>
<text text-anchor="middle" x="304.87" y="-349.5" font-family="Helvetica,sans-Serif" font-size="10.00" fill="grey"> +inventory</text>
</g>
</g>
</svg>

<g id="navigator" transform="translate(0 0)" fill="#404254">
  <rect fill="#f2f5e9" fill-opacity="0.5" stroke="#606060" stroke-width=".5" x="0" y="0" width="60" height="60"/>
  <use id="zoomplus" xlink:href="#zoomPlus" x="17" y="9" onmousedown="handleZoom(evt,'in')"/>
  <use id="zoomminus" xlink:href="#zoomMin" x="42" y="9" onmousedown="handleZoom(evt,'out')"/>
  <use id="reset" xlink:href="#resetDef" x="30" y="36" onmousedown="handleReset()"/>
   <use id="arrowup" xlink:href="#arrowUp" x="0" y="0" onmousedown="handlePan(0,-1)"/>
  <use id="arrowright" xlink:href="#arrowRight" x="0" y="0" onmousedown="handlePan(1,0)"/>
  <use id="arrowdown" xlink:href="#arrowDown" x="0" y="0" onmousedown="handlePan(0,1)"/>
  <use id="arrowleft" xlink:href="#arrowLeft" x="0" y="0" onmousedown="handlePan(-1,0)"/>
</g>
<svg viewBox="0 0 15 15" width="100%" height="30px" preserveAspectRatio="xMaxYMin meet">
 <g id="arrow_out" transform="scale(0.3 0.3)">
  <a xlink:href="class_jovial_aftermath__coll__graph_org.svg" target="_base">
   <rect id="button" ry="5" rx="5" y="6" x="6" height="38" width="38"
        fill="#f2f5e9" fill-opacity="0.5" stroke="#606060" stroke-width="1.0"/>
   <path id="arrow"
     d="M 11.500037,31.436501 C 11.940474,20.09759 22.043105,11.32322 32.158766,21.979434 L 37.068811,17.246167 C 37.068811,17.246167 37.088388,32 37.088388,32 L 22.160133,31.978069 C 22.160133,31.978069 26.997745,27.140456 26.997745,27.140456 C 18.528582,18.264221 13.291696,25.230495 11.500037,31.436501 z"
     style="fill:#404040;"/>
  </a>
 </g>
</svg>

<style type='text/css'>
<![CDATA[
[data-mouse-over-selected='false'] { opacity: 0.7; }
[data-mouse-over-selected='true']  { opacity: 1.0; }
]]>
</style>
<script type="application/ecmascript"><![CDATA[
document.addEventListener('DOMContentLoaded', (event) => {
  highlightEdges();
  highlightAdjacentNodes();
});
]]></script>
</svg>
