<?xml version="1.0" encoding="UTF-8" standalone="no"?>
<!DOCTYPE svg PUBLIC "-//W3C//DTD SVG 1.1//EN"
 "http://www.w3.org/Graphics/SVG/1.1/DTD/svg11.dtd">
<!-- Generated by graphviz version 12.2.1 (20241206.2353)
 -->
<!-- Title: Player::getMoney Pages: 1 -->
<svg width="350pt" height="28pt"
 viewBox="0.00 0.00 350.00 28.00" xmlns="http://www.w3.org/2000/svg" xmlns:xlink="http://www.w3.org/1999/xlink">
<g id="graph0" class="graph" transform="scale(1 1) rotate(0) translate(4 24)">
<title>Player::getMoney</title>
<!-- Node1 -->
<g id="Node000001" class="node">
<title>Node1</title>
<g id="a_Node000001"><a xlink:title=" ">
<polygon fill="#999999" stroke="#666666" points="342,-20 249.5,-20 249.5,0 342,0 342,-20"/>
<text text-anchor="middle" x="295.75" y="-6.5" font-family="Helvetica,sans-Serif" font-size="10.00">Player::getMoney</text>
</a>
</g>
</g>
<!-- Node2 -->
<g id="Node000002" class="node">
<title>Node2</title>
<g id="a_Node000002"><a xlink:href="class_shop.html#ac213488671e8d976d97c3530e691fd44" target="_top" xlink:title=" ">
<polygon fill="white" stroke="#666666" points="213.5,-20 131.5,-20 131.5,0 213.5,0 213.5,-20"/>
<text text-anchor="middle" x="172.5" y="-6.5" font-family="Helvetica,sans-Serif" font-size="10.00">Shop::listItems</text>
</a>
</g>
</g>
<!-- Node1&#45;&gt;Node2 -->
<g id="edge1_Node000001_Node000002" class="edge">
<title>Node1&#45;&gt;Node2</title>
<g id="a_edge1_Node000001_Node000002"><a xlink:title=" ">
<path fill="none" stroke="#63b8ff" d="M237.84,-10C229.67,-10 221.42,-10 213.67,-10"/>
<polygon fill="#63b8ff" stroke="#63b8ff" points="237.74,-13.5 247.74,-10 237.74,-6.5 237.74,-13.5"/>
</a>
</g>
</g>
<!-- Node3 -->
<g id="Node000003" class="node">
<title>Node3</title>
<g id="a_Node000003"><a xlink:href="class_shop_menu.html#a06bcda13b56991f97aca332030008a86" target="_top" xlink:title=" ">
<polygon fill="white" stroke="#666666" points="95.5,-20 0,-20 0,0 95.5,0 95.5,-20"/>
<text text-anchor="middle" x="47.75" y="-6.5" font-family="Helvetica,sans-Serif" font-size="10.00">ShopMenu::render</text>
</a>
</g>
</g>
<!-- Node2&#45;&gt;Node3 -->
<g id="edge2_Node000002_Node000003" class="edge">
<title>Node2&#45;&gt;Node3</title>
<g id="a_edge2_Node000002_Node000003"><a xlink:title=" ">
<path fill="none" stroke="#63b8ff" d="M119.87,-10C111.91,-10 103.72,-10 95.86,-10"/>
<polygon fill="#63b8ff" stroke="#63b8ff" points="119.79,-13.5 129.79,-10 119.79,-6.5 119.79,-13.5"/>
</a>
</g>
</g>
</g>
</svg>
