<?xml version="1.0" encoding="UTF-8" standalone="no"?>
<!DOCTYPE svg PUBLIC "-//W3C//DTD SVG 1.1//EN"
 "http://www.w3.org/Graphics/SVG/1.1/DTD/svg11.dtd">
<!-- Generated by graphviz version 12.2.1 (20241206.2353)
 -->
<!-- Title: ShopMenu::render Pages: 1 -->
<svg width="566pt" height="294pt"
 viewBox="0.00 0.00 565.75 294.00" xmlns="http://www.w3.org/2000/svg" xmlns:xlink="http://www.w3.org/1999/xlink">
<g id="graph0" class="graph" transform="scale(1 1) rotate(0) translate(4 290)">
<title>ShopMenu::render</title>
<!-- Node1 -->
<g id="Node000001" class="node">
<title>Node1</title>
<g id="a_Node000001"><a xlink:title=" ">
<polygon fill="#999999" stroke="#666666" points="95.5,-143 0,-143 0,-123 95.5,-123 95.5,-143"/>
<text text-anchor="middle" x="47.75" y="-129.5" font-family="Helvetica,sans-Serif" font-size="10.00">ShopMenu::render</text>
</a>
</g>
</g>
<!-- Node2 -->
<g id="Node000002" class="node">
<title>Node2</title>
<g id="a_Node000002"><a xlink:href="class_shop.html#a562501e5746bdef39699bc39203f8973" target="_top" xlink:title=" ">
<polygon fill="white" stroke="#666666" points="212.38,-200 132.62,-200 132.62,-180 212.38,-180 212.38,-200"/>
<text text-anchor="middle" x="172.5" y="-186.5" font-family="Helvetica,sans-Serif" font-size="10.00">Shop::addItem</text>
</a>
</g>
</g>
<!-- Node1&#45;&gt;Node2 -->
<g id="edge1_Node000001_Node000002" class="edge">
<title>Node1&#45;&gt;Node2</title>
<g id="a_edge1_Node000001_Node000002"><a xlink:title=" ">
<path fill="none" stroke="#63b8ff" d="M71.26,-143.45C90.21,-152.25 117.55,-164.95 138.89,-174.86"/>
<polygon fill="#63b8ff" stroke="#63b8ff" points="137.21,-177.94 147.76,-178.97 140.16,-171.59 137.21,-177.94"/>
</a>
</g>
</g>
<!-- Node3 -->
<g id="Node000003" class="node">
<title>Node3</title>
<g id="a_Node000003"><a xlink:href="class_shop.html#a6c1a27422ecdd1a5248f156f1355632b" target="_top" xlink:title="Buy an item from the shop.">
<polygon fill="white" stroke="#666666" points="212.38,-162 132.62,-162 132.62,-142 212.38,-142 212.38,-162"/>
<text text-anchor="middle" x="172.5" y="-148.5" font-family="Helvetica,sans-Serif" font-size="10.00">Shop::buyItem</text>
</a>
</g>
</g>
<!-- Node1&#45;&gt;Node3 -->
<g id="edge2_Node000001_Node000003" class="edge">
<title>Node1&#45;&gt;Node3</title>
<g id="a_edge2_Node000001_Node000003"><a xlink:title=" ">
<path fill="none" stroke="#63b8ff" d="M95.86,-140.29C104.13,-141.57 112.77,-142.91 121.13,-144.2"/>
<polygon fill="#63b8ff" stroke="#63b8ff" points="120.38,-147.63 130.8,-145.7 121.45,-140.71 120.38,-147.63"/>
</a>
</g>
</g>
<!-- Node12 -->
<g id="Node000012" class="node">
<title>Node12</title>
<g id="a_Node000012"><a xlink:href="extras_8cpp.html#a3816c0b1714f3be0c6c8a394a4faee7d" target="_top" xlink:title="Gets an integer from the user. Loops until a valid integer is entered.">
<polygon fill="white" stroke="#666666" points="201.5,-124 143.5,-124 143.5,-104 201.5,-104 201.5,-124"/>
<text text-anchor="middle" x="172.5" y="-110.5" font-family="Helvetica,sans-Serif" font-size="10.00">inputNum</text>
</a>
</g>
</g>
<!-- Node1&#45;&gt;Node12 -->
<g id="edge13_Node000001_Node000012" class="edge">
<title>Node1&#45;&gt;Node12</title>
<g id="a_edge13_Node000001_Node000012"><a xlink:title=" ">
<path fill="none" stroke="#63b8ff" d="M95.86,-125.71C107.82,-123.86 120.56,-121.89 132.1,-120.1"/>
<polygon fill="#63b8ff" stroke="#63b8ff" points="132.32,-123.61 141.67,-118.62 131.25,-116.69 132.32,-123.61"/>
</a>
</g>
</g>
<!-- Node13 -->
<g id="Node000013" class="node">
<title>Node13</title>
<g id="a_Node000013"><a xlink:href="class_shop.html#ac213488671e8d976d97c3530e691fd44" target="_top" xlink:title=" ">
<polygon fill="white" stroke="#666666" points="213.5,-77 131.5,-77 131.5,-57 213.5,-57 213.5,-77"/>
<text text-anchor="middle" x="172.5" y="-63.5" font-family="Helvetica,sans-Serif" font-size="10.00">Shop::listItems</text>
</a>
</g>
</g>
<!-- Node1&#45;&gt;Node13 -->
<g id="edge14_Node000001_Node000013" class="edge">
<title>Node1&#45;&gt;Node13</title>
<g id="a_edge14_Node000001_Node000013"><a xlink:title=" ">
<path fill="none" stroke="#63b8ff" d="M68.2,-122.54C88.13,-111.83 119.36,-95.03 142.27,-82.72"/>
<polygon fill="#63b8ff" stroke="#63b8ff" points="143.66,-85.94 150.81,-78.13 140.34,-79.78 143.66,-85.94"/>
</a>
</g>
</g>
<!-- Node4 -->
<g id="Node000004" class="node">
<title>Node4</title>
<g id="a_Node000004"><a xlink:href="class_inventory.html#a7a3d5b1157d8212186746eade80b5630" target="_top" xlink:title="Adds an item to inventory.">
<polygon fill="white" stroke="#666666" points="347.25,-248 249.5,-248 249.5,-228 347.25,-228 347.25,-248"/>
<text text-anchor="middle" x="298.38" y="-234.5" font-family="Helvetica,sans-Serif" font-size="10.00">Inventory::addItem</text>
</a>
</g>
</g>
<!-- Node3&#45;&gt;Node4 -->
<g id="edge3_Node000003_Node000004" class="edge">
<title>Node3&#45;&gt;Node4</title>
<g id="a_edge3_Node000003_Node000004"><a xlink:title=" ">
<path fill="none" stroke="#63b8ff" d="M199.42,-162.3C204.32,-164.79 209.24,-167.71 213.5,-171 233.21,-186.25 229.95,-198.54 249.5,-214 253.27,-216.98 257.48,-219.74 261.78,-222.25"/>
<polygon fill="#63b8ff" stroke="#63b8ff" points="260.06,-225.29 270.53,-226.89 263.34,-219.11 260.06,-225.29"/>
</a>
</g>
</g>
<!-- Node6 -->
<g id="Node000006" class="node">
<title>Node6</title>
<g id="a_Node000006"><a xlink:href="class_i_item.html#a6b86cf44e8eebf94b7096ea5645a0527" target="_top" xlink:title=" ">
<polygon fill="white" stroke="#666666" points="467.5,-210 383.25,-210 383.25,-190 467.5,-190 467.5,-210"/>
<text text-anchor="middle" x="425.38" y="-196.5" font-family="Helvetica,sans-Serif" font-size="10.00">IItem::getName</text>
</a>
</g>
</g>
<!-- Node3&#45;&gt;Node6 -->
<g id="edge12_Node000003_Node000006" class="edge">
<title>Node3&#45;&gt;Node6</title>
<g id="a_edge12_Node000003_Node000006"><a xlink:title=" ">
<path fill="none" stroke="#63b8ff" d="M196.3,-162.46C211.14,-168.83 231.1,-176.57 249.5,-181 289.78,-190.7 336.48,-195.46 371.48,-197.78"/>
<polygon fill="#63b8ff" stroke="#63b8ff" points="371.17,-201.27 381.37,-198.39 371.6,-194.28 371.17,-201.27"/>
</a>
</g>
</g>
<!-- Node9 -->
<g id="Node000009" class="node">
<title>Node9</title>
<g id="a_Node000009"><a xlink:href="class_player.html#a86ad66429e7bf8ef4640bac1d0f3476f" target="_top" xlink:title=" ">
<polygon fill="white" stroke="#666666" points="345.75,-172 251,-172 251,-152 345.75,-152 345.75,-172"/>
<text text-anchor="middle" x="298.38" y="-158.5" font-family="Helvetica,sans-Serif" font-size="10.00">Player::addMoney</text>
</a>
</g>
</g>
<!-- Node3&#45;&gt;Node9 -->
<g id="edge8_Node000003_Node000009" class="edge">
<title>Node3&#45;&gt;Node9</title>
<g id="a_edge8_Node000003_Node000009"><a xlink:title=" ">
<path fill="none" stroke="#63b8ff" d="M212.69,-155.16C221.17,-155.85 230.3,-156.59 239.32,-157.31"/>
<polygon fill="#63b8ff" stroke="#63b8ff" points="238.87,-160.79 249.12,-158.1 239.44,-153.81 238.87,-160.79"/>
</a>
</g>
</g>
<!-- Node10 -->
<g id="Node000010" class="node">
<title>Node10</title>
<g id="a_Node000010"><a xlink:href="extras_8cpp.html#a99d2755bf0660601280710515b3f512c" target="_top" xlink:title="Colors text.">
<polygon fill="white" stroke="#666666" points="459.62,-134 391.12,-134 391.12,-114 459.62,-114 459.62,-134"/>
<text text-anchor="middle" x="425.38" y="-120.5" font-family="Helvetica,sans-Serif" font-size="10.00">colorizeText</text>
</a>
</g>
</g>
<!-- Node3&#45;&gt;Node10 -->
<g id="edge11_Node000003_Node000010" class="edge">
<title>Node3&#45;&gt;Node10</title>
<g id="a_edge11_Node000003_Node000010"><a xlink:title=" ">
<path fill="none" stroke="#63b8ff" d="M212.55,-147.3C224.41,-145.9 237.49,-144.36 249.5,-143 293.66,-137.99 344.14,-132.53 379.47,-128.76"/>
<polygon fill="#63b8ff" stroke="#63b8ff" points="379.76,-132.25 389.33,-127.71 379.02,-125.29 379.76,-132.25"/>
</a>
</g>
</g>
<!-- Node11 -->
<g id="Node000011" class="node">
<title>Node11</title>
<g id="a_Node000011"><a xlink:href="class_player.html#abda4c0f24a59155522361079dce5d427" target="_top" xlink:title=" ">
<polygon fill="white" stroke="#666666" points="343.88,-96 252.88,-96 252.88,-76 343.88,-76 343.88,-96"/>
<text text-anchor="middle" x="298.38" y="-82.5" font-family="Helvetica,sans-Serif" font-size="10.00">Player::canAfford</text>
</a>
</g>
</g>
<!-- Node3&#45;&gt;Node11 -->
<g id="edge10_Node000003_Node000011" class="edge">
<title>Node3&#45;&gt;Node11</title>
<g id="a_edge10_Node000003_Node000011"><a xlink:title=" ">
<path fill="none" stroke="#63b8ff" d="M196.59,-141.63C202.2,-138.95 208.12,-135.98 213.5,-133 230.11,-123.8 232.99,-119.38 249.5,-110 254.62,-107.09 260.14,-104.15 265.55,-101.37"/>
<polygon fill="#63b8ff" stroke="#63b8ff" points="266.96,-104.58 274.32,-96.96 263.82,-98.33 266.96,-104.58"/>
</a>
</g>
</g>
<!-- Node5 -->
<g id="Node000005" class="node">
<title>Node5</title>
<g id="a_Node000005"><a xlink:href="class_i_item.html#a5a1e25be1c8a94e21ec832a9b7b5492f" target="_top" xlink:title=" ">
<polygon fill="white" stroke="#666666" points="467.5,-286 383.25,-286 383.25,-266 467.5,-266 467.5,-286"/>
<text text-anchor="middle" x="425.38" y="-272.5" font-family="Helvetica,sans-Serif" font-size="10.00">IItem::getCount</text>
</a>
</g>
</g>
<!-- Node4&#45;&gt;Node5 -->
<g id="edge4_Node000004_Node000005" class="edge">
<title>Node4&#45;&gt;Node5</title>
<g id="a_edge4_Node000004_Node000005"><a xlink:title=" ">
<path fill="none" stroke="#63b8ff" d="M333.86,-248.48C347.94,-252.76 364.4,-257.77 379.39,-262.33"/>
<polygon fill="#63b8ff" stroke="#63b8ff" points="377.97,-265.55 388.55,-265.11 380,-258.85 377.97,-265.55"/>
</a>
</g>
</g>
<!-- Node4&#45;&gt;Node6 -->
<g id="edge5_Node000004_Node000006" class="edge">
<title>Node4&#45;&gt;Node6</title>
<g id="a_edge5_Node000004_Node000006"><a xlink:title=" ">
<path fill="none" stroke="#63b8ff" d="M333.86,-227.52C347.94,-223.24 364.4,-218.23 379.39,-213.67"/>
<polygon fill="#63b8ff" stroke="#63b8ff" points="380,-217.15 388.55,-210.89 377.97,-210.45 380,-217.15"/>
</a>
</g>
</g>
<!-- Node7 -->
<g id="Node000007" class="node">
<title>Node7</title>
<g id="a_Node000007"><a xlink:href="extras_8cpp.html#a251383c9dea6cb260fb6f9ebb010139f" target="_top" xlink:title="Outputs a text character by character with a given delay.">
<polygon fill="white" stroke="#666666" points="460.75,-248 390,-248 390,-228 460.75,-228 460.75,-248"/>
<text text-anchor="middle" x="425.38" y="-234.5" font-family="Helvetica,sans-Serif" font-size="10.00">printAnimate</text>
</a>
</g>
</g>
<!-- Node4&#45;&gt;Node7 -->
<g id="edge6_Node000004_Node000007" class="edge">
<title>Node4&#45;&gt;Node7</title>
<g id="a_edge6_Node000004_Node000007"><a xlink:title=" ">
<path fill="none" stroke="#63b8ff" d="M347.7,-238C357.78,-238 368.37,-238 378.36,-238"/>
<polygon fill="#63b8ff" stroke="#63b8ff" points="378.22,-241.5 388.22,-238 378.22,-234.5 378.22,-241.5"/>
</a>
</g>
</g>
<!-- Node8 -->
<g id="Node000008" class="node">
<title>Node8</title>
<g id="a_Node000008"><a xlink:href="extras_8cpp.html#aea0e34fe8a665ef6cb1fd6526ce1deb0" target="_top" xlink:title=" ">
<polygon fill="white" stroke="#666666" points="557.75,-248 503.5,-248 503.5,-228 557.75,-228 557.75,-248"/>
<text text-anchor="middle" x="530.62" y="-234.5" font-family="Helvetica,sans-Serif" font-size="10.00">sleepMS</text>
</a>
</g>
</g>
<!-- Node7&#45;&gt;Node8 -->
<g id="edge7_Node000007_Node000008" class="edge">
<title>Node7&#45;&gt;Node8</title>
<g id="a_edge7_Node000007_Node000008"><a xlink:title=" ">
<path fill="none" stroke="#63b8ff" d="M461.04,-238C470.9,-238 481.68,-238 491.71,-238"/>
<polygon fill="#63b8ff" stroke="#63b8ff" points="491.54,-241.5 501.54,-238 491.54,-234.5 491.54,-241.5"/>
</a>
</g>
</g>
<!-- Node9&#45;&gt;Node10 -->
<g id="edge9_Node000009_Node000010" class="edge">
<title>Node9&#45;&gt;Node10</title>
<g id="a_edge9_Node000009_Node000010"><a xlink:title=" ">
<path fill="none" stroke="#63b8ff" d="M333.86,-151.52C348.17,-147.17 364.94,-142.07 380.14,-137.45"/>
<polygon fill="#63b8ff" stroke="#63b8ff" points="380.87,-140.89 389.42,-134.63 378.83,-134.19 380.87,-140.89"/>
</a>
</g>
</g>
<!-- Node13&#45;&gt;Node10 -->
<g id="edge16_Node000013_Node000010" class="edge">
<title>Node13&#45;&gt;Node10</title>
<g id="a_edge16_Node000013_Node000010"><a xlink:title=" ">
<path fill="none" stroke="#63b8ff" d="M213.96,-59.99C249.91,-55.38 303.41,-52.56 347.25,-67 370.56,-74.68 392.6,-92.41 407.1,-106.08"/>
<polygon fill="#63b8ff" stroke="#63b8ff" points="404.43,-108.36 414.02,-112.87 409.34,-103.37 404.43,-108.36"/>
</a>
</g>
</g>
<!-- Node13&#45;&gt;Node11 -->
<g id="edge15_Node000013_Node000011" class="edge">
<title>Node13&#45;&gt;Node11</title>
<g id="a_edge15_Node000013_Node000011"><a xlink:title=" ">
<path fill="none" stroke="#63b8ff" d="M213.72,-73.17C222.56,-74.52 232.07,-75.98 241.41,-77.42"/>
<polygon fill="#63b8ff" stroke="#63b8ff" points="240.73,-80.85 251.15,-78.91 241.79,-73.93 240.73,-80.85"/>
</a>
</g>
</g>
<!-- Node14 -->
<g id="Node000014" class="node">
<title>Node14</title>
<g id="a_Node000014"><a xlink:href="class_player.html#ac45154df7c4eb2d1d58255c3ff1c55dd" target="_top" xlink:title=" ">
<polygon fill="white" stroke="#666666" points="344.62,-20 252.12,-20 252.12,0 344.62,0 344.62,-20"/>
<text text-anchor="middle" x="298.38" y="-6.5" font-family="Helvetica,sans-Serif" font-size="10.00">Player::getMoney</text>
</a>
</g>
</g>
<!-- Node13&#45;&gt;Node14 -->
<g id="edge17_Node000013_Node000014" class="edge">
<title>Node13&#45;&gt;Node14</title>
<g id="a_edge17_Node000013_Node000014"><a xlink:title=" ">
<path fill="none" stroke="#63b8ff" d="M196.22,-56.55C215.34,-47.75 242.93,-35.05 264.47,-25.14"/>
<polygon fill="#63b8ff" stroke="#63b8ff" points="265.8,-28.38 273.42,-21.02 262.88,-22.02 265.8,-28.38"/>
</a>
</g>
</g>
</g>
</svg>
