<?xml version="1.0" encoding="UTF-8" standalone="no"?>
<!DOCTYPE svg PUBLIC "-//W3C//DTD SVG 1.1//EN"
 "http://www.w3.org/Graphics/SVG/1.1/DTD/svg11.dtd">
<!-- Generated by graphviz version 12.2.1 (20241206.2353)
 -->
<!-- Title: JovialAftermath Pages: 1 -->
<svg width="383pt" height="657pt"
 viewBox="0.00 0.00 382.88 657.00" xmlns="http://www.w3.org/2000/svg" xmlns:xlink="http://www.w3.org/1999/xlink">
<g id="graph0" class="graph" transform="scale(1 1) rotate(0) translate(4 653)">
<title>JovialAftermath</title>
<!-- Node1 -->
<g id="Node000001" class="node">
<title>Node1</title>
<g id="a_Node000001"><a xlink:title="The cutscene after the player wins the Jovial fight.">
<polygon fill="#999999" stroke="none" points="175,-80 17.5,-80 17.5,0 175,0 175,-80"/>
<text text-anchor="start" x="62.12" y="-66.5" font-family="Helvetica,sans-Serif" font-size="10.00">JovialAftermath</text>
<text text-anchor="start" x="21.5" y="-50.5" font-family="Helvetica,sans-Serif" font-size="10.00">+</text>
<text text-anchor="start" x="31.5" y="-50.5" font-family="Helvetica,sans-Serif" font-size="10.00">string battleStatus</text>
<text text-anchor="start" x="21.5" y="-34.5" font-family="Helvetica,sans-Serif" font-size="10.00">+</text>
<text text-anchor="start" x="31.5" y="-34.5" font-family="Helvetica,sans-Serif" font-size="10.00">JovialAftermath(Player player,</text>
<text text-anchor="start" x="31.5" y="-22.5" font-family="Helvetica,sans-Serif" font-size="10.00"> string bs)</text>
<text text-anchor="start" x="21.5" y="-6.5" font-family="Helvetica,sans-Serif" font-size="10.00">+</text>
<text text-anchor="start" x="31.5" y="-6.5" font-family="Helvetica,sans-Serif" font-size="10.00">UserInterface * render() override</text>
<polygon fill="#666666" stroke="#666666" points="17.5,-62 17.5,-62 175,-62 175,-62 17.5,-62"/>
<polygon fill="#666666" stroke="#666666" points="17.5,-46 17.5,-46 29.5,-46 29.5,-46 17.5,-46"/>
<polygon fill="#666666" stroke="#666666" points="29.5,-46 29.5,-46 175,-46 175,-46 29.5,-46"/>
<polygon fill="none" stroke="#666666" points="17.5,0 17.5,-80 175,-80 175,0 17.5,0"/>
</a>
</g>
</g>
<!-- Node2 -->
<g id="Node000002" class="node">
<title>Node2</title>
<g id="a_Node000002"><a xlink:href="class_u_i_with_player.html" target="_top" xlink:title="Basically just the base class for all user interfaces that have a player.">
<polygon fill="white" stroke="none" points="166,-185 26.5,-185 26.5,-117 166,-117 166,-185"/>
<text text-anchor="start" x="67" y="-171.5" font-family="Helvetica,sans-Serif" font-size="10.00">UIWithPlayer</text>
<text text-anchor="start" x="94.75" y="-155.5" font-family="Helvetica,sans-Serif" font-size="10.00"> </text>
<text text-anchor="start" x="30.5" y="-139.5" font-family="Helvetica,sans-Serif" font-size="10.00">+</text>
<text text-anchor="start" x="40.5" y="-139.5" font-family="Helvetica,sans-Serif" font-size="10.00">UIWithPlayer()</text>
<text text-anchor="start" x="30.5" y="-123.5" font-family="Helvetica,sans-Serif" font-size="10.00">+</text>
<text text-anchor="start" x="40.5" y="-123.5" font-family="Helvetica,sans-Serif" font-size="10.00">UIWithPlayer(Player player)</text>
<polygon fill="#666666" stroke="#666666" points="26.5,-167 26.5,-167 166,-167 166,-167 26.5,-167"/>
<polygon fill="#666666" stroke="#666666" points="26.5,-151 26.5,-151 166,-151 166,-151 26.5,-151"/>
<polygon fill="none" stroke="#666666" points="26.5,-117 26.5,-185 166,-185 166,-117 26.5,-117"/>
</a>
</g>
</g>
<!-- Node2&#45;&gt;Node1 -->
<g id="edge1_Node000001_Node000002" class="edge">
<title>Node2&#45;&gt;Node1</title>
<g id="a_edge1_Node000001_Node000002"><a xlink:title=" ">
<path fill="none" stroke="#63b8ff" d="M96.25,-105.57C96.25,-96.97 96.25,-88.03 96.25,-79.63"/>
<polygon fill="none" stroke="#63b8ff" points="92.75,-105.49 96.25,-115.49 99.75,-105.49 92.75,-105.49"/>
</a>
</g>
</g>
<!-- Node3 -->
<g id="Node000003" class="node">
<title>Node3</title>
<g id="a_Node000003"><a xlink:href="class_user_interface.html" target="_top" xlink:title="Base class for all user interfaces in the game.">
<polygon fill="white" stroke="none" points="160.5,-315 0,-315 0,-247 160.5,-247 160.5,-315"/>
<text text-anchor="start" x="50.62" y="-301.5" font-family="Helvetica,sans-Serif" font-size="10.00">UserInterface</text>
<text text-anchor="start" x="4" y="-285.5" font-family="Helvetica,sans-Serif" font-size="10.00">+</text>
<text text-anchor="start" x="14" y="-285.5" font-family="Helvetica,sans-Serif" font-size="10.00">bool quitGame</text>
<text text-anchor="start" x="4" y="-269.5" font-family="Helvetica,sans-Serif" font-size="10.00">+</text>
<text text-anchor="start" x="14" y="-269.5" font-family="Helvetica,sans-Serif" font-size="10.00">virtual UserInterface * render()=0</text>
<text text-anchor="start" x="4" y="-253.5" font-family="Helvetica,sans-Serif" font-size="10.00">+</text>
<text text-anchor="start" x="14" y="-253.5" font-family="Helvetica,sans-Serif" font-size="10.00">virtual ~UserInterface()</text>
<polygon fill="#666666" stroke="#666666" points="0,-297 0,-297 160.5,-297 160.5,-297 0,-297"/>
<polygon fill="#666666" stroke="#666666" points="0,-281 0,-281 12,-281 12,-281 0,-281"/>
<polygon fill="#666666" stroke="#666666" points="12,-281 12,-281 160.5,-281 160.5,-281 12,-281"/>
<polygon fill="none" stroke="#666666" points="0,-247 0,-315 160.5,-315 160.5,-247 0,-247"/>
</a>
</g>
</g>
<!-- Node3&#45;&gt;Node2 -->
<g id="edge2_Node000002_Node000003" class="edge">
<title>Node3&#45;&gt;Node2</title>
<g id="a_edge2_Node000002_Node000003"><a xlink:title=" ">
<path fill="none" stroke="#63b8ff" d="M85.77,-235.84C87.86,-219.1 90.2,-200.36 92.14,-184.85"/>
<polygon fill="none" stroke="#63b8ff" points="82.33,-235.18 84.56,-245.53 89.27,-236.05 82.33,-235.18"/>
</a>
</g>
</g>
<!-- Node4 -->
<g id="Node000004" class="node">
<title>Node4</title>
<g id="a_Node000004"><a xlink:href="class_player.html" target="_top" xlink:title="The Player class is an Entity that has an inventory and money.">
<polygon fill="white" stroke="none" points="341.62,-329 178.88,-329 178.88,-233 341.62,-233 341.62,-329"/>
<text text-anchor="start" x="246.38" y="-315.5" font-family="Helvetica,sans-Serif" font-size="10.00">Player</text>
<text text-anchor="start" x="182.88" y="-299.5" font-family="Helvetica,sans-Serif" font-size="10.00">+</text>
<text text-anchor="start" x="192.88" y="-299.5" font-family="Helvetica,sans-Serif" font-size="10.00">int money</text>
<text text-anchor="start" x="182.88" y="-283.5" font-family="Helvetica,sans-Serif" font-size="10.00">+</text>
<text text-anchor="start" x="192.88" y="-283.5" font-family="Helvetica,sans-Serif" font-size="10.00">Player()</text>
<text text-anchor="start" x="182.88" y="-267.5" font-family="Helvetica,sans-Serif" font-size="10.00">+</text>
<text text-anchor="start" x="192.88" y="-267.5" font-family="Helvetica,sans-Serif" font-size="10.00">Player(int health, string</text>
<text text-anchor="start" x="192.88" y="-255.5" font-family="Helvetica,sans-Serif" font-size="10.00"> name, int atk, int def, int money)</text>
<text text-anchor="start" x="182.88" y="-239.5" font-family="Helvetica,sans-Serif" font-size="10.00">+</text>
<text text-anchor="start" x="192.88" y="-239.5" font-family="Helvetica,sans-Serif" font-size="10.00">void addMoney(int amount)</text>
<polygon fill="#666666" stroke="#666666" points="178.88,-311 178.88,-311 341.62,-311 341.62,-311 178.88,-311"/>
<polygon fill="#666666" stroke="#666666" points="178.88,-295 178.88,-295 190.88,-295 190.88,-295 178.88,-295"/>
<polygon fill="#666666" stroke="#666666" points="190.88,-295 190.88,-295 341.62,-295 341.62,-295 190.88,-295"/>
<polygon fill="none" stroke="#666666" points="178.88,-233 178.88,-329 341.62,-329 341.62,-233 178.88,-233"/>
</a>
</g>
</g>
<!-- Node4&#45;&gt;Node2 -->
<g id="edge3_Node000002_Node000004" class="edge">
<title>Node4&#45;&gt;Node2</title>
<g id="a_edge3_Node000002_Node000004"><a xlink:title=" ">
<path fill="none" stroke="#63b8ff" d="M200.11,-233.06C183.16,-219.83 164.85,-205.54 148.4,-192.71"/>
<polygon fill="none" stroke="#63b8ff" points="148.6,-192.86 141.41,-192.32 139.14,-185.48 146.33,-186.01 148.6,-192.86"/>
</a>
</g>
<text text-anchor="middle" x="190.96" y="-205.5" font-family="Helvetica,sans-Serif" font-size="10.00" fill="grey"> +player</text>
</g>
<!-- Node5 -->
<g id="Node000005" class="node">
<title>Node5</title>
<g id="a_Node000005"><a xlink:href="class_entity.html" target="_top" xlink:title="Base class for all entities in the game. This includes the player and enemies.">
<polygon fill="white" stroke="none" points="219.25,-517 87.25,-517 87.25,-377 219.25,-377 219.25,-517"/>
<text text-anchor="start" x="140.5" y="-503.5" font-family="Helvetica,sans-Serif" font-size="10.00">Entity</text>
<text text-anchor="start" x="91.25" y="-487.5" font-family="Helvetica,sans-Serif" font-size="10.00">+</text>
<text text-anchor="start" x="101.25" y="-487.5" font-family="Helvetica,sans-Serif" font-size="10.00">int maxHealth</text>
<text text-anchor="start" x="91.25" y="-471.5" font-family="Helvetica,sans-Serif" font-size="10.00">+</text>
<text text-anchor="start" x="101.25" y="-471.5" font-family="Helvetica,sans-Serif" font-size="10.00">int currHealth</text>
<text text-anchor="start" x="91.25" y="-455.5" font-family="Helvetica,sans-Serif" font-size="10.00">+</text>
<text text-anchor="start" x="101.25" y="-455.5" font-family="Helvetica,sans-Serif" font-size="10.00">string name</text>
<text text-anchor="start" x="91.25" y="-439.5" font-family="Helvetica,sans-Serif" font-size="10.00">+</text>
<text text-anchor="start" x="101.25" y="-439.5" font-family="Helvetica,sans-Serif" font-size="10.00">Entity(int health, string</text>
<text text-anchor="start" x="101.25" y="-427.5" font-family="Helvetica,sans-Serif" font-size="10.00"> name, int atk, int def)</text>
<text text-anchor="start" x="91.25" y="-411.5" font-family="Helvetica,sans-Serif" font-size="10.00">+</text>
<text text-anchor="start" x="101.25" y="-411.5" font-family="Helvetica,sans-Serif" font-size="10.00">virtual ~Entity()</text>
<text text-anchor="start" x="91.25" y="-395.5" font-family="Helvetica,sans-Serif" font-size="10.00">+</text>
<text text-anchor="start" x="101.25" y="-395.5" font-family="Helvetica,sans-Serif" font-size="10.00">void attack(Entity &amp;target,</text>
<text text-anchor="start" x="101.25" y="-383.5" font-family="Helvetica,sans-Serif" font-size="10.00"> int extraDmg=0)</text>
<polygon fill="#666666" stroke="#666666" points="87.25,-499 87.25,-499 219.25,-499 219.25,-499 87.25,-499"/>
<polygon fill="#666666" stroke="#666666" points="87.25,-451 87.25,-451 99.25,-451 99.25,-451 87.25,-451"/>
<polygon fill="#666666" stroke="#666666" points="99.25,-451 99.25,-451 219.25,-451 219.25,-451 99.25,-451"/>
<polygon fill="none" stroke="#666666" points="87.25,-377 87.25,-517 219.25,-517 219.25,-377 87.25,-377"/>
</a>
</g>
</g>
<!-- Node5&#45;&gt;Node4 -->
<g id="edge4_Node000004_Node000005" class="edge">
<title>Node5&#45;&gt;Node4</title>
<g id="a_edge4_Node000004_Node000005"><a xlink:title=" ">
<path fill="none" stroke="#63b8ff" d="M204.29,-367.77C212.96,-354.49 221.71,-341.07 229.64,-328.92"/>
<polygon fill="none" stroke="#63b8ff" points="201.37,-365.84 198.83,-376.13 207.23,-369.67 201.37,-365.84"/>
</a>
</g>
</g>
<!-- Node6 -->
<g id="Node000006" class="node">
<title>Node6</title>
<g id="a_Node000006"><a xlink:href="class_stats.html" target="_top" xlink:title="Stats for all entities.">
<polygon fill="white" stroke="none" points="198.62,-649 107.88,-649 107.88,-565 198.62,-565 198.62,-649"/>
<text text-anchor="start" x="141.62" y="-635.5" font-family="Helvetica,sans-Serif" font-size="10.00">Stats</text>
<text text-anchor="start" x="111.88" y="-619.5" font-family="Helvetica,sans-Serif" font-size="10.00">+</text>
<text text-anchor="start" x="121.88" y="-619.5" font-family="Helvetica,sans-Serif" font-size="10.00">int atk</text>
<text text-anchor="start" x="111.88" y="-603.5" font-family="Helvetica,sans-Serif" font-size="10.00">+</text>
<text text-anchor="start" x="121.88" y="-603.5" font-family="Helvetica,sans-Serif" font-size="10.00">int def</text>
<text text-anchor="start" x="111.88" y="-587.5" font-family="Helvetica,sans-Serif" font-size="10.00">+</text>
<text text-anchor="start" x="121.88" y="-587.5" font-family="Helvetica,sans-Serif" font-size="10.00">Stats()</text>
<text text-anchor="start" x="111.88" y="-571.5" font-family="Helvetica,sans-Serif" font-size="10.00">+</text>
<text text-anchor="start" x="121.88" y="-571.5" font-family="Helvetica,sans-Serif" font-size="10.00">Stats(int x, int y)</text>
<polygon fill="#666666" stroke="#666666" points="107.88,-631 107.88,-631 198.62,-631 198.62,-631 107.88,-631"/>
<polygon fill="#666666" stroke="#666666" points="107.88,-599 107.88,-599 119.88,-599 119.88,-599 107.88,-599"/>
<polygon fill="#666666" stroke="#666666" points="119.88,-599 119.88,-599 198.62,-599 198.62,-599 119.88,-599"/>
<polygon fill="none" stroke="#666666" points="107.88,-565 107.88,-649 198.62,-649 198.62,-565 107.88,-565"/>
</a>
</g>
</g>
<!-- Node6&#45;&gt;Node5 -->
<g id="edge5_Node000005_Node000006" class="edge">
<title>Node6&#45;&gt;Node5</title>
<g id="a_edge5_Node000005_Node000006"><a xlink:title=" ">
<path fill="none" stroke="#63b8ff" d="M153.25,-565.31C153.25,-554.32 153.25,-542.02 153.25,-529.63"/>
<polygon fill="none" stroke="#63b8ff" points="153.25,-529.65 149.25,-523.65 153.25,-517.65 157.25,-523.65 153.25,-529.65"/>
</a>
</g>
<text text-anchor="middle" x="168.62" y="-537.5" font-family="Helvetica,sans-Serif" font-size="10.00" fill="grey"> +stats</text>
</g>
<!-- Node7 -->
<g id="Node000007" class="node">
<title>Node7</title>
<g id="a_Node000007"><a xlink:href="class_inventory.html" target="_top" xlink:title="Inventory class that holds all items for the player.">
<polygon fill="white" stroke="none" points="374.88,-503 237.62,-503 237.62,-391 374.88,-391 374.88,-503"/>
<text text-anchor="start" x="286" y="-489.5" font-family="Helvetica,sans-Serif" font-size="10.00">Inventory</text>
<text text-anchor="start" x="241.62" y="-473.5" font-family="Helvetica,sans-Serif" font-size="10.00">+</text>
<text text-anchor="start" x="251.62" y="-473.5" font-family="Helvetica,sans-Serif" font-size="10.00">vector&lt; IItem * &gt; items</text>
<text text-anchor="start" x="241.62" y="-457.5" font-family="Helvetica,sans-Serif" font-size="10.00">+</text>
<text text-anchor="start" x="251.62" y="-457.5" font-family="Helvetica,sans-Serif" font-size="10.00">void addItem(IItem *item)</text>
<text text-anchor="start" x="241.62" y="-441.5" font-family="Helvetica,sans-Serif" font-size="10.00">+</text>
<text text-anchor="start" x="251.62" y="-441.5" font-family="Helvetica,sans-Serif" font-size="10.00">void listItems()</text>
<text text-anchor="start" x="241.62" y="-425.5" font-family="Helvetica,sans-Serif" font-size="10.00">+</text>
<text text-anchor="start" x="251.62" y="-425.5" font-family="Helvetica,sans-Serif" font-size="10.00">bool useItem(int idx, Player</text>
<text text-anchor="start" x="251.62" y="-413.5" font-family="Helvetica,sans-Serif" font-size="10.00"> &amp;player, Entity *enemy)</text>
<text text-anchor="start" x="241.62" y="-397.5" font-family="Helvetica,sans-Serif" font-size="10.00">+</text>
<text text-anchor="start" x="251.62" y="-397.5" font-family="Helvetica,sans-Serif" font-size="10.00">void dropItem(int idx)</text>
<polygon fill="#666666" stroke="#666666" points="237.62,-485 237.62,-485 374.88,-485 374.88,-485 237.62,-485"/>
<polygon fill="#666666" stroke="#666666" points="237.62,-469 237.62,-469 249.62,-469 249.62,-469 237.62,-469"/>
<polygon fill="#666666" stroke="#666666" points="249.62,-469 249.62,-469 374.88,-469 374.88,-469 249.62,-469"/>
<polygon fill="none" stroke="#666666" points="237.62,-391 237.62,-503 374.88,-503 374.88,-391 237.62,-391"/>
</a>
</g>
</g>
<!-- Node7&#45;&gt;Node4 -->
<g id="edge6_Node000004_Node000007" class="edge">
<title>Node7&#45;&gt;Node4</title>
<g id="a_edge6_Node000004_Node000007"><a xlink:title=" ">
<path fill="none" stroke="#63b8ff" d="M290.93,-391.39C286.41,-375.28 281.45,-357.57 276.85,-341.18"/>
<polygon fill="none" stroke="#63b8ff" points="276.91,-341.38 271.43,-336.69 273.67,-329.83 279.14,-334.52 276.91,-341.38"/>
</a>
</g>
<text text-anchor="middle" x="304.87" y="-349.5" font-family="Helvetica,sans-Serif" font-size="10.00" fill="grey"> +inventory</text>
</g>
</g>
</svg>
