<?xml version="1.0" encoding="UTF-8" standalone="no"?>
<!DOCTYPE svg PUBLIC "-//W3C//DTD SVG 1.1//EN"
 "http://www.w3.org/Graphics/SVG/1.1/DTD/svg11.dtd">
<!-- Generated by graphviz version 12.2.1 (20241206.2353)
 -->
<!-- Title: ShopMenu::render Pages: 1 -->
<svg width="550pt" height="142pt"
 viewBox="0.00 0.00 550.00 142.00" xmlns="http://www.w3.org/2000/svg" xmlns:xlink="http://www.w3.org/1999/xlink">
<g id="graph0" class="graph" transform="scale(1 1) rotate(0) translate(4 138)">
<title>ShopMenu::render</title>
<!-- Node1 -->
<g id="Node000001" class="node">
<title>Node1</title>
<g id="a_Node000001"><a xlink:title=" ">
<polygon fill="#999999" stroke="#666666" points="95.5,-77 0,-77 0,-57 95.5,-57 95.5,-77"/>
<text text-anchor="middle" x="47.75" y="-63.5" font-family="Helvetica,sans-Serif" font-size="10.00">ShopMenu::render</text>
</a>
</g>
</g>
<!-- Node2 -->
<g id="Node000002" class="node">
<title>Node2</title>
<g id="a_Node000002"><a xlink:href="class_shop.html#a562501e5746bdef39699bc39203f8973" target="_top" xlink:title=" ">
<polygon fill="white" stroke="#666666" points="211.25,-134 131.5,-134 131.5,-114 211.25,-114 211.25,-134"/>
<text text-anchor="middle" x="171.38" y="-120.5" font-family="Helvetica,sans-Serif" font-size="10.00">Shop::addItem</text>
</a>
</g>
</g>
<!-- Node1&#45;&gt;Node2 -->
<g id="edge1_Node000001_Node000002" class="edge">
<title>Node1&#45;&gt;Node2</title>
<g id="a_edge1_Node000001_Node000002"><a xlink:title=" ">
<path fill="none" stroke="#63b8ff" d="M71.06,-77.45C89.83,-86.25 116.92,-98.95 138.07,-108.86"/>
<polygon fill="#63b8ff" stroke="#63b8ff" points="136.3,-111.89 146.84,-112.97 139.27,-105.56 136.3,-111.89"/>
</a>
</g>
</g>
<!-- Node3 -->
<g id="Node000003" class="node">
<title>Node3</title>
<g id="a_Node000003"><a xlink:href="class_shop.html#a6c1a27422ecdd1a5248f156f1355632b" target="_top" xlink:title="Buy an item from the shop.">
<polygon fill="white" stroke="#666666" points="211.25,-96 131.5,-96 131.5,-76 211.25,-76 211.25,-96"/>
<text text-anchor="middle" x="171.38" y="-82.5" font-family="Helvetica,sans-Serif" font-size="10.00">Shop::buyItem</text>
</a>
</g>
</g>
<!-- Node1&#45;&gt;Node3 -->
<g id="edge2_Node000001_Node000003" class="edge">
<title>Node1&#45;&gt;Node3</title>
<g id="a_edge2_Node000001_Node000003"><a xlink:title=" ">
<path fill="none" stroke="#63b8ff" d="M95.77,-74.35C103.77,-75.6 112.1,-76.9 120.18,-78.16"/>
<polygon fill="#63b8ff" stroke="#63b8ff" points="119.44,-81.59 129.86,-79.67 120.52,-74.67 119.44,-81.59"/>
</a>
</g>
</g>
<!-- Node9 -->
<g id="Node000009" class="node">
<title>Node9</title>
<g id="a_Node000009"><a xlink:href="extras_8cpp.html#a3816c0b1714f3be0c6c8a394a4faee7d" target="_top" xlink:title="Gets an integer from the user. Loops until a valid integer is entered.">
<polygon fill="white" stroke="#666666" points="200.38,-58 142.38,-58 142.38,-38 200.38,-38 200.38,-58"/>
<text text-anchor="middle" x="171.38" y="-44.5" font-family="Helvetica,sans-Serif" font-size="10.00">inputNum</text>
</a>
</g>
</g>
<!-- Node1&#45;&gt;Node9 -->
<g id="edge9_Node000001_Node000009" class="edge">
<title>Node1&#45;&gt;Node9</title>
<g id="a_edge9_Node000001_Node000009"><a xlink:title=" ">
<path fill="none" stroke="#63b8ff" d="M95.77,-59.65C107.38,-57.84 119.7,-55.92 130.91,-54.17"/>
<polygon fill="#63b8ff" stroke="#63b8ff" points="131.28,-57.65 140.62,-52.65 130.2,-50.73 131.28,-57.65"/>
</a>
</g>
</g>
<!-- Node10 -->
<g id="Node000010" class="node">
<title>Node10</title>
<g id="a_Node000010"><a xlink:href="class_shop.html#ac213488671e8d976d97c3530e691fd44" target="_top" xlink:title=" ">
<polygon fill="white" stroke="#666666" points="337.12,-20 255.12,-20 255.12,0 337.12,0 337.12,-20"/>
<text text-anchor="middle" x="296.12" y="-6.5" font-family="Helvetica,sans-Serif" font-size="10.00">Shop::listItems</text>
</a>
</g>
</g>
<!-- Node1&#45;&gt;Node10 -->
<g id="edge10_Node000001_Node000010" class="edge">
<title>Node1&#45;&gt;Node10</title>
<g id="a_edge10_Node000001_Node000010"><a xlink:title=" ">
<path fill="none" stroke="#63b8ff" d="M66.85,-56.66C83.2,-47.82 108.21,-35.52 131.5,-29 168.2,-18.72 211.04,-14 243.68,-11.83"/>
<polygon fill="#63b8ff" stroke="#63b8ff" points="243.49,-15.34 253.26,-11.25 243.07,-8.36 243.49,-15.34"/>
</a>
</g>
</g>
<!-- Node4 -->
<g id="Node000004" class="node">
<title>Node4</title>
<g id="a_Node000004"><a xlink:href="class_inventory.html#a7a3d5b1157d8212186746eade80b5630" target="_top" xlink:title="Adds an item to inventory.">
<polygon fill="white" stroke="#666666" points="345,-134 247.25,-134 247.25,-114 345,-114 345,-134"/>
<text text-anchor="middle" x="296.12" y="-120.5" font-family="Helvetica,sans-Serif" font-size="10.00">Inventory::addItem</text>
</a>
</g>
</g>
<!-- Node3&#45;&gt;Node4 -->
<g id="edge3_Node000003_Node000004" class="edge">
<title>Node3&#45;&gt;Node4</title>
<g id="a_edge3_Node000003_Node000004"><a xlink:title=" ">
<path fill="none" stroke="#63b8ff" d="M206.24,-96.48C219.93,-100.72 235.91,-105.67 250.52,-110.19"/>
<polygon fill="#63b8ff" stroke="#63b8ff" points="249.33,-113.49 259.92,-113.1 251.41,-106.8 249.33,-113.49"/>
</a>
</g>
</g>
<!-- Node7 -->
<g id="Node000007" class="node">
<title>Node7</title>
<g id="a_Node000007"><a xlink:href="class_player.html#a86ad66429e7bf8ef4640bac1d0f3476f" target="_top" xlink:title=" ">
<polygon fill="white" stroke="#666666" points="343.5,-96 248.75,-96 248.75,-76 343.5,-76 343.5,-96"/>
<text text-anchor="middle" x="296.12" y="-82.5" font-family="Helvetica,sans-Serif" font-size="10.00">Player::addMoney</text>
</a>
</g>
</g>
<!-- Node3&#45;&gt;Node7 -->
<g id="edge6_Node000003_Node000007" class="edge">
<title>Node3&#45;&gt;Node7</title>
<g id="a_edge6_Node000003_Node000007"><a xlink:title=" ">
<path fill="none" stroke="#63b8ff" d="M211.55,-86C219.75,-86 228.55,-86 237.27,-86"/>
<polygon fill="#63b8ff" stroke="#63b8ff" points="237.09,-89.5 247.09,-86 237.09,-82.5 237.09,-89.5"/>
</a>
</g>
</g>
<!-- Node8 -->
<g id="Node000008" class="node">
<title>Node8</title>
<g id="a_Node000008"><a xlink:href="extras_8cpp.html#a99d2755bf0660601280710515b3f512c" target="_top" xlink:title="Colors text.">
<polygon fill="white" stroke="#666666" points="450.62,-58 382.12,-58 382.12,-38 450.62,-38 450.62,-58"/>
<text text-anchor="middle" x="416.38" y="-44.5" font-family="Helvetica,sans-Serif" font-size="10.00">colorizeText</text>
</a>
</g>
</g>
<!-- Node3&#45;&gt;Node8 -->
<g id="edge8_Node000003_Node000008" class="edge">
<title>Node3&#45;&gt;Node8</title>
<g id="a_edge8_Node000003_Node000008"><a xlink:title=" ">
<path fill="none" stroke="#63b8ff" d="M209.48,-75.52C221.46,-72.43 234.85,-69.26 247.25,-67 288.61,-59.45 336.27,-54.4 370.26,-51.42"/>
<polygon fill="#63b8ff" stroke="#63b8ff" points="370.51,-54.91 380.18,-50.58 369.92,-47.94 370.51,-54.91"/>
</a>
</g>
</g>
<!-- Node5 -->
<g id="Node000005" class="node">
<title>Node5</title>
<g id="a_Node000005"><a xlink:href="extras_8cpp.html#a251383c9dea6cb260fb6f9ebb010139f" target="_top" xlink:title="Outputs a text character by character with a given delay.">
<polygon fill="white" stroke="#666666" points="451.75,-134 381,-134 381,-114 451.75,-114 451.75,-134"/>
<text text-anchor="middle" x="416.38" y="-120.5" font-family="Helvetica,sans-Serif" font-size="10.00">printAnimate</text>
</a>
</g>
</g>
<!-- Node4&#45;&gt;Node5 -->
<g id="edge4_Node000004_Node000005" class="edge">
<title>Node4&#45;&gt;Node5</title>
<g id="a_edge4_Node000004_Node000005"><a xlink:title=" ">
<path fill="none" stroke="#63b8ff" d="M345.22,-124C353.21,-124 361.48,-124 369.42,-124"/>
<polygon fill="#63b8ff" stroke="#63b8ff" points="369.22,-127.5 379.22,-124 369.22,-120.5 369.22,-127.5"/>
</a>
</g>
</g>
<!-- Node6 -->
<g id="Node000006" class="node">
<title>Node6</title>
<g id="a_Node000006"><a xlink:href="extras_8cpp.html#aea0e34fe8a665ef6cb1fd6526ce1deb0" target="_top" xlink:title=" ">
<polygon fill="white" stroke="#666666" points="542,-134 487.75,-134 487.75,-114 542,-114 542,-134"/>
<text text-anchor="middle" x="514.88" y="-120.5" font-family="Helvetica,sans-Serif" font-size="10.00">sleepMS</text>
</a>
</g>
</g>
<!-- Node5&#45;&gt;Node6 -->
<g id="edge5_Node000005_Node000006" class="edge">
<title>Node5&#45;&gt;Node6</title>
<g id="a_edge5_Node000005_Node000006"><a xlink:title=" ">
<path fill="none" stroke="#63b8ff" d="M452.21,-124C459.89,-124 468.05,-124 475.84,-124"/>
<polygon fill="#63b8ff" stroke="#63b8ff" points="475.75,-127.5 485.75,-124 475.75,-120.5 475.75,-127.5"/>
</a>
</g>
</g>
<!-- Node7&#45;&gt;Node8 -->
<g id="edge7_Node000007_Node000008" class="edge">
<title>Node7&#45;&gt;Node8</title>
<g id="a_edge7_Node000007_Node000008"><a xlink:title=" ">
<path fill="none" stroke="#63b8ff" d="M329.75,-75.52C342.8,-71.32 358.03,-66.43 371.99,-61.94"/>
<polygon fill="#63b8ff" stroke="#63b8ff" points="372.97,-65.3 381.42,-58.91 370.82,-58.64 372.97,-65.3"/>
</a>
</g>
</g>
<!-- Node10&#45;&gt;Node8 -->
<g id="edge11_Node000010_Node000008" class="edge">
<title>Node10&#45;&gt;Node8</title>
<g id="a_edge11_Node000010_Node000008"><a xlink:title=" ">
<path fill="none" stroke="#63b8ff" d="M329.75,-20.48C342.8,-24.68 358.03,-29.57 371.99,-34.06"/>
<polygon fill="#63b8ff" stroke="#63b8ff" points="370.82,-37.36 381.42,-37.09 372.97,-30.7 370.82,-37.36"/>
</a>
</g>
</g>
</g>
</svg>
