<?xml version="1.0" encoding="UTF-8" standalone="no"?>
<!DOCTYPE svg PUBLIC "-//W3C//DTD SVG 1.1//EN"
 "http://www.w3.org/Graphics/SVG/1.1/DTD/svg11.dtd">
<!-- Generated by graphviz version 12.2.1 (20241206.2353)
 -->
<!-- Title: Entity::Entity Pages: 1 -->
<svg width="307pt" height="104pt"
 viewBox="0.00 0.00 306.50 104.00" xmlns="http://www.w3.org/2000/svg" xmlns:xlink="http://www.w3.org/1999/xlink">

<svg id="main" version="1.1" xmlns="http://www.w3.org/2000/svg" xmlns:xlink="http://www.w3.org/1999/xlink" xml:space="preserve">

<style type="text/css"><![CDATA[
.node, .edge {opacity: 0.7;}
.node.selected, .edge.selected {opacity: 1;}
.edge:hover path { stroke: red; }
.edge:hover polygon { stroke: red; fill: red; }
]]></style>
<script type="application/ecmascript" xlink:href="svg.min.js"/>
<svg id="graph" class="graph">
<g id="graph0" class="graph" transform="scale(1 1) rotate(0) translate(4 100)">
<title>Entity::Entity</title>
<!-- Node1 -->
<g id="Node000001" class="node">
<title>Node1</title>
<g id="a_Node000001"><a xlink:title=" ">
<polygon fill="#999999" stroke="#666666" points="298.5,-58 225.5,-58 225.5,-38 298.5,-38 298.5,-58"/>
<text text-anchor="middle" x="262" y="-44.5" font-family="Helvetica,sans-Serif" font-size="10.00">Entity::Entity</text>
</a>
</g>
</g>
<!-- Node2 -->
<g id="Node000002" class="node">
<title>Node2</title>
<g id="a_Node000002"><a xlink:href="class_entity.html#a44aad07756d6f00abf8f08ffde6eb217" target="_top" xlink:title=" ">
<polygon fill="white" stroke="#666666" points="188,-96 113.5,-96 113.5,-76 188,-76 188,-96"/>
<text text-anchor="middle" x="150.75" y="-82.5" font-family="Helvetica,sans-Serif" font-size="10.00">Entity::attack</text>
</a>
</g>
</g>
<!-- Node1&#45;&gt;Node2 -->
<g id="edge1_Node000001_Node000002" class="edge">
<title>Node1&#45;&gt;Node2</title>
<g id="a_edge1_Node000001_Node000002"><a xlink:title=" ">
<path fill="none" stroke="#63b8ff" d="M220.05,-62.24C207.35,-66.66 193.6,-71.44 181.79,-75.55"/>
<polygon fill="#63b8ff" stroke="#63b8ff" points="221.13,-65.57 229.43,-58.98 218.83,-58.96 221.13,-65.57"/>
</a>
</g>
</g>
<!-- Node4 -->
<g id="Node000004" class="node">
<title>Node4</title>
<g id="a_Node000004"><a xlink:href="class_player.html#affe0cc3cb714f6deb4e62f0c0d3f1fd8" target="_top" xlink:title=" ">
<polygon fill="white" stroke="#666666" points="189.5,-58 112,-58 112,-38 189.5,-38 189.5,-58"/>
<text text-anchor="middle" x="150.75" y="-44.5" font-family="Helvetica,sans-Serif" font-size="10.00">Player::Player</text>
</a>
</g>
</g>
<!-- Node1&#45;&gt;Node4 -->
<g id="edge3_Node000001_Node000004" class="edge">
<title>Node1&#45;&gt;Node4</title>
<g id="a_edge3_Node000001_Node000004"><a xlink:title=" ">
<path fill="none" stroke="#63b8ff" d="M213.76,-48C205.78,-48 197.58,-48 189.86,-48"/>
<polygon fill="#63b8ff" stroke="#63b8ff" points="213.71,-51.5 223.71,-48 213.71,-44.5 213.71,-51.5"/>
</a>
</g>
</g>
<!-- Node5 -->
<g id="Node000005" class="node">
<title>Node5</title>
<g id="a_Node000005"><a xlink:href="class_player.html#ab371d4d8f6a97b63e01b7caa51b543bd" target="_top" xlink:title=" ">
<polygon fill="white" stroke="#666666" points="189.5,-20 112,-20 112,0 189.5,0 189.5,-20"/>
<text text-anchor="middle" x="150.75" y="-6.5" font-family="Helvetica,sans-Serif" font-size="10.00">Player::Player</text>
</a>
</g>
</g>
<!-- Node1&#45;&gt;Node5 -->
<g id="edge4_Node000001_Node000005" class="edge">
<title>Node1&#45;&gt;Node5</title>
<g id="a_edge4_Node000001_Node000005"><a xlink:title=" ">
<path fill="none" stroke="#63b8ff" d="M220.05,-33.76C207.35,-29.34 193.6,-24.56 181.79,-20.45"/>
<polygon fill="#63b8ff" stroke="#63b8ff" points="218.83,-37.04 229.43,-37.02 221.13,-30.43 218.83,-37.04"/>
</a>
</g>
</g>
<!-- Node3 -->
<g id="Node000003" class="node">
<title>Node3</title>
<g id="a_Node000003"><a xlink:href="class_i_weapon.html#a53e8a73c5810e90431dabad3c8acb8f1" target="_top" xlink:title=" ">
<polygon fill="white" stroke="#666666" points="76,-96 0,-96 0,-76 76,-76 76,-96"/>
<text text-anchor="middle" x="38" y="-82.5" font-family="Helvetica,sans-Serif" font-size="10.00">IWeapon::use</text>
</a>
</g>
</g>
<!-- Node2&#45;&gt;Node3 -->
<g id="edge2_Node000002_Node000003" class="edge">
<title>Node2&#45;&gt;Node3</title>
<g id="a_edge2_Node000002_Node000003"><a xlink:title=" ">
<path fill="none" stroke="#63b8ff" d="M101.77,-86C93.24,-86 84.47,-86 76.29,-86"/>
<polygon fill="#63b8ff" stroke="#63b8ff" points="101.67,-89.5 111.67,-86 101.67,-82.5 101.67,-89.5"/>
</a>
</g>
</g>
</g>
</svg>
</svg>

<style type='text/css'>
<![CDATA[
[data-mouse-over-selected='false'] { opacity: 0.7; }
[data-mouse-over-selected='true']  { opacity: 1.0; }
]]>
</style>
<script type="application/ecmascript"><![CDATA[
document.addEventListener('DOMContentLoaded', (event) => {
  highlightEdges();
  highlightAdjacentNodes();
});
]]></script>
</svg>
