<?xml version="1.0" encoding="UTF-8" standalone="no"?>
<!DOCTYPE svg PUBLIC "-//W3C//DTD SVG 1.1//EN"
 "http://www.w3.org/Graphics/SVG/1.1/DTD/svg11.dtd">
<!-- Generated by graphviz version 12.2.1 (20241206.2353)
 -->
<!-- Title: Player::canAfford Pages: 1 -->
<svg width="358pt" height="104pt"
 viewBox="0.00 0.00 357.50 104.00" xmlns="http://www.w3.org/2000/svg" xmlns:xlink="http://www.w3.org/1999/xlink">

<svg id="main" version="1.1" xmlns="http://www.w3.org/2000/svg" xmlns:xlink="http://www.w3.org/1999/xlink" xml:space="preserve">

<style type="text/css"><![CDATA[
.node, .edge {opacity: 0.7;}
.node.selected, .edge.selected {opacity: 1;}
.edge:hover path { stroke: red; }
.edge:hover polygon { stroke: red; fill: red; }
]]></style>
<script type="application/ecmascript" xlink:href="svg.min.js"/>
<svg id="graph" class="graph">
<g id="graph0" class="graph" transform="scale(1 1) rotate(0) translate(4 100)">
<title>Player::canAfford</title>
<!-- Node1 -->
<g id="Node000001" class="node">
<title>Node1</title>
<g id="a_Node000001"><a xlink:title=" ">
<polygon fill="#999999" stroke="#666666" points="349.5,-58 258.5,-58 258.5,-38 349.5,-38 349.5,-58"/>
<text text-anchor="middle" x="304" y="-44.5" font-family="Helvetica,sans-Serif" font-size="10.00">Player::canAfford</text>
</a>
</g>
</g>
<!-- Node2 -->
<g id="Node000002" class="node">
<title>Node2</title>
<g id="a_Node000002"><a xlink:href="class_shop.html#a6c1a27422ecdd1a5248f156f1355632b" target="_top" xlink:title="Buy an item from the shop.">
<polygon fill="white" stroke="#666666" points="216.88,-96 137.12,-96 137.12,-76 216.88,-76 216.88,-96"/>
<text text-anchor="middle" x="177" y="-82.5" font-family="Helvetica,sans-Serif" font-size="10.00">Shop::buyItem</text>
</a>
</g>
</g>
<!-- Node1&#45;&gt;Node2 -->
<g id="edge1_Node000001_Node000002" class="edge">
<title>Node1&#45;&gt;Node2</title>
<g id="a_edge1_Node000001_Node000002"><a xlink:title=" ">
<path fill="none" stroke="#63b8ff" d="M257.9,-61.71C242.89,-66.27 226.43,-71.28 212.38,-75.55"/>
<polygon fill="#63b8ff" stroke="#63b8ff" points="258.51,-65.18 267.06,-58.92 256.48,-58.48 258.51,-65.18"/>
</a>
</g>
</g>
<!-- Node4 -->
<g id="Node000004" class="node">
<title>Node4</title>
<g id="a_Node000004"><a xlink:href="class_player.html#a5e281666c2e3cfc8bad64508a1524a5e" target="_top" xlink:title=" ">
<polygon fill="white" stroke="#666666" points="222.5,-58 131.5,-58 131.5,-38 222.5,-38 222.5,-58"/>
<text text-anchor="middle" x="177" y="-44.5" font-family="Helvetica,sans-Serif" font-size="10.00">Player::canAfford</text>
</a>
</g>
</g>
<!-- Node1&#45;&gt;Node4 -->
<g id="edge3_Node000001_Node000004" class="edge">
<title>Node1&#45;&gt;Node4</title>
<g id="a_edge3_Node000001_Node000004"><a xlink:title=" ">
<path fill="none" stroke="#63b8ff" d="M246.97,-48C238.91,-48 230.69,-48 222.88,-48"/>
<polygon fill="#63b8ff" stroke="#63b8ff" points="246.71,-51.5 256.71,-48 246.71,-44.5 246.71,-51.5"/>
</a>
</g>
</g>
<!-- Node5 -->
<g id="Node000005" class="node">
<title>Node5</title>
<g id="a_Node000005"><a xlink:href="class_shop.html#ac213488671e8d976d97c3530e691fd44" target="_top" xlink:title=" ">
<polygon fill="white" stroke="#666666" points="218,-20 136,-20 136,0 218,0 218,-20"/>
<text text-anchor="middle" x="177" y="-6.5" font-family="Helvetica,sans-Serif" font-size="10.00">Shop::listItems</text>
</a>
</g>
</g>
<!-- Node1&#45;&gt;Node5 -->
<g id="edge4_Node000001_Node000005" class="edge">
<title>Node1&#45;&gt;Node5</title>
<g id="a_edge4_Node000001_Node000005"><a xlink:title=" ">
<path fill="none" stroke="#63b8ff" d="M257.9,-34.29C242.89,-29.73 226.43,-24.72 212.38,-20.45"/>
<polygon fill="#63b8ff" stroke="#63b8ff" points="256.48,-37.52 267.06,-37.08 258.51,-30.82 256.48,-37.52"/>
</a>
</g>
</g>
<!-- Node3 -->
<g id="Node000003" class="node">
<title>Node3</title>
<g id="a_Node000003"><a xlink:href="class_shop_menu.html#a06bcda13b56991f97aca332030008a86" target="_top" xlink:title=" ">
<polygon fill="white" stroke="#666666" points="95.5,-58 0,-58 0,-38 95.5,-38 95.5,-58"/>
<text text-anchor="middle" x="47.75" y="-44.5" font-family="Helvetica,sans-Serif" font-size="10.00">ShopMenu::render</text>
</a>
</g>
</g>
<!-- Node2&#45;&gt;Node3 -->
<g id="edge2_Node000002_Node000003" class="edge">
<title>Node2&#45;&gt;Node3</title>
<g id="a_edge2_Node000002_Node000003"><a xlink:title=" ">
<path fill="none" stroke="#63b8ff" d="M130.09,-72.29C114.81,-67.73 98.06,-62.72 83.74,-58.45"/>
<polygon fill="#63b8ff" stroke="#63b8ff" points="128.86,-75.57 139.44,-75.08 130.86,-68.87 128.86,-75.57"/>
</a>
</g>
</g>
<!-- Node5&#45;&gt;Node3 -->
<g id="edge5_Node000005_Node000003" class="edge">
<title>Node5&#45;&gt;Node3</title>
<g id="a_edge5_Node000005_Node000003"><a xlink:title=" ">
<path fill="none" stroke="#63b8ff" d="M130.09,-23.71C114.81,-28.27 98.06,-33.28 83.74,-37.55"/>
<polygon fill="#63b8ff" stroke="#63b8ff" points="130.86,-27.13 139.44,-20.92 128.86,-20.43 130.86,-27.13"/>
</a>
</g>
</g>
</g>
</svg>
</svg>

<style type='text/css'>
<![CDATA[
[data-mouse-over-selected='false'] { opacity: 0.7; }
[data-mouse-over-selected='true']  { opacity: 1.0; }
]]>
</style>
<script type="application/ecmascript"><![CDATA[
document.addEventListener('DOMContentLoaded', (event) => {
  highlightEdges();
  highlightAdjacentNodes();
});
]]></script>
</svg>
