<?xml version="1.0" encoding="UTF-8" standalone="no"?>
<!DOCTYPE svg PUBLIC "-//W3C//DTD SVG 1.1//EN"
 "http://www.w3.org/Graphics/SVG/1.1/DTD/svg11.dtd">
<!-- Generated by graphviz version 12.2.1 (20241206.2353)
 -->
<!-- Title: Shop::buyItem Pages: 1 -->
<svg width="432pt" height="218pt"
 viewBox="0.00 0.00 432.00 218.00" xmlns="http://www.w3.org/2000/svg" xmlns:xlink="http://www.w3.org/1999/xlink">
<g id="graph0" class="graph" transform="scale(1 1) rotate(0) translate(4 214)">
<title>Shop::buyItem</title>
<!-- Node1 -->
<g id="Node000001" class="node">
<title>Node1</title>
<g id="a_Node000001"><a xlink:title="Buy an item from the shop.">
<polygon fill="#999999" stroke="#666666" points="79.75,-96 0,-96 0,-76 79.75,-76 79.75,-96"/>
<text text-anchor="middle" x="39.88" y="-82.5" font-family="Helvetica,sans-Serif" font-size="10.00">Shop::buyItem</text>
</a>
</g>
</g>
<!-- Node2 -->
<g id="Node000002" class="node">
<title>Node2</title>
<g id="a_Node000002"><a xlink:href="class_inventory.html#a7a3d5b1157d8212186746eade80b5630" target="_top" xlink:title="Adds an item to inventory.">
<polygon fill="white" stroke="#666666" points="213.5,-172 115.75,-172 115.75,-152 213.5,-152 213.5,-172"/>
<text text-anchor="middle" x="164.62" y="-158.5" font-family="Helvetica,sans-Serif" font-size="10.00">Inventory::addItem</text>
</a>
</g>
</g>
<!-- Node1&#45;&gt;Node2 -->
<g id="edge1_Node000001_Node000002" class="edge">
<title>Node1&#45;&gt;Node2</title>
<g id="a_edge1_Node000001_Node000002"><a xlink:title=" ">
<path fill="none" stroke="#63b8ff" d="M54.56,-96.39C69.28,-107.35 93.57,-124.83 115.75,-138 120.72,-140.95 126.1,-143.88 131.39,-146.63"/>
<polygon fill="#63b8ff" stroke="#63b8ff" points="129.49,-149.59 140,-150.97 132.64,-143.34 129.49,-149.59"/>
</a>
</g>
</g>
<!-- Node4 -->
<g id="Node000004" class="node">
<title>Node4</title>
<g id="a_Node000004"><a xlink:href="class_i_item.html#a6b86cf44e8eebf94b7096ea5645a0527" target="_top" xlink:title=" ">
<polygon fill="white" stroke="#666666" points="333.75,-134 249.5,-134 249.5,-114 333.75,-114 333.75,-134"/>
<text text-anchor="middle" x="291.62" y="-120.5" font-family="Helvetica,sans-Serif" font-size="10.00">IItem::getName</text>
</a>
</g>
</g>
<!-- Node1&#45;&gt;Node4 -->
<g id="edge10_Node000001_Node000004" class="edge">
<title>Node1&#45;&gt;Node4</title>
<g id="a_edge10_Node000001_Node000004"><a xlink:title=" ">
<path fill="none" stroke="#63b8ff" d="M77.59,-96.41C89.67,-99.54 103.21,-102.74 115.75,-105 156.39,-112.33 202.88,-117.21 237.71,-120.2"/>
<polygon fill="#63b8ff" stroke="#63b8ff" points="237.29,-123.67 247.54,-121.01 237.87,-116.7 237.29,-123.67"/>
</a>
</g>
</g>
<!-- Node7 -->
<g id="Node000007" class="node">
<title>Node7</title>
<g id="a_Node000007"><a xlink:href="class_player.html#a86ad66429e7bf8ef4640bac1d0f3476f" target="_top" xlink:title=" ">
<polygon fill="white" stroke="#666666" points="212,-96 117.25,-96 117.25,-76 212,-76 212,-96"/>
<text text-anchor="middle" x="164.62" y="-82.5" font-family="Helvetica,sans-Serif" font-size="10.00">Player::addMoney</text>
</a>
</g>
</g>
<!-- Node1&#45;&gt;Node7 -->
<g id="edge6_Node000001_Node000007" class="edge">
<title>Node1&#45;&gt;Node7</title>
<g id="a_edge6_Node000001_Node000007"><a xlink:title=" ">
<path fill="none" stroke="#63b8ff" d="M80.05,-86C88.25,-86 97.05,-86 105.77,-86"/>
<polygon fill="#63b8ff" stroke="#63b8ff" points="105.59,-89.5 115.59,-86 105.59,-82.5 105.59,-89.5"/>
</a>
</g>
</g>
<!-- Node8 -->
<g id="Node000008" class="node">
<title>Node8</title>
<g id="a_Node000008"><a xlink:href="extras_8cpp.html#a99d2755bf0660601280710515b3f512c" target="_top" xlink:title="Colors text.">
<polygon fill="white" stroke="#666666" points="325.88,-77 257.38,-77 257.38,-57 325.88,-57 325.88,-77"/>
<text text-anchor="middle" x="291.62" y="-63.5" font-family="Helvetica,sans-Serif" font-size="10.00">colorizeText</text>
</a>
</g>
</g>
<!-- Node1&#45;&gt;Node8 -->
<g id="edge9_Node000001_Node000008" class="edge">
<title>Node1&#45;&gt;Node8</title>
<g id="a_edge9_Node000001_Node000008"><a xlink:title=" ">
<path fill="none" stroke="#63b8ff" d="M74.45,-75.59C87.25,-72.12 102.04,-68.71 115.75,-67 159.6,-61.52 210.11,-62.27 245.54,-63.94"/>
<polygon fill="#63b8ff" stroke="#63b8ff" points="245.27,-67.43 255.44,-64.46 245.63,-60.44 245.27,-67.43"/>
</a>
</g>
</g>
<!-- Node9 -->
<g id="Node000009" class="node">
<title>Node9</title>
<g id="a_Node000009"><a xlink:href="class_player.html#abda4c0f24a59155522361079dce5d427" target="_top" xlink:title=" ">
<polygon fill="white" stroke="#666666" points="210.12,-20 119.12,-20 119.12,0 210.12,0 210.12,-20"/>
<text text-anchor="middle" x="164.62" y="-6.5" font-family="Helvetica,sans-Serif" font-size="10.00">Player::canAfford</text>
</a>
</g>
</g>
<!-- Node1&#45;&gt;Node9 -->
<g id="edge8_Node000001_Node000009" class="edge">
<title>Node1&#45;&gt;Node9</title>
<g id="a_edge8_Node000001_Node000009"><a xlink:title=" ">
<path fill="none" stroke="#63b8ff" d="M54.56,-75.61C69.28,-64.65 93.57,-47.17 115.75,-34 120.72,-31.05 126.1,-28.12 131.39,-25.37"/>
<polygon fill="#63b8ff" stroke="#63b8ff" points="132.64,-28.66 140,-21.03 129.49,-22.41 132.64,-28.66"/>
</a>
</g>
</g>
<!-- Node3 -->
<g id="Node000003" class="node">
<title>Node3</title>
<g id="a_Node000003"><a xlink:href="class_i_item.html#a5a1e25be1c8a94e21ec832a9b7b5492f" target="_top" xlink:title=" ">
<polygon fill="white" stroke="#666666" points="333.75,-210 249.5,-210 249.5,-190 333.75,-190 333.75,-210"/>
<text text-anchor="middle" x="291.62" y="-196.5" font-family="Helvetica,sans-Serif" font-size="10.00">IItem::getCount</text>
</a>
</g>
</g>
<!-- Node2&#45;&gt;Node3 -->
<g id="edge2_Node000002_Node000003" class="edge">
<title>Node2&#45;&gt;Node3</title>
<g id="a_edge2_Node000002_Node000003"><a xlink:title=" ">
<path fill="none" stroke="#63b8ff" d="M200.11,-172.48C214.19,-176.76 230.65,-181.77 245.64,-186.33"/>
<polygon fill="#63b8ff" stroke="#63b8ff" points="244.22,-189.55 254.8,-189.11 246.25,-182.85 244.22,-189.55"/>
</a>
</g>
</g>
<!-- Node2&#45;&gt;Node4 -->
<g id="edge3_Node000002_Node000004" class="edge">
<title>Node2&#45;&gt;Node4</title>
<g id="a_edge3_Node000002_Node000004"><a xlink:title=" ">
<path fill="none" stroke="#63b8ff" d="M200.11,-151.52C214.19,-147.24 230.65,-142.23 245.64,-137.67"/>
<polygon fill="#63b8ff" stroke="#63b8ff" points="246.25,-141.15 254.8,-134.89 244.22,-134.45 246.25,-141.15"/>
</a>
</g>
</g>
<!-- Node5 -->
<g id="Node000005" class="node">
<title>Node5</title>
<g id="a_Node000005"><a xlink:href="extras_8cpp.html#a251383c9dea6cb260fb6f9ebb010139f" target="_top" xlink:title="Outputs a text character by character with a given delay.">
<polygon fill="white" stroke="#666666" points="327,-172 256.25,-172 256.25,-152 327,-152 327,-172"/>
<text text-anchor="middle" x="291.62" y="-158.5" font-family="Helvetica,sans-Serif" font-size="10.00">printAnimate</text>
</a>
</g>
</g>
<!-- Node2&#45;&gt;Node5 -->
<g id="edge4_Node000002_Node000005" class="edge">
<title>Node2&#45;&gt;Node5</title>
<g id="a_edge4_Node000002_Node000005"><a xlink:title=" ">
<path fill="none" stroke="#63b8ff" d="M213.95,-162C224.03,-162 234.62,-162 244.61,-162"/>
<polygon fill="#63b8ff" stroke="#63b8ff" points="244.47,-165.5 254.47,-162 244.47,-158.5 244.47,-165.5"/>
</a>
</g>
</g>
<!-- Node6 -->
<g id="Node000006" class="node">
<title>Node6</title>
<g id="a_Node000006"><a xlink:href="extras_8cpp.html#aea0e34fe8a665ef6cb1fd6526ce1deb0" target="_top" xlink:title=" ">
<polygon fill="white" stroke="#666666" points="424,-172 369.75,-172 369.75,-152 424,-152 424,-172"/>
<text text-anchor="middle" x="396.88" y="-158.5" font-family="Helvetica,sans-Serif" font-size="10.00">sleepMS</text>
</a>
</g>
</g>
<!-- Node5&#45;&gt;Node6 -->
<g id="edge5_Node000005_Node000006" class="edge">
<title>Node5&#45;&gt;Node6</title>
<g id="a_edge5_Node000005_Node000006"><a xlink:title=" ">
<path fill="none" stroke="#63b8ff" d="M327.29,-162C337.15,-162 347.93,-162 357.96,-162"/>
<polygon fill="#63b8ff" stroke="#63b8ff" points="357.79,-165.5 367.79,-162 357.79,-158.5 357.79,-165.5"/>
</a>
</g>
</g>
<!-- Node7&#45;&gt;Node8 -->
<g id="edge7_Node000007_Node000008" class="edge">
<title>Node7&#45;&gt;Node8</title>
<g id="a_edge7_Node000007_Node000008"><a xlink:title=" ">
<path fill="none" stroke="#63b8ff" d="M212.17,-78.93C223.2,-77.25 234.93,-75.47 245.87,-73.8"/>
<polygon fill="#63b8ff" stroke="#63b8ff" points="246.07,-77.31 255.43,-72.35 245.02,-70.39 246.07,-77.31"/>
</a>
</g>
</g>
</g>
</svg>
