<?xml version="1.0" encoding="UTF-8" standalone="no"?>
<!DOCTYPE svg PUBLIC "-//W3C//DTD SVG 1.1//EN"
 "http://www.w3.org/Graphics/SVG/1.1/DTD/svg11.dtd">
<!-- Generated by graphviz version 12.2.1 (20241206.2353)
 -->
<!-- Title: UIWithPlayer::UIWithPlayer Pages: 1 -->
<svg width="472pt" height="256pt"
 viewBox="0.00 0.00 471.50 256.00" xmlns="http://www.w3.org/2000/svg" xmlns:xlink="http://www.w3.org/1999/xlink">
<g id="graph0" class="graph" transform="scale(1 1) rotate(0) translate(4 252)">
<title>UIWithPlayer::UIWithPlayer</title>
<!-- Node1 -->
<g id="Node000001" class="node">
<title>Node1</title>
<g id="a_Node000001"><a xlink:title=" ">
<polygon fill="#999999" stroke="#666666" points="463.5,-134 324.5,-134 324.5,-114 463.5,-114 463.5,-134"/>
<text text-anchor="middle" x="394" y="-120.5" font-family="Helvetica,sans-Serif" font-size="10.00">UIWithPlayer::UIWithPlayer</text>
</a>
</g>
</g>
<!-- Node2 -->
<g id="Node000002" class="node">
<title>Node2</title>
<g id="a_Node000002"><a xlink:href="class_battle.html#a1694a71b470caac28b6a25131fc283db" target="_top" xlink:title=" ">
<polygon fill="white" stroke="#666666" points="245.75,-248 172.75,-248 172.75,-228 245.75,-228 245.75,-248"/>
<text text-anchor="middle" x="209.25" y="-234.5" font-family="Helvetica,sans-Serif" font-size="10.00">Battle::Battle</text>
</a>
</g>
</g>
<!-- Node1&#45;&gt;Node2 -->
<g id="edge1_Node000001_Node000002" class="edge">
<title>Node1&#45;&gt;Node2</title>
<g id="a_edge1_Node000001_Node000002"><a xlink:title=" ">
<path fill="none" stroke="#63b8ff" d="M377.38,-143.07C358.57,-164.76 324.91,-199.67 288.5,-219 275.41,-225.95 259.75,-230.4 245.88,-233.23"/>
<polygon fill="#63b8ff" stroke="#63b8ff" points="379.95,-145.45 383.74,-135.55 374.61,-140.92 379.95,-145.45"/>
</a>
</g>
</g>
<!-- Node3 -->
<g id="Node000003" class="node">
<title>Node3</title>
<g id="a_Node000003"><a xlink:href="class_first_choice.html#ab558b2266c9fd092cce3961d7ed318dd" target="_top" xlink:title=" ">
<polygon fill="white" stroke="#666666" points="270.5,-210 148,-210 148,-190 270.5,-190 270.5,-210"/>
<text text-anchor="middle" x="209.25" y="-196.5" font-family="Helvetica,sans-Serif" font-size="10.00">FirstChoice::FirstChoice</text>
</a>
</g>
</g>
<!-- Node1&#45;&gt;Node3 -->
<g id="edge2_Node000001_Node000003" class="edge">
<title>Node1&#45;&gt;Node3</title>
<g id="a_edge2_Node000001_Node000003"><a xlink:title=" ">
<path fill="none" stroke="#63b8ff" d="M367.41,-140.43C346.79,-153.05 316.7,-170.1 288.5,-181 280.02,-184.28 270.81,-187.11 261.77,-189.52"/>
<polygon fill="#63b8ff" stroke="#63b8ff" points="369.06,-143.52 375.71,-135.27 365.37,-137.58 369.06,-143.52"/>
</a>
</g>
</g>
<!-- Node4 -->
<g id="Node000004" class="node">
<title>Node4</title>
<g id="a_Node000004"><a xlink:href="class_gamble_menu.html#af209a7906361f1bc4af1785808cc3619" target="_top" xlink:title=" ">
<polygon fill="white" stroke="#666666" points="278,-172 140.5,-172 140.5,-152 278,-152 278,-172"/>
<text text-anchor="middle" x="209.25" y="-158.5" font-family="Helvetica,sans-Serif" font-size="10.00">GambleMenu::GambleMenu</text>
</a>
</g>
</g>
<!-- Node1&#45;&gt;Node4 -->
<g id="edge3_Node000001_Node000004" class="edge">
<title>Node1&#45;&gt;Node4</title>
<g id="a_edge3_Node000001_Node000004"><a xlink:title=" ">
<path fill="none" stroke="#63b8ff" d="M331.5,-136.79C308.41,-141.59 282.46,-146.99 260.51,-151.55"/>
<polygon fill="#63b8ff" stroke="#63b8ff" points="332.02,-140.25 341.1,-134.79 330.59,-133.4 332.02,-140.25"/>
</a>
</g>
</g>
<!-- Node5 -->
<g id="Node000005" class="node">
<title>Node5</title>
<g id="a_Node000005"><a xlink:href="class_jovial_aftermath.html#a659fbf685d87b29f3cdaa6095a9118e8" target="_top" xlink:title=" ">
<polygon fill="white" stroke="#666666" points="288.5,-134 130,-134 130,-114 288.5,-114 288.5,-134"/>
<text text-anchor="middle" x="209.25" y="-120.5" font-family="Helvetica,sans-Serif" font-size="10.00">JovialAftermath::JovialAftermath</text>
</a>
</g>
</g>
<!-- Node1&#45;&gt;Node5 -->
<g id="edge4_Node000001_Node000005" class="edge">
<title>Node1&#45;&gt;Node5</title>
<g id="a_edge4_Node000001_Node000005"><a xlink:title=" ">
<path fill="none" stroke="#63b8ff" d="M312.68,-124C304.76,-124 296.73,-124 288.83,-124"/>
<polygon fill="#63b8ff" stroke="#63b8ff" points="312.66,-127.5 322.66,-124 312.66,-120.5 312.66,-127.5"/>
</a>
</g>
</g>
<!-- Node6 -->
<g id="Node000006" class="node">
<title>Node6</title>
<g id="a_Node000006"><a xlink:href="class_jovial_cutscene.html#a5c701fca1ba4f12af2184b028d465e6d" target="_top" xlink:title=" ">
<polygon fill="white" stroke="#666666" points="287.75,-96 130.75,-96 130.75,-76 287.75,-76 287.75,-96"/>
<text text-anchor="middle" x="209.25" y="-82.5" font-family="Helvetica,sans-Serif" font-size="10.00">JovialCutscene::JovialCutscene</text>
</a>
</g>
</g>
<!-- Node1&#45;&gt;Node6 -->
<g id="edge5_Node000001_Node000006" class="edge">
<title>Node1&#45;&gt;Node6</title>
<g id="a_edge5_Node000001_Node000006"><a xlink:title=" ">
<path fill="none" stroke="#63b8ff" d="M331.5,-111.21C308.41,-106.41 282.46,-101.01 260.51,-96.45"/>
<polygon fill="#63b8ff" stroke="#63b8ff" points="330.59,-114.6 341.1,-113.21 332.02,-107.75 330.59,-114.6"/>
</a>
</g>
</g>
<!-- Node7 -->
<g id="Node000007" class="node">
<title>Node7</title>
<g id="a_Node000007"><a xlink:href="class_main_menu.html#a40f98ff78c92e3f79b781b7ed18507a7" target="_top" xlink:title=" ">
<polygon fill="white" stroke="#666666" points="265.25,-58 153.25,-58 153.25,-38 265.25,-38 265.25,-58"/>
<text text-anchor="middle" x="209.25" y="-44.5" font-family="Helvetica,sans-Serif" font-size="10.00">MainMenu::MainMenu</text>
</a>
</g>
</g>
<!-- Node1&#45;&gt;Node7 -->
<g id="edge6_Node000001_Node000007" class="edge">
<title>Node1&#45;&gt;Node7</title>
<g id="a_edge6_Node000001_Node000007"><a xlink:title=" ">
<path fill="none" stroke="#63b8ff" d="M367.41,-107.57C346.79,-94.95 316.7,-77.9 288.5,-67 280.02,-63.72 270.81,-60.89 261.77,-58.48"/>
<polygon fill="#63b8ff" stroke="#63b8ff" points="365.37,-110.42 375.71,-112.73 369.06,-104.48 365.37,-110.42"/>
</a>
</g>
</g>
<!-- Node9 -->
<g id="Node000009" class="node">
<title>Node9</title>
<g id="a_Node000009"><a xlink:href="class_shop_menu.html#a460c467f17851983cc11c799b0ba6104" target="_top" xlink:title=" ">
<polygon fill="white" stroke="#666666" points="266.75,-20 151.75,-20 151.75,0 266.75,0 266.75,-20"/>
<text text-anchor="middle" x="209.25" y="-6.5" font-family="Helvetica,sans-Serif" font-size="10.00">ShopMenu::ShopMenu</text>
</a>
</g>
</g>
<!-- Node1&#45;&gt;Node9 -->
<g id="edge8_Node000001_Node000009" class="edge">
<title>Node1&#45;&gt;Node9</title>
<g id="a_edge8_Node000001_Node000009"><a xlink:title=" ">
<path fill="none" stroke="#63b8ff" d="M377.38,-104.93C358.57,-83.24 324.91,-48.33 288.5,-29 281.83,-25.46 274.5,-22.57 267.07,-20.21"/>
<polygon fill="#63b8ff" stroke="#63b8ff" points="374.61,-107.08 383.74,-112.45 379.95,-102.55 374.61,-107.08"/>
</a>
</g>
</g>
<!-- Node8 -->
<g id="Node000008" class="node">
<title>Node8</title>
<g id="a_Node000008"><a xlink:href="class_main_menu.html#adeafd7b49d1f995dd25a7e952700d76c" target="_top" xlink:title=" ">
<polygon fill="white" stroke="#666666" points="94,-58 0,-58 0,-38 94,-38 94,-58"/>
<text text-anchor="middle" x="47" y="-44.5" font-family="Helvetica,sans-Serif" font-size="10.00">MainMenu::render</text>
</a>
</g>
</g>
<!-- Node7&#45;&gt;Node8 -->
<g id="edge7_Node000007_Node000008" class="edge">
<title>Node7&#45;&gt;Node8</title>
<g id="a_edge7_Node000007_Node000008"><a xlink:title=" ">
<path fill="none" stroke="#63b8ff" d="M141.7,-48C125.82,-48 109.21,-48 94.46,-48"/>
<polygon fill="#63b8ff" stroke="#63b8ff" points="141.59,-51.5 151.59,-48 141.59,-44.5 141.59,-51.5"/>
</a>
</g>
</g>
</g>
</svg>
