<?xml version="1.0" encoding="UTF-8" standalone="no"?>
<!DOCTYPE svg PUBLIC "-//W3C//DTD SVG 1.1//EN"
 "http://www.w3.org/Graphics/SVG/1.1/DTD/svg11.dtd">
<!-- Generated by graphviz version 12.2.1 (20241206.2353)
 -->
<!-- Title: FirstChoice Pages: 1 -->
<svg width="169pt" height="284pt"
 viewBox="0.00 0.00 168.50 284.00" xmlns="http://www.w3.org/2000/svg" xmlns:xlink="http://www.w3.org/1999/xlink">
<g id="graph0" class="graph" transform="scale(1 1) rotate(0) translate(4 280)">
<title>FirstChoice</title>
<!-- Node1 -->
<g id="Node000001" class="node">
<title>Node1</title>
<g id="a_Node000001"><a xlink:title="The part after the player meets the mysterious stranger.">
<polygon fill="#999999" stroke="none" points="159,-68 1.5,-68 1.5,0 159,0 159,-68"/>
<text text-anchor="start" x="55.12" y="-54.5" font-family="Helvetica,sans-Serif" font-size="10.00">FirstChoice</text>
<text text-anchor="start" x="5.5" y="-38.5" font-family="Helvetica,sans-Serif" font-size="10.00">+</text>
<text text-anchor="start" x="15.5" y="-38.5" font-family="Helvetica,sans-Serif" font-size="10.00">list&lt; string &gt; stayResps</text>
<text text-anchor="start" x="5.5" y="-22.5" font-family="Helvetica,sans-Serif" font-size="10.00">+</text>
<text text-anchor="start" x="15.5" y="-22.5" font-family="Helvetica,sans-Serif" font-size="10.00">FirstChoice(Player player)</text>
<text text-anchor="start" x="5.5" y="-6.5" font-family="Helvetica,sans-Serif" font-size="10.00">+</text>
<text text-anchor="start" x="15.5" y="-6.5" font-family="Helvetica,sans-Serif" font-size="10.00">UserInterface * render() override</text>
<polygon fill="#666666" stroke="#666666" points="1.5,-50 1.5,-50 159,-50 159,-50 1.5,-50"/>
<polygon fill="#666666" stroke="#666666" points="1.5,-34 1.5,-34 13.5,-34 13.5,-34 1.5,-34"/>
<polygon fill="#666666" stroke="#666666" points="13.5,-34 13.5,-34 159,-34 159,-34 13.5,-34"/>
<polygon fill="none" stroke="#666666" points="1.5,0 1.5,-68 159,-68 159,0 1.5,0"/>
</a>
</g>
</g>
<!-- Node2 -->
<g id="Node000002" class="node">
<title>Node2</title>
<g id="a_Node000002"><a xlink:href="class_u_i_with_player.html" target="_top" xlink:title="Basically just the base class for all user interfaces that have a player.">
<polygon fill="white" stroke="none" points="150,-172 10.5,-172 10.5,-104 150,-104 150,-172"/>
<text text-anchor="start" x="51" y="-158.5" font-family="Helvetica,sans-Serif" font-size="10.00">UIWithPlayer</text>
<text text-anchor="start" x="14.5" y="-142.5" font-family="Helvetica,sans-Serif" font-size="10.00">+</text>
<text text-anchor="start" x="24.5" y="-142.5" font-family="Helvetica,sans-Serif" font-size="10.00">Player player</text>
<text text-anchor="start" x="14.5" y="-126.5" font-family="Helvetica,sans-Serif" font-size="10.00">+</text>
<text text-anchor="start" x="24.5" y="-126.5" font-family="Helvetica,sans-Serif" font-size="10.00">UIWithPlayer()</text>
<text text-anchor="start" x="14.5" y="-110.5" font-family="Helvetica,sans-Serif" font-size="10.00">+</text>
<text text-anchor="start" x="24.5" y="-110.5" font-family="Helvetica,sans-Serif" font-size="10.00">UIWithPlayer(Player player)</text>
<polygon fill="#666666" stroke="#666666" points="10.5,-154 10.5,-154 150,-154 150,-154 10.5,-154"/>
<polygon fill="#666666" stroke="#666666" points="10.5,-138 10.5,-138 22.5,-138 22.5,-138 10.5,-138"/>
<polygon fill="#666666" stroke="#666666" points="22.5,-138 22.5,-138 150,-138 150,-138 22.5,-138"/>
<polygon fill="none" stroke="#666666" points="10.5,-104 10.5,-172 150,-172 150,-104 10.5,-104"/>
</a>
</g>
</g>
<!-- Node2&#45;&gt;Node1 -->
<g id="edge1_Node000001_Node000002" class="edge">
<title>Node2&#45;&gt;Node1</title>
<g id="a_edge1_Node000001_Node000002"><a xlink:title=" ">
<path fill="none" stroke="#63b8ff" d="M80.25,-92.91C80.25,-84.47 80.25,-75.78 80.25,-67.77"/>
<polygon fill="none" stroke="#63b8ff" points="76.75,-92.65 80.25,-102.65 83.75,-92.65 76.75,-92.65"/>
</a>
</g>
</g>
<!-- Node3 -->
<g id="Node000003" class="node">
<title>Node3</title>
<g id="a_Node000003"><a xlink:href="class_user_interface.html" target="_top" xlink:title="Base class for all user interfaces in the game.">
<polygon fill="white" stroke="none" points="160.5,-276 0,-276 0,-208 160.5,-208 160.5,-276"/>
<text text-anchor="start" x="50.62" y="-262.5" font-family="Helvetica,sans-Serif" font-size="10.00">UserInterface</text>
<text text-anchor="start" x="4" y="-246.5" font-family="Helvetica,sans-Serif" font-size="10.00">+</text>
<text text-anchor="start" x="14" y="-246.5" font-family="Helvetica,sans-Serif" font-size="10.00">bool quitGame</text>
<text text-anchor="start" x="4" y="-230.5" font-family="Helvetica,sans-Serif" font-size="10.00">+</text>
<text text-anchor="start" x="14" y="-230.5" font-family="Helvetica,sans-Serif" font-size="10.00">virtual UserInterface * render()=0</text>
<text text-anchor="start" x="4" y="-214.5" font-family="Helvetica,sans-Serif" font-size="10.00">+</text>
<text text-anchor="start" x="14" y="-214.5" font-family="Helvetica,sans-Serif" font-size="10.00">virtual ~UserInterface()</text>
<polygon fill="#666666" stroke="#666666" points="0,-258 0,-258 160.5,-258 160.5,-258 0,-258"/>
<polygon fill="#666666" stroke="#666666" points="0,-242 0,-242 12,-242 12,-242 0,-242"/>
<polygon fill="#666666" stroke="#666666" points="12,-242 12,-242 160.5,-242 160.5,-242 12,-242"/>
<polygon fill="none" stroke="#666666" points="0,-208 0,-276 160.5,-276 160.5,-208 0,-208"/>
</a>
</g>
</g>
<!-- Node3&#45;&gt;Node2 -->
<g id="edge2_Node000002_Node000003" class="edge">
<title>Node3&#45;&gt;Node2</title>
<g id="a_edge2_Node000002_Node000003"><a xlink:title=" ">
<path fill="none" stroke="#63b8ff" d="M80.25,-196.91C80.25,-188.47 80.25,-179.78 80.25,-171.77"/>
<polygon fill="none" stroke="#63b8ff" points="76.75,-196.65 80.25,-206.65 83.75,-196.65 76.75,-196.65"/>
</a>
</g>
</g>
</g>
</svg>
