<?xml version="1.0" encoding="UTF-8" standalone="no"?>
<!DOCTYPE svg PUBLIC "-//W3C//DTD SVG 1.1//EN"
 "http://www.w3.org/Graphics/SVG/1.1/DTD/svg11.dtd">
<!-- Generated by graphviz version 12.2.1 (20241206.2353)
 -->
<!-- Title: IntroDialogue Pages: 1 -->
<svg width="384pt" height="629pt"
 viewBox="0.00 0.00 384.00 629.00" xmlns="http://www.w3.org/2000/svg" xmlns:xlink="http://www.w3.org/1999/xlink">
<g id="graph0" class="graph" transform="scale(1 1) rotate(0) translate(4 625)">
<title>IntroDialogue</title>
<!-- Node1 -->
<g id="Node000001" class="node">
<title>Node1</title>
<g id="a_Node000001"><a xlink:title="The intro dialogue. The player can choose their name and get a cool stick.">
<polygon fill="#999999" stroke="none" points="175,-52 17.5,-52 17.5,0 175,0 175,-52"/>
<text text-anchor="start" x="67.38" y="-38.5" font-family="Helvetica,sans-Serif" font-size="10.00">IntroDialogue</text>
<text text-anchor="start" x="94.75" y="-22.5" font-family="Helvetica,sans-Serif" font-size="10.00"> </text>
<text text-anchor="start" x="21.5" y="-6.5" font-family="Helvetica,sans-Serif" font-size="10.00">+</text>
<text text-anchor="start" x="31.5" y="-6.5" font-family="Helvetica,sans-Serif" font-size="10.00">UserInterface * render() override</text>
<polygon fill="#666666" stroke="#666666" points="17.5,-34 17.5,-34 175,-34 175,-34 17.5,-34"/>
<polygon fill="#666666" stroke="#666666" points="17.5,-18 17.5,-18 175,-18 175,-18 17.5,-18"/>
<polygon fill="none" stroke="#666666" points="17.5,0 17.5,-52 175,-52 175,0 17.5,0"/>
</a>
</g>
</g>
<!-- Node2 -->
<g id="Node000002" class="node">
<title>Node2</title>
<g id="a_Node000002"><a xlink:href="class_u_i_with_player.html" target="_top" xlink:title="Basically just the base class for all user interfaces that have a player.">
<polygon fill="white" stroke="none" points="166,-157 26.5,-157 26.5,-89 166,-89 166,-157"/>
<text text-anchor="start" x="67" y="-143.5" font-family="Helvetica,sans-Serif" font-size="10.00">UIWithPlayer</text>
<text text-anchor="start" x="94.75" y="-127.5" font-family="Helvetica,sans-Serif" font-size="10.00"> </text>
<text text-anchor="start" x="30.5" y="-111.5" font-family="Helvetica,sans-Serif" font-size="10.00">+</text>
<text text-anchor="start" x="40.5" y="-111.5" font-family="Helvetica,sans-Serif" font-size="10.00">UIWithPlayer()</text>
<text text-anchor="start" x="30.5" y="-95.5" font-family="Helvetica,sans-Serif" font-size="10.00">+</text>
<text text-anchor="start" x="40.5" y="-95.5" font-family="Helvetica,sans-Serif" font-size="10.00">UIWithPlayer(Player player)</text>
<polygon fill="#666666" stroke="#666666" points="26.5,-139 26.5,-139 166,-139 166,-139 26.5,-139"/>
<polygon fill="#666666" stroke="#666666" points="26.5,-123 26.5,-123 166,-123 166,-123 26.5,-123"/>
<polygon fill="none" stroke="#666666" points="26.5,-89 26.5,-157 166,-157 166,-89 26.5,-89"/>
</a>
</g>
</g>
<!-- Node2&#45;&gt;Node1 -->
<g id="edge1_Node000001_Node000002" class="edge">
<title>Node2&#45;&gt;Node1</title>
<g id="a_edge1_Node000001_Node000002"><a xlink:title=" ">
<path fill="none" stroke="#63b8ff" d="M96.25,-77.58C96.25,-68.72 96.25,-59.72 96.25,-51.81"/>
<polygon fill="none" stroke="#63b8ff" points="92.75,-77.53 96.25,-87.53 99.75,-77.53 92.75,-77.53"/>
</a>
</g>
</g>
<!-- Node3 -->
<g id="Node000003" class="node">
<title>Node3</title>
<g id="a_Node000003"><a xlink:href="class_user_interface.html" target="_top" xlink:title="Base class for all user interfaces in the game.">
<polygon fill="white" stroke="none" points="160.5,-287 0,-287 0,-219 160.5,-219 160.5,-287"/>
<text text-anchor="start" x="50.62" y="-273.5" font-family="Helvetica,sans-Serif" font-size="10.00">UserInterface</text>
<text text-anchor="start" x="4" y="-257.5" font-family="Helvetica,sans-Serif" font-size="10.00">+</text>
<text text-anchor="start" x="14" y="-257.5" font-family="Helvetica,sans-Serif" font-size="10.00">bool quitGame</text>
<text text-anchor="start" x="4" y="-241.5" font-family="Helvetica,sans-Serif" font-size="10.00">+</text>
<text text-anchor="start" x="14" y="-241.5" font-family="Helvetica,sans-Serif" font-size="10.00">virtual UserInterface * render()=0</text>
<text text-anchor="start" x="4" y="-225.5" font-family="Helvetica,sans-Serif" font-size="10.00">+</text>
<text text-anchor="start" x="14" y="-225.5" font-family="Helvetica,sans-Serif" font-size="10.00">virtual ~UserInterface()</text>
<polygon fill="#666666" stroke="#666666" points="0,-269 0,-269 160.5,-269 160.5,-269 0,-269"/>
<polygon fill="#666666" stroke="#666666" points="0,-253 0,-253 12,-253 12,-253 0,-253"/>
<polygon fill="#666666" stroke="#666666" points="12,-253 12,-253 160.5,-253 160.5,-253 12,-253"/>
<polygon fill="none" stroke="#666666" points="0,-219 0,-287 160.5,-287 160.5,-219 0,-219"/>
</a>
</g>
</g>
<!-- Node3&#45;&gt;Node2 -->
<g id="edge2_Node000002_Node000003" class="edge">
<title>Node3&#45;&gt;Node2</title>
<g id="a_edge2_Node000002_Node000003"><a xlink:title=" ">
<path fill="none" stroke="#63b8ff" d="M85.77,-207.84C87.86,-191.1 90.2,-172.36 92.14,-156.85"/>
<polygon fill="none" stroke="#63b8ff" points="82.33,-207.18 84.56,-217.53 89.27,-208.05 82.33,-207.18"/>
</a>
</g>
</g>
<!-- Node4 -->
<g id="Node000004" class="node">
<title>Node4</title>
<g id="a_Node000004"><a xlink:href="class_player.html" target="_top" xlink:title="The Player class is an Entity that has an inventory and money.">
<polygon fill="white" stroke="none" points="341.62,-301 178.88,-301 178.88,-205 341.62,-205 341.62,-301"/>
<text text-anchor="start" x="246.38" y="-287.5" font-family="Helvetica,sans-Serif" font-size="10.00">Player</text>
<text text-anchor="start" x="182.88" y="-271.5" font-family="Helvetica,sans-Serif" font-size="10.00">+</text>
<text text-anchor="start" x="192.88" y="-271.5" font-family="Helvetica,sans-Serif" font-size="10.00">int money</text>
<text text-anchor="start" x="182.88" y="-255.5" font-family="Helvetica,sans-Serif" font-size="10.00">+</text>
<text text-anchor="start" x="192.88" y="-255.5" font-family="Helvetica,sans-Serif" font-size="10.00">Player()</text>
<text text-anchor="start" x="182.88" y="-239.5" font-family="Helvetica,sans-Serif" font-size="10.00">+</text>
<text text-anchor="start" x="192.88" y="-239.5" font-family="Helvetica,sans-Serif" font-size="10.00">Player(int health, string</text>
<text text-anchor="start" x="192.88" y="-227.5" font-family="Helvetica,sans-Serif" font-size="10.00"> name, int atk, int def, int money)</text>
<text text-anchor="start" x="182.88" y="-211.5" font-family="Helvetica,sans-Serif" font-size="10.00">+</text>
<text text-anchor="start" x="192.88" y="-211.5" font-family="Helvetica,sans-Serif" font-size="10.00">void addMoney(int amount)</text>
<polygon fill="#666666" stroke="#666666" points="178.88,-283 178.88,-283 341.62,-283 341.62,-283 178.88,-283"/>
<polygon fill="#666666" stroke="#666666" points="178.88,-267 178.88,-267 190.88,-267 190.88,-267 178.88,-267"/>
<polygon fill="#666666" stroke="#666666" points="190.88,-267 190.88,-267 341.62,-267 341.62,-267 190.88,-267"/>
<polygon fill="none" stroke="#666666" points="178.88,-205 178.88,-301 341.62,-301 341.62,-205 178.88,-205"/>
</a>
</g>
</g>
<!-- Node4&#45;&gt;Node2 -->
<g id="edge3_Node000002_Node000004" class="edge">
<title>Node4&#45;&gt;Node2</title>
<g id="a_edge3_Node000002_Node000004"><a xlink:title=" ">
<path fill="none" stroke="#63b8ff" d="M200.11,-205.06C183.16,-191.83 164.85,-177.54 148.4,-164.71"/>
<polygon fill="none" stroke="#63b8ff" points="148.6,-164.86 141.41,-164.32 139.14,-157.48 146.33,-158.01 148.6,-164.86"/>
</a>
</g>
<text text-anchor="middle" x="190.96" y="-177.5" font-family="Helvetica,sans-Serif" font-size="10.00" fill="grey"> +player</text>
</g>
<!-- Node5 -->
<g id="Node000005" class="node">
<title>Node5</title>
<g id="a_Node000005"><a xlink:href="class_entity.html" target="_top" xlink:title="Base class for all entities in the game. This includes the player and enemies.">
<polygon fill="white" stroke="none" points="218.25,-489 86.25,-489 86.25,-349 218.25,-349 218.25,-489"/>
<text text-anchor="start" x="139.5" y="-475.5" font-family="Helvetica,sans-Serif" font-size="10.00">Entity</text>
<text text-anchor="start" x="90.25" y="-459.5" font-family="Helvetica,sans-Serif" font-size="10.00">+</text>
<text text-anchor="start" x="100.25" y="-459.5" font-family="Helvetica,sans-Serif" font-size="10.00">int maxHealth</text>
<text text-anchor="start" x="90.25" y="-443.5" font-family="Helvetica,sans-Serif" font-size="10.00">+</text>
<text text-anchor="start" x="100.25" y="-443.5" font-family="Helvetica,sans-Serif" font-size="10.00">int currHealth</text>
<text text-anchor="start" x="90.25" y="-427.5" font-family="Helvetica,sans-Serif" font-size="10.00">+</text>
<text text-anchor="start" x="100.25" y="-427.5" font-family="Helvetica,sans-Serif" font-size="10.00">string name</text>
<text text-anchor="start" x="90.25" y="-411.5" font-family="Helvetica,sans-Serif" font-size="10.00">+</text>
<text text-anchor="start" x="100.25" y="-411.5" font-family="Helvetica,sans-Serif" font-size="10.00">Entity(int health, string</text>
<text text-anchor="start" x="100.25" y="-399.5" font-family="Helvetica,sans-Serif" font-size="10.00"> name, int atk, int def)</text>
<text text-anchor="start" x="90.25" y="-383.5" font-family="Helvetica,sans-Serif" font-size="10.00">+</text>
<text text-anchor="start" x="100.25" y="-383.5" font-family="Helvetica,sans-Serif" font-size="10.00">virtual ~Entity()</text>
<text text-anchor="start" x="90.25" y="-367.5" font-family="Helvetica,sans-Serif" font-size="10.00">+</text>
<text text-anchor="start" x="100.25" y="-367.5" font-family="Helvetica,sans-Serif" font-size="10.00">void attack(Entity &amp;target,</text>
<text text-anchor="start" x="100.25" y="-355.5" font-family="Helvetica,sans-Serif" font-size="10.00"> int extraDmg=0)</text>
<polygon fill="#666666" stroke="#666666" points="86.25,-471 86.25,-471 218.25,-471 218.25,-471 86.25,-471"/>
<polygon fill="#666666" stroke="#666666" points="86.25,-423 86.25,-423 98.25,-423 98.25,-423 86.25,-423"/>
<polygon fill="#666666" stroke="#666666" points="98.25,-423 98.25,-423 218.25,-423 218.25,-423 98.25,-423"/>
<polygon fill="none" stroke="#666666" points="86.25,-349 86.25,-489 218.25,-489 218.25,-349 86.25,-349"/>
</a>
</g>
</g>
<!-- Node5&#45;&gt;Node4 -->
<g id="edge4_Node000004_Node000005" class="edge">
<title>Node5&#45;&gt;Node4</title>
<g id="a_edge4_Node000004_Node000005"><a xlink:title=" ">
<path fill="none" stroke="#63b8ff" d="M203.51,-340.16C212.34,-326.75 221.27,-313.19 229.35,-300.92"/>
<polygon fill="none" stroke="#63b8ff" points="200.84,-337.86 198.26,-348.14 206.68,-341.71 200.84,-337.86"/>
</a>
</g>
</g>
<!-- Node6 -->
<g id="Node000006" class="node">
<title>Node6</title>
<g id="a_Node000006"><a xlink:href="class_stats.html" target="_top" xlink:title="Stats for all entities.">
<polygon fill="white" stroke="none" points="197.62,-621 106.88,-621 106.88,-537 197.62,-537 197.62,-621"/>
<text text-anchor="start" x="140.62" y="-607.5" font-family="Helvetica,sans-Serif" font-size="10.00">Stats</text>
<text text-anchor="start" x="110.88" y="-591.5" font-family="Helvetica,sans-Serif" font-size="10.00">+</text>
<text text-anchor="start" x="120.88" y="-591.5" font-family="Helvetica,sans-Serif" font-size="10.00">int atk</text>
<text text-anchor="start" x="110.88" y="-575.5" font-family="Helvetica,sans-Serif" font-size="10.00">+</text>
<text text-anchor="start" x="120.88" y="-575.5" font-family="Helvetica,sans-Serif" font-size="10.00">int def</text>
<text text-anchor="start" x="110.88" y="-559.5" font-family="Helvetica,sans-Serif" font-size="10.00">+</text>
<text text-anchor="start" x="120.88" y="-559.5" font-family="Helvetica,sans-Serif" font-size="10.00">Stats()</text>
<text text-anchor="start" x="110.88" y="-543.5" font-family="Helvetica,sans-Serif" font-size="10.00">+</text>
<text text-anchor="start" x="120.88" y="-543.5" font-family="Helvetica,sans-Serif" font-size="10.00">Stats(int x, int y)</text>
<polygon fill="#666666" stroke="#666666" points="106.88,-603 106.88,-603 197.62,-603 197.62,-603 106.88,-603"/>
<polygon fill="#666666" stroke="#666666" points="106.88,-571 106.88,-571 118.88,-571 118.88,-571 106.88,-571"/>
<polygon fill="#666666" stroke="#666666" points="118.88,-571 118.88,-571 197.62,-571 197.62,-571 118.88,-571"/>
<polygon fill="none" stroke="#666666" points="106.88,-537 106.88,-621 197.62,-621 197.62,-537 106.88,-537"/>
</a>
</g>
</g>
<!-- Node6&#45;&gt;Node5 -->
<g id="edge5_Node000005_Node000006" class="edge">
<title>Node6&#45;&gt;Node5</title>
<g id="a_edge5_Node000005_Node000006"><a xlink:title=" ">
<path fill="none" stroke="#63b8ff" d="M152.25,-537.31C152.25,-526.32 152.25,-514.02 152.25,-501.63"/>
<polygon fill="none" stroke="#63b8ff" points="152.25,-501.65 148.25,-495.65 152.25,-489.65 156.25,-495.65 152.25,-501.65"/>
</a>
</g>
<text text-anchor="middle" x="167.62" y="-509.5" font-family="Helvetica,sans-Serif" font-size="10.00" fill="grey"> +stats</text>
</g>
<!-- Node7 -->
<g id="Node000007" class="node">
<title>Node7</title>
<g id="a_Node000007"><a xlink:href="class_inventory.html" target="_top" xlink:title="Inventory class that holds all items for the player.">
<polygon fill="white" stroke="none" points="376,-481 236.5,-481 236.5,-357 376,-357 376,-481"/>
<text text-anchor="start" x="286" y="-467.5" font-family="Helvetica,sans-Serif" font-size="10.00">Inventory</text>
<text text-anchor="start" x="240.5" y="-451.5" font-family="Helvetica,sans-Serif" font-size="10.00">+</text>
<text text-anchor="start" x="250.5" y="-451.5" font-family="Helvetica,sans-Serif" font-size="10.00">vector&lt; IItem * &gt; items</text>
<text text-anchor="start" x="240.5" y="-435.5" font-family="Helvetica,sans-Serif" font-size="10.00">+</text>
<text text-anchor="start" x="250.5" y="-435.5" font-family="Helvetica,sans-Serif" font-size="10.00">IItem * addItem(IItem *item,</text>
<text text-anchor="start" x="250.5" y="-423.5" font-family="Helvetica,sans-Serif" font-size="10.00"> bool animate=true)</text>
<text text-anchor="start" x="240.5" y="-407.5" font-family="Helvetica,sans-Serif" font-size="10.00">+</text>
<text text-anchor="start" x="250.5" y="-407.5" font-family="Helvetica,sans-Serif" font-size="10.00">void listItems()</text>
<text text-anchor="start" x="240.5" y="-391.5" font-family="Helvetica,sans-Serif" font-size="10.00">+</text>
<text text-anchor="start" x="250.5" y="-391.5" font-family="Helvetica,sans-Serif" font-size="10.00">bool useItem(int idx, Player</text>
<text text-anchor="start" x="250.5" y="-379.5" font-family="Helvetica,sans-Serif" font-size="10.00"> &amp;player, Entity *enemy)</text>
<text text-anchor="start" x="240.5" y="-363.5" font-family="Helvetica,sans-Serif" font-size="10.00">+</text>
<text text-anchor="start" x="250.5" y="-363.5" font-family="Helvetica,sans-Serif" font-size="10.00">void dropItem(int idx)</text>
<polygon fill="#666666" stroke="#666666" points="236.5,-463 236.5,-463 376,-463 376,-463 236.5,-463"/>
<polygon fill="#666666" stroke="#666666" points="236.5,-447 236.5,-447 248.5,-447 248.5,-447 236.5,-447"/>
<polygon fill="#666666" stroke="#666666" points="248.5,-447 248.5,-447 376,-447 376,-447 248.5,-447"/>
<polygon fill="none" stroke="#666666" points="236.5,-357 236.5,-481 376,-481 376,-357 236.5,-357"/>
</a>
</g>
</g>
<!-- Node7&#45;&gt;Node4 -->
<g id="edge6_Node000004_Node000007" class="edge">
<title>Node7&#45;&gt;Node4</title>
<g id="a_edge6_Node000004_Node000007"><a xlink:title=" ">
<path fill="none" stroke="#63b8ff" d="M289.25,-357.4C285.19,-342.93 280.87,-327.51 276.83,-313.11"/>
<polygon fill="none" stroke="#63b8ff" points="276.85,-313.19 271.38,-308.49 273.61,-301.64 279.08,-306.33 276.85,-313.19"/>
</a>
</g>
<text text-anchor="middle" x="304.87" y="-321.5" font-family="Helvetica,sans-Serif" font-size="10.00" fill="grey"> +inventory</text>
</g>
</g>
</svg>
