<?xml version="1.0" encoding="UTF-8" standalone="no"?>
<!DOCTYPE svg PUBLIC "-//W3C//DTD SVG 1.1//EN"
 "http://www.w3.org/Graphics/SVG/1.1/DTD/svg11.dtd">
<!-- Generated by graphviz version 12.2.1 (20241206.2353)
 -->
<!-- Title: UserInterface Pages: 1 -->
<!--zoomable 408 -->

<svg id="main" version="1.1" xmlns="http://www.w3.org/2000/svg" xmlns:xlink="http://www.w3.org/1999/xlink" xml:space="preserve" onload="init(evt)">

<style type="text/css"><![CDATA[
.node, .edge {opacity: 0.7;}
.node.selected, .edge.selected {opacity: 1;}
.edge:hover path { stroke: red; }
.edge:hover polygon { stroke: red; fill: red; }
]]></style>

<defs>
  <circle id="rim" cx="0" cy="0" r="7"/>
  <circle id="rim2" cx="0" cy="0" r="3.5"/>
  <g id="zoomPlus">
    <use xlink:href="#rim" fill="#404040"><set attributeName="fill" to="#808080" begin="zoomplus.mouseover" end="zoomplus.mouseout"/></use>
    <path d="M-4,0h8M0,-4v8" fill="none" stroke="white" stroke-width="1.5" pointer-events="none"/>
  </g>
  <g id="zoomMin">
    <use xlink:href="#rim" fill="#404040"><set attributeName="fill" to="#808080" begin="zoomminus.mouseover" end="zoomminus.mouseout"/></use>
    <path d="M-4,0h8" fill="none" stroke="white" stroke-width="1.5" pointer-events="none"/>
  </g>
  <g id="arrowUp" transform="translate(30 24)">
    <use xlink:href="#rim"/>
    <path pointer-events="none" fill="none" stroke="white" stroke-width="1.5" d="M0,-3.0v7 M-2.5,-0.5L0,-3.0L2.5,-0.5"/>
  </g>
  <g id="arrowRight" transform="rotate(90) translate(36 -43)">
    <use xlink:href="#rim"/>
    <path pointer-events="none" fill="none" stroke="white" stroke-width="1.5" d="M0,-3.0v7 M-2.5,-0.5L0,-3.0L2.5,-0.5"/>
  </g>
  <g id="arrowDown" transform="rotate(180) translate(-30 -48)">
    <use xlink:href="#rim"/>
    <path pointer-events="none" fill="none" stroke="white" stroke-width="1.5" d="M0,-3.0v7 M-2.5,-0.5L0,-3.0L2.5,-0.5"/>
  </g>
  <g id="arrowLeft" transform="rotate(270) translate(-36 17)">
    <use xlink:href="#rim"/>
    <path pointer-events="none" fill="none" stroke="white" stroke-width="1.5" d="M0,-3.0v7 M-2.5,-0.5L0,-3.0L2.5,-0.5"/>
  </g>
  <g id="resetDef">
    <use xlink:href="#rim2" fill="#404040"><set attributeName="fill" to="#808080" begin="reset.mouseover" end="reset.mouseout"/></use>
  </g>
</defs>
<script type="application/ecmascript">
var viewWidth = 1438;
var viewHeight = 408;
var sectionId = 'dynsection-0';
</script>
<script type="application/ecmascript" xlink:href="svg.min.js"/>
<svg id="graph" class="graph">
<g id="viewport">
<title>UserInterface</title>
<!-- Node1 -->
<g id="Node000001" class="node">
<title>Node1</title>
<g id="a_Node000001"><a xlink:title="Base class for all user interfaces in the game.">
<polygon fill="#999999" stroke="none" points="648.25,-400 487.75,-400 487.75,-332 648.25,-332 648.25,-400"/>
<text text-anchor="start" x="538.38" y="-386.5" font-family="Helvetica,sans-Serif" font-size="10.00">UserInterface</text>
<text text-anchor="start" x="491.75" y="-370.5" font-family="Helvetica,sans-Serif" font-size="10.00">+</text>
<text text-anchor="start" x="501.75" y="-370.5" font-family="Helvetica,sans-Serif" font-size="10.00">bool quitGame</text>
<text text-anchor="start" x="491.75" y="-354.5" font-family="Helvetica,sans-Serif" font-size="10.00">+</text>
<text text-anchor="start" x="501.75" y="-354.5" font-family="Helvetica,sans-Serif" font-size="10.00">virtual UserInterface * render()=0</text>
<text text-anchor="start" x="491.75" y="-338.5" font-family="Helvetica,sans-Serif" font-size="10.00">+</text>
<text text-anchor="start" x="501.75" y="-338.5" font-family="Helvetica,sans-Serif" font-size="10.00">virtual ~UserInterface()</text>
<polygon fill="#666666" stroke="#666666" points="487.75,-382 487.75,-382 648.25,-382 648.25,-382 487.75,-382"/>
<polygon fill="#666666" stroke="#666666" points="487.75,-366 487.75,-366 499.75,-366 499.75,-366 487.75,-366"/>
<polygon fill="#666666" stroke="#666666" points="499.75,-366 499.75,-366 648.25,-366 648.25,-366 499.75,-366"/>
<polygon fill="none" stroke="#666666" points="487.75,-332 487.75,-400 648.25,-400 648.25,-332 487.75,-332"/>
</a>
</g>
</g>
<!-- Node2 -->
<g id="Node000002" class="node">
<title>Node2</title>
<g id="a_Node000002"><a xlink:href="class_game_over.html" target="_top" xlink:title="The game over screen. The user is sent back to the start menu after this.">
<polygon fill="white" stroke="none" points="470.75,-288 313.25,-288 313.25,-236 470.75,-236 470.75,-288"/>
<text text-anchor="start" x="368.38" y="-274.5" font-family="Helvetica,sans-Serif" font-size="10.00">GameOver</text>
<text text-anchor="start" x="390.5" y="-258.5" font-family="Helvetica,sans-Serif" font-size="10.00"> </text>
<text text-anchor="start" x="317.25" y="-242.5" font-family="Helvetica,sans-Serif" font-size="10.00">+</text>
<text text-anchor="start" x="327.25" y="-242.5" font-family="Helvetica,sans-Serif" font-size="10.00">UserInterface * render() override</text>
<polygon fill="#666666" stroke="#666666" points="313.25,-270 313.25,-270 470.75,-270 470.75,-270 313.25,-270"/>
<polygon fill="#666666" stroke="#666666" points="313.25,-254 313.25,-254 470.75,-254 470.75,-254 313.25,-254"/>
<polygon fill="none" stroke="#666666" points="313.25,-236 313.25,-288 470.75,-288 470.75,-236 313.25,-236"/>
</a>
</g>
</g>
<!-- Node1&#45;&gt;Node2 -->
<g id="edge1_Node000001_Node000002" class="edge">
<title>Node1&#45;&gt;Node2</title>
<g id="a_edge1_Node000001_Node000002"><a xlink:title=" ">
<path fill="none" stroke="#63b8ff" d="M501.57,-326.5C479.23,-313.55 454.91,-299.46 434.87,-287.84"/>
<polygon fill="none" stroke="#63b8ff" points="499.63,-329.42 510.03,-331.41 503.14,-323.36 499.63,-329.42"/>
</a>
</g>
</g>
<!-- Node3 -->
<g id="Node000003" class="node">
<title>Node3</title>
<g id="a_Node000003"><a xlink:href="class_start_menu.html" target="_top" xlink:title="The first menu the user sees when they start the game.">
<polygon fill="white" stroke="none" points="646.75,-288 489.25,-288 489.25,-236 646.75,-236 646.75,-288"/>
<text text-anchor="start" x="545.5" y="-274.5" font-family="Helvetica,sans-Serif" font-size="10.00">StartMenu</text>
<text text-anchor="start" x="566.5" y="-258.5" font-family="Helvetica,sans-Serif" font-size="10.00"> </text>
<text text-anchor="start" x="493.25" y="-242.5" font-family="Helvetica,sans-Serif" font-size="10.00">+</text>
<text text-anchor="start" x="503.25" y="-242.5" font-family="Helvetica,sans-Serif" font-size="10.00">UserInterface * render() override</text>
<polygon fill="#666666" stroke="#666666" points="489.25,-270 489.25,-270 646.75,-270 646.75,-270 489.25,-270"/>
<polygon fill="#666666" stroke="#666666" points="489.25,-254 489.25,-254 646.75,-254 646.75,-254 489.25,-254"/>
<polygon fill="none" stroke="#666666" points="489.25,-236 489.25,-288 646.75,-288 646.75,-236 489.25,-236"/>
</a>
</g>
</g>
<!-- Node1&#45;&gt;Node3 -->
<g id="edge2_Node000001_Node000003" class="edge">
<title>Node1&#45;&gt;Node3</title>
<g id="a_edge2_Node000001_Node000003"><a xlink:title=" ">
<path fill="none" stroke="#63b8ff" d="M568,-321C568,-309.59 568,-297.7 568,-287.68"/>
<polygon fill="none" stroke="#63b8ff" points="564.5,-320.65 568,-330.65 571.5,-320.65 564.5,-320.65"/>
</a>
</g>
</g>
<!-- Node4 -->
<g id="Node000004" class="node">
<title>Node4</title>
<g id="a_Node000004"><a xlink:href="class_u_i_with_player.html" target="_top" xlink:title="Basically just the base class for all user interfaces that have a player.">
<polygon fill="white" stroke="none" points="804.75,-296 665.25,-296 665.25,-228 804.75,-228 804.75,-296"/>
<text text-anchor="start" x="705.75" y="-282.5" font-family="Helvetica,sans-Serif" font-size="10.00">UIWithPlayer</text>
<text text-anchor="start" x="669.25" y="-266.5" font-family="Helvetica,sans-Serif" font-size="10.00">+</text>
<text text-anchor="start" x="679.25" y="-266.5" font-family="Helvetica,sans-Serif" font-size="10.00">Player player</text>
<text text-anchor="start" x="669.25" y="-250.5" font-family="Helvetica,sans-Serif" font-size="10.00">+</text>
<text text-anchor="start" x="679.25" y="-250.5" font-family="Helvetica,sans-Serif" font-size="10.00">UIWithPlayer()</text>
<text text-anchor="start" x="669.25" y="-234.5" font-family="Helvetica,sans-Serif" font-size="10.00">+</text>
<text text-anchor="start" x="679.25" y="-234.5" font-family="Helvetica,sans-Serif" font-size="10.00">UIWithPlayer(Player player)</text>
<polygon fill="#666666" stroke="#666666" points="665.25,-278 665.25,-278 804.75,-278 804.75,-278 665.25,-278"/>
<polygon fill="#666666" stroke="#666666" points="665.25,-262 665.25,-262 677.25,-262 677.25,-262 665.25,-262"/>
<polygon fill="#666666" stroke="#666666" points="677.25,-262 677.25,-262 804.75,-262 804.75,-262 677.25,-262"/>
<polygon fill="none" stroke="#666666" points="665.25,-228 665.25,-296 804.75,-296 804.75,-228 665.25,-228"/>
</a>
</g>
</g>
<!-- Node1&#45;&gt;Node4 -->
<g id="edge3_Node000001_Node000004" class="edge">
<title>Node1&#45;&gt;Node4</title>
<g id="a_edge3_Node000001_Node000004"><a xlink:title=" ">
<path fill="none" stroke="#63b8ff" d="M631.27,-326.36C647.67,-316.34 665.18,-305.64 681.06,-295.95"/>
<polygon fill="none" stroke="#63b8ff" points="629.76,-323.18 623.05,-331.38 633.41,-329.15 629.76,-323.18"/>
</a>
</g>
</g>
<!-- Node5 -->
<g id="Node000005" class="node">
<title>Node5</title>
<g id="a_Node000005"><a xlink:href="class_battle.html" target="_top" xlink:title="The battle screen. The user can attack, use an item, or run away.">
<polygon fill="white" stroke="none" points="198,-192 0,-192 0,0 198,0 198,-192"/>
<text text-anchor="start" x="86.25" y="-178.5" font-family="Helvetica,sans-Serif" font-size="10.00">Battle</text>
<text text-anchor="start" x="4" y="-162.5" font-family="Helvetica,sans-Serif" font-size="10.00">+</text>
<text text-anchor="start" x="14" y="-162.5" font-family="Helvetica,sans-Serif" font-size="10.00">Entity enemy</text>
<text text-anchor="start" x="4" y="-146.5" font-family="Helvetica,sans-Serif" font-size="10.00">+</text>
<text text-anchor="start" x="14" y="-146.5" font-family="Helvetica,sans-Serif" font-size="10.00">bool didIntro</text>
<text text-anchor="start" x="4" y="-130.5" font-family="Helvetica,sans-Serif" font-size="10.00">+</text>
<text text-anchor="start" x="14" y="-130.5" font-family="Helvetica,sans-Serif" font-size="10.00">int rewardMoney</text>
<text text-anchor="start" x="4" y="-114.5" font-family="Helvetica,sans-Serif" font-size="10.00">+</text>
<text text-anchor="start" x="14" y="-114.5" font-family="Helvetica,sans-Serif" font-size="10.00">function&lt; UserInterface *(Player)&gt; onWin</text>
<text text-anchor="start" x="4" y="-98.5" font-family="Helvetica,sans-Serif" font-size="10.00">+</text>
<text text-anchor="start" x="14" y="-98.5" font-family="Helvetica,sans-Serif" font-size="10.00">function&lt; UserInterface *(Player)</text>
<text text-anchor="start" x="14" y="-86.5" font-family="Helvetica,sans-Serif" font-size="10.00">&gt; onLose</text>
<text text-anchor="start" x="4" y="-70.5" font-family="Helvetica,sans-Serif" font-size="10.00">+</text>
<text text-anchor="start" x="14" y="-70.5" font-family="Helvetica,sans-Serif" font-size="10.00">Battle(Player player, Entity</text>
<text text-anchor="start" x="14" y="-58.5" font-family="Helvetica,sans-Serif" font-size="10.00"> enemy, int reward, function</text>
<text text-anchor="start" x="14" y="-46.5" font-family="Helvetica,sans-Serif" font-size="10.00">&lt; UserInterface *(Player)&gt; winCallback,</text>
<text text-anchor="start" x="14" y="-34.5" font-family="Helvetica,sans-Serif" font-size="10.00"> function&lt; UserInterface *(Player)&gt;</text>
<text text-anchor="start" x="14" y="-22.5" font-family="Helvetica,sans-Serif" font-size="10.00"> loseCallback)</text>
<text text-anchor="start" x="4" y="-6.5" font-family="Helvetica,sans-Serif" font-size="10.00">+</text>
<text text-anchor="start" x="14" y="-6.5" font-family="Helvetica,sans-Serif" font-size="10.00">UserInterface * render() override</text>
<polygon fill="#666666" stroke="#666666" points="0,-174 0,-174 198,-174 198,-174 0,-174"/>
<polygon fill="#666666" stroke="#666666" points="0,-82 0,-82 12,-82 12,-82 0,-82"/>
<polygon fill="#666666" stroke="#666666" points="12,-82 12,-82 198,-82 198,-82 12,-82"/>
<polygon fill="none" stroke="#666666" points="0,0 0,-192 198,-192 198,0 0,0"/>
</a>
</g>
</g>
<!-- Node4&#45;&gt;Node5 -->
<g id="edge4_Node000004_Node000005" class="edge">
<title>Node4&#45;&gt;Node5</title>
<g id="a_edge4_Node000004_Node000005"><a xlink:title=" ">
<path fill="none" stroke="#63b8ff" d="M654.68,-228.06C458.87,-184 388.01,-268.68 207,-192 203.9,-190.68 200.82,-189.24 197.77,-187.7"/>
<polygon fill="none" stroke="#63b8ff" points="653.61,-231.4 664.14,-230.27 655.21,-224.58 653.61,-231.4"/>
</a>
</g>
</g>
<!-- Node6 -->
<g id="Node000006" class="node">
<title>Node6</title>
<g id="a_Node000006"><a xlink:href="class_first_choice.html" target="_top" xlink:title="The part after the player meets the mysterious stranger.">
<polygon fill="white" stroke="none" points="373.75,-130 216.25,-130 216.25,-62 373.75,-62 373.75,-130"/>
<text text-anchor="start" x="269.88" y="-116.5" font-family="Helvetica,sans-Serif" font-size="10.00">FirstChoice</text>
<text text-anchor="start" x="220.25" y="-100.5" font-family="Helvetica,sans-Serif" font-size="10.00">+</text>
<text text-anchor="start" x="230.25" y="-100.5" font-family="Helvetica,sans-Serif" font-size="10.00">list&lt; string &gt; stayResps</text>
<text text-anchor="start" x="220.25" y="-84.5" font-family="Helvetica,sans-Serif" font-size="10.00">+</text>
<text text-anchor="start" x="230.25" y="-84.5" font-family="Helvetica,sans-Serif" font-size="10.00">FirstChoice(Player player)</text>
<text text-anchor="start" x="220.25" y="-68.5" font-family="Helvetica,sans-Serif" font-size="10.00">+</text>
<text text-anchor="start" x="230.25" y="-68.5" font-family="Helvetica,sans-Serif" font-size="10.00">UserInterface * render() override</text>
<polygon fill="#666666" stroke="#666666" points="216.25,-112 216.25,-112 373.75,-112 373.75,-112 216.25,-112"/>
<polygon fill="#666666" stroke="#666666" points="216.25,-96 216.25,-96 228.25,-96 228.25,-96 216.25,-96"/>
<polygon fill="#666666" stroke="#666666" points="228.25,-96 228.25,-96 373.75,-96 373.75,-96 228.25,-96"/>
<polygon fill="none" stroke="#666666" points="216.25,-62 216.25,-130 373.75,-130 373.75,-62 216.25,-62"/>
</a>
</g>
</g>
<!-- Node4&#45;&gt;Node6 -->
<g id="edge5_Node000004_Node000006" class="edge">
<title>Node4&#45;&gt;Node6</title>
<g id="a_edge5_Node000004_Node000006"><a xlink:title=" ">
<path fill="none" stroke="#63b8ff" d="M654.54,-227.99C535.08,-199.09 488.52,-246.58 383,-192 355.44,-177.75 332.02,-151.25 316.29,-129.86"/>
<polygon fill="none" stroke="#63b8ff" points="653.54,-231.35 664.1,-230.45 655.28,-224.57 653.54,-231.35"/>
</a>
</g>
</g>
<!-- Node7 -->
<g id="Node000007" class="node">
<title>Node7</title>
<g id="a_Node000007"><a xlink:href="class_gamble_menu.html" target="_top" xlink:title="The menu for gambling. The user can win a legendary sword or nothing.">
<polygon fill="white" stroke="none" points="549.75,-130 392.25,-130 392.25,-62 549.75,-62 549.75,-130"/>
<text text-anchor="start" x="442.12" y="-116.5" font-family="Helvetica,sans-Serif" font-size="10.00">GambleMenu</text>
<text text-anchor="start" x="469.5" y="-100.5" font-family="Helvetica,sans-Serif" font-size="10.00"> </text>
<text text-anchor="start" x="396.25" y="-84.5" font-family="Helvetica,sans-Serif" font-size="10.00">+</text>
<text text-anchor="start" x="406.25" y="-84.5" font-family="Helvetica,sans-Serif" font-size="10.00">GambleMenu(Player player)</text>
<text text-anchor="start" x="396.25" y="-68.5" font-family="Helvetica,sans-Serif" font-size="10.00">+</text>
<text text-anchor="start" x="406.25" y="-68.5" font-family="Helvetica,sans-Serif" font-size="10.00">UserInterface * render() override</text>
<polygon fill="#666666" stroke="#666666" points="392.25,-112 392.25,-112 549.75,-112 549.75,-112 392.25,-112"/>
<polygon fill="#666666" stroke="#666666" points="392.25,-96 392.25,-96 549.75,-96 549.75,-96 392.25,-96"/>
<polygon fill="none" stroke="#666666" points="392.25,-62 392.25,-130 549.75,-130 549.75,-62 392.25,-62"/>
</a>
</g>
</g>
<!-- Node4&#45;&gt;Node7 -->
<g id="edge6_Node000004_Node000007" class="edge">
<title>Node4&#45;&gt;Node7</title>
<g id="a_edge6_Node000004_Node000007"><a xlink:title=" ">
<path fill="none" stroke="#63b8ff" d="M654.53,-227.64C610.79,-211.9 594.46,-215.72 559,-192 533.96,-175.25 511.02,-150.01 494.85,-129.75"/>
<polygon fill="none" stroke="#63b8ff" points="653.27,-230.9 663.86,-231.16 655.74,-224.35 653.27,-230.9"/>
</a>
</g>
</g>
<!-- Node8 -->
<g id="Node000008" class="node">
<title>Node8</title>
<g id="a_Node000008"><a xlink:href="class_intro_dialogue.html" target="_top" xlink:title="The intro dialogue. The player can choose their name and get a cool stick.">
<polygon fill="white" stroke="none" points="725.75,-122 568.25,-122 568.25,-70 725.75,-70 725.75,-122"/>
<text text-anchor="start" x="618.12" y="-108.5" font-family="Helvetica,sans-Serif" font-size="10.00">IntroDialogue</text>
<text text-anchor="start" x="645.5" y="-92.5" font-family="Helvetica,sans-Serif" font-size="10.00"> </text>
<text text-anchor="start" x="572.25" y="-76.5" font-family="Helvetica,sans-Serif" font-size="10.00">+</text>
<text text-anchor="start" x="582.25" y="-76.5" font-family="Helvetica,sans-Serif" font-size="10.00">UserInterface * render() override</text>
<polygon fill="#666666" stroke="#666666" points="568.25,-104 568.25,-104 725.75,-104 725.75,-104 568.25,-104"/>
<polygon fill="#666666" stroke="#666666" points="568.25,-88 568.25,-88 725.75,-88 725.75,-88 568.25,-88"/>
<polygon fill="none" stroke="#666666" points="568.25,-70 568.25,-122 725.75,-122 725.75,-70 568.25,-70"/>
</a>
</g>
</g>
<!-- Node4&#45;&gt;Node8 -->
<g id="edge7_Node000004_Node000008" class="edge">
<title>Node4&#45;&gt;Node8</title>
<g id="a_edge7_Node000004_Node000008"><a xlink:title=" ">
<path fill="none" stroke="#63b8ff" d="M712.05,-218.23C695.63,-187.63 674.1,-147.5 660.4,-121.97"/>
<polygon fill="none" stroke="#63b8ff" points="708.88,-219.72 716.69,-226.87 715.04,-216.41 708.88,-219.72"/>
</a>
</g>
</g>
<!-- Node9 -->
<g id="Node000009" class="node">
<title>Node9</title>
<g id="a_Node000009"><a xlink:href="class_jovial_aftermath.html" target="_top" xlink:title="The cutscene after the player wins the Jovial fight.">
<polygon fill="white" stroke="none" points="901.75,-136 744.25,-136 744.25,-56 901.75,-56 901.75,-136"/>
<text text-anchor="start" x="788.88" y="-122.5" font-family="Helvetica,sans-Serif" font-size="10.00">JovialAftermath</text>
<text text-anchor="start" x="748.25" y="-106.5" font-family="Helvetica,sans-Serif" font-size="10.00">+</text>
<text text-anchor="start" x="758.25" y="-106.5" font-family="Helvetica,sans-Serif" font-size="10.00">string battleStatus</text>
<text text-anchor="start" x="748.25" y="-90.5" font-family="Helvetica,sans-Serif" font-size="10.00">+</text>
<text text-anchor="start" x="758.25" y="-90.5" font-family="Helvetica,sans-Serif" font-size="10.00">JovialAftermath(Player player,</text>
<text text-anchor="start" x="758.25" y="-78.5" font-family="Helvetica,sans-Serif" font-size="10.00"> string bs)</text>
<text text-anchor="start" x="748.25" y="-62.5" font-family="Helvetica,sans-Serif" font-size="10.00">+</text>
<text text-anchor="start" x="758.25" y="-62.5" font-family="Helvetica,sans-Serif" font-size="10.00">UserInterface * render() override</text>
<polygon fill="#666666" stroke="#666666" points="744.25,-118 744.25,-118 901.75,-118 901.75,-118 744.25,-118"/>
<polygon fill="#666666" stroke="#666666" points="744.25,-102 744.25,-102 756.25,-102 756.25,-102 744.25,-102"/>
<polygon fill="#666666" stroke="#666666" points="756.25,-102 756.25,-102 901.75,-102 901.75,-102 756.25,-102"/>
<polygon fill="none" stroke="#666666" points="744.25,-56 744.25,-136 901.75,-136 901.75,-56 744.25,-56"/>
</a>
</g>
</g>
<!-- Node4&#45;&gt;Node9 -->
<g id="edge8_Node000004_Node000009" class="edge">
<title>Node4&#45;&gt;Node9</title>
<g id="a_edge8_Node000004_Node000009"><a xlink:title=" ">
<path fill="none" stroke="#63b8ff" d="M758.03,-218.08C771.71,-192.59 788.91,-160.52 802.18,-135.79"/>
<polygon fill="none" stroke="#63b8ff" points="754.96,-216.41 753.31,-226.87 761.12,-219.72 754.96,-216.41"/>
</a>
</g>
</g>
<!-- Node10 -->
<g id="Node000010" class="node">
<title>Node10</title>
<g id="a_Node000010"><a xlink:href="class_jovial_cutscene.html" target="_top" xlink:title="The cutscene before the player fights Jovial.">
<polygon fill="white" stroke="none" points="1077.75,-130 920.25,-130 920.25,-62 1077.75,-62 1077.75,-130"/>
<text text-anchor="start" x="965.25" y="-116.5" font-family="Helvetica,sans-Serif" font-size="10.00">JovialCutscene</text>
<text text-anchor="start" x="997.5" y="-100.5" font-family="Helvetica,sans-Serif" font-size="10.00"> </text>
<text text-anchor="start" x="924.25" y="-84.5" font-family="Helvetica,sans-Serif" font-size="10.00">+</text>
<text text-anchor="start" x="934.25" y="-84.5" font-family="Helvetica,sans-Serif" font-size="10.00">JovialCutscene(Player player)</text>
<text text-anchor="start" x="924.25" y="-68.5" font-family="Helvetica,sans-Serif" font-size="10.00">+</text>
<text text-anchor="start" x="934.25" y="-68.5" font-family="Helvetica,sans-Serif" font-size="10.00">UserInterface * render() override</text>
<polygon fill="#666666" stroke="#666666" points="920.25,-112 920.25,-112 1077.75,-112 1077.75,-112 920.25,-112"/>
<polygon fill="#666666" stroke="#666666" points="920.25,-96 920.25,-96 1077.75,-96 1077.75,-96 920.25,-96"/>
<polygon fill="none" stroke="#666666" points="920.25,-62 920.25,-130 1077.75,-130 1077.75,-62 920.25,-62"/>
</a>
</g>
</g>
<!-- Node4&#45;&gt;Node10 -->
<g id="edge9_Node000004_Node000010" class="edge">
<title>Node4&#45;&gt;Node10</title>
<g id="a_edge9_Node000004_Node000010"><a xlink:title=" ">
<path fill="none" stroke="#63b8ff" d="M815.05,-238.17C846.54,-227.07 882.01,-211.77 911,-192 935.89,-175.02 958.83,-149.79 975.05,-129.6"/>
<polygon fill="none" stroke="#63b8ff" points="814.3,-234.73 805.98,-241.29 816.57,-241.35 814.3,-234.73"/>
</a>
</g>
</g>
<!-- Node11 -->
<g id="Node000011" class="node">
<title>Node11</title>
<g id="a_Node000011"><a xlink:href="class_main_menu.html" target="_top" xlink:title="The main menu after all the cutscenes and stuff.">
<polygon fill="white" stroke="none" points="1253.75,-130 1096.25,-130 1096.25,-62 1253.75,-62 1253.75,-130"/>
<text text-anchor="start" x="1152.5" y="-116.5" font-family="Helvetica,sans-Serif" font-size="10.00">MainMenu</text>
<text text-anchor="start" x="1173.5" y="-100.5" font-family="Helvetica,sans-Serif" font-size="10.00"> </text>
<text text-anchor="start" x="1100.25" y="-84.5" font-family="Helvetica,sans-Serif" font-size="10.00">+</text>
<text text-anchor="start" x="1110.25" y="-84.5" font-family="Helvetica,sans-Serif" font-size="10.00">MainMenu(Player player)</text>
<text text-anchor="start" x="1100.25" y="-68.5" font-family="Helvetica,sans-Serif" font-size="10.00">+</text>
<text text-anchor="start" x="1110.25" y="-68.5" font-family="Helvetica,sans-Serif" font-size="10.00">UserInterface * render() override</text>
<polygon fill="#666666" stroke="#666666" points="1096.25,-112 1096.25,-112 1253.75,-112 1253.75,-112 1096.25,-112"/>
<polygon fill="#666666" stroke="#666666" points="1096.25,-96 1096.25,-96 1253.75,-96 1253.75,-96 1096.25,-96"/>
<polygon fill="none" stroke="#666666" points="1096.25,-62 1096.25,-130 1253.75,-130 1253.75,-62 1096.25,-62"/>
</a>
</g>
</g>
<!-- Node4&#45;&gt;Node11 -->
<g id="edge10_Node000004_Node000011" class="edge">
<title>Node4&#45;&gt;Node11</title>
<g id="a_edge10_Node000004_Node000011"><a xlink:title=" ">
<path fill="none" stroke="#63b8ff" d="M815.68,-259.27C890.35,-254.53 1002.28,-239.23 1087,-192 1113.9,-177 1137.21,-150.85 1153.07,-129.78"/>
<polygon fill="none" stroke="#63b8ff" points="815.78,-255.76 806,-259.83 816.18,-262.75 815.78,-255.76"/>
</a>
</g>
</g>
<!-- Node12 -->
<g id="Node000012" class="node">
<title>Node12</title>
<g id="a_Node000012"><a xlink:href="class_shop_menu.html" target="_top" xlink:title="The main menu after all the cutscenes and stuff.">
<polygon fill="white" stroke="none" points="1429.75,-130 1272.25,-130 1272.25,-62 1429.75,-62 1429.75,-130"/>
<text text-anchor="start" x="1327.75" y="-116.5" font-family="Helvetica,sans-Serif" font-size="10.00">ShopMenu</text>
<text text-anchor="start" x="1349.5" y="-100.5" font-family="Helvetica,sans-Serif" font-size="10.00"> </text>
<text text-anchor="start" x="1276.25" y="-84.5" font-family="Helvetica,sans-Serif" font-size="10.00">+</text>
<text text-anchor="start" x="1286.25" y="-84.5" font-family="Helvetica,sans-Serif" font-size="10.00">ShopMenu(Player player)</text>
<text text-anchor="start" x="1276.25" y="-68.5" font-family="Helvetica,sans-Serif" font-size="10.00">+</text>
<text text-anchor="start" x="1286.25" y="-68.5" font-family="Helvetica,sans-Serif" font-size="10.00">UserInterface * render() override</text>
<polygon fill="#666666" stroke="#666666" points="1272.25,-112 1272.25,-112 1429.75,-112 1429.75,-112 1272.25,-112"/>
<polygon fill="#666666" stroke="#666666" points="1272.25,-96 1272.25,-96 1429.75,-96 1429.75,-96 1272.25,-96"/>
<polygon fill="none" stroke="#666666" points="1272.25,-62 1272.25,-130 1429.75,-130 1429.75,-62 1272.25,-62"/>
</a>
</g>
</g>
<!-- Node4&#45;&gt;Node12 -->
<g id="edge11_Node000004_Node000012" class="edge">
<title>Node4&#45;&gt;Node12</title>
<g id="a_edge11_Node000004_Node000012"><a xlink:title=" ">
<path fill="none" stroke="#63b8ff" d="M815.94,-257.13C944.06,-249.88 1186.86,-231.33 1263,-192 1290.56,-177.76 1313.98,-151.27 1329.72,-129.87"/>
<polygon fill="none" stroke="#63b8ff" points="815.96,-253.62 806.17,-257.67 816.35,-260.61 815.96,-253.62"/>
</a>
</g>
</g>
</g>
</svg>

<g id="navigator" transform="translate(0 0)" fill="#404254">
  <rect fill="#f2f5e9" fill-opacity="0.5" stroke="#606060" stroke-width=".5" x="0" y="0" width="60" height="60"/>
  <use id="zoomplus" xlink:href="#zoomPlus" x="17" y="9" onmousedown="handleZoom(evt,'in')"/>
  <use id="zoomminus" xlink:href="#zoomMin" x="42" y="9" onmousedown="handleZoom(evt,'out')"/>
  <use id="reset" xlink:href="#resetDef" x="30" y="36" onmousedown="handleReset()"/>
   <use id="arrowup" xlink:href="#arrowUp" x="0" y="0" onmousedown="handlePan(0,-1)"/>
  <use id="arrowright" xlink:href="#arrowRight" x="0" y="0" onmousedown="handlePan(1,0)"/>
  <use id="arrowdown" xlink:href="#arrowDown" x="0" y="0" onmousedown="handlePan(0,1)"/>
  <use id="arrowleft" xlink:href="#arrowLeft" x="0" y="0" onmousedown="handlePan(-1,0)"/>
</g>
<svg viewBox="0 0 15 15" width="100%" height="30px" preserveAspectRatio="xMaxYMin meet">
 <g id="arrow_out" transform="scale(0.3 0.3)">
  <a xlink:href="class_user_interface__inherit__graph_org.svg" target="_base">
   <rect id="button" ry="5" rx="5" y="6" x="6" height="38" width="38"
        fill="#f2f5e9" fill-opacity="0.5" stroke="#606060" stroke-width="1.0"/>
   <path id="arrow"
     d="M 11.500037,31.436501 C 11.940474,20.09759 22.043105,11.32322 32.158766,21.979434 L 37.068811,17.246167 C 37.068811,17.246167 37.088388,32 37.088388,32 L 22.160133,31.978069 C 22.160133,31.978069 26.997745,27.140456 26.997745,27.140456 C 18.528582,18.264221 13.291696,25.230495 11.500037,31.436501 z"
     style="fill:#404040;"/>
  </a>
 </g>
</svg>

<style type='text/css'>
<![CDATA[
[data-mouse-over-selected='false'] { opacity: 0.7; }
[data-mouse-over-selected='true']  { opacity: 1.0; }
]]>
</style>
<script type="application/ecmascript"><![CDATA[
document.addEventListener('DOMContentLoaded', (event) => {
  highlightEdges();
  highlightAdjacentNodes();
});
]]></script>
</svg>
