<?xml version="1.0" encoding="UTF-8" standalone="no"?>
<!DOCTYPE svg PUBLIC "-//W3C//DTD SVG 1.1//EN"
 "http://www.w3.org/Graphics/SVG/1.1/DTD/svg11.dtd">
<!-- Generated by graphviz version 12.2.1 (20241206.2353)
 -->
<!-- Title: IItem::IItem Pages: 1 -->
<svg width="555pt" height="180pt"
 viewBox="0.00 0.00 555.00 180.00" xmlns="http://www.w3.org/2000/svg" xmlns:xlink="http://www.w3.org/1999/xlink">
<g id="graph0" class="graph" transform="scale(1 1) rotate(0) translate(4 176)">
<title>IItem::IItem</title>
<!-- Node1 -->
<g id="Node000001" class="node">
<title>Node1</title>
<g id="a_Node000001"><a xlink:title=" ">
<polygon fill="#999999" stroke="#666666" points="547,-77 480,-77 480,-57 547,-57 547,-77"/>
<text text-anchor="middle" x="513.5" y="-63.5" font-family="Helvetica,sans-Serif" font-size="10.00">IItem::IItem</text>
</a>
</g>
</g>
<!-- Node2 -->
<g id="Node000002" class="node">
<title>Node2</title>
<g id="a_Node000002"><a xlink:href="class_i_enemy_item.html#ab04428e73487bd8279945087a6b307fa" target="_top" xlink:title=" ">
<polygon fill="white" stroke="#666666" points="444,-134 315.5,-134 315.5,-114 444,-114 444,-134"/>
<text text-anchor="middle" x="379.75" y="-120.5" font-family="Helvetica,sans-Serif" font-size="10.00">IEnemyItem::IEnemyItem</text>
</a>
</g>
</g>
<!-- Node1&#45;&gt;Node2 -->
<g id="edge1_Node000001_Node000002" class="edge">
<title>Node1&#45;&gt;Node2</title>
<g id="a_edge1_Node000001_Node000002"><a xlink:title=" ">
<path fill="none" stroke="#63b8ff" d="M486.37,-83.23C473.86,-90.55 458.49,-98.89 444,-105 436.5,-108.16 428.29,-111.03 420.35,-113.53"/>
<polygon fill="#63b8ff" stroke="#63b8ff" points="488.03,-86.32 494.82,-78.18 484.44,-80.31 488.03,-86.32"/>
</a>
</g>
</g>
<!-- Node6 -->
<g id="Node000006" class="node">
<title>Node6</title>
<g id="a_Node000006"><a xlink:href="class_i_player_item.html#afc3002fdaacb41cd6862b2301cd279e3" target="_top" xlink:title=" ">
<polygon fill="white" stroke="#666666" points="441,-96 318.5,-96 318.5,-76 441,-76 441,-96"/>
<text text-anchor="middle" x="379.75" y="-82.5" font-family="Helvetica,sans-Serif" font-size="10.00">IPlayerItem::IPlayerItem</text>
</a>
</g>
</g>
<!-- Node1&#45;&gt;Node6 -->
<g id="edge5_Node000001_Node000006" class="edge">
<title>Node1&#45;&gt;Node6</title>
<g id="a_edge5_Node000001_Node000006"><a xlink:title=" ">
<path fill="none" stroke="#63b8ff" d="M468.26,-73.38C459.65,-74.62 450.48,-75.94 441.45,-77.25"/>
<polygon fill="#63b8ff" stroke="#63b8ff" points="468.7,-76.85 478.1,-71.96 467.7,-69.92 468.7,-76.85"/>
</a>
</g>
</g>
<!-- Node10 -->
<g id="Node000010" class="node">
<title>Node10</title>
<g id="a_Node000010"><a xlink:href="class_i_item.html#a601366438586b3834e385b64e5d9b943" target="_top" xlink:title=" ">
<polygon fill="white" stroke="#666666" points="420.75,-58 338.75,-58 338.75,-38 420.75,-38 420.75,-58"/>
<text text-anchor="middle" x="379.75" y="-44.5" font-family="Helvetica,sans-Serif" font-size="10.00">IItem::matches</text>
</a>
</g>
</g>
<!-- Node1&#45;&gt;Node10 -->
<g id="edge9_Node000001_Node000010" class="edge">
<title>Node1&#45;&gt;Node10</title>
<g id="a_edge9_Node000001_Node000010"><a xlink:title=" ">
<path fill="none" stroke="#63b8ff" d="M468.35,-60.63C453.13,-58.44 436.16,-55.99 421.24,-53.84"/>
<polygon fill="#63b8ff" stroke="#63b8ff" points="467.7,-64.08 478.1,-62.04 468.7,-57.15 467.7,-64.08"/>
</a>
</g>
</g>
<!-- Node11 -->
<g id="Node000011" class="node">
<title>Node11</title>
<g id="a_Node000011"><a xlink:href="class_i_item.html#a09483bee7e3f4f382e8eeac54493620e" target="_top" xlink:title=" ">
<polygon fill="white" stroke="#666666" points="416.25,-20 343.25,-20 343.25,0 416.25,0 416.25,-20"/>
<text text-anchor="middle" x="379.75" y="-6.5" font-family="Helvetica,sans-Serif" font-size="10.00">IItem::~IItem</text>
</a>
</g>
</g>
<!-- Node1&#45;&gt;Node11 -->
<g id="edge10_Node000001_Node000011" class="edge">
<title>Node1&#45;&gt;Node11</title>
<g id="a_edge10_Node000001_Node000011"><a xlink:title=" ">
<path fill="none" stroke="#63b8ff" d="M486.37,-50.77C473.86,-43.45 458.49,-35.11 444,-29 435.34,-25.35 425.73,-22.08 416.68,-19.34"/>
<polygon fill="#63b8ff" stroke="#63b8ff" points="484.44,-53.69 494.82,-55.82 488.03,-47.68 484.44,-53.69"/>
</a>
</g>
</g>
<!-- Node3 -->
<g id="Node000003" class="node">
<title>Node3</title>
<g id="a_Node000003"><a xlink:href="class_weapon.html#a8d9631f8c67df4646e9b06516eff0cd0" target="_top" xlink:title=" ">
<polygon fill="white" stroke="#666666" points="279.5,-134 187,-134 187,-114 279.5,-114 279.5,-134"/>
<text text-anchor="middle" x="233.25" y="-120.5" font-family="Helvetica,sans-Serif" font-size="10.00">Weapon::Weapon</text>
</a>
</g>
</g>
<!-- Node2&#45;&gt;Node3 -->
<g id="edge2_Node000002_Node000003" class="edge">
<title>Node2&#45;&gt;Node3</title>
<g id="a_edge2_Node000002_Node000003"><a xlink:title=" ">
<path fill="none" stroke="#63b8ff" d="M304.08,-124C295.79,-124 287.55,-124 279.78,-124"/>
<polygon fill="#63b8ff" stroke="#63b8ff" points="303.86,-127.5 313.86,-124 303.86,-120.5 303.86,-127.5"/>
</a>
</g>
</g>
<!-- Node4 -->
<g id="Node000004" class="node">
<title>Node4</title>
<g id="a_Node000004"><a xlink:href="class_cool_stick.html#acfbae3a51f5ba2cddce652078b501f9d" target="_top" xlink:title=" ">
<polygon fill="white" stroke="#666666" points="129.25,-172 21.75,-172 21.75,-152 129.25,-152 129.25,-172"/>
<text text-anchor="middle" x="75.5" y="-158.5" font-family="Helvetica,sans-Serif" font-size="10.00">CoolStick::CoolStick</text>
</a>
</g>
</g>
<!-- Node3&#45;&gt;Node4 -->
<g id="edge3_Node000003_Node000004" class="edge">
<title>Node3&#45;&gt;Node4</title>
<g id="a_edge3_Node000003_Node000004"><a xlink:title=" ">
<path fill="none" stroke="#63b8ff" d="M178.22,-137.18C158.95,-141.88 137.53,-147.11 119.33,-151.55"/>
<polygon fill="#63b8ff" stroke="#63b8ff" points="178.92,-140.61 187.81,-134.84 177.26,-133.81 178.92,-140.61"/>
</a>
</g>
</g>
<!-- Node5 -->
<g id="Node000005" class="node">
<title>Node5</title>
<g id="a_Node000005"><a xlink:href="class_yamato.html#af87539b26b8f9de81c54cb80ba556f9c" target="_top" xlink:title=" ">
<polygon fill="white" stroke="#666666" points="119.5,-134 31.5,-134 31.5,-114 119.5,-114 119.5,-134"/>
<text text-anchor="middle" x="75.5" y="-120.5" font-family="Helvetica,sans-Serif" font-size="10.00">Yamato::Yamato</text>
</a>
</g>
</g>
<!-- Node3&#45;&gt;Node5 -->
<g id="edge4_Node000003_Node000005" class="edge">
<title>Node3&#45;&gt;Node5</title>
<g id="a_edge4_Node000003_Node000005"><a xlink:title=" ">
<path fill="none" stroke="#63b8ff" d="M175.34,-124C157.03,-124 137.06,-124 119.88,-124"/>
<polygon fill="#63b8ff" stroke="#63b8ff" points="175.27,-127.5 185.27,-124 175.27,-120.5 175.27,-127.5"/>
</a>
</g>
</g>
<!-- Node7 -->
<g id="Node000007" class="node">
<title>Node7</title>
<g id="a_Node000007"><a xlink:href="class_i_potion.html#af960db386ba9efea5adcde6ec80fe943" target="_top" xlink:title=" ">
<polygon fill="white" stroke="#666666" points="275,-96 191.5,-96 191.5,-76 275,-76 275,-96"/>
<text text-anchor="middle" x="233.25" y="-82.5" font-family="Helvetica,sans-Serif" font-size="10.00">IPotion::IPotion</text>
</a>
</g>
</g>
<!-- Node6&#45;&gt;Node7 -->
<g id="edge6_Node000006_Node000007" class="edge">
<title>Node6&#45;&gt;Node7</title>
<g id="a_edge6_Node000006_Node000007"><a xlink:title=" ">
<path fill="none" stroke="#63b8ff" d="M306.97,-86C296.05,-86 285.11,-86 275.16,-86"/>
<polygon fill="#63b8ff" stroke="#63b8ff" points="306.79,-89.5 316.79,-86 306.79,-82.5 306.79,-89.5"/>
</a>
</g>
</g>
<!-- Node8 -->
<g id="Node000008" class="node">
<title>Node8</title>
<g id="a_Node000008"><a xlink:href="class_health_potion.html#a6ff8807a7aae10c5ce186c793b7f359c" target="_top" xlink:title=" ">
<polygon fill="white" stroke="#666666" points="142.75,-96 8.25,-96 8.25,-76 142.75,-76 142.75,-96"/>
<text text-anchor="middle" x="75.5" y="-82.5" font-family="Helvetica,sans-Serif" font-size="10.00">HealthPotion::HealthPotion</text>
</a>
</g>
</g>
<!-- Node7&#45;&gt;Node8 -->
<g id="edge7_Node000007_Node000008" class="edge">
<title>Node7&#45;&gt;Node8</title>
<g id="a_edge7_Node000007_Node000008"><a xlink:title=" ">
<path fill="none" stroke="#63b8ff" d="M179.86,-86C168.04,-86 155.35,-86 143.05,-86"/>
<polygon fill="#63b8ff" stroke="#63b8ff" points="179.82,-89.5 189.81,-86 179.81,-82.5 179.82,-89.5"/>
</a>
</g>
</g>
<!-- Node9 -->
<g id="Node000009" class="node">
<title>Node9</title>
<g id="a_Node000009"><a xlink:href="class_strength_potion.html#aa5d71087de02a8d775b0c07825e4ca2f" target="_top" xlink:title=" ">
<polygon fill="white" stroke="#666666" points="151,-58 0,-58 0,-38 151,-38 151,-58"/>
<text text-anchor="middle" x="75.5" y="-44.5" font-family="Helvetica,sans-Serif" font-size="10.00">StrengthPotion::StrengthPotion</text>
</a>
</g>
</g>
<!-- Node7&#45;&gt;Node9 -->
<g id="edge8_Node000007_Node000009" class="edge">
<title>Node7&#45;&gt;Node9</title>
<g id="a_edge8_Node000007_Node000009"><a xlink:title=" ">
<path fill="none" stroke="#63b8ff" d="M180.32,-73.33C160.51,-68.5 138.19,-63.05 119.32,-58.45"/>
<polygon fill="#63b8ff" stroke="#63b8ff" points="179.31,-76.69 189.86,-75.66 180.97,-69.89 179.31,-76.69"/>
</a>
</g>
</g>
</g>
</svg>
