<?xml version="1.0" encoding="UTF-8" standalone="no"?>
<!DOCTYPE svg PUBLIC "-//W3C//DTD SVG 1.1//EN"
 "http://www.w3.org/Graphics/SVG/1.1/DTD/svg11.dtd">
<!-- Generated by graphviz version 12.2.1 (20241206.2353)
 -->
<!-- Title: Yamato Pages: 1 -->
<!--zoomable 480 -->

<svg id="main" version="1.1" xmlns="http://www.w3.org/2000/svg" xmlns:xlink="http://www.w3.org/1999/xlink" xml:space="preserve" onload="init(evt)">

<style type="text/css"><![CDATA[
.node, .edge {opacity: 0.7;}
.node.selected, .edge.selected {opacity: 1;}
.edge:hover path { stroke: red; }
.edge:hover polygon { stroke: red; fill: red; }
]]></style>

<defs>
  <circle id="rim" cx="0" cy="0" r="7"/>
  <circle id="rim2" cx="0" cy="0" r="3.5"/>
  <g id="zoomPlus">
    <use xlink:href="#rim" fill="#404040"><set attributeName="fill" to="#808080" begin="zoomplus.mouseover" end="zoomplus.mouseout"/></use>
    <path d="M-4,0h8M0,-4v8" fill="none" stroke="white" stroke-width="1.5" pointer-events="none"/>
  </g>
  <g id="zoomMin">
    <use xlink:href="#rim" fill="#404040"><set attributeName="fill" to="#808080" begin="zoomminus.mouseover" end="zoomminus.mouseout"/></use>
    <path d="M-4,0h8" fill="none" stroke="white" stroke-width="1.5" pointer-events="none"/>
  </g>
  <g id="arrowUp" transform="translate(30 24)">
    <use xlink:href="#rim"/>
    <path pointer-events="none" fill="none" stroke="white" stroke-width="1.5" d="M0,-3.0v7 M-2.5,-0.5L0,-3.0L2.5,-0.5"/>
  </g>
  <g id="arrowRight" transform="rotate(90) translate(36 -43)">
    <use xlink:href="#rim"/>
    <path pointer-events="none" fill="none" stroke="white" stroke-width="1.5" d="M0,-3.0v7 M-2.5,-0.5L0,-3.0L2.5,-0.5"/>
  </g>
  <g id="arrowDown" transform="rotate(180) translate(-30 -48)">
    <use xlink:href="#rim"/>
    <path pointer-events="none" fill="none" stroke="white" stroke-width="1.5" d="M0,-3.0v7 M-2.5,-0.5L0,-3.0L2.5,-0.5"/>
  </g>
  <g id="arrowLeft" transform="rotate(270) translate(-36 17)">
    <use xlink:href="#rim"/>
    <path pointer-events="none" fill="none" stroke="white" stroke-width="1.5" d="M0,-3.0v7 M-2.5,-0.5L0,-3.0L2.5,-0.5"/>
  </g>
  <g id="resetDef">
    <use xlink:href="#rim2" fill="#404040"><set attributeName="fill" to="#808080" begin="reset.mouseover" end="reset.mouseout"/></use>
  </g>
</defs>
<script type="application/ecmascript">
var viewWidth = 162;
var viewHeight = 480;
var sectionId = 'dynsection-0';
</script>
<script type="application/ecmascript" xlink:href="svg.min.js"/>
<svg id="graph" class="graph">
<g id="viewport">
<title>Yamato</title>
<!-- Node1 -->
<g id="Node000001" class="node">
<title>Node1</title>
<g id="a_Node000001"><a xlink:title="The OP weapon of the game, the Yamato!!!">
<polygon fill="#999999" stroke="none" points="129,-52 24.75,-52 24.75,0 129,0 129,-52"/>
<text text-anchor="start" x="60.38" y="-38.5" font-family="Helvetica,sans-Serif" font-size="10.00">Yamato</text>
<text text-anchor="start" x="28.75" y="-22.5" font-family="Helvetica,sans-Serif" font-size="10.00">+</text>
<text text-anchor="start" x="38.75" y="-22.5" font-family="Helvetica,sans-Serif" font-size="10.00">static const int dmg</text>
<text text-anchor="start" x="28.75" y="-6.5" font-family="Helvetica,sans-Serif" font-size="10.00">+</text>
<text text-anchor="start" x="38.75" y="-6.5" font-family="Helvetica,sans-Serif" font-size="10.00">Yamato()</text>
<polygon fill="#666666" stroke="#666666" points="24.75,-34 24.75,-34 129,-34 129,-34 24.75,-34"/>
<polygon fill="#666666" stroke="#666666" points="24.75,-18 24.75,-18 36.75,-18 36.75,-18 24.75,-18"/>
<polygon fill="#666666" stroke="#666666" points="36.75,-18 36.75,-18 129,-18 129,-18 36.75,-18"/>
<polygon fill="none" stroke="#666666" points="24.75,0 24.75,-52 129,-52 129,0 24.75,0"/>
</a>
</g>
</g>
<!-- Node2 -->
<g id="Node000002" class="node">
<title>Node2</title>
<g id="a_Node000002"><a xlink:href="class_weapon.html" target="_top" xlink:title="Weapons set the type to &quot;Weapon&quot; and implement the use function cuz all weapons attack lmao.">
<polygon fill="white" stroke="none" points="153.38,-180 0.38,-180 0.38,-88 153.38,-88 153.38,-180"/>
<text text-anchor="start" x="59.25" y="-166.5" font-family="Helvetica,sans-Serif" font-size="10.00">Weapon</text>
<text text-anchor="start" x="4.38" y="-150.5" font-family="Helvetica,sans-Serif" font-size="10.00">+</text>
<text text-anchor="start" x="14.38" y="-150.5" font-family="Helvetica,sans-Serif" font-size="10.00">int dmg</text>
<text text-anchor="start" x="4.38" y="-134.5" font-family="Helvetica,sans-Serif" font-size="10.00">+</text>
<text text-anchor="start" x="14.38" y="-134.5" font-family="Helvetica,sans-Serif" font-size="10.00">Weapon(string name, string</text>
<text text-anchor="start" x="14.38" y="-122.5" font-family="Helvetica,sans-Serif" font-size="10.00"> desc, int count, int dmg)</text>
<text text-anchor="start" x="4.38" y="-106.5" font-family="Helvetica,sans-Serif" font-size="10.00">+</text>
<text text-anchor="start" x="14.38" y="-106.5" font-family="Helvetica,sans-Serif" font-size="10.00">bool use(Player &amp;player, Entity</text>
<text text-anchor="start" x="14.38" y="-94.5" font-family="Helvetica,sans-Serif" font-size="10.00"> &amp;enemy) override</text>
<polygon fill="#666666" stroke="#666666" points="0.38,-162 0.38,-162 153.38,-162 153.38,-162 0.38,-162"/>
<polygon fill="#666666" stroke="#666666" points="0.38,-146 0.38,-146 12.38,-146 12.38,-146 0.38,-146"/>
<polygon fill="#666666" stroke="#666666" points="12.38,-146 12.38,-146 153.38,-146 153.38,-146 12.38,-146"/>
<polygon fill="none" stroke="#666666" points="0.38,-88 0.38,-180 153.38,-180 153.38,-88 0.38,-88"/>
</a>
</g>
</g>
<!-- Node2&#45;&gt;Node1 -->
<g id="edge1_Node000001_Node000002" class="edge">
<title>Node2&#45;&gt;Node1</title>
<g id="a_edge1_Node000001_Node000002"><a xlink:title=" ">
<path fill="none" stroke="#63b8ff" d="M76.88,-76.61C76.88,-67.91 76.88,-59.32 76.88,-51.81"/>
<polygon fill="none" stroke="#63b8ff" points="73.38,-76.53 76.88,-86.53 80.38,-76.53 73.38,-76.53"/>
</a>
</g>
</g>
<!-- Node3 -->
<g id="Node000003" class="node">
<title>Node3</title>
<g id="a_Node000003"><a xlink:href="class_i_enemy_item.html" target="_top" xlink:title="Enemy items. The use function takes in a player and an enemy.">
<polygon fill="white" stroke="none" points="153.75,-308 0,-308 0,-216 153.75,-216 153.75,-308"/>
<text text-anchor="start" x="50.25" y="-294.5" font-family="Helvetica,sans-Serif" font-size="10.00">IEnemyItem</text>
<text text-anchor="start" x="75.38" y="-278.5" font-family="Helvetica,sans-Serif" font-size="10.00"> </text>
<text text-anchor="start" x="4" y="-262.5" font-family="Helvetica,sans-Serif" font-size="10.00">+</text>
<text text-anchor="start" x="14" y="-262.5" font-family="Helvetica,sans-Serif" font-size="10.00">IEnemyItem(string n, string</text>
<text text-anchor="start" x="14" y="-250.5" font-family="Helvetica,sans-Serif" font-size="10.00"> t, string d, int c)</text>
<text text-anchor="start" x="4" y="-234.5" font-family="Helvetica,sans-Serif" font-size="10.00">+</text>
<text text-anchor="start" x="14" y="-234.5" font-family="Helvetica,sans-Serif" font-size="10.00">virtual bool use(Player &amp;player,</text>
<text text-anchor="start" x="14" y="-222.5" font-family="Helvetica,sans-Serif" font-size="10.00"> Entity &amp;enemy)=0</text>
<polygon fill="#666666" stroke="#666666" points="0,-290 0,-290 153.75,-290 153.75,-290 0,-290"/>
<polygon fill="#666666" stroke="#666666" points="0,-274 0,-274 153.75,-274 153.75,-274 0,-274"/>
<polygon fill="none" stroke="#666666" points="0,-216 0,-308 153.75,-308 153.75,-216 0,-216"/>
</a>
</g>
</g>
<!-- Node3&#45;&gt;Node2 -->
<g id="edge2_Node000002_Node000003" class="edge">
<title>Node3&#45;&gt;Node2</title>
<g id="a_edge2_Node000002_Node000003"><a xlink:title=" ">
<path fill="none" stroke="#63b8ff" d="M76.88,-204.86C76.88,-196.41 76.88,-187.8 76.88,-179.63"/>
<polygon fill="none" stroke="#63b8ff" points="73.38,-204.71 76.88,-214.71 80.38,-204.71 73.38,-204.71"/>
</a>
</g>
</g>
<!-- Node4 -->
<g id="Node000004" class="node">
<title>Node4</title>
<g id="a_Node000004"><a xlink:href="class_i_item.html" target="_top" xlink:title="Base class for all items in the game.">
<polygon fill="white" stroke="none" points="134.25,-472 19.5,-472 19.5,-344 134.25,-344 134.25,-472"/>
<text text-anchor="start" x="65.62" y="-458.5" font-family="Helvetica,sans-Serif" font-size="10.00">IItem</text>
<text text-anchor="start" x="23.5" y="-442.5" font-family="Helvetica,sans-Serif" font-size="10.00">+</text>
<text text-anchor="start" x="33.5" y="-442.5" font-family="Helvetica,sans-Serif" font-size="10.00">string name</text>
<text text-anchor="start" x="23.5" y="-426.5" font-family="Helvetica,sans-Serif" font-size="10.00">+</text>
<text text-anchor="start" x="33.5" y="-426.5" font-family="Helvetica,sans-Serif" font-size="10.00">string type</text>
<text text-anchor="start" x="23.5" y="-410.5" font-family="Helvetica,sans-Serif" font-size="10.00">+</text>
<text text-anchor="start" x="33.5" y="-410.5" font-family="Helvetica,sans-Serif" font-size="10.00">string desc</text>
<text text-anchor="start" x="23.5" y="-394.5" font-family="Helvetica,sans-Serif" font-size="10.00">+</text>
<text text-anchor="start" x="33.5" y="-394.5" font-family="Helvetica,sans-Serif" font-size="10.00">int count</text>
<text text-anchor="start" x="23.5" y="-378.5" font-family="Helvetica,sans-Serif" font-size="10.00">+</text>
<text text-anchor="start" x="33.5" y="-378.5" font-family="Helvetica,sans-Serif" font-size="10.00">IItem(string n, string t,</text>
<text text-anchor="start" x="33.5" y="-366.5" font-family="Helvetica,sans-Serif" font-size="10.00"> string d, int c)</text>
<text text-anchor="start" x="23.5" y="-350.5" font-family="Helvetica,sans-Serif" font-size="10.00">+</text>
<text text-anchor="start" x="33.5" y="-350.5" font-family="Helvetica,sans-Serif" font-size="10.00">virtual ~IItem()</text>
<polygon fill="#666666" stroke="#666666" points="19.5,-454 19.5,-454 134.25,-454 134.25,-454 19.5,-454"/>
<polygon fill="#666666" stroke="#666666" points="19.5,-390 19.5,-390 31.5,-390 31.5,-390 19.5,-390"/>
<polygon fill="#666666" stroke="#666666" points="31.5,-390 31.5,-390 134.25,-390 134.25,-390 31.5,-390"/>
<polygon fill="none" stroke="#666666" points="19.5,-344 19.5,-472 134.25,-472 134.25,-344 19.5,-344"/>
</a>
</g>
</g>
<!-- Node4&#45;&gt;Node3 -->
<g id="edge3_Node000003_Node000004" class="edge">
<title>Node4&#45;&gt;Node3</title>
<g id="a_edge3_Node000003_Node000004"><a xlink:title=" ">
<path fill="none" stroke="#63b8ff" d="M76.88,-332.97C76.88,-324.38 76.88,-315.82 76.88,-307.79"/>
<polygon fill="none" stroke="#63b8ff" points="73.38,-332.74 76.88,-342.74 80.38,-332.74 73.38,-332.74"/>
</a>
</g>
</g>
</g>
</svg>

<g id="navigator" transform="translate(0 0)" fill="#404254">
  <rect fill="#f2f5e9" fill-opacity="0.5" stroke="#606060" stroke-width=".5" x="0" y="0" width="60" height="60"/>
  <use id="zoomplus" xlink:href="#zoomPlus" x="17" y="9" onmousedown="handleZoom(evt,'in')"/>
  <use id="zoomminus" xlink:href="#zoomMin" x="42" y="9" onmousedown="handleZoom(evt,'out')"/>
  <use id="reset" xlink:href="#resetDef" x="30" y="36" onmousedown="handleReset()"/>
   <use id="arrowup" xlink:href="#arrowUp" x="0" y="0" onmousedown="handlePan(0,-1)"/>
  <use id="arrowright" xlink:href="#arrowRight" x="0" y="0" onmousedown="handlePan(1,0)"/>
  <use id="arrowdown" xlink:href="#arrowDown" x="0" y="0" onmousedown="handlePan(0,1)"/>
  <use id="arrowleft" xlink:href="#arrowLeft" x="0" y="0" onmousedown="handlePan(-1,0)"/>
</g>
<svg viewBox="0 0 15 15" width="100%" height="30px" preserveAspectRatio="xMaxYMin meet">
 <g id="arrow_out" transform="scale(0.3 0.3)">
  <a xlink:href="class_yamato__inherit__graph_org.svg" target="_base">
   <rect id="button" ry="5" rx="5" y="6" x="6" height="38" width="38"
        fill="#f2f5e9" fill-opacity="0.5" stroke="#606060" stroke-width="1.0"/>
   <path id="arrow"
     d="M 11.500037,31.436501 C 11.940474,20.09759 22.043105,11.32322 32.158766,21.979434 L 37.068811,17.246167 C 37.068811,17.246167 37.088388,32 37.088388,32 L 22.160133,31.978069 C 22.160133,31.978069 26.997745,27.140456 26.997745,27.140456 C 18.528582,18.264221 13.291696,25.230495 11.500037,31.436501 z"
     style="fill:#404040;"/>
  </a>
 </g>
</svg>

<style type='text/css'>
<![CDATA[
[data-mouse-over-selected='false'] { opacity: 0.7; }
[data-mouse-over-selected='true']  { opacity: 1.0; }
]]>
</style>
<script type="application/ecmascript"><![CDATA[
document.addEventListener('DOMContentLoaded', (event) => {
  highlightEdges();
  highlightAdjacentNodes();
});
]]></script>
</svg>
