<?xml version="1.0" encoding="UTF-8" standalone="no"?>
<!DOCTYPE svg PUBLIC "-//W3C//DTD SVG 1.1//EN"
 "http://www.w3.org/Graphics/SVG/1.1/DTD/svg11.dtd">
<!-- Generated by graphviz version 12.2.1 (20241206.2353)
 -->
<!-- Title: IItem Pages: 1 -->
<svg width="429pt" height="496pt"
 viewBox="0.00 0.00 428.62 496.00" xmlns="http://www.w3.org/2000/svg" xmlns:xlink="http://www.w3.org/1999/xlink">
<g id="graph0" class="graph" transform="scale(1 1) rotate(0) translate(4 492)">
<title>IItem</title>
<!-- Node1 -->
<g id="Node000001" class="node">
<title>Node1</title>
<g id="a_Node000001"><a xlink:title="Base class for all items in the game.">
<polygon fill="#999999" stroke="none" points="306.5,-488 191.75,-488 191.75,-360 306.5,-360 306.5,-488"/>
<text text-anchor="start" x="237.88" y="-474.5" font-family="Helvetica,sans-Serif" font-size="10.00">IItem</text>
<text text-anchor="start" x="195.75" y="-458.5" font-family="Helvetica,sans-Serif" font-size="10.00">+</text>
<text text-anchor="start" x="205.75" y="-458.5" font-family="Helvetica,sans-Serif" font-size="10.00">string name</text>
<text text-anchor="start" x="195.75" y="-442.5" font-family="Helvetica,sans-Serif" font-size="10.00">+</text>
<text text-anchor="start" x="205.75" y="-442.5" font-family="Helvetica,sans-Serif" font-size="10.00">string type</text>
<text text-anchor="start" x="195.75" y="-426.5" font-family="Helvetica,sans-Serif" font-size="10.00">+</text>
<text text-anchor="start" x="205.75" y="-426.5" font-family="Helvetica,sans-Serif" font-size="10.00">string desc</text>
<text text-anchor="start" x="195.75" y="-410.5" font-family="Helvetica,sans-Serif" font-size="10.00">+</text>
<text text-anchor="start" x="205.75" y="-410.5" font-family="Helvetica,sans-Serif" font-size="10.00">int count</text>
<text text-anchor="start" x="195.75" y="-394.5" font-family="Helvetica,sans-Serif" font-size="10.00">+</text>
<text text-anchor="start" x="205.75" y="-394.5" font-family="Helvetica,sans-Serif" font-size="10.00">IItem(string n, string t,</text>
<text text-anchor="start" x="205.75" y="-382.5" font-family="Helvetica,sans-Serif" font-size="10.00"> string d, int c)</text>
<text text-anchor="start" x="195.75" y="-366.5" font-family="Helvetica,sans-Serif" font-size="10.00">+</text>
<text text-anchor="start" x="205.75" y="-366.5" font-family="Helvetica,sans-Serif" font-size="10.00">virtual ~IItem()</text>
<polygon fill="#666666" stroke="#666666" points="191.75,-470 191.75,-470 306.5,-470 306.5,-470 191.75,-470"/>
<polygon fill="#666666" stroke="#666666" points="191.75,-406 191.75,-406 203.75,-406 203.75,-406 191.75,-406"/>
<polygon fill="#666666" stroke="#666666" points="203.75,-406 203.75,-406 306.5,-406 306.5,-406 203.75,-406"/>
<polygon fill="none" stroke="#666666" points="191.75,-360 191.75,-488 306.5,-488 306.5,-360 191.75,-360"/>
</a>
</g>
</g>
<!-- Node2 -->
<g id="Node000002" class="node">
<title>Node2</title>
<g id="a_Node000002"><a xlink:href="class_i_enemy_item.html" target="_top" xlink:title="Enemy items. The use function takes in a player and an enemy.">
<polygon fill="white" stroke="none" points="238,-324 84.25,-324 84.25,-232 238,-232 238,-324"/>
<text text-anchor="start" x="134.5" y="-310.5" font-family="Helvetica,sans-Serif" font-size="10.00">IEnemyItem</text>
<text text-anchor="start" x="159.62" y="-294.5" font-family="Helvetica,sans-Serif" font-size="10.00"> </text>
<text text-anchor="start" x="88.25" y="-278.5" font-family="Helvetica,sans-Serif" font-size="10.00">+</text>
<text text-anchor="start" x="98.25" y="-278.5" font-family="Helvetica,sans-Serif" font-size="10.00">IEnemyItem(string n, string</text>
<text text-anchor="start" x="98.25" y="-266.5" font-family="Helvetica,sans-Serif" font-size="10.00"> t, string d, int c)</text>
<text text-anchor="start" x="88.25" y="-250.5" font-family="Helvetica,sans-Serif" font-size="10.00">+</text>
<text text-anchor="start" x="98.25" y="-250.5" font-family="Helvetica,sans-Serif" font-size="10.00">virtual bool use(Player &amp;player,</text>
<text text-anchor="start" x="98.25" y="-238.5" font-family="Helvetica,sans-Serif" font-size="10.00"> Entity &amp;enemy)=0</text>
<polygon fill="#666666" stroke="#666666" points="84.25,-306 84.25,-306 238,-306 238,-306 84.25,-306"/>
<polygon fill="#666666" stroke="#666666" points="84.25,-290 84.25,-290 238,-290 238,-290 84.25,-290"/>
<polygon fill="none" stroke="#666666" points="84.25,-232 84.25,-324 238,-324 238,-232 84.25,-232"/>
</a>
</g>
</g>
<!-- Node1&#45;&gt;Node2 -->
<g id="edge1_Node000001_Node000002" class="edge">
<title>Node1&#45;&gt;Node2</title>
<g id="a_edge1_Node000001_Node000002"><a xlink:title=" ">
<path fill="none" stroke="#63b8ff" d="M204.95,-350.71C199.34,-341.53 193.73,-332.36 188.5,-323.79"/>
<polygon fill="none" stroke="#63b8ff" points="201.79,-352.26 209.99,-358.97 207.77,-348.61 201.79,-352.26"/>
</a>
</g>
</g>
<!-- Node6 -->
<g id="Node000006" class="node">
<title>Node6</title>
<g id="a_Node000006"><a xlink:href="class_i_player_item.html" target="_top" xlink:title="Player items. The use function takes in a player only.">
<polygon fill="white" stroke="none" points="420.62,-318 255.62,-318 255.62,-238 420.62,-238 420.62,-318"/>
<text text-anchor="start" x="313" y="-304.5" font-family="Helvetica,sans-Serif" font-size="10.00">IPlayerItem</text>
<text text-anchor="start" x="336.62" y="-288.5" font-family="Helvetica,sans-Serif" font-size="10.00"> </text>
<text text-anchor="start" x="259.62" y="-272.5" font-family="Helvetica,sans-Serif" font-size="10.00">+</text>
<text text-anchor="start" x="269.62" y="-272.5" font-family="Helvetica,sans-Serif" font-size="10.00">IPlayerItem(string n, string</text>
<text text-anchor="start" x="269.62" y="-260.5" font-family="Helvetica,sans-Serif" font-size="10.00"> t, string d, int c)</text>
<text text-anchor="start" x="259.62" y="-244.5" font-family="Helvetica,sans-Serif" font-size="10.00">+</text>
<text text-anchor="start" x="269.62" y="-244.5" font-family="Helvetica,sans-Serif" font-size="10.00">virtual bool use(Player &amp;player)=0</text>
<polygon fill="#666666" stroke="#666666" points="255.62,-300 255.62,-300 420.62,-300 420.62,-300 255.62,-300"/>
<polygon fill="#666666" stroke="#666666" points="255.62,-284 255.62,-284 420.62,-284 420.62,-284 255.62,-284"/>
<polygon fill="none" stroke="#666666" points="255.62,-238 255.62,-318 420.62,-318 420.62,-238 255.62,-238"/>
</a>
</g>
</g>
<!-- Node1&#45;&gt;Node6 -->
<g id="edge5_Node000001_Node000006" class="edge">
<title>Node1&#45;&gt;Node6</title>
<g id="a_edge5_Node000001_Node000006"><a xlink:title=" ">
<path fill="none" stroke="#63b8ff" d="M293.77,-350.76C300.78,-339.43 307.78,-328.1 314.08,-317.91"/>
<polygon fill="none" stroke="#63b8ff" points="290.98,-348.62 288.7,-358.97 296.93,-352.3 290.98,-348.62"/>
</a>
</g>
</g>
<!-- Node3 -->
<g id="Node000003" class="node">
<title>Node3</title>
<g id="a_Node000003"><a xlink:href="class_weapon.html" target="_top" xlink:title="Weapons set the type to &quot;Weapon&quot; and implement the use function cuz all weapons attack lmao.">
<polygon fill="white" stroke="none" points="237.62,-196 84.62,-196 84.62,-104 237.62,-104 237.62,-196"/>
<text text-anchor="start" x="143.5" y="-182.5" font-family="Helvetica,sans-Serif" font-size="10.00">Weapon</text>
<text text-anchor="start" x="88.62" y="-166.5" font-family="Helvetica,sans-Serif" font-size="10.00">+</text>
<text text-anchor="start" x="98.62" y="-166.5" font-family="Helvetica,sans-Serif" font-size="10.00">int dmg</text>
<text text-anchor="start" x="88.62" y="-150.5" font-family="Helvetica,sans-Serif" font-size="10.00">+</text>
<text text-anchor="start" x="98.62" y="-150.5" font-family="Helvetica,sans-Serif" font-size="10.00">Weapon(string name, string</text>
<text text-anchor="start" x="98.62" y="-138.5" font-family="Helvetica,sans-Serif" font-size="10.00"> desc, int count, int dmg)</text>
<text text-anchor="start" x="88.62" y="-122.5" font-family="Helvetica,sans-Serif" font-size="10.00">+</text>
<text text-anchor="start" x="98.62" y="-122.5" font-family="Helvetica,sans-Serif" font-size="10.00">bool use(Player &amp;player, Entity</text>
<text text-anchor="start" x="98.62" y="-110.5" font-family="Helvetica,sans-Serif" font-size="10.00"> &amp;enemy) override</text>
<polygon fill="#666666" stroke="#666666" points="84.62,-178 84.62,-178 237.62,-178 237.62,-178 84.62,-178"/>
<polygon fill="#666666" stroke="#666666" points="84.62,-162 84.62,-162 96.62,-162 96.62,-162 84.62,-162"/>
<polygon fill="#666666" stroke="#666666" points="96.62,-162 96.62,-162 237.62,-162 237.62,-162 96.62,-162"/>
<polygon fill="none" stroke="#666666" points="84.62,-104 84.62,-196 237.62,-196 237.62,-104 84.62,-104"/>
</a>
</g>
</g>
<!-- Node2&#45;&gt;Node3 -->
<g id="edge2_Node000002_Node000003" class="edge">
<title>Node2&#45;&gt;Node3</title>
<g id="a_edge2_Node000002_Node000003"><a xlink:title=" ">
<path fill="none" stroke="#63b8ff" d="M161.12,-220.86C161.12,-212.41 161.12,-203.8 161.12,-195.63"/>
<polygon fill="none" stroke="#63b8ff" points="157.63,-220.71 161.13,-230.71 164.63,-220.71 157.63,-220.71"/>
</a>
</g>
</g>
<!-- Node4 -->
<g id="Node000004" class="node">
<title>Node4</title>
<g id="a_Node000004"><a xlink:href="class_cool_stick.html" target="_top" xlink:title="The Cool Stick is the first weapon the player gets.">
<polygon fill="white" stroke="none" points="104.25,-60 0,-60 0,-8 104.25,-8 104.25,-60"/>
<text text-anchor="start" x="30.75" y="-46.5" font-family="Helvetica,sans-Serif" font-size="10.00">CoolStick</text>
<text text-anchor="start" x="4" y="-30.5" font-family="Helvetica,sans-Serif" font-size="10.00">+</text>
<text text-anchor="start" x="14" y="-30.5" font-family="Helvetica,sans-Serif" font-size="10.00">static const int dmg</text>
<text text-anchor="start" x="4" y="-14.5" font-family="Helvetica,sans-Serif" font-size="10.00">+</text>
<text text-anchor="start" x="14" y="-14.5" font-family="Helvetica,sans-Serif" font-size="10.00">CoolStick()</text>
<polygon fill="#666666" stroke="#666666" points="0,-42 0,-42 104.25,-42 104.25,-42 0,-42"/>
<polygon fill="#666666" stroke="#666666" points="0,-26 0,-26 12,-26 12,-26 0,-26"/>
<polygon fill="#666666" stroke="#666666" points="12,-26 12,-26 104.25,-26 104.25,-26 12,-26"/>
<polygon fill="none" stroke="#666666" points="0,-8 0,-60 104.25,-60 104.25,-8 0,-8"/>
</a>
</g>
</g>
<!-- Node3&#45;&gt;Node4 -->
<g id="edge3_Node000003_Node000004" class="edge">
<title>Node3&#45;&gt;Node4</title>
<g id="a_edge3_Node000003_Node000004"><a xlink:title=" ">
<path fill="none" stroke="#63b8ff" d="M110.49,-96.04C98.43,-83.42 86.11,-70.54 75.91,-59.88"/>
<polygon fill="none" stroke="#63b8ff" points="107.87,-98.37 117.31,-103.18 112.93,-93.53 107.87,-98.37"/>
</a>
</g>
</g>
<!-- Node5 -->
<g id="Node000005" class="node">
<title>Node5</title>
<g id="a_Node000005"><a xlink:href="class_yamato.html" target="_top" xlink:title="The OP weapon of the game, the Yamato!!!">
<polygon fill="white" stroke="none" points="226.25,-60 122,-60 122,-8 226.25,-8 226.25,-60"/>
<text text-anchor="start" x="157.62" y="-46.5" font-family="Helvetica,sans-Serif" font-size="10.00">Yamato</text>
<text text-anchor="start" x="126" y="-30.5" font-family="Helvetica,sans-Serif" font-size="10.00">+</text>
<text text-anchor="start" x="136" y="-30.5" font-family="Helvetica,sans-Serif" font-size="10.00">static const int dmg</text>
<text text-anchor="start" x="126" y="-14.5" font-family="Helvetica,sans-Serif" font-size="10.00">+</text>
<text text-anchor="start" x="136" y="-14.5" font-family="Helvetica,sans-Serif" font-size="10.00">Yamato()</text>
<polygon fill="#666666" stroke="#666666" points="122,-42 122,-42 226.25,-42 226.25,-42 122,-42"/>
<polygon fill="#666666" stroke="#666666" points="122,-26 122,-26 134,-26 134,-26 122,-26"/>
<polygon fill="#666666" stroke="#666666" points="134,-26 134,-26 226.25,-26 226.25,-26 134,-26"/>
<polygon fill="none" stroke="#666666" points="122,-8 122,-60 226.25,-60 226.25,-8 122,-8"/>
</a>
</g>
</g>
<!-- Node3&#45;&gt;Node5 -->
<g id="edge4_Node000003_Node000005" class="edge">
<title>Node3&#45;&gt;Node5</title>
<g id="a_edge4_Node000003_Node000005"><a xlink:title=" ">
<path fill="none" stroke="#63b8ff" d="M167.49,-93.16C168.83,-81.47 170.16,-69.73 171.29,-59.88"/>
<polygon fill="none" stroke="#63b8ff" points="164.05,-92.44 166.4,-102.77 171.01,-93.23 164.05,-92.44"/>
</a>
</g>
</g>
<!-- Node7 -->
<g id="Node000007" class="node">
<title>Node7</title>
<g id="a_Node000007"><a xlink:href="class_i_potion.html" target="_top" xlink:title="Potions set the type to &quot;Potion&quot;.">
<polygon fill="white" stroke="none" points="413.12,-176 263.12,-176 263.12,-124 413.12,-124 413.12,-176"/>
<text text-anchor="start" x="322.75" y="-162.5" font-family="Helvetica,sans-Serif" font-size="10.00">IPotion</text>
<text text-anchor="start" x="336.62" y="-146.5" font-family="Helvetica,sans-Serif" font-size="10.00"> </text>
<text text-anchor="start" x="267.12" y="-130.5" font-family="Helvetica,sans-Serif" font-size="10.00">+</text>
<text text-anchor="start" x="277.12" y="-130.5" font-family="Helvetica,sans-Serif" font-size="10.00">IPotion(string n, string d, int c)</text>
<polygon fill="#666666" stroke="#666666" points="263.12,-158 263.12,-158 413.12,-158 413.12,-158 263.12,-158"/>
<polygon fill="#666666" stroke="#666666" points="263.12,-142 263.12,-142 413.12,-142 413.12,-142 263.12,-142"/>
<polygon fill="none" stroke="#666666" points="263.12,-124 263.12,-176 413.12,-176 413.12,-124 263.12,-124"/>
</a>
</g>
</g>
<!-- Node6&#45;&gt;Node7 -->
<g id="edge6_Node000006_Node000007" class="edge">
<title>Node6&#45;&gt;Node7</title>
<g id="a_edge6_Node000006_Node000007"><a xlink:title=" ">
<path fill="none" stroke="#63b8ff" d="M338.12,-226.85C338.12,-209.23 338.12,-190.21 338.12,-175.62"/>
<polygon fill="none" stroke="#63b8ff" points="334.63,-226.65 338.13,-236.65 341.63,-226.65 334.63,-226.65"/>
</a>
</g>
</g>
<!-- Node8 -->
<g id="Node000008" class="node">
<title>Node8</title>
<g id="a_Node000008"><a xlink:href="class_health_potion.html" target="_top" xlink:title="Health potions heal the player of course.">
<polygon fill="white" stroke="none" points="419.12,-68 257.12,-68 257.12,0 419.12,0 419.12,-68"/>
<text text-anchor="start" x="310" y="-54.5" font-family="Helvetica,sans-Serif" font-size="10.00">HealthPotion</text>
<text text-anchor="start" x="261.12" y="-38.5" font-family="Helvetica,sans-Serif" font-size="10.00">+</text>
<text text-anchor="start" x="271.12" y="-38.5" font-family="Helvetica,sans-Serif" font-size="10.00">static const int healAmount</text>
<text text-anchor="start" x="261.12" y="-22.5" font-family="Helvetica,sans-Serif" font-size="10.00">+</text>
<text text-anchor="start" x="271.12" y="-22.5" font-family="Helvetica,sans-Serif" font-size="10.00">HealthPotion(int c)</text>
<text text-anchor="start" x="261.12" y="-6.5" font-family="Helvetica,sans-Serif" font-size="10.00">+</text>
<text text-anchor="start" x="271.12" y="-6.5" font-family="Helvetica,sans-Serif" font-size="10.00">bool use(Player &amp;player) override</text>
<polygon fill="#666666" stroke="#666666" points="257.12,-50 257.12,-50 419.12,-50 419.12,-50 257.12,-50"/>
<polygon fill="#666666" stroke="#666666" points="257.12,-34 257.12,-34 269.12,-34 269.12,-34 257.12,-34"/>
<polygon fill="#666666" stroke="#666666" points="269.12,-34 269.12,-34 419.12,-34 419.12,-34 269.12,-34"/>
<polygon fill="none" stroke="#666666" points="257.12,0 257.12,-68 419.12,-68 419.12,0 257.12,0"/>
</a>
</g>
</g>
<!-- Node7&#45;&gt;Node8 -->
<g id="edge7_Node000007_Node000008" class="edge">
<title>Node7&#45;&gt;Node8</title>
<g id="a_edge7_Node000007_Node000008"><a xlink:title=" ">
<path fill="none" stroke="#63b8ff" d="M338.12,-112.76C338.12,-98.38 338.12,-81.95 338.12,-67.91"/>
<polygon fill="none" stroke="#63b8ff" points="334.63,-112.75 338.13,-122.75 341.63,-112.75 334.63,-112.75"/>
</a>
</g>
</g>
</g>
</svg>
