<?xml version="1.0" encoding="UTF-8" standalone="no"?>
<!DOCTYPE svg PUBLIC "-//W3C//DTD SVG 1.1//EN"
 "http://www.w3.org/Graphics/SVG/1.1/DTD/svg11.dtd">
<!-- Generated by graphviz version 12.2.1 (20241206.2353)
 -->
<!-- Title: Shop::buyItem Pages: 1 -->
<svg width="419pt" height="85pt"
 viewBox="0.00 0.00 418.50 85.00" xmlns="http://www.w3.org/2000/svg" xmlns:xlink="http://www.w3.org/1999/xlink">
<g id="graph0" class="graph" transform="scale(1 1) rotate(0) translate(4 81)">
<title>Shop::buyItem</title>
<!-- Node1 -->
<g id="Node000001" class="node">
<title>Node1</title>
<g id="a_Node000001"><a xlink:title="Buy an item from the shop.">
<polygon fill="#999999" stroke="#666666" points="79.75,-39 0,-39 0,-19 79.75,-19 79.75,-39"/>
<text text-anchor="middle" x="39.88" y="-25.5" font-family="Helvetica,sans-Serif" font-size="10.00">Shop::buyItem</text>
</a>
</g>
</g>
<!-- Node2 -->
<g id="Node000002" class="node">
<title>Node2</title>
<g id="a_Node000002"><a xlink:href="class_inventory.html#a7a3d5b1157d8212186746eade80b5630" target="_top" xlink:title="Adds an item to inventory.">
<polygon fill="white" stroke="#666666" points="213.5,-77 115.75,-77 115.75,-57 213.5,-57 213.5,-77"/>
<text text-anchor="middle" x="164.62" y="-63.5" font-family="Helvetica,sans-Serif" font-size="10.00">Inventory::addItem</text>
</a>
</g>
</g>
<!-- Node1&#45;&gt;Node2 -->
<g id="edge1_Node000001_Node000002" class="edge">
<title>Node1&#45;&gt;Node2</title>
<g id="a_edge1_Node000001_Node000002"><a xlink:title=" ">
<path fill="none" stroke="#63b8ff" d="M74.74,-39.48C88.43,-43.72 104.41,-48.67 119.02,-53.19"/>
<polygon fill="#63b8ff" stroke="#63b8ff" points="117.83,-56.49 128.42,-56.1 119.91,-49.8 117.83,-56.49"/>
</a>
</g>
</g>
<!-- Node5 -->
<g id="Node000005" class="node">
<title>Node5</title>
<g id="a_Node000005"><a xlink:href="class_player.html#a86ad66429e7bf8ef4640bac1d0f3476f" target="_top" xlink:title=" ">
<polygon fill="white" stroke="#666666" points="212,-39 117.25,-39 117.25,-19 212,-19 212,-39"/>
<text text-anchor="middle" x="164.62" y="-25.5" font-family="Helvetica,sans-Serif" font-size="10.00">Player::addMoney</text>
</a>
</g>
</g>
<!-- Node1&#45;&gt;Node5 -->
<g id="edge4_Node000001_Node000005" class="edge">
<title>Node1&#45;&gt;Node5</title>
<g id="a_edge4_Node000001_Node000005"><a xlink:title=" ">
<path fill="none" stroke="#63b8ff" d="M80.05,-29C88.25,-29 97.05,-29 105.77,-29"/>
<polygon fill="#63b8ff" stroke="#63b8ff" points="105.59,-32.5 115.59,-29 105.59,-25.5 105.59,-32.5"/>
</a>
</g>
</g>
<!-- Node6 -->
<g id="Node000006" class="node">
<title>Node6</title>
<g id="a_Node000006"><a xlink:href="extras_8cpp.html#a99d2755bf0660601280710515b3f512c" target="_top" xlink:title="Colors text.">
<polygon fill="white" stroke="#666666" points="319.12,-20 250.62,-20 250.62,0 319.12,0 319.12,-20"/>
<text text-anchor="middle" x="284.88" y="-6.5" font-family="Helvetica,sans-Serif" font-size="10.00">colorizeText</text>
</a>
</g>
</g>
<!-- Node1&#45;&gt;Node6 -->
<g id="edge6_Node000001_Node000006" class="edge">
<title>Node1&#45;&gt;Node6</title>
<g id="a_edge6_Node000001_Node000006"><a xlink:title=" ">
<path fill="none" stroke="#63b8ff" d="M74.45,-18.59C87.25,-15.12 102.04,-11.71 115.75,-10 157.2,-4.82 204.86,-5.43 238.82,-6.98"/>
<polygon fill="#63b8ff" stroke="#63b8ff" points="238.55,-10.47 248.72,-7.48 238.91,-3.48 238.55,-10.47"/>
</a>
</g>
</g>
<!-- Node3 -->
<g id="Node000003" class="node">
<title>Node3</title>
<g id="a_Node000003"><a xlink:href="extras_8cpp.html#a251383c9dea6cb260fb6f9ebb010139f" target="_top" xlink:title="Outputs a text character by character with a given delay.">
<polygon fill="white" stroke="#666666" points="320.25,-77 249.5,-77 249.5,-57 320.25,-57 320.25,-77"/>
<text text-anchor="middle" x="284.88" y="-63.5" font-family="Helvetica,sans-Serif" font-size="10.00">printAnimate</text>
</a>
</g>
</g>
<!-- Node2&#45;&gt;Node3 -->
<g id="edge2_Node000002_Node000003" class="edge">
<title>Node2&#45;&gt;Node3</title>
<g id="a_edge2_Node000002_Node000003"><a xlink:title=" ">
<path fill="none" stroke="#63b8ff" d="M213.72,-67C221.71,-67 229.98,-67 237.92,-67"/>
<polygon fill="#63b8ff" stroke="#63b8ff" points="237.72,-70.5 247.72,-67 237.72,-63.5 237.72,-70.5"/>
</a>
</g>
</g>
<!-- Node4 -->
<g id="Node000004" class="node">
<title>Node4</title>
<g id="a_Node000004"><a xlink:href="extras_8cpp.html#aea0e34fe8a665ef6cb1fd6526ce1deb0" target="_top" xlink:title=" ">
<polygon fill="white" stroke="#666666" points="410.5,-77 356.25,-77 356.25,-57 410.5,-57 410.5,-77"/>
<text text-anchor="middle" x="383.38" y="-63.5" font-family="Helvetica,sans-Serif" font-size="10.00">sleepMS</text>
</a>
</g>
</g>
<!-- Node3&#45;&gt;Node4 -->
<g id="edge3_Node000003_Node000004" class="edge">
<title>Node3&#45;&gt;Node4</title>
<g id="a_edge3_Node000003_Node000004"><a xlink:title=" ">
<path fill="none" stroke="#63b8ff" d="M320.71,-67C328.39,-67 336.55,-67 344.34,-67"/>
<polygon fill="#63b8ff" stroke="#63b8ff" points="344.25,-70.5 354.25,-67 344.25,-63.5 344.25,-70.5"/>
</a>
</g>
</g>
<!-- Node5&#45;&gt;Node6 -->
<g id="edge5_Node000005_Node000006" class="edge">
<title>Node5&#45;&gt;Node6</title>
<g id="a_edge5_Node000005_Node000006"><a xlink:title=" ">
<path fill="none" stroke="#63b8ff" d="M212.36,-21.49C221.16,-20.08 230.34,-18.6 239.08,-17.2"/>
<polygon fill="#63b8ff" stroke="#63b8ff" points="239.42,-20.69 248.74,-15.65 238.31,-13.78 239.42,-20.69"/>
</a>
</g>
</g>
</g>
</svg>
