<?xml version="1.0" encoding="UTF-8" standalone="no"?>
<!DOCTYPE svg PUBLIC "-//W3C//DTD SVG 1.1//EN"
 "http://www.w3.org/Graphics/SVG/1.1/DTD/svg11.dtd">
<!-- Generated by graphviz version 12.2.1 (20241206.2353)
 -->
<!-- Title: HealthPotion Pages: 1 -->
<svg width="173pt" height="444pt"
 viewBox="0.00 0.00 173.00 444.00" xmlns="http://www.w3.org/2000/svg" xmlns:xlink="http://www.w3.org/1999/xlink">
<g id="graph0" class="graph" transform="scale(1 1) rotate(0) translate(4 440)">
<title>HealthPotion</title>
<!-- Node1 -->
<g id="Node000001" class="node">
<title>Node1</title>
<g id="a_Node000001"><a xlink:title="Health potions heal the player of course.">
<polygon fill="#999999" stroke="none" points="163.5,-68 1.5,-68 1.5,0 163.5,0 163.5,-68"/>
<text text-anchor="start" x="54.38" y="-54.5" font-family="Helvetica,sans-Serif" font-size="10.00">HealthPotion</text>
<text text-anchor="start" x="5.5" y="-38.5" font-family="Helvetica,sans-Serif" font-size="10.00">+</text>
<text text-anchor="start" x="15.5" y="-38.5" font-family="Helvetica,sans-Serif" font-size="10.00">static const int healAmount</text>
<text text-anchor="start" x="5.5" y="-22.5" font-family="Helvetica,sans-Serif" font-size="10.00">+</text>
<text text-anchor="start" x="15.5" y="-22.5" font-family="Helvetica,sans-Serif" font-size="10.00">HealthPotion(int c)</text>
<text text-anchor="start" x="5.5" y="-6.5" font-family="Helvetica,sans-Serif" font-size="10.00">+</text>
<text text-anchor="start" x="15.5" y="-6.5" font-family="Helvetica,sans-Serif" font-size="10.00">bool use(Player &amp;player) override</text>
<polygon fill="#666666" stroke="#666666" points="1.5,-50 1.5,-50 163.5,-50 163.5,-50 1.5,-50"/>
<polygon fill="#666666" stroke="#666666" points="1.5,-34 1.5,-34 13.5,-34 13.5,-34 1.5,-34"/>
<polygon fill="#666666" stroke="#666666" points="13.5,-34 13.5,-34 163.5,-34 163.5,-34 13.5,-34"/>
<polygon fill="none" stroke="#666666" points="1.5,0 1.5,-68 163.5,-68 163.5,0 1.5,0"/>
</a>
</g>
</g>
<!-- Node2 -->
<g id="Node000002" class="node">
<title>Node2</title>
<g id="a_Node000002"><a xlink:href="class_i_potion.html" target="_top" xlink:title="Potions set the type to &quot;Potion&quot;.">
<polygon fill="white" stroke="none" points="157.5,-156 7.5,-156 7.5,-104 157.5,-104 157.5,-156"/>
<text text-anchor="start" x="67.12" y="-142.5" font-family="Helvetica,sans-Serif" font-size="10.00">IPotion</text>
<text text-anchor="start" x="81" y="-126.5" font-family="Helvetica,sans-Serif" font-size="10.00"> </text>
<text text-anchor="start" x="11.5" y="-110.5" font-family="Helvetica,sans-Serif" font-size="10.00">+</text>
<text text-anchor="start" x="21.5" y="-110.5" font-family="Helvetica,sans-Serif" font-size="10.00">IPotion(string n, string d, int c)</text>
<polygon fill="#666666" stroke="#666666" points="7.5,-138 7.5,-138 157.5,-138 157.5,-138 7.5,-138"/>
<polygon fill="#666666" stroke="#666666" points="7.5,-122 7.5,-122 157.5,-122 157.5,-122 7.5,-122"/>
<polygon fill="none" stroke="#666666" points="7.5,-104 7.5,-156 157.5,-156 157.5,-104 7.5,-104"/>
</a>
</g>
</g>
<!-- Node2&#45;&gt;Node1 -->
<g id="edge1_Node000001_Node000002" class="edge">
<title>Node2&#45;&gt;Node1</title>
<g id="a_edge1_Node000001_Node000002"><a xlink:title=" ">
<path fill="none" stroke="#63b8ff" d="M82.5,-92.97C82.5,-84.65 82.5,-75.84 82.5,-67.67"/>
<polygon fill="none" stroke="#63b8ff" points="79,-92.79 82.5,-102.79 86,-92.79 79,-92.79"/>
</a>
</g>
</g>
<!-- Node3 -->
<g id="Node000003" class="node">
<title>Node3</title>
<g id="a_Node000003"><a xlink:href="class_i_player_item.html" target="_top" xlink:title="Player items. The use function takes in a player only.">
<polygon fill="white" stroke="none" points="165,-272 0,-272 0,-192 165,-192 165,-272"/>
<text text-anchor="start" x="57.38" y="-258.5" font-family="Helvetica,sans-Serif" font-size="10.00">IPlayerItem</text>
<text text-anchor="start" x="81" y="-242.5" font-family="Helvetica,sans-Serif" font-size="10.00"> </text>
<text text-anchor="start" x="4" y="-226.5" font-family="Helvetica,sans-Serif" font-size="10.00">+</text>
<text text-anchor="start" x="14" y="-226.5" font-family="Helvetica,sans-Serif" font-size="10.00">IPlayerItem(string n, string</text>
<text text-anchor="start" x="14" y="-214.5" font-family="Helvetica,sans-Serif" font-size="10.00"> t, string d, int c)</text>
<text text-anchor="start" x="4" y="-198.5" font-family="Helvetica,sans-Serif" font-size="10.00">+</text>
<text text-anchor="start" x="14" y="-198.5" font-family="Helvetica,sans-Serif" font-size="10.00">virtual bool use(Player &amp;player)=0</text>
<polygon fill="#666666" stroke="#666666" points="0,-254 0,-254 165,-254 165,-254 0,-254"/>
<polygon fill="#666666" stroke="#666666" points="0,-238 0,-238 165,-238 165,-238 0,-238"/>
<polygon fill="none" stroke="#666666" points="0,-192 0,-272 165,-272 165,-192 0,-192"/>
</a>
</g>
</g>
<!-- Node3&#45;&gt;Node2 -->
<g id="edge2_Node000002_Node000003" class="edge">
<title>Node3&#45;&gt;Node2</title>
<g id="a_edge2_Node000002_Node000003"><a xlink:title=" ">
<path fill="none" stroke="#63b8ff" d="M82.5,-180.75C82.5,-172.1 82.5,-163.45 82.5,-155.85"/>
<polygon fill="none" stroke="#63b8ff" points="79,-180.54 82.5,-190.54 86,-180.54 79,-180.54"/>
</a>
</g>
</g>
<!-- Node4 -->
<g id="Node000004" class="node">
<title>Node4</title>
<g id="a_Node000004"><a xlink:href="class_i_item.html" target="_top" xlink:title="Base class for all items in the game.">
<polygon fill="white" stroke="none" points="139.88,-436 25.12,-436 25.12,-308 139.88,-308 139.88,-436"/>
<text text-anchor="start" x="71.25" y="-422.5" font-family="Helvetica,sans-Serif" font-size="10.00">IItem</text>
<text text-anchor="start" x="29.12" y="-406.5" font-family="Helvetica,sans-Serif" font-size="10.00">+</text>
<text text-anchor="start" x="39.12" y="-406.5" font-family="Helvetica,sans-Serif" font-size="10.00">string name</text>
<text text-anchor="start" x="29.12" y="-390.5" font-family="Helvetica,sans-Serif" font-size="10.00">+</text>
<text text-anchor="start" x="39.12" y="-390.5" font-family="Helvetica,sans-Serif" font-size="10.00">string type</text>
<text text-anchor="start" x="29.12" y="-374.5" font-family="Helvetica,sans-Serif" font-size="10.00">+</text>
<text text-anchor="start" x="39.12" y="-374.5" font-family="Helvetica,sans-Serif" font-size="10.00">string desc</text>
<text text-anchor="start" x="29.12" y="-358.5" font-family="Helvetica,sans-Serif" font-size="10.00">+</text>
<text text-anchor="start" x="39.12" y="-358.5" font-family="Helvetica,sans-Serif" font-size="10.00">int count</text>
<text text-anchor="start" x="29.12" y="-342.5" font-family="Helvetica,sans-Serif" font-size="10.00">+</text>
<text text-anchor="start" x="39.12" y="-342.5" font-family="Helvetica,sans-Serif" font-size="10.00">IItem(string n, string t,</text>
<text text-anchor="start" x="39.12" y="-330.5" font-family="Helvetica,sans-Serif" font-size="10.00"> string d, int c)</text>
<text text-anchor="start" x="29.12" y="-314.5" font-family="Helvetica,sans-Serif" font-size="10.00">+</text>
<text text-anchor="start" x="39.12" y="-314.5" font-family="Helvetica,sans-Serif" font-size="10.00">virtual ~IItem()</text>
<polygon fill="#666666" stroke="#666666" points="25.12,-418 25.12,-418 139.88,-418 139.88,-418 25.12,-418"/>
<polygon fill="#666666" stroke="#666666" points="25.12,-354 25.12,-354 37.12,-354 37.12,-354 25.12,-354"/>
<polygon fill="#666666" stroke="#666666" points="37.12,-354 37.12,-354 139.88,-354 139.88,-354 37.12,-354"/>
<polygon fill="none" stroke="#666666" points="25.12,-308 25.12,-436 139.88,-436 139.88,-308 25.12,-308"/>
</a>
</g>
</g>
<!-- Node4&#45;&gt;Node3 -->
<g id="edge3_Node000003_Node000004" class="edge">
<title>Node4&#45;&gt;Node3</title>
<g id="a_edge3_Node000003_Node000004"><a xlink:title=" ">
<path fill="none" stroke="#63b8ff" d="M82.5,-296.72C82.5,-288.12 82.5,-279.62 82.5,-271.77"/>
<polygon fill="none" stroke="#63b8ff" points="79,-296.54 82.5,-306.54 86,-296.54 79,-296.54"/>
</a>
</g>
</g>
</g>
</svg>
