<?xml version="1.0" encoding="UTF-8" standalone="no"?>
<!DOCTYPE svg PUBLIC "-//W3C//DTD SVG 1.1//EN"
 "http://www.w3.org/Graphics/SVG/1.1/DTD/svg11.dtd">
<!-- Generated by graphviz version 12.2.1 (20241206.2353)
 -->
<!-- Title: UserInterface Pages: 1 -->
<svg width="1262pt" height="408pt"
 viewBox="0.00 0.00 1261.75 408.00" xmlns="http://www.w3.org/2000/svg" xmlns:xlink="http://www.w3.org/1999/xlink">
<g id="graph0" class="graph" transform="scale(1 1) rotate(0) translate(4 404)">
<title>UserInterface</title>
<!-- Node1 -->
<g id="Node000001" class="node">
<title>Node1</title>
<g id="a_Node000001"><a xlink:title="Base class for all user interfaces in the game.">
<polygon fill="#999999" stroke="none" points="560.25,-400 399.75,-400 399.75,-332 560.25,-332 560.25,-400"/>
<text text-anchor="start" x="450.38" y="-386.5" font-family="Helvetica,sans-Serif" font-size="10.00">UserInterface</text>
<text text-anchor="start" x="403.75" y="-370.5" font-family="Helvetica,sans-Serif" font-size="10.00">+</text>
<text text-anchor="start" x="413.75" y="-370.5" font-family="Helvetica,sans-Serif" font-size="10.00">bool quitGame</text>
<text text-anchor="start" x="403.75" y="-354.5" font-family="Helvetica,sans-Serif" font-size="10.00">+</text>
<text text-anchor="start" x="413.75" y="-354.5" font-family="Helvetica,sans-Serif" font-size="10.00">virtual UserInterface * render()=0</text>
<text text-anchor="start" x="403.75" y="-338.5" font-family="Helvetica,sans-Serif" font-size="10.00">+</text>
<text text-anchor="start" x="413.75" y="-338.5" font-family="Helvetica,sans-Serif" font-size="10.00">virtual ~UserInterface()</text>
<polygon fill="#666666" stroke="#666666" points="399.75,-382 399.75,-382 560.25,-382 560.25,-382 399.75,-382"/>
<polygon fill="#666666" stroke="#666666" points="399.75,-366 399.75,-366 411.75,-366 411.75,-366 399.75,-366"/>
<polygon fill="#666666" stroke="#666666" points="411.75,-366 411.75,-366 560.25,-366 560.25,-366 411.75,-366"/>
<polygon fill="none" stroke="#666666" points="399.75,-332 399.75,-400 560.25,-400 560.25,-332 399.75,-332"/>
</a>
</g>
</g>
<!-- Node2 -->
<g id="Node000002" class="node">
<title>Node2</title>
<g id="a_Node000002"><a xlink:href="class_game_over.html" target="_top" xlink:title="The game over screen. The user is sent back to the start menu after this.">
<polygon fill="white" stroke="none" points="382.75,-288 225.25,-288 225.25,-236 382.75,-236 382.75,-288"/>
<text text-anchor="start" x="280.38" y="-274.5" font-family="Helvetica,sans-Serif" font-size="10.00">GameOver</text>
<text text-anchor="start" x="302.5" y="-258.5" font-family="Helvetica,sans-Serif" font-size="10.00"> </text>
<text text-anchor="start" x="229.25" y="-242.5" font-family="Helvetica,sans-Serif" font-size="10.00">+</text>
<text text-anchor="start" x="239.25" y="-242.5" font-family="Helvetica,sans-Serif" font-size="10.00">UserInterface * render() override</text>
<polygon fill="#666666" stroke="#666666" points="225.25,-270 225.25,-270 382.75,-270 382.75,-270 225.25,-270"/>
<polygon fill="#666666" stroke="#666666" points="225.25,-254 225.25,-254 382.75,-254 382.75,-254 225.25,-254"/>
<polygon fill="none" stroke="#666666" points="225.25,-236 225.25,-288 382.75,-288 382.75,-236 225.25,-236"/>
</a>
</g>
</g>
<!-- Node1&#45;&gt;Node2 -->
<g id="edge1_Node000001_Node000002" class="edge">
<title>Node1&#45;&gt;Node2</title>
<g id="a_edge1_Node000001_Node000002"><a xlink:title=" ">
<path fill="none" stroke="#63b8ff" d="M413.57,-326.5C391.23,-313.55 366.91,-299.46 346.87,-287.84"/>
<polygon fill="none" stroke="#63b8ff" points="411.63,-329.42 422.03,-331.41 415.14,-323.36 411.63,-329.42"/>
</a>
</g>
</g>
<!-- Node3 -->
<g id="Node000003" class="node">
<title>Node3</title>
<g id="a_Node000003"><a xlink:href="class_start_menu.html" target="_top" xlink:title="The first menu the user sees when they start the game.">
<polygon fill="white" stroke="none" points="558.75,-288 401.25,-288 401.25,-236 558.75,-236 558.75,-288"/>
<text text-anchor="start" x="457.5" y="-274.5" font-family="Helvetica,sans-Serif" font-size="10.00">StartMenu</text>
<text text-anchor="start" x="478.5" y="-258.5" font-family="Helvetica,sans-Serif" font-size="10.00"> </text>
<text text-anchor="start" x="405.25" y="-242.5" font-family="Helvetica,sans-Serif" font-size="10.00">+</text>
<text text-anchor="start" x="415.25" y="-242.5" font-family="Helvetica,sans-Serif" font-size="10.00">UserInterface * render() override</text>
<polygon fill="#666666" stroke="#666666" points="401.25,-270 401.25,-270 558.75,-270 558.75,-270 401.25,-270"/>
<polygon fill="#666666" stroke="#666666" points="401.25,-254 401.25,-254 558.75,-254 558.75,-254 401.25,-254"/>
<polygon fill="none" stroke="#666666" points="401.25,-236 401.25,-288 558.75,-288 558.75,-236 401.25,-236"/>
</a>
</g>
</g>
<!-- Node1&#45;&gt;Node3 -->
<g id="edge2_Node000001_Node000003" class="edge">
<title>Node1&#45;&gt;Node3</title>
<g id="a_edge2_Node000001_Node000003"><a xlink:title=" ">
<path fill="none" stroke="#63b8ff" d="M480,-321C480,-309.59 480,-297.7 480,-287.68"/>
<polygon fill="none" stroke="#63b8ff" points="476.5,-320.65 480,-330.65 483.5,-320.65 476.5,-320.65"/>
</a>
</g>
</g>
<!-- Node4 -->
<g id="Node000004" class="node">
<title>Node4</title>
<g id="a_Node000004"><a xlink:href="class_u_i_with_player.html" target="_top" xlink:title="Basically just the base class for all user interfaces that have a player.">
<polygon fill="white" stroke="none" points="716.75,-296 577.25,-296 577.25,-228 716.75,-228 716.75,-296"/>
<text text-anchor="start" x="617.75" y="-282.5" font-family="Helvetica,sans-Serif" font-size="10.00">UIWithPlayer</text>
<text text-anchor="start" x="581.25" y="-266.5" font-family="Helvetica,sans-Serif" font-size="10.00">+</text>
<text text-anchor="start" x="591.25" y="-266.5" font-family="Helvetica,sans-Serif" font-size="10.00">Player player</text>
<text text-anchor="start" x="581.25" y="-250.5" font-family="Helvetica,sans-Serif" font-size="10.00">+</text>
<text text-anchor="start" x="591.25" y="-250.5" font-family="Helvetica,sans-Serif" font-size="10.00">UIWithPlayer()</text>
<text text-anchor="start" x="581.25" y="-234.5" font-family="Helvetica,sans-Serif" font-size="10.00">+</text>
<text text-anchor="start" x="591.25" y="-234.5" font-family="Helvetica,sans-Serif" font-size="10.00">UIWithPlayer(Player player)</text>
<polygon fill="#666666" stroke="#666666" points="577.25,-278 577.25,-278 716.75,-278 716.75,-278 577.25,-278"/>
<polygon fill="#666666" stroke="#666666" points="577.25,-262 577.25,-262 589.25,-262 589.25,-262 577.25,-262"/>
<polygon fill="#666666" stroke="#666666" points="589.25,-262 589.25,-262 716.75,-262 716.75,-262 589.25,-262"/>
<polygon fill="none" stroke="#666666" points="577.25,-228 577.25,-296 716.75,-296 716.75,-228 577.25,-228"/>
</a>
</g>
</g>
<!-- Node1&#45;&gt;Node4 -->
<g id="edge3_Node000001_Node000004" class="edge">
<title>Node1&#45;&gt;Node4</title>
<g id="a_edge3_Node000001_Node000004"><a xlink:title=" ">
<path fill="none" stroke="#63b8ff" d="M543.27,-326.36C559.67,-316.34 577.18,-305.64 593.06,-295.95"/>
<polygon fill="none" stroke="#63b8ff" points="541.76,-323.18 535.05,-331.38 545.41,-329.15 541.76,-323.18"/>
</a>
</g>
</g>
<!-- Node5 -->
<g id="Node000005" class="node">
<title>Node5</title>
<g id="a_Node000005"><a xlink:href="class_battle.html" target="_top" xlink:title="The battle screen. The user can attack, use an item, or run away.">
<polygon fill="white" stroke="none" points="198,-192 0,-192 0,0 198,0 198,-192"/>
<text text-anchor="start" x="86.25" y="-178.5" font-family="Helvetica,sans-Serif" font-size="10.00">Battle</text>
<text text-anchor="start" x="4" y="-162.5" font-family="Helvetica,sans-Serif" font-size="10.00">+</text>
<text text-anchor="start" x="14" y="-162.5" font-family="Helvetica,sans-Serif" font-size="10.00">Entity enemy</text>
<text text-anchor="start" x="4" y="-146.5" font-family="Helvetica,sans-Serif" font-size="10.00">+</text>
<text text-anchor="start" x="14" y="-146.5" font-family="Helvetica,sans-Serif" font-size="10.00">bool didIntro</text>
<text text-anchor="start" x="4" y="-130.5" font-family="Helvetica,sans-Serif" font-size="10.00">+</text>
<text text-anchor="start" x="14" y="-130.5" font-family="Helvetica,sans-Serif" font-size="10.00">int rewardMoney</text>
<text text-anchor="start" x="4" y="-114.5" font-family="Helvetica,sans-Serif" font-size="10.00">+</text>
<text text-anchor="start" x="14" y="-114.5" font-family="Helvetica,sans-Serif" font-size="10.00">function&lt; UserInterface *(Player)&gt; onWin</text>
<text text-anchor="start" x="4" y="-98.5" font-family="Helvetica,sans-Serif" font-size="10.00">+</text>
<text text-anchor="start" x="14" y="-98.5" font-family="Helvetica,sans-Serif" font-size="10.00">function&lt; UserInterface *(Player)</text>
<text text-anchor="start" x="14" y="-86.5" font-family="Helvetica,sans-Serif" font-size="10.00">&gt; onLose</text>
<text text-anchor="start" x="4" y="-70.5" font-family="Helvetica,sans-Serif" font-size="10.00">+</text>
<text text-anchor="start" x="14" y="-70.5" font-family="Helvetica,sans-Serif" font-size="10.00">Battle(Player player, Entity</text>
<text text-anchor="start" x="14" y="-58.5" font-family="Helvetica,sans-Serif" font-size="10.00"> enemy, int reward, function</text>
<text text-anchor="start" x="14" y="-46.5" font-family="Helvetica,sans-Serif" font-size="10.00">&lt; UserInterface *(Player)&gt; winCallback,</text>
<text text-anchor="start" x="14" y="-34.5" font-family="Helvetica,sans-Serif" font-size="10.00"> function&lt; UserInterface *(Player)&gt;</text>
<text text-anchor="start" x="14" y="-22.5" font-family="Helvetica,sans-Serif" font-size="10.00"> loseCallback)</text>
<text text-anchor="start" x="4" y="-6.5" font-family="Helvetica,sans-Serif" font-size="10.00">+</text>
<text text-anchor="start" x="14" y="-6.5" font-family="Helvetica,sans-Serif" font-size="10.00">UserInterface * render() override</text>
<polygon fill="#666666" stroke="#666666" points="0,-174 0,-174 198,-174 198,-174 0,-174"/>
<polygon fill="#666666" stroke="#666666" points="0,-82 0,-82 12,-82 12,-82 0,-82"/>
<polygon fill="#666666" stroke="#666666" points="12,-82 12,-82 198,-82 198,-82 12,-82"/>
<polygon fill="none" stroke="#666666" points="0,0 0,-192 198,-192 198,0 0,0"/>
</a>
</g>
</g>
<!-- Node4&#45;&gt;Node5 -->
<g id="edge4_Node000004_Node000005" class="edge">
<title>Node4&#45;&gt;Node5</title>
<g id="a_edge4_Node000004_Node000005"><a xlink:title=" ">
<path fill="none" stroke="#63b8ff" d="M566.58,-228.02C409.08,-191.47 351.53,-254.89 207,-192 203.91,-190.65 200.84,-189.19 197.81,-187.61"/>
<polygon fill="none" stroke="#63b8ff" points="565.58,-231.38 576.13,-230.34 567.24,-224.58 565.58,-231.38"/>
</a>
</g>
</g>
<!-- Node6 -->
<g id="Node000006" class="node">
<title>Node6</title>
<g id="a_Node000006"><a xlink:href="class_first_choice.html" target="_top" xlink:title="The part after the player meets the mysterious stranger.">
<polygon fill="white" stroke="none" points="373.75,-130 216.25,-130 216.25,-62 373.75,-62 373.75,-130"/>
<text text-anchor="start" x="269.88" y="-116.5" font-family="Helvetica,sans-Serif" font-size="10.00">FirstChoice</text>
<text text-anchor="start" x="220.25" y="-100.5" font-family="Helvetica,sans-Serif" font-size="10.00">+</text>
<text text-anchor="start" x="230.25" y="-100.5" font-family="Helvetica,sans-Serif" font-size="10.00">list&lt; string &gt; stayResps</text>
<text text-anchor="start" x="220.25" y="-84.5" font-family="Helvetica,sans-Serif" font-size="10.00">+</text>
<text text-anchor="start" x="230.25" y="-84.5" font-family="Helvetica,sans-Serif" font-size="10.00">FirstChoice(Player player)</text>
<text text-anchor="start" x="220.25" y="-68.5" font-family="Helvetica,sans-Serif" font-size="10.00">+</text>
<text text-anchor="start" x="230.25" y="-68.5" font-family="Helvetica,sans-Serif" font-size="10.00">UserInterface * render() override</text>
<polygon fill="#666666" stroke="#666666" points="216.25,-112 216.25,-112 373.75,-112 373.75,-112 216.25,-112"/>
<polygon fill="#666666" stroke="#666666" points="216.25,-96 216.25,-96 228.25,-96 228.25,-96 216.25,-96"/>
<polygon fill="#666666" stroke="#666666" points="228.25,-96 228.25,-96 373.75,-96 373.75,-96 228.25,-96"/>
<polygon fill="none" stroke="#666666" points="216.25,-62 216.25,-130 373.75,-130 373.75,-62 216.25,-62"/>
</a>
</g>
</g>
<!-- Node4&#45;&gt;Node6 -->
<g id="edge5_Node000004_Node000006" class="edge">
<title>Node4&#45;&gt;Node6</title>
<g id="a_edge5_Node000004_Node000006"><a xlink:title=" ">
<path fill="none" stroke="#63b8ff" d="M566.75,-227.98C485.16,-205.99 453.19,-231.07 383,-192 356.09,-177.02 332.78,-150.87 316.92,-129.79"/>
<polygon fill="none" stroke="#63b8ff" points="565.46,-231.25 576.04,-230.65 567.4,-224.52 565.46,-231.25"/>
</a>
</g>
</g>
<!-- Node7 -->
<g id="Node000007" class="node">
<title>Node7</title>
<g id="a_Node000007"><a xlink:href="class_gamble_menu.html" target="_top" xlink:title="The menu for gambling. The user can win a legendary sword or nothing.">
<polygon fill="white" stroke="none" points="549.75,-130 392.25,-130 392.25,-62 549.75,-62 549.75,-130"/>
<text text-anchor="start" x="442.12" y="-116.5" font-family="Helvetica,sans-Serif" font-size="10.00">GambleMenu</text>
<text text-anchor="start" x="469.5" y="-100.5" font-family="Helvetica,sans-Serif" font-size="10.00"> </text>
<text text-anchor="start" x="396.25" y="-84.5" font-family="Helvetica,sans-Serif" font-size="10.00">+</text>
<text text-anchor="start" x="406.25" y="-84.5" font-family="Helvetica,sans-Serif" font-size="10.00">GambleMenu(Player player)</text>
<text text-anchor="start" x="396.25" y="-68.5" font-family="Helvetica,sans-Serif" font-size="10.00">+</text>
<text text-anchor="start" x="406.25" y="-68.5" font-family="Helvetica,sans-Serif" font-size="10.00">UserInterface * render() override</text>
<polygon fill="#666666" stroke="#666666" points="392.25,-112 392.25,-112 549.75,-112 549.75,-112 392.25,-112"/>
<polygon fill="#666666" stroke="#666666" points="392.25,-96 392.25,-96 549.75,-96 549.75,-96 392.25,-96"/>
<polygon fill="none" stroke="#666666" points="392.25,-62 392.25,-130 549.75,-130 549.75,-62 392.25,-62"/>
</a>
</g>
</g>
<!-- Node4&#45;&gt;Node7 -->
<g id="edge6_Node000004_Node000007" class="edge">
<title>Node4&#45;&gt;Node7</title>
<g id="a_edge6_Node000004_Node000007"><a xlink:title=" ">
<path fill="none" stroke="#63b8ff" d="M593.62,-221.35C581.92,-212.06 569.81,-201.96 559,-192 537.83,-172.51 515.83,-148.76 499.12,-129.88"/>
<polygon fill="none" stroke="#63b8ff" points="591.24,-223.93 601.27,-227.35 595.56,-218.42 591.24,-223.93"/>
</a>
</g>
</g>
<!-- Node8 -->
<g id="Node000008" class="node">
<title>Node8</title>
<g id="a_Node000008"><a xlink:href="class_intro_dialogue.html" target="_top" xlink:title="The intro dialogue. The player can choose their name and get a cool stick.">
<polygon fill="white" stroke="none" points="725.75,-122 568.25,-122 568.25,-70 725.75,-70 725.75,-122"/>
<text text-anchor="start" x="618.12" y="-108.5" font-family="Helvetica,sans-Serif" font-size="10.00">IntroDialogue</text>
<text text-anchor="start" x="645.5" y="-92.5" font-family="Helvetica,sans-Serif" font-size="10.00"> </text>
<text text-anchor="start" x="572.25" y="-76.5" font-family="Helvetica,sans-Serif" font-size="10.00">+</text>
<text text-anchor="start" x="582.25" y="-76.5" font-family="Helvetica,sans-Serif" font-size="10.00">UserInterface * render() override</text>
<polygon fill="#666666" stroke="#666666" points="568.25,-104 568.25,-104 725.75,-104 725.75,-104 568.25,-104"/>
<polygon fill="#666666" stroke="#666666" points="568.25,-88 568.25,-88 725.75,-88 725.75,-88 568.25,-88"/>
<polygon fill="none" stroke="#666666" points="568.25,-70 568.25,-122 725.75,-122 725.75,-70 568.25,-70"/>
</a>
</g>
</g>
<!-- Node4&#45;&gt;Node8 -->
<g id="edge7_Node000004_Node000008" class="edge">
<title>Node4&#45;&gt;Node8</title>
<g id="a_edge7_Node000004_Node000008"><a xlink:title=" ">
<path fill="none" stroke="#63b8ff" d="M647,-217.03C647,-186.59 647,-147.17 647,-121.97"/>
<polygon fill="none" stroke="#63b8ff" points="643.5,-216.69 647,-226.69 650.5,-216.69 643.5,-216.69"/>
</a>
</g>
</g>
<!-- Node9 -->
<g id="Node000009" class="node">
<title>Node9</title>
<g id="a_Node000009"><a xlink:href="class_jovial_aftermath.html" target="_top" xlink:title="The cutscene after the player wins the Jovial fight.">
<polygon fill="white" stroke="none" points="901.75,-136 744.25,-136 744.25,-56 901.75,-56 901.75,-136"/>
<text text-anchor="start" x="788.88" y="-122.5" font-family="Helvetica,sans-Serif" font-size="10.00">JovialAftermath</text>
<text text-anchor="start" x="748.25" y="-106.5" font-family="Helvetica,sans-Serif" font-size="10.00">+</text>
<text text-anchor="start" x="758.25" y="-106.5" font-family="Helvetica,sans-Serif" font-size="10.00">string battleStatus</text>
<text text-anchor="start" x="748.25" y="-90.5" font-family="Helvetica,sans-Serif" font-size="10.00">+</text>
<text text-anchor="start" x="758.25" y="-90.5" font-family="Helvetica,sans-Serif" font-size="10.00">JovialAftermath(Player player,</text>
<text text-anchor="start" x="758.25" y="-78.5" font-family="Helvetica,sans-Serif" font-size="10.00"> string bs)</text>
<text text-anchor="start" x="748.25" y="-62.5" font-family="Helvetica,sans-Serif" font-size="10.00">+</text>
<text text-anchor="start" x="758.25" y="-62.5" font-family="Helvetica,sans-Serif" font-size="10.00">UserInterface * render() override</text>
<polygon fill="#666666" stroke="#666666" points="744.25,-118 744.25,-118 901.75,-118 901.75,-118 744.25,-118"/>
<polygon fill="#666666" stroke="#666666" points="744.25,-102 744.25,-102 756.25,-102 756.25,-102 744.25,-102"/>
<polygon fill="#666666" stroke="#666666" points="756.25,-102 756.25,-102 901.75,-102 901.75,-102 756.25,-102"/>
<polygon fill="none" stroke="#666666" points="744.25,-56 744.25,-136 901.75,-136 901.75,-56 744.25,-56"/>
</a>
</g>
</g>
<!-- Node4&#45;&gt;Node9 -->
<g id="edge8_Node000004_Node000009" class="edge">
<title>Node4&#45;&gt;Node9</title>
<g id="a_edge8_Node000004_Node000009"><a xlink:title=" ">
<path fill="none" stroke="#63b8ff" d="M700.38,-221.35C712.08,-212.06 724.19,-201.96 735,-192 754.02,-174.49 773.71,-153.54 789.63,-135.77"/>
<polygon fill="none" stroke="#63b8ff" points="698.44,-218.42 692.73,-227.35 702.76,-223.93 698.44,-218.42"/>
</a>
</g>
</g>
<!-- Node10 -->
<g id="Node000010" class="node">
<title>Node10</title>
<g id="a_Node000010"><a xlink:href="class_jovial_cutscene.html" target="_top" xlink:title="The cutscene before the player fights Jovial.">
<polygon fill="white" stroke="none" points="1077.75,-130 920.25,-130 920.25,-62 1077.75,-62 1077.75,-130"/>
<text text-anchor="start" x="965.25" y="-116.5" font-family="Helvetica,sans-Serif" font-size="10.00">JovialCutscene</text>
<text text-anchor="start" x="997.5" y="-100.5" font-family="Helvetica,sans-Serif" font-size="10.00"> </text>
<text text-anchor="start" x="924.25" y="-84.5" font-family="Helvetica,sans-Serif" font-size="10.00">+</text>
<text text-anchor="start" x="934.25" y="-84.5" font-family="Helvetica,sans-Serif" font-size="10.00">JovialCutscene(Player player)</text>
<text text-anchor="start" x="924.25" y="-68.5" font-family="Helvetica,sans-Serif" font-size="10.00">+</text>
<text text-anchor="start" x="934.25" y="-68.5" font-family="Helvetica,sans-Serif" font-size="10.00">UserInterface * render() override</text>
<polygon fill="#666666" stroke="#666666" points="920.25,-112 920.25,-112 1077.75,-112 1077.75,-112 920.25,-112"/>
<polygon fill="#666666" stroke="#666666" points="920.25,-96 920.25,-96 1077.75,-96 1077.75,-96 920.25,-96"/>
<polygon fill="none" stroke="#666666" points="920.25,-62 920.25,-130 1077.75,-130 1077.75,-62 920.25,-62"/>
</a>
</g>
</g>
<!-- Node4&#45;&gt;Node10 -->
<g id="edge9_Node000004_Node000010" class="edge">
<title>Node4&#45;&gt;Node10</title>
<g id="a_edge9_Node000004_Node000010"><a xlink:title=" ">
<path fill="none" stroke="#63b8ff" d="M727.54,-251.99C782.34,-243.07 854.82,-225.65 911,-192 937.23,-176.29 960.43,-150.46 976.41,-129.7"/>
<polygon fill="none" stroke="#63b8ff" points="727.32,-248.48 717.98,-253.48 728.4,-255.4 727.32,-248.48"/>
</a>
</g>
</g>
<!-- Node11 -->
<g id="Node000011" class="node">
<title>Node11</title>
<g id="a_Node000011"><a xlink:href="class_main_menu.html" target="_top" xlink:title="The main menu after all the cutscenes and stuff.">
<polygon fill="white" stroke="none" points="1253.75,-130 1096.25,-130 1096.25,-62 1253.75,-62 1253.75,-130"/>
<text text-anchor="start" x="1152.5" y="-116.5" font-family="Helvetica,sans-Serif" font-size="10.00">MainMenu</text>
<text text-anchor="start" x="1173.5" y="-100.5" font-family="Helvetica,sans-Serif" font-size="10.00"> </text>
<text text-anchor="start" x="1100.25" y="-84.5" font-family="Helvetica,sans-Serif" font-size="10.00">+</text>
<text text-anchor="start" x="1110.25" y="-84.5" font-family="Helvetica,sans-Serif" font-size="10.00">MainMenu(Player player)</text>
<text text-anchor="start" x="1100.25" y="-68.5" font-family="Helvetica,sans-Serif" font-size="10.00">+</text>
<text text-anchor="start" x="1110.25" y="-68.5" font-family="Helvetica,sans-Serif" font-size="10.00">UserInterface * render() override</text>
<polygon fill="#666666" stroke="#666666" points="1096.25,-112 1096.25,-112 1253.75,-112 1253.75,-112 1096.25,-112"/>
<polygon fill="#666666" stroke="#666666" points="1096.25,-96 1096.25,-96 1253.75,-96 1253.75,-96 1096.25,-96"/>
<polygon fill="none" stroke="#666666" points="1096.25,-62 1096.25,-130 1253.75,-130 1253.75,-62 1096.25,-62"/>
</a>
</g>
</g>
<!-- Node4&#45;&gt;Node11 -->
<g id="edge10_Node000004_Node000011" class="edge">
<title>Node4&#45;&gt;Node11</title>
<g id="a_edge10_Node000004_Node000011"><a xlink:title=" ">
<path fill="none" stroke="#63b8ff" d="M727.82,-254.69C837.37,-245.07 1026.28,-224.35 1087,-192 1114.38,-177.41 1137.81,-150.94 1153.6,-129.65"/>
<polygon fill="none" stroke="#63b8ff" points="727.67,-251.19 718.01,-255.54 728.27,-258.17 727.67,-251.19"/>
</a>
</g>
</g>
</g>
</svg>
