<?xml version="1.0" encoding="UTF-8" standalone="no"?>
<!DOCTYPE svg PUBLIC "-//W3C//DTD SVG 1.1//EN"
 "http://www.w3.org/Graphics/SVG/1.1/DTD/svg11.dtd">
<!-- Generated by graphviz version 12.2.1 (20241206.2353)
 -->
<!-- Title: Entity Pages: 1 -->
<svg width="171pt" height="312pt"
 viewBox="0.00 0.00 170.75 312.00" xmlns="http://www.w3.org/2000/svg" xmlns:xlink="http://www.w3.org/1999/xlink">

<svg id="main" version="1.1" xmlns="http://www.w3.org/2000/svg" xmlns:xlink="http://www.w3.org/1999/xlink" xml:space="preserve">

<style type="text/css"><![CDATA[
.node, .edge {opacity: 0.7;}
.node.selected, .edge.selected {opacity: 1;}
.edge:hover path { stroke: red; }
.edge:hover polygon { stroke: red; fill: red; }
]]></style>
<script type="application/ecmascript" xlink:href="svg.min.js"/>
<svg id="graph" class="graph">
<g id="graph0" class="graph" transform="scale(1 1) rotate(0) translate(4 308)">
<title>Entity</title>
<!-- Node1 -->
<g id="Node000001" class="node">
<title>Node1</title>
<g id="a_Node000001"><a xlink:title="Base class for all entities in the game. This includes the player and enemies.">
<polygon fill="#999999" stroke="none" points="147.38,-304 15.38,-304 15.38,-148 147.38,-148 147.38,-304"/>
<text text-anchor="start" x="68.62" y="-290.5" font-family="Helvetica,sans-Serif" font-size="10.00">Entity</text>
<text text-anchor="start" x="19.38" y="-274.5" font-family="Helvetica,sans-Serif" font-size="10.00">+</text>
<text text-anchor="start" x="29.38" y="-274.5" font-family="Helvetica,sans-Serif" font-size="10.00">int maxHealth</text>
<text text-anchor="start" x="19.38" y="-258.5" font-family="Helvetica,sans-Serif" font-size="10.00">+</text>
<text text-anchor="start" x="29.38" y="-258.5" font-family="Helvetica,sans-Serif" font-size="10.00">int currHealth</text>
<text text-anchor="start" x="19.38" y="-242.5" font-family="Helvetica,sans-Serif" font-size="10.00">+</text>
<text text-anchor="start" x="29.38" y="-242.5" font-family="Helvetica,sans-Serif" font-size="10.00">Stats stats</text>
<text text-anchor="start" x="19.38" y="-226.5" font-family="Helvetica,sans-Serif" font-size="10.00">+</text>
<text text-anchor="start" x="29.38" y="-226.5" font-family="Helvetica,sans-Serif" font-size="10.00">string name</text>
<text text-anchor="start" x="19.38" y="-210.5" font-family="Helvetica,sans-Serif" font-size="10.00">+</text>
<text text-anchor="start" x="29.38" y="-210.5" font-family="Helvetica,sans-Serif" font-size="10.00">Entity(int health, string</text>
<text text-anchor="start" x="29.38" y="-198.5" font-family="Helvetica,sans-Serif" font-size="10.00"> name, int atk, int def)</text>
<text text-anchor="start" x="19.38" y="-182.5" font-family="Helvetica,sans-Serif" font-size="10.00">+</text>
<text text-anchor="start" x="29.38" y="-182.5" font-family="Helvetica,sans-Serif" font-size="10.00">virtual ~Entity()</text>
<text text-anchor="start" x="19.38" y="-166.5" font-family="Helvetica,sans-Serif" font-size="10.00">+</text>
<text text-anchor="start" x="29.38" y="-166.5" font-family="Helvetica,sans-Serif" font-size="10.00">void attack(Entity &amp;target,</text>
<text text-anchor="start" x="29.38" y="-154.5" font-family="Helvetica,sans-Serif" font-size="10.00"> int extraDmg=0)</text>
<polygon fill="#666666" stroke="#666666" points="15.38,-286 15.38,-286 147.38,-286 147.38,-286 15.38,-286"/>
<polygon fill="#666666" stroke="#666666" points="15.38,-222 15.38,-222 27.38,-222 27.38,-222 15.38,-222"/>
<polygon fill="#666666" stroke="#666666" points="27.38,-222 27.38,-222 147.38,-222 147.38,-222 27.38,-222"/>
<polygon fill="none" stroke="#666666" points="15.38,-148 15.38,-304 147.38,-304 147.38,-148 15.38,-148"/>
</a>
</g>
</g>
<!-- Node2 -->
<g id="Node000002" class="node">
<title>Node2</title>
<g id="a_Node000002"><a xlink:href="class_player.html" target="_top" xlink:title="The Player class is an Entity that has an inventory and money.">
<polygon fill="white" stroke="none" points="162.75,-112 0,-112 0,0 162.75,0 162.75,-112"/>
<text text-anchor="start" x="67.5" y="-98.5" font-family="Helvetica,sans-Serif" font-size="10.00">Player</text>
<text text-anchor="start" x="4" y="-82.5" font-family="Helvetica,sans-Serif" font-size="10.00">+</text>
<text text-anchor="start" x="14" y="-82.5" font-family="Helvetica,sans-Serif" font-size="10.00">Inventory inventory</text>
<text text-anchor="start" x="4" y="-66.5" font-family="Helvetica,sans-Serif" font-size="10.00">+</text>
<text text-anchor="start" x="14" y="-66.5" font-family="Helvetica,sans-Serif" font-size="10.00">int money</text>
<text text-anchor="start" x="4" y="-50.5" font-family="Helvetica,sans-Serif" font-size="10.00">+</text>
<text text-anchor="start" x="14" y="-50.5" font-family="Helvetica,sans-Serif" font-size="10.00">Player()</text>
<text text-anchor="start" x="4" y="-34.5" font-family="Helvetica,sans-Serif" font-size="10.00">+</text>
<text text-anchor="start" x="14" y="-34.5" font-family="Helvetica,sans-Serif" font-size="10.00">Player(int health, string</text>
<text text-anchor="start" x="14" y="-22.5" font-family="Helvetica,sans-Serif" font-size="10.00"> name, int atk, int def, int money)</text>
<text text-anchor="start" x="4" y="-6.5" font-family="Helvetica,sans-Serif" font-size="10.00">+</text>
<text text-anchor="start" x="14" y="-6.5" font-family="Helvetica,sans-Serif" font-size="10.00">void addMoney(int amount)</text>
<polygon fill="#666666" stroke="#666666" points="0,-94 0,-94 162.75,-94 162.75,-94 0,-94"/>
<polygon fill="#666666" stroke="#666666" points="0,-62 0,-62 12,-62 12,-62 0,-62"/>
<polygon fill="#666666" stroke="#666666" points="12,-62 12,-62 162.75,-62 162.75,-62 12,-62"/>
<polygon fill="none" stroke="#666666" points="0,0 0,-112 162.75,-112 162.75,0 0,0"/>
</a>
</g>
</g>
<!-- Node1&#45;&gt;Node2 -->
<g id="edge1_Node000001_Node000002" class="edge">
<title>Node1&#45;&gt;Node2</title>
<g id="a_edge1_Node000001_Node000002"><a xlink:title=" ">
<path fill="none" stroke="#63b8ff" d="M81.38,-137.11C81.38,-128.55 81.38,-120.04 81.38,-111.93"/>
<polygon fill="none" stroke="#63b8ff" points="77.88,-136.86 81.38,-146.86 84.88,-136.86 77.88,-136.86"/>
</a>
</g>
</g>
</g>
</svg>
</svg>

<style type='text/css'>
<![CDATA[
[data-mouse-over-selected='false'] { opacity: 0.7; }
[data-mouse-over-selected='true']  { opacity: 1.0; }
]]>
</style>
<script type="application/ecmascript"><![CDATA[
document.addEventListener('DOMContentLoaded', (event) => {
  highlightEdges();
  highlightAdjacentNodes();
});
]]></script>
</svg>
