<?xml version="1.0" encoding="UTF-8" standalone="no"?>
<!DOCTYPE svg PUBLIC "-//W3C//DTD SVG 1.1//EN"
 "http://www.w3.org/Graphics/SVG/1.1/DTD/svg11.dtd">
<!-- Generated by graphviz version 12.2.1 (20241206.2353)
 -->
<!-- Title: JovialAftermath Pages: 1 -->
<svg width="169pt" height="296pt"
 viewBox="0.00 0.00 168.50 296.00" xmlns="http://www.w3.org/2000/svg" xmlns:xlink="http://www.w3.org/1999/xlink">
<g id="graph0" class="graph" transform="scale(1 1) rotate(0) translate(4 292)">
<title>JovialAftermath</title>
<!-- Node1 -->
<g id="Node000001" class="node">
<title>Node1</title>
<g id="a_Node000001"><a xlink:title="The cutscene after the player wins the Jovial fight.">
<polygon fill="#999999" stroke="none" points="159,-80 1.5,-80 1.5,0 159,0 159,-80"/>
<text text-anchor="start" x="46.12" y="-66.5" font-family="Helvetica,sans-Serif" font-size="10.00">JovialAftermath</text>
<text text-anchor="start" x="5.5" y="-50.5" font-family="Helvetica,sans-Serif" font-size="10.00">+</text>
<text text-anchor="start" x="15.5" y="-50.5" font-family="Helvetica,sans-Serif" font-size="10.00">string battleStatus</text>
<text text-anchor="start" x="5.5" y="-34.5" font-family="Helvetica,sans-Serif" font-size="10.00">+</text>
<text text-anchor="start" x="15.5" y="-34.5" font-family="Helvetica,sans-Serif" font-size="10.00">JovialAftermath(Player player,</text>
<text text-anchor="start" x="15.5" y="-22.5" font-family="Helvetica,sans-Serif" font-size="10.00"> string bs)</text>
<text text-anchor="start" x="5.5" y="-6.5" font-family="Helvetica,sans-Serif" font-size="10.00">+</text>
<text text-anchor="start" x="15.5" y="-6.5" font-family="Helvetica,sans-Serif" font-size="10.00">UserInterface * render() override</text>
<polygon fill="#666666" stroke="#666666" points="1.5,-62 1.5,-62 159,-62 159,-62 1.5,-62"/>
<polygon fill="#666666" stroke="#666666" points="1.5,-46 1.5,-46 13.5,-46 13.5,-46 1.5,-46"/>
<polygon fill="#666666" stroke="#666666" points="13.5,-46 13.5,-46 159,-46 159,-46 13.5,-46"/>
<polygon fill="none" stroke="#666666" points="1.5,0 1.5,-80 159,-80 159,0 1.5,0"/>
</a>
</g>
</g>
<!-- Node2 -->
<g id="Node000002" class="node">
<title>Node2</title>
<g id="a_Node000002"><a xlink:href="class_u_i_with_player.html" target="_top" xlink:title="Basically just the base class for all user interfaces that have a player.">
<polygon fill="white" stroke="none" points="150,-184 10.5,-184 10.5,-116 150,-116 150,-184"/>
<text text-anchor="start" x="51" y="-170.5" font-family="Helvetica,sans-Serif" font-size="10.00">UIWithPlayer</text>
<text text-anchor="start" x="14.88" y="-154.5" font-family="Helvetica,sans-Serif" font-size="10.00">#</text>
<text text-anchor="start" x="24.5" y="-154.5" font-family="Helvetica,sans-Serif" font-size="10.00">Player player</text>
<text text-anchor="start" x="14.5" y="-138.5" font-family="Helvetica,sans-Serif" font-size="10.00">+</text>
<text text-anchor="start" x="24.5" y="-138.5" font-family="Helvetica,sans-Serif" font-size="10.00">UIWithPlayer()</text>
<text text-anchor="start" x="14.5" y="-122.5" font-family="Helvetica,sans-Serif" font-size="10.00">+</text>
<text text-anchor="start" x="24.5" y="-122.5" font-family="Helvetica,sans-Serif" font-size="10.00">UIWithPlayer(Player player)</text>
<polygon fill="#666666" stroke="#666666" points="10.5,-166 10.5,-166 150,-166 150,-166 10.5,-166"/>
<polygon fill="#666666" stroke="#666666" points="10.5,-150 10.5,-150 22.5,-150 22.5,-150 10.5,-150"/>
<polygon fill="#666666" stroke="#666666" points="22.5,-150 22.5,-150 150,-150 150,-150 22.5,-150"/>
<polygon fill="none" stroke="#666666" points="10.5,-116 10.5,-184 150,-184 150,-116 10.5,-116"/>
</a>
</g>
</g>
<!-- Node2&#45;&gt;Node1 -->
<g id="edge1_Node000001_Node000002" class="edge">
<title>Node2&#45;&gt;Node1</title>
<g id="a_edge1_Node000001_Node000002"><a xlink:title=" ">
<path fill="none" stroke="#63b8ff" d="M80.25,-104.67C80.25,-96.44 80.25,-87.91 80.25,-79.86"/>
<polygon fill="none" stroke="#63b8ff" points="76.75,-104.5 80.25,-114.5 83.75,-104.5 76.75,-104.5"/>
</a>
</g>
</g>
<!-- Node3 -->
<g id="Node000003" class="node">
<title>Node3</title>
<g id="a_Node000003"><a xlink:href="class_user_interface.html" target="_top" xlink:title="Base class for all user interfaces in the game.">
<polygon fill="white" stroke="none" points="160.5,-288 0,-288 0,-220 160.5,-220 160.5,-288"/>
<text text-anchor="start" x="50.62" y="-274.5" font-family="Helvetica,sans-Serif" font-size="10.00">UserInterface</text>
<text text-anchor="start" x="4" y="-258.5" font-family="Helvetica,sans-Serif" font-size="10.00">+</text>
<text text-anchor="start" x="14" y="-258.5" font-family="Helvetica,sans-Serif" font-size="10.00">bool quitGame</text>
<text text-anchor="start" x="4" y="-242.5" font-family="Helvetica,sans-Serif" font-size="10.00">+</text>
<text text-anchor="start" x="14" y="-242.5" font-family="Helvetica,sans-Serif" font-size="10.00">virtual UserInterface * render()=0</text>
<text text-anchor="start" x="4" y="-226.5" font-family="Helvetica,sans-Serif" font-size="10.00">+</text>
<text text-anchor="start" x="14" y="-226.5" font-family="Helvetica,sans-Serif" font-size="10.00">virtual ~UserInterface()</text>
<polygon fill="#666666" stroke="#666666" points="0,-270 0,-270 160.5,-270 160.5,-270 0,-270"/>
<polygon fill="#666666" stroke="#666666" points="0,-254 0,-254 12,-254 12,-254 0,-254"/>
<polygon fill="#666666" stroke="#666666" points="12,-254 12,-254 160.5,-254 160.5,-254 12,-254"/>
<polygon fill="none" stroke="#666666" points="0,-220 0,-288 160.5,-288 160.5,-220 0,-220"/>
</a>
</g>
</g>
<!-- Node3&#45;&gt;Node2 -->
<g id="edge2_Node000002_Node000003" class="edge">
<title>Node3&#45;&gt;Node2</title>
<g id="a_edge2_Node000002_Node000003"><a xlink:title=" ">
<path fill="none" stroke="#63b8ff" d="M80.25,-208.91C80.25,-200.47 80.25,-191.78 80.25,-183.77"/>
<polygon fill="none" stroke="#63b8ff" points="76.75,-208.65 80.25,-218.65 83.75,-208.65 76.75,-208.65"/>
</a>
</g>
</g>
</g>
</svg>
