<?xml version="1.0" encoding="UTF-8" standalone="no"?>
<!DOCTYPE svg PUBLIC "-//W3C//DTD SVG 1.1//EN"
 "http://www.w3.org/Graphics/SVG/1.1/DTD/svg11.dtd">
<!-- Generated by graphviz version 12.2.1 (20241206.2353)
 -->
<!-- Title: JovialCutscene Pages: 1 -->
<svg width="384pt" height="645pt"
 viewBox="0.00 0.00 384.00 645.00" xmlns="http://www.w3.org/2000/svg" xmlns:xlink="http://www.w3.org/1999/xlink">
<g id="graph0" class="graph" transform="scale(1 1) rotate(0) translate(4 641)">
<title>JovialCutscene</title>
<!-- Node1 -->
<g id="Node000001" class="node">
<title>Node1</title>
<g id="a_Node000001"><a xlink:title="The cutscene before the player fights Jovial.">
<polygon fill="#999999" stroke="none" points="175,-68 17.5,-68 17.5,0 175,0 175,-68"/>
<text text-anchor="start" x="62.5" y="-54.5" font-family="Helvetica,sans-Serif" font-size="10.00">JovialCutscene</text>
<text text-anchor="start" x="94.75" y="-38.5" font-family="Helvetica,sans-Serif" font-size="10.00"> </text>
<text text-anchor="start" x="21.5" y="-22.5" font-family="Helvetica,sans-Serif" font-size="10.00">+</text>
<text text-anchor="start" x="31.5" y="-22.5" font-family="Helvetica,sans-Serif" font-size="10.00">JovialCutscene(Player player)</text>
<text text-anchor="start" x="21.5" y="-6.5" font-family="Helvetica,sans-Serif" font-size="10.00">+</text>
<text text-anchor="start" x="31.5" y="-6.5" font-family="Helvetica,sans-Serif" font-size="10.00">UserInterface * render() override</text>
<polygon fill="#666666" stroke="#666666" points="17.5,-50 17.5,-50 175,-50 175,-50 17.5,-50"/>
<polygon fill="#666666" stroke="#666666" points="17.5,-34 17.5,-34 175,-34 175,-34 17.5,-34"/>
<polygon fill="none" stroke="#666666" points="17.5,0 17.5,-68 175,-68 175,0 17.5,0"/>
</a>
</g>
</g>
<!-- Node2 -->
<g id="Node000002" class="node">
<title>Node2</title>
<g id="a_Node000002"><a xlink:href="class_u_i_with_player.html" target="_top" xlink:title="Basically just the base class for all user interfaces that have a player.">
<polygon fill="white" stroke="none" points="166,-173 26.5,-173 26.5,-105 166,-105 166,-173"/>
<text text-anchor="start" x="67" y="-159.5" font-family="Helvetica,sans-Serif" font-size="10.00">UIWithPlayer</text>
<text text-anchor="start" x="94.75" y="-143.5" font-family="Helvetica,sans-Serif" font-size="10.00"> </text>
<text text-anchor="start" x="30.5" y="-127.5" font-family="Helvetica,sans-Serif" font-size="10.00">+</text>
<text text-anchor="start" x="40.5" y="-127.5" font-family="Helvetica,sans-Serif" font-size="10.00">UIWithPlayer()</text>
<text text-anchor="start" x="30.5" y="-111.5" font-family="Helvetica,sans-Serif" font-size="10.00">+</text>
<text text-anchor="start" x="40.5" y="-111.5" font-family="Helvetica,sans-Serif" font-size="10.00">UIWithPlayer(Player player)</text>
<polygon fill="#666666" stroke="#666666" points="26.5,-155 26.5,-155 166,-155 166,-155 26.5,-155"/>
<polygon fill="#666666" stroke="#666666" points="26.5,-139 26.5,-139 166,-139 166,-139 26.5,-139"/>
<polygon fill="none" stroke="#666666" points="26.5,-105 26.5,-173 166,-173 166,-105 26.5,-105"/>
</a>
</g>
</g>
<!-- Node2&#45;&gt;Node1 -->
<g id="edge1_Node000001_Node000002" class="edge">
<title>Node2&#45;&gt;Node1</title>
<g id="a_edge1_Node000001_Node000002"><a xlink:title=" ">
<path fill="none" stroke="#63b8ff" d="M96.25,-93.62C96.25,-84.99 96.25,-76.09 96.25,-67.91"/>
<polygon fill="none" stroke="#63b8ff" points="92.75,-93.61 96.25,-103.61 99.75,-93.61 92.75,-93.61"/>
</a>
</g>
</g>
<!-- Node3 -->
<g id="Node000003" class="node">
<title>Node3</title>
<g id="a_Node000003"><a xlink:href="class_user_interface.html" target="_top" xlink:title="Base class for all user interfaces in the game.">
<polygon fill="white" stroke="none" points="160.5,-303 0,-303 0,-235 160.5,-235 160.5,-303"/>
<text text-anchor="start" x="50.62" y="-289.5" font-family="Helvetica,sans-Serif" font-size="10.00">UserInterface</text>
<text text-anchor="start" x="4" y="-273.5" font-family="Helvetica,sans-Serif" font-size="10.00">+</text>
<text text-anchor="start" x="14" y="-273.5" font-family="Helvetica,sans-Serif" font-size="10.00">bool quitGame</text>
<text text-anchor="start" x="4" y="-257.5" font-family="Helvetica,sans-Serif" font-size="10.00">+</text>
<text text-anchor="start" x="14" y="-257.5" font-family="Helvetica,sans-Serif" font-size="10.00">virtual UserInterface * render()=0</text>
<text text-anchor="start" x="4" y="-241.5" font-family="Helvetica,sans-Serif" font-size="10.00">+</text>
<text text-anchor="start" x="14" y="-241.5" font-family="Helvetica,sans-Serif" font-size="10.00">virtual ~UserInterface()</text>
<polygon fill="#666666" stroke="#666666" points="0,-285 0,-285 160.5,-285 160.5,-285 0,-285"/>
<polygon fill="#666666" stroke="#666666" points="0,-269 0,-269 12,-269 12,-269 0,-269"/>
<polygon fill="#666666" stroke="#666666" points="12,-269 12,-269 160.5,-269 160.5,-269 12,-269"/>
<polygon fill="none" stroke="#666666" points="0,-235 0,-303 160.5,-303 160.5,-235 0,-235"/>
</a>
</g>
</g>
<!-- Node3&#45;&gt;Node2 -->
<g id="edge2_Node000002_Node000003" class="edge">
<title>Node3&#45;&gt;Node2</title>
<g id="a_edge2_Node000002_Node000003"><a xlink:title=" ">
<path fill="none" stroke="#63b8ff" d="M85.77,-223.84C87.86,-207.1 90.2,-188.36 92.14,-172.85"/>
<polygon fill="none" stroke="#63b8ff" points="82.33,-223.18 84.56,-233.53 89.27,-224.05 82.33,-223.18"/>
</a>
</g>
</g>
<!-- Node4 -->
<g id="Node000004" class="node">
<title>Node4</title>
<g id="a_Node000004"><a xlink:href="class_player.html" target="_top" xlink:title="The Player class is an Entity that has an inventory and money.">
<polygon fill="white" stroke="none" points="341.62,-317 178.88,-317 178.88,-221 341.62,-221 341.62,-317"/>
<text text-anchor="start" x="246.38" y="-303.5" font-family="Helvetica,sans-Serif" font-size="10.00">Player</text>
<text text-anchor="start" x="182.88" y="-287.5" font-family="Helvetica,sans-Serif" font-size="10.00">+</text>
<text text-anchor="start" x="192.88" y="-287.5" font-family="Helvetica,sans-Serif" font-size="10.00">int money</text>
<text text-anchor="start" x="182.88" y="-271.5" font-family="Helvetica,sans-Serif" font-size="10.00">+</text>
<text text-anchor="start" x="192.88" y="-271.5" font-family="Helvetica,sans-Serif" font-size="10.00">Player()</text>
<text text-anchor="start" x="182.88" y="-255.5" font-family="Helvetica,sans-Serif" font-size="10.00">+</text>
<text text-anchor="start" x="192.88" y="-255.5" font-family="Helvetica,sans-Serif" font-size="10.00">Player(int health, string</text>
<text text-anchor="start" x="192.88" y="-243.5" font-family="Helvetica,sans-Serif" font-size="10.00"> name, int atk, int def, int money)</text>
<text text-anchor="start" x="182.88" y="-227.5" font-family="Helvetica,sans-Serif" font-size="10.00">+</text>
<text text-anchor="start" x="192.88" y="-227.5" font-family="Helvetica,sans-Serif" font-size="10.00">void addMoney(int amount)</text>
<polygon fill="#666666" stroke="#666666" points="178.88,-299 178.88,-299 341.62,-299 341.62,-299 178.88,-299"/>
<polygon fill="#666666" stroke="#666666" points="178.88,-283 178.88,-283 190.88,-283 190.88,-283 178.88,-283"/>
<polygon fill="#666666" stroke="#666666" points="190.88,-283 190.88,-283 341.62,-283 341.62,-283 190.88,-283"/>
<polygon fill="none" stroke="#666666" points="178.88,-221 178.88,-317 341.62,-317 341.62,-221 178.88,-221"/>
</a>
</g>
</g>
<!-- Node4&#45;&gt;Node2 -->
<g id="edge3_Node000002_Node000004" class="edge">
<title>Node4&#45;&gt;Node2</title>
<g id="a_edge3_Node000002_Node000004"><a xlink:title=" ">
<path fill="none" stroke="#63b8ff" d="M200.11,-221.06C183.16,-207.83 164.85,-193.54 148.4,-180.71"/>
<polygon fill="none" stroke="#63b8ff" points="148.6,-180.86 141.41,-180.32 139.14,-173.48 146.33,-174.01 148.6,-180.86"/>
</a>
</g>
<text text-anchor="middle" x="190.96" y="-193.5" font-family="Helvetica,sans-Serif" font-size="10.00" fill="grey"> +player</text>
</g>
<!-- Node5 -->
<g id="Node000005" class="node">
<title>Node5</title>
<g id="a_Node000005"><a xlink:href="class_entity.html" target="_top" xlink:title="Base class for all entities in the game. This includes the player and enemies.">
<polygon fill="white" stroke="none" points="218.25,-505 86.25,-505 86.25,-365 218.25,-365 218.25,-505"/>
<text text-anchor="start" x="139.5" y="-491.5" font-family="Helvetica,sans-Serif" font-size="10.00">Entity</text>
<text text-anchor="start" x="90.25" y="-475.5" font-family="Helvetica,sans-Serif" font-size="10.00">+</text>
<text text-anchor="start" x="100.25" y="-475.5" font-family="Helvetica,sans-Serif" font-size="10.00">int maxHealth</text>
<text text-anchor="start" x="90.25" y="-459.5" font-family="Helvetica,sans-Serif" font-size="10.00">+</text>
<text text-anchor="start" x="100.25" y="-459.5" font-family="Helvetica,sans-Serif" font-size="10.00">int currHealth</text>
<text text-anchor="start" x="90.25" y="-443.5" font-family="Helvetica,sans-Serif" font-size="10.00">+</text>
<text text-anchor="start" x="100.25" y="-443.5" font-family="Helvetica,sans-Serif" font-size="10.00">string name</text>
<text text-anchor="start" x="90.25" y="-427.5" font-family="Helvetica,sans-Serif" font-size="10.00">+</text>
<text text-anchor="start" x="100.25" y="-427.5" font-family="Helvetica,sans-Serif" font-size="10.00">Entity(int health, string</text>
<text text-anchor="start" x="100.25" y="-415.5" font-family="Helvetica,sans-Serif" font-size="10.00"> name, int atk, int def)</text>
<text text-anchor="start" x="90.25" y="-399.5" font-family="Helvetica,sans-Serif" font-size="10.00">+</text>
<text text-anchor="start" x="100.25" y="-399.5" font-family="Helvetica,sans-Serif" font-size="10.00">virtual ~Entity()</text>
<text text-anchor="start" x="90.25" y="-383.5" font-family="Helvetica,sans-Serif" font-size="10.00">+</text>
<text text-anchor="start" x="100.25" y="-383.5" font-family="Helvetica,sans-Serif" font-size="10.00">void attack(Entity &amp;target,</text>
<text text-anchor="start" x="100.25" y="-371.5" font-family="Helvetica,sans-Serif" font-size="10.00"> int extraDmg=0)</text>
<polygon fill="#666666" stroke="#666666" points="86.25,-487 86.25,-487 218.25,-487 218.25,-487 86.25,-487"/>
<polygon fill="#666666" stroke="#666666" points="86.25,-439 86.25,-439 98.25,-439 98.25,-439 86.25,-439"/>
<polygon fill="#666666" stroke="#666666" points="98.25,-439 98.25,-439 218.25,-439 218.25,-439 98.25,-439"/>
<polygon fill="none" stroke="#666666" points="86.25,-365 86.25,-505 218.25,-505 218.25,-365 86.25,-365"/>
</a>
</g>
</g>
<!-- Node5&#45;&gt;Node4 -->
<g id="edge4_Node000004_Node000005" class="edge">
<title>Node5&#45;&gt;Node4</title>
<g id="a_edge4_Node000004_Node000005"><a xlink:title=" ">
<path fill="none" stroke="#63b8ff" d="M203.51,-356.16C212.34,-342.75 221.27,-329.19 229.35,-316.92"/>
<polygon fill="none" stroke="#63b8ff" points="200.84,-353.86 198.26,-364.14 206.68,-357.71 200.84,-353.86"/>
</a>
</g>
</g>
<!-- Node6 -->
<g id="Node000006" class="node">
<title>Node6</title>
<g id="a_Node000006"><a xlink:href="class_stats.html" target="_top" xlink:title="Stats for all entities.">
<polygon fill="white" stroke="none" points="197.62,-637 106.88,-637 106.88,-553 197.62,-553 197.62,-637"/>
<text text-anchor="start" x="140.62" y="-623.5" font-family="Helvetica,sans-Serif" font-size="10.00">Stats</text>
<text text-anchor="start" x="110.88" y="-607.5" font-family="Helvetica,sans-Serif" font-size="10.00">+</text>
<text text-anchor="start" x="120.88" y="-607.5" font-family="Helvetica,sans-Serif" font-size="10.00">int atk</text>
<text text-anchor="start" x="110.88" y="-591.5" font-family="Helvetica,sans-Serif" font-size="10.00">+</text>
<text text-anchor="start" x="120.88" y="-591.5" font-family="Helvetica,sans-Serif" font-size="10.00">int def</text>
<text text-anchor="start" x="110.88" y="-575.5" font-family="Helvetica,sans-Serif" font-size="10.00">+</text>
<text text-anchor="start" x="120.88" y="-575.5" font-family="Helvetica,sans-Serif" font-size="10.00">Stats()</text>
<text text-anchor="start" x="110.88" y="-559.5" font-family="Helvetica,sans-Serif" font-size="10.00">+</text>
<text text-anchor="start" x="120.88" y="-559.5" font-family="Helvetica,sans-Serif" font-size="10.00">Stats(int x, int y)</text>
<polygon fill="#666666" stroke="#666666" points="106.88,-619 106.88,-619 197.62,-619 197.62,-619 106.88,-619"/>
<polygon fill="#666666" stroke="#666666" points="106.88,-587 106.88,-587 118.88,-587 118.88,-587 106.88,-587"/>
<polygon fill="#666666" stroke="#666666" points="118.88,-587 118.88,-587 197.62,-587 197.62,-587 118.88,-587"/>
<polygon fill="none" stroke="#666666" points="106.88,-553 106.88,-637 197.62,-637 197.62,-553 106.88,-553"/>
</a>
</g>
</g>
<!-- Node6&#45;&gt;Node5 -->
<g id="edge5_Node000005_Node000006" class="edge">
<title>Node6&#45;&gt;Node5</title>
<g id="a_edge5_Node000005_Node000006"><a xlink:title=" ">
<path fill="none" stroke="#63b8ff" d="M152.25,-553.31C152.25,-542.32 152.25,-530.02 152.25,-517.63"/>
<polygon fill="none" stroke="#63b8ff" points="152.25,-517.65 148.25,-511.65 152.25,-505.65 156.25,-511.65 152.25,-517.65"/>
</a>
</g>
<text text-anchor="middle" x="167.62" y="-525.5" font-family="Helvetica,sans-Serif" font-size="10.00" fill="grey"> +stats</text>
</g>
<!-- Node7 -->
<g id="Node000007" class="node">
<title>Node7</title>
<g id="a_Node000007"><a xlink:href="class_inventory.html" target="_top" xlink:title="Inventory class that holds all items for the player.">
<polygon fill="white" stroke="none" points="376,-497 236.5,-497 236.5,-373 376,-373 376,-497"/>
<text text-anchor="start" x="286" y="-483.5" font-family="Helvetica,sans-Serif" font-size="10.00">Inventory</text>
<text text-anchor="start" x="240.5" y="-467.5" font-family="Helvetica,sans-Serif" font-size="10.00">+</text>
<text text-anchor="start" x="250.5" y="-467.5" font-family="Helvetica,sans-Serif" font-size="10.00">vector&lt; IItem * &gt; items</text>
<text text-anchor="start" x="240.5" y="-451.5" font-family="Helvetica,sans-Serif" font-size="10.00">+</text>
<text text-anchor="start" x="250.5" y="-451.5" font-family="Helvetica,sans-Serif" font-size="10.00">IItem * addItem(IItem *item,</text>
<text text-anchor="start" x="250.5" y="-439.5" font-family="Helvetica,sans-Serif" font-size="10.00"> bool animate=true)</text>
<text text-anchor="start" x="240.5" y="-423.5" font-family="Helvetica,sans-Serif" font-size="10.00">+</text>
<text text-anchor="start" x="250.5" y="-423.5" font-family="Helvetica,sans-Serif" font-size="10.00">void listItems()</text>
<text text-anchor="start" x="240.5" y="-407.5" font-family="Helvetica,sans-Serif" font-size="10.00">+</text>
<text text-anchor="start" x="250.5" y="-407.5" font-family="Helvetica,sans-Serif" font-size="10.00">bool useItem(int idx, Player</text>
<text text-anchor="start" x="250.5" y="-395.5" font-family="Helvetica,sans-Serif" font-size="10.00"> &amp;player, Entity *enemy)</text>
<text text-anchor="start" x="240.5" y="-379.5" font-family="Helvetica,sans-Serif" font-size="10.00">+</text>
<text text-anchor="start" x="250.5" y="-379.5" font-family="Helvetica,sans-Serif" font-size="10.00">void dropItem(int idx)</text>
<polygon fill="#666666" stroke="#666666" points="236.5,-479 236.5,-479 376,-479 376,-479 236.5,-479"/>
<polygon fill="#666666" stroke="#666666" points="236.5,-463 236.5,-463 248.5,-463 248.5,-463 236.5,-463"/>
<polygon fill="#666666" stroke="#666666" points="248.5,-463 248.5,-463 376,-463 376,-463 248.5,-463"/>
<polygon fill="none" stroke="#666666" points="236.5,-373 236.5,-497 376,-497 376,-373 236.5,-373"/>
</a>
</g>
</g>
<!-- Node7&#45;&gt;Node4 -->
<g id="edge6_Node000004_Node000007" class="edge">
<title>Node7&#45;&gt;Node4</title>
<g id="a_edge6_Node000004_Node000007"><a xlink:title=" ">
<path fill="none" stroke="#63b8ff" d="M289.25,-373.4C285.19,-358.93 280.87,-343.51 276.83,-329.11"/>
<polygon fill="none" stroke="#63b8ff" points="276.85,-329.19 271.38,-324.49 273.61,-317.64 279.08,-322.33 276.85,-329.19"/>
</a>
</g>
<text text-anchor="middle" x="304.87" y="-337.5" font-family="Helvetica,sans-Serif" font-size="10.00" fill="grey"> +inventory</text>
</g>
</g>
</svg>
