<?xml version="1.0" encoding="UTF-8" standalone="no"?>
<!DOCTYPE svg PUBLIC "-//W3C//DTD SVG 1.1//EN"
 "http://www.w3.org/Graphics/SVG/1.1/DTD/svg11.dtd">
<!-- Generated by graphviz version 12.2.1 (20241206.2353)
 -->
<!-- Title: IEnemyItem Pages: 1 -->
<svg width="162pt" height="408pt"
 viewBox="0.00 0.00 161.75 408.00" xmlns="http://www.w3.org/2000/svg" xmlns:xlink="http://www.w3.org/1999/xlink">

<svg id="main" version="1.1" xmlns="http://www.w3.org/2000/svg" xmlns:xlink="http://www.w3.org/1999/xlink" xml:space="preserve">

<style type="text/css"><![CDATA[
.node, .edge {opacity: 0.7;}
.node.selected, .edge.selected {opacity: 1;}
.edge:hover path { stroke: red; }
.edge:hover polygon { stroke: red; fill: red; }
]]></style>
<script type="application/ecmascript" xlink:href="svg.min.js"/>
<svg id="graph" class="graph">
<g id="graph0" class="graph" transform="scale(1 1) rotate(0) translate(4 404)">
<title>IEnemyItem</title>
<!-- Node1 -->
<g id="Node000001" class="node">
<title>Node1</title>
<g id="a_Node000001"><a xlink:title="Enemy items. The use function takes in a player and an enemy.">
<polygon fill="#999999" stroke="none" points="153.75,-92 0,-92 0,0 153.75,0 153.75,-92"/>
<text text-anchor="start" x="50.25" y="-78.5" font-family="Helvetica,sans-Serif" font-size="10.00">IEnemyItem</text>
<text text-anchor="start" x="75.38" y="-62.5" font-family="Helvetica,sans-Serif" font-size="10.00"> </text>
<text text-anchor="start" x="4" y="-46.5" font-family="Helvetica,sans-Serif" font-size="10.00">+</text>
<text text-anchor="start" x="14" y="-46.5" font-family="Helvetica,sans-Serif" font-size="10.00">IEnemyItem(string n, string</text>
<text text-anchor="start" x="14" y="-34.5" font-family="Helvetica,sans-Serif" font-size="10.00"> t, string d, int c)</text>
<text text-anchor="start" x="4" y="-18.5" font-family="Helvetica,sans-Serif" font-size="10.00">+</text>
<text text-anchor="start" x="14" y="-18.5" font-family="Helvetica,sans-Serif" font-size="10.00">virtual bool use(Player &amp;player,</text>
<text text-anchor="start" x="14" y="-6.5" font-family="Helvetica,sans-Serif" font-size="10.00"> Entity &amp;enemy)=0</text>
<polygon fill="#666666" stroke="#666666" points="0,-74 0,-74 153.75,-74 153.75,-74 0,-74"/>
<polygon fill="#666666" stroke="#666666" points="0,-58 0,-58 153.75,-58 153.75,-58 0,-58"/>
<polygon fill="none" stroke="#666666" points="0,0 0,-92 153.75,-92 153.75,0 0,0"/>
</a>
</g>
</g>
<!-- Node2 -->
<g id="Node000002" class="node">
<title>Node2</title>
<g id="a_Node000002"><a xlink:href="class_i_item.html" target="_top" xlink:title="Base class for all items in the game.">
<polygon fill="white" stroke="none" points="145.12,-400 8.62,-400 8.62,-128 145.12,-128 145.12,-400"/>
<text text-anchor="start" x="65.62" y="-386.5" font-family="Helvetica,sans-Serif" font-size="10.00">IItem</text>
<text text-anchor="start" x="14.12" y="-370.5" font-family="Helvetica,sans-Serif" font-size="10.00">&#45;</text>
<text text-anchor="start" x="22.62" y="-370.5" font-family="Helvetica,sans-Serif" font-size="10.00">string desc</text>
<text text-anchor="start" x="14.12" y="-354.5" font-family="Helvetica,sans-Serif" font-size="10.00">&#45;</text>
<text text-anchor="start" x="22.62" y="-354.5" font-family="Helvetica,sans-Serif" font-size="10.00">string name</text>
<text text-anchor="start" x="14.12" y="-338.5" font-family="Helvetica,sans-Serif" font-size="10.00">&#45;</text>
<text text-anchor="start" x="22.62" y="-338.5" font-family="Helvetica,sans-Serif" font-size="10.00">string type</text>
<text text-anchor="start" x="14.12" y="-322.5" font-family="Helvetica,sans-Serif" font-size="10.00">&#45;</text>
<text text-anchor="start" x="22.62" y="-322.5" font-family="Helvetica,sans-Serif" font-size="10.00">int count</text>
<text text-anchor="start" x="12.62" y="-306.5" font-family="Helvetica,sans-Serif" font-size="10.00">+</text>
<text text-anchor="start" x="22.62" y="-306.5" font-family="Helvetica,sans-Serif" font-size="10.00">IItem(string n, string t,</text>
<text text-anchor="start" x="22.62" y="-294.5" font-family="Helvetica,sans-Serif" font-size="10.00"> string d, int c)</text>
<text text-anchor="start" x="12.62" y="-278.5" font-family="Helvetica,sans-Serif" font-size="10.00">+</text>
<text text-anchor="start" x="22.62" y="-278.5" font-family="Helvetica,sans-Serif" font-size="10.00">virtual ~IItem()</text>
<text text-anchor="start" x="12.62" y="-262.5" font-family="Helvetica,sans-Serif" font-size="10.00">+</text>
<text text-anchor="start" x="22.62" y="-262.5" font-family="Helvetica,sans-Serif" font-size="10.00">virtual string getDesc()</text>
<text text-anchor="start" x="12.62" y="-246.5" font-family="Helvetica,sans-Serif" font-size="10.00">+</text>
<text text-anchor="start" x="22.62" y="-246.5" font-family="Helvetica,sans-Serif" font-size="10.00">string getName()</text>
<text text-anchor="start" x="12.62" y="-230.5" font-family="Helvetica,sans-Serif" font-size="10.00">+</text>
<text text-anchor="start" x="22.62" y="-230.5" font-family="Helvetica,sans-Serif" font-size="10.00">string getType()</text>
<text text-anchor="start" x="12.62" y="-214.5" font-family="Helvetica,sans-Serif" font-size="10.00">+</text>
<text text-anchor="start" x="22.62" y="-214.5" font-family="Helvetica,sans-Serif" font-size="10.00">void increment(int amount)</text>
<text text-anchor="start" x="12.62" y="-198.5" font-family="Helvetica,sans-Serif" font-size="10.00">+</text>
<text text-anchor="start" x="22.62" y="-198.5" font-family="Helvetica,sans-Serif" font-size="10.00">void decrement(int amount)</text>
<text text-anchor="start" x="12.62" y="-182.5" font-family="Helvetica,sans-Serif" font-size="10.00">+</text>
<text text-anchor="start" x="22.62" y="-182.5" font-family="Helvetica,sans-Serif" font-size="10.00">int getCount()</text>
<text text-anchor="start" x="12.62" y="-166.5" font-family="Helvetica,sans-Serif" font-size="10.00">+</text>
<text text-anchor="start" x="22.62" y="-166.5" font-family="Helvetica,sans-Serif" font-size="10.00">bool isInfinite()</text>
<text text-anchor="start" x="12.62" y="-150.5" font-family="Helvetica,sans-Serif" font-size="10.00">+</text>
<text text-anchor="start" x="22.62" y="-150.5" font-family="Helvetica,sans-Serif" font-size="10.00">bool isDepleted()</text>
<text text-anchor="start" x="12.62" y="-134.5" font-family="Helvetica,sans-Serif" font-size="10.00">+</text>
<text text-anchor="start" x="22.62" y="-134.5" font-family="Helvetica,sans-Serif" font-size="10.00">bool matches(IItem *item)</text>
<polygon fill="#666666" stroke="#666666" points="8.62,-382 8.62,-382 145.12,-382 145.12,-382 8.62,-382"/>
<polygon fill="#666666" stroke="#666666" points="8.62,-318 8.62,-318 20.62,-318 20.62,-318 8.62,-318"/>
<polygon fill="#666666" stroke="#666666" points="20.62,-318 20.62,-318 145.12,-318 145.12,-318 20.62,-318"/>
<polygon fill="none" stroke="#666666" points="8.62,-128 8.62,-400 145.12,-400 145.12,-128 8.62,-128"/>
</a>
</g>
</g>
<!-- Node2&#45;&gt;Node1 -->
<g id="edge1_Node000001_Node000002" class="edge">
<title>Node2&#45;&gt;Node1</title>
<g id="a_edge1_Node000001_Node000002"><a xlink:title=" ">
<path fill="none" stroke="#63b8ff" d="M76.88,-116.67C76.88,-107.84 76.88,-99.4 76.88,-91.63"/>
<polygon fill="none" stroke="#63b8ff" points="73.38,-116.53 76.88,-126.53 80.38,-116.53 73.38,-116.53"/>
</a>
</g>
</g>
</g>
</svg>
</svg>

<style type='text/css'>
<![CDATA[
[data-mouse-over-selected='false'] { opacity: 0.7; }
[data-mouse-over-selected='true']  { opacity: 1.0; }
]]>
</style>
<script type="application/ecmascript"><![CDATA[
document.addEventListener('DOMContentLoaded', (event) => {
  highlightEdges();
  highlightAdjacentNodes();
});
]]></script>
</svg>
