<?xml version="1.0" encoding="UTF-8" standalone="no"?>
<!DOCTYPE svg PUBLIC "-//W3C//DTD SVG 1.1//EN"
 "http://www.w3.org/Graphics/SVG/1.1/DTD/svg11.dtd">
<!-- Generated by graphviz version 12.2.1 (20241206.2353)
 -->
<!-- Title: Player Pages: 1 -->
<!--zoomable 568 -->

<svg id="main" version="1.1" xmlns="http://www.w3.org/2000/svg" xmlns:xlink="http://www.w3.org/1999/xlink" xml:space="preserve" onload="init(evt)">

<style type="text/css"><![CDATA[
.node, .edge {opacity: 0.7;}
.node.selected, .edge.selected {opacity: 1;}
.edge:hover path { stroke: red; }
.edge:hover polygon { stroke: red; fill: red; }
]]></style>

<defs>
  <circle id="rim" cx="0" cy="0" r="7"/>
  <circle id="rim2" cx="0" cy="0" r="3.5"/>
  <g id="zoomPlus">
    <use xlink:href="#rim" fill="#404040"><set attributeName="fill" to="#808080" begin="zoomplus.mouseover" end="zoomplus.mouseout"/></use>
    <path d="M-4,0h8M0,-4v8" fill="none" stroke="white" stroke-width="1.5" pointer-events="none"/>
  </g>
  <g id="zoomMin">
    <use xlink:href="#rim" fill="#404040"><set attributeName="fill" to="#808080" begin="zoomminus.mouseover" end="zoomminus.mouseout"/></use>
    <path d="M-4,0h8" fill="none" stroke="white" stroke-width="1.5" pointer-events="none"/>
  </g>
  <g id="arrowUp" transform="translate(30 24)">
    <use xlink:href="#rim"/>
    <path pointer-events="none" fill="none" stroke="white" stroke-width="1.5" d="M0,-3.0v7 M-2.5,-0.5L0,-3.0L2.5,-0.5"/>
  </g>
  <g id="arrowRight" transform="rotate(90) translate(36 -43)">
    <use xlink:href="#rim"/>
    <path pointer-events="none" fill="none" stroke="white" stroke-width="1.5" d="M0,-3.0v7 M-2.5,-0.5L0,-3.0L2.5,-0.5"/>
  </g>
  <g id="arrowDown" transform="rotate(180) translate(-30 -48)">
    <use xlink:href="#rim"/>
    <path pointer-events="none" fill="none" stroke="white" stroke-width="1.5" d="M0,-3.0v7 M-2.5,-0.5L0,-3.0L2.5,-0.5"/>
  </g>
  <g id="arrowLeft" transform="rotate(270) translate(-36 17)">
    <use xlink:href="#rim"/>
    <path pointer-events="none" fill="none" stroke="white" stroke-width="1.5" d="M0,-3.0v7 M-2.5,-0.5L0,-3.0L2.5,-0.5"/>
  </g>
  <g id="resetDef">
    <use xlink:href="#rim2" fill="#404040"><set attributeName="fill" to="#808080" begin="reset.mouseover" end="reset.mouseout"/></use>
  </g>
</defs>
<script type="application/ecmascript">
var viewWidth = 368;
var viewHeight = 568;
var sectionId = 'dynsection-1';
</script>
<script type="application/ecmascript" xlink:href="svg.min.js"/>
<svg id="graph" class="graph">
<g id="viewport">
<title>Player</title>
<!-- Node1 -->
<g id="Node000001" class="node">
<title>Node1</title>
<g id="a_Node000001"><a xlink:title="The Player class is an Entity that has an inventory and money.">
<polygon fill="#999999" stroke="none" points="294.5,-160 131.75,-160 131.75,0 294.5,0 294.5,-160"/>
<text text-anchor="start" x="199.25" y="-146.5" font-family="Helvetica,sans-Serif" font-size="10.00">Player</text>
<text text-anchor="start" x="137.25" y="-130.5" font-family="Helvetica,sans-Serif" font-size="10.00">&#45;</text>
<text text-anchor="start" x="145.75" y="-130.5" font-family="Helvetica,sans-Serif" font-size="10.00">int money</text>
<text text-anchor="start" x="135.75" y="-114.5" font-family="Helvetica,sans-Serif" font-size="10.00">+</text>
<text text-anchor="start" x="145.75" y="-114.5" font-family="Helvetica,sans-Serif" font-size="10.00">Player()</text>
<text text-anchor="start" x="135.75" y="-98.5" font-family="Helvetica,sans-Serif" font-size="10.00">+</text>
<text text-anchor="start" x="145.75" y="-98.5" font-family="Helvetica,sans-Serif" font-size="10.00">Player(int health, string</text>
<text text-anchor="start" x="145.75" y="-86.5" font-family="Helvetica,sans-Serif" font-size="10.00"> name, int atk, int def, int money)</text>
<text text-anchor="start" x="135.75" y="-70.5" font-family="Helvetica,sans-Serif" font-size="10.00">+</text>
<text text-anchor="start" x="145.75" y="-70.5" font-family="Helvetica,sans-Serif" font-size="10.00">void addMoney(int amount)</text>
<text text-anchor="start" x="135.75" y="-54.5" font-family="Helvetica,sans-Serif" font-size="10.00">+</text>
<text text-anchor="start" x="145.75" y="-54.5" font-family="Helvetica,sans-Serif" font-size="10.00">int getMoney()</text>
<text text-anchor="start" x="135.75" y="-38.5" font-family="Helvetica,sans-Serif" font-size="10.00">+</text>
<text text-anchor="start" x="145.75" y="-38.5" font-family="Helvetica,sans-Serif" font-size="10.00">void setMoney(int amount)</text>
<text text-anchor="start" x="135.75" y="-22.5" font-family="Helvetica,sans-Serif" font-size="10.00">+</text>
<text text-anchor="start" x="145.75" y="-22.5" font-family="Helvetica,sans-Serif" font-size="10.00">bool canAfford(int amount)</text>
<text text-anchor="start" x="135.75" y="-6.5" font-family="Helvetica,sans-Serif" font-size="10.00">+</text>
<text text-anchor="start" x="145.75" y="-6.5" font-family="Helvetica,sans-Serif" font-size="10.00">bool canAfford(ShopItem &amp;item)</text>
<polygon fill="#666666" stroke="#666666" points="131.75,-142 131.75,-142 294.5,-142 294.5,-142 131.75,-142"/>
<polygon fill="#666666" stroke="#666666" points="131.75,-126 131.75,-126 143.75,-126 143.75,-126 131.75,-126"/>
<polygon fill="#666666" stroke="#666666" points="143.75,-126 143.75,-126 294.5,-126 294.5,-126 143.75,-126"/>
<polygon fill="none" stroke="#666666" points="131.75,0 131.75,-160 294.5,-160 294.5,0 131.75,0"/>
</a>
</g>
</g>
<!-- Node2 -->
<g id="Node000002" class="node">
<title>Node2</title>
<g id="a_Node000002"><a xlink:href="class_entity.html" target="_top" xlink:title="Base class for all entities in the game. This includes the player and enemies.">
<polygon fill="white" stroke="none" points="202.12,-444 70.12,-444 70.12,-208 202.12,-208 202.12,-444"/>
<text text-anchor="start" x="123.38" y="-430.5" font-family="Helvetica,sans-Serif" font-size="10.00">Entity</text>
<text text-anchor="start" x="74.5" y="-414.5" font-family="Helvetica,sans-Serif" font-size="10.00">#</text>
<text text-anchor="start" x="84.12" y="-414.5" font-family="Helvetica,sans-Serif" font-size="10.00">string name</text>
<text text-anchor="start" x="74.12" y="-398.5" font-family="Helvetica,sans-Serif" font-size="10.00">+</text>
<text text-anchor="start" x="84.12" y="-398.5" font-family="Helvetica,sans-Serif" font-size="10.00">Entity(int health, string</text>
<text text-anchor="start" x="84.12" y="-386.5" font-family="Helvetica,sans-Serif" font-size="10.00"> name, int atk, int def)</text>
<text text-anchor="start" x="74.12" y="-370.5" font-family="Helvetica,sans-Serif" font-size="10.00">+</text>
<text text-anchor="start" x="84.12" y="-370.5" font-family="Helvetica,sans-Serif" font-size="10.00">virtual ~Entity()</text>
<text text-anchor="start" x="74.12" y="-354.5" font-family="Helvetica,sans-Serif" font-size="10.00">+</text>
<text text-anchor="start" x="84.12" y="-354.5" font-family="Helvetica,sans-Serif" font-size="10.00">void attack(Entity &amp;target,</text>
<text text-anchor="start" x="84.12" y="-342.5" font-family="Helvetica,sans-Serif" font-size="10.00"> int extraDmg=0)</text>
<text text-anchor="start" x="74.12" y="-326.5" font-family="Helvetica,sans-Serif" font-size="10.00">+</text>
<text text-anchor="start" x="84.12" y="-326.5" font-family="Helvetica,sans-Serif" font-size="10.00">int getHealth()</text>
<text text-anchor="start" x="74.12" y="-310.5" font-family="Helvetica,sans-Serif" font-size="10.00">+</text>
<text text-anchor="start" x="84.12" y="-310.5" font-family="Helvetica,sans-Serif" font-size="10.00">int getMaxHealth()</text>
<text text-anchor="start" x="74.12" y="-294.5" font-family="Helvetica,sans-Serif" font-size="10.00">+</text>
<text text-anchor="start" x="84.12" y="-294.5" font-family="Helvetica,sans-Serif" font-size="10.00">bool isFullHealth()</text>
<text text-anchor="start" x="74.12" y="-278.5" font-family="Helvetica,sans-Serif" font-size="10.00">+</text>
<text text-anchor="start" x="84.12" y="-278.5" font-family="Helvetica,sans-Serif" font-size="10.00">void fullyHeal()</text>
<text text-anchor="start" x="74.12" y="-262.5" font-family="Helvetica,sans-Serif" font-size="10.00">+</text>
<text text-anchor="start" x="84.12" y="-262.5" font-family="Helvetica,sans-Serif" font-size="10.00">bool isAlive()</text>
<text text-anchor="start" x="74.12" y="-246.5" font-family="Helvetica,sans-Serif" font-size="10.00">+</text>
<text text-anchor="start" x="84.12" y="-246.5" font-family="Helvetica,sans-Serif" font-size="10.00">void heal(int amount)</text>
<text text-anchor="start" x="74.12" y="-230.5" font-family="Helvetica,sans-Serif" font-size="10.00">+</text>
<text text-anchor="start" x="84.12" y="-230.5" font-family="Helvetica,sans-Serif" font-size="10.00">void kill()</text>
<text text-anchor="start" x="84.12" y="-214.5" font-family="Helvetica,sans-Serif" font-size="10.00">and 6 more...</text>
<polygon fill="#666666" stroke="#666666" points="70.12,-426 70.12,-426 202.12,-426 202.12,-426 70.12,-426"/>
<polygon fill="#666666" stroke="#666666" points="70.12,-410 70.12,-410 82.12,-410 82.12,-410 70.12,-410"/>
<polygon fill="#666666" stroke="#666666" points="82.12,-410 82.12,-410 202.12,-410 202.12,-410 82.12,-410"/>
<polygon fill="none" stroke="#666666" points="70.12,-208 70.12,-444 202.12,-444 202.12,-208 70.12,-208"/>
</a>
</g>
</g>
<!-- Node2&#45;&gt;Node1 -->
<g id="edge1_Node000001_Node000002" class="edge">
<title>Node2&#45;&gt;Node1</title>
<g id="a_edge1_Node000001_Node000002"><a xlink:title=" ">
<path fill="none" stroke="#63b8ff" d="M176.44,-197.24C180.48,-184.44 184.49,-171.73 188.3,-159.66"/>
<polygon fill="none" stroke="#63b8ff" points="173.17,-195.97 173.5,-206.56 179.85,-198.08 173.17,-195.97"/>
</a>
</g>
</g>
<!-- Node3 -->
<g id="Node000003" class="node">
<title>Node3</title>
<g id="a_Node000003"><a xlink:href="struct_health.html" target="_top" xlink:title=" ">
<polygon fill="white" stroke="none" points="134.25,-560 0,-560 0,-492 134.25,-492 134.25,-560"/>
<text text-anchor="start" x="52.88" y="-546.5" font-family="Helvetica,sans-Serif" font-size="10.00">Health</text>
<text text-anchor="start" x="4" y="-530.5" font-family="Helvetica,sans-Serif" font-size="10.00">+</text>
<text text-anchor="start" x="14" y="-530.5" font-family="Helvetica,sans-Serif" font-size="10.00">int current</text>
<text text-anchor="start" x="4" y="-514.5" font-family="Helvetica,sans-Serif" font-size="10.00">+</text>
<text text-anchor="start" x="14" y="-514.5" font-family="Helvetica,sans-Serif" font-size="10.00">int max</text>
<text text-anchor="start" x="4" y="-498.5" font-family="Helvetica,sans-Serif" font-size="10.00">+</text>
<text text-anchor="start" x="14" y="-498.5" font-family="Helvetica,sans-Serif" font-size="10.00">Health(int current, int max)</text>
<polygon fill="#666666" stroke="#666666" points="0,-542 0,-542 134.25,-542 134.25,-542 0,-542"/>
<polygon fill="#666666" stroke="#666666" points="0,-510 0,-510 12,-510 12,-510 0,-510"/>
<polygon fill="#666666" stroke="#666666" points="12,-510 12,-510 134.25,-510 134.25,-510 12,-510"/>
<polygon fill="none" stroke="#666666" points="0,-492 0,-560 134.25,-560 134.25,-492 0,-492"/>
</a>
</g>
</g>
<!-- Node3&#45;&gt;Node2 -->
<g id="edge2_Node000002_Node000003" class="edge">
<title>Node3&#45;&gt;Node2</title>
<g id="a_edge2_Node000002_Node000003"><a xlink:title=" ">
<path fill="none" stroke="#63b8ff" d="M78.52,-492.3C82.25,-481.6 86.65,-468.98 91.32,-455.57"/>
<polygon fill="none" stroke="#63b8ff" points="91.25,-455.78 89.44,-448.8 95.2,-444.45 97,-451.43 91.25,-455.78"/>
</a>
</g>
<text text-anchor="middle" x="104.76" y="-464.5" font-family="Helvetica,sans-Serif" font-size="10.00" fill="grey"> #health</text>
</g>
<!-- Node4 -->
<g id="Node000004" class="node">
<title>Node4</title>
<g id="a_Node000004"><a xlink:href="struct_stats.html" target="_top" xlink:title="Stats for all entities.">
<polygon fill="white" stroke="none" points="259.75,-560 152.5,-560 152.5,-492 259.75,-492 259.75,-560"/>
<text text-anchor="start" x="194.5" y="-546.5" font-family="Helvetica,sans-Serif" font-size="10.00">Stats</text>
<text text-anchor="start" x="156.5" y="-530.5" font-family="Helvetica,sans-Serif" font-size="10.00">+</text>
<text text-anchor="start" x="166.5" y="-530.5" font-family="Helvetica,sans-Serif" font-size="10.00">int atk</text>
<text text-anchor="start" x="156.5" y="-514.5" font-family="Helvetica,sans-Serif" font-size="10.00">+</text>
<text text-anchor="start" x="166.5" y="-514.5" font-family="Helvetica,sans-Serif" font-size="10.00">int def</text>
<text text-anchor="start" x="156.5" y="-498.5" font-family="Helvetica,sans-Serif" font-size="10.00">+</text>
<text text-anchor="start" x="166.5" y="-498.5" font-family="Helvetica,sans-Serif" font-size="10.00">Stats(int atk, int def)</text>
<polygon fill="#666666" stroke="#666666" points="152.5,-542 152.5,-542 259.75,-542 259.75,-542 152.5,-542"/>
<polygon fill="#666666" stroke="#666666" points="152.5,-510 152.5,-510 164.5,-510 164.5,-510 152.5,-510"/>
<polygon fill="#666666" stroke="#666666" points="164.5,-510 164.5,-510 259.75,-510 259.75,-510 164.5,-510"/>
<polygon fill="none" stroke="#666666" points="152.5,-492 152.5,-560 259.75,-560 259.75,-492 152.5,-492"/>
</a>
</g>
</g>
<!-- Node4&#45;&gt;Node2 -->
<g id="edge3_Node000002_Node000004" class="edge">
<title>Node4&#45;&gt;Node2</title>
<g id="a_edge3_Node000002_Node000004"><a xlink:title=" ">
<path fill="none" stroke="#63b8ff" d="M194.57,-492.3C190.78,-481.6 186.32,-468.98 181.58,-455.57"/>
<polygon fill="none" stroke="#63b8ff" points="181.65,-455.76 175.88,-451.44 177.65,-444.45 183.42,-448.77 181.65,-455.76"/>
</a>
</g>
<text text-anchor="middle" x="202.35" y="-464.5" font-family="Helvetica,sans-Serif" font-size="10.00" fill="grey"> #stats</text>
</g>
<!-- Node5 -->
<g id="Node000005" class="node">
<title>Node5</title>
<g id="a_Node000005"><a xlink:href="class_inventory.html" target="_top" xlink:title="Inventory class that holds all items for the player.">
<polygon fill="white" stroke="none" points="359.88,-388 220.38,-388 220.38,-264 359.88,-264 359.88,-388"/>
<text text-anchor="start" x="269.88" y="-374.5" font-family="Helvetica,sans-Serif" font-size="10.00">Inventory</text>
<text text-anchor="start" x="225.88" y="-358.5" font-family="Helvetica,sans-Serif" font-size="10.00">&#45;</text>
<text text-anchor="start" x="234.38" y="-358.5" font-family="Helvetica,sans-Serif" font-size="10.00">vector&lt; IItem * &gt; items</text>
<text text-anchor="start" x="224.38" y="-342.5" font-family="Helvetica,sans-Serif" font-size="10.00">+</text>
<text text-anchor="start" x="234.38" y="-342.5" font-family="Helvetica,sans-Serif" font-size="10.00">IItem * addItem(IItem *item,</text>
<text text-anchor="start" x="234.38" y="-330.5" font-family="Helvetica,sans-Serif" font-size="10.00"> bool animate=true)</text>
<text text-anchor="start" x="224.38" y="-314.5" font-family="Helvetica,sans-Serif" font-size="10.00">+</text>
<text text-anchor="start" x="234.38" y="-314.5" font-family="Helvetica,sans-Serif" font-size="10.00">void listItems()</text>
<text text-anchor="start" x="224.38" y="-298.5" font-family="Helvetica,sans-Serif" font-size="10.00">+</text>
<text text-anchor="start" x="234.38" y="-298.5" font-family="Helvetica,sans-Serif" font-size="10.00">bool useItem(int idx, Player</text>
<text text-anchor="start" x="234.38" y="-286.5" font-family="Helvetica,sans-Serif" font-size="10.00"> &amp;player, Entity *enemy)</text>
<text text-anchor="start" x="224.38" y="-270.5" font-family="Helvetica,sans-Serif" font-size="10.00">+</text>
<text text-anchor="start" x="234.38" y="-270.5" font-family="Helvetica,sans-Serif" font-size="10.00">void dropItem(int idx)</text>
<polygon fill="#666666" stroke="#666666" points="220.38,-370 220.38,-370 359.88,-370 359.88,-370 220.38,-370"/>
<polygon fill="#666666" stroke="#666666" points="220.38,-354 220.38,-354 232.38,-354 232.38,-354 220.38,-354"/>
<polygon fill="#666666" stroke="#666666" points="232.38,-354 232.38,-354 359.88,-354 359.88,-354 232.38,-354"/>
<polygon fill="none" stroke="#666666" points="220.38,-264 220.38,-388 359.88,-388 359.88,-264 220.38,-264"/>
</a>
</g>
</g>
<!-- Node5&#45;&gt;Node1 -->
<g id="edge4_Node000001_Node000005" class="edge">
<title>Node5&#45;&gt;Node1</title>
<g id="a_edge4_Node000001_Node000005"><a xlink:title=" ">
<path fill="none" stroke="#63b8ff" d="M270.89,-264.06C262.08,-236.14 251.46,-202.49 241.74,-171.68"/>
<polygon fill="none" stroke="#63b8ff" points="241.81,-171.89 236.19,-167.37 238.2,-160.45 243.82,-164.97 241.81,-171.89"/>
</a>
</g>
<text text-anchor="middle" x="271.39" y="-180.5" font-family="Helvetica,sans-Serif" font-size="10.00" fill="grey"> +inventory</text>
</g>
</g>
</svg>

<g id="navigator" transform="translate(0 0)" fill="#404254">
  <rect fill="#f2f5e9" fill-opacity="0.5" stroke="#606060" stroke-width=".5" x="0" y="0" width="60" height="60"/>
  <use id="zoomplus" xlink:href="#zoomPlus" x="17" y="9" onmousedown="handleZoom(evt,'in')"/>
  <use id="zoomminus" xlink:href="#zoomMin" x="42" y="9" onmousedown="handleZoom(evt,'out')"/>
  <use id="reset" xlink:href="#resetDef" x="30" y="36" onmousedown="handleReset()"/>
   <use id="arrowup" xlink:href="#arrowUp" x="0" y="0" onmousedown="handlePan(0,-1)"/>
  <use id="arrowright" xlink:href="#arrowRight" x="0" y="0" onmousedown="handlePan(1,0)"/>
  <use id="arrowdown" xlink:href="#arrowDown" x="0" y="0" onmousedown="handlePan(0,1)"/>
  <use id="arrowleft" xlink:href="#arrowLeft" x="0" y="0" onmousedown="handlePan(-1,0)"/>
</g>
<svg viewBox="0 0 15 15" width="100%" height="30px" preserveAspectRatio="xMaxYMin meet">
 <g id="arrow_out" transform="scale(0.3 0.3)">
  <a xlink:href="class_player__coll__graph_org.svg" target="_base">
   <rect id="button" ry="5" rx="5" y="6" x="6" height="38" width="38"
        fill="#f2f5e9" fill-opacity="0.5" stroke="#606060" stroke-width="1.0"/>
   <path id="arrow"
     d="M 11.500037,31.436501 C 11.940474,20.09759 22.043105,11.32322 32.158766,21.979434 L 37.068811,17.246167 C 37.068811,17.246167 37.088388,32 37.088388,32 L 22.160133,31.978069 C 22.160133,31.978069 26.997745,27.140456 26.997745,27.140456 C 18.528582,18.264221 13.291696,25.230495 11.500037,31.436501 z"
     style="fill:#404040;"/>
  </a>
 </g>
</svg>

<style type='text/css'>
<![CDATA[
[data-mouse-over-selected='false'] { opacity: 0.7; }
[data-mouse-over-selected='true']  { opacity: 1.0; }
]]>
</style>
<script type="application/ecmascript"><![CDATA[
document.addEventListener('DOMContentLoaded', (event) => {
  highlightEdges();
  highlightAdjacentNodes();
});
]]></script>
</svg>
