<?xml version="1.0" encoding="UTF-8" standalone="no"?>
<!DOCTYPE svg PUBLIC "-//W3C//DTD SVG 1.1//EN"
 "http://www.w3.org/Graphics/SVG/1.1/DTD/svg11.dtd">
<!-- Generated by graphviz version 12.2.1 (20241206.2353)
 -->
<!-- Title: Shop::listItems Pages: 1 -->
<svg width="219pt" height="104pt"
 viewBox="0.00 0.00 218.50 104.00" xmlns="http://www.w3.org/2000/svg" xmlns:xlink="http://www.w3.org/1999/xlink">
<g id="graph0" class="graph" transform="scale(1 1) rotate(0) translate(4 100)">
<title>Shop::listItems</title>
<!-- Node1 -->
<g id="Node000001" class="node">
<title>Node1</title>
<g id="a_Node000001"><a xlink:title=" ">
<polygon fill="#999999" stroke="#666666" points="82,-58 0,-58 0,-38 82,-38 82,-58"/>
<text text-anchor="middle" x="41" y="-44.5" font-family="Helvetica,sans-Serif" font-size="10.00">Shop::listItems</text>
</a>
</g>
</g>
<!-- Node2 -->
<g id="Node000002" class="node">
<title>Node2</title>
<g id="a_Node000002"><a xlink:href="class_player.html#abda4c0f24a59155522361079dce5d427" target="_top" xlink:title=" ">
<polygon fill="white" stroke="#666666" points="209.75,-96 118.75,-96 118.75,-76 209.75,-76 209.75,-96"/>
<text text-anchor="middle" x="164.25" y="-82.5" font-family="Helvetica,sans-Serif" font-size="10.00">Player::canAfford</text>
</a>
</g>
</g>
<!-- Node1&#45;&gt;Node2 -->
<g id="edge1_Node000001_Node000002" class="edge">
<title>Node1&#45;&gt;Node2</title>
<g id="a_edge1_Node000001_Node000002"><a xlink:title=" ">
<path fill="none" stroke="#63b8ff" d="M75.45,-58.48C88.97,-62.72 104.76,-67.67 119.19,-72.19"/>
<polygon fill="#63b8ff" stroke="#63b8ff" points="117.87,-75.45 128.46,-75.1 119.97,-68.77 117.87,-75.45"/>
</a>
</g>
</g>
<!-- Node3 -->
<g id="Node000003" class="node">
<title>Node3</title>
<g id="a_Node000003"><a xlink:href="extras_8cpp.html#a99d2755bf0660601280710515b3f512c" target="_top" xlink:title="Colors text.">
<polygon fill="white" stroke="#666666" points="198.5,-58 130,-58 130,-38 198.5,-38 198.5,-58"/>
<text text-anchor="middle" x="164.25" y="-44.5" font-family="Helvetica,sans-Serif" font-size="10.00">colorizeText</text>
</a>
</g>
</g>
<!-- Node1&#45;&gt;Node3 -->
<g id="edge2_Node000001_Node000003" class="edge">
<title>Node1&#45;&gt;Node3</title>
<g id="a_edge2_Node000001_Node000003"><a xlink:title=" ">
<path fill="none" stroke="#63b8ff" d="M82.37,-48C93.84,-48 106.41,-48 118.14,-48"/>
<polygon fill="#63b8ff" stroke="#63b8ff" points="118.01,-51.5 128.01,-48 118.01,-44.5 118.01,-51.5"/>
</a>
</g>
</g>
<!-- Node4 -->
<g id="Node000004" class="node">
<title>Node4</title>
<g id="a_Node000004"><a xlink:href="class_player.html#ac45154df7c4eb2d1d58255c3ff1c55dd" target="_top" xlink:title=" ">
<polygon fill="white" stroke="#666666" points="210.5,-20 118,-20 118,0 210.5,0 210.5,-20"/>
<text text-anchor="middle" x="164.25" y="-6.5" font-family="Helvetica,sans-Serif" font-size="10.00">Player::getMoney</text>
</a>
</g>
</g>
<!-- Node1&#45;&gt;Node4 -->
<g id="edge3_Node000001_Node000004" class="edge">
<title>Node1&#45;&gt;Node4</title>
<g id="a_edge3_Node000001_Node000004"><a xlink:title=" ">
<path fill="none" stroke="#63b8ff" d="M75.45,-37.52C88.97,-33.28 104.76,-28.33 119.19,-23.81"/>
<polygon fill="#63b8ff" stroke="#63b8ff" points="119.97,-27.23 128.46,-20.9 117.87,-20.55 119.97,-27.23"/>
</a>
</g>
</g>
</g>
</svg>
