<?xml version="1.0" encoding="UTF-8" standalone="no"?>
<!DOCTYPE svg PUBLIC "-//W3C//DTD SVG 1.1//EN"
 "http://www.w3.org/Graphics/SVG/1.1/DTD/svg11.dtd">
<!-- Generated by graphviz version 12.2.1 (20241206.2353)
 -->
<!-- Title: IPlayerItem::IPlayerItem Pages: 1 -->
<svg width="437pt" height="66pt"
 viewBox="0.00 0.00 437.00 66.00" xmlns="http://www.w3.org/2000/svg" xmlns:xlink="http://www.w3.org/1999/xlink">
<g id="graph0" class="graph" transform="scale(1 1) rotate(0) translate(4 62)">
<title>IPlayerItem::IPlayerItem</title>
<!-- Node1 -->
<g id="Node000001" class="node">
<title>Node1</title>
<g id="a_Node000001"><a xlink:title=" ">
<polygon fill="#999999" stroke="#666666" points="429,-39 306.5,-39 306.5,-19 429,-19 429,-39"/>
<text text-anchor="middle" x="367.75" y="-25.5" font-family="Helvetica,sans-Serif" font-size="10.00">IPlayerItem::IPlayerItem</text>
</a>
</g>
</g>
<!-- Node2 -->
<g id="Node000002" class="node">
<title>Node2</title>
<g id="a_Node000002"><a xlink:href="class_i_potion.html#af960db386ba9efea5adcde6ec80fe943" target="_top" xlink:title=" ">
<polygon fill="white" stroke="#666666" points="270.5,-39 187,-39 187,-19 270.5,-19 270.5,-39"/>
<text text-anchor="middle" x="228.75" y="-25.5" font-family="Helvetica,sans-Serif" font-size="10.00">IPotion::IPotion</text>
</a>
</g>
</g>
<!-- Node1&#45;&gt;Node2 -->
<g id="edge1_Node000001_Node000002" class="edge">
<title>Node1&#45;&gt;Node2</title>
<g id="a_edge1_Node000001_Node000002"><a xlink:title=" ">
<path fill="none" stroke="#63b8ff" d="M294.92,-29C286.6,-29 278.34,-29 270.65,-29"/>
<polygon fill="#63b8ff" stroke="#63b8ff" points="294.75,-32.5 304.75,-29 294.75,-25.5 294.75,-32.5"/>
</a>
</g>
</g>
<!-- Node3 -->
<g id="Node000003" class="node">
<title>Node3</title>
<g id="a_Node000003"><a xlink:href="class_health_potion.html#a6ff8807a7aae10c5ce186c793b7f359c" target="_top" xlink:title=" ">
<polygon fill="white" stroke="#666666" points="142.75,-58 8.25,-58 8.25,-38 142.75,-38 142.75,-58"/>
<text text-anchor="middle" x="75.5" y="-44.5" font-family="Helvetica,sans-Serif" font-size="10.00">HealthPotion::HealthPotion</text>
</a>
</g>
</g>
<!-- Node2&#45;&gt;Node3 -->
<g id="edge2_Node000002_Node000003" class="edge">
<title>Node2&#45;&gt;Node3</title>
<g id="a_edge2_Node000002_Node000003"><a xlink:title=" ">
<path fill="none" stroke="#63b8ff" d="M175.73,-35.53C165.23,-36.85 154.05,-38.26 143.12,-39.63"/>
<polygon fill="#63b8ff" stroke="#63b8ff" points="175.83,-39.05 185.32,-34.33 174.96,-32.1 175.83,-39.05"/>
</a>
</g>
</g>
<!-- Node4 -->
<g id="Node000004" class="node">
<title>Node4</title>
<g id="a_Node000004"><a xlink:href="class_strength_potion.html#aa5d71087de02a8d775b0c07825e4ca2f" target="_top" xlink:title=" ">
<polygon fill="white" stroke="#666666" points="151,-20 0,-20 0,0 151,0 151,-20"/>
<text text-anchor="middle" x="75.5" y="-6.5" font-family="Helvetica,sans-Serif" font-size="10.00">StrengthPotion::StrengthPotion</text>
</a>
</g>
</g>
<!-- Node2&#45;&gt;Node4 -->
<g id="edge3_Node000002_Node000004" class="edge">
<title>Node2&#45;&gt;Node4</title>
<g id="a_edge3_Node000002_Node000004"><a xlink:title=" ">
<path fill="none" stroke="#63b8ff" d="M175.61,-22.45C167.74,-21.46 159.5,-20.43 151.27,-19.39"/>
<polygon fill="#63b8ff" stroke="#63b8ff" points="174.96,-25.9 185.32,-23.67 175.83,-18.95 174.96,-25.9"/>
</a>
</g>
</g>
</g>
</svg>
