<?xml version="1.0" encoding="UTF-8" standalone="no"?>
<!DOCTYPE svg PUBLIC "-//W3C//DTD SVG 1.1//EN"
 "http://www.w3.org/Graphics/SVG/1.1/DTD/svg11.dtd">
<!-- Generated by graphviz version 12.2.1 (20241206.2353)
 -->
<!-- Title: UIWithPlayer Pages: 1 -->
<svg width="383pt" height="540pt"
 viewBox="0.00 0.00 382.88 540.00" xmlns="http://www.w3.org/2000/svg" xmlns:xlink="http://www.w3.org/1999/xlink">
<g id="graph0" class="graph" transform="scale(1 1) rotate(0) translate(4 536)">
<title>UIWithPlayer</title>
<!-- Node1 -->
<g id="Node000001" class="node">
<title>Node1</title>
<g id="a_Node000001"><a xlink:title="Basically just the base class for all user interfaces that have a player.">
<polygon fill="#999999" stroke="none" points="166,-68 26.5,-68 26.5,0 166,0 166,-68"/>
<text text-anchor="start" x="67" y="-54.5" font-family="Helvetica,sans-Serif" font-size="10.00">UIWithPlayer</text>
<text text-anchor="start" x="94.75" y="-38.5" font-family="Helvetica,sans-Serif" font-size="10.00"> </text>
<text text-anchor="start" x="30.5" y="-22.5" font-family="Helvetica,sans-Serif" font-size="10.00">+</text>
<text text-anchor="start" x="40.5" y="-22.5" font-family="Helvetica,sans-Serif" font-size="10.00">UIWithPlayer()</text>
<text text-anchor="start" x="30.5" y="-6.5" font-family="Helvetica,sans-Serif" font-size="10.00">+</text>
<text text-anchor="start" x="40.5" y="-6.5" font-family="Helvetica,sans-Serif" font-size="10.00">UIWithPlayer(Player player)</text>
<polygon fill="#666666" stroke="#666666" points="26.5,-50 26.5,-50 166,-50 166,-50 26.5,-50"/>
<polygon fill="#666666" stroke="#666666" points="26.5,-34 26.5,-34 166,-34 166,-34 26.5,-34"/>
<polygon fill="none" stroke="#666666" points="26.5,0 26.5,-68 166,-68 166,0 26.5,0"/>
</a>
</g>
</g>
<!-- Node2 -->
<g id="Node000002" class="node">
<title>Node2</title>
<g id="a_Node000002"><a xlink:href="class_user_interface.html" target="_top" xlink:title="Base class for all user interfaces in the game.">
<polygon fill="white" stroke="none" points="160.5,-198 0,-198 0,-130 160.5,-130 160.5,-198"/>
<text text-anchor="start" x="50.62" y="-184.5" font-family="Helvetica,sans-Serif" font-size="10.00">UserInterface</text>
<text text-anchor="start" x="4" y="-168.5" font-family="Helvetica,sans-Serif" font-size="10.00">+</text>
<text text-anchor="start" x="14" y="-168.5" font-family="Helvetica,sans-Serif" font-size="10.00">bool quitGame</text>
<text text-anchor="start" x="4" y="-152.5" font-family="Helvetica,sans-Serif" font-size="10.00">+</text>
<text text-anchor="start" x="14" y="-152.5" font-family="Helvetica,sans-Serif" font-size="10.00">virtual UserInterface * render()=0</text>
<text text-anchor="start" x="4" y="-136.5" font-family="Helvetica,sans-Serif" font-size="10.00">+</text>
<text text-anchor="start" x="14" y="-136.5" font-family="Helvetica,sans-Serif" font-size="10.00">virtual ~UserInterface()</text>
<polygon fill="#666666" stroke="#666666" points="0,-180 0,-180 160.5,-180 160.5,-180 0,-180"/>
<polygon fill="#666666" stroke="#666666" points="0,-164 0,-164 12,-164 12,-164 0,-164"/>
<polygon fill="#666666" stroke="#666666" points="12,-164 12,-164 160.5,-164 160.5,-164 12,-164"/>
<polygon fill="none" stroke="#666666" points="0,-130 0,-198 160.5,-198 160.5,-130 0,-130"/>
</a>
</g>
</g>
<!-- Node2&#45;&gt;Node1 -->
<g id="edge1_Node000001_Node000002" class="edge">
<title>Node2&#45;&gt;Node1</title>
<g id="a_edge1_Node000001_Node000002"><a xlink:title=" ">
<path fill="none" stroke="#63b8ff" d="M85.77,-118.84C87.86,-102.1 90.2,-83.36 92.14,-67.85"/>
<polygon fill="none" stroke="#63b8ff" points="82.33,-118.18 84.56,-128.53 89.27,-119.05 82.33,-118.18"/>
</a>
</g>
</g>
<!-- Node3 -->
<g id="Node000003" class="node">
<title>Node3</title>
<g id="a_Node000003"><a xlink:href="class_player.html" target="_top" xlink:title="The Player class is an Entity that has an inventory and money.">
<polygon fill="white" stroke="none" points="341.62,-212 178.88,-212 178.88,-116 341.62,-116 341.62,-212"/>
<text text-anchor="start" x="246.38" y="-198.5" font-family="Helvetica,sans-Serif" font-size="10.00">Player</text>
<text text-anchor="start" x="182.88" y="-182.5" font-family="Helvetica,sans-Serif" font-size="10.00">+</text>
<text text-anchor="start" x="192.88" y="-182.5" font-family="Helvetica,sans-Serif" font-size="10.00">int money</text>
<text text-anchor="start" x="182.88" y="-166.5" font-family="Helvetica,sans-Serif" font-size="10.00">+</text>
<text text-anchor="start" x="192.88" y="-166.5" font-family="Helvetica,sans-Serif" font-size="10.00">Player()</text>
<text text-anchor="start" x="182.88" y="-150.5" font-family="Helvetica,sans-Serif" font-size="10.00">+</text>
<text text-anchor="start" x="192.88" y="-150.5" font-family="Helvetica,sans-Serif" font-size="10.00">Player(int health, string</text>
<text text-anchor="start" x="192.88" y="-138.5" font-family="Helvetica,sans-Serif" font-size="10.00"> name, int atk, int def, int money)</text>
<text text-anchor="start" x="182.88" y="-122.5" font-family="Helvetica,sans-Serif" font-size="10.00">+</text>
<text text-anchor="start" x="192.88" y="-122.5" font-family="Helvetica,sans-Serif" font-size="10.00">void addMoney(int amount)</text>
<polygon fill="#666666" stroke="#666666" points="178.88,-194 178.88,-194 341.62,-194 341.62,-194 178.88,-194"/>
<polygon fill="#666666" stroke="#666666" points="178.88,-178 178.88,-178 190.88,-178 190.88,-178 178.88,-178"/>
<polygon fill="#666666" stroke="#666666" points="190.88,-178 190.88,-178 341.62,-178 341.62,-178 190.88,-178"/>
<polygon fill="none" stroke="#666666" points="178.88,-116 178.88,-212 341.62,-212 341.62,-116 178.88,-116"/>
</a>
</g>
</g>
<!-- Node3&#45;&gt;Node1 -->
<g id="edge2_Node000001_Node000003" class="edge">
<title>Node3&#45;&gt;Node1</title>
<g id="a_edge2_Node000001_Node000003"><a xlink:title=" ">
<path fill="none" stroke="#63b8ff" d="M200.11,-116.06C183.16,-102.83 164.85,-88.54 148.4,-75.71"/>
<polygon fill="none" stroke="#63b8ff" points="148.6,-75.86 141.41,-75.32 139.14,-68.48 146.33,-69.01 148.6,-75.86"/>
</a>
</g>
<text text-anchor="middle" x="190.96" y="-88.5" font-family="Helvetica,sans-Serif" font-size="10.00" fill="grey"> +player</text>
</g>
<!-- Node4 -->
<g id="Node000004" class="node">
<title>Node4</title>
<g id="a_Node000004"><a xlink:href="class_entity.html" target="_top" xlink:title="Base class for all entities in the game. This includes the player and enemies.">
<polygon fill="white" stroke="none" points="219.25,-400 87.25,-400 87.25,-260 219.25,-260 219.25,-400"/>
<text text-anchor="start" x="140.5" y="-386.5" font-family="Helvetica,sans-Serif" font-size="10.00">Entity</text>
<text text-anchor="start" x="91.25" y="-370.5" font-family="Helvetica,sans-Serif" font-size="10.00">+</text>
<text text-anchor="start" x="101.25" y="-370.5" font-family="Helvetica,sans-Serif" font-size="10.00">int maxHealth</text>
<text text-anchor="start" x="91.25" y="-354.5" font-family="Helvetica,sans-Serif" font-size="10.00">+</text>
<text text-anchor="start" x="101.25" y="-354.5" font-family="Helvetica,sans-Serif" font-size="10.00">int currHealth</text>
<text text-anchor="start" x="91.25" y="-338.5" font-family="Helvetica,sans-Serif" font-size="10.00">+</text>
<text text-anchor="start" x="101.25" y="-338.5" font-family="Helvetica,sans-Serif" font-size="10.00">string name</text>
<text text-anchor="start" x="91.25" y="-322.5" font-family="Helvetica,sans-Serif" font-size="10.00">+</text>
<text text-anchor="start" x="101.25" y="-322.5" font-family="Helvetica,sans-Serif" font-size="10.00">Entity(int health, string</text>
<text text-anchor="start" x="101.25" y="-310.5" font-family="Helvetica,sans-Serif" font-size="10.00"> name, int atk, int def)</text>
<text text-anchor="start" x="91.25" y="-294.5" font-family="Helvetica,sans-Serif" font-size="10.00">+</text>
<text text-anchor="start" x="101.25" y="-294.5" font-family="Helvetica,sans-Serif" font-size="10.00">virtual ~Entity()</text>
<text text-anchor="start" x="91.25" y="-278.5" font-family="Helvetica,sans-Serif" font-size="10.00">+</text>
<text text-anchor="start" x="101.25" y="-278.5" font-family="Helvetica,sans-Serif" font-size="10.00">void attack(Entity &amp;target,</text>
<text text-anchor="start" x="101.25" y="-266.5" font-family="Helvetica,sans-Serif" font-size="10.00"> int extraDmg=0)</text>
<polygon fill="#666666" stroke="#666666" points="87.25,-382 87.25,-382 219.25,-382 219.25,-382 87.25,-382"/>
<polygon fill="#666666" stroke="#666666" points="87.25,-334 87.25,-334 99.25,-334 99.25,-334 87.25,-334"/>
<polygon fill="#666666" stroke="#666666" points="99.25,-334 99.25,-334 219.25,-334 219.25,-334 99.25,-334"/>
<polygon fill="none" stroke="#666666" points="87.25,-260 87.25,-400 219.25,-400 219.25,-260 87.25,-260"/>
</a>
</g>
</g>
<!-- Node4&#45;&gt;Node3 -->
<g id="edge3_Node000003_Node000004" class="edge">
<title>Node4&#45;&gt;Node3</title>
<g id="a_edge3_Node000003_Node000004"><a xlink:title=" ">
<path fill="none" stroke="#63b8ff" d="M204.29,-250.77C212.96,-237.49 221.71,-224.07 229.64,-211.92"/>
<polygon fill="none" stroke="#63b8ff" points="201.37,-248.84 198.83,-259.13 207.23,-252.67 201.37,-248.84"/>
</a>
</g>
</g>
<!-- Node5 -->
<g id="Node000005" class="node">
<title>Node5</title>
<g id="a_Node000005"><a xlink:href="class_stats.html" target="_top" xlink:title="Stats for all entities.">
<polygon fill="white" stroke="none" points="198.62,-532 107.88,-532 107.88,-448 198.62,-448 198.62,-532"/>
<text text-anchor="start" x="141.62" y="-518.5" font-family="Helvetica,sans-Serif" font-size="10.00">Stats</text>
<text text-anchor="start" x="111.88" y="-502.5" font-family="Helvetica,sans-Serif" font-size="10.00">+</text>
<text text-anchor="start" x="121.88" y="-502.5" font-family="Helvetica,sans-Serif" font-size="10.00">int atk</text>
<text text-anchor="start" x="111.88" y="-486.5" font-family="Helvetica,sans-Serif" font-size="10.00">+</text>
<text text-anchor="start" x="121.88" y="-486.5" font-family="Helvetica,sans-Serif" font-size="10.00">int def</text>
<text text-anchor="start" x="111.88" y="-470.5" font-family="Helvetica,sans-Serif" font-size="10.00">+</text>
<text text-anchor="start" x="121.88" y="-470.5" font-family="Helvetica,sans-Serif" font-size="10.00">Stats()</text>
<text text-anchor="start" x="111.88" y="-454.5" font-family="Helvetica,sans-Serif" font-size="10.00">+</text>
<text text-anchor="start" x="121.88" y="-454.5" font-family="Helvetica,sans-Serif" font-size="10.00">Stats(int x, int y)</text>
<polygon fill="#666666" stroke="#666666" points="107.88,-514 107.88,-514 198.62,-514 198.62,-514 107.88,-514"/>
<polygon fill="#666666" stroke="#666666" points="107.88,-482 107.88,-482 119.88,-482 119.88,-482 107.88,-482"/>
<polygon fill="#666666" stroke="#666666" points="119.88,-482 119.88,-482 198.62,-482 198.62,-482 119.88,-482"/>
<polygon fill="none" stroke="#666666" points="107.88,-448 107.88,-532 198.62,-532 198.62,-448 107.88,-448"/>
</a>
</g>
</g>
<!-- Node5&#45;&gt;Node4 -->
<g id="edge4_Node000004_Node000005" class="edge">
<title>Node5&#45;&gt;Node4</title>
<g id="a_edge4_Node000004_Node000005"><a xlink:title=" ">
<path fill="none" stroke="#63b8ff" d="M153.25,-448.31C153.25,-437.32 153.25,-425.02 153.25,-412.63"/>
<polygon fill="none" stroke="#63b8ff" points="153.25,-412.65 149.25,-406.65 153.25,-400.65 157.25,-406.65 153.25,-412.65"/>
</a>
</g>
<text text-anchor="middle" x="168.62" y="-420.5" font-family="Helvetica,sans-Serif" font-size="10.00" fill="grey"> +stats</text>
</g>
<!-- Node6 -->
<g id="Node000006" class="node">
<title>Node6</title>
<g id="a_Node000006"><a xlink:href="class_inventory.html" target="_top" xlink:title="Inventory class that holds all items for the player.">
<polygon fill="white" stroke="none" points="374.88,-386 237.62,-386 237.62,-274 374.88,-274 374.88,-386"/>
<text text-anchor="start" x="286" y="-372.5" font-family="Helvetica,sans-Serif" font-size="10.00">Inventory</text>
<text text-anchor="start" x="241.62" y="-356.5" font-family="Helvetica,sans-Serif" font-size="10.00">+</text>
<text text-anchor="start" x="251.62" y="-356.5" font-family="Helvetica,sans-Serif" font-size="10.00">vector&lt; IItem * &gt; items</text>
<text text-anchor="start" x="241.62" y="-340.5" font-family="Helvetica,sans-Serif" font-size="10.00">+</text>
<text text-anchor="start" x="251.62" y="-340.5" font-family="Helvetica,sans-Serif" font-size="10.00">void addItem(IItem *item)</text>
<text text-anchor="start" x="241.62" y="-324.5" font-family="Helvetica,sans-Serif" font-size="10.00">+</text>
<text text-anchor="start" x="251.62" y="-324.5" font-family="Helvetica,sans-Serif" font-size="10.00">void listItems()</text>
<text text-anchor="start" x="241.62" y="-308.5" font-family="Helvetica,sans-Serif" font-size="10.00">+</text>
<text text-anchor="start" x="251.62" y="-308.5" font-family="Helvetica,sans-Serif" font-size="10.00">bool useItem(int idx, Player</text>
<text text-anchor="start" x="251.62" y="-296.5" font-family="Helvetica,sans-Serif" font-size="10.00"> &amp;player, Entity *enemy)</text>
<text text-anchor="start" x="241.62" y="-280.5" font-family="Helvetica,sans-Serif" font-size="10.00">+</text>
<text text-anchor="start" x="251.62" y="-280.5" font-family="Helvetica,sans-Serif" font-size="10.00">void dropItem(int idx)</text>
<polygon fill="#666666" stroke="#666666" points="237.62,-368 237.62,-368 374.88,-368 374.88,-368 237.62,-368"/>
<polygon fill="#666666" stroke="#666666" points="237.62,-352 237.62,-352 249.62,-352 249.62,-352 237.62,-352"/>
<polygon fill="#666666" stroke="#666666" points="249.62,-352 249.62,-352 374.88,-352 374.88,-352 249.62,-352"/>
<polygon fill="none" stroke="#666666" points="237.62,-274 237.62,-386 374.88,-386 374.88,-274 237.62,-274"/>
</a>
</g>
</g>
<!-- Node6&#45;&gt;Node3 -->
<g id="edge5_Node000003_Node000006" class="edge">
<title>Node6&#45;&gt;Node3</title>
<g id="a_edge5_Node000003_Node000006"><a xlink:title=" ">
<path fill="none" stroke="#63b8ff" d="M290.93,-274.39C286.41,-258.28 281.45,-240.57 276.85,-224.18"/>
<polygon fill="none" stroke="#63b8ff" points="276.91,-224.38 271.43,-219.69 273.67,-212.83 279.14,-217.52 276.91,-224.38"/>
</a>
</g>
<text text-anchor="middle" x="304.87" y="-232.5" font-family="Helvetica,sans-Serif" font-size="10.00" fill="grey"> +inventory</text>
</g>
</g>
</svg>
