<?xml version="1.0" encoding="UTF-8" standalone="no"?>
<!DOCTYPE svg PUBLIC "-//W3C//DTD SVG 1.1//EN"
 "http://www.w3.org/Graphics/SVG/1.1/DTD/svg11.dtd">
<!-- Generated by graphviz version 12.2.1 (20241206.2353)
 -->
<!-- Title: UIWithPlayer::UIWithPlayer Pages: 1 -->
<svg width="472pt" height="218pt"
 viewBox="0.00 0.00 471.50 218.00" xmlns="http://www.w3.org/2000/svg" xmlns:xlink="http://www.w3.org/1999/xlink">
<g id="graph0" class="graph" transform="scale(1 1) rotate(0) translate(4 214)">
<title>UIWithPlayer::UIWithPlayer</title>
<!-- Node1 -->
<g id="Node000001" class="node">
<title>Node1</title>
<g id="a_Node000001"><a xlink:title=" ">
<polygon fill="#999999" stroke="#666666" points="463.5,-115 324.5,-115 324.5,-95 463.5,-95 463.5,-115"/>
<text text-anchor="middle" x="394" y="-101.5" font-family="Helvetica,sans-Serif" font-size="10.00">UIWithPlayer::UIWithPlayer</text>
</a>
</g>
</g>
<!-- Node2 -->
<g id="Node000002" class="node">
<title>Node2</title>
<g id="a_Node000002"><a xlink:href="class_battle.html#a1694a71b470caac28b6a25131fc283db" target="_top" xlink:title=" ">
<polygon fill="white" stroke="#666666" points="245.75,-210 172.75,-210 172.75,-190 245.75,-190 245.75,-210"/>
<text text-anchor="middle" x="209.25" y="-196.5" font-family="Helvetica,sans-Serif" font-size="10.00">Battle::Battle</text>
</a>
</g>
</g>
<!-- Node1&#45;&gt;Node2 -->
<g id="edge1_Node000001_Node000002" class="edge">
<title>Node1&#45;&gt;Node2</title>
<g id="a_edge1_Node000001_Node000002"><a xlink:title=" ">
<path fill="none" stroke="#63b8ff" d="M373.57,-122.78C353.63,-140.1 321.01,-165.95 288.5,-181 275.18,-187.17 259.62,-191.47 245.9,-194.4"/>
<polygon fill="#63b8ff" stroke="#63b8ff" points="375.74,-125.53 380.9,-116.28 371.1,-120.29 375.74,-125.53"/>
</a>
</g>
</g>
<!-- Node3 -->
<g id="Node000003" class="node">
<title>Node3</title>
<g id="a_Node000003"><a xlink:href="class_first_choice.html#ab558b2266c9fd092cce3961d7ed318dd" target="_top" xlink:title=" ">
<polygon fill="white" stroke="#666666" points="270.5,-172 148,-172 148,-152 270.5,-152 270.5,-172"/>
<text text-anchor="middle" x="209.25" y="-158.5" font-family="Helvetica,sans-Serif" font-size="10.00">FirstChoice::FirstChoice</text>
</a>
</g>
</g>
<!-- Node1&#45;&gt;Node3 -->
<g id="edge2_Node000001_Node000003" class="edge">
<title>Node1&#45;&gt;Node3</title>
<g id="a_edge2_Node000001_Node000003"><a xlink:title=" ">
<path fill="none" stroke="#63b8ff" d="M356.59,-119.36C336.66,-126.94 311.42,-136.07 288.5,-143 278.33,-146.07 267.3,-149 256.82,-151.59"/>
<polygon fill="#63b8ff" stroke="#63b8ff" points="357.58,-122.73 365.66,-115.88 355.07,-116.2 357.58,-122.73"/>
</a>
</g>
</g>
<!-- Node4 -->
<g id="Node000004" class="node">
<title>Node4</title>
<g id="a_Node000004"><a xlink:href="class_gamble_menu.html#af209a7906361f1bc4af1785808cc3619" target="_top" xlink:title=" ">
<polygon fill="white" stroke="#666666" points="278,-134 140.5,-134 140.5,-114 278,-114 278,-134"/>
<text text-anchor="middle" x="209.25" y="-120.5" font-family="Helvetica,sans-Serif" font-size="10.00">GambleMenu::GambleMenu</text>
</a>
</g>
</g>
<!-- Node1&#45;&gt;Node4 -->
<g id="edge3_Node000001_Node000004" class="edge">
<title>Node1&#45;&gt;Node4</title>
<g id="a_edge3_Node000001_Node000004"><a xlink:title=" ">
<path fill="none" stroke="#63b8ff" d="M312.81,-113.34C301.33,-114.53 289.62,-115.75 278.41,-116.91"/>
<polygon fill="#63b8ff" stroke="#63b8ff" points="313.08,-116.83 322.67,-112.31 312.36,-109.87 313.08,-116.83"/>
</a>
</g>
</g>
<!-- Node5 -->
<g id="Node000005" class="node">
<title>Node5</title>
<g id="a_Node000005"><a xlink:href="class_jovial_aftermath.html#a659fbf685d87b29f3cdaa6095a9118e8" target="_top" xlink:title=" ">
<polygon fill="white" stroke="#666666" points="288.5,-96 130,-96 130,-76 288.5,-76 288.5,-96"/>
<text text-anchor="middle" x="209.25" y="-82.5" font-family="Helvetica,sans-Serif" font-size="10.00">JovialAftermath::JovialAftermath</text>
</a>
</g>
</g>
<!-- Node1&#45;&gt;Node5 -->
<g id="edge4_Node000001_Node000005" class="edge">
<title>Node1&#45;&gt;Node5</title>
<g id="a_edge4_Node000001_Node000005"><a xlink:title=" ">
<path fill="none" stroke="#63b8ff" d="M312.96,-96.68C304.95,-95.85 296.82,-95 288.83,-94.17"/>
<polygon fill="#63b8ff" stroke="#63b8ff" points="312.36,-100.13 322.67,-97.69 313.08,-93.17 312.36,-100.13"/>
</a>
</g>
</g>
<!-- Node6 -->
<g id="Node000006" class="node">
<title>Node6</title>
<g id="a_Node000006"><a xlink:href="class_jovial_cutscene.html#a5c701fca1ba4f12af2184b028d465e6d" target="_top" xlink:title=" ">
<polygon fill="white" stroke="#666666" points="287.75,-58 130.75,-58 130.75,-38 287.75,-38 287.75,-58"/>
<text text-anchor="middle" x="209.25" y="-44.5" font-family="Helvetica,sans-Serif" font-size="10.00">JovialCutscene::JovialCutscene</text>
</a>
</g>
</g>
<!-- Node1&#45;&gt;Node6 -->
<g id="edge5_Node000001_Node000006" class="edge">
<title>Node1&#45;&gt;Node6</title>
<g id="a_edge5_Node000001_Node000006"><a xlink:title=" ">
<path fill="none" stroke="#63b8ff" d="M356.59,-90.64C336.66,-83.06 311.42,-73.93 288.5,-67 278.33,-63.93 267.3,-61 256.82,-58.41"/>
<polygon fill="#63b8ff" stroke="#63b8ff" points="355.07,-93.8 365.66,-94.12 357.58,-87.27 355.07,-93.8"/>
</a>
</g>
</g>
<!-- Node7 -->
<g id="Node000007" class="node">
<title>Node7</title>
<g id="a_Node000007"><a xlink:href="class_main_menu.html#a40f98ff78c92e3f79b781b7ed18507a7" target="_top" xlink:title=" ">
<polygon fill="white" stroke="#666666" points="265.25,-20 153.25,-20 153.25,0 265.25,0 265.25,-20"/>
<text text-anchor="middle" x="209.25" y="-6.5" font-family="Helvetica,sans-Serif" font-size="10.00">MainMenu::MainMenu</text>
</a>
</g>
</g>
<!-- Node1&#45;&gt;Node7 -->
<g id="edge6_Node000001_Node000007" class="edge">
<title>Node1&#45;&gt;Node7</title>
<g id="a_edge6_Node000001_Node000007"><a xlink:title=" ">
<path fill="none" stroke="#63b8ff" d="M373.57,-87.22C353.63,-69.9 321.01,-44.05 288.5,-29 281.14,-25.59 273.1,-22.76 265.06,-20.4"/>
<polygon fill="#63b8ff" stroke="#63b8ff" points="371.1,-89.71 380.9,-93.72 375.74,-84.47 371.1,-89.71"/>
</a>
</g>
</g>
<!-- Node8 -->
<g id="Node000008" class="node">
<title>Node8</title>
<g id="a_Node000008"><a xlink:href="class_main_menu.html#adeafd7b49d1f995dd25a7e952700d76c" target="_top" xlink:title=" ">
<polygon fill="white" stroke="#666666" points="94,-20 0,-20 0,0 94,0 94,-20"/>
<text text-anchor="middle" x="47" y="-6.5" font-family="Helvetica,sans-Serif" font-size="10.00">MainMenu::render</text>
</a>
</g>
</g>
<!-- Node7&#45;&gt;Node8 -->
<g id="edge7_Node000007_Node000008" class="edge">
<title>Node7&#45;&gt;Node8</title>
<g id="a_edge7_Node000007_Node000008"><a xlink:title=" ">
<path fill="none" stroke="#63b8ff" d="M141.7,-10C125.82,-10 109.21,-10 94.46,-10"/>
<polygon fill="#63b8ff" stroke="#63b8ff" points="141.59,-13.5 151.59,-10 141.59,-6.5 141.59,-13.5"/>
</a>
</g>
</g>
</g>
</svg>
