<?xml version="1.0" encoding="UTF-8" standalone="no"?>
<!DOCTYPE svg PUBLIC "-//W3C//DTD SVG 1.1//EN"
 "http://www.w3.org/Graphics/SVG/1.1/DTD/svg11.dtd">
<!-- Generated by graphviz version 12.2.1 (20241206.2353)
 -->
<!-- Title: Weapon::use Pages: 1 -->
<svg width="315pt" height="66pt"
 viewBox="0.00 0.00 314.75 66.00" xmlns="http://www.w3.org/2000/svg" xmlns:xlink="http://www.w3.org/1999/xlink">

<svg id="main" version="1.1" xmlns="http://www.w3.org/2000/svg" xmlns:xlink="http://www.w3.org/1999/xlink" xml:space="preserve">

<style type="text/css"><![CDATA[
.node, .edge {opacity: 0.7;}
.node.selected, .edge.selected {opacity: 1;}
.edge:hover path { stroke: red; }
.edge:hover polygon { stroke: red; fill: red; }
]]></style>
<script type="application/ecmascript" xlink:href="svg.min.js"/>
<svg id="graph" class="graph">
<g id="graph0" class="graph" transform="scale(1 1) rotate(0) translate(4 62)">
<title>Weapon::use</title>
<!-- Node1 -->
<g id="Node000001" class="node">
<title>Node1</title>
<g id="a_Node000001"><a xlink:title=" ">
<polygon fill="#999999" stroke="#666666" points="73,-39 0,-39 0,-19 73,-19 73,-39"/>
<text text-anchor="middle" x="36.5" y="-25.5" font-family="Helvetica,sans-Serif" font-size="10.00">Weapon::use</text>
</a>
</g>
</g>
<!-- Node2 -->
<g id="Node000002" class="node">
<title>Node2</title>
<g id="a_Node000002"><a xlink:href="class_entity.html#a44aad07756d6f00abf8f08ffde6eb217" target="_top" xlink:title=" ">
<polygon fill="white" stroke="#666666" points="183.5,-39 109,-39 109,-19 183.5,-19 183.5,-39"/>
<text text-anchor="middle" x="146.25" y="-25.5" font-family="Helvetica,sans-Serif" font-size="10.00">Entity::attack</text>
</a>
</g>
</g>
<!-- Node1&#45;&gt;Node2 -->
<g id="edge1_Node000001_Node000002" class="edge">
<title>Node1&#45;&gt;Node2</title>
<g id="a_edge1_Node000001_Node000002"><a xlink:title=" ">
<path fill="none" stroke="#63b8ff" d="M73.38,-29C81.12,-29 89.42,-29 97.53,-29"/>
<polygon fill="#63b8ff" stroke="#63b8ff" points="97.28,-32.5 107.28,-29 97.28,-25.5 97.28,-32.5"/>
</a>
</g>
</g>
<!-- Node3 -->
<g id="Node000003" class="node">
<title>Node3</title>
<g id="a_Node000003"><a xlink:href="class_entity.html#ac55fe185f7ccba9e35abf13517c65f63" target="_top" xlink:title=" ">
<polygon fill="white" stroke="#666666" points="299.62,-58 226.62,-58 226.62,-38 299.62,-38 299.62,-58"/>
<text text-anchor="middle" x="263.12" y="-44.5" font-family="Helvetica,sans-Serif" font-size="10.00">Entity::Entity</text>
</a>
</g>
</g>
<!-- Node2&#45;&gt;Node3 -->
<g id="edge2_Node000002_Node000003" class="edge">
<title>Node2&#45;&gt;Node3</title>
<g id="a_edge2_Node000002_Node000003"><a xlink:title=" ">
<path fill="none" stroke="#63b8ff" d="M183.91,-35.06C193.85,-36.71 204.74,-38.51 215.15,-40.23"/>
<polygon fill="#63b8ff" stroke="#63b8ff" points="214.27,-43.63 224.71,-41.81 215.41,-36.73 214.27,-43.63"/>
</a>
</g>
</g>
<!-- Node4 -->
<g id="Node000004" class="node">
<title>Node4</title>
<g id="a_Node000004"><a xlink:href="class_entity.html#a4f777fc6bf2b1d5a655658ecc13c778e" target="_top" xlink:title=" ">
<polygon fill="white" stroke="#666666" points="306.75,-20 219.5,-20 219.5,0 306.75,0 306.75,-20"/>
<text text-anchor="middle" x="263.12" y="-6.5" font-family="Helvetica,sans-Serif" font-size="10.00">Entity::getName</text>
</a>
</g>
</g>
<!-- Node2&#45;&gt;Node4 -->
<g id="edge3_Node000002_Node000004" class="edge">
<title>Node2&#45;&gt;Node4</title>
<g id="a_edge3_Node000002_Node000004"><a xlink:title=" ">
<path fill="none" stroke="#63b8ff" d="M183.91,-22.94C191.68,-21.65 200.03,-20.27 208.28,-18.91"/>
<polygon fill="#63b8ff" stroke="#63b8ff" points="208.62,-22.4 217.91,-17.31 207.47,-15.49 208.62,-22.4"/>
</a>
</g>
</g>
</g>
</svg>
</svg>

<style type='text/css'>
<![CDATA[
[data-mouse-over-selected='false'] { opacity: 0.7; }
[data-mouse-over-selected='true']  { opacity: 1.0; }
]]>
</style>
<script type="application/ecmascript"><![CDATA[
document.addEventListener('DOMContentLoaded', (event) => {
  highlightEdges();
  highlightAdjacentNodes();
});
]]></script>
</svg>
