<?xml version="1.0" encoding="UTF-8" standalone="no"?>
<!DOCTYPE svg PUBLIC "-//W3C//DTD SVG 1.1//EN"
 "http://www.w3.org/Graphics/SVG/1.1/DTD/svg11.dtd">
<!-- Generated by graphviz version 12.2.1 (20241206.2353)
 -->
<!-- Title: CoolStick Pages: 1 -->
<svg width="162pt" height="512pt"
 viewBox="0.00 0.00 161.75 512.00" xmlns="http://www.w3.org/2000/svg" xmlns:xlink="http://www.w3.org/1999/xlink">
<g id="graph0" class="graph" transform="scale(1 1) rotate(0) translate(4 508)">
<title>CoolStick</title>
<!-- Node1 -->
<g id="Node000001" class="node">
<title>Node1</title>
<g id="a_Node000001"><a xlink:title="The Cool Stick is the first weapon the player gets.">
<polygon fill="#999999" stroke="none" points="139.5,-68 14.25,-68 14.25,0 139.5,0 139.5,-68"/>
<text text-anchor="start" x="55.5" y="-54.5" font-family="Helvetica,sans-Serif" font-size="10.00">CoolStick</text>
<text text-anchor="start" x="75.38" y="-38.5" font-family="Helvetica,sans-Serif" font-size="10.00"> </text>
<text text-anchor="start" x="18.25" y="-22.5" font-family="Helvetica,sans-Serif" font-size="10.00">+</text>
<text text-anchor="start" x="28.25" y="-22.5" font-family="Helvetica,sans-Serif" font-size="10.00">CoolStick()</text>
<text text-anchor="start" x="18.25" y="-6.5" font-family="Helvetica,sans-Serif" font-size="10.00">+</text>
<text text-anchor="start" x="28.25" y="-6.5" font-family="Helvetica,sans-Serif" font-size="10.00">string getDesc() override</text>
<polygon fill="#666666" stroke="#666666" points="14.25,-50 14.25,-50 139.5,-50 139.5,-50 14.25,-50"/>
<polygon fill="#666666" stroke="#666666" points="14.25,-34 14.25,-34 139.5,-34 139.5,-34 14.25,-34"/>
<polygon fill="none" stroke="#666666" points="14.25,0 14.25,-68 139.5,-68 139.5,0 14.25,0"/>
</a>
</g>
</g>
<!-- Node2 -->
<g id="Node000002" class="node">
<title>Node2</title>
<g id="a_Node000002"><a xlink:href="class_weapon.html" target="_top" xlink:title="Weapons set the type to &quot;Weapon&quot; and implement the use function cuz all weapons attack lmao.">
<polygon fill="white" stroke="none" points="153.38,-196 0.38,-196 0.38,-104 153.38,-104 153.38,-196"/>
<text text-anchor="start" x="59.25" y="-182.5" font-family="Helvetica,sans-Serif" font-size="10.00">Weapon</text>
<text text-anchor="start" x="4.38" y="-166.5" font-family="Helvetica,sans-Serif" font-size="10.00">+</text>
<text text-anchor="start" x="14.38" y="-166.5" font-family="Helvetica,sans-Serif" font-size="10.00">int dmg</text>
<text text-anchor="start" x="4.38" y="-150.5" font-family="Helvetica,sans-Serif" font-size="10.00">+</text>
<text text-anchor="start" x="14.38" y="-150.5" font-family="Helvetica,sans-Serif" font-size="10.00">Weapon(string name, string</text>
<text text-anchor="start" x="14.38" y="-138.5" font-family="Helvetica,sans-Serif" font-size="10.00"> desc, int count, int dmg)</text>
<text text-anchor="start" x="4.38" y="-122.5" font-family="Helvetica,sans-Serif" font-size="10.00">+</text>
<text text-anchor="start" x="14.38" y="-122.5" font-family="Helvetica,sans-Serif" font-size="10.00">bool use(Player &amp;player, Entity</text>
<text text-anchor="start" x="14.38" y="-110.5" font-family="Helvetica,sans-Serif" font-size="10.00"> &amp;enemy) override</text>
<polygon fill="#666666" stroke="#666666" points="0.38,-178 0.38,-178 153.38,-178 153.38,-178 0.38,-178"/>
<polygon fill="#666666" stroke="#666666" points="0.38,-162 0.38,-162 12.38,-162 12.38,-162 0.38,-162"/>
<polygon fill="#666666" stroke="#666666" points="12.38,-162 12.38,-162 153.38,-162 153.38,-162 12.38,-162"/>
<polygon fill="none" stroke="#666666" points="0.38,-104 0.38,-196 153.38,-196 153.38,-104 0.38,-104"/>
</a>
</g>
</g>
<!-- Node2&#45;&gt;Node1 -->
<g id="edge1_Node000001_Node000002" class="edge">
<title>Node2&#45;&gt;Node1</title>
<g id="a_edge1_Node000001_Node000002"><a xlink:title=" ">
<path fill="none" stroke="#63b8ff" d="M76.88,-92.77C76.88,-84.27 76.88,-75.75 76.88,-67.97"/>
<polygon fill="none" stroke="#63b8ff" points="73.38,-92.76 76.88,-102.76 80.38,-92.76 73.38,-92.76"/>
</a>
</g>
</g>
<!-- Node3 -->
<g id="Node000003" class="node">
<title>Node3</title>
<g id="a_Node000003"><a xlink:href="class_i_enemy_item.html" target="_top" xlink:title="Enemy items. The use function takes in a player and an enemy.">
<polygon fill="white" stroke="none" points="153.75,-324 0,-324 0,-232 153.75,-232 153.75,-324"/>
<text text-anchor="start" x="50.25" y="-310.5" font-family="Helvetica,sans-Serif" font-size="10.00">IEnemyItem</text>
<text text-anchor="start" x="75.38" y="-294.5" font-family="Helvetica,sans-Serif" font-size="10.00"> </text>
<text text-anchor="start" x="4" y="-278.5" font-family="Helvetica,sans-Serif" font-size="10.00">+</text>
<text text-anchor="start" x="14" y="-278.5" font-family="Helvetica,sans-Serif" font-size="10.00">IEnemyItem(string n, string</text>
<text text-anchor="start" x="14" y="-266.5" font-family="Helvetica,sans-Serif" font-size="10.00"> t, string d, int c)</text>
<text text-anchor="start" x="4" y="-250.5" font-family="Helvetica,sans-Serif" font-size="10.00">+</text>
<text text-anchor="start" x="14" y="-250.5" font-family="Helvetica,sans-Serif" font-size="10.00">virtual bool use(Player &amp;player,</text>
<text text-anchor="start" x="14" y="-238.5" font-family="Helvetica,sans-Serif" font-size="10.00"> Entity &amp;enemy)=0</text>
<polygon fill="#666666" stroke="#666666" points="0,-306 0,-306 153.75,-306 153.75,-306 0,-306"/>
<polygon fill="#666666" stroke="#666666" points="0,-290 0,-290 153.75,-290 153.75,-290 0,-290"/>
<polygon fill="none" stroke="#666666" points="0,-232 0,-324 153.75,-324 153.75,-232 0,-232"/>
</a>
</g>
</g>
<!-- Node3&#45;&gt;Node2 -->
<g id="edge2_Node000002_Node000003" class="edge">
<title>Node3&#45;&gt;Node2</title>
<g id="a_edge2_Node000002_Node000003"><a xlink:title=" ">
<path fill="none" stroke="#63b8ff" d="M76.88,-220.86C76.88,-212.41 76.88,-203.8 76.88,-195.63"/>
<polygon fill="none" stroke="#63b8ff" points="73.38,-220.71 76.88,-230.71 80.38,-220.71 73.38,-220.71"/>
</a>
</g>
</g>
<!-- Node4 -->
<g id="Node000004" class="node">
<title>Node4</title>
<g id="a_Node000004"><a xlink:href="class_i_item.html" target="_top" xlink:title="Base class for all items in the game.">
<polygon fill="white" stroke="none" points="135.38,-504 18.38,-504 18.38,-360 135.38,-360 135.38,-504"/>
<text text-anchor="start" x="65.62" y="-490.5" font-family="Helvetica,sans-Serif" font-size="10.00">IItem</text>
<text text-anchor="start" x="22.38" y="-474.5" font-family="Helvetica,sans-Serif" font-size="10.00">+</text>
<text text-anchor="start" x="32.38" y="-474.5" font-family="Helvetica,sans-Serif" font-size="10.00">string name</text>
<text text-anchor="start" x="22.38" y="-458.5" font-family="Helvetica,sans-Serif" font-size="10.00">+</text>
<text text-anchor="start" x="32.38" y="-458.5" font-family="Helvetica,sans-Serif" font-size="10.00">string type</text>
<text text-anchor="start" x="22.38" y="-442.5" font-family="Helvetica,sans-Serif" font-size="10.00">+</text>
<text text-anchor="start" x="32.38" y="-442.5" font-family="Helvetica,sans-Serif" font-size="10.00">int count</text>
<text text-anchor="start" x="23.88" y="-426.5" font-family="Helvetica,sans-Serif" font-size="10.00">&#45;</text>
<text text-anchor="start" x="32.38" y="-426.5" font-family="Helvetica,sans-Serif" font-size="10.00">string desc</text>
<text text-anchor="start" x="22.38" y="-410.5" font-family="Helvetica,sans-Serif" font-size="10.00">+</text>
<text text-anchor="start" x="32.38" y="-410.5" font-family="Helvetica,sans-Serif" font-size="10.00">IItem(string n, string t,</text>
<text text-anchor="start" x="32.38" y="-398.5" font-family="Helvetica,sans-Serif" font-size="10.00"> string d, int c)</text>
<text text-anchor="start" x="22.38" y="-382.5" font-family="Helvetica,sans-Serif" font-size="10.00">+</text>
<text text-anchor="start" x="32.38" y="-382.5" font-family="Helvetica,sans-Serif" font-size="10.00">virtual ~IItem()</text>
<text text-anchor="start" x="22.38" y="-366.5" font-family="Helvetica,sans-Serif" font-size="10.00">+</text>
<text text-anchor="start" x="32.38" y="-366.5" font-family="Helvetica,sans-Serif" font-size="10.00">virtual string getDesc()</text>
<polygon fill="#666666" stroke="#666666" points="18.38,-486 18.38,-486 135.38,-486 135.38,-486 18.38,-486"/>
<polygon fill="#666666" stroke="#666666" points="18.38,-422 18.38,-422 30.38,-422 30.38,-422 18.38,-422"/>
<polygon fill="#666666" stroke="#666666" points="30.38,-422 30.38,-422 135.38,-422 135.38,-422 30.38,-422"/>
<polygon fill="none" stroke="#666666" points="18.38,-360 18.38,-504 135.38,-504 135.38,-360 18.38,-360"/>
</a>
</g>
</g>
<!-- Node4&#45;&gt;Node3 -->
<g id="edge3_Node000003_Node000004" class="edge">
<title>Node4&#45;&gt;Node3</title>
<g id="a_edge3_Node000003_Node000004"><a xlink:title=" ">
<path fill="none" stroke="#63b8ff" d="M76.88,-348.99C76.88,-340.37 76.88,-331.85 76.88,-323.89"/>
<polygon fill="none" stroke="#63b8ff" points="73.38,-348.83 76.88,-358.83 80.38,-348.83 73.38,-348.83"/>
</a>
</g>
</g>
</g>
</svg>
