<?xml version="1.0" encoding="UTF-8" standalone="no"?>
<!DOCTYPE svg PUBLIC "-//W3C//DTD SVG 1.1//EN"
 "http://www.w3.org/Graphics/SVG/1.1/DTD/svg11.dtd">
<!-- Generated by graphviz version 12.2.1 (20241206.2353)
 -->
<!-- Title: IItem Pages: 1 -->
<svg width="644pt" height="672pt"
 viewBox="0.00 0.00 643.62 672.00" xmlns="http://www.w3.org/2000/svg" xmlns:xlink="http://www.w3.org/1999/xlink">
<g id="graph0" class="graph" transform="scale(1 1) rotate(0) translate(4 668)">
<title>IItem</title>
<!-- Node1 -->
<g id="Node000001" class="node">
<title>Node1</title>
<g id="a_Node000001"><a xlink:title="Base class for all items in the game.">
<polygon fill="#999999" stroke="none" points="357.88,-664 221.38,-664 221.38,-392 357.88,-392 357.88,-664"/>
<text text-anchor="start" x="278.38" y="-650.5" font-family="Helvetica,sans-Serif" font-size="10.00">IItem</text>
<text text-anchor="start" x="226.88" y="-634.5" font-family="Helvetica,sans-Serif" font-size="10.00">&#45;</text>
<text text-anchor="start" x="235.38" y="-634.5" font-family="Helvetica,sans-Serif" font-size="10.00">string desc</text>
<text text-anchor="start" x="226.88" y="-618.5" font-family="Helvetica,sans-Serif" font-size="10.00">&#45;</text>
<text text-anchor="start" x="235.38" y="-618.5" font-family="Helvetica,sans-Serif" font-size="10.00">string name</text>
<text text-anchor="start" x="226.88" y="-602.5" font-family="Helvetica,sans-Serif" font-size="10.00">&#45;</text>
<text text-anchor="start" x="235.38" y="-602.5" font-family="Helvetica,sans-Serif" font-size="10.00">string type</text>
<text text-anchor="start" x="226.88" y="-586.5" font-family="Helvetica,sans-Serif" font-size="10.00">&#45;</text>
<text text-anchor="start" x="235.38" y="-586.5" font-family="Helvetica,sans-Serif" font-size="10.00">int count</text>
<text text-anchor="start" x="225.38" y="-570.5" font-family="Helvetica,sans-Serif" font-size="10.00">+</text>
<text text-anchor="start" x="235.38" y="-570.5" font-family="Helvetica,sans-Serif" font-size="10.00">IItem(string n, string t,</text>
<text text-anchor="start" x="235.38" y="-558.5" font-family="Helvetica,sans-Serif" font-size="10.00"> string d, int c)</text>
<text text-anchor="start" x="225.38" y="-542.5" font-family="Helvetica,sans-Serif" font-size="10.00">+</text>
<text text-anchor="start" x="235.38" y="-542.5" font-family="Helvetica,sans-Serif" font-size="10.00">virtual ~IItem()</text>
<text text-anchor="start" x="225.38" y="-526.5" font-family="Helvetica,sans-Serif" font-size="10.00">+</text>
<text text-anchor="start" x="235.38" y="-526.5" font-family="Helvetica,sans-Serif" font-size="10.00">virtual string getDesc()</text>
<text text-anchor="start" x="225.38" y="-510.5" font-family="Helvetica,sans-Serif" font-size="10.00">+</text>
<text text-anchor="start" x="235.38" y="-510.5" font-family="Helvetica,sans-Serif" font-size="10.00">string getName()</text>
<text text-anchor="start" x="225.38" y="-494.5" font-family="Helvetica,sans-Serif" font-size="10.00">+</text>
<text text-anchor="start" x="235.38" y="-494.5" font-family="Helvetica,sans-Serif" font-size="10.00">string getType()</text>
<text text-anchor="start" x="225.38" y="-478.5" font-family="Helvetica,sans-Serif" font-size="10.00">+</text>
<text text-anchor="start" x="235.38" y="-478.5" font-family="Helvetica,sans-Serif" font-size="10.00">void increment(int amount)</text>
<text text-anchor="start" x="225.38" y="-462.5" font-family="Helvetica,sans-Serif" font-size="10.00">+</text>
<text text-anchor="start" x="235.38" y="-462.5" font-family="Helvetica,sans-Serif" font-size="10.00">void decrement(int amount)</text>
<text text-anchor="start" x="225.38" y="-446.5" font-family="Helvetica,sans-Serif" font-size="10.00">+</text>
<text text-anchor="start" x="235.38" y="-446.5" font-family="Helvetica,sans-Serif" font-size="10.00">int getCount()</text>
<text text-anchor="start" x="225.38" y="-430.5" font-family="Helvetica,sans-Serif" font-size="10.00">+</text>
<text text-anchor="start" x="235.38" y="-430.5" font-family="Helvetica,sans-Serif" font-size="10.00">bool isInfinite()</text>
<text text-anchor="start" x="225.38" y="-414.5" font-family="Helvetica,sans-Serif" font-size="10.00">+</text>
<text text-anchor="start" x="235.38" y="-414.5" font-family="Helvetica,sans-Serif" font-size="10.00">bool isDepleted()</text>
<text text-anchor="start" x="225.38" y="-398.5" font-family="Helvetica,sans-Serif" font-size="10.00">+</text>
<text text-anchor="start" x="235.38" y="-398.5" font-family="Helvetica,sans-Serif" font-size="10.00">bool matches(IItem *item)</text>
<polygon fill="#666666" stroke="#666666" points="221.38,-646 221.38,-646 357.88,-646 357.88,-646 221.38,-646"/>
<polygon fill="#666666" stroke="#666666" points="221.38,-582 221.38,-582 233.38,-582 233.38,-582 221.38,-582"/>
<polygon fill="#666666" stroke="#666666" points="233.38,-582 233.38,-582 357.88,-582 357.88,-582 233.38,-582"/>
<polygon fill="none" stroke="#666666" points="221.38,-392 221.38,-664 357.88,-664 357.88,-392 221.38,-392"/>
</a>
</g>
</g>
<!-- Node2 -->
<g id="Node000002" class="node">
<title>Node2</title>
<g id="a_Node000002"><a xlink:href="class_i_enemy_item.html" target="_top" xlink:title="Enemy items. The use function takes in a player and an enemy.">
<polygon fill="white" stroke="none" points="278.5,-356 124.75,-356 124.75,-264 278.5,-264 278.5,-356"/>
<text text-anchor="start" x="175" y="-342.5" font-family="Helvetica,sans-Serif" font-size="10.00">IEnemyItem</text>
<text text-anchor="start" x="200.12" y="-326.5" font-family="Helvetica,sans-Serif" font-size="10.00"> </text>
<text text-anchor="start" x="128.75" y="-310.5" font-family="Helvetica,sans-Serif" font-size="10.00">+</text>
<text text-anchor="start" x="138.75" y="-310.5" font-family="Helvetica,sans-Serif" font-size="10.00">IEnemyItem(string n, string</text>
<text text-anchor="start" x="138.75" y="-298.5" font-family="Helvetica,sans-Serif" font-size="10.00"> t, string d, int c)</text>
<text text-anchor="start" x="128.75" y="-282.5" font-family="Helvetica,sans-Serif" font-size="10.00">+</text>
<text text-anchor="start" x="138.75" y="-282.5" font-family="Helvetica,sans-Serif" font-size="10.00">virtual bool use(Player &amp;player,</text>
<text text-anchor="start" x="138.75" y="-270.5" font-family="Helvetica,sans-Serif" font-size="10.00"> Entity &amp;enemy)=0</text>
<polygon fill="#666666" stroke="#666666" points="124.75,-338 124.75,-338 278.5,-338 278.5,-338 124.75,-338"/>
<polygon fill="#666666" stroke="#666666" points="124.75,-322 124.75,-322 278.5,-322 278.5,-322 124.75,-322"/>
<polygon fill="none" stroke="#666666" points="124.75,-264 124.75,-356 278.5,-356 278.5,-264 124.75,-264"/>
</a>
</g>
</g>
<!-- Node1&#45;&gt;Node2 -->
<g id="edge1_Node000001_Node000002" class="edge">
<title>Node1&#45;&gt;Node2</title>
<g id="a_edge1_Node000001_Node000002"><a xlink:title=" ">
<path fill="none" stroke="#63b8ff" d="M230.37,-381.55C226.64,-372.4 223.08,-363.65 219.81,-355.63"/>
<polygon fill="none" stroke="#63b8ff" points="227.06,-382.7 234.07,-390.64 233.54,-380.06 227.06,-382.7"/>
</a>
</g>
</g>
<!-- Node6 -->
<g id="Node000006" class="node">
<title>Node6</title>
<g id="a_Node000006"><a xlink:href="class_i_player_item.html" target="_top" xlink:title="Player items. The use function takes in a player only.">
<polygon fill="white" stroke="none" points="461.12,-350 296.12,-350 296.12,-270 461.12,-270 461.12,-350"/>
<text text-anchor="start" x="353.5" y="-336.5" font-family="Helvetica,sans-Serif" font-size="10.00">IPlayerItem</text>
<text text-anchor="start" x="377.12" y="-320.5" font-family="Helvetica,sans-Serif" font-size="10.00"> </text>
<text text-anchor="start" x="300.12" y="-304.5" font-family="Helvetica,sans-Serif" font-size="10.00">+</text>
<text text-anchor="start" x="310.12" y="-304.5" font-family="Helvetica,sans-Serif" font-size="10.00">IPlayerItem(string n, string</text>
<text text-anchor="start" x="310.12" y="-292.5" font-family="Helvetica,sans-Serif" font-size="10.00"> t, string d, int c)</text>
<text text-anchor="start" x="300.12" y="-276.5" font-family="Helvetica,sans-Serif" font-size="10.00">+</text>
<text text-anchor="start" x="310.12" y="-276.5" font-family="Helvetica,sans-Serif" font-size="10.00">virtual bool use(Player &amp;player)=0</text>
<polygon fill="#666666" stroke="#666666" points="296.12,-332 296.12,-332 461.12,-332 461.12,-332 296.12,-332"/>
<polygon fill="#666666" stroke="#666666" points="296.12,-316 296.12,-316 461.12,-316 461.12,-316 296.12,-316"/>
<polygon fill="none" stroke="#666666" points="296.12,-270 296.12,-350 461.12,-350 461.12,-270 296.12,-270"/>
</a>
</g>
</g>
<!-- Node1&#45;&gt;Node6 -->
<g id="edge5_Node000001_Node000006" class="edge">
<title>Node1&#45;&gt;Node6</title>
<g id="a_edge5_Node000001_Node000006"><a xlink:title=" ">
<path fill="none" stroke="#63b8ff" d="M349.47,-381.75C354.23,-370.2 358.72,-359.3 362.69,-349.67"/>
<polygon fill="none" stroke="#63b8ff" points="346.38,-380.07 345.81,-390.65 352.85,-382.73 346.38,-380.07"/>
</a>
</g>
</g>
<!-- Node3 -->
<g id="Node000003" class="node">
<title>Node3</title>
<g id="a_Node000003"><a xlink:href="class_weapon.html" target="_top" xlink:title="Weapons set the type to &quot;Weapon&quot; and implement the use function cuz all weapons attack lmao.">
<polygon fill="white" stroke="none" points="278.12,-228 125.12,-228 125.12,-120 278.12,-120 278.12,-228"/>
<text text-anchor="start" x="184" y="-214.5" font-family="Helvetica,sans-Serif" font-size="10.00">Weapon</text>
<text text-anchor="start" x="129.12" y="-198.5" font-family="Helvetica,sans-Serif" font-size="10.00">+</text>
<text text-anchor="start" x="139.12" y="-198.5" font-family="Helvetica,sans-Serif" font-size="10.00">int dmg</text>
<text text-anchor="start" x="129.12" y="-182.5" font-family="Helvetica,sans-Serif" font-size="10.00">+</text>
<text text-anchor="start" x="139.12" y="-182.5" font-family="Helvetica,sans-Serif" font-size="10.00">Weapon(string name, string</text>
<text text-anchor="start" x="139.12" y="-170.5" font-family="Helvetica,sans-Serif" font-size="10.00"> desc, int count, int dmg)</text>
<text text-anchor="start" x="129.12" y="-154.5" font-family="Helvetica,sans-Serif" font-size="10.00">+</text>
<text text-anchor="start" x="139.12" y="-154.5" font-family="Helvetica,sans-Serif" font-size="10.00">bool use(Player &amp;player, Entity</text>
<text text-anchor="start" x="139.12" y="-142.5" font-family="Helvetica,sans-Serif" font-size="10.00"> &amp;enemy) override</text>
<text text-anchor="start" x="129.12" y="-126.5" font-family="Helvetica,sans-Serif" font-size="10.00">+</text>
<text text-anchor="start" x="139.12" y="-126.5" font-family="Helvetica,sans-Serif" font-size="10.00">int getDmg()</text>
<polygon fill="#666666" stroke="#666666" points="125.12,-210 125.12,-210 278.12,-210 278.12,-210 125.12,-210"/>
<polygon fill="#666666" stroke="#666666" points="125.12,-194 125.12,-194 137.12,-194 137.12,-194 125.12,-194"/>
<polygon fill="#666666" stroke="#666666" points="137.12,-194 137.12,-194 278.12,-194 278.12,-194 137.12,-194"/>
<polygon fill="none" stroke="#666666" points="125.12,-120 125.12,-228 278.12,-228 278.12,-120 125.12,-120"/>
</a>
</g>
</g>
<!-- Node2&#45;&gt;Node3 -->
<g id="edge2_Node000002_Node000003" class="edge">
<title>Node2&#45;&gt;Node3</title>
<g id="a_edge2_Node000002_Node000003"><a xlink:title=" ">
<path fill="none" stroke="#63b8ff" d="M201.62,-252.65C201.62,-244.48 201.62,-236.09 201.62,-227.99"/>
<polygon fill="none" stroke="#63b8ff" points="198.13,-252.49 201.63,-262.49 205.13,-252.49 198.13,-252.49"/>
</a>
</g>
</g>
<!-- Node4 -->
<g id="Node000004" class="node">
<title>Node4</title>
<g id="a_Node000004"><a xlink:href="class_cool_stick.html" target="_top" xlink:title="The Cool Stick is the first weapon the player gets.">
<polygon fill="white" stroke="none" points="125.25,-76 0,-76 0,-8 125.25,-8 125.25,-76"/>
<text text-anchor="start" x="41.25" y="-62.5" font-family="Helvetica,sans-Serif" font-size="10.00">CoolStick</text>
<text text-anchor="start" x="61.12" y="-46.5" font-family="Helvetica,sans-Serif" font-size="10.00"> </text>
<text text-anchor="start" x="4" y="-30.5" font-family="Helvetica,sans-Serif" font-size="10.00">+</text>
<text text-anchor="start" x="14" y="-30.5" font-family="Helvetica,sans-Serif" font-size="10.00">CoolStick()</text>
<text text-anchor="start" x="4" y="-14.5" font-family="Helvetica,sans-Serif" font-size="10.00">+</text>
<text text-anchor="start" x="14" y="-14.5" font-family="Helvetica,sans-Serif" font-size="10.00">string getDesc() override</text>
<polygon fill="#666666" stroke="#666666" points="0,-58 0,-58 125.25,-58 125.25,-58 0,-58"/>
<polygon fill="#666666" stroke="#666666" points="0,-42 0,-42 125.25,-42 125.25,-42 0,-42"/>
<polygon fill="none" stroke="#666666" points="0,-8 0,-76 125.25,-76 125.25,-8 0,-8"/>
</a>
</g>
</g>
<!-- Node3&#45;&gt;Node4 -->
<g id="edge3_Node000003_Node000004" class="edge">
<title>Node3&#45;&gt;Node4</title>
<g id="a_edge3_Node000003_Node000004"><a xlink:title=" ">
<path fill="none" stroke="#63b8ff" d="M136.73,-112.3C123.22,-99.67 109.48,-86.83 97.57,-75.68"/>
<polygon fill="none" stroke="#63b8ff" points="134.29,-114.82 143.98,-119.09 139.07,-109.7 134.29,-114.82"/>
</a>
</g>
</g>
<!-- Node5 -->
<g id="Node000005" class="node">
<title>Node5</title>
<g id="a_Node000005"><a xlink:href="class_yamato.html" target="_top" xlink:title="The OP weapon of the game, the Yamato!!!">
<polygon fill="white" stroke="none" points="268.25,-76 143,-76 143,-8 268.25,-8 268.25,-76"/>
<text text-anchor="start" x="189.12" y="-62.5" font-family="Helvetica,sans-Serif" font-size="10.00">Yamato</text>
<text text-anchor="start" x="204.12" y="-46.5" font-family="Helvetica,sans-Serif" font-size="10.00"> </text>
<text text-anchor="start" x="147" y="-30.5" font-family="Helvetica,sans-Serif" font-size="10.00">+</text>
<text text-anchor="start" x="157" y="-30.5" font-family="Helvetica,sans-Serif" font-size="10.00">Yamato()</text>
<text text-anchor="start" x="147" y="-14.5" font-family="Helvetica,sans-Serif" font-size="10.00">+</text>
<text text-anchor="start" x="157" y="-14.5" font-family="Helvetica,sans-Serif" font-size="10.00">string getDesc() override</text>
<polygon fill="#666666" stroke="#666666" points="143,-58 143,-58 268.25,-58 268.25,-58 143,-58"/>
<polygon fill="#666666" stroke="#666666" points="143,-42 143,-42 268.25,-42 268.25,-42 143,-42"/>
<polygon fill="none" stroke="#666666" points="143,-8 143,-76 268.25,-76 268.25,-8 143,-8"/>
</a>
</g>
</g>
<!-- Node3&#45;&gt;Node5 -->
<g id="edge4_Node000003_Node000005" class="edge">
<title>Node3&#45;&gt;Node5</title>
<g id="a_edge4_Node000003_Node000005"><a xlink:title=" ">
<path fill="none" stroke="#63b8ff" d="M203.6,-108.73C203.96,-97.27 204.31,-85.77 204.62,-75.68"/>
<polygon fill="none" stroke="#63b8ff" points="200.11,-108.51 203.3,-118.61 207.1,-108.72 200.11,-108.51"/>
</a>
</g>
</g>
<!-- Node7 -->
<g id="Node000007" class="node">
<title>Node7</title>
<g id="a_Node000007"><a xlink:href="class_i_potion.html" target="_top" xlink:title="Potions set the type to &quot;Potion&quot;.">
<polygon fill="white" stroke="none" points="441.25,-214 316,-214 316,-134 441.25,-134 441.25,-214"/>
<text text-anchor="start" x="363.25" y="-200.5" font-family="Helvetica,sans-Serif" font-size="10.00">IPotion</text>
<text text-anchor="start" x="320" y="-184.5" font-family="Helvetica,sans-Serif" font-size="10.00">+</text>
<text text-anchor="start" x="330" y="-184.5" font-family="Helvetica,sans-Serif" font-size="10.00">int strength</text>
<text text-anchor="start" x="320" y="-168.5" font-family="Helvetica,sans-Serif" font-size="10.00">+</text>
<text text-anchor="start" x="330" y="-168.5" font-family="Helvetica,sans-Serif" font-size="10.00">IPotion(string n, string d,</text>
<text text-anchor="start" x="330" y="-156.5" font-family="Helvetica,sans-Serif" font-size="10.00"> int c, int strength)</text>
<text text-anchor="start" x="320" y="-140.5" font-family="Helvetica,sans-Serif" font-size="10.00">+</text>
<text text-anchor="start" x="330" y="-140.5" font-family="Helvetica,sans-Serif" font-size="10.00">int getStrength()</text>
<polygon fill="#666666" stroke="#666666" points="316,-196 316,-196 441.25,-196 441.25,-196 316,-196"/>
<polygon fill="#666666" stroke="#666666" points="316,-180 316,-180 328,-180 328,-180 316,-180"/>
<polygon fill="#666666" stroke="#666666" points="328,-180 328,-180 441.25,-180 441.25,-180 328,-180"/>
<polygon fill="none" stroke="#666666" points="316,-134 316,-214 441.25,-214 441.25,-134 316,-134"/>
</a>
</g>
</g>
<!-- Node6&#45;&gt;Node7 -->
<g id="edge6_Node000006_Node000007" class="edge">
<title>Node6&#45;&gt;Node7</title>
<g id="a_edge6_Node000006_Node000007"><a xlink:title=" ">
<path fill="none" stroke="#63b8ff" d="M378.62,-259.06C378.62,-244.06 378.62,-227.83 378.62,-213.67"/>
<polygon fill="none" stroke="#63b8ff" points="375.13,-258.73 378.63,-268.73 382.13,-258.73 375.13,-258.73"/>
</a>
</g>
</g>
<!-- Node8 -->
<g id="Node000008" class="node">
<title>Node8</title>
<g id="a_Node000008"><a xlink:href="class_health_potion.html" target="_top" xlink:title="Health potions heal the player of course.">
<polygon fill="white" stroke="none" points="455.62,-84 293.62,-84 293.62,0 455.62,0 455.62,-84"/>
<text text-anchor="start" x="346.5" y="-70.5" font-family="Helvetica,sans-Serif" font-size="10.00">HealthPotion</text>
<text text-anchor="start" x="373.12" y="-54.5" font-family="Helvetica,sans-Serif" font-size="10.00"> </text>
<text text-anchor="start" x="297.62" y="-38.5" font-family="Helvetica,sans-Serif" font-size="10.00">+</text>
<text text-anchor="start" x="307.62" y="-38.5" font-family="Helvetica,sans-Serif" font-size="10.00">HealthPotion(int c)</text>
<text text-anchor="start" x="297.62" y="-22.5" font-family="Helvetica,sans-Serif" font-size="10.00">+</text>
<text text-anchor="start" x="307.62" y="-22.5" font-family="Helvetica,sans-Serif" font-size="10.00">bool use(Player &amp;player) override</text>
<text text-anchor="start" x="297.62" y="-6.5" font-family="Helvetica,sans-Serif" font-size="10.00">+</text>
<text text-anchor="start" x="307.62" y="-6.5" font-family="Helvetica,sans-Serif" font-size="10.00">string getDesc() override</text>
<polygon fill="#666666" stroke="#666666" points="293.62,-66 293.62,-66 455.62,-66 455.62,-66 293.62,-66"/>
<polygon fill="#666666" stroke="#666666" points="293.62,-50 293.62,-50 455.62,-50 455.62,-50 293.62,-50"/>
<polygon fill="none" stroke="#666666" points="293.62,0 293.62,-84 455.62,-84 455.62,0 293.62,0"/>
</a>
</g>
</g>
<!-- Node7&#45;&gt;Node8 -->
<g id="edge7_Node000007_Node000008" class="edge">
<title>Node7&#45;&gt;Node8</title>
<g id="a_edge7_Node000007_Node000008"><a xlink:title=" ">
<path fill="none" stroke="#63b8ff" d="M377.09,-123.23C376.69,-110.27 376.27,-96.44 375.89,-83.99"/>
<polygon fill="none" stroke="#63b8ff" points="373.58,-122.95 377.39,-132.83 380.58,-122.73 373.58,-122.95"/>
</a>
</g>
</g>
<!-- Node9 -->
<g id="Node000009" class="node">
<title>Node9</title>
<g id="a_Node000009"><a xlink:href="class_strength_potion.html" target="_top" xlink:title="Increases player ATK.">
<polygon fill="white" stroke="none" points="635.62,-84 473.62,-84 473.62,0 635.62,0 635.62,-84"/>
<text text-anchor="start" x="522.38" y="-70.5" font-family="Helvetica,sans-Serif" font-size="10.00">StrengthPotion</text>
<text text-anchor="start" x="553.12" y="-54.5" font-family="Helvetica,sans-Serif" font-size="10.00"> </text>
<text text-anchor="start" x="477.62" y="-38.5" font-family="Helvetica,sans-Serif" font-size="10.00">+</text>
<text text-anchor="start" x="487.62" y="-38.5" font-family="Helvetica,sans-Serif" font-size="10.00">StrengthPotion(int c)</text>
<text text-anchor="start" x="477.62" y="-22.5" font-family="Helvetica,sans-Serif" font-size="10.00">+</text>
<text text-anchor="start" x="487.62" y="-22.5" font-family="Helvetica,sans-Serif" font-size="10.00">bool use(Player &amp;player) override</text>
<text text-anchor="start" x="477.62" y="-6.5" font-family="Helvetica,sans-Serif" font-size="10.00">+</text>
<text text-anchor="start" x="487.62" y="-6.5" font-family="Helvetica,sans-Serif" font-size="10.00">string getDesc() override</text>
<polygon fill="#666666" stroke="#666666" points="473.62,-66 473.62,-66 635.62,-66 635.62,-66 473.62,-66"/>
<polygon fill="#666666" stroke="#666666" points="473.62,-50 473.62,-50 635.62,-50 635.62,-50 473.62,-50"/>
<polygon fill="none" stroke="#666666" points="473.62,0 473.62,-84 635.62,-84 635.62,0 473.62,0"/>
</a>
</g>
</g>
<!-- Node7&#45;&gt;Node9 -->
<g id="edge8_Node000007_Node000009" class="edge">
<title>Node7&#45;&gt;Node9</title>
<g id="a_edge8_Node000007_Node000009"><a xlink:title=" ">
<path fill="none" stroke="#63b8ff" d="M440.2,-127.52C459.38,-113.35 480.4,-97.83 499.13,-83.99"/>
<polygon fill="none" stroke="#63b8ff" points="438.14,-124.69 432.17,-133.45 442.29,-130.32 438.14,-124.69"/>
</a>
</g>
</g>
</g>
</svg>
