<?xml version="1.0" encoding="UTF-8" standalone="no"?>
<!DOCTYPE svg PUBLIC "-//W3C//DTD SVG 1.1//EN"
 "http://www.w3.org/Graphics/SVG/1.1/DTD/svg11.dtd">
<!-- Generated by graphviz version 12.2.1 (20241206.2353)
 -->
<!-- Title: Weapon Pages: 1 -->
<!--zoomable 552 -->

<svg id="main" version="1.1" xmlns="http://www.w3.org/2000/svg" xmlns:xlink="http://www.w3.org/1999/xlink" xml:space="preserve" onload="init(evt)">

<style type="text/css"><![CDATA[
.node, .edge {opacity: 0.7;}
.node.selected, .edge.selected {opacity: 1;}
.edge:hover path { stroke: red; }
.edge:hover polygon { stroke: red; fill: red; }
]]></style>

<defs>
  <circle id="rim" cx="0" cy="0" r="7"/>
  <circle id="rim2" cx="0" cy="0" r="3.5"/>
  <g id="zoomPlus">
    <use xlink:href="#rim" fill="#404040"><set attributeName="fill" to="#808080" begin="zoomplus.mouseover" end="zoomplus.mouseout"/></use>
    <path d="M-4,0h8M0,-4v8" fill="none" stroke="white" stroke-width="1.5" pointer-events="none"/>
  </g>
  <g id="zoomMin">
    <use xlink:href="#rim" fill="#404040"><set attributeName="fill" to="#808080" begin="zoomminus.mouseover" end="zoomminus.mouseout"/></use>
    <path d="M-4,0h8" fill="none" stroke="white" stroke-width="1.5" pointer-events="none"/>
  </g>
  <g id="arrowUp" transform="translate(30 24)">
    <use xlink:href="#rim"/>
    <path pointer-events="none" fill="none" stroke="white" stroke-width="1.5" d="M0,-3.0v7 M-2.5,-0.5L0,-3.0L2.5,-0.5"/>
  </g>
  <g id="arrowRight" transform="rotate(90) translate(36 -43)">
    <use xlink:href="#rim"/>
    <path pointer-events="none" fill="none" stroke="white" stroke-width="1.5" d="M0,-3.0v7 M-2.5,-0.5L0,-3.0L2.5,-0.5"/>
  </g>
  <g id="arrowDown" transform="rotate(180) translate(-30 -48)">
    <use xlink:href="#rim"/>
    <path pointer-events="none" fill="none" stroke="white" stroke-width="1.5" d="M0,-3.0v7 M-2.5,-0.5L0,-3.0L2.5,-0.5"/>
  </g>
  <g id="arrowLeft" transform="rotate(270) translate(-36 17)">
    <use xlink:href="#rim"/>
    <path pointer-events="none" fill="none" stroke="white" stroke-width="1.5" d="M0,-3.0v7 M-2.5,-0.5L0,-3.0L2.5,-0.5"/>
  </g>
  <g id="resetDef">
    <use xlink:href="#rim2" fill="#404040"><set attributeName="fill" to="#808080" begin="reset.mouseover" end="reset.mouseout"/></use>
  </g>
</defs>
<script type="application/ecmascript">
var viewWidth = 162;
var viewHeight = 552;
var sectionId = 'dynsection-1';
</script>
<script type="application/ecmascript" xlink:href="svg.min.js"/>
<svg id="graph" class="graph">
<g id="viewport">
<title>Weapon</title>
<!-- Node1 -->
<g id="Node000001" class="node">
<title>Node1</title>
<g id="a_Node000001"><a xlink:title="Weapons set the type to &quot;Weapon&quot; and implement the use function cuz all weapons attack lmao.">
<polygon fill="#999999" stroke="none" points="153.38,-108 0.38,-108 0.38,0 153.38,0 153.38,-108"/>
<text text-anchor="start" x="59.25" y="-94.5" font-family="Helvetica,sans-Serif" font-size="10.00">Weapon</text>
<text text-anchor="start" x="4.38" y="-78.5" font-family="Helvetica,sans-Serif" font-size="10.00">+</text>
<text text-anchor="start" x="14.38" y="-78.5" font-family="Helvetica,sans-Serif" font-size="10.00">int dmg</text>
<text text-anchor="start" x="4.38" y="-62.5" font-family="Helvetica,sans-Serif" font-size="10.00">+</text>
<text text-anchor="start" x="14.38" y="-62.5" font-family="Helvetica,sans-Serif" font-size="10.00">Weapon(string name, string</text>
<text text-anchor="start" x="14.38" y="-50.5" font-family="Helvetica,sans-Serif" font-size="10.00"> desc, int count, int dmg)</text>
<text text-anchor="start" x="4.38" y="-34.5" font-family="Helvetica,sans-Serif" font-size="10.00">+</text>
<text text-anchor="start" x="14.38" y="-34.5" font-family="Helvetica,sans-Serif" font-size="10.00">bool use(Player &amp;player, Entity</text>
<text text-anchor="start" x="14.38" y="-22.5" font-family="Helvetica,sans-Serif" font-size="10.00"> &amp;enemy) override</text>
<text text-anchor="start" x="4.38" y="-6.5" font-family="Helvetica,sans-Serif" font-size="10.00">+</text>
<text text-anchor="start" x="14.38" y="-6.5" font-family="Helvetica,sans-Serif" font-size="10.00">int getDmg()</text>
<polygon fill="#666666" stroke="#666666" points="0.38,-90 0.38,-90 153.38,-90 153.38,-90 0.38,-90"/>
<polygon fill="#666666" stroke="#666666" points="0.38,-74 0.38,-74 12.38,-74 12.38,-74 0.38,-74"/>
<polygon fill="#666666" stroke="#666666" points="12.38,-74 12.38,-74 153.38,-74 153.38,-74 12.38,-74"/>
<polygon fill="none" stroke="#666666" points="0.38,0 0.38,-108 153.38,-108 153.38,0 0.38,0"/>
</a>
</g>
</g>
<!-- Node2 -->
<g id="Node000002" class="node">
<title>Node2</title>
<g id="a_Node000002"><a xlink:href="class_i_enemy_item.html" target="_top" xlink:title="Enemy items. The use function takes in a player and an enemy.">
<polygon fill="white" stroke="none" points="153.75,-236 0,-236 0,-144 153.75,-144 153.75,-236"/>
<text text-anchor="start" x="50.25" y="-222.5" font-family="Helvetica,sans-Serif" font-size="10.00">IEnemyItem</text>
<text text-anchor="start" x="75.38" y="-206.5" font-family="Helvetica,sans-Serif" font-size="10.00"> </text>
<text text-anchor="start" x="4" y="-190.5" font-family="Helvetica,sans-Serif" font-size="10.00">+</text>
<text text-anchor="start" x="14" y="-190.5" font-family="Helvetica,sans-Serif" font-size="10.00">IEnemyItem(string n, string</text>
<text text-anchor="start" x="14" y="-178.5" font-family="Helvetica,sans-Serif" font-size="10.00"> t, string d, int c)</text>
<text text-anchor="start" x="4" y="-162.5" font-family="Helvetica,sans-Serif" font-size="10.00">+</text>
<text text-anchor="start" x="14" y="-162.5" font-family="Helvetica,sans-Serif" font-size="10.00">virtual bool use(Player &amp;player,</text>
<text text-anchor="start" x="14" y="-150.5" font-family="Helvetica,sans-Serif" font-size="10.00"> Entity &amp;enemy)=0</text>
<polygon fill="#666666" stroke="#666666" points="0,-218 0,-218 153.75,-218 153.75,-218 0,-218"/>
<polygon fill="#666666" stroke="#666666" points="0,-202 0,-202 153.75,-202 153.75,-202 0,-202"/>
<polygon fill="none" stroke="#666666" points="0,-144 0,-236 153.75,-236 153.75,-144 0,-144"/>
</a>
</g>
</g>
<!-- Node2&#45;&gt;Node1 -->
<g id="edge1_Node000001_Node000002" class="edge">
<title>Node2&#45;&gt;Node1</title>
<g id="a_edge1_Node000001_Node000002"><a xlink:title=" ">
<path fill="none" stroke="#63b8ff" d="M76.88,-132.65C76.88,-124.48 76.88,-116.09 76.88,-107.99"/>
<polygon fill="none" stroke="#63b8ff" points="73.38,-132.49 76.88,-142.49 80.38,-132.49 73.38,-132.49"/>
</a>
</g>
</g>
<!-- Node3 -->
<g id="Node000003" class="node">
<title>Node3</title>
<g id="a_Node000003"><a xlink:href="class_i_item.html" target="_top" xlink:title="Base class for all items in the game.">
<polygon fill="white" stroke="none" points="145.12,-544 8.62,-544 8.62,-272 145.12,-272 145.12,-544"/>
<text text-anchor="start" x="65.62" y="-530.5" font-family="Helvetica,sans-Serif" font-size="10.00">IItem</text>
<text text-anchor="start" x="14.12" y="-514.5" font-family="Helvetica,sans-Serif" font-size="10.00">&#45;</text>
<text text-anchor="start" x="22.62" y="-514.5" font-family="Helvetica,sans-Serif" font-size="10.00">string desc</text>
<text text-anchor="start" x="14.12" y="-498.5" font-family="Helvetica,sans-Serif" font-size="10.00">&#45;</text>
<text text-anchor="start" x="22.62" y="-498.5" font-family="Helvetica,sans-Serif" font-size="10.00">string name</text>
<text text-anchor="start" x="14.12" y="-482.5" font-family="Helvetica,sans-Serif" font-size="10.00">&#45;</text>
<text text-anchor="start" x="22.62" y="-482.5" font-family="Helvetica,sans-Serif" font-size="10.00">string type</text>
<text text-anchor="start" x="14.12" y="-466.5" font-family="Helvetica,sans-Serif" font-size="10.00">&#45;</text>
<text text-anchor="start" x="22.62" y="-466.5" font-family="Helvetica,sans-Serif" font-size="10.00">int count</text>
<text text-anchor="start" x="12.62" y="-450.5" font-family="Helvetica,sans-Serif" font-size="10.00">+</text>
<text text-anchor="start" x="22.62" y="-450.5" font-family="Helvetica,sans-Serif" font-size="10.00">IItem(string n, string t,</text>
<text text-anchor="start" x="22.62" y="-438.5" font-family="Helvetica,sans-Serif" font-size="10.00"> string d, int c)</text>
<text text-anchor="start" x="12.62" y="-422.5" font-family="Helvetica,sans-Serif" font-size="10.00">+</text>
<text text-anchor="start" x="22.62" y="-422.5" font-family="Helvetica,sans-Serif" font-size="10.00">virtual ~IItem()</text>
<text text-anchor="start" x="12.62" y="-406.5" font-family="Helvetica,sans-Serif" font-size="10.00">+</text>
<text text-anchor="start" x="22.62" y="-406.5" font-family="Helvetica,sans-Serif" font-size="10.00">virtual string getDesc()</text>
<text text-anchor="start" x="12.62" y="-390.5" font-family="Helvetica,sans-Serif" font-size="10.00">+</text>
<text text-anchor="start" x="22.62" y="-390.5" font-family="Helvetica,sans-Serif" font-size="10.00">string getName()</text>
<text text-anchor="start" x="12.62" y="-374.5" font-family="Helvetica,sans-Serif" font-size="10.00">+</text>
<text text-anchor="start" x="22.62" y="-374.5" font-family="Helvetica,sans-Serif" font-size="10.00">string getType()</text>
<text text-anchor="start" x="12.62" y="-358.5" font-family="Helvetica,sans-Serif" font-size="10.00">+</text>
<text text-anchor="start" x="22.62" y="-358.5" font-family="Helvetica,sans-Serif" font-size="10.00">void increment(int amount)</text>
<text text-anchor="start" x="12.62" y="-342.5" font-family="Helvetica,sans-Serif" font-size="10.00">+</text>
<text text-anchor="start" x="22.62" y="-342.5" font-family="Helvetica,sans-Serif" font-size="10.00">void decrement(int amount)</text>
<text text-anchor="start" x="12.62" y="-326.5" font-family="Helvetica,sans-Serif" font-size="10.00">+</text>
<text text-anchor="start" x="22.62" y="-326.5" font-family="Helvetica,sans-Serif" font-size="10.00">int getCount()</text>
<text text-anchor="start" x="12.62" y="-310.5" font-family="Helvetica,sans-Serif" font-size="10.00">+</text>
<text text-anchor="start" x="22.62" y="-310.5" font-family="Helvetica,sans-Serif" font-size="10.00">bool isInfinite()</text>
<text text-anchor="start" x="12.62" y="-294.5" font-family="Helvetica,sans-Serif" font-size="10.00">+</text>
<text text-anchor="start" x="22.62" y="-294.5" font-family="Helvetica,sans-Serif" font-size="10.00">bool isDepleted()</text>
<text text-anchor="start" x="12.62" y="-278.5" font-family="Helvetica,sans-Serif" font-size="10.00">+</text>
<text text-anchor="start" x="22.62" y="-278.5" font-family="Helvetica,sans-Serif" font-size="10.00">bool matches(IItem *item)</text>
<polygon fill="#666666" stroke="#666666" points="8.62,-526 8.62,-526 145.12,-526 145.12,-526 8.62,-526"/>
<polygon fill="#666666" stroke="#666666" points="8.62,-462 8.62,-462 20.62,-462 20.62,-462 8.62,-462"/>
<polygon fill="#666666" stroke="#666666" points="20.62,-462 20.62,-462 145.12,-462 145.12,-462 20.62,-462"/>
<polygon fill="none" stroke="#666666" points="8.62,-272 8.62,-544 145.12,-544 145.12,-272 8.62,-272"/>
</a>
</g>
</g>
<!-- Node3&#45;&gt;Node2 -->
<g id="edge2_Node000002_Node000003" class="edge">
<title>Node3&#45;&gt;Node2</title>
<g id="a_edge2_Node000002_Node000003"><a xlink:title=" ">
<path fill="none" stroke="#63b8ff" d="M76.88,-260.67C76.88,-251.84 76.88,-243.4 76.88,-235.63"/>
<polygon fill="none" stroke="#63b8ff" points="73.38,-260.53 76.88,-270.53 80.38,-260.53 73.38,-260.53"/>
</a>
</g>
</g>
</g>
</svg>

<g id="navigator" transform="translate(0 0)" fill="#404254">
  <rect fill="#f2f5e9" fill-opacity="0.5" stroke="#606060" stroke-width=".5" x="0" y="0" width="60" height="60"/>
  <use id="zoomplus" xlink:href="#zoomPlus" x="17" y="9" onmousedown="handleZoom(evt,'in')"/>
  <use id="zoomminus" xlink:href="#zoomMin" x="42" y="9" onmousedown="handleZoom(evt,'out')"/>
  <use id="reset" xlink:href="#resetDef" x="30" y="36" onmousedown="handleReset()"/>
   <use id="arrowup" xlink:href="#arrowUp" x="0" y="0" onmousedown="handlePan(0,-1)"/>
  <use id="arrowright" xlink:href="#arrowRight" x="0" y="0" onmousedown="handlePan(1,0)"/>
  <use id="arrowdown" xlink:href="#arrowDown" x="0" y="0" onmousedown="handlePan(0,1)"/>
  <use id="arrowleft" xlink:href="#arrowLeft" x="0" y="0" onmousedown="handlePan(-1,0)"/>
</g>
<svg viewBox="0 0 15 15" width="100%" height="30px" preserveAspectRatio="xMaxYMin meet">
 <g id="arrow_out" transform="scale(0.3 0.3)">
  <a xlink:href="class_weapon__coll__graph_org.svg" target="_base">
   <rect id="button" ry="5" rx="5" y="6" x="6" height="38" width="38"
        fill="#f2f5e9" fill-opacity="0.5" stroke="#606060" stroke-width="1.0"/>
   <path id="arrow"
     d="M 11.500037,31.436501 C 11.940474,20.09759 22.043105,11.32322 32.158766,21.979434 L 37.068811,17.246167 C 37.068811,17.246167 37.088388,32 37.088388,32 L 22.160133,31.978069 C 22.160133,31.978069 26.997745,27.140456 26.997745,27.140456 C 18.528582,18.264221 13.291696,25.230495 11.500037,31.436501 z"
     style="fill:#404040;"/>
  </a>
 </g>
</svg>

<style type='text/css'>
<![CDATA[
[data-mouse-over-selected='false'] { opacity: 0.7; }
[data-mouse-over-selected='true']  { opacity: 1.0; }
]]>
</style>
<script type="application/ecmascript"><![CDATA[
document.addEventListener('DOMContentLoaded', (event) => {
  highlightEdges();
  highlightAdjacentNodes();
});
]]></script>
</svg>
