<?xml version="1.0" encoding="UTF-8" standalone="no"?>
<!DOCTYPE svg PUBLIC "-//W3C//DTD SVG 1.1//EN"
 "http://www.w3.org/Graphics/SVG/1.1/DTD/svg11.dtd">
<!-- Generated by graphviz version 12.2.1 (20241206.2353)
 -->
<!-- Title: IPlayerItem Pages: 1 -->
<svg width="350pt" height="488pt"
 viewBox="0.00 0.00 350.00 488.00" xmlns="http://www.w3.org/2000/svg" xmlns:xlink="http://www.w3.org/1999/xlink">
<g id="graph0" class="graph" transform="scale(1 1) rotate(0) translate(4 484)">
<title>IPlayerItem</title>
<!-- Node1 -->
<g id="Node000001" class="node">
<title>Node1</title>
<g id="a_Node000001"><a xlink:title="Player items. The use function takes in a player only.">
<polygon fill="#999999" stroke="none" points="253.5,-300 88.5,-300 88.5,-220 253.5,-220 253.5,-300"/>
<text text-anchor="start" x="145.88" y="-286.5" font-family="Helvetica,sans-Serif" font-size="10.00">IPlayerItem</text>
<text text-anchor="start" x="169.5" y="-270.5" font-family="Helvetica,sans-Serif" font-size="10.00"> </text>
<text text-anchor="start" x="92.5" y="-254.5" font-family="Helvetica,sans-Serif" font-size="10.00">+</text>
<text text-anchor="start" x="102.5" y="-254.5" font-family="Helvetica,sans-Serif" font-size="10.00">IPlayerItem(string n, string</text>
<text text-anchor="start" x="102.5" y="-242.5" font-family="Helvetica,sans-Serif" font-size="10.00"> t, string d, int c)</text>
<text text-anchor="start" x="92.5" y="-226.5" font-family="Helvetica,sans-Serif" font-size="10.00">+</text>
<text text-anchor="start" x="102.5" y="-226.5" font-family="Helvetica,sans-Serif" font-size="10.00">virtual bool use(Player &amp;player)=0</text>
<polygon fill="#666666" stroke="#666666" points="88.5,-282 88.5,-282 253.5,-282 253.5,-282 88.5,-282"/>
<polygon fill="#666666" stroke="#666666" points="88.5,-266 88.5,-266 253.5,-266 253.5,-266 88.5,-266"/>
<polygon fill="none" stroke="#666666" points="88.5,-220 88.5,-300 253.5,-300 253.5,-220 88.5,-220"/>
</a>
</g>
</g>
<!-- Node3 -->
<g id="Node000003" class="node">
<title>Node3</title>
<g id="a_Node000003"><a xlink:href="class_i_potion.html" target="_top" xlink:title="Potions set the type to &quot;Potion&quot;.">
<polygon fill="white" stroke="none" points="233.62,-184 108.38,-184 108.38,-120 233.62,-120 233.62,-184"/>
<text text-anchor="start" x="155.62" y="-170.5" font-family="Helvetica,sans-Serif" font-size="10.00">IPotion</text>
<text text-anchor="start" x="112.38" y="-154.5" font-family="Helvetica,sans-Serif" font-size="10.00">+</text>
<text text-anchor="start" x="122.38" y="-154.5" font-family="Helvetica,sans-Serif" font-size="10.00">int strength</text>
<text text-anchor="start" x="112.38" y="-138.5" font-family="Helvetica,sans-Serif" font-size="10.00">+</text>
<text text-anchor="start" x="122.38" y="-138.5" font-family="Helvetica,sans-Serif" font-size="10.00">IPotion(string n, string d,</text>
<text text-anchor="start" x="122.38" y="-126.5" font-family="Helvetica,sans-Serif" font-size="10.00"> int c, int strength)</text>
<polygon fill="#666666" stroke="#666666" points="108.38,-166 108.38,-166 233.62,-166 233.62,-166 108.38,-166"/>
<polygon fill="#666666" stroke="#666666" points="108.38,-150 108.38,-150 120.38,-150 120.38,-150 108.38,-150"/>
<polygon fill="#666666" stroke="#666666" points="120.38,-150 120.38,-150 233.62,-150 233.62,-150 120.38,-150"/>
<polygon fill="none" stroke="#666666" points="108.38,-120 108.38,-184 233.62,-184 233.62,-120 108.38,-120"/>
</a>
</g>
</g>
<!-- Node1&#45;&gt;Node3 -->
<g id="edge2_Node000001_Node000003" class="edge">
<title>Node1&#45;&gt;Node3</title>
<g id="a_edge2_Node000001_Node000003"><a xlink:title=" ">
<path fill="none" stroke="#63b8ff" d="M171,-208.72C171,-200.25 171,-191.69 171,-183.9"/>
<polygon fill="none" stroke="#63b8ff" points="167.5,-208.62 171,-218.62 174.5,-208.62 167.5,-208.62"/>
</a>
</g>
</g>
<!-- Node2 -->
<g id="Node000002" class="node">
<title>Node2</title>
<g id="a_Node000002"><a xlink:href="class_i_item.html" target="_top" xlink:title="Base class for all items in the game.">
<polygon fill="white" stroke="none" points="229.5,-480 112.5,-480 112.5,-336 229.5,-336 229.5,-480"/>
<text text-anchor="start" x="159.75" y="-466.5" font-family="Helvetica,sans-Serif" font-size="10.00">IItem</text>
<text text-anchor="start" x="116.5" y="-450.5" font-family="Helvetica,sans-Serif" font-size="10.00">+</text>
<text text-anchor="start" x="126.5" y="-450.5" font-family="Helvetica,sans-Serif" font-size="10.00">string name</text>
<text text-anchor="start" x="116.5" y="-434.5" font-family="Helvetica,sans-Serif" font-size="10.00">+</text>
<text text-anchor="start" x="126.5" y="-434.5" font-family="Helvetica,sans-Serif" font-size="10.00">string type</text>
<text text-anchor="start" x="116.5" y="-418.5" font-family="Helvetica,sans-Serif" font-size="10.00">+</text>
<text text-anchor="start" x="126.5" y="-418.5" font-family="Helvetica,sans-Serif" font-size="10.00">int count</text>
<text text-anchor="start" x="118" y="-402.5" font-family="Helvetica,sans-Serif" font-size="10.00">&#45;</text>
<text text-anchor="start" x="126.5" y="-402.5" font-family="Helvetica,sans-Serif" font-size="10.00">string desc</text>
<text text-anchor="start" x="116.5" y="-386.5" font-family="Helvetica,sans-Serif" font-size="10.00">+</text>
<text text-anchor="start" x="126.5" y="-386.5" font-family="Helvetica,sans-Serif" font-size="10.00">IItem(string n, string t,</text>
<text text-anchor="start" x="126.5" y="-374.5" font-family="Helvetica,sans-Serif" font-size="10.00"> string d, int c)</text>
<text text-anchor="start" x="116.5" y="-358.5" font-family="Helvetica,sans-Serif" font-size="10.00">+</text>
<text text-anchor="start" x="126.5" y="-358.5" font-family="Helvetica,sans-Serif" font-size="10.00">virtual ~IItem()</text>
<text text-anchor="start" x="116.5" y="-342.5" font-family="Helvetica,sans-Serif" font-size="10.00">+</text>
<text text-anchor="start" x="126.5" y="-342.5" font-family="Helvetica,sans-Serif" font-size="10.00">virtual string getDesc()</text>
<polygon fill="#666666" stroke="#666666" points="112.5,-462 112.5,-462 229.5,-462 229.5,-462 112.5,-462"/>
<polygon fill="#666666" stroke="#666666" points="112.5,-398 112.5,-398 124.5,-398 124.5,-398 112.5,-398"/>
<polygon fill="#666666" stroke="#666666" points="124.5,-398 124.5,-398 229.5,-398 229.5,-398 124.5,-398"/>
<polygon fill="none" stroke="#666666" points="112.5,-336 112.5,-480 229.5,-480 229.5,-336 112.5,-336"/>
</a>
</g>
</g>
<!-- Node2&#45;&gt;Node1 -->
<g id="edge1_Node000001_Node000002" class="edge">
<title>Node2&#45;&gt;Node1</title>
<g id="a_edge1_Node000001_Node000002"><a xlink:title=" ">
<path fill="none" stroke="#63b8ff" d="M171,-324.73C171,-316.1 171,-307.65 171,-299.86"/>
<polygon fill="none" stroke="#63b8ff" points="167.5,-324.62 171,-334.62 174.5,-324.62 167.5,-324.62"/>
</a>
</g>
</g>
<!-- Node4 -->
<g id="Node000004" class="node">
<title>Node4</title>
<g id="a_Node000004"><a xlink:href="class_health_potion.html" target="_top" xlink:title="Health potions heal the player of course.">
<polygon fill="white" stroke="none" points="162,-84 0,-84 0,0 162,0 162,-84"/>
<text text-anchor="start" x="52.88" y="-70.5" font-family="Helvetica,sans-Serif" font-size="10.00">HealthPotion</text>
<text text-anchor="start" x="79.5" y="-54.5" font-family="Helvetica,sans-Serif" font-size="10.00"> </text>
<text text-anchor="start" x="4" y="-38.5" font-family="Helvetica,sans-Serif" font-size="10.00">+</text>
<text text-anchor="start" x="14" y="-38.5" font-family="Helvetica,sans-Serif" font-size="10.00">HealthPotion(int c)</text>
<text text-anchor="start" x="4" y="-22.5" font-family="Helvetica,sans-Serif" font-size="10.00">+</text>
<text text-anchor="start" x="14" y="-22.5" font-family="Helvetica,sans-Serif" font-size="10.00">bool use(Player &amp;player) override</text>
<text text-anchor="start" x="4" y="-6.5" font-family="Helvetica,sans-Serif" font-size="10.00">+</text>
<text text-anchor="start" x="14" y="-6.5" font-family="Helvetica,sans-Serif" font-size="10.00">string getDesc() override</text>
<polygon fill="#666666" stroke="#666666" points="0,-66 0,-66 162,-66 162,-66 0,-66"/>
<polygon fill="#666666" stroke="#666666" points="0,-50 0,-50 162,-50 162,-50 0,-50"/>
<polygon fill="none" stroke="#666666" points="0,0 0,-84 162,-84 162,0 0,0"/>
</a>
</g>
</g>
<!-- Node3&#45;&gt;Node4 -->
<g id="edge3_Node000003_Node000004" class="edge">
<title>Node3&#45;&gt;Node4</title>
<g id="a_edge3_Node000003_Node000004"><a xlink:title=" ">
<path fill="none" stroke="#63b8ff" d="M137.89,-111.27C130.38,-102.26 122.4,-92.68 114.86,-83.63"/>
<polygon fill="none" stroke="#63b8ff" points="135.15,-113.45 144.24,-118.89 140.53,-108.97 135.15,-113.45"/>
</a>
</g>
</g>
<!-- Node5 -->
<g id="Node000005" class="node">
<title>Node5</title>
<g id="a_Node000005"><a xlink:href="class_strength_potion.html" target="_top" xlink:title="Increases player ATK.">
<polygon fill="white" stroke="none" points="342,-84 180,-84 180,0 342,0 342,-84"/>
<text text-anchor="start" x="228.75" y="-70.5" font-family="Helvetica,sans-Serif" font-size="10.00">StrengthPotion</text>
<text text-anchor="start" x="259.5" y="-54.5" font-family="Helvetica,sans-Serif" font-size="10.00"> </text>
<text text-anchor="start" x="184" y="-38.5" font-family="Helvetica,sans-Serif" font-size="10.00">+</text>
<text text-anchor="start" x="194" y="-38.5" font-family="Helvetica,sans-Serif" font-size="10.00">StrengthPotion(int c)</text>
<text text-anchor="start" x="184" y="-22.5" font-family="Helvetica,sans-Serif" font-size="10.00">+</text>
<text text-anchor="start" x="194" y="-22.5" font-family="Helvetica,sans-Serif" font-size="10.00">bool use(Player &amp;player) override</text>
<text text-anchor="start" x="184" y="-6.5" font-family="Helvetica,sans-Serif" font-size="10.00">+</text>
<text text-anchor="start" x="194" y="-6.5" font-family="Helvetica,sans-Serif" font-size="10.00">string getDesc() override</text>
<polygon fill="#666666" stroke="#666666" points="180,-66 180,-66 342,-66 342,-66 180,-66"/>
<polygon fill="#666666" stroke="#666666" points="180,-50 180,-50 342,-50 342,-50 180,-50"/>
<polygon fill="none" stroke="#666666" points="180,0 180,-84 342,-84 342,0 180,0"/>
</a>
</g>
</g>
<!-- Node3&#45;&gt;Node5 -->
<g id="edge4_Node000003_Node000005" class="edge">
<title>Node3&#45;&gt;Node5</title>
<g id="a_edge4_Node000003_Node000005"><a xlink:title=" ">
<path fill="none" stroke="#63b8ff" d="M204.11,-111.27C211.62,-102.26 219.6,-92.68 227.14,-83.63"/>
<polygon fill="none" stroke="#63b8ff" points="201.47,-108.97 197.76,-118.89 206.85,-113.45 201.47,-108.97"/>
</a>
</g>
</g>
</g>
</svg>
