<?xml version="1.0" encoding="UTF-8" standalone="no"?>
<!DOCTYPE svg PUBLIC "-//W3C//DTD SVG 1.1//EN"
 "http://www.w3.org/Graphics/SVG/1.1/DTD/svg11.dtd">
<!-- Generated by graphviz version 12.2.1 (20241206.2353)
 -->
<!-- Title: Inventory::addItem Pages: 1 -->
<svg width="316pt" height="104pt"
 viewBox="0.00 0.00 316.25 104.00" xmlns="http://www.w3.org/2000/svg" xmlns:xlink="http://www.w3.org/1999/xlink">
<g id="graph0" class="graph" transform="scale(1 1) rotate(0) translate(4 100)">
<title>Inventory::addItem</title>
<!-- Node1 -->
<g id="Node000001" class="node">
<title>Node1</title>
<g id="a_Node000001"><a xlink:title="Adds an item to inventory.">
<polygon fill="#999999" stroke="#666666" points="97.75,-58 0,-58 0,-38 97.75,-38 97.75,-58"/>
<text text-anchor="middle" x="48.88" y="-44.5" font-family="Helvetica,sans-Serif" font-size="10.00">Inventory::addItem</text>
</a>
</g>
</g>
<!-- Node2 -->
<g id="Node000002" class="node">
<title>Node2</title>
<g id="a_Node000002"><a xlink:href="class_i_item.html#a5a1e25be1c8a94e21ec832a9b7b5492f" target="_top" xlink:title=" ">
<polygon fill="white" stroke="#666666" points="218,-96 133.75,-96 133.75,-76 218,-76 218,-96"/>
<text text-anchor="middle" x="175.88" y="-82.5" font-family="Helvetica,sans-Serif" font-size="10.00">IItem::getCount</text>
</a>
</g>
</g>
<!-- Node1&#45;&gt;Node2 -->
<g id="edge1_Node000001_Node000002" class="edge">
<title>Node1&#45;&gt;Node2</title>
<g id="a_edge1_Node000001_Node000002"><a xlink:title=" ">
<path fill="none" stroke="#63b8ff" d="M84.36,-58.48C98.44,-62.76 114.9,-67.77 129.89,-72.33"/>
<polygon fill="#63b8ff" stroke="#63b8ff" points="128.47,-75.55 139.05,-75.11 130.5,-68.85 128.47,-75.55"/>
</a>
</g>
</g>
<!-- Node3 -->
<g id="Node000003" class="node">
<title>Node3</title>
<g id="a_Node000003"><a xlink:href="class_i_item.html#a6b86cf44e8eebf94b7096ea5645a0527" target="_top" xlink:title=" ">
<polygon fill="white" stroke="#666666" points="218,-58 133.75,-58 133.75,-38 218,-38 218,-58"/>
<text text-anchor="middle" x="175.88" y="-44.5" font-family="Helvetica,sans-Serif" font-size="10.00">IItem::getName</text>
</a>
</g>
</g>
<!-- Node1&#45;&gt;Node3 -->
<g id="edge2_Node000001_Node000003" class="edge">
<title>Node1&#45;&gt;Node3</title>
<g id="a_edge2_Node000001_Node000003"><a xlink:title=" ">
<path fill="none" stroke="#63b8ff" d="M98.2,-48C106.05,-48 114.21,-48 122.16,-48"/>
<polygon fill="#63b8ff" stroke="#63b8ff" points="122.07,-51.5 132.07,-48 122.07,-44.5 122.07,-51.5"/>
</a>
</g>
</g>
<!-- Node4 -->
<g id="Node000004" class="node">
<title>Node4</title>
<g id="a_Node000004"><a xlink:href="extras_8cpp.html#a251383c9dea6cb260fb6f9ebb010139f" target="_top" xlink:title="Outputs a text character by character with a given delay.">
<polygon fill="white" stroke="#666666" points="211.25,-20 140.5,-20 140.5,0 211.25,0 211.25,-20"/>
<text text-anchor="middle" x="175.88" y="-6.5" font-family="Helvetica,sans-Serif" font-size="10.00">printAnimate</text>
</a>
</g>
</g>
<!-- Node1&#45;&gt;Node4 -->
<g id="edge3_Node000001_Node000004" class="edge">
<title>Node1&#45;&gt;Node4</title>
<g id="a_edge3_Node000001_Node000004"><a xlink:title=" ">
<path fill="none" stroke="#63b8ff" d="M84.36,-37.52C98.44,-33.24 114.9,-28.23 129.89,-23.67"/>
<polygon fill="#63b8ff" stroke="#63b8ff" points="130.5,-27.15 139.05,-20.89 128.47,-20.45 130.5,-27.15"/>
</a>
</g>
</g>
<!-- Node5 -->
<g id="Node000005" class="node">
<title>Node5</title>
<g id="a_Node000005"><a xlink:href="extras_8cpp.html#aea0e34fe8a665ef6cb1fd6526ce1deb0" target="_top" xlink:title=" ">
<polygon fill="white" stroke="#666666" points="308.25,-20 254,-20 254,0 308.25,0 308.25,-20"/>
<text text-anchor="middle" x="281.12" y="-6.5" font-family="Helvetica,sans-Serif" font-size="10.00">sleepMS</text>
</a>
</g>
</g>
<!-- Node4&#45;&gt;Node5 -->
<g id="edge4_Node000004_Node000005" class="edge">
<title>Node4&#45;&gt;Node5</title>
<g id="a_edge4_Node000004_Node000005"><a xlink:title=" ">
<path fill="none" stroke="#63b8ff" d="M211.54,-10C221.4,-10 232.18,-10 242.21,-10"/>
<polygon fill="#63b8ff" stroke="#63b8ff" points="242.04,-13.5 252.04,-10 242.04,-6.5 242.04,-13.5"/>
</a>
</g>
</g>
</g>
</svg>
