<?xml version="1.0" encoding="UTF-8" standalone="no"?>
<!DOCTYPE svg PUBLIC "-//W3C//DTD SVG 1.1//EN"
 "http://www.w3.org/Graphics/SVG/1.1/DTD/svg11.dtd">
<!-- Generated by graphviz version 12.2.1 (20241206.2353)
 -->
<!-- Title: IPotion Pages: 1 -->
<svg width="173pt" height="340pt"
 viewBox="0.00 0.00 173.00 340.00" xmlns="http://www.w3.org/2000/svg" xmlns:xlink="http://www.w3.org/1999/xlink">

<svg id="main" version="1.1" xmlns="http://www.w3.org/2000/svg" xmlns:xlink="http://www.w3.org/1999/xlink" xml:space="preserve">

<style type="text/css"><![CDATA[
.node, .edge {opacity: 0.7;}
.node.selected, .edge.selected {opacity: 1;}
.edge:hover path { stroke: red; }
.edge:hover polygon { stroke: red; fill: red; }
]]></style>
<script type="application/ecmascript" xlink:href="svg.min.js"/>
<svg id="graph" class="graph">
<g id="graph0" class="graph" transform="scale(1 1) rotate(0) translate(4 336)">
<title>IPotion</title>
<!-- Node1 -->
<g id="Node000001" class="node">
<title>Node1</title>
<g id="a_Node000001"><a xlink:title="Potions set the type to &quot;Potion&quot;.">
<polygon fill="#999999" stroke="none" points="157.5,-52 7.5,-52 7.5,0 157.5,0 157.5,-52"/>
<text text-anchor="start" x="67.12" y="-38.5" font-family="Helvetica,sans-Serif" font-size="10.00">IPotion</text>
<text text-anchor="start" x="81" y="-22.5" font-family="Helvetica,sans-Serif" font-size="10.00"> </text>
<text text-anchor="start" x="11.5" y="-6.5" font-family="Helvetica,sans-Serif" font-size="10.00">+</text>
<text text-anchor="start" x="21.5" y="-6.5" font-family="Helvetica,sans-Serif" font-size="10.00">IPotion(string n, string d, int c)</text>
<polygon fill="#666666" stroke="#666666" points="7.5,-34 7.5,-34 157.5,-34 157.5,-34 7.5,-34"/>
<polygon fill="#666666" stroke="#666666" points="7.5,-18 7.5,-18 157.5,-18 157.5,-18 7.5,-18"/>
<polygon fill="none" stroke="#666666" points="7.5,0 7.5,-52 157.5,-52 157.5,0 7.5,0"/>
</a>
</g>
</g>
<!-- Node2 -->
<g id="Node000002" class="node">
<title>Node2</title>
<g id="a_Node000002"><a xlink:href="class_i_player_item.html" target="_top" xlink:title="Player items. The use function takes in a player only.">
<polygon fill="white" stroke="none" points="165,-168 0,-168 0,-88 165,-88 165,-168"/>
<text text-anchor="start" x="57.38" y="-154.5" font-family="Helvetica,sans-Serif" font-size="10.00">IPlayerItem</text>
<text text-anchor="start" x="81" y="-138.5" font-family="Helvetica,sans-Serif" font-size="10.00"> </text>
<text text-anchor="start" x="4" y="-122.5" font-family="Helvetica,sans-Serif" font-size="10.00">+</text>
<text text-anchor="start" x="14" y="-122.5" font-family="Helvetica,sans-Serif" font-size="10.00">IPlayerItem(string n, string</text>
<text text-anchor="start" x="14" y="-110.5" font-family="Helvetica,sans-Serif" font-size="10.00"> t, string d, int c)</text>
<text text-anchor="start" x="4" y="-94.5" font-family="Helvetica,sans-Serif" font-size="10.00">+</text>
<text text-anchor="start" x="14" y="-94.5" font-family="Helvetica,sans-Serif" font-size="10.00">virtual bool use(Player &amp;player)=0</text>
<polygon fill="#666666" stroke="#666666" points="0,-150 0,-150 165,-150 165,-150 0,-150"/>
<polygon fill="#666666" stroke="#666666" points="0,-134 0,-134 165,-134 165,-134 0,-134"/>
<polygon fill="none" stroke="#666666" points="0,-88 0,-168 165,-168 165,-88 0,-88"/>
</a>
</g>
</g>
<!-- Node2&#45;&gt;Node1 -->
<g id="edge1_Node000001_Node000002" class="edge">
<title>Node2&#45;&gt;Node1</title>
<g id="a_edge1_Node000001_Node000002"><a xlink:title=" ">
<path fill="none" stroke="#63b8ff" d="M82.5,-76.75C82.5,-68.1 82.5,-59.45 82.5,-51.85"/>
<polygon fill="none" stroke="#63b8ff" points="79,-76.54 82.5,-86.54 86,-76.54 79,-76.54"/>
</a>
</g>
</g>
<!-- Node3 -->
<g id="Node000003" class="node">
<title>Node3</title>
<g id="a_Node000003"><a xlink:href="class_i_item.html" target="_top" xlink:title="Base class for all items in the game.">
<polygon fill="white" stroke="none" points="139.88,-332 25.12,-332 25.12,-204 139.88,-204 139.88,-332"/>
<text text-anchor="start" x="71.25" y="-318.5" font-family="Helvetica,sans-Serif" font-size="10.00">IItem</text>
<text text-anchor="start" x="29.12" y="-302.5" font-family="Helvetica,sans-Serif" font-size="10.00">+</text>
<text text-anchor="start" x="39.12" y="-302.5" font-family="Helvetica,sans-Serif" font-size="10.00">string name</text>
<text text-anchor="start" x="29.12" y="-286.5" font-family="Helvetica,sans-Serif" font-size="10.00">+</text>
<text text-anchor="start" x="39.12" y="-286.5" font-family="Helvetica,sans-Serif" font-size="10.00">string type</text>
<text text-anchor="start" x="29.12" y="-270.5" font-family="Helvetica,sans-Serif" font-size="10.00">+</text>
<text text-anchor="start" x="39.12" y="-270.5" font-family="Helvetica,sans-Serif" font-size="10.00">string desc</text>
<text text-anchor="start" x="29.12" y="-254.5" font-family="Helvetica,sans-Serif" font-size="10.00">+</text>
<text text-anchor="start" x="39.12" y="-254.5" font-family="Helvetica,sans-Serif" font-size="10.00">int count</text>
<text text-anchor="start" x="29.12" y="-238.5" font-family="Helvetica,sans-Serif" font-size="10.00">+</text>
<text text-anchor="start" x="39.12" y="-238.5" font-family="Helvetica,sans-Serif" font-size="10.00">IItem(string n, string t,</text>
<text text-anchor="start" x="39.12" y="-226.5" font-family="Helvetica,sans-Serif" font-size="10.00"> string d, int c)</text>
<text text-anchor="start" x="29.12" y="-210.5" font-family="Helvetica,sans-Serif" font-size="10.00">+</text>
<text text-anchor="start" x="39.12" y="-210.5" font-family="Helvetica,sans-Serif" font-size="10.00">virtual ~IItem()</text>
<polygon fill="#666666" stroke="#666666" points="25.12,-314 25.12,-314 139.88,-314 139.88,-314 25.12,-314"/>
<polygon fill="#666666" stroke="#666666" points="25.12,-250 25.12,-250 37.12,-250 37.12,-250 25.12,-250"/>
<polygon fill="#666666" stroke="#666666" points="37.12,-250 37.12,-250 139.88,-250 139.88,-250 37.12,-250"/>
<polygon fill="none" stroke="#666666" points="25.12,-204 25.12,-332 139.88,-332 139.88,-204 25.12,-204"/>
</a>
</g>
</g>
<!-- Node3&#45;&gt;Node2 -->
<g id="edge2_Node000002_Node000003" class="edge">
<title>Node3&#45;&gt;Node2</title>
<g id="a_edge2_Node000002_Node000003"><a xlink:title=" ">
<path fill="none" stroke="#63b8ff" d="M82.5,-192.72C82.5,-184.12 82.5,-175.62 82.5,-167.77"/>
<polygon fill="none" stroke="#63b8ff" points="79,-192.54 82.5,-202.54 86,-192.54 79,-192.54"/>
</a>
</g>
</g>
</g>
</svg>
</svg>

<style type='text/css'>
<![CDATA[
[data-mouse-over-selected='false'] { opacity: 0.7; }
[data-mouse-over-selected='true']  { opacity: 1.0; }
]]>
</style>
<script type="application/ecmascript"><![CDATA[
document.addEventListener('DOMContentLoaded', (event) => {
  highlightEdges();
  highlightAdjacentNodes();
});
]]></script>
</svg>
