<?xml version="1.0" encoding="UTF-8" standalone="no"?>
<!DOCTYPE svg PUBLIC "-//W3C//DTD SVG 1.1//EN"
 "http://www.w3.org/Graphics/SVG/1.1/DTD/svg11.dtd">
<!-- Generated by graphviz version 12.2.1 (20241206.2353)
 -->
<!-- Title: Battle Pages: 1 -->
<svg width="438pt" height="897pt"
 viewBox="0.00 0.00 438.00 897.00" xmlns="http://www.w3.org/2000/svg" xmlns:xlink="http://www.w3.org/1999/xlink">
<g id="graph0" class="graph" transform="scale(1 1) rotate(0) translate(4 893)">
<title>Battle</title>
<!-- Node1 -->
<g id="Node000001" class="node">
<title>Node1</title>
<g id="a_Node000001"><a xlink:title="The battle screen. The user can attack, use an item, or run away.">
<polygon fill="#999999" stroke="none" points="414.38,-176 216.38,-176 216.38,0 414.38,0 414.38,-176"/>
<text text-anchor="start" x="302.62" y="-162.5" font-family="Helvetica,sans-Serif" font-size="10.00">Battle</text>
<text text-anchor="start" x="221.88" y="-146.5" font-family="Helvetica,sans-Serif" font-size="10.00">&#45;</text>
<text text-anchor="start" x="230.38" y="-146.5" font-family="Helvetica,sans-Serif" font-size="10.00">bool didIntro</text>
<text text-anchor="start" x="221.88" y="-130.5" font-family="Helvetica,sans-Serif" font-size="10.00">&#45;</text>
<text text-anchor="start" x="230.38" y="-130.5" font-family="Helvetica,sans-Serif" font-size="10.00">int rewardMoney</text>
<text text-anchor="start" x="221.88" y="-114.5" font-family="Helvetica,sans-Serif" font-size="10.00">&#45;</text>
<text text-anchor="start" x="230.38" y="-114.5" font-family="Helvetica,sans-Serif" font-size="10.00">function&lt; UserInterface *(Player)&gt; onWin</text>
<text text-anchor="start" x="221.88" y="-98.5" font-family="Helvetica,sans-Serif" font-size="10.00">&#45;</text>
<text text-anchor="start" x="230.38" y="-98.5" font-family="Helvetica,sans-Serif" font-size="10.00">function&lt; UserInterface *(Player)</text>
<text text-anchor="start" x="230.38" y="-86.5" font-family="Helvetica,sans-Serif" font-size="10.00">&gt; onLose</text>
<text text-anchor="start" x="220.38" y="-70.5" font-family="Helvetica,sans-Serif" font-size="10.00">+</text>
<text text-anchor="start" x="230.38" y="-70.5" font-family="Helvetica,sans-Serif" font-size="10.00">Battle(Player player, Entity</text>
<text text-anchor="start" x="230.38" y="-58.5" font-family="Helvetica,sans-Serif" font-size="10.00"> enemy, int reward, function</text>
<text text-anchor="start" x="230.38" y="-46.5" font-family="Helvetica,sans-Serif" font-size="10.00">&lt; UserInterface *(Player)&gt; winCallback,</text>
<text text-anchor="start" x="230.38" y="-34.5" font-family="Helvetica,sans-Serif" font-size="10.00"> function&lt; UserInterface *(Player)&gt;</text>
<text text-anchor="start" x="230.38" y="-22.5" font-family="Helvetica,sans-Serif" font-size="10.00"> loseCallback)</text>
<text text-anchor="start" x="220.38" y="-6.5" font-family="Helvetica,sans-Serif" font-size="10.00">+</text>
<text text-anchor="start" x="230.38" y="-6.5" font-family="Helvetica,sans-Serif" font-size="10.00">UserInterface * render() override</text>
<polygon fill="#666666" stroke="#666666" points="216.38,-158 216.38,-158 414.38,-158 414.38,-158 216.38,-158"/>
<polygon fill="#666666" stroke="#666666" points="216.38,-82 216.38,-82 228.38,-82 228.38,-82 216.38,-82"/>
<polygon fill="#666666" stroke="#666666" points="228.38,-82 228.38,-82 414.38,-82 414.38,-82 228.38,-82"/>
<polygon fill="none" stroke="#666666" points="216.38,0 216.38,-176 414.38,-176 414.38,0 216.38,0"/>
</a>
</g>
</g>
<!-- Node2 -->
<g id="Node000002" class="node">
<title>Node2</title>
<g id="a_Node000002"><a xlink:href="class_u_i_with_player.html" target="_top" xlink:title="Basically just the base class for all user interfaces that have a player.">
<polygon fill="white" stroke="none" points="331.12,-281 191.62,-281 191.62,-213 331.12,-213 331.12,-281"/>
<text text-anchor="start" x="232.12" y="-267.5" font-family="Helvetica,sans-Serif" font-size="10.00">UIWithPlayer</text>
<text text-anchor="start" x="259.88" y="-251.5" font-family="Helvetica,sans-Serif" font-size="10.00"> </text>
<text text-anchor="start" x="195.62" y="-235.5" font-family="Helvetica,sans-Serif" font-size="10.00">+</text>
<text text-anchor="start" x="205.62" y="-235.5" font-family="Helvetica,sans-Serif" font-size="10.00">UIWithPlayer()</text>
<text text-anchor="start" x="195.62" y="-219.5" font-family="Helvetica,sans-Serif" font-size="10.00">+</text>
<text text-anchor="start" x="205.62" y="-219.5" font-family="Helvetica,sans-Serif" font-size="10.00">UIWithPlayer(Player player)</text>
<polygon fill="#666666" stroke="#666666" points="191.62,-263 191.62,-263 331.12,-263 331.12,-263 191.62,-263"/>
<polygon fill="#666666" stroke="#666666" points="191.62,-247 191.62,-247 331.12,-247 331.12,-247 191.62,-247"/>
<polygon fill="none" stroke="#666666" points="191.62,-213 191.62,-281 331.12,-281 331.12,-213 191.62,-213"/>
</a>
</g>
</g>
<!-- Node2&#45;&gt;Node1 -->
<g id="edge1_Node000001_Node000002" class="edge">
<title>Node2&#45;&gt;Node1</title>
<g id="a_edge1_Node000001_Node000002"><a xlink:title=" ">
<path fill="none" stroke="#63b8ff" d="M276.43,-202.22C279.28,-193.93 282.36,-184.99 285.49,-175.89"/>
<polygon fill="none" stroke="#63b8ff" points="273.13,-201.06 273.19,-211.66 279.75,-203.34 273.13,-201.06"/>
</a>
</g>
</g>
<!-- Node3 -->
<g id="Node000003" class="node">
<title>Node3</title>
<g id="a_Node000003"><a xlink:href="class_user_interface.html" target="_top" xlink:title="Base class for all user interfaces in the game.">
<polygon fill="white" stroke="none" points="341.62,-443 181.12,-443 181.12,-375 341.62,-375 341.62,-443"/>
<text text-anchor="start" x="231.75" y="-429.5" font-family="Helvetica,sans-Serif" font-size="10.00">UserInterface</text>
<text text-anchor="start" x="185.12" y="-413.5" font-family="Helvetica,sans-Serif" font-size="10.00">+</text>
<text text-anchor="start" x="195.12" y="-413.5" font-family="Helvetica,sans-Serif" font-size="10.00">bool quitGame</text>
<text text-anchor="start" x="185.12" y="-397.5" font-family="Helvetica,sans-Serif" font-size="10.00">+</text>
<text text-anchor="start" x="195.12" y="-397.5" font-family="Helvetica,sans-Serif" font-size="10.00">virtual UserInterface * render()=0</text>
<text text-anchor="start" x="185.12" y="-381.5" font-family="Helvetica,sans-Serif" font-size="10.00">+</text>
<text text-anchor="start" x="195.12" y="-381.5" font-family="Helvetica,sans-Serif" font-size="10.00">virtual ~UserInterface()</text>
<polygon fill="#666666" stroke="#666666" points="181.12,-425 181.12,-425 341.62,-425 341.62,-425 181.12,-425"/>
<polygon fill="#666666" stroke="#666666" points="181.12,-409 181.12,-409 193.12,-409 193.12,-409 181.12,-409"/>
<polygon fill="#666666" stroke="#666666" points="193.12,-409 193.12,-409 341.62,-409 341.62,-409 193.12,-409"/>
<polygon fill="none" stroke="#666666" points="181.12,-375 181.12,-443 341.62,-443 341.62,-375 181.12,-375"/>
</a>
</g>
</g>
<!-- Node3&#45;&gt;Node2 -->
<g id="edge2_Node000002_Node000003" class="edge">
<title>Node3&#45;&gt;Node2</title>
<g id="a_edge2_Node000002_Node000003"><a xlink:title=" ">
<path fill="none" stroke="#63b8ff" d="M261.38,-364.06C261.38,-337.82 261.38,-305.02 261.38,-281"/>
<polygon fill="none" stroke="#63b8ff" points="257.88,-363.72 261.38,-373.72 264.88,-363.72 257.88,-363.72"/>
</a>
</g>
</g>
<!-- Node4 -->
<g id="Node000004" class="node">
<title>Node4</title>
<g id="a_Node000004"><a xlink:href="class_player.html" target="_top" xlink:title="The Player class is an Entity that has an inventory and money.">
<polygon fill="white" stroke="none" points="162.75,-489 0,-489 0,-329 162.75,-329 162.75,-489"/>
<text text-anchor="start" x="67.5" y="-475.5" font-family="Helvetica,sans-Serif" font-size="10.00">Player</text>
<text text-anchor="start" x="5.5" y="-459.5" font-family="Helvetica,sans-Serif" font-size="10.00">&#45;</text>
<text text-anchor="start" x="14" y="-459.5" font-family="Helvetica,sans-Serif" font-size="10.00">int money</text>
<text text-anchor="start" x="4" y="-443.5" font-family="Helvetica,sans-Serif" font-size="10.00">+</text>
<text text-anchor="start" x="14" y="-443.5" font-family="Helvetica,sans-Serif" font-size="10.00">Player()</text>
<text text-anchor="start" x="4" y="-427.5" font-family="Helvetica,sans-Serif" font-size="10.00">+</text>
<text text-anchor="start" x="14" y="-427.5" font-family="Helvetica,sans-Serif" font-size="10.00">Player(int health, string</text>
<text text-anchor="start" x="14" y="-415.5" font-family="Helvetica,sans-Serif" font-size="10.00"> name, int atk, int def, int money)</text>
<text text-anchor="start" x="4" y="-399.5" font-family="Helvetica,sans-Serif" font-size="10.00">+</text>
<text text-anchor="start" x="14" y="-399.5" font-family="Helvetica,sans-Serif" font-size="10.00">void addMoney(int amount)</text>
<text text-anchor="start" x="4" y="-383.5" font-family="Helvetica,sans-Serif" font-size="10.00">+</text>
<text text-anchor="start" x="14" y="-383.5" font-family="Helvetica,sans-Serif" font-size="10.00">int getMoney()</text>
<text text-anchor="start" x="4" y="-367.5" font-family="Helvetica,sans-Serif" font-size="10.00">+</text>
<text text-anchor="start" x="14" y="-367.5" font-family="Helvetica,sans-Serif" font-size="10.00">void setMoney(int amount)</text>
<text text-anchor="start" x="4" y="-351.5" font-family="Helvetica,sans-Serif" font-size="10.00">+</text>
<text text-anchor="start" x="14" y="-351.5" font-family="Helvetica,sans-Serif" font-size="10.00">bool canAfford(int amount)</text>
<text text-anchor="start" x="4" y="-335.5" font-family="Helvetica,sans-Serif" font-size="10.00">+</text>
<text text-anchor="start" x="14" y="-335.5" font-family="Helvetica,sans-Serif" font-size="10.00">bool canAfford(ShopItem &amp;item)</text>
<polygon fill="#666666" stroke="#666666" points="0,-471 0,-471 162.75,-471 162.75,-471 0,-471"/>
<polygon fill="#666666" stroke="#666666" points="0,-455 0,-455 12,-455 12,-455 0,-455"/>
<polygon fill="#666666" stroke="#666666" points="12,-455 12,-455 162.75,-455 162.75,-455 12,-455"/>
<polygon fill="none" stroke="#666666" points="0,-329 0,-489 162.75,-489 162.75,-329 0,-329"/>
</a>
</g>
</g>
<!-- Node4&#45;&gt;Node2 -->
<g id="edge3_Node000002_Node000004" class="edge">
<title>Node4&#45;&gt;Node2</title>
<g id="a_edge3_Node000002_Node000004"><a xlink:title=" ">
<path fill="none" stroke="#63b8ff" d="M162.69,-335.72C180.59,-319.81 198.95,-303.49 214.91,-289.31"/>
<polygon fill="none" stroke="#63b8ff" points="214.86,-289.34 216.69,-282.37 223.83,-281.37 222,-288.35 214.86,-289.34"/>
</a>
</g>
<text text-anchor="middle" x="220.4" y="-301.5" font-family="Helvetica,sans-Serif" font-size="10.00" fill="grey"> #player</text>
</g>
<!-- Node5 -->
<g id="Node000005" class="node">
<title>Node5</title>
<g id="a_Node000005"><a xlink:href="class_entity.html" target="_top" xlink:title="Base class for all entities in the game. This includes the player and enemies.">
<polygon fill="white" stroke="none" points="373.38,-773 241.38,-773 241.38,-537 373.38,-537 373.38,-773"/>
<text text-anchor="start" x="294.62" y="-759.5" font-family="Helvetica,sans-Serif" font-size="10.00">Entity</text>
<text text-anchor="start" x="245.75" y="-743.5" font-family="Helvetica,sans-Serif" font-size="10.00">#</text>
<text text-anchor="start" x="255.38" y="-743.5" font-family="Helvetica,sans-Serif" font-size="10.00">string name</text>
<text text-anchor="start" x="245.38" y="-727.5" font-family="Helvetica,sans-Serif" font-size="10.00">+</text>
<text text-anchor="start" x="255.38" y="-727.5" font-family="Helvetica,sans-Serif" font-size="10.00">Entity(int health, string</text>
<text text-anchor="start" x="255.38" y="-715.5" font-family="Helvetica,sans-Serif" font-size="10.00"> name, int atk, int def)</text>
<text text-anchor="start" x="245.38" y="-699.5" font-family="Helvetica,sans-Serif" font-size="10.00">+</text>
<text text-anchor="start" x="255.38" y="-699.5" font-family="Helvetica,sans-Serif" font-size="10.00">virtual ~Entity()</text>
<text text-anchor="start" x="245.38" y="-683.5" font-family="Helvetica,sans-Serif" font-size="10.00">+</text>
<text text-anchor="start" x="255.38" y="-683.5" font-family="Helvetica,sans-Serif" font-size="10.00">void attack(Entity &amp;target,</text>
<text text-anchor="start" x="255.38" y="-671.5" font-family="Helvetica,sans-Serif" font-size="10.00"> int extraDmg=0)</text>
<text text-anchor="start" x="245.38" y="-655.5" font-family="Helvetica,sans-Serif" font-size="10.00">+</text>
<text text-anchor="start" x="255.38" y="-655.5" font-family="Helvetica,sans-Serif" font-size="10.00">int getHealth()</text>
<text text-anchor="start" x="245.38" y="-639.5" font-family="Helvetica,sans-Serif" font-size="10.00">+</text>
<text text-anchor="start" x="255.38" y="-639.5" font-family="Helvetica,sans-Serif" font-size="10.00">int getMaxHealth()</text>
<text text-anchor="start" x="245.38" y="-623.5" font-family="Helvetica,sans-Serif" font-size="10.00">+</text>
<text text-anchor="start" x="255.38" y="-623.5" font-family="Helvetica,sans-Serif" font-size="10.00">bool isFullHealth()</text>
<text text-anchor="start" x="245.38" y="-607.5" font-family="Helvetica,sans-Serif" font-size="10.00">+</text>
<text text-anchor="start" x="255.38" y="-607.5" font-family="Helvetica,sans-Serif" font-size="10.00">void fullyHeal()</text>
<text text-anchor="start" x="245.38" y="-591.5" font-family="Helvetica,sans-Serif" font-size="10.00">+</text>
<text text-anchor="start" x="255.38" y="-591.5" font-family="Helvetica,sans-Serif" font-size="10.00">bool isAlive()</text>
<text text-anchor="start" x="245.38" y="-575.5" font-family="Helvetica,sans-Serif" font-size="10.00">+</text>
<text text-anchor="start" x="255.38" y="-575.5" font-family="Helvetica,sans-Serif" font-size="10.00">void heal(int amount)</text>
<text text-anchor="start" x="245.38" y="-559.5" font-family="Helvetica,sans-Serif" font-size="10.00">+</text>
<text text-anchor="start" x="255.38" y="-559.5" font-family="Helvetica,sans-Serif" font-size="10.00">void kill()</text>
<text text-anchor="start" x="255.38" y="-543.5" font-family="Helvetica,sans-Serif" font-size="10.00">and 6 more...</text>
<polygon fill="#666666" stroke="#666666" points="241.38,-755 241.38,-755 373.38,-755 373.38,-755 241.38,-755"/>
<polygon fill="#666666" stroke="#666666" points="241.38,-739 241.38,-739 253.38,-739 253.38,-739 241.38,-739"/>
<polygon fill="#666666" stroke="#666666" points="253.38,-739 253.38,-739 373.38,-739 373.38,-739 253.38,-739"/>
<polygon fill="none" stroke="#666666" points="241.38,-537 241.38,-773 373.38,-773 373.38,-537 241.38,-537"/>
</a>
</g>
</g>
<!-- Node5&#45;&gt;Node1 -->
<g id="edge8_Node000001_Node000005" class="edge">
<title>Node5&#45;&gt;Node1</title>
<g id="a_edge8_Node000001_Node000005"><a xlink:title=" ">
<path fill="none" stroke="#63b8ff" d="M341.75,-537.09C345.31,-521.06 348.36,-504.71 350.38,-489 365.98,-367.25 357.8,-334.5 340.38,-213 339.23,-204.99 337.89,-196.71 336.44,-188.42"/>
<polygon fill="none" stroke="#63b8ff" points="336.47,-188.54 331.46,-183.34 334.33,-176.73 339.34,-181.92 336.47,-188.54"/>
</a>
</g>
<text text-anchor="middle" x="371.73" y="-301.5" font-family="Helvetica,sans-Serif" font-size="10.00" fill="grey"> &#45;enemy</text>
</g>
<!-- Node5&#45;&gt;Node4 -->
<g id="edge4_Node000004_Node000005" class="edge">
<title>Node5&#45;&gt;Node4</title>
<g id="a_edge4_Node000004_Node000005"><a xlink:title=" ">
<path fill="none" stroke="#63b8ff" d="M233.59,-574.34C208.1,-546.82 179.57,-516.02 154.16,-488.59"/>
<polygon fill="none" stroke="#63b8ff" points="231.01,-576.7 240.37,-581.66 236.14,-571.94 231.01,-576.7"/>
</a>
</g>
</g>
<!-- Node6 -->
<g id="Node000006" class="node">
<title>Node6</title>
<g id="a_Node000006"><a xlink:href="struct_health.html" target="_top" xlink:title=" ">
<polygon fill="white" stroke="none" points="304.5,-889 170.25,-889 170.25,-821 304.5,-821 304.5,-889"/>
<text text-anchor="start" x="223.12" y="-875.5" font-family="Helvetica,sans-Serif" font-size="10.00">Health</text>
<text text-anchor="start" x="174.25" y="-859.5" font-family="Helvetica,sans-Serif" font-size="10.00">+</text>
<text text-anchor="start" x="184.25" y="-859.5" font-family="Helvetica,sans-Serif" font-size="10.00">int current</text>
<text text-anchor="start" x="174.25" y="-843.5" font-family="Helvetica,sans-Serif" font-size="10.00">+</text>
<text text-anchor="start" x="184.25" y="-843.5" font-family="Helvetica,sans-Serif" font-size="10.00">int max</text>
<text text-anchor="start" x="174.25" y="-827.5" font-family="Helvetica,sans-Serif" font-size="10.00">+</text>
<text text-anchor="start" x="184.25" y="-827.5" font-family="Helvetica,sans-Serif" font-size="10.00">Health(int current, int max)</text>
<polygon fill="#666666" stroke="#666666" points="170.25,-871 170.25,-871 304.5,-871 304.5,-871 170.25,-871"/>
<polygon fill="#666666" stroke="#666666" points="170.25,-839 170.25,-839 182.25,-839 182.25,-839 170.25,-839"/>
<polygon fill="#666666" stroke="#666666" points="182.25,-839 182.25,-839 304.5,-839 304.5,-839 182.25,-839"/>
<polygon fill="none" stroke="#666666" points="170.25,-821 170.25,-889 304.5,-889 304.5,-821 170.25,-821"/>
</a>
</g>
</g>
<!-- Node6&#45;&gt;Node5 -->
<g id="edge5_Node000005_Node000006" class="edge">
<title>Node6&#45;&gt;Node5</title>
<g id="a_edge5_Node000005_Node000006"><a xlink:title=" ">
<path fill="none" stroke="#63b8ff" d="M248.93,-821.3C252.72,-810.6 257.18,-797.98 261.92,-784.57"/>
<polygon fill="none" stroke="#63b8ff" points="261.85,-784.76 260.08,-777.77 265.85,-773.45 267.62,-780.44 261.85,-784.76"/>
</a>
</g>
<text text-anchor="middle" x="275.31" y="-793.5" font-family="Helvetica,sans-Serif" font-size="10.00" fill="grey"> #health</text>
</g>
<!-- Node7 -->
<g id="Node000007" class="node">
<title>Node7</title>
<g id="a_Node000007"><a xlink:href="struct_stats.html" target="_top" xlink:title="Stats for all entities.">
<polygon fill="white" stroke="none" points="430,-889 322.75,-889 322.75,-821 430,-821 430,-889"/>
<text text-anchor="start" x="364.75" y="-875.5" font-family="Helvetica,sans-Serif" font-size="10.00">Stats</text>
<text text-anchor="start" x="326.75" y="-859.5" font-family="Helvetica,sans-Serif" font-size="10.00">+</text>
<text text-anchor="start" x="336.75" y="-859.5" font-family="Helvetica,sans-Serif" font-size="10.00">int atk</text>
<text text-anchor="start" x="326.75" y="-843.5" font-family="Helvetica,sans-Serif" font-size="10.00">+</text>
<text text-anchor="start" x="336.75" y="-843.5" font-family="Helvetica,sans-Serif" font-size="10.00">int def</text>
<text text-anchor="start" x="326.75" y="-827.5" font-family="Helvetica,sans-Serif" font-size="10.00">+</text>
<text text-anchor="start" x="336.75" y="-827.5" font-family="Helvetica,sans-Serif" font-size="10.00">Stats(int atk, int def)</text>
<polygon fill="#666666" stroke="#666666" points="322.75,-871 322.75,-871 430,-871 430,-871 322.75,-871"/>
<polygon fill="#666666" stroke="#666666" points="322.75,-839 322.75,-839 334.75,-839 334.75,-839 322.75,-839"/>
<polygon fill="#666666" stroke="#666666" points="334.75,-839 334.75,-839 430,-839 430,-839 334.75,-839"/>
<polygon fill="none" stroke="#666666" points="322.75,-821 322.75,-889 430,-889 430,-821 322.75,-821"/>
</a>
</g>
</g>
<!-- Node7&#45;&gt;Node5 -->
<g id="edge6_Node000005_Node000007" class="edge">
<title>Node7&#45;&gt;Node5</title>
<g id="a_edge6_Node000005_Node000007"><a xlink:title=" ">
<path fill="none" stroke="#63b8ff" d="M364.98,-821.3C361.25,-810.6 356.85,-797.98 352.18,-784.57"/>
<polygon fill="none" stroke="#63b8ff" points="352.25,-784.78 346.5,-780.43 348.3,-773.45 354.06,-777.8 352.25,-784.78"/>
</a>
</g>
<text text-anchor="middle" x="372.87" y="-793.5" font-family="Helvetica,sans-Serif" font-size="10.00" fill="grey"> #stats</text>
</g>
<!-- Node8 -->
<g id="Node000008" class="node">
<title>Node8</title>
<g id="a_Node000008"><a xlink:href="class_inventory.html" target="_top" xlink:title="Inventory class that holds all items for the player.">
<polygon fill="white" stroke="none" points="151.12,-717 11.62,-717 11.62,-593 151.12,-593 151.12,-717"/>
<text text-anchor="start" x="61.12" y="-703.5" font-family="Helvetica,sans-Serif" font-size="10.00">Inventory</text>
<text text-anchor="start" x="17.12" y="-687.5" font-family="Helvetica,sans-Serif" font-size="10.00">&#45;</text>
<text text-anchor="start" x="25.62" y="-687.5" font-family="Helvetica,sans-Serif" font-size="10.00">vector&lt; IItem * &gt; items</text>
<text text-anchor="start" x="15.62" y="-671.5" font-family="Helvetica,sans-Serif" font-size="10.00">+</text>
<text text-anchor="start" x="25.62" y="-671.5" font-family="Helvetica,sans-Serif" font-size="10.00">IItem * addItem(IItem *item,</text>
<text text-anchor="start" x="25.62" y="-659.5" font-family="Helvetica,sans-Serif" font-size="10.00"> bool animate=true)</text>
<text text-anchor="start" x="15.62" y="-643.5" font-family="Helvetica,sans-Serif" font-size="10.00">+</text>
<text text-anchor="start" x="25.62" y="-643.5" font-family="Helvetica,sans-Serif" font-size="10.00">void listItems()</text>
<text text-anchor="start" x="15.62" y="-627.5" font-family="Helvetica,sans-Serif" font-size="10.00">+</text>
<text text-anchor="start" x="25.62" y="-627.5" font-family="Helvetica,sans-Serif" font-size="10.00">bool useItem(int idx, Player</text>
<text text-anchor="start" x="25.62" y="-615.5" font-family="Helvetica,sans-Serif" font-size="10.00"> &amp;player, Entity *enemy)</text>
<text text-anchor="start" x="15.62" y="-599.5" font-family="Helvetica,sans-Serif" font-size="10.00">+</text>
<text text-anchor="start" x="25.62" y="-599.5" font-family="Helvetica,sans-Serif" font-size="10.00">void dropItem(int idx)</text>
<polygon fill="#666666" stroke="#666666" points="11.62,-699 11.62,-699 151.12,-699 151.12,-699 11.62,-699"/>
<polygon fill="#666666" stroke="#666666" points="11.62,-683 11.62,-683 23.62,-683 23.62,-683 11.62,-683"/>
<polygon fill="#666666" stroke="#666666" points="23.62,-683 23.62,-683 151.12,-683 151.12,-683 23.62,-683"/>
<polygon fill="none" stroke="#666666" points="11.62,-593 11.62,-717 151.12,-717 151.12,-593 11.62,-593"/>
</a>
</g>
</g>
<!-- Node8&#45;&gt;Node4 -->
<g id="edge7_Node000004_Node000008" class="edge">
<title>Node8&#45;&gt;Node4</title>
<g id="a_edge7_Node000004_Node000008"><a xlink:title=" ">
<path fill="none" stroke="#63b8ff" d="M81.38,-593.06C81.38,-565.39 81.38,-532.08 81.38,-501.5"/>
<polygon fill="none" stroke="#63b8ff" points="81.38,-501.49 77.38,-495.49 81.38,-489.49 85.38,-495.49 81.38,-501.49"/>
</a>
</g>
<text text-anchor="middle" x="105.75" y="-509.5" font-family="Helvetica,sans-Serif" font-size="10.00" fill="grey"> +inventory</text>
</g>
</g>
</svg>
