<?xml version="1.0" encoding="UTF-8" standalone="no"?>
<!DOCTYPE svg PUBLIC "-//W3C//DTD SVG 1.1//EN"
 "http://www.w3.org/Graphics/SVG/1.1/DTD/svg11.dtd">
<!-- Generated by graphviz version 12.2.1 (20241206.2353)
 -->
<!-- Title: UIHandler Pages: 1 -->
<svg width="169pt" height="192pt"
 viewBox="0.00 0.00 168.50 192.00" xmlns="http://www.w3.org/2000/svg" xmlns:xlink="http://www.w3.org/1999/xlink">
<g id="graph0" class="graph" transform="scale(1 1) rotate(0) translate(4 188)">
<title>UIHandler</title>
<!-- Node1 -->
<g id="Node000001" class="node">
<title>Node1</title>
<g id="a_Node000001"><a xlink:title="Handles UI in the game.">
<polygon fill="#999999" stroke="none" points="150,-68 10.5,-68 10.5,0 150,0 150,-68"/>
<text text-anchor="start" x="58.12" y="-54.5" font-family="Helvetica,sans-Serif" font-size="10.00">UIHandler</text>
<text text-anchor="start" x="78.75" y="-38.5" font-family="Helvetica,sans-Serif" font-size="10.00"> </text>
<text text-anchor="start" x="14.5" y="-22.5" font-family="Helvetica,sans-Serif" font-size="10.00">+</text>
<text text-anchor="start" x="24.5" y="-22.5" font-family="Helvetica,sans-Serif" font-size="10.00">UIHandler(UserInterface *x)</text>
<text text-anchor="start" x="14.5" y="-6.5" font-family="Helvetica,sans-Serif" font-size="10.00">+</text>
<text text-anchor="start" x="24.5" y="-6.5" font-family="Helvetica,sans-Serif" font-size="10.00">void start()</text>
<polygon fill="#666666" stroke="#666666" points="10.5,-50 10.5,-50 150,-50 150,-50 10.5,-50"/>
<polygon fill="#666666" stroke="#666666" points="10.5,-34 10.5,-34 150,-34 150,-34 10.5,-34"/>
<polygon fill="none" stroke="#666666" points="10.5,0 10.5,-68 150,-68 150,0 10.5,0"/>
</a>
</g>
</g>
<!-- Node2 -->
<g id="Node000002" class="node">
<title>Node2</title>
<g id="a_Node000002"><a xlink:href="class_user_interface.html" target="_top" xlink:title="Base class for all user interfaces in the game.">
<polygon fill="white" stroke="none" points="160.5,-184 0,-184 0,-116 160.5,-116 160.5,-184"/>
<text text-anchor="start" x="50.62" y="-170.5" font-family="Helvetica,sans-Serif" font-size="10.00">UserInterface</text>
<text text-anchor="start" x="4" y="-154.5" font-family="Helvetica,sans-Serif" font-size="10.00">+</text>
<text text-anchor="start" x="14" y="-154.5" font-family="Helvetica,sans-Serif" font-size="10.00">bool quitGame</text>
<text text-anchor="start" x="4" y="-138.5" font-family="Helvetica,sans-Serif" font-size="10.00">+</text>
<text text-anchor="start" x="14" y="-138.5" font-family="Helvetica,sans-Serif" font-size="10.00">virtual UserInterface * render()=0</text>
<text text-anchor="start" x="4" y="-122.5" font-family="Helvetica,sans-Serif" font-size="10.00">+</text>
<text text-anchor="start" x="14" y="-122.5" font-family="Helvetica,sans-Serif" font-size="10.00">virtual ~UserInterface()</text>
<polygon fill="#666666" stroke="#666666" points="0,-166 0,-166 160.5,-166 160.5,-166 0,-166"/>
<polygon fill="#666666" stroke="#666666" points="0,-150 0,-150 12,-150 12,-150 0,-150"/>
<polygon fill="#666666" stroke="#666666" points="12,-150 12,-150 160.5,-150 160.5,-150 12,-150"/>
<polygon fill="none" stroke="#666666" points="0,-116 0,-184 160.5,-184 160.5,-116 0,-116"/>
</a>
</g>
</g>
<!-- Node2&#45;&gt;Node1 -->
<g id="edge1_Node000001_Node000002" class="edge">
<title>Node2&#45;&gt;Node1</title>
<g id="a_edge1_Node000001_Node000002"><a xlink:title=" ">
<path fill="none" stroke="#63b8ff" d="M80.25,-116.03C80.25,-105.04 80.25,-92.59 80.25,-80.81"/>
<polygon fill="none" stroke="#63b8ff" points="80.25,-80.8 76.25,-74.8 80.25,-68.8 84.25,-74.8 80.25,-80.8"/>
</a>
</g>
<text text-anchor="middle" x="96.75" y="-88.5" font-family="Helvetica,sans-Serif" font-size="10.00" fill="grey"> &#45;currUI</text>
</g>
</g>
</svg>
