<?xml version="1.0" encoding="UTF-8" standalone="no"?>
<!DOCTYPE svg PUBLIC "-//W3C//DTD SVG 1.1//EN"
 "http://www.w3.org/Graphics/SVG/1.1/DTD/svg11.dtd">
<!-- Generated by graphviz version 12.2.1 (20241206.2353)
 -->
<!-- Title: Yamato Pages: 1 -->
<svg width="162pt" height="480pt"
 viewBox="0.00 0.00 161.75 480.00" xmlns="http://www.w3.org/2000/svg" xmlns:xlink="http://www.w3.org/1999/xlink">
<g id="graph0" class="graph" transform="scale(1 1) rotate(0) translate(4 476)">
<title>Yamato</title>
<!-- Node1 -->
<g id="Node000001" class="node">
<title>Node1</title>
<g id="a_Node000001"><a xlink:title="The OP weapon of the game, the Yamato!!!">
<polygon fill="#999999" stroke="none" points="129,-52 24.75,-52 24.75,0 129,0 129,-52"/>
<text text-anchor="start" x="60.38" y="-38.5" font-family="Helvetica,sans-Serif" font-size="10.00">Yamato</text>
<text text-anchor="start" x="28.75" y="-22.5" font-family="Helvetica,sans-Serif" font-size="10.00">+</text>
<text text-anchor="start" x="38.75" y="-22.5" font-family="Helvetica,sans-Serif" font-size="10.00">static const int dmg</text>
<text text-anchor="start" x="28.75" y="-6.5" font-family="Helvetica,sans-Serif" font-size="10.00">+</text>
<text text-anchor="start" x="38.75" y="-6.5" font-family="Helvetica,sans-Serif" font-size="10.00">Yamato()</text>
<polygon fill="#666666" stroke="#666666" points="24.75,-34 24.75,-34 129,-34 129,-34 24.75,-34"/>
<polygon fill="#666666" stroke="#666666" points="24.75,-18 24.75,-18 36.75,-18 36.75,-18 24.75,-18"/>
<polygon fill="#666666" stroke="#666666" points="36.75,-18 36.75,-18 129,-18 129,-18 36.75,-18"/>
<polygon fill="none" stroke="#666666" points="24.75,0 24.75,-52 129,-52 129,0 24.75,0"/>
</a>
</g>
</g>
<!-- Node2 -->
<g id="Node000002" class="node">
<title>Node2</title>
<g id="a_Node000002"><a xlink:href="class_weapon.html" target="_top" xlink:title="Weapons set the type to &quot;Weapon&quot; and implement the use function cuz all weapons attack lmao.">
<polygon fill="white" stroke="none" points="153.38,-180 0.38,-180 0.38,-88 153.38,-88 153.38,-180"/>
<text text-anchor="start" x="59.25" y="-166.5" font-family="Helvetica,sans-Serif" font-size="10.00">Weapon</text>
<text text-anchor="start" x="4.38" y="-150.5" font-family="Helvetica,sans-Serif" font-size="10.00">+</text>
<text text-anchor="start" x="14.38" y="-150.5" font-family="Helvetica,sans-Serif" font-size="10.00">int dmg</text>
<text text-anchor="start" x="4.38" y="-134.5" font-family="Helvetica,sans-Serif" font-size="10.00">+</text>
<text text-anchor="start" x="14.38" y="-134.5" font-family="Helvetica,sans-Serif" font-size="10.00">Weapon(string name, string</text>
<text text-anchor="start" x="14.38" y="-122.5" font-family="Helvetica,sans-Serif" font-size="10.00"> desc, int count, int dmg)</text>
<text text-anchor="start" x="4.38" y="-106.5" font-family="Helvetica,sans-Serif" font-size="10.00">+</text>
<text text-anchor="start" x="14.38" y="-106.5" font-family="Helvetica,sans-Serif" font-size="10.00">bool use(Player &amp;player, Entity</text>
<text text-anchor="start" x="14.38" y="-94.5" font-family="Helvetica,sans-Serif" font-size="10.00"> &amp;enemy) override</text>
<polygon fill="#666666" stroke="#666666" points="0.38,-162 0.38,-162 153.38,-162 153.38,-162 0.38,-162"/>
<polygon fill="#666666" stroke="#666666" points="0.38,-146 0.38,-146 12.38,-146 12.38,-146 0.38,-146"/>
<polygon fill="#666666" stroke="#666666" points="12.38,-146 12.38,-146 153.38,-146 153.38,-146 12.38,-146"/>
<polygon fill="none" stroke="#666666" points="0.38,-88 0.38,-180 153.38,-180 153.38,-88 0.38,-88"/>
</a>
</g>
</g>
<!-- Node2&#45;&gt;Node1 -->
<g id="edge1_Node000001_Node000002" class="edge">
<title>Node2&#45;&gt;Node1</title>
<g id="a_edge1_Node000001_Node000002"><a xlink:title=" ">
<path fill="none" stroke="#63b8ff" d="M76.88,-76.61C76.88,-67.91 76.88,-59.32 76.88,-51.81"/>
<polygon fill="none" stroke="#63b8ff" points="73.38,-76.53 76.88,-86.53 80.38,-76.53 73.38,-76.53"/>
</a>
</g>
</g>
<!-- Node3 -->
<g id="Node000003" class="node">
<title>Node3</title>
<g id="a_Node000003"><a xlink:href="class_i_enemy_item.html" target="_top" xlink:title="Enemy items. The use function takes in a player and an enemy.">
<polygon fill="white" stroke="none" points="153.75,-308 0,-308 0,-216 153.75,-216 153.75,-308"/>
<text text-anchor="start" x="50.25" y="-294.5" font-family="Helvetica,sans-Serif" font-size="10.00">IEnemyItem</text>
<text text-anchor="start" x="75.38" y="-278.5" font-family="Helvetica,sans-Serif" font-size="10.00"> </text>
<text text-anchor="start" x="4" y="-262.5" font-family="Helvetica,sans-Serif" font-size="10.00">+</text>
<text text-anchor="start" x="14" y="-262.5" font-family="Helvetica,sans-Serif" font-size="10.00">IEnemyItem(string n, string</text>
<text text-anchor="start" x="14" y="-250.5" font-family="Helvetica,sans-Serif" font-size="10.00"> t, string d, int c)</text>
<text text-anchor="start" x="4" y="-234.5" font-family="Helvetica,sans-Serif" font-size="10.00">+</text>
<text text-anchor="start" x="14" y="-234.5" font-family="Helvetica,sans-Serif" font-size="10.00">virtual bool use(Player &amp;player,</text>
<text text-anchor="start" x="14" y="-222.5" font-family="Helvetica,sans-Serif" font-size="10.00"> Entity &amp;enemy)=0</text>
<polygon fill="#666666" stroke="#666666" points="0,-290 0,-290 153.75,-290 153.75,-290 0,-290"/>
<polygon fill="#666666" stroke="#666666" points="0,-274 0,-274 153.75,-274 153.75,-274 0,-274"/>
<polygon fill="none" stroke="#666666" points="0,-216 0,-308 153.75,-308 153.75,-216 0,-216"/>
</a>
</g>
</g>
<!-- Node3&#45;&gt;Node2 -->
<g id="edge2_Node000002_Node000003" class="edge">
<title>Node3&#45;&gt;Node2</title>
<g id="a_edge2_Node000002_Node000003"><a xlink:title=" ">
<path fill="none" stroke="#63b8ff" d="M76.88,-204.86C76.88,-196.41 76.88,-187.8 76.88,-179.63"/>
<polygon fill="none" stroke="#63b8ff" points="73.38,-204.71 76.88,-214.71 80.38,-204.71 73.38,-204.71"/>
</a>
</g>
</g>
<!-- Node4 -->
<g id="Node000004" class="node">
<title>Node4</title>
<g id="a_Node000004"><a xlink:href="class_i_item.html" target="_top" xlink:title="Base class for all items in the game.">
<polygon fill="white" stroke="none" points="134.25,-472 19.5,-472 19.5,-344 134.25,-344 134.25,-472"/>
<text text-anchor="start" x="65.62" y="-458.5" font-family="Helvetica,sans-Serif" font-size="10.00">IItem</text>
<text text-anchor="start" x="23.5" y="-442.5" font-family="Helvetica,sans-Serif" font-size="10.00">+</text>
<text text-anchor="start" x="33.5" y="-442.5" font-family="Helvetica,sans-Serif" font-size="10.00">string name</text>
<text text-anchor="start" x="23.5" y="-426.5" font-family="Helvetica,sans-Serif" font-size="10.00">+</text>
<text text-anchor="start" x="33.5" y="-426.5" font-family="Helvetica,sans-Serif" font-size="10.00">string type</text>
<text text-anchor="start" x="23.5" y="-410.5" font-family="Helvetica,sans-Serif" font-size="10.00">+</text>
<text text-anchor="start" x="33.5" y="-410.5" font-family="Helvetica,sans-Serif" font-size="10.00">string desc</text>
<text text-anchor="start" x="23.5" y="-394.5" font-family="Helvetica,sans-Serif" font-size="10.00">+</text>
<text text-anchor="start" x="33.5" y="-394.5" font-family="Helvetica,sans-Serif" font-size="10.00">int count</text>
<text text-anchor="start" x="23.5" y="-378.5" font-family="Helvetica,sans-Serif" font-size="10.00">+</text>
<text text-anchor="start" x="33.5" y="-378.5" font-family="Helvetica,sans-Serif" font-size="10.00">IItem(string n, string t,</text>
<text text-anchor="start" x="33.5" y="-366.5" font-family="Helvetica,sans-Serif" font-size="10.00"> string d, int c)</text>
<text text-anchor="start" x="23.5" y="-350.5" font-family="Helvetica,sans-Serif" font-size="10.00">+</text>
<text text-anchor="start" x="33.5" y="-350.5" font-family="Helvetica,sans-Serif" font-size="10.00">virtual ~IItem()</text>
<polygon fill="#666666" stroke="#666666" points="19.5,-454 19.5,-454 134.25,-454 134.25,-454 19.5,-454"/>
<polygon fill="#666666" stroke="#666666" points="19.5,-390 19.5,-390 31.5,-390 31.5,-390 19.5,-390"/>
<polygon fill="#666666" stroke="#666666" points="31.5,-390 31.5,-390 134.25,-390 134.25,-390 31.5,-390"/>
<polygon fill="none" stroke="#666666" points="19.5,-344 19.5,-472 134.25,-472 134.25,-344 19.5,-344"/>
</a>
</g>
</g>
<!-- Node4&#45;&gt;Node3 -->
<g id="edge3_Node000003_Node000004" class="edge">
<title>Node4&#45;&gt;Node3</title>
<g id="a_edge3_Node000003_Node000004"><a xlink:title=" ">
<path fill="none" stroke="#63b8ff" d="M76.88,-332.97C76.88,-324.38 76.88,-315.82 76.88,-307.79"/>
<polygon fill="none" stroke="#63b8ff" points="73.38,-332.74 76.88,-342.74 80.38,-332.74 73.38,-332.74"/>
</a>
</g>
</g>
</g>
</svg>
