<?xml version="1.0" encoding="UTF-8" standalone="no"?>
<!DOCTYPE svg PUBLIC "-//W3C//DTD SVG 1.1//EN"
 "http://www.w3.org/Graphics/SVG/1.1/DTD/svg11.dtd">
<!-- Generated by graphviz version 12.2.1 (20241206.2353)
 -->
<!-- Title: IEnemyItem::IEnemyItem Pages: 1 -->
<svg width="409pt" height="66pt"
 viewBox="0.00 0.00 408.50 66.00" xmlns="http://www.w3.org/2000/svg" xmlns:xlink="http://www.w3.org/1999/xlink">
<g id="graph0" class="graph" transform="scale(1 1) rotate(0) translate(4 62)">
<title>IEnemyItem::IEnemyItem</title>
<!-- Node1 -->
<g id="Node000001" class="node">
<title>Node1</title>
<g id="a_Node000001"><a xlink:title=" ">
<polygon fill="#999999" stroke="#666666" points="400.5,-39 272,-39 272,-19 400.5,-19 400.5,-39"/>
<text text-anchor="middle" x="336.25" y="-25.5" font-family="Helvetica,sans-Serif" font-size="10.00">IEnemyItem::IEnemyItem</text>
</a>
</g>
</g>
<!-- Node2 -->
<g id="Node000002" class="node">
<title>Node2</title>
<g id="a_Node000002"><a xlink:href="class_weapon.html#a8d9631f8c67df4646e9b06516eff0cd0" target="_top" xlink:title=" ">
<polygon fill="white" stroke="#666666" points="236,-39 143.5,-39 143.5,-19 236,-19 236,-39"/>
<text text-anchor="middle" x="189.75" y="-25.5" font-family="Helvetica,sans-Serif" font-size="10.00">Weapon::Weapon</text>
</a>
</g>
</g>
<!-- Node1&#45;&gt;Node2 -->
<g id="edge1_Node000001_Node000002" class="edge">
<title>Node1&#45;&gt;Node2</title>
<g id="a_edge1_Node000001_Node000002"><a xlink:title=" ">
<path fill="none" stroke="#63b8ff" d="M260.58,-29C252.29,-29 244.05,-29 236.28,-29"/>
<polygon fill="#63b8ff" stroke="#63b8ff" points="260.36,-32.5 270.36,-29 260.36,-25.5 260.36,-32.5"/>
</a>
</g>
</g>
<!-- Node3 -->
<g id="Node000003" class="node">
<title>Node3</title>
<g id="a_Node000003"><a xlink:href="class_cool_stick.html#acfbae3a51f5ba2cddce652078b501f9d" target="_top" xlink:title=" ">
<polygon fill="white" stroke="#666666" points="107.5,-58 0,-58 0,-38 107.5,-38 107.5,-58"/>
<text text-anchor="middle" x="53.75" y="-44.5" font-family="Helvetica,sans-Serif" font-size="10.00">CoolStick::CoolStick</text>
</a>
</g>
</g>
<!-- Node2&#45;&gt;Node3 -->
<g id="edge2_Node000002_Node000003" class="edge">
<title>Node2&#45;&gt;Node3</title>
<g id="a_edge2_Node000002_Node000003"><a xlink:title=" ">
<path fill="none" stroke="#63b8ff" d="M131.85,-37.07C123.83,-38.21 115.61,-39.37 107.67,-40.5"/>
<polygon fill="#63b8ff" stroke="#63b8ff" points="132.1,-40.57 141.51,-35.7 131.12,-33.64 132.1,-40.57"/>
</a>
</g>
</g>
<!-- Node4 -->
<g id="Node000004" class="node">
<title>Node4</title>
<g id="a_Node000004"><a xlink:href="class_yamato.html#af87539b26b8f9de81c54cb80ba556f9c" target="_top" xlink:title=" ">
<polygon fill="white" stroke="#666666" points="97.75,-20 9.75,-20 9.75,0 97.75,0 97.75,-20"/>
<text text-anchor="middle" x="53.75" y="-6.5" font-family="Helvetica,sans-Serif" font-size="10.00">Yamato::Yamato</text>
</a>
</g>
</g>
<!-- Node2&#45;&gt;Node4 -->
<g id="edge3_Node000002_Node000004" class="edge">
<title>Node2&#45;&gt;Node4</title>
<g id="a_edge3_Node000002_Node000004"><a xlink:title=" ">
<path fill="none" stroke="#63b8ff" d="M131.86,-20.93C120.53,-19.33 108.81,-17.66 98.02,-16.14"/>
<polygon fill="#63b8ff" stroke="#63b8ff" points="131.12,-24.36 141.51,-22.3 132.1,-17.43 131.12,-24.36"/>
</a>
</g>
</g>
</g>
</svg>
