<?xml version="1.0" encoding="UTF-8" standalone="no"?>
<!DOCTYPE svg PUBLIC "-//W3C//DTD SVG 1.1//EN"
 "http://www.w3.org/Graphics/SVG/1.1/DTD/svg11.dtd">
<!-- Generated by graphviz version 12.2.1 (20241206.2353)
 -->
<!-- Title: IWeapon::IWeapon Pages: 1 -->
<svg width="250pt" height="66pt"
 viewBox="0.00 0.00 250.00 66.00" xmlns="http://www.w3.org/2000/svg" xmlns:xlink="http://www.w3.org/1999/xlink">
<g id="graph0" class="graph" transform="scale(1 1) rotate(0) translate(4 62)">
<title>IWeapon::IWeapon</title>
<!-- Node1 -->
<g id="Node000001" class="node">
<title>Node1</title>
<g id="a_Node000001"><a xlink:title=" ">
<polygon fill="#999999" stroke="#666666" points="242,-39 143.5,-39 143.5,-19 242,-19 242,-39"/>
<text text-anchor="middle" x="192.75" y="-25.5" font-family="Helvetica,sans-Serif" font-size="10.00">IWeapon::IWeapon</text>
</a>
</g>
</g>
<!-- Node2 -->
<g id="Node000002" class="node">
<title>Node2</title>
<g id="a_Node000002"><a xlink:href="class_cool_stick.html#acfbae3a51f5ba2cddce652078b501f9d" target="_top" xlink:title=" ">
<polygon fill="white" stroke="#666666" points="107.5,-58 0,-58 0,-38 107.5,-38 107.5,-58"/>
<text text-anchor="middle" x="53.75" y="-44.5" font-family="Helvetica,sans-Serif" font-size="10.00">CoolStick::CoolStick</text>
</a>
</g>
</g>
<!-- Node1&#45;&gt;Node2 -->
<g id="edge1_Node000001_Node000002" class="edge">
<title>Node1&#45;&gt;Node2</title>
<g id="a_edge1_Node000001_Node000002"><a xlink:title=" ">
<path fill="none" stroke="#63b8ff" d="M131.93,-37.3C123.94,-38.4 115.79,-39.53 107.93,-40.62"/>
<polygon fill="#63b8ff" stroke="#63b8ff" points="132.14,-40.8 141.56,-35.96 131.18,-33.87 132.14,-40.8"/>
</a>
</g>
</g>
<!-- Node3 -->
<g id="Node000003" class="node">
<title>Node3</title>
<g id="a_Node000003"><a xlink:href="class_yamato.html#af87539b26b8f9de81c54cb80ba556f9c" target="_top" xlink:title=" ">
<polygon fill="white" stroke="#666666" points="97.75,-20 9.75,-20 9.75,0 97.75,0 97.75,-20"/>
<text text-anchor="middle" x="53.75" y="-6.5" font-family="Helvetica,sans-Serif" font-size="10.00">Yamato::Yamato</text>
</a>
</g>
</g>
<!-- Node1&#45;&gt;Node3 -->
<g id="edge2_Node000001_Node000003" class="edge">
<title>Node1&#45;&gt;Node3</title>
<g id="a_edge2_Node000001_Node000003"><a xlink:title=" ">
<path fill="none" stroke="#63b8ff" d="M131.78,-20.68C120.35,-19.1 108.59,-17.47 97.82,-15.97"/>
<polygon fill="#63b8ff" stroke="#63b8ff" points="131.18,-24.13 141.56,-22.04 132.14,-17.2 131.18,-24.13"/>
</a>
</g>
</g>
</g>
</svg>
