<?xml version="1.0" encoding="UTF-8" standalone="no"?>
<!DOCTYPE svg PUBLIC "-//W3C//DTD SVG 1.1//EN"
 "http://www.w3.org/Graphics/SVG/1.1/DTD/svg11.dtd">
<!-- Generated by graphviz version 12.2.1 (20241206.2353)
 -->
<!-- Title: ShopMenu::render Pages: 1 -->
<!--zoomable 142 -->

<svg id="main" version="1.1" xmlns="http://www.w3.org/2000/svg" xmlns:xlink="http://www.w3.org/1999/xlink" xml:space="preserve" onload="init(evt)">

<style type="text/css"><![CDATA[
.node, .edge {opacity: 0.7;}
.node.selected, .edge.selected {opacity: 1;}
.edge:hover path { stroke: red; }
.edge:hover polygon { stroke: red; fill: red; }
]]></style>

<defs>
  <circle id="rim" cx="0" cy="0" r="7"/>
  <circle id="rim2" cx="0" cy="0" r="3.5"/>
  <g id="zoomPlus">
    <use xlink:href="#rim" fill="#404040"><set attributeName="fill" to="#808080" begin="zoomplus.mouseover" end="zoomplus.mouseout"/></use>
    <path d="M-4,0h8M0,-4v8" fill="none" stroke="white" stroke-width="1.5" pointer-events="none"/>
  </g>
  <g id="zoomMin">
    <use xlink:href="#rim" fill="#404040"><set attributeName="fill" to="#808080" begin="zoomminus.mouseover" end="zoomminus.mouseout"/></use>
    <path d="M-4,0h8" fill="none" stroke="white" stroke-width="1.5" pointer-events="none"/>
  </g>
  <g id="arrowUp" transform="translate(30 24)">
    <use xlink:href="#rim"/>
    <path pointer-events="none" fill="none" stroke="white" stroke-width="1.5" d="M0,-3.0v7 M-2.5,-0.5L0,-3.0L2.5,-0.5"/>
  </g>
  <g id="arrowRight" transform="rotate(90) translate(36 -43)">
    <use xlink:href="#rim"/>
    <path pointer-events="none" fill="none" stroke="white" stroke-width="1.5" d="M0,-3.0v7 M-2.5,-0.5L0,-3.0L2.5,-0.5"/>
  </g>
  <g id="arrowDown" transform="rotate(180) translate(-30 -48)">
    <use xlink:href="#rim"/>
    <path pointer-events="none" fill="none" stroke="white" stroke-width="1.5" d="M0,-3.0v7 M-2.5,-0.5L0,-3.0L2.5,-0.5"/>
  </g>
  <g id="arrowLeft" transform="rotate(270) translate(-36 17)">
    <use xlink:href="#rim"/>
    <path pointer-events="none" fill="none" stroke="white" stroke-width="1.5" d="M0,-3.0v7 M-2.5,-0.5L0,-3.0L2.5,-0.5"/>
  </g>
  <g id="resetDef">
    <use xlink:href="#rim2" fill="#404040"><set attributeName="fill" to="#808080" begin="reset.mouseover" end="reset.mouseout"/></use>
  </g>
</defs>
<script type="application/ecmascript">
var viewWidth = 550;
var viewHeight = 142;
var sectionId = 'dynsection-3';
</script>
<script type="application/ecmascript" xlink:href="svg.min.js"/>
<svg id="graph" class="graph">
<g id="viewport">
<title>ShopMenu::render</title>
<!-- Node1 -->
<g id="Node000001" class="node">
<title>Node1</title>
<g id="a_Node000001"><a xlink:title=" ">
<polygon fill="#999999" stroke="#666666" points="95.5,-77 0,-77 0,-57 95.5,-57 95.5,-77"/>
<text text-anchor="middle" x="47.75" y="-63.5" font-family="Helvetica,sans-Serif" font-size="10.00">ShopMenu::render</text>
</a>
</g>
</g>
<!-- Node2 -->
<g id="Node000002" class="node">
<title>Node2</title>
<g id="a_Node000002"><a xlink:href="class_shop.html#a562501e5746bdef39699bc39203f8973" target="_top" xlink:title=" ">
<polygon fill="white" stroke="#666666" points="211.25,-134 131.5,-134 131.5,-114 211.25,-114 211.25,-134"/>
<text text-anchor="middle" x="171.38" y="-120.5" font-family="Helvetica,sans-Serif" font-size="10.00">Shop::addItem</text>
</a>
</g>
</g>
<!-- Node1&#45;&gt;Node2 -->
<g id="edge1_Node000001_Node000002" class="edge">
<title>Node1&#45;&gt;Node2</title>
<g id="a_edge1_Node000001_Node000002"><a xlink:title=" ">
<path fill="none" stroke="#63b8ff" d="M71.06,-77.45C89.83,-86.25 116.92,-98.95 138.07,-108.86"/>
<polygon fill="#63b8ff" stroke="#63b8ff" points="136.3,-111.89 146.84,-112.97 139.27,-105.56 136.3,-111.89"/>
</a>
</g>
</g>
<!-- Node3 -->
<g id="Node000003" class="node">
<title>Node3</title>
<g id="a_Node000003"><a xlink:href="class_shop.html#a6c1a27422ecdd1a5248f156f1355632b" target="_top" xlink:title="Buy an item from the shop.">
<polygon fill="white" stroke="#666666" points="211.25,-96 131.5,-96 131.5,-76 211.25,-76 211.25,-96"/>
<text text-anchor="middle" x="171.38" y="-82.5" font-family="Helvetica,sans-Serif" font-size="10.00">Shop::buyItem</text>
</a>
</g>
</g>
<!-- Node1&#45;&gt;Node3 -->
<g id="edge2_Node000001_Node000003" class="edge">
<title>Node1&#45;&gt;Node3</title>
<g id="a_edge2_Node000001_Node000003"><a xlink:title=" ">
<path fill="none" stroke="#63b8ff" d="M95.77,-74.35C103.77,-75.6 112.1,-76.9 120.18,-78.16"/>
<polygon fill="#63b8ff" stroke="#63b8ff" points="119.44,-81.59 129.86,-79.67 120.52,-74.67 119.44,-81.59"/>
</a>
</g>
</g>
<!-- Node9 -->
<g id="Node000009" class="node">
<title>Node9</title>
<g id="a_Node000009"><a xlink:href="extras_8cpp.html#a3816c0b1714f3be0c6c8a394a4faee7d" target="_top" xlink:title="Gets an integer from the user. Loops until a valid integer is entered.">
<polygon fill="white" stroke="#666666" points="200.38,-58 142.38,-58 142.38,-38 200.38,-38 200.38,-58"/>
<text text-anchor="middle" x="171.38" y="-44.5" font-family="Helvetica,sans-Serif" font-size="10.00">inputNum</text>
</a>
</g>
</g>
<!-- Node1&#45;&gt;Node9 -->
<g id="edge9_Node000001_Node000009" class="edge">
<title>Node1&#45;&gt;Node9</title>
<g id="a_edge9_Node000001_Node000009"><a xlink:title=" ">
<path fill="none" stroke="#63b8ff" d="M95.77,-59.65C107.38,-57.84 119.7,-55.92 130.91,-54.17"/>
<polygon fill="#63b8ff" stroke="#63b8ff" points="131.28,-57.65 140.62,-52.65 130.2,-50.73 131.28,-57.65"/>
</a>
</g>
</g>
<!-- Node10 -->
<g id="Node000010" class="node">
<title>Node10</title>
<g id="a_Node000010"><a xlink:href="class_shop.html#ac213488671e8d976d97c3530e691fd44" target="_top" xlink:title=" ">
<polygon fill="white" stroke="#666666" points="337.12,-20 255.12,-20 255.12,0 337.12,0 337.12,-20"/>
<text text-anchor="middle" x="296.12" y="-6.5" font-family="Helvetica,sans-Serif" font-size="10.00">Shop::listItems</text>
</a>
</g>
</g>
<!-- Node1&#45;&gt;Node10 -->
<g id="edge10_Node000001_Node000010" class="edge">
<title>Node1&#45;&gt;Node10</title>
<g id="a_edge10_Node000001_Node000010"><a xlink:title=" ">
<path fill="none" stroke="#63b8ff" d="M66.85,-56.66C83.2,-47.82 108.21,-35.52 131.5,-29 168.2,-18.72 211.04,-14 243.68,-11.83"/>
<polygon fill="#63b8ff" stroke="#63b8ff" points="243.49,-15.34 253.26,-11.25 243.07,-8.36 243.49,-15.34"/>
</a>
</g>
</g>
<!-- Node4 -->
<g id="Node000004" class="node">
<title>Node4</title>
<g id="a_Node000004"><a xlink:href="class_inventory.html#a7a3d5b1157d8212186746eade80b5630" target="_top" xlink:title="Adds an item to inventory.">
<polygon fill="white" stroke="#666666" points="345,-134 247.25,-134 247.25,-114 345,-114 345,-134"/>
<text text-anchor="middle" x="296.12" y="-120.5" font-family="Helvetica,sans-Serif" font-size="10.00">Inventory::addItem</text>
</a>
</g>
</g>
<!-- Node3&#45;&gt;Node4 -->
<g id="edge3_Node000003_Node000004" class="edge">
<title>Node3&#45;&gt;Node4</title>
<g id="a_edge3_Node000003_Node000004"><a xlink:title=" ">
<path fill="none" stroke="#63b8ff" d="M206.24,-96.48C219.93,-100.72 235.91,-105.67 250.52,-110.19"/>
<polygon fill="#63b8ff" stroke="#63b8ff" points="249.33,-113.49 259.92,-113.1 251.41,-106.8 249.33,-113.49"/>
</a>
</g>
</g>
<!-- Node7 -->
<g id="Node000007" class="node">
<title>Node7</title>
<g id="a_Node000007"><a xlink:href="class_player.html#a86ad66429e7bf8ef4640bac1d0f3476f" target="_top" xlink:title=" ">
<polygon fill="white" stroke="#666666" points="343.5,-96 248.75,-96 248.75,-76 343.5,-76 343.5,-96"/>
<text text-anchor="middle" x="296.12" y="-82.5" font-family="Helvetica,sans-Serif" font-size="10.00">Player::addMoney</text>
</a>
</g>
</g>
<!-- Node3&#45;&gt;Node7 -->
<g id="edge6_Node000003_Node000007" class="edge">
<title>Node3&#45;&gt;Node7</title>
<g id="a_edge6_Node000003_Node000007"><a xlink:title=" ">
<path fill="none" stroke="#63b8ff" d="M211.55,-86C219.75,-86 228.55,-86 237.27,-86"/>
<polygon fill="#63b8ff" stroke="#63b8ff" points="237.09,-89.5 247.09,-86 237.09,-82.5 237.09,-89.5"/>
</a>
</g>
</g>
<!-- Node8 -->
<g id="Node000008" class="node">
<title>Node8</title>
<g id="a_Node000008"><a xlink:href="extras_8cpp.html#a99d2755bf0660601280710515b3f512c" target="_top" xlink:title="Colors text.">
<polygon fill="white" stroke="#666666" points="450.62,-58 382.12,-58 382.12,-38 450.62,-38 450.62,-58"/>
<text text-anchor="middle" x="416.38" y="-44.5" font-family="Helvetica,sans-Serif" font-size="10.00">colorizeText</text>
</a>
</g>
</g>
<!-- Node3&#45;&gt;Node8 -->
<g id="edge8_Node000003_Node000008" class="edge">
<title>Node3&#45;&gt;Node8</title>
<g id="a_edge8_Node000003_Node000008"><a xlink:title=" ">
<path fill="none" stroke="#63b8ff" d="M209.48,-75.52C221.46,-72.43 234.85,-69.26 247.25,-67 288.61,-59.45 336.27,-54.4 370.26,-51.42"/>
<polygon fill="#63b8ff" stroke="#63b8ff" points="370.51,-54.91 380.18,-50.58 369.92,-47.94 370.51,-54.91"/>
</a>
</g>
</g>
<!-- Node5 -->
<g id="Node000005" class="node">
<title>Node5</title>
<g id="a_Node000005"><a xlink:href="extras_8cpp.html#a251383c9dea6cb260fb6f9ebb010139f" target="_top" xlink:title="Outputs a text character by character with a given delay.">
<polygon fill="white" stroke="#666666" points="451.75,-134 381,-134 381,-114 451.75,-114 451.75,-134"/>
<text text-anchor="middle" x="416.38" y="-120.5" font-family="Helvetica,sans-Serif" font-size="10.00">printAnimate</text>
</a>
</g>
</g>
<!-- Node4&#45;&gt;Node5 -->
<g id="edge4_Node000004_Node000005" class="edge">
<title>Node4&#45;&gt;Node5</title>
<g id="a_edge4_Node000004_Node000005"><a xlink:title=" ">
<path fill="none" stroke="#63b8ff" d="M345.22,-124C353.21,-124 361.48,-124 369.42,-124"/>
<polygon fill="#63b8ff" stroke="#63b8ff" points="369.22,-127.5 379.22,-124 369.22,-120.5 369.22,-127.5"/>
</a>
</g>
</g>
<!-- Node6 -->
<g id="Node000006" class="node">
<title>Node6</title>
<g id="a_Node000006"><a xlink:href="extras_8cpp.html#aea0e34fe8a665ef6cb1fd6526ce1deb0" target="_top" xlink:title=" ">
<polygon fill="white" stroke="#666666" points="542,-134 487.75,-134 487.75,-114 542,-114 542,-134"/>
<text text-anchor="middle" x="514.88" y="-120.5" font-family="Helvetica,sans-Serif" font-size="10.00">sleepMS</text>
</a>
</g>
</g>
<!-- Node5&#45;&gt;Node6 -->
<g id="edge5_Node000005_Node000006" class="edge">
<title>Node5&#45;&gt;Node6</title>
<g id="a_edge5_Node000005_Node000006"><a xlink:title=" ">
<path fill="none" stroke="#63b8ff" d="M452.21,-124C459.89,-124 468.05,-124 475.84,-124"/>
<polygon fill="#63b8ff" stroke="#63b8ff" points="475.75,-127.5 485.75,-124 475.75,-120.5 475.75,-127.5"/>
</a>
</g>
</g>
<!-- Node7&#45;&gt;Node8 -->
<g id="edge7_Node000007_Node000008" class="edge">
<title>Node7&#45;&gt;Node8</title>
<g id="a_edge7_Node000007_Node000008"><a xlink:title=" ">
<path fill="none" stroke="#63b8ff" d="M329.75,-75.52C342.8,-71.32 358.03,-66.43 371.99,-61.94"/>
<polygon fill="#63b8ff" stroke="#63b8ff" points="372.97,-65.3 381.42,-58.91 370.82,-58.64 372.97,-65.3"/>
</a>
</g>
</g>
<!-- Node10&#45;&gt;Node8 -->
<g id="edge11_Node000010_Node000008" class="edge">
<title>Node10&#45;&gt;Node8</title>
<g id="a_edge11_Node000010_Node000008"><a xlink:title=" ">
<path fill="none" stroke="#63b8ff" d="M329.75,-20.48C342.8,-24.68 358.03,-29.57 371.99,-34.06"/>
<polygon fill="#63b8ff" stroke="#63b8ff" points="370.82,-37.36 381.42,-37.09 372.97,-30.7 370.82,-37.36"/>
</a>
</g>
</g>
</g>
</svg>

<g id="navigator" transform="translate(0 0)" fill="#404254">
  <rect fill="#f2f5e9" fill-opacity="0.5" stroke="#606060" stroke-width=".5" x="0" y="0" width="60" height="60"/>
  <use id="zoomplus" xlink:href="#zoomPlus" x="17" y="9" onmousedown="handleZoom(evt,'in')"/>
  <use id="zoomminus" xlink:href="#zoomMin" x="42" y="9" onmousedown="handleZoom(evt,'out')"/>
  <use id="reset" xlink:href="#resetDef" x="30" y="36" onmousedown="handleReset()"/>
   <use id="arrowup" xlink:href="#arrowUp" x="0" y="0" onmousedown="handlePan(0,-1)"/>
  <use id="arrowright" xlink:href="#arrowRight" x="0" y="0" onmousedown="handlePan(1,0)"/>
  <use id="arrowdown" xlink:href="#arrowDown" x="0" y="0" onmousedown="handlePan(0,1)"/>
  <use id="arrowleft" xlink:href="#arrowLeft" x="0" y="0" onmousedown="handlePan(-1,0)"/>
</g>
<svg viewBox="0 0 15 15" width="100%" height="30px" preserveAspectRatio="xMaxYMin meet">
 <g id="arrow_out" transform="scale(0.3 0.3)">
  <a xlink:href="class_shop_menu_a06bcda13b56991f97aca332030008a86_cgraph_org.svg" target="_base">
   <rect id="button" ry="5" rx="5" y="6" x="6" height="38" width="38"
        fill="#f2f5e9" fill-opacity="0.5" stroke="#606060" stroke-width="1.0"/>
   <path id="arrow"
     d="M 11.500037,31.436501 C 11.940474,20.09759 22.043105,11.32322 32.158766,21.979434 L 37.068811,17.246167 C 37.068811,17.246167 37.088388,32 37.088388,32 L 22.160133,31.978069 C 22.160133,31.978069 26.997745,27.140456 26.997745,27.140456 C 18.528582,18.264221 13.291696,25.230495 11.500037,31.436501 z"
     style="fill:#404040;"/>
  </a>
 </g>
</svg>

<style type='text/css'>
<![CDATA[
[data-mouse-over-selected='false'] { opacity: 0.7; }
[data-mouse-over-selected='true']  { opacity: 1.0; }
]]>
</style>
<script type="application/ecmascript"><![CDATA[
document.addEventListener('DOMContentLoaded', (event) => {
  highlightEdges();
  highlightAdjacentNodes();
});
]]></script>
</svg>
