<?xml version="1.0" encoding="UTF-8" standalone="no"?>
<!DOCTYPE svg PUBLIC "-//W3C//DTD SVG 1.1//EN"
 "http://www.w3.org/Graphics/SVG/1.1/DTD/svg11.dtd">
<!-- Generated by graphviz version 12.2.1 (20241206.2353)
 -->
<!-- Title: Battle Pages: 1 -->
<svg width="422pt" height="753pt"
 viewBox="0.00 0.00 422.38 753.00" xmlns="http://www.w3.org/2000/svg" xmlns:xlink="http://www.w3.org/1999/xlink">
<g id="graph0" class="graph" transform="scale(1 1) rotate(0) translate(4 749)">
<title>Battle</title>
<!-- Node1 -->
<g id="Node000001" class="node">
<title>Node1</title>
<g id="a_Node000001"><a xlink:title="The battle screen. The user can attack, use an item, or run away.">
<polygon fill="#999999" stroke="none" points="414.38,-176 216.38,-176 216.38,0 414.38,0 414.38,-176"/>
<text text-anchor="start" x="302.62" y="-162.5" font-family="Helvetica,sans-Serif" font-size="10.00">Battle</text>
<text text-anchor="start" x="220.38" y="-146.5" font-family="Helvetica,sans-Serif" font-size="10.00">+</text>
<text text-anchor="start" x="230.38" y="-146.5" font-family="Helvetica,sans-Serif" font-size="10.00">bool didIntro</text>
<text text-anchor="start" x="220.38" y="-130.5" font-family="Helvetica,sans-Serif" font-size="10.00">+</text>
<text text-anchor="start" x="230.38" y="-130.5" font-family="Helvetica,sans-Serif" font-size="10.00">int rewardMoney</text>
<text text-anchor="start" x="220.38" y="-114.5" font-family="Helvetica,sans-Serif" font-size="10.00">+</text>
<text text-anchor="start" x="230.38" y="-114.5" font-family="Helvetica,sans-Serif" font-size="10.00">function&lt; UserInterface *(Player)&gt; onWin</text>
<text text-anchor="start" x="220.38" y="-98.5" font-family="Helvetica,sans-Serif" font-size="10.00">+</text>
<text text-anchor="start" x="230.38" y="-98.5" font-family="Helvetica,sans-Serif" font-size="10.00">function&lt; UserInterface *(Player)</text>
<text text-anchor="start" x="230.38" y="-86.5" font-family="Helvetica,sans-Serif" font-size="10.00">&gt; onLose</text>
<text text-anchor="start" x="220.38" y="-70.5" font-family="Helvetica,sans-Serif" font-size="10.00">+</text>
<text text-anchor="start" x="230.38" y="-70.5" font-family="Helvetica,sans-Serif" font-size="10.00">Battle(Player player, Entity</text>
<text text-anchor="start" x="230.38" y="-58.5" font-family="Helvetica,sans-Serif" font-size="10.00"> enemy, int reward, function</text>
<text text-anchor="start" x="230.38" y="-46.5" font-family="Helvetica,sans-Serif" font-size="10.00">&lt; UserInterface *(Player)&gt; winCallback,</text>
<text text-anchor="start" x="230.38" y="-34.5" font-family="Helvetica,sans-Serif" font-size="10.00"> function&lt; UserInterface *(Player)&gt;</text>
<text text-anchor="start" x="230.38" y="-22.5" font-family="Helvetica,sans-Serif" font-size="10.00"> loseCallback)</text>
<text text-anchor="start" x="220.38" y="-6.5" font-family="Helvetica,sans-Serif" font-size="10.00">+</text>
<text text-anchor="start" x="230.38" y="-6.5" font-family="Helvetica,sans-Serif" font-size="10.00">UserInterface * render() override</text>
<polygon fill="#666666" stroke="#666666" points="216.38,-158 216.38,-158 414.38,-158 414.38,-158 216.38,-158"/>
<polygon fill="#666666" stroke="#666666" points="216.38,-82 216.38,-82 228.38,-82 228.38,-82 216.38,-82"/>
<polygon fill="#666666" stroke="#666666" points="228.38,-82 228.38,-82 414.38,-82 414.38,-82 228.38,-82"/>
<polygon fill="none" stroke="#666666" points="216.38,0 216.38,-176 414.38,-176 414.38,0 216.38,0"/>
</a>
</g>
</g>
<!-- Node2 -->
<g id="Node000002" class="node">
<title>Node2</title>
<g id="a_Node000002"><a xlink:href="class_u_i_with_player.html" target="_top" xlink:title="Basically just the base class for all user interfaces that have a player.">
<polygon fill="white" stroke="none" points="331.12,-281 191.62,-281 191.62,-213 331.12,-213 331.12,-281"/>
<text text-anchor="start" x="232.12" y="-267.5" font-family="Helvetica,sans-Serif" font-size="10.00">UIWithPlayer</text>
<text text-anchor="start" x="259.88" y="-251.5" font-family="Helvetica,sans-Serif" font-size="10.00"> </text>
<text text-anchor="start" x="195.62" y="-235.5" font-family="Helvetica,sans-Serif" font-size="10.00">+</text>
<text text-anchor="start" x="205.62" y="-235.5" font-family="Helvetica,sans-Serif" font-size="10.00">UIWithPlayer()</text>
<text text-anchor="start" x="195.62" y="-219.5" font-family="Helvetica,sans-Serif" font-size="10.00">+</text>
<text text-anchor="start" x="205.62" y="-219.5" font-family="Helvetica,sans-Serif" font-size="10.00">UIWithPlayer(Player player)</text>
<polygon fill="#666666" stroke="#666666" points="191.62,-263 191.62,-263 331.12,-263 331.12,-263 191.62,-263"/>
<polygon fill="#666666" stroke="#666666" points="191.62,-247 191.62,-247 331.12,-247 331.12,-247 191.62,-247"/>
<polygon fill="none" stroke="#666666" points="191.62,-213 191.62,-281 331.12,-281 331.12,-213 191.62,-213"/>
</a>
</g>
</g>
<!-- Node2&#45;&gt;Node1 -->
<g id="edge1_Node000001_Node000002" class="edge">
<title>Node2&#45;&gt;Node1</title>
<g id="a_edge1_Node000001_Node000002"><a xlink:title=" ">
<path fill="none" stroke="#63b8ff" d="M276.43,-202.22C279.28,-193.93 282.36,-184.99 285.49,-175.89"/>
<polygon fill="none" stroke="#63b8ff" points="273.13,-201.06 273.19,-211.66 279.75,-203.34 273.13,-201.06"/>
</a>
</g>
</g>
<!-- Node3 -->
<g id="Node000003" class="node">
<title>Node3</title>
<g id="a_Node000003"><a xlink:href="class_user_interface.html" target="_top" xlink:title="Base class for all user interfaces in the game.">
<polygon fill="white" stroke="none" points="341.62,-411 181.12,-411 181.12,-343 341.62,-343 341.62,-411"/>
<text text-anchor="start" x="231.75" y="-397.5" font-family="Helvetica,sans-Serif" font-size="10.00">UserInterface</text>
<text text-anchor="start" x="185.12" y="-381.5" font-family="Helvetica,sans-Serif" font-size="10.00">+</text>
<text text-anchor="start" x="195.12" y="-381.5" font-family="Helvetica,sans-Serif" font-size="10.00">bool quitGame</text>
<text text-anchor="start" x="185.12" y="-365.5" font-family="Helvetica,sans-Serif" font-size="10.00">+</text>
<text text-anchor="start" x="195.12" y="-365.5" font-family="Helvetica,sans-Serif" font-size="10.00">virtual UserInterface * render()=0</text>
<text text-anchor="start" x="185.12" y="-349.5" font-family="Helvetica,sans-Serif" font-size="10.00">+</text>
<text text-anchor="start" x="195.12" y="-349.5" font-family="Helvetica,sans-Serif" font-size="10.00">virtual ~UserInterface()</text>
<polygon fill="#666666" stroke="#666666" points="181.12,-393 181.12,-393 341.62,-393 341.62,-393 181.12,-393"/>
<polygon fill="#666666" stroke="#666666" points="181.12,-377 181.12,-377 193.12,-377 193.12,-377 181.12,-377"/>
<polygon fill="#666666" stroke="#666666" points="193.12,-377 193.12,-377 341.62,-377 341.62,-377 193.12,-377"/>
<polygon fill="none" stroke="#666666" points="181.12,-343 181.12,-411 341.62,-411 341.62,-343 181.12,-343"/>
</a>
</g>
</g>
<!-- Node3&#45;&gt;Node2 -->
<g id="edge2_Node000002_Node000003" class="edge">
<title>Node3&#45;&gt;Node2</title>
<g id="a_edge2_Node000002_Node000003"><a xlink:title=" ">
<path fill="none" stroke="#63b8ff" d="M261.38,-331.84C261.38,-315.1 261.38,-296.36 261.38,-280.85"/>
<polygon fill="none" stroke="#63b8ff" points="257.88,-331.52 261.38,-341.52 264.88,-331.52 257.88,-331.52"/>
</a>
</g>
</g>
<!-- Node4 -->
<g id="Node000004" class="node">
<title>Node4</title>
<g id="a_Node000004"><a xlink:href="class_player.html" target="_top" xlink:title="The Player class is an Entity that has an inventory and money.">
<polygon fill="white" stroke="none" points="162.75,-425 0,-425 0,-329 162.75,-329 162.75,-425"/>
<text text-anchor="start" x="67.5" y="-411.5" font-family="Helvetica,sans-Serif" font-size="10.00">Player</text>
<text text-anchor="start" x="4" y="-395.5" font-family="Helvetica,sans-Serif" font-size="10.00">+</text>
<text text-anchor="start" x="14" y="-395.5" font-family="Helvetica,sans-Serif" font-size="10.00">int money</text>
<text text-anchor="start" x="4" y="-379.5" font-family="Helvetica,sans-Serif" font-size="10.00">+</text>
<text text-anchor="start" x="14" y="-379.5" font-family="Helvetica,sans-Serif" font-size="10.00">Player()</text>
<text text-anchor="start" x="4" y="-363.5" font-family="Helvetica,sans-Serif" font-size="10.00">+</text>
<text text-anchor="start" x="14" y="-363.5" font-family="Helvetica,sans-Serif" font-size="10.00">Player(int health, string</text>
<text text-anchor="start" x="14" y="-351.5" font-family="Helvetica,sans-Serif" font-size="10.00"> name, int atk, int def, int money)</text>
<text text-anchor="start" x="4" y="-335.5" font-family="Helvetica,sans-Serif" font-size="10.00">+</text>
<text text-anchor="start" x="14" y="-335.5" font-family="Helvetica,sans-Serif" font-size="10.00">void addMoney(int amount)</text>
<polygon fill="#666666" stroke="#666666" points="0,-407 0,-407 162.75,-407 162.75,-407 0,-407"/>
<polygon fill="#666666" stroke="#666666" points="0,-391 0,-391 12,-391 12,-391 0,-391"/>
<polygon fill="#666666" stroke="#666666" points="12,-391 12,-391 162.75,-391 162.75,-391 12,-391"/>
<polygon fill="none" stroke="#666666" points="0,-329 0,-425 162.75,-425 162.75,-329 0,-329"/>
</a>
</g>
</g>
<!-- Node4&#45;&gt;Node2 -->
<g id="edge3_Node000002_Node000004" class="edge">
<title>Node4&#45;&gt;Node2</title>
<g id="a_edge3_Node000002_Node000004"><a xlink:title=" ">
<path fill="none" stroke="#63b8ff" d="M147.38,-329.06C166.17,-315.7 186.46,-301.27 204.64,-288.34"/>
<polygon fill="none" stroke="#63b8ff" points="204.56,-288.4 207.14,-281.66 214.34,-281.44 211.77,-288.18 204.56,-288.4"/>
</a>
</g>
<text text-anchor="middle" x="205.12" y="-301.5" font-family="Helvetica,sans-Serif" font-size="10.00" fill="grey"> +player</text>
</g>
<!-- Node5 -->
<g id="Node000005" class="node">
<title>Node5</title>
<g id="a_Node000005"><a xlink:href="class_entity.html" target="_top" xlink:title="Base class for all entities in the game. This includes the player and enemies.">
<polygon fill="white" stroke="none" points="373.38,-613 241.38,-613 241.38,-473 373.38,-473 373.38,-613"/>
<text text-anchor="start" x="294.62" y="-599.5" font-family="Helvetica,sans-Serif" font-size="10.00">Entity</text>
<text text-anchor="start" x="245.38" y="-583.5" font-family="Helvetica,sans-Serif" font-size="10.00">+</text>
<text text-anchor="start" x="255.38" y="-583.5" font-family="Helvetica,sans-Serif" font-size="10.00">int maxHealth</text>
<text text-anchor="start" x="245.38" y="-567.5" font-family="Helvetica,sans-Serif" font-size="10.00">+</text>
<text text-anchor="start" x="255.38" y="-567.5" font-family="Helvetica,sans-Serif" font-size="10.00">int currHealth</text>
<text text-anchor="start" x="245.38" y="-551.5" font-family="Helvetica,sans-Serif" font-size="10.00">+</text>
<text text-anchor="start" x="255.38" y="-551.5" font-family="Helvetica,sans-Serif" font-size="10.00">string name</text>
<text text-anchor="start" x="245.38" y="-535.5" font-family="Helvetica,sans-Serif" font-size="10.00">+</text>
<text text-anchor="start" x="255.38" y="-535.5" font-family="Helvetica,sans-Serif" font-size="10.00">Entity(int health, string</text>
<text text-anchor="start" x="255.38" y="-523.5" font-family="Helvetica,sans-Serif" font-size="10.00"> name, int atk, int def)</text>
<text text-anchor="start" x="245.38" y="-507.5" font-family="Helvetica,sans-Serif" font-size="10.00">+</text>
<text text-anchor="start" x="255.38" y="-507.5" font-family="Helvetica,sans-Serif" font-size="10.00">virtual ~Entity()</text>
<text text-anchor="start" x="245.38" y="-491.5" font-family="Helvetica,sans-Serif" font-size="10.00">+</text>
<text text-anchor="start" x="255.38" y="-491.5" font-family="Helvetica,sans-Serif" font-size="10.00">void attack(Entity &amp;target,</text>
<text text-anchor="start" x="255.38" y="-479.5" font-family="Helvetica,sans-Serif" font-size="10.00"> int extraDmg=0)</text>
<polygon fill="#666666" stroke="#666666" points="241.38,-595 241.38,-595 373.38,-595 373.38,-595 241.38,-595"/>
<polygon fill="#666666" stroke="#666666" points="241.38,-547 241.38,-547 253.38,-547 253.38,-547 241.38,-547"/>
<polygon fill="#666666" stroke="#666666" points="253.38,-547 253.38,-547 373.38,-547 373.38,-547 253.38,-547"/>
<polygon fill="none" stroke="#666666" points="241.38,-473 241.38,-613 373.38,-613 373.38,-473 241.38,-473"/>
</a>
</g>
</g>
<!-- Node5&#45;&gt;Node1 -->
<g id="edge7_Node000001_Node000005" class="edge">
<title>Node5&#45;&gt;Node1</title>
<g id="a_edge7_Node000001_Node000005"><a xlink:title=" ">
<path fill="none" stroke="#63b8ff" d="M337.2,-473.21C342.66,-457.64 347.53,-440.98 350.38,-425 364.42,-346.07 353.49,-255.64 340.25,-188.49"/>
<polygon fill="none" stroke="#63b8ff" points="340.24,-188.44 335.12,-183.36 337.84,-176.69 342.96,-181.77 340.24,-188.44"/>
</a>
</g>
<text text-anchor="middle" x="375.13" y="-301.5" font-family="Helvetica,sans-Serif" font-size="10.00" fill="grey"> +enemy</text>
</g>
<!-- Node5&#45;&gt;Node4 -->
<g id="edge4_Node000004_Node000005" class="edge">
<title>Node5&#45;&gt;Node4</title>
<g id="a_edge4_Node000004_Node000005"><a xlink:title=" ">
<path fill="none" stroke="#63b8ff" d="M232.44,-487.62C204.42,-467.29 172.87,-444.39 145.87,-424.8"/>
<polygon fill="none" stroke="#63b8ff" points="230.02,-490.19 240.17,-493.23 234.14,-484.53 230.02,-490.19"/>
</a>
</g>
</g>
<!-- Node6 -->
<g id="Node000006" class="node">
<title>Node6</title>
<g id="a_Node000006"><a xlink:href="class_stats.html" target="_top" xlink:title="Stats for all entities.">
<polygon fill="white" stroke="none" points="352.75,-745 262,-745 262,-661 352.75,-661 352.75,-745"/>
<text text-anchor="start" x="295.75" y="-731.5" font-family="Helvetica,sans-Serif" font-size="10.00">Stats</text>
<text text-anchor="start" x="266" y="-715.5" font-family="Helvetica,sans-Serif" font-size="10.00">+</text>
<text text-anchor="start" x="276" y="-715.5" font-family="Helvetica,sans-Serif" font-size="10.00">int atk</text>
<text text-anchor="start" x="266" y="-699.5" font-family="Helvetica,sans-Serif" font-size="10.00">+</text>
<text text-anchor="start" x="276" y="-699.5" font-family="Helvetica,sans-Serif" font-size="10.00">int def</text>
<text text-anchor="start" x="266" y="-683.5" font-family="Helvetica,sans-Serif" font-size="10.00">+</text>
<text text-anchor="start" x="276" y="-683.5" font-family="Helvetica,sans-Serif" font-size="10.00">Stats()</text>
<text text-anchor="start" x="266" y="-667.5" font-family="Helvetica,sans-Serif" font-size="10.00">+</text>
<text text-anchor="start" x="276" y="-667.5" font-family="Helvetica,sans-Serif" font-size="10.00">Stats(int x, int y)</text>
<polygon fill="#666666" stroke="#666666" points="262,-727 262,-727 352.75,-727 352.75,-727 262,-727"/>
<polygon fill="#666666" stroke="#666666" points="262,-695 262,-695 274,-695 274,-695 262,-695"/>
<polygon fill="#666666" stroke="#666666" points="274,-695 274,-695 352.75,-695 352.75,-695 274,-695"/>
<polygon fill="none" stroke="#666666" points="262,-661 262,-745 352.75,-745 352.75,-661 262,-661"/>
</a>
</g>
</g>
<!-- Node6&#45;&gt;Node5 -->
<g id="edge5_Node000005_Node000006" class="edge">
<title>Node6&#45;&gt;Node5</title>
<g id="a_edge5_Node000005_Node000006"><a xlink:title=" ">
<path fill="none" stroke="#63b8ff" d="M307.38,-661.31C307.38,-650.32 307.38,-638.02 307.38,-625.63"/>
<polygon fill="none" stroke="#63b8ff" points="307.38,-625.65 303.38,-619.65 307.38,-613.65 311.38,-619.65 307.38,-625.65"/>
</a>
</g>
<text text-anchor="middle" x="322.75" y="-633.5" font-family="Helvetica,sans-Serif" font-size="10.00" fill="grey"> +stats</text>
</g>
<!-- Node7 -->
<g id="Node000007" class="node">
<title>Node7</title>
<g id="a_Node000007"><a xlink:href="class_inventory.html" target="_top" xlink:title="Inventory class that holds all items for the player.">
<polygon fill="white" stroke="none" points="150,-599 12.75,-599 12.75,-487 150,-487 150,-599"/>
<text text-anchor="start" x="61.12" y="-585.5" font-family="Helvetica,sans-Serif" font-size="10.00">Inventory</text>
<text text-anchor="start" x="16.75" y="-569.5" font-family="Helvetica,sans-Serif" font-size="10.00">+</text>
<text text-anchor="start" x="26.75" y="-569.5" font-family="Helvetica,sans-Serif" font-size="10.00">vector&lt; IItem * &gt; items</text>
<text text-anchor="start" x="16.75" y="-553.5" font-family="Helvetica,sans-Serif" font-size="10.00">+</text>
<text text-anchor="start" x="26.75" y="-553.5" font-family="Helvetica,sans-Serif" font-size="10.00">void addItem(IItem *item)</text>
<text text-anchor="start" x="16.75" y="-537.5" font-family="Helvetica,sans-Serif" font-size="10.00">+</text>
<text text-anchor="start" x="26.75" y="-537.5" font-family="Helvetica,sans-Serif" font-size="10.00">void listItems()</text>
<text text-anchor="start" x="16.75" y="-521.5" font-family="Helvetica,sans-Serif" font-size="10.00">+</text>
<text text-anchor="start" x="26.75" y="-521.5" font-family="Helvetica,sans-Serif" font-size="10.00">bool useItem(int idx, Player</text>
<text text-anchor="start" x="26.75" y="-509.5" font-family="Helvetica,sans-Serif" font-size="10.00"> &amp;player, Entity *enemy)</text>
<text text-anchor="start" x="16.75" y="-493.5" font-family="Helvetica,sans-Serif" font-size="10.00">+</text>
<text text-anchor="start" x="26.75" y="-493.5" font-family="Helvetica,sans-Serif" font-size="10.00">void dropItem(int idx)</text>
<polygon fill="#666666" stroke="#666666" points="12.75,-581 12.75,-581 150,-581 150,-581 12.75,-581"/>
<polygon fill="#666666" stroke="#666666" points="12.75,-565 12.75,-565 24.75,-565 24.75,-565 12.75,-565"/>
<polygon fill="#666666" stroke="#666666" points="24.75,-565 24.75,-565 150,-565 150,-565 24.75,-565"/>
<polygon fill="none" stroke="#666666" points="12.75,-487 12.75,-599 150,-599 150,-487 12.75,-487"/>
</a>
</g>
</g>
<!-- Node7&#45;&gt;Node4 -->
<g id="edge6_Node000004_Node000007" class="edge">
<title>Node7&#45;&gt;Node4</title>
<g id="a_edge6_Node000004_Node000007"><a xlink:title=" ">
<path fill="none" stroke="#63b8ff" d="M81.38,-487.39C81.38,-471.44 81.38,-453.92 81.38,-437.67"/>
<polygon fill="none" stroke="#63b8ff" points="81.38,-437.86 77.38,-431.86 81.38,-425.86 85.38,-431.86 81.38,-437.86"/>
</a>
</g>
<text text-anchor="middle" x="105.75" y="-445.5" font-family="Helvetica,sans-Serif" font-size="10.00" fill="grey"> +inventory</text>
</g>
</g>
</svg>
