<?xml version="1.0" encoding="UTF-8" standalone="no"?>
<!DOCTYPE svg PUBLIC "-//W3C//DTD SVG 1.1//EN"
 "http://www.w3.org/Graphics/SVG/1.1/DTD/svg11.dtd">
<!-- Generated by graphviz version 12.2.1 (20241206.2353)
 -->
<!-- Title: HealthPotion::HealthPotion Pages: 1 -->
<svg width="524pt" height="28pt"
 viewBox="0.00 0.00 523.50 28.00" xmlns="http://www.w3.org/2000/svg" xmlns:xlink="http://www.w3.org/1999/xlink">
<g id="graph0" class="graph" transform="scale(1 1) rotate(0) translate(4 24)">
<title>HealthPotion::HealthPotion</title>
<!-- Node1 -->
<g id="Node000001" class="node">
<title>Node1</title>
<g id="a_Node000001"><a xlink:title=" ">
<polygon fill="#999999" stroke="#666666" points="134.5,-20 0,-20 0,0 134.5,0 134.5,-20"/>
<text text-anchor="middle" x="67.25" y="-6.5" font-family="Helvetica,sans-Serif" font-size="10.00">HealthPotion::HealthPotion</text>
</a>
</g>
</g>
<!-- Node2 -->
<g id="Node000002" class="node">
<title>Node2</title>
<g id="a_Node000002"><a xlink:href="class_i_potion.html#aa93950ffed81f33407bdce018c60de58" target="_top" xlink:title=" ">
<polygon fill="white" stroke="#666666" points="254,-20 170.5,-20 170.5,0 254,0 254,-20"/>
<text text-anchor="middle" x="212.25" y="-6.5" font-family="Helvetica,sans-Serif" font-size="10.00">IPotion::IPotion</text>
</a>
</g>
</g>
<!-- Node1&#45;&gt;Node2 -->
<g id="edge1_Node000001_Node000002" class="edge">
<title>Node1&#45;&gt;Node2</title>
<g id="a_edge1_Node000001_Node000002"><a xlink:title=" ">
<path fill="none" stroke="#63b8ff" d="M134.73,-10C142.86,-10 151.08,-10 158.97,-10"/>
<polygon fill="#63b8ff" stroke="#63b8ff" points="158.72,-13.5 168.72,-10 158.72,-6.5 158.72,-13.5"/>
</a>
</g>
</g>
<!-- Node3 -->
<g id="Node000003" class="node">
<title>Node3</title>
<g id="a_Node000003"><a xlink:href="class_i_player_item.html#afc3002fdaacb41cd6862b2301cd279e3" target="_top" xlink:title=" ">
<polygon fill="white" stroke="#666666" points="412.5,-20 290,-20 290,0 412.5,0 412.5,-20"/>
<text text-anchor="middle" x="351.25" y="-6.5" font-family="Helvetica,sans-Serif" font-size="10.00">IPlayerItem::IPlayerItem</text>
</a>
</g>
</g>
<!-- Node2&#45;&gt;Node3 -->
<g id="edge2_Node000002_Node000003" class="edge">
<title>Node2&#45;&gt;Node3</title>
<g id="a_edge2_Node000002_Node000003"><a xlink:title=" ">
<path fill="none" stroke="#63b8ff" d="M254.35,-10C261.99,-10 270.18,-10 278.43,-10"/>
<polygon fill="#63b8ff" stroke="#63b8ff" points="278.16,-13.5 288.16,-10 278.16,-6.5 278.16,-13.5"/>
</a>
</g>
</g>
<!-- Node4 -->
<g id="Node000004" class="node">
<title>Node4</title>
<g id="a_Node000004"><a xlink:href="class_i_item.html#ab1bb86846077713c5847ec035115f09c" target="_top" xlink:title=" ">
<polygon fill="white" stroke="#666666" points="515.5,-20 448.5,-20 448.5,0 515.5,0 515.5,-20"/>
<text text-anchor="middle" x="482" y="-6.5" font-family="Helvetica,sans-Serif" font-size="10.00">IItem::IItem</text>
</a>
</g>
</g>
<!-- Node3&#45;&gt;Node4 -->
<g id="edge3_Node000003_Node000004" class="edge">
<title>Node3&#45;&gt;Node4</title>
<g id="a_edge3_Node000003_Node000004"><a xlink:title=" ">
<path fill="none" stroke="#63b8ff" d="M412.85,-10C420.91,-10 429.05,-10 436.75,-10"/>
<polygon fill="#63b8ff" stroke="#63b8ff" points="436.54,-13.5 446.54,-10 436.54,-6.5 436.54,-13.5"/>
</a>
</g>
</g>
</g>
</svg>
