<?xml version="1.0" encoding="UTF-8" standalone="no"?>
<!DOCTYPE svg PUBLIC "-//W3C//DTD SVG 1.1//EN"
 "http://www.w3.org/Graphics/SVG/1.1/DTD/svg11.dtd">
<!-- Generated by graphviz version 12.2.1 (20241206.2353)
 -->
<!-- Title: Entity::Entity Pages: 1 -->
<svg width="305pt" height="142pt"
 viewBox="0.00 0.00 305.00 142.00" xmlns="http://www.w3.org/2000/svg" xmlns:xlink="http://www.w3.org/1999/xlink">

<svg id="main" version="1.1" xmlns="http://www.w3.org/2000/svg" xmlns:xlink="http://www.w3.org/1999/xlink" xml:space="preserve">

<style type="text/css"><![CDATA[
.node, .edge {opacity: 0.7;}
.node.selected, .edge.selected {opacity: 1;}
.edge:hover path { stroke: red; }
.edge:hover polygon { stroke: red; fill: red; }
]]></style>
<script type="application/ecmascript" xlink:href="svg.min.js"/>
<svg id="graph" class="graph">
<g id="graph0" class="graph" transform="scale(1 1) rotate(0) translate(4 138)">
<title>Entity::Entity</title>
<!-- Node1 -->
<g id="Node000001" class="node">
<title>Node1</title>
<g id="a_Node000001"><a xlink:title=" ">
<polygon fill="#999999" stroke="#666666" points="297,-77 224,-77 224,-57 297,-57 297,-77"/>
<text text-anchor="middle" x="260.5" y="-63.5" font-family="Helvetica,sans-Serif" font-size="10.00">Entity::Entity</text>
</a>
</g>
</g>
<!-- Node2 -->
<g id="Node000002" class="node">
<title>Node2</title>
<g id="a_Node000002"><a xlink:href="class_entity.html#a44aad07756d6f00abf8f08ffde6eb217" target="_top" xlink:title=" ">
<polygon fill="white" stroke="#666666" points="185.75,-134 111.25,-134 111.25,-114 185.75,-114 185.75,-134"/>
<text text-anchor="middle" x="148.5" y="-120.5" font-family="Helvetica,sans-Serif" font-size="10.00">Entity::attack</text>
</a>
</g>
</g>
<!-- Node1&#45;&gt;Node2 -->
<g id="edge1_Node000001_Node000002" class="edge">
<title>Node1&#45;&gt;Node2</title>
<g id="a_edge1_Node000001_Node000002"><a xlink:title=" ">
<path fill="none" stroke="#63b8ff" d="M230.4,-82.72C217.46,-89.64 202.02,-97.82 188,-105 182.43,-107.85 176.37,-110.88 170.74,-113.66"/>
<polygon fill="#63b8ff" stroke="#63b8ff" points="231.67,-86.01 238.83,-78.2 228.36,-79.84 231.67,-86.01"/>
</a>
</g>
</g>
<!-- Node4 -->
<g id="Node000004" class="node">
<title>Node4</title>
<g id="a_Node000004"><a xlink:href="class_player.html#affe0cc3cb714f6deb4e62f0c0d3f1fd8" target="_top" xlink:title=" ">
<polygon fill="white" stroke="#666666" points="187.25,-96 109.75,-96 109.75,-76 187.25,-76 187.25,-96"/>
<text text-anchor="middle" x="148.5" y="-82.5" font-family="Helvetica,sans-Serif" font-size="10.00">Player::Player</text>
</a>
</g>
</g>
<!-- Node1&#45;&gt;Node4 -->
<g id="edge3_Node000001_Node000004" class="edge">
<title>Node1&#45;&gt;Node4</title>
<g id="a_edge3_Node000001_Node000004"><a xlink:title=" ">
<path fill="none" stroke="#63b8ff" d="M212.66,-75.09C204.33,-76.53 195.74,-78.01 187.69,-79.4"/>
<polygon fill="#63b8ff" stroke="#63b8ff" points="213.04,-78.58 222.29,-73.43 211.84,-71.68 213.04,-78.58"/>
</a>
</g>
</g>
<!-- Node5 -->
<g id="Node000005" class="node">
<title>Node5</title>
<g id="a_Node000005"><a xlink:href="class_player.html#a32b77b22f5675099b03650bed28ae924" target="_top" xlink:title=" ">
<polygon fill="white" stroke="#666666" points="187.25,-58 109.75,-58 109.75,-38 187.25,-38 187.25,-58"/>
<text text-anchor="middle" x="148.5" y="-44.5" font-family="Helvetica,sans-Serif" font-size="10.00">Player::Player</text>
</a>
</g>
</g>
<!-- Node1&#45;&gt;Node5 -->
<g id="edge4_Node000001_Node000005" class="edge">
<title>Node1&#45;&gt;Node5</title>
<g id="a_edge4_Node000001_Node000005"><a xlink:title=" ">
<path fill="none" stroke="#63b8ff" d="M212.66,-58.91C204.33,-57.47 195.74,-55.99 187.69,-54.6"/>
<polygon fill="#63b8ff" stroke="#63b8ff" points="211.84,-62.32 222.29,-60.57 213.04,-55.42 211.84,-62.32"/>
</a>
</g>
</g>
<!-- Node6 -->
<g id="Node000006" class="node">
<title>Node6</title>
<g id="a_Node000006"><a xlink:href="class_entity.html#adf6d3f7cb1b2ba029b6b048a395cc8ae" target="_top" xlink:title=" ">
<polygon fill="white" stroke="#666666" points="188,-20 109,-20 109,0 188,0 188,-20"/>
<text text-anchor="middle" x="148.5" y="-6.5" font-family="Helvetica,sans-Serif" font-size="10.00">Entity::~Entity</text>
</a>
</g>
</g>
<!-- Node1&#45;&gt;Node6 -->
<g id="edge5_Node000001_Node000006" class="edge">
<title>Node1&#45;&gt;Node6</title>
<g id="a_edge5_Node000001_Node000006"><a xlink:title=" ">
<path fill="none" stroke="#63b8ff" d="M230.4,-51.28C217.46,-44.36 202.02,-36.18 188,-29 182.43,-26.15 176.37,-23.12 170.74,-20.34"/>
<polygon fill="#63b8ff" stroke="#63b8ff" points="228.36,-54.16 238.83,-55.8 231.67,-47.99 228.36,-54.16"/>
</a>
</g>
</g>
<!-- Node3 -->
<g id="Node000003" class="node">
<title>Node3</title>
<g id="a_Node000003"><a xlink:href="class_weapon.html#a425b48c0e2c2422e244b7cb7227a0345" target="_top" xlink:title=" ">
<polygon fill="white" stroke="#666666" points="73,-134 0,-134 0,-114 73,-114 73,-134"/>
<text text-anchor="middle" x="36.5" y="-120.5" font-family="Helvetica,sans-Serif" font-size="10.00">Weapon::use</text>
</a>
</g>
</g>
<!-- Node2&#45;&gt;Node3 -->
<g id="edge2_Node000002_Node000003" class="edge">
<title>Node2&#45;&gt;Node3</title>
<g id="a_edge2_Node000002_Node000003"><a xlink:title=" ">
<path fill="none" stroke="#63b8ff" d="M99.49,-124C90.67,-124 81.6,-124 73.22,-124"/>
<polygon fill="#63b8ff" stroke="#63b8ff" points="99.36,-127.5 109.36,-124 99.36,-120.5 99.36,-127.5"/>
</a>
</g>
</g>
</g>
</svg>
</svg>

<style type='text/css'>
<![CDATA[
[data-mouse-over-selected='false'] { opacity: 0.7; }
[data-mouse-over-selected='true']  { opacity: 1.0; }
]]>
</style>
<script type="application/ecmascript"><![CDATA[
document.addEventListener('DOMContentLoaded', (event) => {
  highlightEdges();
  highlightAdjacentNodes();
});
]]></script>
</svg>
