<?xml version="1.0" encoding="UTF-8" standalone="no"?>
<!DOCTYPE svg PUBLIC "-//W3C//DTD SVG 1.1//EN"
 "http://www.w3.org/Graphics/SVG/1.1/DTD/svg11.dtd">
<!-- Generated by graphviz version 12.2.1 (20241206.2353)
 -->
<!-- Title: JovialAftermath Pages: 1 -->
<svg width="384pt" height="801pt"
 viewBox="0.00 0.00 384.00 801.00" xmlns="http://www.w3.org/2000/svg" xmlns:xlink="http://www.w3.org/1999/xlink">
<g id="graph0" class="graph" transform="scale(1 1) rotate(0) translate(4 797)">
<title>JovialAftermath</title>
<!-- Node1 -->
<g id="Node000001" class="node">
<title>Node1</title>
<g id="a_Node000001"><a xlink:title="The cutscene after the player wins the Jovial fight.">
<polygon fill="#999999" stroke="none" points="175,-80 17.5,-80 17.5,0 175,0 175,-80"/>
<text text-anchor="start" x="62.12" y="-66.5" font-family="Helvetica,sans-Serif" font-size="10.00">JovialAftermath</text>
<text text-anchor="start" x="21.5" y="-50.5" font-family="Helvetica,sans-Serif" font-size="10.00">+</text>
<text text-anchor="start" x="31.5" y="-50.5" font-family="Helvetica,sans-Serif" font-size="10.00">string battleStatus</text>
<text text-anchor="start" x="21.5" y="-34.5" font-family="Helvetica,sans-Serif" font-size="10.00">+</text>
<text text-anchor="start" x="31.5" y="-34.5" font-family="Helvetica,sans-Serif" font-size="10.00">JovialAftermath(Player player,</text>
<text text-anchor="start" x="31.5" y="-22.5" font-family="Helvetica,sans-Serif" font-size="10.00"> string bs)</text>
<text text-anchor="start" x="21.5" y="-6.5" font-family="Helvetica,sans-Serif" font-size="10.00">+</text>
<text text-anchor="start" x="31.5" y="-6.5" font-family="Helvetica,sans-Serif" font-size="10.00">UserInterface * render() override</text>
<polygon fill="#666666" stroke="#666666" points="17.5,-62 17.5,-62 175,-62 175,-62 17.5,-62"/>
<polygon fill="#666666" stroke="#666666" points="17.5,-46 17.5,-46 29.5,-46 29.5,-46 17.5,-46"/>
<polygon fill="#666666" stroke="#666666" points="29.5,-46 29.5,-46 175,-46 175,-46 29.5,-46"/>
<polygon fill="none" stroke="#666666" points="17.5,0 17.5,-80 175,-80 175,0 17.5,0"/>
</a>
</g>
</g>
<!-- Node2 -->
<g id="Node000002" class="node">
<title>Node2</title>
<g id="a_Node000002"><a xlink:href="class_u_i_with_player.html" target="_top" xlink:title="Basically just the base class for all user interfaces that have a player.">
<polygon fill="white" stroke="none" points="166,-185 26.5,-185 26.5,-117 166,-117 166,-185"/>
<text text-anchor="start" x="67" y="-171.5" font-family="Helvetica,sans-Serif" font-size="10.00">UIWithPlayer</text>
<text text-anchor="start" x="94.75" y="-155.5" font-family="Helvetica,sans-Serif" font-size="10.00"> </text>
<text text-anchor="start" x="30.5" y="-139.5" font-family="Helvetica,sans-Serif" font-size="10.00">+</text>
<text text-anchor="start" x="40.5" y="-139.5" font-family="Helvetica,sans-Serif" font-size="10.00">UIWithPlayer()</text>
<text text-anchor="start" x="30.5" y="-123.5" font-family="Helvetica,sans-Serif" font-size="10.00">+</text>
<text text-anchor="start" x="40.5" y="-123.5" font-family="Helvetica,sans-Serif" font-size="10.00">UIWithPlayer(Player player)</text>
<polygon fill="#666666" stroke="#666666" points="26.5,-167 26.5,-167 166,-167 166,-167 26.5,-167"/>
<polygon fill="#666666" stroke="#666666" points="26.5,-151 26.5,-151 166,-151 166,-151 26.5,-151"/>
<polygon fill="none" stroke="#666666" points="26.5,-117 26.5,-185 166,-185 166,-117 26.5,-117"/>
</a>
</g>
</g>
<!-- Node2&#45;&gt;Node1 -->
<g id="edge1_Node000001_Node000002" class="edge">
<title>Node2&#45;&gt;Node1</title>
<g id="a_edge1_Node000001_Node000002"><a xlink:title=" ">
<path fill="none" stroke="#63b8ff" d="M96.25,-105.57C96.25,-96.97 96.25,-88.03 96.25,-79.63"/>
<polygon fill="none" stroke="#63b8ff" points="92.75,-105.49 96.25,-115.49 99.75,-105.49 92.75,-105.49"/>
</a>
</g>
</g>
<!-- Node3 -->
<g id="Node000003" class="node">
<title>Node3</title>
<g id="a_Node000003"><a xlink:href="class_user_interface.html" target="_top" xlink:title="Base class for all user interfaces in the game.">
<polygon fill="white" stroke="none" points="160.5,-347 0,-347 0,-279 160.5,-279 160.5,-347"/>
<text text-anchor="start" x="50.62" y="-333.5" font-family="Helvetica,sans-Serif" font-size="10.00">UserInterface</text>
<text text-anchor="start" x="4" y="-317.5" font-family="Helvetica,sans-Serif" font-size="10.00">+</text>
<text text-anchor="start" x="14" y="-317.5" font-family="Helvetica,sans-Serif" font-size="10.00">bool quitGame</text>
<text text-anchor="start" x="4" y="-301.5" font-family="Helvetica,sans-Serif" font-size="10.00">+</text>
<text text-anchor="start" x="14" y="-301.5" font-family="Helvetica,sans-Serif" font-size="10.00">virtual UserInterface * render()=0</text>
<text text-anchor="start" x="4" y="-285.5" font-family="Helvetica,sans-Serif" font-size="10.00">+</text>
<text text-anchor="start" x="14" y="-285.5" font-family="Helvetica,sans-Serif" font-size="10.00">virtual ~UserInterface()</text>
<polygon fill="#666666" stroke="#666666" points="0,-329 0,-329 160.5,-329 160.5,-329 0,-329"/>
<polygon fill="#666666" stroke="#666666" points="0,-313 0,-313 12,-313 12,-313 0,-313"/>
<polygon fill="#666666" stroke="#666666" points="12,-313 12,-313 160.5,-313 160.5,-313 12,-313"/>
<polygon fill="none" stroke="#666666" points="0,-279 0,-347 160.5,-347 160.5,-279 0,-279"/>
</a>
</g>
</g>
<!-- Node3&#45;&gt;Node2 -->
<g id="edge2_Node000002_Node000003" class="edge">
<title>Node3&#45;&gt;Node2</title>
<g id="a_edge2_Node000002_Node000003"><a xlink:title=" ">
<path fill="none" stroke="#63b8ff" d="M84.64,-268.06C87.27,-241.82 90.55,-209.02 92.95,-185"/>
<polygon fill="none" stroke="#63b8ff" points="81.19,-267.43 83.68,-277.73 88.15,-268.13 81.19,-267.43"/>
</a>
</g>
</g>
<!-- Node4 -->
<g id="Node000004" class="node">
<title>Node4</title>
<g id="a_Node000004"><a xlink:href="class_player.html" target="_top" xlink:title="The Player class is an Entity that has an inventory and money.">
<polygon fill="white" stroke="none" points="341.62,-393 178.88,-393 178.88,-233 341.62,-233 341.62,-393"/>
<text text-anchor="start" x="246.38" y="-379.5" font-family="Helvetica,sans-Serif" font-size="10.00">Player</text>
<text text-anchor="start" x="184.38" y="-363.5" font-family="Helvetica,sans-Serif" font-size="10.00">&#45;</text>
<text text-anchor="start" x="192.88" y="-363.5" font-family="Helvetica,sans-Serif" font-size="10.00">int money</text>
<text text-anchor="start" x="182.88" y="-347.5" font-family="Helvetica,sans-Serif" font-size="10.00">+</text>
<text text-anchor="start" x="192.88" y="-347.5" font-family="Helvetica,sans-Serif" font-size="10.00">Player()</text>
<text text-anchor="start" x="182.88" y="-331.5" font-family="Helvetica,sans-Serif" font-size="10.00">+</text>
<text text-anchor="start" x="192.88" y="-331.5" font-family="Helvetica,sans-Serif" font-size="10.00">Player(int health, string</text>
<text text-anchor="start" x="192.88" y="-319.5" font-family="Helvetica,sans-Serif" font-size="10.00"> name, int atk, int def, int money)</text>
<text text-anchor="start" x="182.88" y="-303.5" font-family="Helvetica,sans-Serif" font-size="10.00">+</text>
<text text-anchor="start" x="192.88" y="-303.5" font-family="Helvetica,sans-Serif" font-size="10.00">void addMoney(int amount)</text>
<text text-anchor="start" x="182.88" y="-287.5" font-family="Helvetica,sans-Serif" font-size="10.00">+</text>
<text text-anchor="start" x="192.88" y="-287.5" font-family="Helvetica,sans-Serif" font-size="10.00">int getMoney()</text>
<text text-anchor="start" x="182.88" y="-271.5" font-family="Helvetica,sans-Serif" font-size="10.00">+</text>
<text text-anchor="start" x="192.88" y="-271.5" font-family="Helvetica,sans-Serif" font-size="10.00">void setMoney(int amount)</text>
<text text-anchor="start" x="182.88" y="-255.5" font-family="Helvetica,sans-Serif" font-size="10.00">+</text>
<text text-anchor="start" x="192.88" y="-255.5" font-family="Helvetica,sans-Serif" font-size="10.00">bool canAfford(int amount)</text>
<text text-anchor="start" x="182.88" y="-239.5" font-family="Helvetica,sans-Serif" font-size="10.00">+</text>
<text text-anchor="start" x="192.88" y="-239.5" font-family="Helvetica,sans-Serif" font-size="10.00">bool canAfford(ShopItem &amp;item)</text>
<polygon fill="#666666" stroke="#666666" points="178.88,-375 178.88,-375 341.62,-375 341.62,-375 178.88,-375"/>
<polygon fill="#666666" stroke="#666666" points="178.88,-359 178.88,-359 190.88,-359 190.88,-359 178.88,-359"/>
<polygon fill="#666666" stroke="#666666" points="190.88,-359 190.88,-359 341.62,-359 341.62,-359 190.88,-359"/>
<polygon fill="none" stroke="#666666" points="178.88,-233 178.88,-393 341.62,-393 341.62,-233 178.88,-233"/>
</a>
</g>
</g>
<!-- Node4&#45;&gt;Node2 -->
<g id="edge3_Node000002_Node000004" class="edge">
<title>Node4&#45;&gt;Node2</title>
<g id="a_edge3_Node000002_Node000004"><a xlink:title=" ">
<path fill="none" stroke="#63b8ff" d="M179.69,-233.41C165.62,-219.68 151.49,-205.89 138.96,-193.67"/>
<polygon fill="none" stroke="#63b8ff" points="138.96,-193.67 131.87,-192.34 130.37,-185.29 137.46,-186.61 138.96,-193.67"/>
</a>
</g>
<text text-anchor="middle" x="175.99" y="-205.5" font-family="Helvetica,sans-Serif" font-size="10.00" fill="grey"> #player</text>
</g>
<!-- Node5 -->
<g id="Node000005" class="node">
<title>Node5</title>
<g id="a_Node000005"><a xlink:href="class_entity.html" target="_top" xlink:title="Base class for all entities in the game. This includes the player and enemies.">
<polygon fill="white" stroke="none" points="218.25,-677 86.25,-677 86.25,-441 218.25,-441 218.25,-677"/>
<text text-anchor="start" x="139.5" y="-663.5" font-family="Helvetica,sans-Serif" font-size="10.00">Entity</text>
<text text-anchor="start" x="90.62" y="-647.5" font-family="Helvetica,sans-Serif" font-size="10.00">#</text>
<text text-anchor="start" x="100.25" y="-647.5" font-family="Helvetica,sans-Serif" font-size="10.00">string name</text>
<text text-anchor="start" x="90.25" y="-631.5" font-family="Helvetica,sans-Serif" font-size="10.00">+</text>
<text text-anchor="start" x="100.25" y="-631.5" font-family="Helvetica,sans-Serif" font-size="10.00">Entity(int health, string</text>
<text text-anchor="start" x="100.25" y="-619.5" font-family="Helvetica,sans-Serif" font-size="10.00"> name, int atk, int def)</text>
<text text-anchor="start" x="90.25" y="-603.5" font-family="Helvetica,sans-Serif" font-size="10.00">+</text>
<text text-anchor="start" x="100.25" y="-603.5" font-family="Helvetica,sans-Serif" font-size="10.00">virtual ~Entity()</text>
<text text-anchor="start" x="90.25" y="-587.5" font-family="Helvetica,sans-Serif" font-size="10.00">+</text>
<text text-anchor="start" x="100.25" y="-587.5" font-family="Helvetica,sans-Serif" font-size="10.00">void attack(Entity &amp;target,</text>
<text text-anchor="start" x="100.25" y="-575.5" font-family="Helvetica,sans-Serif" font-size="10.00"> int extraDmg=0)</text>
<text text-anchor="start" x="90.25" y="-559.5" font-family="Helvetica,sans-Serif" font-size="10.00">+</text>
<text text-anchor="start" x="100.25" y="-559.5" font-family="Helvetica,sans-Serif" font-size="10.00">int getHealth()</text>
<text text-anchor="start" x="90.25" y="-543.5" font-family="Helvetica,sans-Serif" font-size="10.00">+</text>
<text text-anchor="start" x="100.25" y="-543.5" font-family="Helvetica,sans-Serif" font-size="10.00">int getMaxHealth()</text>
<text text-anchor="start" x="90.25" y="-527.5" font-family="Helvetica,sans-Serif" font-size="10.00">+</text>
<text text-anchor="start" x="100.25" y="-527.5" font-family="Helvetica,sans-Serif" font-size="10.00">bool isFullHealth()</text>
<text text-anchor="start" x="90.25" y="-511.5" font-family="Helvetica,sans-Serif" font-size="10.00">+</text>
<text text-anchor="start" x="100.25" y="-511.5" font-family="Helvetica,sans-Serif" font-size="10.00">void fullyHeal()</text>
<text text-anchor="start" x="90.25" y="-495.5" font-family="Helvetica,sans-Serif" font-size="10.00">+</text>
<text text-anchor="start" x="100.25" y="-495.5" font-family="Helvetica,sans-Serif" font-size="10.00">bool isAlive()</text>
<text text-anchor="start" x="90.25" y="-479.5" font-family="Helvetica,sans-Serif" font-size="10.00">+</text>
<text text-anchor="start" x="100.25" y="-479.5" font-family="Helvetica,sans-Serif" font-size="10.00">void heal(int amount)</text>
<text text-anchor="start" x="90.25" y="-463.5" font-family="Helvetica,sans-Serif" font-size="10.00">+</text>
<text text-anchor="start" x="100.25" y="-463.5" font-family="Helvetica,sans-Serif" font-size="10.00">void kill()</text>
<text text-anchor="start" x="100.25" y="-447.5" font-family="Helvetica,sans-Serif" font-size="10.00">and 6 more...</text>
<polygon fill="#666666" stroke="#666666" points="86.25,-659 86.25,-659 218.25,-659 218.25,-659 86.25,-659"/>
<polygon fill="#666666" stroke="#666666" points="86.25,-643 86.25,-643 98.25,-643 98.25,-643 86.25,-643"/>
<polygon fill="#666666" stroke="#666666" points="98.25,-643 98.25,-643 218.25,-643 218.25,-643 98.25,-643"/>
<polygon fill="none" stroke="#666666" points="86.25,-441 86.25,-677 218.25,-677 218.25,-441 86.25,-441"/>
</a>
</g>
</g>
<!-- Node5&#45;&gt;Node4 -->
<g id="edge4_Node000004_Node000005" class="edge">
<title>Node5&#45;&gt;Node4</title>
<g id="a_edge4_Node000004_Node000005"><a xlink:title=" ">
<path fill="none" stroke="#63b8ff" d="M208.63,-430.63C214.35,-417.7 220.04,-404.85 225.43,-392.66"/>
<polygon fill="none" stroke="#63b8ff" points="205.5,-429.06 204.65,-439.62 211.9,-431.89 205.5,-429.06"/>
</a>
</g>
</g>
<!-- Node6 -->
<g id="Node000006" class="node">
<title>Node6</title>
<g id="a_Node000006"><a xlink:href="struct_health.html" target="_top" xlink:title=" ">
<polygon fill="white" stroke="none" points="150.38,-793 16.12,-793 16.12,-725 150.38,-725 150.38,-793"/>
<text text-anchor="start" x="69" y="-779.5" font-family="Helvetica,sans-Serif" font-size="10.00">Health</text>
<text text-anchor="start" x="20.12" y="-763.5" font-family="Helvetica,sans-Serif" font-size="10.00">+</text>
<text text-anchor="start" x="30.12" y="-763.5" font-family="Helvetica,sans-Serif" font-size="10.00">int current</text>
<text text-anchor="start" x="20.12" y="-747.5" font-family="Helvetica,sans-Serif" font-size="10.00">+</text>
<text text-anchor="start" x="30.12" y="-747.5" font-family="Helvetica,sans-Serif" font-size="10.00">int max</text>
<text text-anchor="start" x="20.12" y="-731.5" font-family="Helvetica,sans-Serif" font-size="10.00">+</text>
<text text-anchor="start" x="30.12" y="-731.5" font-family="Helvetica,sans-Serif" font-size="10.00">Health(int current, int max)</text>
<polygon fill="#666666" stroke="#666666" points="16.12,-775 16.12,-775 150.38,-775 150.38,-775 16.12,-775"/>
<polygon fill="#666666" stroke="#666666" points="16.12,-743 16.12,-743 28.12,-743 28.12,-743 16.12,-743"/>
<polygon fill="#666666" stroke="#666666" points="28.12,-743 28.12,-743 150.38,-743 150.38,-743 28.12,-743"/>
<polygon fill="none" stroke="#666666" points="16.12,-725 16.12,-793 150.38,-793 150.38,-725 16.12,-725"/>
</a>
</g>
</g>
<!-- Node6&#45;&gt;Node5 -->
<g id="edge5_Node000005_Node000006" class="edge">
<title>Node6&#45;&gt;Node5</title>
<g id="a_edge5_Node000005_Node000006"><a xlink:title=" ">
<path fill="none" stroke="#63b8ff" d="M94.64,-725.3C98.37,-714.6 102.77,-701.98 107.45,-688.57"/>
<polygon fill="none" stroke="#63b8ff" points="107.37,-688.78 105.57,-681.8 111.32,-677.45 113.12,-684.43 107.37,-688.78"/>
</a>
</g>
<text text-anchor="middle" x="120.89" y="-697.5" font-family="Helvetica,sans-Serif" font-size="10.00" fill="grey"> #health</text>
</g>
<!-- Node7 -->
<g id="Node000007" class="node">
<title>Node7</title>
<g id="a_Node000007"><a xlink:href="struct_stats.html" target="_top" xlink:title="Stats for all entities.">
<polygon fill="white" stroke="none" points="275.88,-793 168.62,-793 168.62,-725 275.88,-725 275.88,-793"/>
<text text-anchor="start" x="210.62" y="-779.5" font-family="Helvetica,sans-Serif" font-size="10.00">Stats</text>
<text text-anchor="start" x="172.62" y="-763.5" font-family="Helvetica,sans-Serif" font-size="10.00">+</text>
<text text-anchor="start" x="182.62" y="-763.5" font-family="Helvetica,sans-Serif" font-size="10.00">int atk</text>
<text text-anchor="start" x="172.62" y="-747.5" font-family="Helvetica,sans-Serif" font-size="10.00">+</text>
<text text-anchor="start" x="182.62" y="-747.5" font-family="Helvetica,sans-Serif" font-size="10.00">int def</text>
<text text-anchor="start" x="172.62" y="-731.5" font-family="Helvetica,sans-Serif" font-size="10.00">+</text>
<text text-anchor="start" x="182.62" y="-731.5" font-family="Helvetica,sans-Serif" font-size="10.00">Stats(int atk, int def)</text>
<polygon fill="#666666" stroke="#666666" points="168.62,-775 168.62,-775 275.88,-775 275.88,-775 168.62,-775"/>
<polygon fill="#666666" stroke="#666666" points="168.62,-743 168.62,-743 180.62,-743 180.62,-743 168.62,-743"/>
<polygon fill="#666666" stroke="#666666" points="180.62,-743 180.62,-743 275.88,-743 275.88,-743 180.62,-743"/>
<polygon fill="none" stroke="#666666" points="168.62,-725 168.62,-793 275.88,-793 275.88,-725 168.62,-725"/>
</a>
</g>
</g>
<!-- Node7&#45;&gt;Node5 -->
<g id="edge6_Node000005_Node000007" class="edge">
<title>Node7&#45;&gt;Node5</title>
<g id="a_edge6_Node000005_Node000007"><a xlink:title=" ">
<path fill="none" stroke="#63b8ff" d="M210.69,-725.3C206.91,-714.6 202.45,-701.98 197.7,-688.57"/>
<polygon fill="none" stroke="#63b8ff" points="197.77,-688.76 192,-684.44 193.77,-677.45 199.54,-681.77 197.77,-688.76"/>
</a>
</g>
<text text-anchor="middle" x="218.48" y="-697.5" font-family="Helvetica,sans-Serif" font-size="10.00" fill="grey"> #stats</text>
</g>
<!-- Node8 -->
<g id="Node000008" class="node">
<title>Node8</title>
<g id="a_Node000008"><a xlink:href="class_inventory.html" target="_top" xlink:title="Inventory class that holds all items for the player.">
<polygon fill="white" stroke="none" points="376,-621 236.5,-621 236.5,-497 376,-497 376,-621"/>
<text text-anchor="start" x="286" y="-607.5" font-family="Helvetica,sans-Serif" font-size="10.00">Inventory</text>
<text text-anchor="start" x="242" y="-591.5" font-family="Helvetica,sans-Serif" font-size="10.00">&#45;</text>
<text text-anchor="start" x="250.5" y="-591.5" font-family="Helvetica,sans-Serif" font-size="10.00">vector&lt; IItem * &gt; items</text>
<text text-anchor="start" x="240.5" y="-575.5" font-family="Helvetica,sans-Serif" font-size="10.00">+</text>
<text text-anchor="start" x="250.5" y="-575.5" font-family="Helvetica,sans-Serif" font-size="10.00">IItem * addItem(IItem *item,</text>
<text text-anchor="start" x="250.5" y="-563.5" font-family="Helvetica,sans-Serif" font-size="10.00"> bool animate=true)</text>
<text text-anchor="start" x="240.5" y="-547.5" font-family="Helvetica,sans-Serif" font-size="10.00">+</text>
<text text-anchor="start" x="250.5" y="-547.5" font-family="Helvetica,sans-Serif" font-size="10.00">void listItems()</text>
<text text-anchor="start" x="240.5" y="-531.5" font-family="Helvetica,sans-Serif" font-size="10.00">+</text>
<text text-anchor="start" x="250.5" y="-531.5" font-family="Helvetica,sans-Serif" font-size="10.00">bool useItem(int idx, Player</text>
<text text-anchor="start" x="250.5" y="-519.5" font-family="Helvetica,sans-Serif" font-size="10.00"> &amp;player, Entity *enemy)</text>
<text text-anchor="start" x="240.5" y="-503.5" font-family="Helvetica,sans-Serif" font-size="10.00">+</text>
<text text-anchor="start" x="250.5" y="-503.5" font-family="Helvetica,sans-Serif" font-size="10.00">void dropItem(int idx)</text>
<polygon fill="#666666" stroke="#666666" points="236.5,-603 236.5,-603 376,-603 376,-603 236.5,-603"/>
<polygon fill="#666666" stroke="#666666" points="236.5,-587 236.5,-587 248.5,-587 248.5,-587 236.5,-587"/>
<polygon fill="#666666" stroke="#666666" points="248.5,-587 248.5,-587 376,-587 376,-587 248.5,-587"/>
<polygon fill="none" stroke="#666666" points="236.5,-497 236.5,-621 376,-621 376,-497 236.5,-497"/>
</a>
</g>
</g>
<!-- Node8&#45;&gt;Node4 -->
<g id="edge7_Node000004_Node000008" class="edge">
<title>Node8&#45;&gt;Node4</title>
<g id="a_edge7_Node000004_Node000008"><a xlink:title=" ">
<path fill="none" stroke="#63b8ff" d="M294.76,-497.06C289.52,-469.27 283.21,-435.78 277.42,-405.09"/>
<polygon fill="none" stroke="#63b8ff" points="277.46,-405.27 272.41,-400.11 275.23,-393.47 280.28,-398.63 277.46,-405.27"/>
</a>
</g>
<text text-anchor="middle" x="304.87" y="-413.5" font-family="Helvetica,sans-Serif" font-size="10.00" fill="grey"> +inventory</text>
</g>
</g>
</svg>
