<?xml version="1.0" encoding="UTF-8" standalone="no"?>
<!DOCTYPE svg PUBLIC "-//W3C//DTD SVG 1.1//EN"
 "http://www.w3.org/Graphics/SVG/1.1/DTD/svg11.dtd">
<!-- Generated by graphviz version 12.2.1 (20241206.2353)
 -->
<!-- Title: Shop Pages: 1 -->
<svg width="177pt" height="120pt"
 viewBox="0.00 0.00 176.75 120.00" xmlns="http://www.w3.org/2000/svg" xmlns:xlink="http://www.w3.org/1999/xlink">
<g id="graph0" class="graph" transform="scale(1 1) rotate(0) translate(4 116)">
<title>Shop</title>
<!-- Node1 -->
<g id="Node000001" class="node">
<title>Node1</title>
<g id="a_Node000001"><a xlink:title=" ">
<polygon fill="#999999" stroke="none" points="168.75,-112 0,-112 0,0 168.75,0 168.75,-112"/>
<text text-anchor="start" x="73.12" y="-98.5" font-family="Helvetica,sans-Serif" font-size="10.00">Shop</text>
<text text-anchor="start" x="4" y="-82.5" font-family="Helvetica,sans-Serif" font-size="10.00">+</text>
<text text-anchor="start" x="14" y="-82.5" font-family="Helvetica,sans-Serif" font-size="10.00">vector&lt; ShopItem &gt; items</text>
<text text-anchor="start" x="4" y="-66.5" font-family="Helvetica,sans-Serif" font-size="10.00">+</text>
<text text-anchor="start" x="14" y="-66.5" font-family="Helvetica,sans-Serif" font-size="10.00">void addItem(IItem *item, int price)</text>
<text text-anchor="start" x="4" y="-50.5" font-family="Helvetica,sans-Serif" font-size="10.00">+</text>
<text text-anchor="start" x="14" y="-50.5" font-family="Helvetica,sans-Serif" font-size="10.00">void removeItem(int idx)</text>
<text text-anchor="start" x="4" y="-34.5" font-family="Helvetica,sans-Serif" font-size="10.00">+</text>
<text text-anchor="start" x="14" y="-34.5" font-family="Helvetica,sans-Serif" font-size="10.00">void listItems(Player &amp;player)</text>
<text text-anchor="start" x="4" y="-18.5" font-family="Helvetica,sans-Serif" font-size="10.00">+</text>
<text text-anchor="start" x="14" y="-18.5" font-family="Helvetica,sans-Serif" font-size="10.00">bool buyItem(Player &amp;player,</text>
<text text-anchor="start" x="14" y="-6.5" font-family="Helvetica,sans-Serif" font-size="10.00"> int idx)</text>
<polygon fill="#666666" stroke="#666666" points="0,-94 0,-94 168.75,-94 168.75,-94 0,-94"/>
<polygon fill="#666666" stroke="#666666" points="0,-78 0,-78 12,-78 12,-78 0,-78"/>
<polygon fill="#666666" stroke="#666666" points="12,-78 12,-78 168.75,-78 168.75,-78 12,-78"/>
<polygon fill="none" stroke="#666666" points="0,0 0,-112 168.75,-112 168.75,0 0,0"/>
</a>
</g>
</g>
</g>
</svg>
