<?xml version="1.0" encoding="UTF-8" standalone="no"?>
<!DOCTYPE svg PUBLIC "-//W3C//DTD SVG 1.1//EN"
 "http://www.w3.org/Graphics/SVG/1.1/DTD/svg11.dtd">
<!-- Generated by graphviz version 12.2.1 (20241206.2353)
 -->
<!-- Title: Battle Pages: 1 -->
<svg width="206pt" height="408pt"
 viewBox="0.00 0.00 206.00 408.00" xmlns="http://www.w3.org/2000/svg" xmlns:xlink="http://www.w3.org/1999/xlink">
<g id="graph0" class="graph" transform="scale(1 1) rotate(0) translate(4 404)">
<title>Battle</title>
<!-- Node1 -->
<g id="Node000001" class="node">
<title>Node1</title>
<g id="a_Node000001"><a xlink:title="The battle screen. The user can attack, use an item, or run away.">
<polygon fill="#999999" stroke="none" points="198,-192 0,-192 0,0 198,0 198,-192"/>
<text text-anchor="start" x="86.25" y="-178.5" font-family="Helvetica,sans-Serif" font-size="10.00">Battle</text>
<text text-anchor="start" x="4" y="-162.5" font-family="Helvetica,sans-Serif" font-size="10.00">+</text>
<text text-anchor="start" x="14" y="-162.5" font-family="Helvetica,sans-Serif" font-size="10.00">Entity enemy</text>
<text text-anchor="start" x="4" y="-146.5" font-family="Helvetica,sans-Serif" font-size="10.00">+</text>
<text text-anchor="start" x="14" y="-146.5" font-family="Helvetica,sans-Serif" font-size="10.00">bool didIntro</text>
<text text-anchor="start" x="4" y="-130.5" font-family="Helvetica,sans-Serif" font-size="10.00">+</text>
<text text-anchor="start" x="14" y="-130.5" font-family="Helvetica,sans-Serif" font-size="10.00">int rewardMoney</text>
<text text-anchor="start" x="4" y="-114.5" font-family="Helvetica,sans-Serif" font-size="10.00">+</text>
<text text-anchor="start" x="14" y="-114.5" font-family="Helvetica,sans-Serif" font-size="10.00">function&lt; UserInterface *(Player)&gt; onWin</text>
<text text-anchor="start" x="4" y="-98.5" font-family="Helvetica,sans-Serif" font-size="10.00">+</text>
<text text-anchor="start" x="14" y="-98.5" font-family="Helvetica,sans-Serif" font-size="10.00">function&lt; UserInterface *(Player)</text>
<text text-anchor="start" x="14" y="-86.5" font-family="Helvetica,sans-Serif" font-size="10.00">&gt; onLose</text>
<text text-anchor="start" x="4" y="-70.5" font-family="Helvetica,sans-Serif" font-size="10.00">+</text>
<text text-anchor="start" x="14" y="-70.5" font-family="Helvetica,sans-Serif" font-size="10.00">Battle(Player player, Entity</text>
<text text-anchor="start" x="14" y="-58.5" font-family="Helvetica,sans-Serif" font-size="10.00"> enemy, int reward, function</text>
<text text-anchor="start" x="14" y="-46.5" font-family="Helvetica,sans-Serif" font-size="10.00">&lt; UserInterface *(Player)&gt; winCallback,</text>
<text text-anchor="start" x="14" y="-34.5" font-family="Helvetica,sans-Serif" font-size="10.00"> function&lt; UserInterface *(Player)&gt;</text>
<text text-anchor="start" x="14" y="-22.5" font-family="Helvetica,sans-Serif" font-size="10.00"> loseCallback)</text>
<text text-anchor="start" x="4" y="-6.5" font-family="Helvetica,sans-Serif" font-size="10.00">+</text>
<text text-anchor="start" x="14" y="-6.5" font-family="Helvetica,sans-Serif" font-size="10.00">UserInterface * render() override</text>
<polygon fill="#666666" stroke="#666666" points="0,-174 0,-174 198,-174 198,-174 0,-174"/>
<polygon fill="#666666" stroke="#666666" points="0,-82 0,-82 12,-82 12,-82 0,-82"/>
<polygon fill="#666666" stroke="#666666" points="12,-82 12,-82 198,-82 198,-82 12,-82"/>
<polygon fill="none" stroke="#666666" points="0,0 0,-192 198,-192 198,0 0,0"/>
</a>
</g>
</g>
<!-- Node2 -->
<g id="Node000002" class="node">
<title>Node2</title>
<g id="a_Node000002"><a xlink:href="class_u_i_with_player.html" target="_top" xlink:title="Basically just the base class for all user interfaces that have a player.">
<polygon fill="white" stroke="none" points="168.75,-296 29.25,-296 29.25,-228 168.75,-228 168.75,-296"/>
<text text-anchor="start" x="69.75" y="-282.5" font-family="Helvetica,sans-Serif" font-size="10.00">UIWithPlayer</text>
<text text-anchor="start" x="33.25" y="-266.5" font-family="Helvetica,sans-Serif" font-size="10.00">+</text>
<text text-anchor="start" x="43.25" y="-266.5" font-family="Helvetica,sans-Serif" font-size="10.00">Player player</text>
<text text-anchor="start" x="33.25" y="-250.5" font-family="Helvetica,sans-Serif" font-size="10.00">+</text>
<text text-anchor="start" x="43.25" y="-250.5" font-family="Helvetica,sans-Serif" font-size="10.00">UIWithPlayer()</text>
<text text-anchor="start" x="33.25" y="-234.5" font-family="Helvetica,sans-Serif" font-size="10.00">+</text>
<text text-anchor="start" x="43.25" y="-234.5" font-family="Helvetica,sans-Serif" font-size="10.00">UIWithPlayer(Player player)</text>
<polygon fill="#666666" stroke="#666666" points="29.25,-278 29.25,-278 168.75,-278 168.75,-278 29.25,-278"/>
<polygon fill="#666666" stroke="#666666" points="29.25,-262 29.25,-262 41.25,-262 41.25,-262 29.25,-262"/>
<polygon fill="#666666" stroke="#666666" points="41.25,-262 41.25,-262 168.75,-262 168.75,-262 41.25,-262"/>
<polygon fill="none" stroke="#666666" points="29.25,-228 29.25,-296 168.75,-296 168.75,-228 29.25,-228"/>
</a>
</g>
</g>
<!-- Node2&#45;&gt;Node1 -->
<g id="edge1_Node000001_Node000002" class="edge">
<title>Node2&#45;&gt;Node1</title>
<g id="a_edge1_Node000001_Node000002"><a xlink:title=" ">
<path fill="none" stroke="#63b8ff" d="M99,-216.82C99,-208.98 99,-200.55 99,-191.93"/>
<polygon fill="none" stroke="#63b8ff" points="95.5,-216.69 99,-226.69 102.5,-216.69 95.5,-216.69"/>
</a>
</g>
</g>
<!-- Node3 -->
<g id="Node000003" class="node">
<title>Node3</title>
<g id="a_Node000003"><a xlink:href="class_user_interface.html" target="_top" xlink:title="Base class for all user interfaces in the game.">
<polygon fill="white" stroke="none" points="179.25,-400 18.75,-400 18.75,-332 179.25,-332 179.25,-400"/>
<text text-anchor="start" x="69.38" y="-386.5" font-family="Helvetica,sans-Serif" font-size="10.00">UserInterface</text>
<text text-anchor="start" x="22.75" y="-370.5" font-family="Helvetica,sans-Serif" font-size="10.00">+</text>
<text text-anchor="start" x="32.75" y="-370.5" font-family="Helvetica,sans-Serif" font-size="10.00">bool quitGame</text>
<text text-anchor="start" x="22.75" y="-354.5" font-family="Helvetica,sans-Serif" font-size="10.00">+</text>
<text text-anchor="start" x="32.75" y="-354.5" font-family="Helvetica,sans-Serif" font-size="10.00">virtual UserInterface * render()=0</text>
<text text-anchor="start" x="22.75" y="-338.5" font-family="Helvetica,sans-Serif" font-size="10.00">+</text>
<text text-anchor="start" x="32.75" y="-338.5" font-family="Helvetica,sans-Serif" font-size="10.00">virtual ~UserInterface()</text>
<polygon fill="#666666" stroke="#666666" points="18.75,-382 18.75,-382 179.25,-382 179.25,-382 18.75,-382"/>
<polygon fill="#666666" stroke="#666666" points="18.75,-366 18.75,-366 30.75,-366 30.75,-366 18.75,-366"/>
<polygon fill="#666666" stroke="#666666" points="30.75,-366 30.75,-366 179.25,-366 179.25,-366 30.75,-366"/>
<polygon fill="none" stroke="#666666" points="18.75,-332 18.75,-400 179.25,-400 179.25,-332 18.75,-332"/>
</a>
</g>
</g>
<!-- Node3&#45;&gt;Node2 -->
<g id="edge2_Node000002_Node000003" class="edge">
<title>Node3&#45;&gt;Node2</title>
<g id="a_edge2_Node000002_Node000003"><a xlink:title=" ">
<path fill="none" stroke="#63b8ff" d="M99,-320.91C99,-312.47 99,-303.78 99,-295.77"/>
<polygon fill="none" stroke="#63b8ff" points="95.5,-320.65 99,-330.65 102.5,-320.65 95.5,-320.65"/>
</a>
</g>
</g>
</g>
</svg>
