<?xml version="1.0" encoding="UTF-8" standalone="no"?>
<!DOCTYPE svg PUBLIC "-//W3C//DTD SVG 1.1//EN"
 "http://www.w3.org/Graphics/SVG/1.1/DTD/svg11.dtd">
<!-- Generated by graphviz version 12.2.1 (20241206.2353)
 -->
<!-- Title: Inventory::useItem Pages: 1 -->
<svg width="233pt" height="104pt"
 viewBox="0.00 0.00 232.75 104.00" xmlns="http://www.w3.org/2000/svg" xmlns:xlink="http://www.w3.org/1999/xlink">
<g id="graph0" class="graph" transform="scale(1 1) rotate(0) translate(4 100)">
<title>Inventory::useItem</title>
<!-- Node1 -->
<g id="Node000001" class="node">
<title>Node1</title>
<g id="a_Node000001"><a xlink:title="Use an item.">
<polygon fill="#999999" stroke="#666666" points="97.75,-58 0,-58 0,-38 97.75,-38 97.75,-58"/>
<text text-anchor="middle" x="48.88" y="-44.5" font-family="Helvetica,sans-Serif" font-size="10.00">Inventory::useItem</text>
</a>
</g>
</g>
<!-- Node2 -->
<g id="Node000002" class="node">
<title>Node2</title>
<g id="a_Node000002"><a xlink:href="class_i_item.html#aebf70cebb705732de76a0cfa1081055a" target="_top" xlink:title=" ">
<polygon fill="white" stroke="#666666" points="224.38,-96 134.12,-96 134.12,-76 224.38,-76 224.38,-96"/>
<text text-anchor="middle" x="179.25" y="-82.5" font-family="Helvetica,sans-Serif" font-size="10.00">IItem::decrement</text>
</a>
</g>
</g>
<!-- Node1&#45;&gt;Node2 -->
<g id="edge1_Node000001_Node000002" class="edge">
<title>Node1&#45;&gt;Node2</title>
<g id="a_edge1_Node000001_Node000002"><a xlink:title=" ">
<path fill="none" stroke="#63b8ff" d="M85.29,-58.48C99.75,-62.76 116.65,-67.77 132.05,-72.33"/>
<polygon fill="#63b8ff" stroke="#63b8ff" points="130.91,-75.64 141.5,-75.12 132.9,-68.93 130.91,-75.64"/>
</a>
</g>
</g>
<!-- Node3 -->
<g id="Node000003" class="node">
<title>Node3</title>
<g id="a_Node000003"><a xlink:href="class_i_item.html#ad10d9c87e8731804f994b9ca49a188df" target="_top" xlink:title=" ">
<polygon fill="white" stroke="#666666" points="224.75,-58 133.75,-58 133.75,-38 224.75,-38 224.75,-58"/>
<text text-anchor="middle" x="179.25" y="-44.5" font-family="Helvetica,sans-Serif" font-size="10.00">IItem::isDepleted</text>
</a>
</g>
</g>
<!-- Node1&#45;&gt;Node3 -->
<g id="edge2_Node000001_Node000003" class="edge">
<title>Node1&#45;&gt;Node3</title>
<g id="a_edge2_Node000001_Node000003"><a xlink:title=" ">
<path fill="none" stroke="#63b8ff" d="M98.04,-48C105.97,-48 114.25,-48 122.35,-48"/>
<polygon fill="#63b8ff" stroke="#63b8ff" points="122.12,-51.5 132.12,-48 122.12,-44.5 122.12,-51.5"/>
</a>
</g>
</g>
<!-- Node4 -->
<g id="Node000004" class="node">
<title>Node4</title>
<g id="a_Node000004"><a xlink:href="class_i_item.html#a3a36b5da24de2beb083bd954d72e1252" target="_top" xlink:title=" ">
<polygon fill="white" stroke="#666666" points="219.88,-20 138.62,-20 138.62,0 219.88,0 219.88,-20"/>
<text text-anchor="middle" x="179.25" y="-6.5" font-family="Helvetica,sans-Serif" font-size="10.00">IItem::isInfinite</text>
</a>
</g>
</g>
<!-- Node1&#45;&gt;Node4 -->
<g id="edge3_Node000001_Node000004" class="edge">
<title>Node1&#45;&gt;Node4</title>
<g id="a_edge3_Node000001_Node000004"><a xlink:title=" ">
<path fill="none" stroke="#63b8ff" d="M85.29,-37.52C99.75,-33.24 116.65,-28.23 132.05,-23.67"/>
<polygon fill="#63b8ff" stroke="#63b8ff" points="132.9,-27.07 141.5,-20.88 130.91,-20.36 132.9,-27.07"/>
</a>
</g>
</g>
</g>
</svg>
