<?xml version="1.0" encoding="UTF-8" standalone="no"?>
<!DOCTYPE svg PUBLIC "-//W3C//DTD SVG 1.1//EN"
 "http://www.w3.org/Graphics/SVG/1.1/DTD/svg11.dtd">
<!-- Generated by graphviz version 12.2.1 (20241206.2353)
 -->
<!-- Title: Weapon Pages: 1 -->
<svg width="234pt" height="480pt"
 viewBox="0.00 0.00 234.25 480.00" xmlns="http://www.w3.org/2000/svg" xmlns:xlink="http://www.w3.org/1999/xlink">
<g id="graph0" class="graph" transform="scale(1 1) rotate(0) translate(4 476)">
<title>Weapon</title>
<!-- Node1 -->
<g id="Node000001" class="node">
<title>Node1</title>
<g id="a_Node000001"><a xlink:title="Weapons set the type to &quot;Weapon&quot; and implement the use function cuz all weapons attack lmao.">
<polygon fill="#999999" stroke="none" points="189.62,-180 36.62,-180 36.62,-88 189.62,-88 189.62,-180"/>
<text text-anchor="start" x="95.5" y="-166.5" font-family="Helvetica,sans-Serif" font-size="10.00">Weapon</text>
<text text-anchor="start" x="40.62" y="-150.5" font-family="Helvetica,sans-Serif" font-size="10.00">+</text>
<text text-anchor="start" x="50.62" y="-150.5" font-family="Helvetica,sans-Serif" font-size="10.00">int dmg</text>
<text text-anchor="start" x="40.62" y="-134.5" font-family="Helvetica,sans-Serif" font-size="10.00">+</text>
<text text-anchor="start" x="50.62" y="-134.5" font-family="Helvetica,sans-Serif" font-size="10.00">Weapon(string name, string</text>
<text text-anchor="start" x="50.62" y="-122.5" font-family="Helvetica,sans-Serif" font-size="10.00"> desc, int count, int dmg)</text>
<text text-anchor="start" x="40.62" y="-106.5" font-family="Helvetica,sans-Serif" font-size="10.00">+</text>
<text text-anchor="start" x="50.62" y="-106.5" font-family="Helvetica,sans-Serif" font-size="10.00">bool use(Player &amp;player, Entity</text>
<text text-anchor="start" x="50.62" y="-94.5" font-family="Helvetica,sans-Serif" font-size="10.00"> &amp;enemy) override</text>
<polygon fill="#666666" stroke="#666666" points="36.62,-162 36.62,-162 189.62,-162 189.62,-162 36.62,-162"/>
<polygon fill="#666666" stroke="#666666" points="36.62,-146 36.62,-146 48.62,-146 48.62,-146 36.62,-146"/>
<polygon fill="#666666" stroke="#666666" points="48.62,-146 48.62,-146 189.62,-146 189.62,-146 48.62,-146"/>
<polygon fill="none" stroke="#666666" points="36.62,-88 36.62,-180 189.62,-180 189.62,-88 36.62,-88"/>
</a>
</g>
</g>
<!-- Node4 -->
<g id="Node000004" class="node">
<title>Node4</title>
<g id="a_Node000004"><a xlink:href="class_cool_stick.html" target="_top" xlink:title="The Cool Stick is the first weapon the player gets.">
<polygon fill="white" stroke="none" points="104.25,-52 0,-52 0,0 104.25,0 104.25,-52"/>
<text text-anchor="start" x="30.75" y="-38.5" font-family="Helvetica,sans-Serif" font-size="10.00">CoolStick</text>
<text text-anchor="start" x="4" y="-22.5" font-family="Helvetica,sans-Serif" font-size="10.00">+</text>
<text text-anchor="start" x="14" y="-22.5" font-family="Helvetica,sans-Serif" font-size="10.00">static const int dmg</text>
<text text-anchor="start" x="4" y="-6.5" font-family="Helvetica,sans-Serif" font-size="10.00">+</text>
<text text-anchor="start" x="14" y="-6.5" font-family="Helvetica,sans-Serif" font-size="10.00">CoolStick()</text>
<polygon fill="#666666" stroke="#666666" points="0,-34 0,-34 104.25,-34 104.25,-34 0,-34"/>
<polygon fill="#666666" stroke="#666666" points="0,-18 0,-18 12,-18 12,-18 0,-18"/>
<polygon fill="#666666" stroke="#666666" points="12,-18 12,-18 104.25,-18 104.25,-18 12,-18"/>
<polygon fill="none" stroke="#666666" points="0,0 0,-52 104.25,-52 104.25,0 0,0"/>
</a>
</g>
</g>
<!-- Node1&#45;&gt;Node4 -->
<g id="edge3_Node000001_Node000004" class="edge">
<title>Node1&#45;&gt;Node4</title>
<g id="a_edge3_Node000001_Node000004"><a xlink:title=" ">
<path fill="none" stroke="#63b8ff" d="M81.52,-78.08C76.22,-68.87 70.97,-59.74 66.4,-51.81"/>
<polygon fill="none" stroke="#63b8ff" points="78.48,-79.81 86.5,-86.73 84.55,-76.32 78.48,-79.81"/>
</a>
</g>
</g>
<!-- Node5 -->
<g id="Node000005" class="node">
<title>Node5</title>
<g id="a_Node000005"><a xlink:href="class_yamato.html" target="_top" xlink:title="The OP weapon of the game, the Yamato!!!">
<polygon fill="white" stroke="none" points="226.25,-52 122,-52 122,0 226.25,0 226.25,-52"/>
<text text-anchor="start" x="157.62" y="-38.5" font-family="Helvetica,sans-Serif" font-size="10.00">Yamato</text>
<text text-anchor="start" x="126" y="-22.5" font-family="Helvetica,sans-Serif" font-size="10.00">+</text>
<text text-anchor="start" x="136" y="-22.5" font-family="Helvetica,sans-Serif" font-size="10.00">static const int dmg</text>
<text text-anchor="start" x="126" y="-6.5" font-family="Helvetica,sans-Serif" font-size="10.00">+</text>
<text text-anchor="start" x="136" y="-6.5" font-family="Helvetica,sans-Serif" font-size="10.00">Yamato()</text>
<polygon fill="#666666" stroke="#666666" points="122,-34 122,-34 226.25,-34 226.25,-34 122,-34"/>
<polygon fill="#666666" stroke="#666666" points="122,-18 122,-18 134,-18 134,-18 122,-18"/>
<polygon fill="#666666" stroke="#666666" points="134,-18 134,-18 226.25,-18 226.25,-18 134,-18"/>
<polygon fill="none" stroke="#666666" points="122,0 122,-52 226.25,-52 226.25,0 122,0"/>
</a>
</g>
</g>
<!-- Node1&#45;&gt;Node5 -->
<g id="edge4_Node000001_Node000005" class="edge">
<title>Node1&#45;&gt;Node5</title>
<g id="a_edge4_Node000001_Node000005"><a xlink:title=" ">
<path fill="none" stroke="#63b8ff" d="M144.73,-78.08C150.03,-68.87 155.28,-59.74 159.85,-51.81"/>
<polygon fill="none" stroke="#63b8ff" points="141.7,-76.32 139.75,-86.73 147.77,-79.81 141.7,-76.32"/>
</a>
</g>
</g>
<!-- Node2 -->
<g id="Node000002" class="node">
<title>Node2</title>
<g id="a_Node000002"><a xlink:href="class_i_enemy_item.html" target="_top" xlink:title="Enemy items. The use function takes in a player and an enemy.">
<polygon fill="white" stroke="none" points="190,-308 36.25,-308 36.25,-216 190,-216 190,-308"/>
<text text-anchor="start" x="86.5" y="-294.5" font-family="Helvetica,sans-Serif" font-size="10.00">IEnemyItem</text>
<text text-anchor="start" x="111.62" y="-278.5" font-family="Helvetica,sans-Serif" font-size="10.00"> </text>
<text text-anchor="start" x="40.25" y="-262.5" font-family="Helvetica,sans-Serif" font-size="10.00">+</text>
<text text-anchor="start" x="50.25" y="-262.5" font-family="Helvetica,sans-Serif" font-size="10.00">IEnemyItem(string n, string</text>
<text text-anchor="start" x="50.25" y="-250.5" font-family="Helvetica,sans-Serif" font-size="10.00"> t, string d, int c)</text>
<text text-anchor="start" x="40.25" y="-234.5" font-family="Helvetica,sans-Serif" font-size="10.00">+</text>
<text text-anchor="start" x="50.25" y="-234.5" font-family="Helvetica,sans-Serif" font-size="10.00">virtual bool use(Player &amp;player,</text>
<text text-anchor="start" x="50.25" y="-222.5" font-family="Helvetica,sans-Serif" font-size="10.00"> Entity &amp;enemy)=0</text>
<polygon fill="#666666" stroke="#666666" points="36.25,-290 36.25,-290 190,-290 190,-290 36.25,-290"/>
<polygon fill="#666666" stroke="#666666" points="36.25,-274 36.25,-274 190,-274 190,-274 36.25,-274"/>
<polygon fill="none" stroke="#666666" points="36.25,-216 36.25,-308 190,-308 190,-216 36.25,-216"/>
</a>
</g>
</g>
<!-- Node2&#45;&gt;Node1 -->
<g id="edge1_Node000001_Node000002" class="edge">
<title>Node2&#45;&gt;Node1</title>
<g id="a_edge1_Node000001_Node000002"><a xlink:title=" ">
<path fill="none" stroke="#63b8ff" d="M113.12,-204.86C113.12,-196.41 113.12,-187.8 113.12,-179.63"/>
<polygon fill="none" stroke="#63b8ff" points="109.63,-204.71 113.13,-214.71 116.63,-204.71 109.63,-204.71"/>
</a>
</g>
</g>
<!-- Node3 -->
<g id="Node000003" class="node">
<title>Node3</title>
<g id="a_Node000003"><a xlink:href="class_i_item.html" target="_top" xlink:title="Base class for all items in the game.">
<polygon fill="white" stroke="none" points="170.5,-472 55.75,-472 55.75,-344 170.5,-344 170.5,-472"/>
<text text-anchor="start" x="101.88" y="-458.5" font-family="Helvetica,sans-Serif" font-size="10.00">IItem</text>
<text text-anchor="start" x="59.75" y="-442.5" font-family="Helvetica,sans-Serif" font-size="10.00">+</text>
<text text-anchor="start" x="69.75" y="-442.5" font-family="Helvetica,sans-Serif" font-size="10.00">string name</text>
<text text-anchor="start" x="59.75" y="-426.5" font-family="Helvetica,sans-Serif" font-size="10.00">+</text>
<text text-anchor="start" x="69.75" y="-426.5" font-family="Helvetica,sans-Serif" font-size="10.00">string type</text>
<text text-anchor="start" x="59.75" y="-410.5" font-family="Helvetica,sans-Serif" font-size="10.00">+</text>
<text text-anchor="start" x="69.75" y="-410.5" font-family="Helvetica,sans-Serif" font-size="10.00">string desc</text>
<text text-anchor="start" x="59.75" y="-394.5" font-family="Helvetica,sans-Serif" font-size="10.00">+</text>
<text text-anchor="start" x="69.75" y="-394.5" font-family="Helvetica,sans-Serif" font-size="10.00">int count</text>
<text text-anchor="start" x="59.75" y="-378.5" font-family="Helvetica,sans-Serif" font-size="10.00">+</text>
<text text-anchor="start" x="69.75" y="-378.5" font-family="Helvetica,sans-Serif" font-size="10.00">IItem(string n, string t,</text>
<text text-anchor="start" x="69.75" y="-366.5" font-family="Helvetica,sans-Serif" font-size="10.00"> string d, int c)</text>
<text text-anchor="start" x="59.75" y="-350.5" font-family="Helvetica,sans-Serif" font-size="10.00">+</text>
<text text-anchor="start" x="69.75" y="-350.5" font-family="Helvetica,sans-Serif" font-size="10.00">virtual ~IItem()</text>
<polygon fill="#666666" stroke="#666666" points="55.75,-454 55.75,-454 170.5,-454 170.5,-454 55.75,-454"/>
<polygon fill="#666666" stroke="#666666" points="55.75,-390 55.75,-390 67.75,-390 67.75,-390 55.75,-390"/>
<polygon fill="#666666" stroke="#666666" points="67.75,-390 67.75,-390 170.5,-390 170.5,-390 67.75,-390"/>
<polygon fill="none" stroke="#666666" points="55.75,-344 55.75,-472 170.5,-472 170.5,-344 55.75,-344"/>
</a>
</g>
</g>
<!-- Node3&#45;&gt;Node2 -->
<g id="edge2_Node000002_Node000003" class="edge">
<title>Node3&#45;&gt;Node2</title>
<g id="a_edge2_Node000002_Node000003"><a xlink:title=" ">
<path fill="none" stroke="#63b8ff" d="M113.12,-332.97C113.12,-324.38 113.12,-315.82 113.12,-307.79"/>
<polygon fill="none" stroke="#63b8ff" points="109.63,-332.74 113.13,-342.74 116.63,-332.74 109.63,-332.74"/>
</a>
</g>
</g>
</g>
</svg>
