<?xml version="1.0" encoding="UTF-8" standalone="no"?>
<!DOCTYPE svg PUBLIC "-//W3C//DTD SVG 1.1//EN"
 "http://www.w3.org/Graphics/SVG/1.1/DTD/svg11.dtd">
<!-- Generated by graphviz version 12.2.1 (20241206.2353)
 -->
<!-- Title: IItem::IItem Pages: 1 -->
<!--zoomable 142 -->

<svg id="main" version="1.1" xmlns="http://www.w3.org/2000/svg" xmlns:xlink="http://www.w3.org/1999/xlink" xml:space="preserve" onload="init(evt)">

<style type="text/css"><![CDATA[
.node, .edge {opacity: 0.7;}
.node.selected, .edge.selected {opacity: 1;}
.edge:hover path { stroke: red; }
.edge:hover polygon { stroke: red; fill: red; }
]]></style>

<defs>
  <circle id="rim" cx="0" cy="0" r="7"/>
  <circle id="rim2" cx="0" cy="0" r="3.5"/>
  <g id="zoomPlus">
    <use xlink:href="#rim" fill="#404040"><set attributeName="fill" to="#808080" begin="zoomplus.mouseover" end="zoomplus.mouseout"/></use>
    <path d="M-4,0h8M0,-4v8" fill="none" stroke="white" stroke-width="1.5" pointer-events="none"/>
  </g>
  <g id="zoomMin">
    <use xlink:href="#rim" fill="#404040"><set attributeName="fill" to="#808080" begin="zoomminus.mouseover" end="zoomminus.mouseout"/></use>
    <path d="M-4,0h8" fill="none" stroke="white" stroke-width="1.5" pointer-events="none"/>
  </g>
  <g id="arrowUp" transform="translate(30 24)">
    <use xlink:href="#rim"/>
    <path pointer-events="none" fill="none" stroke="white" stroke-width="1.5" d="M0,-3.0v7 M-2.5,-0.5L0,-3.0L2.5,-0.5"/>
  </g>
  <g id="arrowRight" transform="rotate(90) translate(36 -43)">
    <use xlink:href="#rim"/>
    <path pointer-events="none" fill="none" stroke="white" stroke-width="1.5" d="M0,-3.0v7 M-2.5,-0.5L0,-3.0L2.5,-0.5"/>
  </g>
  <g id="arrowDown" transform="rotate(180) translate(-30 -48)">
    <use xlink:href="#rim"/>
    <path pointer-events="none" fill="none" stroke="white" stroke-width="1.5" d="M0,-3.0v7 M-2.5,-0.5L0,-3.0L2.5,-0.5"/>
  </g>
  <g id="arrowLeft" transform="rotate(270) translate(-36 17)">
    <use xlink:href="#rim"/>
    <path pointer-events="none" fill="none" stroke="white" stroke-width="1.5" d="M0,-3.0v7 M-2.5,-0.5L0,-3.0L2.5,-0.5"/>
  </g>
  <g id="resetDef">
    <use xlink:href="#rim2" fill="#404040"><set attributeName="fill" to="#808080" begin="reset.mouseover" end="reset.mouseout"/></use>
  </g>
</defs>
<script type="application/ecmascript">
var viewWidth = 555;
var viewHeight = 142;
var sectionId = 'dynsection-2';
</script>
<script type="application/ecmascript" xlink:href="svg.min.js"/>
<svg id="graph" class="graph">
<g id="viewport">
<title>IItem::IItem</title>
<!-- Node1 -->
<g id="Node000001" class="node">
<title>Node1</title>
<g id="a_Node000001"><a xlink:title=" ">
<polygon fill="#999999" stroke="#666666" points="547,-77 480,-77 480,-57 547,-57 547,-77"/>
<text text-anchor="middle" x="513.5" y="-63.5" font-family="Helvetica,sans-Serif" font-size="10.00">IItem::IItem</text>
</a>
</g>
</g>
<!-- Node2 -->
<g id="Node000002" class="node">
<title>Node2</title>
<g id="a_Node000002"><a xlink:href="class_i_enemy_item.html#ab04428e73487bd8279945087a6b307fa" target="_top" xlink:title=" ">
<polygon fill="white" stroke="#666666" points="444,-96 315.5,-96 315.5,-76 444,-76 444,-96"/>
<text text-anchor="middle" x="379.75" y="-82.5" font-family="Helvetica,sans-Serif" font-size="10.00">IEnemyItem::IEnemyItem</text>
</a>
</g>
</g>
<!-- Node1&#45;&gt;Node2 -->
<g id="edge1_Node000001_Node000002" class="edge">
<title>Node1&#45;&gt;Node2</title>
<g id="a_edge1_Node000001_Node000002"><a xlink:title=" ">
<path fill="none" stroke="#63b8ff" d="M468.29,-73.38C460.58,-74.49 452.42,-75.66 444.31,-76.83"/>
<polygon fill="#63b8ff" stroke="#63b8ff" points="468.7,-76.85 478.1,-71.96 467.7,-69.92 468.7,-76.85"/>
</a>
</g>
</g>
<!-- Node6 -->
<g id="Node000006" class="node">
<title>Node6</title>
<g id="a_Node000006"><a xlink:href="class_i_player_item.html#afc3002fdaacb41cd6862b2301cd279e3" target="_top" xlink:title=" ">
<polygon fill="white" stroke="#666666" points="441,-58 318.5,-58 318.5,-38 441,-38 441,-58"/>
<text text-anchor="middle" x="379.75" y="-44.5" font-family="Helvetica,sans-Serif" font-size="10.00">IPlayerItem::IPlayerItem</text>
</a>
</g>
</g>
<!-- Node1&#45;&gt;Node6 -->
<g id="edge5_Node000001_Node000006" class="edge">
<title>Node1&#45;&gt;Node6</title>
<g id="a_edge5_Node000001_Node000006"><a xlink:title=" ">
<path fill="none" stroke="#63b8ff" d="M468.26,-60.62C459.65,-59.38 450.48,-58.06 441.45,-56.75"/>
<polygon fill="#63b8ff" stroke="#63b8ff" points="467.7,-64.08 478.1,-62.04 468.7,-57.15 467.7,-64.08"/>
</a>
</g>
</g>
<!-- Node3 -->
<g id="Node000003" class="node">
<title>Node3</title>
<g id="a_Node000003"><a xlink:href="class_weapon.html#a8d9631f8c67df4646e9b06516eff0cd0" target="_top" xlink:title=" ">
<polygon fill="white" stroke="#666666" points="279.5,-96 187,-96 187,-76 279.5,-76 279.5,-96"/>
<text text-anchor="middle" x="233.25" y="-82.5" font-family="Helvetica,sans-Serif" font-size="10.00">Weapon::Weapon</text>
</a>
</g>
</g>
<!-- Node2&#45;&gt;Node3 -->
<g id="edge2_Node000002_Node000003" class="edge">
<title>Node2&#45;&gt;Node3</title>
<g id="a_edge2_Node000002_Node000003"><a xlink:title=" ">
<path fill="none" stroke="#63b8ff" d="M304.08,-86C295.79,-86 287.55,-86 279.78,-86"/>
<polygon fill="#63b8ff" stroke="#63b8ff" points="303.86,-89.5 313.86,-86 303.86,-82.5 303.86,-89.5"/>
</a>
</g>
</g>
<!-- Node4 -->
<g id="Node000004" class="node">
<title>Node4</title>
<g id="a_Node000004"><a xlink:href="class_cool_stick.html#acfbae3a51f5ba2cddce652078b501f9d" target="_top" xlink:title=" ">
<polygon fill="white" stroke="#666666" points="129.25,-134 21.75,-134 21.75,-114 129.25,-114 129.25,-134"/>
<text text-anchor="middle" x="75.5" y="-120.5" font-family="Helvetica,sans-Serif" font-size="10.00">CoolStick::CoolStick</text>
</a>
</g>
</g>
<!-- Node3&#45;&gt;Node4 -->
<g id="edge3_Node000003_Node000004" class="edge">
<title>Node3&#45;&gt;Node4</title>
<g id="a_edge3_Node000003_Node000004"><a xlink:title=" ">
<path fill="none" stroke="#63b8ff" d="M178.22,-99.18C158.95,-103.88 137.53,-109.11 119.33,-113.55"/>
<polygon fill="#63b8ff" stroke="#63b8ff" points="178.92,-102.61 187.81,-96.84 177.26,-95.81 178.92,-102.61"/>
</a>
</g>
</g>
<!-- Node5 -->
<g id="Node000005" class="node">
<title>Node5</title>
<g id="a_Node000005"><a xlink:href="class_yamato.html#af87539b26b8f9de81c54cb80ba556f9c" target="_top" xlink:title=" ">
<polygon fill="white" stroke="#666666" points="119.5,-96 31.5,-96 31.5,-76 119.5,-76 119.5,-96"/>
<text text-anchor="middle" x="75.5" y="-82.5" font-family="Helvetica,sans-Serif" font-size="10.00">Yamato::Yamato</text>
</a>
</g>
</g>
<!-- Node3&#45;&gt;Node5 -->
<g id="edge4_Node000003_Node000005" class="edge">
<title>Node3&#45;&gt;Node5</title>
<g id="a_edge4_Node000003_Node000005"><a xlink:title=" ">
<path fill="none" stroke="#63b8ff" d="M175.34,-86C157.03,-86 137.06,-86 119.88,-86"/>
<polygon fill="#63b8ff" stroke="#63b8ff" points="175.27,-89.5 185.27,-86 175.27,-82.5 175.27,-89.5"/>
</a>
</g>
</g>
<!-- Node7 -->
<g id="Node000007" class="node">
<title>Node7</title>
<g id="a_Node000007"><a xlink:href="class_i_potion.html#af960db386ba9efea5adcde6ec80fe943" target="_top" xlink:title=" ">
<polygon fill="white" stroke="#666666" points="275,-58 191.5,-58 191.5,-38 275,-38 275,-58"/>
<text text-anchor="middle" x="233.25" y="-44.5" font-family="Helvetica,sans-Serif" font-size="10.00">IPotion::IPotion</text>
</a>
</g>
</g>
<!-- Node6&#45;&gt;Node7 -->
<g id="edge6_Node000006_Node000007" class="edge">
<title>Node6&#45;&gt;Node7</title>
<g id="a_edge6_Node000006_Node000007"><a xlink:title=" ">
<path fill="none" stroke="#63b8ff" d="M306.97,-48C296.05,-48 285.11,-48 275.16,-48"/>
<polygon fill="#63b8ff" stroke="#63b8ff" points="306.79,-51.5 316.79,-48 306.79,-44.5 306.79,-51.5"/>
</a>
</g>
</g>
<!-- Node8 -->
<g id="Node000008" class="node">
<title>Node8</title>
<g id="a_Node000008"><a xlink:href="class_health_potion.html#a6ff8807a7aae10c5ce186c793b7f359c" target="_top" xlink:title=" ">
<polygon fill="white" stroke="#666666" points="142.75,-58 8.25,-58 8.25,-38 142.75,-38 142.75,-58"/>
<text text-anchor="middle" x="75.5" y="-44.5" font-family="Helvetica,sans-Serif" font-size="10.00">HealthPotion::HealthPotion</text>
</a>
</g>
</g>
<!-- Node7&#45;&gt;Node8 -->
<g id="edge7_Node000007_Node000008" class="edge">
<title>Node7&#45;&gt;Node8</title>
<g id="a_edge7_Node000007_Node000008"><a xlink:title=" ">
<path fill="none" stroke="#63b8ff" d="M179.86,-48C168.04,-48 155.35,-48 143.05,-48"/>
<polygon fill="#63b8ff" stroke="#63b8ff" points="179.82,-51.5 189.81,-48 179.81,-44.5 179.82,-51.5"/>
</a>
</g>
</g>
<!-- Node9 -->
<g id="Node000009" class="node">
<title>Node9</title>
<g id="a_Node000009"><a xlink:href="class_strength_potion.html#aa5d71087de02a8d775b0c07825e4ca2f" target="_top" xlink:title=" ">
<polygon fill="white" stroke="#666666" points="151,-20 0,-20 0,0 151,0 151,-20"/>
<text text-anchor="middle" x="75.5" y="-6.5" font-family="Helvetica,sans-Serif" font-size="10.00">StrengthPotion::StrengthPotion</text>
</a>
</g>
</g>
<!-- Node7&#45;&gt;Node9 -->
<g id="edge8_Node000007_Node000009" class="edge">
<title>Node7&#45;&gt;Node9</title>
<g id="a_edge8_Node000007_Node000009"><a xlink:title=" ">
<path fill="none" stroke="#63b8ff" d="M180.32,-35.33C160.51,-30.5 138.19,-25.05 119.32,-20.45"/>
<polygon fill="#63b8ff" stroke="#63b8ff" points="179.31,-38.69 189.86,-37.66 180.97,-31.89 179.31,-38.69"/>
</a>
</g>
</g>
</g>
</svg>

<g id="navigator" transform="translate(0 0)" fill="#404254">
  <rect fill="#f2f5e9" fill-opacity="0.5" stroke="#606060" stroke-width=".5" x="0" y="0" width="60" height="60"/>
  <use id="zoomplus" xlink:href="#zoomPlus" x="17" y="9" onmousedown="handleZoom(evt,'in')"/>
  <use id="zoomminus" xlink:href="#zoomMin" x="42" y="9" onmousedown="handleZoom(evt,'out')"/>
  <use id="reset" xlink:href="#resetDef" x="30" y="36" onmousedown="handleReset()"/>
   <use id="arrowup" xlink:href="#arrowUp" x="0" y="0" onmousedown="handlePan(0,-1)"/>
  <use id="arrowright" xlink:href="#arrowRight" x="0" y="0" onmousedown="handlePan(1,0)"/>
  <use id="arrowdown" xlink:href="#arrowDown" x="0" y="0" onmousedown="handlePan(0,1)"/>
  <use id="arrowleft" xlink:href="#arrowLeft" x="0" y="0" onmousedown="handlePan(-1,0)"/>
</g>
<svg viewBox="0 0 15 15" width="100%" height="30px" preserveAspectRatio="xMaxYMin meet">
 <g id="arrow_out" transform="scale(0.3 0.3)">
  <a xlink:href="class_i_item_ab1bb86846077713c5847ec035115f09c_icgraph_org.svg" target="_base">
   <rect id="button" ry="5" rx="5" y="6" x="6" height="38" width="38"
        fill="#f2f5e9" fill-opacity="0.5" stroke="#606060" stroke-width="1.0"/>
   <path id="arrow"
     d="M 11.500037,31.436501 C 11.940474,20.09759 22.043105,11.32322 32.158766,21.979434 L 37.068811,17.246167 C 37.068811,17.246167 37.088388,32 37.088388,32 L 22.160133,31.978069 C 22.160133,31.978069 26.997745,27.140456 26.997745,27.140456 C 18.528582,18.264221 13.291696,25.230495 11.500037,31.436501 z"
     style="fill:#404040;"/>
  </a>
 </g>
</svg>

<style type='text/css'>
<![CDATA[
[data-mouse-over-selected='false'] { opacity: 0.7; }
[data-mouse-over-selected='true']  { opacity: 1.0; }
]]>
</style>
<script type="application/ecmascript"><![CDATA[
document.addEventListener('DOMContentLoaded', (event) => {
  highlightEdges();
  highlightAdjacentNodes();
});
]]></script>
</svg>
