<?xml version="1.0" encoding="UTF-8" standalone="no"?>
<!DOCTYPE svg PUBLIC "-//W3C//DTD SVG 1.1//EN"
 "http://www.w3.org/Graphics/SVG/1.1/DTD/svg11.dtd">
<!-- Generated by graphviz version 12.2.1 (20241206.2353)
 -->
<!-- Title: MainMenu::render Pages: 1 -->
<svg width="425pt" height="104pt"
 viewBox="0.00 0.00 425.00 104.00" xmlns="http://www.w3.org/2000/svg" xmlns:xlink="http://www.w3.org/1999/xlink">
<g id="graph0" class="graph" transform="scale(1 1) rotate(0) translate(4 100)">
<title>MainMenu::render</title>
<!-- Node1 -->
<g id="Node000001" class="node">
<title>Node1</title>
<g id="a_Node000001"><a xlink:title=" ">
<polygon fill="#999999" stroke="#666666" points="94,-58 0,-58 0,-38 94,-38 94,-58"/>
<text text-anchor="middle" x="47" y="-44.5" font-family="Helvetica,sans-Serif" font-size="10.00">MainMenu::render</text>
</a>
</g>
</g>
<!-- Node2 -->
<g id="Node000002" class="node">
<title>Node2</title>
<g id="a_Node000002"><a xlink:href="extras_8cpp.html#a3816c0b1714f3be0c6c8a394a4faee7d" target="_top" xlink:title="Gets an integer from the user. Loops until a valid integer is entered.">
<polygon fill="white" stroke="#666666" points="215,-96 157,-96 157,-76 215,-76 215,-96"/>
<text text-anchor="middle" x="186" y="-82.5" font-family="Helvetica,sans-Serif" font-size="10.00">inputNum</text>
</a>
</g>
</g>
<!-- Node1&#45;&gt;Node2 -->
<g id="edge1_Node000001_Node000002" class="edge">
<title>Node1&#45;&gt;Node2</title>
<g id="a_edge1_Node000001_Node000002"><a xlink:title=" ">
<path fill="none" stroke="#63b8ff" d="M85.8,-58.48C104.51,-63.68 127.08,-69.94 145.96,-75.17"/>
<polygon fill="#63b8ff" stroke="#63b8ff" points="144.86,-78.5 155.43,-77.8 146.73,-71.75 144.86,-78.5"/>
</a>
</g>
</g>
<!-- Node3 -->
<g id="Node000003" class="node">
<title>Node3</title>
<g id="a_Node000003"><a xlink:href="class_main_menu.html#a40f98ff78c92e3f79b781b7ed18507a7" target="_top" xlink:title=" ">
<polygon fill="white" stroke="#666666" points="242,-58 130,-58 130,-38 242,-38 242,-58"/>
<text text-anchor="middle" x="186" y="-44.5" font-family="Helvetica,sans-Serif" font-size="10.00">MainMenu::MainMenu</text>
</a>
</g>
</g>
<!-- Node1&#45;&gt;Node3 -->
<g id="edge2_Node000001_Node000003" class="edge">
<title>Node1&#45;&gt;Node3</title>
<g id="a_edge2_Node000001_Node000003"><a xlink:title=" ">
<path fill="none" stroke="#63b8ff" d="M94.38,-48C102.09,-48 110.21,-48 118.29,-48"/>
<polygon fill="#63b8ff" stroke="#63b8ff" points="118.15,-51.5 128.15,-48 118.15,-44.5 118.15,-51.5"/>
</a>
</g>
</g>
<!-- Node5 -->
<g id="Node000005" class="node">
<title>Node5</title>
<g id="a_Node000005"><a xlink:href="extras_8cpp.html#aff1ce18cf1cd562e54189df70cee6299" target="_top" xlink:title="Outputs a text character by character with a given delay.">
<polygon fill="white" stroke="#666666" points="221.38,-20 150.62,-20 150.62,0 221.38,0 221.38,-20"/>
<text text-anchor="middle" x="186" y="-6.5" font-family="Helvetica,sans-Serif" font-size="10.00">printAnimate</text>
</a>
</g>
</g>
<!-- Node1&#45;&gt;Node5 -->
<g id="edge4_Node000001_Node000005" class="edge">
<title>Node1&#45;&gt;Node5</title>
<g id="a_edge4_Node000001_Node000005"><a xlink:title=" ">
<path fill="none" stroke="#63b8ff" d="M85.8,-37.52C102.3,-32.94 121.8,-27.53 139.13,-22.72"/>
<polygon fill="#63b8ff" stroke="#63b8ff" points="139.98,-26.12 148.68,-20.07 138.11,-19.37 139.98,-26.12"/>
</a>
</g>
</g>
<!-- Node4 -->
<g id="Node000004" class="node">
<title>Node4</title>
<g id="a_Node000004"><a xlink:href="class_u_i_with_player.html#a297e083951aeaf9e72d9746fab8eccd8" target="_top" xlink:title=" ">
<polygon fill="white" stroke="#666666" points="417,-58 278,-58 278,-38 417,-38 417,-58"/>
<text text-anchor="middle" x="347.5" y="-44.5" font-family="Helvetica,sans-Serif" font-size="10.00">UIWithPlayer::UIWithPlayer</text>
</a>
</g>
</g>
<!-- Node3&#45;&gt;Node4 -->
<g id="edge3_Node000003_Node000004" class="edge">
<title>Node3&#45;&gt;Node4</title>
<g id="a_edge3_Node000003_Node000004"><a xlink:title=" ">
<path fill="none" stroke="#63b8ff" d="M242.34,-48C250.1,-48 258.21,-48 266.33,-48"/>
<polygon fill="#63b8ff" stroke="#63b8ff" points="266.25,-51.5 276.25,-48 266.25,-44.5 266.25,-51.5"/>
</a>
</g>
</g>
<!-- Node6 -->
<g id="Node000006" class="node">
<title>Node6</title>
<g id="a_Node000006"><a xlink:href="extras_8cpp.html#aea0e34fe8a665ef6cb1fd6526ce1deb0" target="_top" xlink:title=" ">
<polygon fill="white" stroke="#666666" points="374.62,-20 320.38,-20 320.38,0 374.62,0 374.62,-20"/>
<text text-anchor="middle" x="347.5" y="-6.5" font-family="Helvetica,sans-Serif" font-size="10.00">sleepMS</text>
</a>
</g>
</g>
<!-- Node5&#45;&gt;Node6 -->
<g id="edge5_Node000005_Node000006" class="edge">
<title>Node5&#45;&gt;Node6</title>
<g id="a_edge5_Node000005_Node000006"><a xlink:title=" ">
<path fill="none" stroke="#63b8ff" d="M221.61,-10C247.27,-10 282.23,-10 308.64,-10"/>
<polygon fill="#63b8ff" stroke="#63b8ff" points="308.59,-13.5 318.59,-10 308.59,-6.5 308.59,-13.5"/>
</a>
</g>
</g>
</g>
</svg>
