<?xml version="1.0" encoding="UTF-8" standalone="no"?>
<!DOCTYPE svg PUBLIC "-//W3C//DTD SVG 1.1//EN"
 "http://www.w3.org/Graphics/SVG/1.1/DTD/svg11.dtd">
<!-- Generated by graphviz version 12.2.1 (20241206.2353)
 -->
<!-- Title: FirstChoice Pages: 1 -->
<!--zoomable 789 -->

<svg id="main" version="1.1" xmlns="http://www.w3.org/2000/svg" xmlns:xlink="http://www.w3.org/1999/xlink" xml:space="preserve" onload="init(evt)">

<style type="text/css"><![CDATA[
.node, .edge {opacity: 0.7;}
.node.selected, .edge.selected {opacity: 1;}
.edge:hover path { stroke: red; }
.edge:hover polygon { stroke: red; fill: red; }
]]></style>

<defs>
  <circle id="rim" cx="0" cy="0" r="7"/>
  <circle id="rim2" cx="0" cy="0" r="3.5"/>
  <g id="zoomPlus">
    <use xlink:href="#rim" fill="#404040"><set attributeName="fill" to="#808080" begin="zoomplus.mouseover" end="zoomplus.mouseout"/></use>
    <path d="M-4,0h8M0,-4v8" fill="none" stroke="white" stroke-width="1.5" pointer-events="none"/>
  </g>
  <g id="zoomMin">
    <use xlink:href="#rim" fill="#404040"><set attributeName="fill" to="#808080" begin="zoomminus.mouseover" end="zoomminus.mouseout"/></use>
    <path d="M-4,0h8" fill="none" stroke="white" stroke-width="1.5" pointer-events="none"/>
  </g>
  <g id="arrowUp" transform="translate(30 24)">
    <use xlink:href="#rim"/>
    <path pointer-events="none" fill="none" stroke="white" stroke-width="1.5" d="M0,-3.0v7 M-2.5,-0.5L0,-3.0L2.5,-0.5"/>
  </g>
  <g id="arrowRight" transform="rotate(90) translate(36 -43)">
    <use xlink:href="#rim"/>
    <path pointer-events="none" fill="none" stroke="white" stroke-width="1.5" d="M0,-3.0v7 M-2.5,-0.5L0,-3.0L2.5,-0.5"/>
  </g>
  <g id="arrowDown" transform="rotate(180) translate(-30 -48)">
    <use xlink:href="#rim"/>
    <path pointer-events="none" fill="none" stroke="white" stroke-width="1.5" d="M0,-3.0v7 M-2.5,-0.5L0,-3.0L2.5,-0.5"/>
  </g>
  <g id="arrowLeft" transform="rotate(270) translate(-36 17)">
    <use xlink:href="#rim"/>
    <path pointer-events="none" fill="none" stroke="white" stroke-width="1.5" d="M0,-3.0v7 M-2.5,-0.5L0,-3.0L2.5,-0.5"/>
  </g>
  <g id="resetDef">
    <use xlink:href="#rim2" fill="#404040"><set attributeName="fill" to="#808080" begin="reset.mouseover" end="reset.mouseout"/></use>
  </g>
</defs>
<script type="application/ecmascript">
var viewWidth = 384;
var viewHeight = 789;
var sectionId = 'dynsection-1';
</script>
<script type="application/ecmascript" xlink:href="svg.min.js"/>
<svg id="graph" class="graph">
<g id="viewport">
<title>FirstChoice</title>
<!-- Node1 -->
<g id="Node000001" class="node">
<title>Node1</title>
<g id="a_Node000001"><a xlink:title="The part after the player meets the mysterious stranger.">
<polygon fill="#999999" stroke="none" points="175,-68 17.5,-68 17.5,0 175,0 175,-68"/>
<text text-anchor="start" x="71.12" y="-54.5" font-family="Helvetica,sans-Serif" font-size="10.00">FirstChoice</text>
<text text-anchor="start" x="23" y="-38.5" font-family="Helvetica,sans-Serif" font-size="10.00">&#45;</text>
<text text-anchor="start" x="31.5" y="-38.5" font-family="Helvetica,sans-Serif" font-size="10.00">list&lt; string &gt; stayResps</text>
<text text-anchor="start" x="21.5" y="-22.5" font-family="Helvetica,sans-Serif" font-size="10.00">+</text>
<text text-anchor="start" x="31.5" y="-22.5" font-family="Helvetica,sans-Serif" font-size="10.00">FirstChoice(Player player)</text>
<text text-anchor="start" x="21.5" y="-6.5" font-family="Helvetica,sans-Serif" font-size="10.00">+</text>
<text text-anchor="start" x="31.5" y="-6.5" font-family="Helvetica,sans-Serif" font-size="10.00">UserInterface * render() override</text>
<polygon fill="#666666" stroke="#666666" points="17.5,-50 17.5,-50 175,-50 175,-50 17.5,-50"/>
<polygon fill="#666666" stroke="#666666" points="17.5,-34 17.5,-34 29.5,-34 29.5,-34 17.5,-34"/>
<polygon fill="#666666" stroke="#666666" points="29.5,-34 29.5,-34 175,-34 175,-34 29.5,-34"/>
<polygon fill="none" stroke="#666666" points="17.5,0 17.5,-68 175,-68 175,0 17.5,0"/>
</a>
</g>
</g>
<!-- Node2 -->
<g id="Node000002" class="node">
<title>Node2</title>
<g id="a_Node000002"><a xlink:href="class_u_i_with_player.html" target="_top" xlink:title="Basically just the base class for all user interfaces that have a player.">
<polygon fill="white" stroke="none" points="166,-173 26.5,-173 26.5,-105 166,-105 166,-173"/>
<text text-anchor="start" x="67" y="-159.5" font-family="Helvetica,sans-Serif" font-size="10.00">UIWithPlayer</text>
<text text-anchor="start" x="94.75" y="-143.5" font-family="Helvetica,sans-Serif" font-size="10.00"> </text>
<text text-anchor="start" x="30.5" y="-127.5" font-family="Helvetica,sans-Serif" font-size="10.00">+</text>
<text text-anchor="start" x="40.5" y="-127.5" font-family="Helvetica,sans-Serif" font-size="10.00">UIWithPlayer()</text>
<text text-anchor="start" x="30.5" y="-111.5" font-family="Helvetica,sans-Serif" font-size="10.00">+</text>
<text text-anchor="start" x="40.5" y="-111.5" font-family="Helvetica,sans-Serif" font-size="10.00">UIWithPlayer(Player player)</text>
<polygon fill="#666666" stroke="#666666" points="26.5,-155 26.5,-155 166,-155 166,-155 26.5,-155"/>
<polygon fill="#666666" stroke="#666666" points="26.5,-139 26.5,-139 166,-139 166,-139 26.5,-139"/>
<polygon fill="none" stroke="#666666" points="26.5,-105 26.5,-173 166,-173 166,-105 26.5,-105"/>
</a>
</g>
</g>
<!-- Node2&#45;&gt;Node1 -->
<g id="edge1_Node000001_Node000002" class="edge">
<title>Node2&#45;&gt;Node1</title>
<g id="a_edge1_Node000001_Node000002"><a xlink:title=" ">
<path fill="none" stroke="#63b8ff" d="M96.25,-93.62C96.25,-84.99 96.25,-76.09 96.25,-67.91"/>
<polygon fill="none" stroke="#63b8ff" points="92.75,-93.61 96.25,-103.61 99.75,-93.61 92.75,-93.61"/>
</a>
</g>
</g>
<!-- Node3 -->
<g id="Node000003" class="node">
<title>Node3</title>
<g id="a_Node000003"><a xlink:href="class_user_interface.html" target="_top" xlink:title="Base class for all user interfaces in the game.">
<polygon fill="white" stroke="none" points="160.5,-335 0,-335 0,-267 160.5,-267 160.5,-335"/>
<text text-anchor="start" x="50.62" y="-321.5" font-family="Helvetica,sans-Serif" font-size="10.00">UserInterface</text>
<text text-anchor="start" x="4" y="-305.5" font-family="Helvetica,sans-Serif" font-size="10.00">+</text>
<text text-anchor="start" x="14" y="-305.5" font-family="Helvetica,sans-Serif" font-size="10.00">bool quitGame</text>
<text text-anchor="start" x="4" y="-289.5" font-family="Helvetica,sans-Serif" font-size="10.00">+</text>
<text text-anchor="start" x="14" y="-289.5" font-family="Helvetica,sans-Serif" font-size="10.00">virtual UserInterface * render()=0</text>
<text text-anchor="start" x="4" y="-273.5" font-family="Helvetica,sans-Serif" font-size="10.00">+</text>
<text text-anchor="start" x="14" y="-273.5" font-family="Helvetica,sans-Serif" font-size="10.00">virtual ~UserInterface()</text>
<polygon fill="#666666" stroke="#666666" points="0,-317 0,-317 160.5,-317 160.5,-317 0,-317"/>
<polygon fill="#666666" stroke="#666666" points="0,-301 0,-301 12,-301 12,-301 0,-301"/>
<polygon fill="#666666" stroke="#666666" points="12,-301 12,-301 160.5,-301 160.5,-301 12,-301"/>
<polygon fill="none" stroke="#666666" points="0,-267 0,-335 160.5,-335 160.5,-267 0,-267"/>
</a>
</g>
</g>
<!-- Node3&#45;&gt;Node2 -->
<g id="edge2_Node000002_Node000003" class="edge">
<title>Node3&#45;&gt;Node2</title>
<g id="a_edge2_Node000002_Node000003"><a xlink:title=" ">
<path fill="none" stroke="#63b8ff" d="M84.64,-256.06C87.27,-229.82 90.55,-197.02 92.95,-173"/>
<polygon fill="none" stroke="#63b8ff" points="81.19,-255.43 83.68,-265.73 88.15,-256.13 81.19,-255.43"/>
</a>
</g>
</g>
<!-- Node4 -->
<g id="Node000004" class="node">
<title>Node4</title>
<g id="a_Node000004"><a xlink:href="class_player.html" target="_top" xlink:title="The Player class is an Entity that has an inventory and money.">
<polygon fill="white" stroke="none" points="341.62,-381 178.88,-381 178.88,-221 341.62,-221 341.62,-381"/>
<text text-anchor="start" x="246.38" y="-367.5" font-family="Helvetica,sans-Serif" font-size="10.00">Player</text>
<text text-anchor="start" x="184.38" y="-351.5" font-family="Helvetica,sans-Serif" font-size="10.00">&#45;</text>
<text text-anchor="start" x="192.88" y="-351.5" font-family="Helvetica,sans-Serif" font-size="10.00">int money</text>
<text text-anchor="start" x="182.88" y="-335.5" font-family="Helvetica,sans-Serif" font-size="10.00">+</text>
<text text-anchor="start" x="192.88" y="-335.5" font-family="Helvetica,sans-Serif" font-size="10.00">Player()</text>
<text text-anchor="start" x="182.88" y="-319.5" font-family="Helvetica,sans-Serif" font-size="10.00">+</text>
<text text-anchor="start" x="192.88" y="-319.5" font-family="Helvetica,sans-Serif" font-size="10.00">Player(int health, string</text>
<text text-anchor="start" x="192.88" y="-307.5" font-family="Helvetica,sans-Serif" font-size="10.00"> name, int atk, int def, int money)</text>
<text text-anchor="start" x="182.88" y="-291.5" font-family="Helvetica,sans-Serif" font-size="10.00">+</text>
<text text-anchor="start" x="192.88" y="-291.5" font-family="Helvetica,sans-Serif" font-size="10.00">void addMoney(int amount)</text>
<text text-anchor="start" x="182.88" y="-275.5" font-family="Helvetica,sans-Serif" font-size="10.00">+</text>
<text text-anchor="start" x="192.88" y="-275.5" font-family="Helvetica,sans-Serif" font-size="10.00">int getMoney()</text>
<text text-anchor="start" x="182.88" y="-259.5" font-family="Helvetica,sans-Serif" font-size="10.00">+</text>
<text text-anchor="start" x="192.88" y="-259.5" font-family="Helvetica,sans-Serif" font-size="10.00">void setMoney(int amount)</text>
<text text-anchor="start" x="182.88" y="-243.5" font-family="Helvetica,sans-Serif" font-size="10.00">+</text>
<text text-anchor="start" x="192.88" y="-243.5" font-family="Helvetica,sans-Serif" font-size="10.00">bool canAfford(int amount)</text>
<text text-anchor="start" x="182.88" y="-227.5" font-family="Helvetica,sans-Serif" font-size="10.00">+</text>
<text text-anchor="start" x="192.88" y="-227.5" font-family="Helvetica,sans-Serif" font-size="10.00">bool canAfford(ShopItem &amp;item)</text>
<polygon fill="#666666" stroke="#666666" points="178.88,-363 178.88,-363 341.62,-363 341.62,-363 178.88,-363"/>
<polygon fill="#666666" stroke="#666666" points="178.88,-347 178.88,-347 190.88,-347 190.88,-347 178.88,-347"/>
<polygon fill="#666666" stroke="#666666" points="190.88,-347 190.88,-347 341.62,-347 341.62,-347 190.88,-347"/>
<polygon fill="none" stroke="#666666" points="178.88,-221 178.88,-381 341.62,-381 341.62,-221 178.88,-221"/>
</a>
</g>
</g>
<!-- Node4&#45;&gt;Node2 -->
<g id="edge3_Node000002_Node000004" class="edge">
<title>Node4&#45;&gt;Node2</title>
<g id="a_edge3_Node000002_Node000004"><a xlink:title=" ">
<path fill="none" stroke="#63b8ff" d="M179.69,-221.41C165.62,-207.68 151.49,-193.89 138.96,-181.67"/>
<polygon fill="none" stroke="#63b8ff" points="138.96,-181.67 131.87,-180.34 130.37,-173.29 137.46,-174.61 138.96,-181.67"/>
</a>
</g>
<text text-anchor="middle" x="175.99" y="-193.5" font-family="Helvetica,sans-Serif" font-size="10.00" fill="grey"> #player</text>
</g>
<!-- Node5 -->
<g id="Node000005" class="node">
<title>Node5</title>
<g id="a_Node000005"><a xlink:href="class_entity.html" target="_top" xlink:title="Base class for all entities in the game. This includes the player and enemies.">
<polygon fill="white" stroke="none" points="218.25,-665 86.25,-665 86.25,-429 218.25,-429 218.25,-665"/>
<text text-anchor="start" x="139.5" y="-651.5" font-family="Helvetica,sans-Serif" font-size="10.00">Entity</text>
<text text-anchor="start" x="90.62" y="-635.5" font-family="Helvetica,sans-Serif" font-size="10.00">#</text>
<text text-anchor="start" x="100.25" y="-635.5" font-family="Helvetica,sans-Serif" font-size="10.00">string name</text>
<text text-anchor="start" x="90.25" y="-619.5" font-family="Helvetica,sans-Serif" font-size="10.00">+</text>
<text text-anchor="start" x="100.25" y="-619.5" font-family="Helvetica,sans-Serif" font-size="10.00">Entity(int health, string</text>
<text text-anchor="start" x="100.25" y="-607.5" font-family="Helvetica,sans-Serif" font-size="10.00"> name, int atk, int def)</text>
<text text-anchor="start" x="90.25" y="-591.5" font-family="Helvetica,sans-Serif" font-size="10.00">+</text>
<text text-anchor="start" x="100.25" y="-591.5" font-family="Helvetica,sans-Serif" font-size="10.00">virtual ~Entity()</text>
<text text-anchor="start" x="90.25" y="-575.5" font-family="Helvetica,sans-Serif" font-size="10.00">+</text>
<text text-anchor="start" x="100.25" y="-575.5" font-family="Helvetica,sans-Serif" font-size="10.00">void attack(Entity &amp;target,</text>
<text text-anchor="start" x="100.25" y="-563.5" font-family="Helvetica,sans-Serif" font-size="10.00"> int extraDmg=0)</text>
<text text-anchor="start" x="90.25" y="-547.5" font-family="Helvetica,sans-Serif" font-size="10.00">+</text>
<text text-anchor="start" x="100.25" y="-547.5" font-family="Helvetica,sans-Serif" font-size="10.00">int getHealth()</text>
<text text-anchor="start" x="90.25" y="-531.5" font-family="Helvetica,sans-Serif" font-size="10.00">+</text>
<text text-anchor="start" x="100.25" y="-531.5" font-family="Helvetica,sans-Serif" font-size="10.00">int getMaxHealth()</text>
<text text-anchor="start" x="90.25" y="-515.5" font-family="Helvetica,sans-Serif" font-size="10.00">+</text>
<text text-anchor="start" x="100.25" y="-515.5" font-family="Helvetica,sans-Serif" font-size="10.00">bool isFullHealth()</text>
<text text-anchor="start" x="90.25" y="-499.5" font-family="Helvetica,sans-Serif" font-size="10.00">+</text>
<text text-anchor="start" x="100.25" y="-499.5" font-family="Helvetica,sans-Serif" font-size="10.00">void fullyHeal()</text>
<text text-anchor="start" x="90.25" y="-483.5" font-family="Helvetica,sans-Serif" font-size="10.00">+</text>
<text text-anchor="start" x="100.25" y="-483.5" font-family="Helvetica,sans-Serif" font-size="10.00">bool isAlive()</text>
<text text-anchor="start" x="90.25" y="-467.5" font-family="Helvetica,sans-Serif" font-size="10.00">+</text>
<text text-anchor="start" x="100.25" y="-467.5" font-family="Helvetica,sans-Serif" font-size="10.00">void heal(int amount)</text>
<text text-anchor="start" x="90.25" y="-451.5" font-family="Helvetica,sans-Serif" font-size="10.00">+</text>
<text text-anchor="start" x="100.25" y="-451.5" font-family="Helvetica,sans-Serif" font-size="10.00">void kill()</text>
<text text-anchor="start" x="100.25" y="-435.5" font-family="Helvetica,sans-Serif" font-size="10.00">and 6 more...</text>
<polygon fill="#666666" stroke="#666666" points="86.25,-647 86.25,-647 218.25,-647 218.25,-647 86.25,-647"/>
<polygon fill="#666666" stroke="#666666" points="86.25,-631 86.25,-631 98.25,-631 98.25,-631 86.25,-631"/>
<polygon fill="#666666" stroke="#666666" points="98.25,-631 98.25,-631 218.25,-631 218.25,-631 98.25,-631"/>
<polygon fill="none" stroke="#666666" points="86.25,-429 86.25,-665 218.25,-665 218.25,-429 86.25,-429"/>
</a>
</g>
</g>
<!-- Node5&#45;&gt;Node4 -->
<g id="edge4_Node000004_Node000005" class="edge">
<title>Node5&#45;&gt;Node4</title>
<g id="a_edge4_Node000004_Node000005"><a xlink:title=" ">
<path fill="none" stroke="#63b8ff" d="M208.63,-418.63C214.35,-405.7 220.04,-392.85 225.43,-380.66"/>
<polygon fill="none" stroke="#63b8ff" points="205.5,-417.06 204.65,-427.62 211.9,-419.89 205.5,-417.06"/>
</a>
</g>
</g>
<!-- Node6 -->
<g id="Node000006" class="node">
<title>Node6</title>
<g id="a_Node000006"><a xlink:href="struct_health.html" target="_top" xlink:title=" ">
<polygon fill="white" stroke="none" points="150.38,-781 16.12,-781 16.12,-713 150.38,-713 150.38,-781"/>
<text text-anchor="start" x="69" y="-767.5" font-family="Helvetica,sans-Serif" font-size="10.00">Health</text>
<text text-anchor="start" x="20.12" y="-751.5" font-family="Helvetica,sans-Serif" font-size="10.00">+</text>
<text text-anchor="start" x="30.12" y="-751.5" font-family="Helvetica,sans-Serif" font-size="10.00">int current</text>
<text text-anchor="start" x="20.12" y="-735.5" font-family="Helvetica,sans-Serif" font-size="10.00">+</text>
<text text-anchor="start" x="30.12" y="-735.5" font-family="Helvetica,sans-Serif" font-size="10.00">int max</text>
<text text-anchor="start" x="20.12" y="-719.5" font-family="Helvetica,sans-Serif" font-size="10.00">+</text>
<text text-anchor="start" x="30.12" y="-719.5" font-family="Helvetica,sans-Serif" font-size="10.00">Health(int current, int max)</text>
<polygon fill="#666666" stroke="#666666" points="16.12,-763 16.12,-763 150.38,-763 150.38,-763 16.12,-763"/>
<polygon fill="#666666" stroke="#666666" points="16.12,-731 16.12,-731 28.12,-731 28.12,-731 16.12,-731"/>
<polygon fill="#666666" stroke="#666666" points="28.12,-731 28.12,-731 150.38,-731 150.38,-731 28.12,-731"/>
<polygon fill="none" stroke="#666666" points="16.12,-713 16.12,-781 150.38,-781 150.38,-713 16.12,-713"/>
</a>
</g>
</g>
<!-- Node6&#45;&gt;Node5 -->
<g id="edge5_Node000005_Node000006" class="edge">
<title>Node6&#45;&gt;Node5</title>
<g id="a_edge5_Node000005_Node000006"><a xlink:title=" ">
<path fill="none" stroke="#63b8ff" d="M94.64,-713.3C98.37,-702.6 102.77,-689.98 107.45,-676.57"/>
<polygon fill="none" stroke="#63b8ff" points="107.37,-676.78 105.57,-669.8 111.32,-665.45 113.12,-672.43 107.37,-676.78"/>
</a>
</g>
<text text-anchor="middle" x="120.89" y="-685.5" font-family="Helvetica,sans-Serif" font-size="10.00" fill="grey"> #health</text>
</g>
<!-- Node7 -->
<g id="Node000007" class="node">
<title>Node7</title>
<g id="a_Node000007"><a xlink:href="struct_stats.html" target="_top" xlink:title="Stats for all entities.">
<polygon fill="white" stroke="none" points="275.88,-781 168.62,-781 168.62,-713 275.88,-713 275.88,-781"/>
<text text-anchor="start" x="210.62" y="-767.5" font-family="Helvetica,sans-Serif" font-size="10.00">Stats</text>
<text text-anchor="start" x="172.62" y="-751.5" font-family="Helvetica,sans-Serif" font-size="10.00">+</text>
<text text-anchor="start" x="182.62" y="-751.5" font-family="Helvetica,sans-Serif" font-size="10.00">int atk</text>
<text text-anchor="start" x="172.62" y="-735.5" font-family="Helvetica,sans-Serif" font-size="10.00">+</text>
<text text-anchor="start" x="182.62" y="-735.5" font-family="Helvetica,sans-Serif" font-size="10.00">int def</text>
<text text-anchor="start" x="172.62" y="-719.5" font-family="Helvetica,sans-Serif" font-size="10.00">+</text>
<text text-anchor="start" x="182.62" y="-719.5" font-family="Helvetica,sans-Serif" font-size="10.00">Stats(int atk, int def)</text>
<polygon fill="#666666" stroke="#666666" points="168.62,-763 168.62,-763 275.88,-763 275.88,-763 168.62,-763"/>
<polygon fill="#666666" stroke="#666666" points="168.62,-731 168.62,-731 180.62,-731 180.62,-731 168.62,-731"/>
<polygon fill="#666666" stroke="#666666" points="180.62,-731 180.62,-731 275.88,-731 275.88,-731 180.62,-731"/>
<polygon fill="none" stroke="#666666" points="168.62,-713 168.62,-781 275.88,-781 275.88,-713 168.62,-713"/>
</a>
</g>
</g>
<!-- Node7&#45;&gt;Node5 -->
<g id="edge6_Node000005_Node000007" class="edge">
<title>Node7&#45;&gt;Node5</title>
<g id="a_edge6_Node000005_Node000007"><a xlink:title=" ">
<path fill="none" stroke="#63b8ff" d="M210.69,-713.3C206.91,-702.6 202.45,-689.98 197.7,-676.57"/>
<polygon fill="none" stroke="#63b8ff" points="197.77,-676.76 192,-672.44 193.77,-665.45 199.54,-669.77 197.77,-676.76"/>
</a>
</g>
<text text-anchor="middle" x="218.48" y="-685.5" font-family="Helvetica,sans-Serif" font-size="10.00" fill="grey"> #stats</text>
</g>
<!-- Node8 -->
<g id="Node000008" class="node">
<title>Node8</title>
<g id="a_Node000008"><a xlink:href="class_inventory.html" target="_top" xlink:title="Inventory class that holds all items for the player.">
<polygon fill="white" stroke="none" points="376,-609 236.5,-609 236.5,-485 376,-485 376,-609"/>
<text text-anchor="start" x="286" y="-595.5" font-family="Helvetica,sans-Serif" font-size="10.00">Inventory</text>
<text text-anchor="start" x="242" y="-579.5" font-family="Helvetica,sans-Serif" font-size="10.00">&#45;</text>
<text text-anchor="start" x="250.5" y="-579.5" font-family="Helvetica,sans-Serif" font-size="10.00">vector&lt; IItem * &gt; items</text>
<text text-anchor="start" x="240.5" y="-563.5" font-family="Helvetica,sans-Serif" font-size="10.00">+</text>
<text text-anchor="start" x="250.5" y="-563.5" font-family="Helvetica,sans-Serif" font-size="10.00">IItem * addItem(IItem *item,</text>
<text text-anchor="start" x="250.5" y="-551.5" font-family="Helvetica,sans-Serif" font-size="10.00"> bool animate=true)</text>
<text text-anchor="start" x="240.5" y="-535.5" font-family="Helvetica,sans-Serif" font-size="10.00">+</text>
<text text-anchor="start" x="250.5" y="-535.5" font-family="Helvetica,sans-Serif" font-size="10.00">void listItems()</text>
<text text-anchor="start" x="240.5" y="-519.5" font-family="Helvetica,sans-Serif" font-size="10.00">+</text>
<text text-anchor="start" x="250.5" y="-519.5" font-family="Helvetica,sans-Serif" font-size="10.00">bool useItem(int idx, Player</text>
<text text-anchor="start" x="250.5" y="-507.5" font-family="Helvetica,sans-Serif" font-size="10.00"> &amp;player, Entity *enemy)</text>
<text text-anchor="start" x="240.5" y="-491.5" font-family="Helvetica,sans-Serif" font-size="10.00">+</text>
<text text-anchor="start" x="250.5" y="-491.5" font-family="Helvetica,sans-Serif" font-size="10.00">void dropItem(int idx)</text>
<polygon fill="#666666" stroke="#666666" points="236.5,-591 236.5,-591 376,-591 376,-591 236.5,-591"/>
<polygon fill="#666666" stroke="#666666" points="236.5,-575 236.5,-575 248.5,-575 248.5,-575 236.5,-575"/>
<polygon fill="#666666" stroke="#666666" points="248.5,-575 248.5,-575 376,-575 376,-575 248.5,-575"/>
<polygon fill="none" stroke="#666666" points="236.5,-485 236.5,-609 376,-609 376,-485 236.5,-485"/>
</a>
</g>
</g>
<!-- Node8&#45;&gt;Node4 -->
<g id="edge7_Node000004_Node000008" class="edge">
<title>Node8&#45;&gt;Node4</title>
<g id="a_edge7_Node000004_Node000008"><a xlink:title=" ">
<path fill="none" stroke="#63b8ff" d="M294.76,-485.06C289.52,-457.27 283.21,-423.78 277.42,-393.09"/>
<polygon fill="none" stroke="#63b8ff" points="277.46,-393.27 272.41,-388.11 275.23,-381.47 280.28,-386.63 277.46,-393.27"/>
</a>
</g>
<text text-anchor="middle" x="304.87" y="-401.5" font-family="Helvetica,sans-Serif" font-size="10.00" fill="grey"> +inventory</text>
</g>
</g>
</svg>

<g id="navigator" transform="translate(0 0)" fill="#404254">
  <rect fill="#f2f5e9" fill-opacity="0.5" stroke="#606060" stroke-width=".5" x="0" y="0" width="60" height="60"/>
  <use id="zoomplus" xlink:href="#zoomPlus" x="17" y="9" onmousedown="handleZoom(evt,'in')"/>
  <use id="zoomminus" xlink:href="#zoomMin" x="42" y="9" onmousedown="handleZoom(evt,'out')"/>
  <use id="reset" xlink:href="#resetDef" x="30" y="36" onmousedown="handleReset()"/>
   <use id="arrowup" xlink:href="#arrowUp" x="0" y="0" onmousedown="handlePan(0,-1)"/>
  <use id="arrowright" xlink:href="#arrowRight" x="0" y="0" onmousedown="handlePan(1,0)"/>
  <use id="arrowdown" xlink:href="#arrowDown" x="0" y="0" onmousedown="handlePan(0,1)"/>
  <use id="arrowleft" xlink:href="#arrowLeft" x="0" y="0" onmousedown="handlePan(-1,0)"/>
</g>
<svg viewBox="0 0 15 15" width="100%" height="30px" preserveAspectRatio="xMaxYMin meet">
 <g id="arrow_out" transform="scale(0.3 0.3)">
  <a xlink:href="class_first_choice__coll__graph_org.svg" target="_base">
   <rect id="button" ry="5" rx="5" y="6" x="6" height="38" width="38"
        fill="#f2f5e9" fill-opacity="0.5" stroke="#606060" stroke-width="1.0"/>
   <path id="arrow"
     d="M 11.500037,31.436501 C 11.940474,20.09759 22.043105,11.32322 32.158766,21.979434 L 37.068811,17.246167 C 37.068811,17.246167 37.088388,32 37.088388,32 L 22.160133,31.978069 C 22.160133,31.978069 26.997745,27.140456 26.997745,27.140456 C 18.528582,18.264221 13.291696,25.230495 11.500037,31.436501 z"
     style="fill:#404040;"/>
  </a>
 </g>
</svg>

<style type='text/css'>
<![CDATA[
[data-mouse-over-selected='false'] { opacity: 0.7; }
[data-mouse-over-selected='true']  { opacity: 1.0; }
]]>
</style>
<script type="application/ecmascript"><![CDATA[
document.addEventListener('DOMContentLoaded', (event) => {
  highlightEdges();
  highlightAdjacentNodes();
});
]]></script>
</svg>
