<?xml version="1.0" encoding="UTF-8" standalone="no"?>
<!DOCTYPE svg PUBLIC "-//W3C//DTD SVG 1.1//EN"
 "http://www.w3.org/Graphics/SVG/1.1/DTD/svg11.dtd">
<!-- Generated by graphviz version 12.2.1 (20241206.2353)
 -->
<!-- Title: src/entities.h Pages: 1 -->
<svg width="333pt" height="140pt"
 viewBox="0.00 0.00 332.50 140.00" xmlns="http://www.w3.org/2000/svg" xmlns:xlink="http://www.w3.org/1999/xlink">

<svg id="main" version="1.1" xmlns="http://www.w3.org/2000/svg" xmlns:xlink="http://www.w3.org/1999/xlink" xml:space="preserve">

<style type="text/css"><![CDATA[
.node, .edge {opacity: 0.7;}
.node.selected, .edge.selected {opacity: 1;}
.edge:hover path { stroke: red; }
.edge:hover polygon { stroke: red; fill: red; }
]]></style>
<script type="application/ecmascript" xlink:href="svg.min.js"/>
<svg id="graph" class="graph">
<g id="graph0" class="graph" transform="scale(1 1) rotate(0) translate(4 136)">
<title>src/entities.h</title>
<!-- Node1 -->
<g id="Node000001" class="node">
<title>Node1</title>
<g id="a_Node000001"><a xlink:title=" ">
<polygon fill="#999999" stroke="#666666" points="207.5,-132 135.25,-132 135.25,-112 207.5,-112 207.5,-132"/>
<text text-anchor="middle" x="171.38" y="-118.5" font-family="Helvetica,sans-Serif" font-size="10.00">src/entities.h</text>
</a>
</g>
</g>
<!-- Node2 -->
<g id="Node000002" class="node">
<title>Node2</title>
<g id="a_Node000002"><a xlink:href="entities_8cpp.html" target="_top" xlink:title=" ">
<polygon fill="white" stroke="#666666" points="82.75,-76 0,-76 0,-56 82.75,-56 82.75,-76"/>
<text text-anchor="middle" x="41.38" y="-62.5" font-family="Helvetica,sans-Serif" font-size="10.00">src/entities.cpp</text>
</a>
</g>
</g>
<!-- Node1&#45;&gt;Node2 -->
<g id="edge1_Node000001_Node000002" class="edge">
<title>Node1&#45;&gt;Node2</title>
<g id="a_edge1_Node000001_Node000002"><a xlink:title=" ">
<path fill="none" stroke="#63b8ff" d="M138.32,-107.27C115.14,-97.64 84.73,-85.01 64.2,-76.48"/>
<polygon fill="#63b8ff" stroke="#63b8ff" points="136.76,-110.41 147.33,-111.01 139.44,-103.94 136.76,-110.41"/>
</a>
</g>
</g>
<!-- Node3 -->
<g id="Node000003" class="node">
<title>Node3</title>
<g id="a_Node000003"><a xlink:href="items_8cpp.html" target="_top" xlink:title=" ">
<polygon fill="white" stroke="#666666" points="176,-76 100.75,-76 100.75,-56 176,-56 176,-76"/>
<text text-anchor="middle" x="138.38" y="-62.5" font-family="Helvetica,sans-Serif" font-size="10.00">src/items.cpp</text>
</a>
</g>
</g>
<!-- Node1&#45;&gt;Node3 -->
<g id="edge2_Node000001_Node000003" class="edge">
<title>Node1&#45;&gt;Node3</title>
<g id="a_edge2_Node000001_Node000003"><a xlink:title=" ">
<path fill="none" stroke="#63b8ff" d="M159.68,-101.87C154.38,-93.19 148.35,-83.32 144.06,-76.3"/>
<polygon fill="#63b8ff" stroke="#63b8ff" points="156.64,-103.59 164.84,-110.3 162.61,-99.94 156.64,-103.59"/>
</a>
</g>
</g>
<!-- Node4 -->
<g id="Node000004" class="node">
<title>Node4</title>
<g id="a_Node000004"><a xlink:href="ui_8cpp.html" target="_top" xlink:title=" ">
<polygon fill="white" stroke="#666666" points="233.75,-20 175,-20 175,0 233.75,0 233.75,-20"/>
<text text-anchor="middle" x="204.38" y="-6.5" font-family="Helvetica,sans-Serif" font-size="10.00">src/ui.cpp</text>
</a>
</g>
</g>
<!-- Node1&#45;&gt;Node4 -->
<g id="edge3_Node000001_Node000004" class="edge">
<title>Node1&#45;&gt;Node4</title>
<g id="a_edge3_Node000001_Node000004"><a xlink:title=" ">
<path fill="none" stroke="#63b8ff" d="M177.74,-100.79C180.16,-93.05 182.92,-84.12 185.38,-76 191.35,-56.19 198.09,-32.9 201.72,-20.27"/>
<polygon fill="#63b8ff" stroke="#63b8ff" points="174.43,-99.67 174.77,-110.26 181.1,-101.77 174.43,-99.67"/>
</a>
</g>
</g>
<!-- Node5 -->
<g id="Node000005" class="node">
<title>Node5</title>
<g id="a_Node000005"><a xlink:href="ui_8h.html" target="_top" xlink:title=" ">
<polygon fill="white" stroke="#666666" points="280.5,-76 232.25,-76 232.25,-56 280.5,-56 280.5,-76"/>
<text text-anchor="middle" x="256.38" y="-62.5" font-family="Helvetica,sans-Serif" font-size="10.00">src/ui.h</text>
</a>
</g>
</g>
<!-- Node1&#45;&gt;Node5 -->
<g id="edge4_Node000001_Node000005" class="edge">
<title>Node1&#45;&gt;Node5</title>
<g id="a_edge4_Node000001_Node000005"><a xlink:title=" ">
<path fill="none" stroke="#63b8ff" d="M195.71,-105.54C210.46,-96.17 228.82,-84.51 241.45,-76.48"/>
<polygon fill="#63b8ff" stroke="#63b8ff" points="194.02,-102.47 187.46,-110.78 197.78,-108.37 194.02,-102.47"/>
</a>
</g>
</g>
<!-- Node5&#45;&gt;Node4 -->
<g id="edge6_Node000005_Node000004" class="edge">
<title>Node5&#45;&gt;Node4</title>
<g id="a_edge6_Node000005_Node000004"><a xlink:title=" ">
<path fill="none" stroke="#63b8ff" d="M239.59,-47.57C230.86,-38.5 220.53,-27.78 213.33,-20.3"/>
<polygon fill="#63b8ff" stroke="#63b8ff" points="236.81,-49.73 246.27,-54.5 241.85,-44.87 236.81,-49.73"/>
</a>
</g>
</g>
<!-- Node6 -->
<g id="Node000006" class="node">
<title>Node6</title>
<g id="a_Node000006"><a xlink:href="main_8cpp.html" target="_top" xlink:title=" ">
<polygon fill="white" stroke="#666666" points="324.5,-20 252.25,-20 252.25,0 324.5,0 324.5,-20"/>
<text text-anchor="middle" x="288.38" y="-6.5" font-family="Helvetica,sans-Serif" font-size="10.00">src/main.cpp</text>
</a>
</g>
</g>
<!-- Node5&#45;&gt;Node6 -->
<g id="edge5_Node000005_Node000006" class="edge">
<title>Node5&#45;&gt;Node6</title>
<g id="a_edge5_Node000005_Node000006"><a xlink:title=" ">
<path fill="none" stroke="#63b8ff" d="M267.71,-45.87C272.86,-37.19 278.71,-27.32 282.86,-20.3"/>
<polygon fill="#63b8ff" stroke="#63b8ff" points="264.81,-43.9 262.72,-54.29 270.83,-47.47 264.81,-43.9"/>
</a>
</g>
</g>
</g>
</svg>
</svg>

<style type='text/css'>
<![CDATA[
[data-mouse-over-selected='false'] { opacity: 0.7; }
[data-mouse-over-selected='true']  { opacity: 1.0; }
]]>
</style>
<script type="application/ecmascript"><![CDATA[
document.addEventListener('DOMContentLoaded', (event) => {
  highlightEdges();
  highlightAdjacentNodes();
});
]]></script>
</svg>
