<?xml version="1.0" encoding="UTF-8" standalone="no"?>
<!DOCTYPE svg PUBLIC "-//W3C//DTD SVG 1.1//EN"
 "http://www.w3.org/Graphics/SVG/1.1/DTD/svg11.dtd">
<!-- Generated by graphviz version 12.2.1 (20241206.2353)
 -->
<!-- Title: src/entities.cpp Pages: 1 -->
<svg width="289pt" height="252pt"
 viewBox="0.00 0.00 289.49 252.00" xmlns="http://www.w3.org/2000/svg" xmlns:xlink="http://www.w3.org/1999/xlink">

<svg id="main" version="1.1" xmlns="http://www.w3.org/2000/svg" xmlns:xlink="http://www.w3.org/1999/xlink" xml:space="preserve">

<style type="text/css"><![CDATA[
.node, .edge {opacity: 0.7;}
.node.selected, .edge.selected {opacity: 1;}
.edge:hover path { stroke: red; }
.edge:hover polygon { stroke: red; fill: red; }
]]></style>
<script type="application/ecmascript" xlink:href="svg.min.js"/>
<svg id="graph" class="graph">
<g id="graph0" class="graph" transform="scale(1 1) rotate(0) translate(4 248)">
<title>src/entities.cpp</title>
<!-- Node1 -->
<g id="Node000001" class="node">
<title>Node1</title>
<g id="a_Node000001"><a xlink:title=" ">
<polygon fill="#999999" stroke="#666666" points="158.37,-244 75.62,-244 75.62,-224 158.37,-224 158.37,-244"/>
<text text-anchor="middle" x="116.99" y="-230.5" font-family="Helvetica,sans-Serif" font-size="10.00">src/entities.cpp</text>
</a>
</g>
</g>
<!-- Node2 -->
<g id="Node000002" class="node">
<title>Node2</title>
<g id="a_Node000002"><a xlink:title=" ">
<polygon fill="#e0e0e0" stroke="#999999" points="122.74,-20 69.24,-20 69.24,0 122.74,0 122.74,-20"/>
<text text-anchor="middle" x="95.99" y="-6.5" font-family="Helvetica,sans-Serif" font-size="10.00">iostream</text>
</a>
</g>
</g>
<!-- Node1&#45;&gt;Node2 -->
<g id="edge1_Node000001_Node000002" class="edge">
<title>Node1&#45;&gt;Node2</title>
<g id="a_edge1_Node000001_Node000002"><a xlink:title=" ">
<path fill="none" stroke="#63b8ff" d="M75.34,-223.67C56.23,-217.08 35.33,-206.08 23.99,-188 6.8,-160.58 -27.83,-180.43 42.99,-56 49.6,-44.39 60.4,-34.41 70.53,-26.82"/>
<polygon fill="#63b8ff" stroke="#63b8ff" points="72.43,-29.76 78.63,-21.17 68.43,-24.02 72.43,-29.76"/>
</a>
</g>
</g>
<!-- Node3 -->
<g id="Node000003" class="node">
<title>Node3</title>
<g id="a_Node000003"><a xlink:title=" ">
<polygon fill="#e0e0e0" stroke="#999999" points="72.99,-188 32.99,-188 32.99,-168 72.99,-168 72.99,-188"/>
<text text-anchor="middle" x="52.99" y="-174.5" font-family="Helvetica,sans-Serif" font-size="10.00">string</text>
</a>
</g>
</g>
<!-- Node1&#45;&gt;Node3 -->
<g id="edge2_Node000001_Node000003" class="edge">
<title>Node1&#45;&gt;Node3</title>
<g id="a_edge2_Node000001_Node000003"><a xlink:title=" ">
<path fill="none" stroke="#63b8ff" d="M105.85,-223.59C96.67,-215.85 83.44,-204.69 72.51,-195.47"/>
<polygon fill="#63b8ff" stroke="#63b8ff" points="75.07,-193.05 65.17,-189.27 70.56,-198.4 75.07,-193.05"/>
</a>
</g>
</g>
<!-- Node4 -->
<g id="Node000004" class="node">
<title>Node4</title>
<g id="a_Node000004"><a xlink:href="entities_8h.html" target="_top" xlink:title=" ">
<polygon fill="white" stroke="#666666" points="232.87,-132 177.12,-132 177.12,-112 232.87,-112 232.87,-132"/>
<text text-anchor="middle" x="204.99" y="-118.5" font-family="Helvetica,sans-Serif" font-size="10.00">entities.h</text>
</a>
</g>
</g>
<!-- Node1&#45;&gt;Node4 -->
<g id="edge3_Node000001_Node000004" class="edge">
<title>Node1&#45;&gt;Node4</title>
<g id="a_edge3_Node000001_Node000004"><a xlink:title=" ">
<path fill="none" stroke="#63b8ff" d="M124.5,-223.62C139.11,-205.36 171.61,-164.73 190.54,-141.07"/>
<polygon fill="#63b8ff" stroke="#63b8ff" points="193.05,-143.53 196.56,-133.54 187.58,-139.16 193.05,-143.53"/>
</a>
</g>
</g>
<!-- Node7 -->
<g id="Node000007" class="node">
<title>Node7</title>
<g id="a_Node000007"><a xlink:href="extras_8h.html" target="_top" xlink:title=" ">
<polygon fill="white" stroke="#666666" points="142.62,-188 91.37,-188 91.37,-168 142.62,-168 142.62,-188"/>
<text text-anchor="middle" x="116.99" y="-174.5" font-family="Helvetica,sans-Serif" font-size="10.00">extras.h</text>
</a>
</g>
</g>
<!-- Node1&#45;&gt;Node7 -->
<g id="edge8_Node000001_Node000007" class="edge">
<title>Node1&#45;&gt;Node7</title>
<g id="a_edge8_Node000001_Node000007"><a xlink:title=" ">
<path fill="none" stroke="#63b8ff" d="M116.99,-223.59C116.99,-217.01 116.99,-207.96 116.99,-199.73"/>
<polygon fill="#63b8ff" stroke="#63b8ff" points="120.49,-199.81 116.99,-189.81 113.49,-199.81 120.49,-199.81"/>
</a>
</g>
</g>
<!-- Node10 -->
<g id="Node000010" class="node">
<title>Node10</title>
<g id="a_Node000010"><a xlink:href="shop_8h.html" target="_top" xlink:title=" ">
<polygon fill="white" stroke="#666666" points="245.62,-188 200.37,-188 200.37,-168 245.62,-168 245.62,-188"/>
<text text-anchor="middle" x="222.99" y="-174.5" font-family="Helvetica,sans-Serif" font-size="10.00">shop.h</text>
</a>
</g>
</g>
<!-- Node1&#45;&gt;Node10 -->
<g id="edge12_Node000001_Node000010" class="edge">
<title>Node1&#45;&gt;Node10</title>
<g id="a_edge12_Node000001_Node000010"><a xlink:title=" ">
<path fill="none" stroke="#63b8ff" d="M135.46,-223.59C151.7,-215.32 175.6,-203.14 194.33,-193.6"/>
<polygon fill="#63b8ff" stroke="#63b8ff" points="195.72,-196.82 203.04,-189.17 192.54,-190.59 195.72,-196.82"/>
</a>
</g>
</g>
<!-- Node4&#45;&gt;Node2 -->
<g id="edge4_Node000004_Node000002" class="edge">
<title>Node4&#45;&gt;Node2</title>
<g id="a_edge4_Node000004_Node000002"><a xlink:title=" ">
<path fill="none" stroke="#63b8ff" d="M176.81,-113.5C156.85,-106.8 130.89,-95.04 114.99,-76 104.61,-63.56 99.9,-45.68 97.76,-31.82"/>
<polygon fill="#63b8ff" stroke="#63b8ff" points="101.25,-31.52 96.61,-21.99 94.3,-32.33 101.25,-31.52"/>
</a>
</g>
</g>
<!-- Node5 -->
<g id="Node000005" class="node">
<title>Node5</title>
<g id="a_Node000005"><a xlink:href="inventory_8h.html" target="_top" xlink:title=" ">
<polygon fill="white" stroke="#666666" points="253.62,-76 190.37,-76 190.37,-56 253.62,-56 253.62,-76"/>
<text text-anchor="middle" x="221.99" y="-62.5" font-family="Helvetica,sans-Serif" font-size="10.00">inventory.h</text>
</a>
</g>
</g>
<!-- Node4&#45;&gt;Node5 -->
<g id="edge5_Node000004_Node000005" class="edge">
<title>Node4&#45;&gt;Node5</title>
<g id="a_edge5_Node000004_Node000005"><a xlink:title=" ">
<path fill="none" stroke="#63b8ff" d="M207.95,-111.59C210.08,-104.86 213.01,-95.53 215.65,-87.15"/>
<polygon fill="#63b8ff" stroke="#63b8ff" points="218.95,-88.33 218.61,-77.74 212.27,-86.23 218.95,-88.33"/>
</a>
</g>
</g>
<!-- Node5&#45;&gt;Node2 -->
<g id="edge7_Node000005_Node000002" class="edge">
<title>Node5&#45;&gt;Node2</title>
<g id="a_edge7_Node000005_Node000002"><a xlink:title=" ">
<path fill="none" stroke="#63b8ff" d="M200.05,-55.59C180.29,-47.13 151,-34.58 128.53,-24.94"/>
<polygon fill="#63b8ff" stroke="#63b8ff" points="130.07,-21.8 119.5,-21.08 127.32,-28.23 130.07,-21.8"/>
</a>
</g>
</g>
<!-- Node6 -->
<g id="Node000006" class="node">
<title>Node6</title>
<g id="a_Node000006"><a xlink:title=" ">
<polygon fill="#e0e0e0" stroke="#999999" points="281.49,-20 238.49,-20 238.49,0 281.49,0 281.49,-20"/>
<text text-anchor="middle" x="259.99" y="-6.5" font-family="Helvetica,sans-Serif" font-size="10.00">vector</text>
</a>
</g>
</g>
<!-- Node5&#45;&gt;Node6 -->
<g id="edge6_Node000005_Node000006" class="edge">
<title>Node5&#45;&gt;Node6</title>
<g id="a_edge6_Node000005_Node000006"><a xlink:title=" ">
<path fill="none" stroke="#63b8ff" d="M228.61,-55.59C233.68,-48.39 240.83,-38.23 247.02,-29.43"/>
<polygon fill="#63b8ff" stroke="#63b8ff" points="249.69,-31.73 252.58,-21.54 243.96,-27.7 249.69,-31.73"/>
</a>
</g>
</g>
<!-- Node7&#45;&gt;Node2 -->
<g id="edge11_Node000007_Node000002" class="edge">
<title>Node7&#45;&gt;Node2</title>
<g id="a_edge11_Node000007_Node000002"><a xlink:title=" ">
<path fill="none" stroke="#63b8ff" d="M91.15,-168.57C74.44,-161.61 54.01,-149.94 43.99,-132 24.33,-96.77 56.48,-52.62 78.36,-28.58"/>
<polygon fill="#63b8ff" stroke="#63b8ff" points="80.72,-31.18 85.07,-21.51 75.64,-26.36 80.72,-31.18"/>
</a>
</g>
</g>
<!-- Node8 -->
<g id="Node000008" class="node">
<title>Node8</title>
<g id="a_Node000008"><a xlink:title=" ">
<polygon fill="#e0e0e0" stroke="#999999" points="158.62,-132 113.37,-132 113.37,-112 158.62,-112 158.62,-132"/>
<text text-anchor="middle" x="135.99" y="-118.5" font-family="Helvetica,sans-Serif" font-size="10.00">chrono</text>
</a>
</g>
</g>
<!-- Node7&#45;&gt;Node8 -->
<g id="edge9_Node000007_Node000008" class="edge">
<title>Node7&#45;&gt;Node8</title>
<g id="a_edge9_Node000007_Node000008"><a xlink:title=" ">
<path fill="none" stroke="#63b8ff" d="M120.3,-167.59C122.67,-160.86 125.95,-151.53 128.9,-143.15"/>
<polygon fill="#63b8ff" stroke="#63b8ff" points="132.2,-144.32 132.22,-133.73 125.6,-142 132.2,-144.32"/>
</a>
</g>
</g>
<!-- Node9 -->
<g id="Node000009" class="node">
<title>Node9</title>
<g id="a_Node000009"><a xlink:title=" ">
<polygon fill="#e0e0e0" stroke="#999999" points="95.49,-132 52.49,-132 52.49,-112 95.49,-112 95.49,-132"/>
<text text-anchor="middle" x="73.99" y="-118.5" font-family="Helvetica,sans-Serif" font-size="10.00">thread</text>
</a>
</g>
</g>
<!-- Node7&#45;&gt;Node9 -->
<g id="edge10_Node000007_Node000009" class="edge">
<title>Node7&#45;&gt;Node9</title>
<g id="a_edge10_Node000007_Node000009"><a xlink:title=" ">
<path fill="none" stroke="#63b8ff" d="M109.5,-167.59C103.71,-160.32 95.51,-150.02 88.44,-141.15"/>
<polygon fill="#63b8ff" stroke="#63b8ff" points="91.31,-139.12 82.34,-133.48 85.83,-143.49 91.31,-139.12"/>
</a>
</g>
</g>
<!-- Node10&#45;&gt;Node4 -->
<g id="edge16_Node000010_Node000004" class="edge">
<title>Node10&#45;&gt;Node4</title>
<g id="a_edge16_Node000010_Node000004"><a xlink:title=" ">
<path fill="none" stroke="#63b8ff" d="M219.86,-167.59C217.61,-160.86 214.5,-151.53 211.71,-143.15"/>
<polygon fill="#63b8ff" stroke="#63b8ff" points="215.05,-142.11 208.57,-133.73 208.41,-144.33 215.05,-142.11"/>
</a>
</g>
</g>
<!-- Node10&#45;&gt;Node6 -->
<g id="edge15_Node000010_Node000006" class="edge">
<title>Node10&#45;&gt;Node6</title>
<g id="a_edge15_Node000010_Node000006"><a xlink:title=" ">
<path fill="none" stroke="#63b8ff" d="M232.9,-167.68C241.18,-159.24 252.48,-146 257.99,-132 271.1,-98.7 267.65,-56.16 263.88,-31.4"/>
<polygon fill="#63b8ff" stroke="#63b8ff" points="267.36,-30.98 262.21,-21.72 260.46,-32.16 267.36,-30.98"/>
</a>
</g>
</g>
<!-- Node11 -->
<g id="Node000011" class="node">
<title>Node11</title>
<g id="a_Node000011"><a xlink:href="items_8h.html" target="_top" xlink:title=" ">
<polygon fill="white" stroke="#666666" points="172.12,-76 123.87,-76 123.87,-56 172.12,-56 172.12,-76"/>
<text text-anchor="middle" x="147.99" y="-62.5" font-family="Helvetica,sans-Serif" font-size="10.00">items.h</text>
</a>
</g>
</g>
<!-- Node10&#45;&gt;Node11 -->
<g id="edge13_Node000010_Node000011" class="edge">
<title>Node10&#45;&gt;Node11</title>
<g id="a_edge13_Node000010_Node000011"><a xlink:title=" ">
<path fill="none" stroke="#63b8ff" d="M230.32,-167.51C239.6,-154.21 253.15,-129.71 241.99,-112 235.09,-101.05 206.54,-88.28 182.7,-79.15"/>
<polygon fill="#63b8ff" stroke="#63b8ff" points="184.18,-75.97 173.58,-75.76 181.73,-82.53 184.18,-75.97"/>
</a>
</g>
</g>
<!-- Node11&#45;&gt;Node2 -->
<g id="edge14_Node000011_Node000002" class="edge">
<title>Node11&#45;&gt;Node2</title>
<g id="a_edge14_Node000011_Node000002"><a xlink:title=" ">
<path fill="none" stroke="#63b8ff" d="M138.94,-55.59C131.78,-48.16 121.58,-37.58 112.93,-28.58"/>
<polygon fill="#63b8ff" stroke="#63b8ff" points="115.45,-26.16 106,-21.39 110.41,-31.02 115.45,-26.16"/>
</a>
</g>
</g>
</g>
</svg>
</svg>

<style type='text/css'>
<![CDATA[
[data-mouse-over-selected='false'] { opacity: 0.7; }
[data-mouse-over-selected='true']  { opacity: 1.0; }
]]>
</style>
<script type="application/ecmascript"><![CDATA[
document.addEventListener('DOMContentLoaded', (event) => {
  highlightEdges();
  highlightAdjacentNodes();
});
]]></script>
</svg>
