<?xml version="1.0" encoding="UTF-8" standalone="no"?>
<!DOCTYPE svg PUBLIC "-//W3C//DTD SVG 1.1//EN"
 "http://www.w3.org/Graphics/SVG/1.1/DTD/svg11.dtd">
<!-- Generated by graphviz version 12.2.1 (20241206.2353)
 -->
<!-- Title: src/entities.cpp Pages: 1 -->
<svg width="289pt" height="196pt"
 viewBox="0.00 0.00 289.25 196.00" xmlns="http://www.w3.org/2000/svg" xmlns:xlink="http://www.w3.org/1999/xlink">

<svg id="main" version="1.1" xmlns="http://www.w3.org/2000/svg" xmlns:xlink="http://www.w3.org/1999/xlink" xml:space="preserve">

<style type="text/css"><![CDATA[
.node, .edge {opacity: 0.7;}
.node.selected, .edge.selected {opacity: 1;}
.edge:hover path { stroke: red; }
.edge:hover polygon { stroke: red; fill: red; }
]]></style>
<script type="application/ecmascript" xlink:href="svg.min.js"/>
<svg id="graph" class="graph">
<g id="graph0" class="graph" transform="scale(1 1) rotate(0) translate(4 192)">
<title>src/entities.cpp</title>
<!-- Node1 -->
<g id="Node000001" class="node">
<title>Node1</title>
<g id="a_Node000001"><a xlink:title=" ">
<polygon fill="#999999" stroke="#666666" points="158.12,-188 75.38,-188 75.38,-168 158.12,-168 158.12,-188"/>
<text text-anchor="middle" x="116.75" y="-174.5" font-family="Helvetica,sans-Serif" font-size="10.00">src/entities.cpp</text>
</a>
</g>
</g>
<!-- Node2 -->
<g id="Node000002" class="node">
<title>Node2</title>
<g id="a_Node000002"><a xlink:title=" ">
<polygon fill="#e0e0e0" stroke="#999999" points="53.5,-20 0,-20 0,0 53.5,0 53.5,-20"/>
<text text-anchor="middle" x="26.75" y="-6.5" font-family="Helvetica,sans-Serif" font-size="10.00">iostream</text>
</a>
</g>
</g>
<!-- Node1&#45;&gt;Node2 -->
<g id="edge1_Node000001_Node000002" class="edge">
<title>Node1&#45;&gt;Node2</title>
<g id="a_edge1_Node000001_Node000002"><a xlink:title=" ">
<path fill="none" stroke="#63b8ff" d="M91.18,-167.64C75.03,-160.39 55.14,-148.74 43.75,-132 23.23,-101.84 22.6,-57.61 24.41,-31.81"/>
<polygon fill="#63b8ff" stroke="#63b8ff" points="27.88,-32.26 25.31,-21.98 20.91,-31.62 27.88,-32.26"/>
</a>
</g>
</g>
<!-- Node3 -->
<g id="Node000003" class="node">
<title>Node3</title>
<g id="a_Node000003"><a xlink:title=" ">
<polygon fill="#e0e0e0" stroke="#999999" points="236.75,-132 196.75,-132 196.75,-112 236.75,-112 236.75,-132"/>
<text text-anchor="middle" x="216.75" y="-118.5" font-family="Helvetica,sans-Serif" font-size="10.00">string</text>
</a>
</g>
</g>
<!-- Node1&#45;&gt;Node3 -->
<g id="edge2_Node000001_Node000003" class="edge">
<title>Node1&#45;&gt;Node3</title>
<g id="a_edge2_Node000001_Node000003"><a xlink:title=" ">
<path fill="none" stroke="#63b8ff" d="M134.17,-167.59C149.42,-159.36 171.83,-147.26 189.46,-137.74"/>
<polygon fill="#63b8ff" stroke="#63b8ff" points="190.73,-141.03 197.86,-133.2 187.4,-134.87 190.73,-141.03"/>
</a>
</g>
</g>
<!-- Node4 -->
<g id="Node000004" class="node">
<title>Node4</title>
<g id="a_Node000004"><a xlink:href="entities_8h.html" target="_top" xlink:title=" ">
<polygon fill="white" stroke="#666666" points="108.62,-132 52.88,-132 52.88,-112 108.62,-112 108.62,-132"/>
<text text-anchor="middle" x="80.75" y="-118.5" font-family="Helvetica,sans-Serif" font-size="10.00">entities.h</text>
</a>
</g>
</g>
<!-- Node1&#45;&gt;Node4 -->
<g id="edge3_Node000001_Node000004" class="edge">
<title>Node1&#45;&gt;Node4</title>
<g id="a_edge3_Node000001_Node000004"><a xlink:title=" ">
<path fill="none" stroke="#63b8ff" d="M110.48,-167.59C105.73,-160.47 99.05,-150.45 93.23,-141.72"/>
<polygon fill="#63b8ff" stroke="#63b8ff" points="96.25,-139.94 87.79,-133.56 90.42,-143.82 96.25,-139.94"/>
</a>
</g>
</g>
<!-- Node7 -->
<g id="Node000007" class="node">
<title>Node7</title>
<g id="a_Node000007"><a xlink:href="extras_8h.html" target="_top" xlink:title=" ">
<polygon fill="white" stroke="#666666" points="178.38,-132 127.12,-132 127.12,-112 178.38,-112 178.38,-132"/>
<text text-anchor="middle" x="152.75" y="-118.5" font-family="Helvetica,sans-Serif" font-size="10.00">extras.h</text>
</a>
</g>
</g>
<!-- Node1&#45;&gt;Node7 -->
<g id="edge8_Node000001_Node000007" class="edge">
<title>Node1&#45;&gt;Node7</title>
<g id="a_edge8_Node000001_Node000007"><a xlink:title=" ">
<path fill="none" stroke="#63b8ff" d="M123.02,-167.59C127.77,-160.47 134.45,-150.45 140.27,-141.72"/>
<polygon fill="#63b8ff" stroke="#63b8ff" points="143.08,-143.82 145.71,-133.56 137.25,-139.94 143.08,-143.82"/>
</a>
</g>
</g>
<!-- Node4&#45;&gt;Node2 -->
<g id="edge4_Node000004_Node000002" class="edge">
<title>Node4&#45;&gt;Node2</title>
<g id="a_edge4_Node000004_Node000002"><a xlink:title=" ">
<path fill="none" stroke="#63b8ff" d="M71.81,-111.72C63.95,-103.1 52.69,-89.57 45.75,-76 38.53,-61.88 33.64,-44.59 30.64,-31.4"/>
<polygon fill="#63b8ff" stroke="#63b8ff" points="34.09,-30.8 28.62,-21.72 27.23,-32.22 34.09,-30.8"/>
</a>
</g>
</g>
<!-- Node5 -->
<g id="Node000005" class="node">
<title>Node5</title>
<g id="a_Node000005"><a xlink:href="inventory_8h.html" target="_top" xlink:title=" ">
<polygon fill="white" stroke="#666666" points="118.38,-76 55.12,-76 55.12,-56 118.38,-56 118.38,-76"/>
<text text-anchor="middle" x="86.75" y="-62.5" font-family="Helvetica,sans-Serif" font-size="10.00">inventory.h</text>
</a>
</g>
</g>
<!-- Node4&#45;&gt;Node5 -->
<g id="edge5_Node000004_Node000005" class="edge">
<title>Node4&#45;&gt;Node5</title>
<g id="a_edge5_Node000004_Node000005"><a xlink:title=" ">
<path fill="none" stroke="#63b8ff" d="M81.8,-111.59C82.53,-105.01 83.53,-95.96 84.45,-87.73"/>
<polygon fill="#63b8ff" stroke="#63b8ff" points="87.92,-88.13 85.55,-77.8 80.97,-87.35 87.92,-88.13"/>
</a>
</g>
</g>
<!-- Node5&#45;&gt;Node2 -->
<g id="edge7_Node000005_Node000002" class="edge">
<title>Node5&#45;&gt;Node2</title>
<g id="a_edge7_Node000005_Node000002"><a xlink:title=" ">
<path fill="none" stroke="#63b8ff" d="M76.3,-55.59C67.78,-47.93 55.54,-36.91 45.36,-27.75"/>
<polygon fill="#63b8ff" stroke="#63b8ff" points="47.98,-25.4 38.21,-21.31 43.3,-30.6 47.98,-25.4"/>
</a>
</g>
</g>
<!-- Node6 -->
<g id="Node000006" class="node">
<title>Node6</title>
<g id="a_Node000006"><a xlink:title=" ">
<polygon fill="#e0e0e0" stroke="#999999" points="114.25,-20 71.25,-20 71.25,0 114.25,0 114.25,-20"/>
<text text-anchor="middle" x="92.75" y="-6.5" font-family="Helvetica,sans-Serif" font-size="10.00">vector</text>
</a>
</g>
</g>
<!-- Node5&#45;&gt;Node6 -->
<g id="edge6_Node000005_Node000006" class="edge">
<title>Node5&#45;&gt;Node6</title>
<g id="a_edge6_Node000005_Node000006"><a xlink:title=" ">
<path fill="none" stroke="#63b8ff" d="M87.8,-55.59C88.53,-49.01 89.53,-39.96 90.45,-31.73"/>
<polygon fill="#63b8ff" stroke="#63b8ff" points="93.92,-32.13 91.55,-21.8 86.97,-31.35 93.92,-32.13"/>
</a>
</g>
</g>
<!-- Node7&#45;&gt;Node2 -->
<g id="edge11_Node000007_Node000002" class="edge">
<title>Node7&#45;&gt;Node2</title>
<g id="a_edge11_Node000007_Node000002"><a xlink:title=" ">
<path fill="none" stroke="#63b8ff" d="M151.49,-111.85C149.14,-98.08 142.9,-71.96 127.75,-56 118.48,-46.24 89.06,-33.67 64.34,-24.29"/>
<polygon fill="#63b8ff" stroke="#63b8ff" points="65.77,-21.09 55.18,-20.89 63.33,-27.65 65.77,-21.09"/>
</a>
</g>
</g>
<!-- Node8 -->
<g id="Node000008" class="node">
<title>Node8</title>
<g id="a_Node000008"><a xlink:title=" ">
<polygon fill="#e0e0e0" stroke="#999999" points="220.38,-76 175.12,-76 175.12,-56 220.38,-56 220.38,-76"/>
<text text-anchor="middle" x="197.75" y="-62.5" font-family="Helvetica,sans-Serif" font-size="10.00">chrono</text>
</a>
</g>
</g>
<!-- Node7&#45;&gt;Node8 -->
<g id="edge9_Node000007_Node000008" class="edge">
<title>Node7&#45;&gt;Node8</title>
<g id="a_edge9_Node000007_Node000008"><a xlink:title=" ">
<path fill="none" stroke="#63b8ff" d="M160.59,-111.59C166.72,-104.24 175.42,-93.8 182.86,-84.87"/>
<polygon fill="#63b8ff" stroke="#63b8ff" points="185.32,-87.38 189.03,-77.46 179.94,-82.9 185.32,-87.38"/>
</a>
</g>
</g>
<!-- Node9 -->
<g id="Node000009" class="node">
<title>Node9</title>
<g id="a_Node000009"><a xlink:title=" ">
<polygon fill="#e0e0e0" stroke="#999999" points="281.25,-76 238.25,-76 238.25,-56 281.25,-56 281.25,-76"/>
<text text-anchor="middle" x="259.75" y="-62.5" font-family="Helvetica,sans-Serif" font-size="10.00">thread</text>
</a>
</g>
</g>
<!-- Node7&#45;&gt;Node9 -->
<g id="edge10_Node000007_Node000009" class="edge">
<title>Node7&#45;&gt;Node9</title>
<g id="a_edge10_Node000007_Node000009"><a xlink:title=" ">
<path fill="none" stroke="#63b8ff" d="M171.39,-111.59C187.78,-103.32 211.91,-91.14 230.81,-81.6"/>
<polygon fill="#63b8ff" stroke="#63b8ff" points="232.26,-84.79 239.62,-77.16 229.11,-78.54 232.26,-84.79"/>
</a>
</g>
</g>
</g>
</svg>
</svg>

<style type='text/css'>
<![CDATA[
[data-mouse-over-selected='false'] { opacity: 0.7; }
[data-mouse-over-selected='true']  { opacity: 1.0; }
]]>
</style>
<script type="application/ecmascript"><![CDATA[
document.addEventListener('DOMContentLoaded', (event) => {
  highlightEdges();
  highlightAdjacentNodes();
});
]]></script>
</svg>
