<?xml version="1.0" encoding="UTF-8" standalone="no"?>
<!DOCTYPE svg PUBLIC "-//W3C//DTD SVG 1.1//EN"
 "http://www.w3.org/Graphics/SVG/1.1/DTD/svg11.dtd">
<!-- Generated by graphviz version 12.2.1 (20241206.2353)
 -->
<!-- Title: src/extras.h Pages: 1 -->
<svg width="452pt" height="140pt"
 viewBox="0.00 0.00 451.75 140.00" xmlns="http://www.w3.org/2000/svg" xmlns:xlink="http://www.w3.org/1999/xlink">
<g id="graph0" class="graph" transform="scale(1 1) rotate(0) translate(4 136)">
<title>src/extras.h</title>
<!-- Node1 -->
<g id="Node000001" class="node">
<title>Node1</title>
<g id="a_Node000001"><a xlink:title=" ">
<polygon fill="#999999" stroke="#666666" points="312.25,-132 244.5,-132 244.5,-112 312.25,-112 312.25,-132"/>
<text text-anchor="middle" x="278.38" y="-118.5" font-family="Helvetica,sans-Serif" font-size="10.00">src/extras.h</text>
</a>
</g>
</g>
<!-- Node2 -->
<g id="Node000002" class="node">
<title>Node2</title>
<g id="a_Node000002"><a xlink:href="entities_8cpp.html" target="_top" xlink:title=" ">
<polygon fill="white" stroke="#666666" points="82.75,-76 0,-76 0,-56 82.75,-56 82.75,-76"/>
<text text-anchor="middle" x="41.38" y="-62.5" font-family="Helvetica,sans-Serif" font-size="10.00">src/entities.cpp</text>
</a>
</g>
</g>
<!-- Node1&#45;&gt;Node2 -->
<g id="edge1_Node000001_Node000002" class="edge">
<title>Node1&#45;&gt;Node2</title>
<g id="a_edge1_Node000001_Node000002"><a xlink:title=" ">
<path fill="none" stroke="#63b8ff" d="M233.08,-110.68C189.7,-100.79 124.78,-86 82.75,-76.43"/>
<polygon fill="#63b8ff" stroke="#63b8ff" points="232.16,-114.06 242.69,-112.87 233.72,-107.24 232.16,-114.06"/>
</a>
</g>
</g>
<!-- Node3 -->
<g id="Node000003" class="node">
<title>Node3</title>
<g id="a_Node000003"><a xlink:href="extras_8cpp.html" target="_top" xlink:title=" ">
<polygon fill="white" stroke="#666666" points="179.5,-76 101.25,-76 101.25,-56 179.5,-56 179.5,-76"/>
<text text-anchor="middle" x="140.38" y="-62.5" font-family="Helvetica,sans-Serif" font-size="10.00">src/extras.cpp</text>
</a>
</g>
</g>
<!-- Node1&#45;&gt;Node3 -->
<g id="edge2_Node000001_Node000003" class="edge">
<title>Node1&#45;&gt;Node3</title>
<g id="a_edge2_Node000001_Node000003"><a xlink:title=" ">
<path fill="none" stroke="#63b8ff" d="M243.62,-107.4C218.97,-97.75 186.49,-85.05 164.6,-76.48"/>
<polygon fill="#63b8ff" stroke="#63b8ff" points="242.34,-110.66 252.93,-111.04 244.89,-104.14 242.34,-110.66"/>
</a>
</g>
</g>
<!-- Node4 -->
<g id="Node000004" class="node">
<title>Node4</title>
<g id="a_Node000004"><a xlink:href="inventory_8cpp.html" target="_top" xlink:title=" ">
<polygon fill="white" stroke="#666666" points="287.5,-76 197.25,-76 197.25,-56 287.5,-56 287.5,-76"/>
<text text-anchor="middle" x="242.38" y="-62.5" font-family="Helvetica,sans-Serif" font-size="10.00">src/inventory.cpp</text>
</a>
</g>
</g>
<!-- Node1&#45;&gt;Node4 -->
<g id="edge3_Node000001_Node000004" class="edge">
<title>Node1&#45;&gt;Node4</title>
<g id="a_edge3_Node000001_Node000004"><a xlink:title=" ">
<path fill="none" stroke="#63b8ff" d="M265.81,-102.15C259.98,-93.4 253.3,-83.39 248.57,-76.3"/>
<polygon fill="#63b8ff" stroke="#63b8ff" points="262.81,-103.96 271.26,-110.33 268.63,-100.07 262.81,-103.96"/>
</a>
</g>
</g>
<!-- Node5 -->
<g id="Node000005" class="node">
<title>Node5</title>
<g id="a_Node000005"><a xlink:href="main_8cpp.html" target="_top" xlink:title=" ">
<polygon fill="white" stroke="#666666" points="361.5,-20 289.25,-20 289.25,0 361.5,0 361.5,-20"/>
<text text-anchor="middle" x="325.38" y="-6.5" font-family="Helvetica,sans-Serif" font-size="10.00">src/main.cpp</text>
</a>
</g>
</g>
<!-- Node1&#45;&gt;Node5 -->
<g id="edge4_Node000001_Node000005" class="edge">
<title>Node1&#45;&gt;Node5</title>
<g id="a_edge4_Node000001_Node000005"><a xlink:title=" ">
<path fill="none" stroke="#63b8ff" d="M286.79,-101.3C296.99,-77.43 313.76,-38.2 321.38,-20.35"/>
<polygon fill="#63b8ff" stroke="#63b8ff" points="283.69,-99.66 282.98,-110.23 290.12,-102.41 283.69,-99.66"/>
</a>
</g>
</g>
<!-- Node6 -->
<g id="Node000006" class="node">
<title>Node6</title>
<g id="a_Node000006"><a xlink:href="ui_8cpp.html" target="_top" xlink:title=" ">
<polygon fill="white" stroke="#666666" points="443.75,-20 385,-20 385,0 443.75,0 443.75,-20"/>
<text text-anchor="middle" x="414.38" y="-6.5" font-family="Helvetica,sans-Serif" font-size="10.00">src/ui.cpp</text>
</a>
</g>
</g>
<!-- Node1&#45;&gt;Node6 -->
<g id="edge5_Node000001_Node000006" class="edge">
<title>Node1&#45;&gt;Node6</title>
<g id="a_edge5_Node000001_Node000006"><a xlink:title=" ">
<path fill="none" stroke="#63b8ff" d="M323.83,-115.17C349.87,-109.46 381.1,-98.2 400.38,-76 414.15,-60.13 415.41,-33.97 414.99,-20.18"/>
<polygon fill="#63b8ff" stroke="#63b8ff" points="323.29,-111.7 314.15,-117.06 324.64,-118.57 323.29,-111.7"/>
</a>
</g>
</g>
<!-- Node7 -->
<g id="Node000007" class="node">
<title>Node7</title>
<g id="a_Node000007"><a xlink:href="ui_8h.html" target="_top" xlink:title=" ">
<polygon fill="white" stroke="#666666" points="391.5,-76 343.25,-76 343.25,-56 391.5,-56 391.5,-76"/>
<text text-anchor="middle" x="367.38" y="-62.5" font-family="Helvetica,sans-Serif" font-size="10.00">src/ui.h</text>
</a>
</g>
</g>
<!-- Node1&#45;&gt;Node7 -->
<g id="edge6_Node000001_Node000007" class="edge">
<title>Node1&#45;&gt;Node7</title>
<g id="a_edge6_Node000001_Node000007"><a xlink:title=" ">
<path fill="none" stroke="#63b8ff" d="M303.41,-105.81C318.93,-96.39 338.4,-84.58 351.75,-76.48"/>
<polygon fill="#63b8ff" stroke="#63b8ff" points="301.91,-102.63 295.17,-110.81 305.54,-108.61 301.91,-102.63"/>
</a>
</g>
</g>
<!-- Node7&#45;&gt;Node5 -->
<g id="edge7_Node000007_Node000005" class="edge">
<title>Node7&#45;&gt;Node5</title>
<g id="a_edge7_Node000007_Node000005"><a xlink:title=" ">
<path fill="none" stroke="#63b8ff" d="M353.16,-46.72C346.25,-37.84 338.24,-27.55 332.61,-20.3"/>
<polygon fill="#63b8ff" stroke="#63b8ff" points="350.23,-48.65 359.13,-54.4 355.75,-44.36 350.23,-48.65"/>
</a>
</g>
</g>
<!-- Node7&#45;&gt;Node6 -->
<g id="edge8_Node000007_Node000006" class="edge">
<title>Node7&#45;&gt;Node6</title>
<g id="a_edge8_Node000007_Node000006"><a xlink:title=" ">
<path fill="none" stroke="#63b8ff" d="M383.04,-47C390.82,-38.06 399.91,-27.62 406.28,-20.3"/>
<polygon fill="#63b8ff" stroke="#63b8ff" points="380.48,-44.61 376.56,-54.45 385.76,-49.21 380.48,-44.61"/>
</a>
</g>
</g>
</g>
</svg>
