<?xml version="1.0" encoding="UTF-8" standalone="no"?>
<!DOCTYPE svg PUBLIC "-//W3C//DTD SVG 1.1//EN"
 "http://www.w3.org/Graphics/SVG/1.1/DTD/svg11.dtd">
<!-- Generated by graphviz version 12.2.1 (20241206.2353)
 -->
<!-- Title: src/extras.cpp Pages: 1 -->
<svg width="185pt" height="140pt"
 viewBox="0.00 0.00 185.38 140.00" xmlns="http://www.w3.org/2000/svg" xmlns:xlink="http://www.w3.org/1999/xlink">
<g id="graph0" class="graph" transform="scale(1 1) rotate(0) translate(4 136)">
<title>src/extras.cpp</title>
<!-- Node1 -->
<g id="Node000001" class="node">
<title>Node1</title>
<g id="a_Node000001"><a xlink:title=" ">
<polygon fill="#999999" stroke="#666666" points="155.75,-132 77.5,-132 77.5,-112 155.75,-112 155.75,-132"/>
<text text-anchor="middle" x="116.62" y="-118.5" font-family="Helvetica,sans-Serif" font-size="10.00">src/extras.cpp</text>
</a>
</g>
</g>
<!-- Node2 -->
<g id="Node000002" class="node">
<title>Node2</title>
<g id="a_Node000002"><a xlink:href="extras_8h.html" target="_top" xlink:title=" ">
<polygon fill="white" stroke="#666666" points="110.25,-76 59,-76 59,-56 110.25,-56 110.25,-76"/>
<text text-anchor="middle" x="84.62" y="-62.5" font-family="Helvetica,sans-Serif" font-size="10.00">extras.h</text>
</a>
</g>
</g>
<!-- Node1&#45;&gt;Node2 -->
<g id="edge1_Node000001_Node000002" class="edge">
<title>Node1&#45;&gt;Node2</title>
<g id="a_edge1_Node000001_Node000002"><a xlink:title=" ">
<path fill="none" stroke="#63b8ff" d="M111.05,-111.59C106.88,-104.55 101.02,-94.67 95.88,-86"/>
<polygon fill="#63b8ff" stroke="#63b8ff" points="99.02,-84.42 90.91,-77.6 92.99,-87.99 99.02,-84.42"/>
</a>
</g>
</g>
<!-- Node6 -->
<g id="Node000006" class="node">
<title>Node6</title>
<g id="a_Node000006"><a xlink:title=" ">
<polygon fill="#e0e0e0" stroke="#999999" points="168.62,-76 128.62,-76 128.62,-56 168.62,-56 168.62,-76"/>
<text text-anchor="middle" x="148.62" y="-62.5" font-family="Helvetica,sans-Serif" font-size="10.00">string</text>
</a>
</g>
</g>
<!-- Node1&#45;&gt;Node6 -->
<g id="edge5_Node000001_Node000006" class="edge">
<title>Node1&#45;&gt;Node6</title>
<g id="a_edge5_Node000001_Node000006"><a xlink:title=" ">
<path fill="none" stroke="#63b8ff" d="M122.2,-111.59C126.37,-104.55 132.23,-94.67 137.37,-86"/>
<polygon fill="#63b8ff" stroke="#63b8ff" points="140.26,-87.99 142.34,-77.6 134.23,-84.42 140.26,-87.99"/>
</a>
</g>
</g>
<!-- Node3 -->
<g id="Node000003" class="node">
<title>Node3</title>
<g id="a_Node000003"><a xlink:title=" ">
<polygon fill="#e0e0e0" stroke="#999999" points="45.25,-20 0,-20 0,0 45.25,0 45.25,-20"/>
<text text-anchor="middle" x="22.62" y="-6.5" font-family="Helvetica,sans-Serif" font-size="10.00">chrono</text>
</a>
</g>
</g>
<!-- Node2&#45;&gt;Node3 -->
<g id="edge2_Node000002_Node000003" class="edge">
<title>Node2&#45;&gt;Node3</title>
<g id="a_edge2_Node000002_Node000003"><a xlink:title=" ">
<path fill="none" stroke="#63b8ff" d="M73.83,-55.59C65.02,-47.93 52.37,-36.91 41.85,-27.75"/>
<polygon fill="#63b8ff" stroke="#63b8ff" points="44.28,-25.22 34.44,-21.29 39.68,-30.5 44.28,-25.22"/>
</a>
</g>
</g>
<!-- Node4 -->
<g id="Node000004" class="node">
<title>Node4</title>
<g id="a_Node000004"><a xlink:title=" ">
<polygon fill="#e0e0e0" stroke="#999999" points="106.12,-20 63.12,-20 63.12,0 106.12,0 106.12,-20"/>
<text text-anchor="middle" x="84.62" y="-6.5" font-family="Helvetica,sans-Serif" font-size="10.00">thread</text>
</a>
</g>
</g>
<!-- Node2&#45;&gt;Node4 -->
<g id="edge3_Node000002_Node000004" class="edge">
<title>Node2&#45;&gt;Node4</title>
<g id="a_edge3_Node000002_Node000004"><a xlink:title=" ">
<path fill="none" stroke="#63b8ff" d="M84.62,-55.59C84.62,-49.01 84.62,-39.96 84.62,-31.73"/>
<polygon fill="#63b8ff" stroke="#63b8ff" points="88.13,-31.81 84.63,-21.81 81.13,-31.81 88.13,-31.81"/>
</a>
</g>
</g>
<!-- Node5 -->
<g id="Node000005" class="node">
<title>Node5</title>
<g id="a_Node000005"><a xlink:title=" ">
<polygon fill="#e0e0e0" stroke="#999999" points="177.38,-20 123.88,-20 123.88,0 177.38,0 177.38,-20"/>
<text text-anchor="middle" x="150.62" y="-6.5" font-family="Helvetica,sans-Serif" font-size="10.00">iostream</text>
</a>
</g>
</g>
<!-- Node2&#45;&gt;Node5 -->
<g id="edge4_Node000002_Node000005" class="edge">
<title>Node2&#45;&gt;Node5</title>
<g id="a_edge4_Node000002_Node000005"><a xlink:title=" ">
<path fill="none" stroke="#63b8ff" d="M96.12,-55.59C105.59,-47.85 119.23,-36.69 130.5,-27.47"/>
<polygon fill="#63b8ff" stroke="#63b8ff" points="132.57,-30.3 138.09,-21.26 128.13,-24.88 132.57,-30.3"/>
</a>
</g>
</g>
</g>
</svg>
