<?xml version="1.0" encoding="UTF-8" standalone="no"?>
<!DOCTYPE svg PUBLIC "-//W3C//DTD SVG 1.1//EN"
 "http://www.w3.org/Graphics/SVG/1.1/DTD/svg11.dtd">
<!-- Generated by graphviz version 12.2.1 (20241206.2353)
 -->
<!-- Title: printAnimate Pages: 1 -->
<svg width="479pt" height="256pt"
 viewBox="0.00 0.00 479.25 256.00" xmlns="http://www.w3.org/2000/svg" xmlns:xlink="http://www.w3.org/1999/xlink">

<svg id="main" version="1.1" xmlns="http://www.w3.org/2000/svg" xmlns:xlink="http://www.w3.org/1999/xlink" xml:space="preserve">

<style type="text/css"><![CDATA[
.node, .edge {opacity: 0.7;}
.node.selected, .edge.selected {opacity: 1;}
.edge:hover path { stroke: red; }
.edge:hover polygon { stroke: red; fill: red; }
]]></style>
<script type="application/ecmascript" xlink:href="svg.min.js"/>
<svg id="graph" class="graph">
<g id="graph0" class="graph" transform="scale(1 1) rotate(0) translate(4 252)">
<title>printAnimate</title>
<!-- Node1 -->
<g id="Node000001" class="node">
<title>Node1</title>
<g id="a_Node000001"><a xlink:title="Outputs a text character by character with a given delay.">
<polygon fill="#999999" stroke="#666666" points="471.25,-134 400.5,-134 400.5,-114 471.25,-114 471.25,-134"/>
<text text-anchor="middle" x="435.88" y="-120.5" font-family="Helvetica,sans-Serif" font-size="10.00">printAnimate</text>
</a>
</g>
</g>
<!-- Node2 -->
<g id="Node000002" class="node">
<title>Node2</title>
<g id="a_Node000002"><a xlink:href="class_inventory.html#a7a3d5b1157d8212186746eade80b5630" target="_top" xlink:title="Adds an item to inventory.">
<polygon fill="white" stroke="#666666" points="354.75,-248 257,-248 257,-228 354.75,-228 354.75,-248"/>
<text text-anchor="middle" x="305.88" y="-234.5" font-family="Helvetica,sans-Serif" font-size="10.00">Inventory::addItem</text>
</a>
</g>
</g>
<!-- Node1&#45;&gt;Node2 -->
<g id="edge1_Node000001_Node000002" class="edge">
<title>Node1&#45;&gt;Node2</title>
<g id="a_edge1_Node000001_Node000002"><a xlink:title=" ">
<path fill="none" stroke="#63b8ff" d="M424.79,-144.21C413.08,-165.7 391.84,-199.24 364.5,-219 359.8,-222.39 354.47,-225.21 348.98,-227.53"/>
<polygon fill="#63b8ff" stroke="#63b8ff" points="427.78,-146.04 429.32,-135.55 421.58,-142.79 427.78,-146.04"/>
</a>
</g>
</g>
<!-- Node5 -->
<g id="Node000005" class="node">
<title>Node5</title>
<g id="a_Node000005"><a xlink:href="class_first_choice.html#a219f10196fb47d36af7fad003dc54a0c" target="_top" xlink:title=" ">
<polygon fill="white" stroke="#666666" points="355.5,-210 256.25,-210 256.25,-190 355.5,-190 355.5,-210"/>
<text text-anchor="middle" x="305.88" y="-196.5" font-family="Helvetica,sans-Serif" font-size="10.00">FirstChoice::render</text>
</a>
</g>
</g>
<!-- Node1&#45;&gt;Node5 -->
<g id="edge4_Node000001_Node000005" class="edge">
<title>Node1&#45;&gt;Node5</title>
<g id="a_edge4_Node000001_Node000005"><a xlink:title=" ">
<path fill="none" stroke="#63b8ff" d="M416.45,-142.07C402.99,-154.45 383.79,-170.47 364.5,-181 358.49,-184.28 351.82,-187.12 345.2,-189.53"/>
<polygon fill="#63b8ff" stroke="#63b8ff" points="418.82,-144.65 423.68,-135.24 414.01,-139.56 418.82,-144.65"/>
</a>
</g>
</g>
<!-- Node6 -->
<g id="Node000006" class="node">
<title>Node6</title>
<g id="a_Node000006"><a xlink:href="class_game_over.html#a372e2cf047530b9726c9d805ed10970a" target="_top" xlink:title=" ">
<polygon fill="white" stroke="#666666" points="354,-172 257.75,-172 257.75,-152 354,-152 354,-172"/>
<text text-anchor="middle" x="305.88" y="-158.5" font-family="Helvetica,sans-Serif" font-size="10.00">GameOver::render</text>
</a>
</g>
</g>
<!-- Node1&#45;&gt;Node6 -->
<g id="edge5_Node000001_Node000006" class="edge">
<title>Node1&#45;&gt;Node6</title>
<g id="a_edge5_Node000001_Node000006"><a xlink:title=" ">
<path fill="none" stroke="#63b8ff" d="M389.25,-137.54C373.71,-142.16 356.58,-147.24 341.99,-151.58"/>
<polygon fill="#63b8ff" stroke="#63b8ff" points="390.2,-140.92 398.79,-134.71 388.2,-134.2 390.2,-140.92"/>
</a>
</g>
</g>
<!-- Node7 -->
<g id="Node000007" class="node">
<title>Node7</title>
<g id="a_Node000007"><a xlink:href="class_intro_dialogue.html#a6ee887834eaf65af351062e70561d261" target="_top" xlink:title=" ">
<polygon fill="white" stroke="#666666" points="359.25,-134 252.5,-134 252.5,-114 359.25,-114 359.25,-134"/>
<text text-anchor="middle" x="305.88" y="-120.5" font-family="Helvetica,sans-Serif" font-size="10.00">IntroDialogue::render</text>
</a>
</g>
</g>
<!-- Node1&#45;&gt;Node7 -->
<g id="edge6_Node000001_Node000007" class="edge">
<title>Node1&#45;&gt;Node7</title>
<g id="a_edge6_Node000001_Node000007"><a xlink:title=" ">
<path fill="none" stroke="#63b8ff" d="M388.9,-124C379.32,-124 369.14,-124 359.35,-124"/>
<polygon fill="#63b8ff" stroke="#63b8ff" points="388.72,-127.5 398.72,-124 388.72,-120.5 388.72,-127.5"/>
</a>
</g>
</g>
<!-- Node8 -->
<g id="Node000008" class="node">
<title>Node8</title>
<g id="a_Node000008"><a xlink:href="class_jovial_aftermath.html#aaef00027bea6a3124e46ee2221733819" target="_top" xlink:title=" ">
<polygon fill="white" stroke="#666666" points="364.5,-96 247.25,-96 247.25,-76 364.5,-76 364.5,-96"/>
<text text-anchor="middle" x="305.88" y="-82.5" font-family="Helvetica,sans-Serif" font-size="10.00">JovialAftermath::render</text>
</a>
</g>
</g>
<!-- Node1&#45;&gt;Node8 -->
<g id="edge7_Node000001_Node000008" class="edge">
<title>Node1&#45;&gt;Node8</title>
<g id="a_edge7_Node000001_Node000008"><a xlink:title=" ">
<path fill="none" stroke="#63b8ff" d="M389.25,-110.46C373.71,-105.84 356.58,-100.76 341.99,-96.42"/>
<polygon fill="#63b8ff" stroke="#63b8ff" points="388.2,-113.8 398.79,-113.29 390.2,-107.08 388.2,-113.8"/>
</a>
</g>
</g>
<!-- Node9 -->
<g id="Node000009" class="node">
<title>Node9</title>
<g id="a_Node000009"><a xlink:href="class_jovial_cutscene.html#a04bec76f83a74d9dd634c4cbf36038dd" target="_top" xlink:title=" ">
<polygon fill="white" stroke="#666666" points="364.12,-58 247.62,-58 247.62,-38 364.12,-38 364.12,-58"/>
<text text-anchor="middle" x="305.88" y="-44.5" font-family="Helvetica,sans-Serif" font-size="10.00">JovialCutscene::render</text>
</a>
</g>
</g>
<!-- Node1&#45;&gt;Node9 -->
<g id="edge8_Node000001_Node000009" class="edge">
<title>Node1&#45;&gt;Node9</title>
<g id="a_edge8_Node000001_Node000009"><a xlink:title=" ">
<path fill="none" stroke="#63b8ff" d="M416.45,-105.93C402.99,-93.55 383.79,-77.53 364.5,-67 358.49,-63.72 351.82,-60.88 345.2,-58.47"/>
<polygon fill="#63b8ff" stroke="#63b8ff" points="414.01,-108.44 423.68,-112.76 418.82,-103.35 414.01,-108.44"/>
</a>
</g>
</g>
<!-- Node10 -->
<g id="Node000010" class="node">
<title>Node10</title>
<g id="a_Node000010"><a xlink:href="class_main_menu.html#adeafd7b49d1f995dd25a7e952700d76c" target="_top" xlink:title=" ">
<polygon fill="white" stroke="#666666" points="352.88,-20 258.88,-20 258.88,0 352.88,0 352.88,-20"/>
<text text-anchor="middle" x="305.88" y="-6.5" font-family="Helvetica,sans-Serif" font-size="10.00">MainMenu::render</text>
</a>
</g>
</g>
<!-- Node1&#45;&gt;Node10 -->
<g id="edge9_Node000001_Node000010" class="edge">
<title>Node1&#45;&gt;Node10</title>
<g id="a_edge9_Node000001_Node000010"><a xlink:title=" ">
<path fill="none" stroke="#63b8ff" d="M424.79,-103.79C413.08,-82.3 391.84,-48.76 364.5,-29 359.8,-25.61 354.47,-22.79 348.98,-20.47"/>
<polygon fill="#63b8ff" stroke="#63b8ff" points="421.58,-105.21 429.32,-112.45 427.78,-101.96 421.58,-105.21"/>
</a>
</g>
</g>
<!-- Node3 -->
<g id="Node000003" class="node">
<title>Node3</title>
<g id="a_Node000003"><a xlink:href="class_shop.html#a6c1a27422ecdd1a5248f156f1355632b" target="_top" xlink:title="Buy an item from the shop.">
<polygon fill="white" stroke="#666666" points="211.25,-248 131.5,-248 131.5,-228 211.25,-228 211.25,-248"/>
<text text-anchor="middle" x="171.38" y="-234.5" font-family="Helvetica,sans-Serif" font-size="10.00">Shop::buyItem</text>
</a>
</g>
</g>
<!-- Node2&#45;&gt;Node3 -->
<g id="edge2_Node000002_Node000003" class="edge">
<title>Node2&#45;&gt;Node3</title>
<g id="a_edge2_Node000002_Node000003"><a xlink:title=" ">
<path fill="none" stroke="#63b8ff" d="M245.37,-238C233.94,-238 222.24,-238 211.64,-238"/>
<polygon fill="#63b8ff" stroke="#63b8ff" points="245.15,-241.5 255.15,-238 245.15,-234.5 245.15,-241.5"/>
</a>
</g>
</g>
<!-- Node4 -->
<g id="Node000004" class="node">
<title>Node4</title>
<g id="a_Node000004"><a xlink:href="class_shop_menu.html#a06bcda13b56991f97aca332030008a86" target="_top" xlink:title=" ">
<polygon fill="white" stroke="#666666" points="95.5,-248 0,-248 0,-228 95.5,-228 95.5,-248"/>
<text text-anchor="middle" x="47.75" y="-234.5" font-family="Helvetica,sans-Serif" font-size="10.00">ShopMenu::render</text>
</a>
</g>
</g>
<!-- Node3&#45;&gt;Node4 -->
<g id="edge3_Node000003_Node000004" class="edge">
<title>Node3&#45;&gt;Node4</title>
<g id="a_edge3_Node000003_Node000004"><a xlink:title=" ">
<path fill="none" stroke="#63b8ff" d="M119.85,-238C111.92,-238 103.75,-238 95.91,-238"/>
<polygon fill="#63b8ff" stroke="#63b8ff" points="119.71,-241.5 129.71,-238 119.71,-234.5 119.71,-241.5"/>
</a>
</g>
</g>
</g>
</svg>
</svg>

<style type='text/css'>
<![CDATA[
[data-mouse-over-selected='false'] { opacity: 0.7; }
[data-mouse-over-selected='true']  { opacity: 1.0; }
]]>
</style>
<script type="application/ecmascript"><![CDATA[
document.addEventListener('DOMContentLoaded', (event) => {
  highlightEdges();
  highlightAdjacentNodes();
});
]]></script>
</svg>
