<?xml version="1.0" encoding="UTF-8" standalone="no"?>
<!DOCTYPE svg PUBLIC "-//W3C//DTD SVG 1.1//EN"
 "http://www.w3.org/Graphics/SVG/1.1/DTD/svg11.dtd">
<!-- Generated by graphviz version 12.2.1 (20241206.2353)
 -->
<!-- Title: printAnimate Pages: 1 -->
<svg width="232pt" height="256pt"
 viewBox="0.00 0.00 232.00 256.00" xmlns="http://www.w3.org/2000/svg" xmlns:xlink="http://www.w3.org/1999/xlink">

<svg id="main" version="1.1" xmlns="http://www.w3.org/2000/svg" xmlns:xlink="http://www.w3.org/1999/xlink" xml:space="preserve">

<style type="text/css"><![CDATA[
.node, .edge {opacity: 0.7;}
.node.selected, .edge.selected {opacity: 1;}
.edge:hover path { stroke: red; }
.edge:hover polygon { stroke: red; fill: red; }
]]></style>
<script type="application/ecmascript" xlink:href="svg.min.js"/>
<svg id="graph" class="graph">
<g id="graph0" class="graph" transform="scale(1 1) rotate(0) translate(4 252)">
<title>printAnimate</title>
<!-- Node1 -->
<g id="Node000001" class="node">
<title>Node1</title>
<g id="a_Node000001"><a xlink:title="Outputs a text character by character with a given delay.">
<polygon fill="#999999" stroke="#666666" points="224,-134 153.25,-134 153.25,-114 224,-114 224,-134"/>
<text text-anchor="middle" x="188.62" y="-120.5" font-family="Helvetica,sans-Serif" font-size="10.00">printAnimate</text>
</a>
</g>
</g>
<!-- Node2 -->
<g id="Node000002" class="node">
<title>Node2</title>
<g id="a_Node000002"><a xlink:href="class_inventory.html#aedf68e754ecde17b6c47fee1c93da959" target="_top" xlink:title=" ">
<polygon fill="white" stroke="#666666" points="107.5,-248 9.75,-248 9.75,-228 107.5,-228 107.5,-248"/>
<text text-anchor="middle" x="58.62" y="-234.5" font-family="Helvetica,sans-Serif" font-size="10.00">Inventory::addItem</text>
</a>
</g>
</g>
<!-- Node1&#45;&gt;Node2 -->
<g id="edge1_Node000001_Node000002" class="edge">
<title>Node1&#45;&gt;Node2</title>
<g id="a_edge1_Node000001_Node000002"><a xlink:title=" ">
<path fill="none" stroke="#63b8ff" d="M177.54,-144.21C165.83,-165.7 144.59,-199.24 117.25,-219 112.55,-222.39 107.22,-225.21 101.73,-227.53"/>
<polygon fill="#63b8ff" stroke="#63b8ff" points="180.53,-146.04 182.07,-135.55 174.33,-142.79 180.53,-146.04"/>
</a>
</g>
</g>
<!-- Node3 -->
<g id="Node000003" class="node">
<title>Node3</title>
<g id="a_Node000003"><a xlink:href="class_first_choice.html#a219f10196fb47d36af7fad003dc54a0c" target="_top" xlink:title=" ">
<polygon fill="white" stroke="#666666" points="108.25,-210 9,-210 9,-190 108.25,-190 108.25,-210"/>
<text text-anchor="middle" x="58.62" y="-196.5" font-family="Helvetica,sans-Serif" font-size="10.00">FirstChoice::render</text>
</a>
</g>
</g>
<!-- Node1&#45;&gt;Node3 -->
<g id="edge2_Node000001_Node000003" class="edge">
<title>Node1&#45;&gt;Node3</title>
<g id="a_edge2_Node000001_Node000003"><a xlink:title=" ">
<path fill="none" stroke="#63b8ff" d="M169.2,-142.07C155.74,-154.45 136.54,-170.47 117.25,-181 111.24,-184.28 104.57,-187.12 97.95,-189.53"/>
<polygon fill="#63b8ff" stroke="#63b8ff" points="171.57,-144.65 176.43,-135.24 166.76,-139.56 171.57,-144.65"/>
</a>
</g>
</g>
<!-- Node4 -->
<g id="Node000004" class="node">
<title>Node4</title>
<g id="a_Node000004"><a xlink:href="class_game_over.html#a372e2cf047530b9726c9d805ed10970a" target="_top" xlink:title=" ">
<polygon fill="white" stroke="#666666" points="106.75,-172 10.5,-172 10.5,-152 106.75,-152 106.75,-172"/>
<text text-anchor="middle" x="58.62" y="-158.5" font-family="Helvetica,sans-Serif" font-size="10.00">GameOver::render</text>
</a>
</g>
</g>
<!-- Node1&#45;&gt;Node4 -->
<g id="edge3_Node000001_Node000004" class="edge">
<title>Node1&#45;&gt;Node4</title>
<g id="a_edge3_Node000001_Node000004"><a xlink:title=" ">
<path fill="none" stroke="#63b8ff" d="M142,-137.54C126.46,-142.16 109.33,-147.24 94.74,-151.58"/>
<polygon fill="#63b8ff" stroke="#63b8ff" points="142.95,-140.92 151.54,-134.71 140.95,-134.2 142.95,-140.92"/>
</a>
</g>
</g>
<!-- Node5 -->
<g id="Node000005" class="node">
<title>Node5</title>
<g id="a_Node000005"><a xlink:href="class_intro_dialogue.html#a6ee887834eaf65af351062e70561d261" target="_top" xlink:title=" ">
<polygon fill="white" stroke="#666666" points="112,-134 5.25,-134 5.25,-114 112,-114 112,-134"/>
<text text-anchor="middle" x="58.62" y="-120.5" font-family="Helvetica,sans-Serif" font-size="10.00">IntroDialogue::render</text>
</a>
</g>
</g>
<!-- Node1&#45;&gt;Node5 -->
<g id="edge4_Node000001_Node000005" class="edge">
<title>Node1&#45;&gt;Node5</title>
<g id="a_edge4_Node000001_Node000005"><a xlink:title=" ">
<path fill="none" stroke="#63b8ff" d="M141.65,-124C132.07,-124 121.89,-124 112.1,-124"/>
<polygon fill="#63b8ff" stroke="#63b8ff" points="141.47,-127.5 151.47,-124 141.47,-120.5 141.47,-127.5"/>
</a>
</g>
</g>
<!-- Node6 -->
<g id="Node000006" class="node">
<title>Node6</title>
<g id="a_Node000006"><a xlink:href="class_jovial_aftermath.html#aaef00027bea6a3124e46ee2221733819" target="_top" xlink:title=" ">
<polygon fill="white" stroke="#666666" points="117.25,-96 0,-96 0,-76 117.25,-76 117.25,-96"/>
<text text-anchor="middle" x="58.62" y="-82.5" font-family="Helvetica,sans-Serif" font-size="10.00">JovialAftermath::render</text>
</a>
</g>
</g>
<!-- Node1&#45;&gt;Node6 -->
<g id="edge5_Node000001_Node000006" class="edge">
<title>Node1&#45;&gt;Node6</title>
<g id="a_edge5_Node000001_Node000006"><a xlink:title=" ">
<path fill="none" stroke="#63b8ff" d="M142,-110.46C126.46,-105.84 109.33,-100.76 94.74,-96.42"/>
<polygon fill="#63b8ff" stroke="#63b8ff" points="140.95,-113.8 151.54,-113.29 142.95,-107.08 140.95,-113.8"/>
</a>
</g>
</g>
<!-- Node7 -->
<g id="Node000007" class="node">
<title>Node7</title>
<g id="a_Node000007"><a xlink:href="class_jovial_cutscene.html#a04bec76f83a74d9dd634c4cbf36038dd" target="_top" xlink:title=" ">
<polygon fill="white" stroke="#666666" points="116.88,-58 0.38,-58 0.38,-38 116.88,-38 116.88,-58"/>
<text text-anchor="middle" x="58.62" y="-44.5" font-family="Helvetica,sans-Serif" font-size="10.00">JovialCutscene::render</text>
</a>
</g>
</g>
<!-- Node1&#45;&gt;Node7 -->
<g id="edge6_Node000001_Node000007" class="edge">
<title>Node1&#45;&gt;Node7</title>
<g id="a_edge6_Node000001_Node000007"><a xlink:title=" ">
<path fill="none" stroke="#63b8ff" d="M169.2,-105.93C155.74,-93.55 136.54,-77.53 117.25,-67 111.24,-63.72 104.57,-60.88 97.95,-58.47"/>
<polygon fill="#63b8ff" stroke="#63b8ff" points="166.76,-108.44 176.43,-112.76 171.57,-103.35 166.76,-108.44"/>
</a>
</g>
</g>
<!-- Node8 -->
<g id="Node000008" class="node">
<title>Node8</title>
<g id="a_Node000008"><a xlink:href="class_main_menu.html#adeafd7b49d1f995dd25a7e952700d76c" target="_top" xlink:title=" ">
<polygon fill="white" stroke="#666666" points="105.62,-20 11.62,-20 11.62,0 105.62,0 105.62,-20"/>
<text text-anchor="middle" x="58.62" y="-6.5" font-family="Helvetica,sans-Serif" font-size="10.00">MainMenu::render</text>
</a>
</g>
</g>
<!-- Node1&#45;&gt;Node8 -->
<g id="edge7_Node000001_Node000008" class="edge">
<title>Node1&#45;&gt;Node8</title>
<g id="a_edge7_Node000001_Node000008"><a xlink:title=" ">
<path fill="none" stroke="#63b8ff" d="M177.54,-103.79C165.83,-82.3 144.59,-48.76 117.25,-29 112.55,-25.61 107.22,-22.79 101.73,-20.47"/>
<polygon fill="#63b8ff" stroke="#63b8ff" points="174.33,-105.21 182.07,-112.45 180.53,-101.96 174.33,-105.21"/>
</a>
</g>
</g>
</g>
</svg>
</svg>

<style type='text/css'>
<![CDATA[
[data-mouse-over-selected='false'] { opacity: 0.7; }
[data-mouse-over-selected='true']  { opacity: 1.0; }
]]>
</style>
<script type="application/ecmascript"><![CDATA[
document.addEventListener('DOMContentLoaded', (event) => {
  highlightEdges();
  highlightAdjacentNodes();
});
]]></script>
</svg>
