<?xml version="1.0" encoding="UTF-8" standalone="no"?>
<!DOCTYPE svg PUBLIC "-//W3C//DTD SVG 1.1//EN"
 "http://www.w3.org/Graphics/SVG/1.1/DTD/svg11.dtd">
<!-- Generated by graphviz version 12.2.1 (20241206.2353)
 -->
<!-- Title: printAnimate Pages: 1 -->
<svg width="479pt" height="294pt"
 viewBox="0.00 0.00 479.25 294.00" xmlns="http://www.w3.org/2000/svg" xmlns:xlink="http://www.w3.org/1999/xlink">
<g id="graph0" class="graph" transform="scale(1 1) rotate(0) translate(4 290)">
<title>printAnimate</title>
<!-- Node1 -->
<g id="Node000001" class="node">
<title>Node1</title>
<g id="a_Node000001"><a xlink:title="Outputs a text character by character with a given delay.">
<polygon fill="#999999" stroke="#666666" points="471.25,-153 400.5,-153 400.5,-133 471.25,-133 471.25,-153"/>
<text text-anchor="middle" x="435.88" y="-139.5" font-family="Helvetica,sans-Serif" font-size="10.00">printAnimate</text>
</a>
</g>
</g>
<!-- Node2 -->
<g id="Node000002" class="node">
<title>Node2</title>
<g id="a_Node000002"><a xlink:href="class_inventory.html#a7a3d5b1157d8212186746eade80b5630" target="_top" xlink:title="Adds an item to inventory.">
<polygon fill="white" stroke="#666666" points="354.75,-286 257,-286 257,-266 354.75,-266 354.75,-286"/>
<text text-anchor="middle" x="305.88" y="-272.5" font-family="Helvetica,sans-Serif" font-size="10.00">Inventory::addItem</text>
</a>
</g>
</g>
<!-- Node1&#45;&gt;Node2 -->
<g id="edge1_Node000001_Node000002" class="edge">
<title>Node1&#45;&gt;Node2</title>
<g id="a_edge1_Node000001_Node000002"><a xlink:title=" ">
<path fill="none" stroke="#63b8ff" d="M427.22,-163.85C416.83,-189.38 395.87,-232.25 364.5,-257 360.12,-260.46 355.08,-263.3 349.85,-265.63"/>
<polygon fill="#63b8ff" stroke="#63b8ff" points="430.46,-165.17 430.82,-154.58 423.94,-162.64 430.46,-165.17"/>
</a>
</g>
</g>
<!-- Node5 -->
<g id="Node000005" class="node">
<title>Node5</title>
<g id="a_Node000005"><a xlink:href="class_entity.html#ac3b0ce2f491774836ca4894d6a058539" target="_top" xlink:title=" ">
<polygon fill="white" stroke="#666666" points="348.75,-248 263,-248 263,-228 348.75,-228 348.75,-248"/>
<text text-anchor="middle" x="305.88" y="-234.5" font-family="Helvetica,sans-Serif" font-size="10.00">Entity::fullyHeal</text>
</a>
</g>
</g>
<!-- Node1&#45;&gt;Node5 -->
<g id="edge4_Node000001_Node000005" class="edge">
<title>Node1&#45;&gt;Node5</title>
<g id="a_edge4_Node000001_Node000005"><a xlink:title=" ">
<path fill="none" stroke="#63b8ff" d="M421.31,-162.51C408.48,-179.63 387.77,-204.05 364.5,-219 359.27,-222.36 353.39,-225.18 347.44,-227.53"/>
<polygon fill="#63b8ff" stroke="#63b8ff" points="423.99,-164.78 427.02,-154.63 418.32,-160.68 423.99,-164.78"/>
</a>
</g>
</g>
<!-- Node6 -->
<g id="Node000006" class="node">
<title>Node6</title>
<g id="a_Node000006"><a xlink:href="class_first_choice.html#a219f10196fb47d36af7fad003dc54a0c" target="_top" xlink:title=" ">
<polygon fill="white" stroke="#666666" points="355.5,-210 256.25,-210 256.25,-190 355.5,-190 355.5,-210"/>
<text text-anchor="middle" x="305.88" y="-196.5" font-family="Helvetica,sans-Serif" font-size="10.00">FirstChoice::render</text>
</a>
</g>
</g>
<!-- Node1&#45;&gt;Node6 -->
<g id="edge5_Node000001_Node000006" class="edge">
<title>Node1&#45;&gt;Node6</title>
<g id="a_edge5_Node000001_Node000006"><a xlink:title=" ">
<path fill="none" stroke="#63b8ff" d="M408.02,-158.95C395.13,-166.23 379.29,-174.63 364.5,-181 357.34,-184.08 349.51,-186.97 341.98,-189.52"/>
<polygon fill="#63b8ff" stroke="#63b8ff" points="409.42,-162.18 416.35,-154.16 405.93,-156.11 409.42,-162.18"/>
</a>
</g>
</g>
<!-- Node7 -->
<g id="Node000007" class="node">
<title>Node7</title>
<g id="a_Node000007"><a xlink:href="class_game_over.html#a372e2cf047530b9726c9d805ed10970a" target="_top" xlink:title=" ">
<polygon fill="white" stroke="#666666" points="354,-172 257.75,-172 257.75,-152 354,-152 354,-172"/>
<text text-anchor="middle" x="305.88" y="-158.5" font-family="Helvetica,sans-Serif" font-size="10.00">GameOver::render</text>
</a>
</g>
</g>
<!-- Node1&#45;&gt;Node7 -->
<g id="edge6_Node000001_Node000007" class="edge">
<title>Node1&#45;&gt;Node7</title>
<g id="a_edge6_Node000001_Node000007"><a xlink:title=" ">
<path fill="none" stroke="#63b8ff" d="M389.17,-149.78C377.77,-151.48 365.51,-153.3 354.04,-155"/>
<polygon fill="#63b8ff" stroke="#63b8ff" points="389.36,-153.29 398.74,-148.36 388.33,-146.37 389.36,-153.29"/>
</a>
</g>
</g>
<!-- Node8 -->
<g id="Node000008" class="node">
<title>Node8</title>
<g id="a_Node000008"><a xlink:href="class_intro_dialogue.html#a6ee887834eaf65af351062e70561d261" target="_top" xlink:title=" ">
<polygon fill="white" stroke="#666666" points="359.25,-134 252.5,-134 252.5,-114 359.25,-114 359.25,-134"/>
<text text-anchor="middle" x="305.88" y="-120.5" font-family="Helvetica,sans-Serif" font-size="10.00">IntroDialogue::render</text>
</a>
</g>
</g>
<!-- Node1&#45;&gt;Node8 -->
<g id="edge7_Node000001_Node000008" class="edge">
<title>Node1&#45;&gt;Node8</title>
<g id="a_edge7_Node000001_Node000008"><a xlink:title=" ">
<path fill="none" stroke="#63b8ff" d="M388.9,-136.18C379.32,-134.75 369.14,-133.24 359.35,-131.79"/>
<polygon fill="#63b8ff" stroke="#63b8ff" points="388.33,-139.63 398.74,-137.64 389.36,-132.71 388.33,-139.63"/>
</a>
</g>
</g>
<!-- Node9 -->
<g id="Node000009" class="node">
<title>Node9</title>
<g id="a_Node000009"><a xlink:href="class_jovial_aftermath.html#aaef00027bea6a3124e46ee2221733819" target="_top" xlink:title=" ">
<polygon fill="white" stroke="#666666" points="364.5,-96 247.25,-96 247.25,-76 364.5,-76 364.5,-96"/>
<text text-anchor="middle" x="305.88" y="-82.5" font-family="Helvetica,sans-Serif" font-size="10.00">JovialAftermath::render</text>
</a>
</g>
</g>
<!-- Node1&#45;&gt;Node9 -->
<g id="edge8_Node000001_Node000009" class="edge">
<title>Node1&#45;&gt;Node9</title>
<g id="a_edge8_Node000001_Node000009"><a xlink:title=" ">
<path fill="none" stroke="#63b8ff" d="M408.02,-127.05C395.13,-119.77 379.29,-111.37 364.5,-105 357.34,-101.92 349.51,-99.03 341.98,-96.48"/>
<polygon fill="#63b8ff" stroke="#63b8ff" points="405.93,-129.89 416.35,-131.84 409.42,-123.82 405.93,-129.89"/>
</a>
</g>
</g>
<!-- Node10 -->
<g id="Node000010" class="node">
<title>Node10</title>
<g id="a_Node000010"><a xlink:href="class_jovial_cutscene.html#a04bec76f83a74d9dd634c4cbf36038dd" target="_top" xlink:title=" ">
<polygon fill="white" stroke="#666666" points="364.12,-58 247.62,-58 247.62,-38 364.12,-38 364.12,-58"/>
<text text-anchor="middle" x="305.88" y="-44.5" font-family="Helvetica,sans-Serif" font-size="10.00">JovialCutscene::render</text>
</a>
</g>
</g>
<!-- Node1&#45;&gt;Node10 -->
<g id="edge9_Node000001_Node000010" class="edge">
<title>Node1&#45;&gt;Node10</title>
<g id="a_edge9_Node000001_Node000010"><a xlink:title=" ">
<path fill="none" stroke="#63b8ff" d="M421.31,-123.49C408.48,-106.37 387.77,-81.95 364.5,-67 359.27,-63.64 353.39,-60.82 347.44,-58.47"/>
<polygon fill="#63b8ff" stroke="#63b8ff" points="418.32,-125.32 427.02,-131.37 423.99,-121.22 418.32,-125.32"/>
</a>
</g>
</g>
<!-- Node11 -->
<g id="Node000011" class="node">
<title>Node11</title>
<g id="a_Node000011"><a xlink:href="class_main_menu.html#adeafd7b49d1f995dd25a7e952700d76c" target="_top" xlink:title=" ">
<polygon fill="white" stroke="#666666" points="352.88,-20 258.88,-20 258.88,0 352.88,0 352.88,-20"/>
<text text-anchor="middle" x="305.88" y="-6.5" font-family="Helvetica,sans-Serif" font-size="10.00">MainMenu::render</text>
</a>
</g>
</g>
<!-- Node1&#45;&gt;Node11 -->
<g id="edge10_Node000001_Node000011" class="edge">
<title>Node1&#45;&gt;Node11</title>
<g id="a_edge10_Node000001_Node000011"><a xlink:title=" ">
<path fill="none" stroke="#63b8ff" d="M427.22,-122.15C416.83,-96.62 395.87,-53.75 364.5,-29 360.12,-25.54 355.08,-22.7 349.85,-20.37"/>
<polygon fill="#63b8ff" stroke="#63b8ff" points="423.94,-123.36 430.82,-131.42 430.46,-120.83 423.94,-123.36"/>
</a>
</g>
</g>
<!-- Node3 -->
<g id="Node000003" class="node">
<title>Node3</title>
<g id="a_Node000003"><a xlink:href="class_shop.html#a6c1a27422ecdd1a5248f156f1355632b" target="_top" xlink:title="Buy an item from the shop.">
<polygon fill="white" stroke="#666666" points="211.25,-286 131.5,-286 131.5,-266 211.25,-266 211.25,-286"/>
<text text-anchor="middle" x="171.38" y="-272.5" font-family="Helvetica,sans-Serif" font-size="10.00">Shop::buyItem</text>
</a>
</g>
</g>
<!-- Node2&#45;&gt;Node3 -->
<g id="edge2_Node000002_Node000003" class="edge">
<title>Node2&#45;&gt;Node3</title>
<g id="a_edge2_Node000002_Node000003"><a xlink:title=" ">
<path fill="none" stroke="#63b8ff" d="M245.37,-276C233.94,-276 222.24,-276 211.64,-276"/>
<polygon fill="#63b8ff" stroke="#63b8ff" points="245.15,-279.5 255.15,-276 245.15,-272.5 245.15,-279.5"/>
</a>
</g>
</g>
<!-- Node4 -->
<g id="Node000004" class="node">
<title>Node4</title>
<g id="a_Node000004"><a xlink:href="class_shop_menu.html#a06bcda13b56991f97aca332030008a86" target="_top" xlink:title=" ">
<polygon fill="white" stroke="#666666" points="95.5,-286 0,-286 0,-266 95.5,-266 95.5,-286"/>
<text text-anchor="middle" x="47.75" y="-272.5" font-family="Helvetica,sans-Serif" font-size="10.00">ShopMenu::render</text>
</a>
</g>
</g>
<!-- Node3&#45;&gt;Node4 -->
<g id="edge3_Node000003_Node000004" class="edge">
<title>Node3&#45;&gt;Node4</title>
<g id="a_edge3_Node000003_Node000004"><a xlink:title=" ">
<path fill="none" stroke="#63b8ff" d="M119.85,-276C111.92,-276 103.75,-276 95.91,-276"/>
<polygon fill="#63b8ff" stroke="#63b8ff" points="119.71,-279.5 129.71,-276 119.71,-272.5 119.71,-279.5"/>
</a>
</g>
</g>
</g>
</svg>
