<?xml version="1.0" encoding="UTF-8" standalone="no"?>
<!DOCTYPE svg PUBLIC "-//W3C//DTD SVG 1.1//EN"
 "http://www.w3.org/Graphics/SVG/1.1/DTD/svg11.dtd">
<!-- Generated by graphviz version 12.2.1 (20241206.2353)
 -->
<!-- Title: src/extras.h Pages: 1 -->
<svg width="521pt" height="140pt"
 viewBox="0.00 0.00 520.75 140.00" xmlns="http://www.w3.org/2000/svg" xmlns:xlink="http://www.w3.org/1999/xlink">
<g id="graph0" class="graph" transform="scale(1 1) rotate(0) translate(4 136)">
<title>src/extras.h</title>
<!-- Node1 -->
<g id="Node000001" class="node">
<title>Node1</title>
<g id="a_Node000001"><a xlink:title=" ">
<polygon fill="#999999" stroke="#666666" points="349.25,-132 281.5,-132 281.5,-112 349.25,-112 349.25,-132"/>
<text text-anchor="middle" x="315.38" y="-118.5" font-family="Helvetica,sans-Serif" font-size="10.00">src/extras.h</text>
</a>
</g>
</g>
<!-- Node2 -->
<g id="Node000002" class="node">
<title>Node2</title>
<g id="a_Node000002"><a xlink:href="entities_8cpp.html" target="_top" xlink:title=" ">
<polygon fill="white" stroke="#666666" points="82.75,-76 0,-76 0,-56 82.75,-56 82.75,-76"/>
<text text-anchor="middle" x="41.38" y="-62.5" font-family="Helvetica,sans-Serif" font-size="10.00">src/entities.cpp</text>
</a>
</g>
</g>
<!-- Node1&#45;&gt;Node2 -->
<g id="edge1_Node000001_Node000002" class="edge">
<title>Node1&#45;&gt;Node2</title>
<g id="a_edge1_Node000001_Node000002"><a xlink:title=" ">
<path fill="none" stroke="#63b8ff" d="M270.02,-112.06C218.04,-101.82 133.56,-85.17 83.14,-75.23"/>
<polygon fill="#63b8ff" stroke="#63b8ff" points="269.25,-115.48 279.74,-113.98 270.61,-108.61 269.25,-115.48"/>
</a>
</g>
</g>
<!-- Node3 -->
<g id="Node000003" class="node">
<title>Node3</title>
<g id="a_Node000003"><a xlink:href="extras_8cpp.html" target="_top" xlink:title=" ">
<polygon fill="white" stroke="#666666" points="179.5,-76 101.25,-76 101.25,-56 179.5,-56 179.5,-76"/>
<text text-anchor="middle" x="140.38" y="-62.5" font-family="Helvetica,sans-Serif" font-size="10.00">src/extras.cpp</text>
</a>
</g>
</g>
<!-- Node1&#45;&gt;Node3 -->
<g id="edge2_Node000001_Node000003" class="edge">
<title>Node1&#45;&gt;Node3</title>
<g id="a_edge2_Node000001_Node000003"><a xlink:title=" ">
<path fill="none" stroke="#63b8ff" d="M274.23,-108.31C242.65,-98.56 199.73,-85.32 171.1,-76.48"/>
<polygon fill="#63b8ff" stroke="#63b8ff" points="272.86,-111.54 283.45,-111.15 274.92,-104.85 272.86,-111.54"/>
</a>
</g>
</g>
<!-- Node4 -->
<g id="Node000004" class="node">
<title>Node4</title>
<g id="a_Node000004"><a xlink:href="inventory_8cpp.html" target="_top" xlink:title=" ">
<polygon fill="white" stroke="#666666" points="287.5,-76 197.25,-76 197.25,-56 287.5,-56 287.5,-76"/>
<text text-anchor="middle" x="242.38" y="-62.5" font-family="Helvetica,sans-Serif" font-size="10.00">src/inventory.cpp</text>
</a>
</g>
</g>
<!-- Node1&#45;&gt;Node4 -->
<g id="edge3_Node000001_Node000004" class="edge">
<title>Node1&#45;&gt;Node4</title>
<g id="a_edge3_Node000001_Node000004"><a xlink:title=" ">
<path fill="none" stroke="#63b8ff" d="M293.68,-104.95C281.06,-95.61 265.58,-84.16 254.94,-76.3"/>
<polygon fill="#63b8ff" stroke="#63b8ff" points="291.32,-107.56 301.44,-110.69 295.48,-101.93 291.32,-107.56"/>
</a>
</g>
</g>
<!-- Node5 -->
<g id="Node000005" class="node">
<title>Node5</title>
<g id="a_Node000005"><a xlink:href="main_8cpp.html" target="_top" xlink:title=" ">
<polygon fill="white" stroke="#666666" points="406.5,-20 334.25,-20 334.25,0 406.5,0 406.5,-20"/>
<text text-anchor="middle" x="370.38" y="-6.5" font-family="Helvetica,sans-Serif" font-size="10.00">src/main.cpp</text>
</a>
</g>
</g>
<!-- Node1&#45;&gt;Node5 -->
<g id="edge4_Node000001_Node000005" class="edge">
<title>Node1&#45;&gt;Node5</title>
<g id="a_edge4_Node000001_Node000005"><a xlink:title=" ">
<path fill="none" stroke="#63b8ff" d="M319.2,-100.57C322.18,-87.36 327.06,-70.07 334.38,-56 341.48,-42.33 353.07,-28.82 361.17,-20.23"/>
<polygon fill="#63b8ff" stroke="#63b8ff" points="315.79,-99.76 317.21,-110.26 322.65,-101.17 315.79,-99.76"/>
</a>
</g>
</g>
<!-- Node6 -->
<g id="Node000006" class="node">
<title>Node6</title>
<g id="a_Node000006"><a xlink:href="shop_8cpp.html" target="_top" xlink:title=" ">
<polygon fill="white" stroke="#666666" points="415.5,-76 343.25,-76 343.25,-56 415.5,-56 415.5,-76"/>
<text text-anchor="middle" x="379.38" y="-62.5" font-family="Helvetica,sans-Serif" font-size="10.00">src/shop.cpp</text>
</a>
</g>
</g>
<!-- Node1&#45;&gt;Node6 -->
<g id="edge5_Node000001_Node000006" class="edge">
<title>Node1&#45;&gt;Node6</title>
<g id="a_edge5_Node000001_Node000006"><a xlink:title=" ">
<path fill="none" stroke="#63b8ff" d="M335.05,-104.4C345.99,-95.17 359.22,-84.01 368.35,-76.3"/>
<polygon fill="#63b8ff" stroke="#63b8ff" points="333.07,-101.49 327.68,-110.62 337.58,-106.84 333.07,-101.49"/>
</a>
</g>
</g>
<!-- Node7 -->
<g id="Node000007" class="node">
<title>Node7</title>
<g id="a_Node000007"><a xlink:href="ui_8cpp.html" target="_top" xlink:title=" ">
<polygon fill="white" stroke="#666666" points="512.75,-20 454,-20 454,0 512.75,0 512.75,-20"/>
<text text-anchor="middle" x="483.38" y="-6.5" font-family="Helvetica,sans-Serif" font-size="10.00">src/ui.cpp</text>
</a>
</g>
</g>
<!-- Node1&#45;&gt;Node7 -->
<g id="edge6_Node000001_Node000007" class="edge">
<title>Node1&#45;&gt;Node7</title>
<g id="a_edge6_Node000001_Node000007"><a xlink:title=" ">
<path fill="none" stroke="#63b8ff" d="M360.75,-115.63C407.15,-109.09 474.6,-96.34 490.38,-76 503.03,-59.68 494.15,-33.71 487.96,-20.06"/>
<polygon fill="#63b8ff" stroke="#63b8ff" points="360.39,-112.15 350.95,-116.96 361.33,-119.08 360.39,-112.15"/>
</a>
</g>
</g>
<!-- Node8 -->
<g id="Node000008" class="node">
<title>Node8</title>
<g id="a_Node000008"><a xlink:href="ui_8h.html" target="_top" xlink:title=" ">
<polygon fill="white" stroke="#666666" points="481.5,-76 433.25,-76 433.25,-56 481.5,-56 481.5,-76"/>
<text text-anchor="middle" x="457.38" y="-62.5" font-family="Helvetica,sans-Serif" font-size="10.00">src/ui.h</text>
</a>
</g>
</g>
<!-- Node1&#45;&gt;Node8 -->
<g id="edge7_Node000001_Node000008" class="edge">
<title>Node1&#45;&gt;Node8</title>
<g id="a_edge7_Node000001_Node000008"><a xlink:title=" ">
<path fill="none" stroke="#63b8ff" d="M350.86,-107.51C376.44,-97.78 410.31,-84.9 432.92,-76.3"/>
<polygon fill="#63b8ff" stroke="#63b8ff" points="349.63,-104.23 341.52,-111.06 352.12,-110.77 349.63,-104.23"/>
</a>
</g>
</g>
<!-- Node8&#45;&gt;Node5 -->
<g id="edge8_Node000008_Node000005" class="edge">
<title>Node8&#45;&gt;Node5</title>
<g id="a_edge8_Node000008_Node000005"><a xlink:title=" ">
<path fill="none" stroke="#63b8ff" d="M432.47,-49.54C417.37,-40.17 398.58,-28.51 385.65,-20.48"/>
<polygon fill="#63b8ff" stroke="#63b8ff" points="430.59,-52.5 440.93,-54.8 434.28,-46.55 430.59,-52.5"/>
</a>
</g>
</g>
<!-- Node8&#45;&gt;Node7 -->
<g id="edge9_Node000008_Node000007" class="edge">
<title>Node8&#45;&gt;Node7</title>
<g id="a_edge9_Node000008_Node000007"><a xlink:title=" ">
<path fill="none" stroke="#63b8ff" d="M466.86,-45.29C470.98,-36.75 475.59,-27.16 478.9,-20.3"/>
<polygon fill="#63b8ff" stroke="#63b8ff" points="463.75,-43.7 462.56,-54.23 470.05,-46.74 463.75,-43.7"/>
</a>
</g>
</g>
</g>
</svg>
