<?xml version="1.0" encoding="UTF-8" standalone="no"?>
<!DOCTYPE svg PUBLIC "-//W3C//DTD SVG 1.1//EN"
 "http://www.w3.org/Graphics/SVG/1.1/DTD/svg11.dtd">
<!-- Generated by graphviz version 12.2.1 (20241206.2353)
 -->
<!-- Title: inputNum Pages: 1 -->
<svg width="201pt" height="180pt"
 viewBox="0.00 0.00 201.25 180.00" xmlns="http://www.w3.org/2000/svg" xmlns:xlink="http://www.w3.org/1999/xlink">

<svg id="main" version="1.1" xmlns="http://www.w3.org/2000/svg" xmlns:xlink="http://www.w3.org/1999/xlink" xml:space="preserve">

<style type="text/css"><![CDATA[
.node, .edge {opacity: 0.7;}
.node.selected, .edge.selected {opacity: 1;}
.edge:hover path { stroke: red; }
.edge:hover polygon { stroke: red; fill: red; }
]]></style>
<script type="application/ecmascript" xlink:href="svg.min.js"/>
<svg id="graph" class="graph">
<g id="graph0" class="graph" transform="scale(1 1) rotate(0) translate(4 176)">
<title>inputNum</title>
<!-- Node1 -->
<g id="Node000001" class="node">
<title>Node1</title>
<g id="a_Node000001"><a xlink:title="Gets an integer from the user. Loops until a valid integer is entered.">
<polygon fill="#999999" stroke="#666666" points="193.25,-96 135.25,-96 135.25,-76 193.25,-76 193.25,-96"/>
<text text-anchor="middle" x="164.25" y="-82.5" font-family="Helvetica,sans-Serif" font-size="10.00">inputNum</text>
</a>
</g>
</g>
<!-- Node2 -->
<g id="Node000002" class="node">
<title>Node2</title>
<g id="a_Node000002"><a xlink:href="class_battle.html#adf42eb4c2a1cead28eb8eee71b139418" target="_top" xlink:title=" ">
<polygon fill="white" stroke="#666666" points="86.88,-172 12.38,-172 12.38,-152 86.88,-152 86.88,-172"/>
<text text-anchor="middle" x="49.62" y="-158.5" font-family="Helvetica,sans-Serif" font-size="10.00">Battle::render</text>
</a>
</g>
</g>
<!-- Node1&#45;&gt;Node2 -->
<g id="edge1_Node000001_Node000002" class="edge">
<title>Node1&#45;&gt;Node2</title>
<g id="a_edge1_Node000001_Node000002"><a xlink:title=" ">
<path fill="none" stroke="#63b8ff" d="M145.83,-104.65C133.68,-116.82 116.6,-132.36 99.25,-143 94,-146.22 88.1,-149.07 82.28,-151.52"/>
<polygon fill="#63b8ff" stroke="#63b8ff" points="148.23,-107.2 152.68,-97.59 143.21,-102.32 148.23,-107.2"/>
</a>
</g>
</g>
<!-- Node3 -->
<g id="Node000003" class="node">
<title>Node3</title>
<g id="a_Node000003"><a xlink:href="class_first_choice.html#a219f10196fb47d36af7fad003dc54a0c" target="_top" xlink:title=" ">
<polygon fill="white" stroke="#666666" points="99.25,-134 0,-134 0,-114 99.25,-114 99.25,-134"/>
<text text-anchor="middle" x="49.62" y="-120.5" font-family="Helvetica,sans-Serif" font-size="10.00">FirstChoice::render</text>
</a>
</g>
</g>
<!-- Node1&#45;&gt;Node3 -->
<g id="edge2_Node000001_Node000003" class="edge">
<title>Node1&#45;&gt;Node3</title>
<g id="a_edge2_Node000001_Node000003"><a xlink:title=" ">
<path fill="none" stroke="#63b8ff" d="M124.04,-99.23C110.08,-103.94 94.56,-109.17 81.41,-113.61"/>
<polygon fill="#63b8ff" stroke="#63b8ff" points="125.04,-102.59 133.4,-96.07 122.8,-95.95 125.04,-102.59"/>
</a>
</g>
</g>
<!-- Node4 -->
<g id="Node000004" class="node">
<title>Node4</title>
<g id="a_Node000004"><a xlink:href="class_main_menu.html#adeafd7b49d1f995dd25a7e952700d76c" target="_top" xlink:title=" ">
<polygon fill="white" stroke="#666666" points="96.62,-96 2.62,-96 2.62,-76 96.62,-76 96.62,-96"/>
<text text-anchor="middle" x="49.62" y="-82.5" font-family="Helvetica,sans-Serif" font-size="10.00">MainMenu::render</text>
</a>
</g>
</g>
<!-- Node1&#45;&gt;Node4 -->
<g id="edge3_Node000001_Node000004" class="edge">
<title>Node1&#45;&gt;Node4</title>
<g id="a_edge3_Node000001_Node000004"><a xlink:title=" ">
<path fill="none" stroke="#63b8ff" d="M123.56,-86C114.97,-86 105.82,-86 97,-86"/>
<polygon fill="#63b8ff" stroke="#63b8ff" points="123.32,-89.5 133.32,-86 123.32,-82.5 123.32,-89.5"/>
</a>
</g>
</g>
<!-- Node5 -->
<g id="Node000005" class="node">
<title>Node5</title>
<g id="a_Node000005"><a xlink:href="class_shop_menu.html#a06bcda13b56991f97aca332030008a86" target="_top" xlink:title=" ">
<polygon fill="white" stroke="#666666" points="97.38,-58 1.88,-58 1.88,-38 97.38,-38 97.38,-58"/>
<text text-anchor="middle" x="49.62" y="-44.5" font-family="Helvetica,sans-Serif" font-size="10.00">ShopMenu::render</text>
</a>
</g>
</g>
<!-- Node1&#45;&gt;Node5 -->
<g id="edge4_Node000001_Node000005" class="edge">
<title>Node1&#45;&gt;Node5</title>
<g id="a_edge4_Node000001_Node000005"><a xlink:title=" ">
<path fill="none" stroke="#63b8ff" d="M124.04,-72.77C110.08,-68.06 94.56,-62.83 81.41,-58.39"/>
<polygon fill="#63b8ff" stroke="#63b8ff" points="122.8,-76.05 133.4,-75.93 125.04,-69.41 122.8,-76.05"/>
</a>
</g>
</g>
<!-- Node6 -->
<g id="Node000006" class="node">
<title>Node6</title>
<g id="a_Node000006"><a xlink:href="class_start_menu.html#a306c6344f45d665ff008f6c0d3849e84" target="_top" xlink:title=" ">
<polygon fill="white" stroke="#666666" points="96.62,-20 2.62,-20 2.62,0 96.62,0 96.62,-20"/>
<text text-anchor="middle" x="49.62" y="-6.5" font-family="Helvetica,sans-Serif" font-size="10.00">StartMenu::render</text>
</a>
</g>
</g>
<!-- Node1&#45;&gt;Node6 -->
<g id="edge5_Node000001_Node000006" class="edge">
<title>Node1&#45;&gt;Node6</title>
<g id="a_edge5_Node000001_Node000006"><a xlink:title=" ">
<path fill="none" stroke="#63b8ff" d="M145.83,-67.35C133.68,-55.18 116.6,-39.64 99.25,-29 94,-25.78 88.1,-22.93 82.28,-20.48"/>
<polygon fill="#63b8ff" stroke="#63b8ff" points="143.21,-69.68 152.68,-74.41 148.23,-64.8 143.21,-69.68"/>
</a>
</g>
</g>
</g>
</svg>
</svg>

<style type='text/css'>
<![CDATA[
[data-mouse-over-selected='false'] { opacity: 0.7; }
[data-mouse-over-selected='true']  { opacity: 1.0; }
]]>
</style>
<script type="application/ecmascript"><![CDATA[
document.addEventListener('DOMContentLoaded', (event) => {
  highlightEdges();
  highlightAdjacentNodes();
});
]]></script>
</svg>
