<?xml version="1.0" encoding="UTF-8" standalone="no"?>
<!DOCTYPE svg PUBLIC "-//W3C//DTD SVG 1.1//EN"
 "http://www.w3.org/Graphics/SVG/1.1/DTD/svg11.dtd">
<!-- Generated by graphviz version 12.2.1 (20241206.2353)
 -->
<!-- Title: inputNum Pages: 1 -->
<svg width="201pt" height="142pt"
 viewBox="0.00 0.00 201.25 142.00" xmlns="http://www.w3.org/2000/svg" xmlns:xlink="http://www.w3.org/1999/xlink">
<g id="graph0" class="graph" transform="scale(1 1) rotate(0) translate(4 138)">
<title>inputNum</title>
<!-- Node1 -->
<g id="Node000001" class="node">
<title>Node1</title>
<g id="a_Node000001"><a xlink:title="Gets an integer from the user. Loops until a valid integer is entered.">
<polygon fill="#999999" stroke="#666666" points="193.25,-77 135.25,-77 135.25,-57 193.25,-57 193.25,-77"/>
<text text-anchor="middle" x="164.25" y="-63.5" font-family="Helvetica,sans-Serif" font-size="10.00">inputNum</text>
</a>
</g>
</g>
<!-- Node2 -->
<g id="Node000002" class="node">
<title>Node2</title>
<g id="a_Node000002"><a xlink:href="class_battle.html#adf42eb4c2a1cead28eb8eee71b139418" target="_top" xlink:title=" ">
<polygon fill="white" stroke="#666666" points="86.88,-134 12.38,-134 12.38,-114 86.88,-114 86.88,-134"/>
<text text-anchor="middle" x="49.62" y="-120.5" font-family="Helvetica,sans-Serif" font-size="10.00">Battle::render</text>
</a>
</g>
</g>
<!-- Node1&#45;&gt;Node2 -->
<g id="edge1_Node000001_Node000002" class="edge">
<title>Node1&#45;&gt;Node2</title>
<g id="a_edge1_Node000001_Node000002"><a xlink:title=" ">
<path fill="none" stroke="#63b8ff" d="M137.91,-83.34C126.36,-90.45 112.36,-98.6 99.25,-105 93.06,-108.02 86.26,-110.92 79.76,-113.51"/>
<polygon fill="#63b8ff" stroke="#63b8ff" points="139.45,-86.51 146.06,-78.24 135.73,-80.58 139.45,-86.51"/>
</a>
</g>
</g>
<!-- Node3 -->
<g id="Node000003" class="node">
<title>Node3</title>
<g id="a_Node000003"><a xlink:href="class_first_choice.html#a219f10196fb47d36af7fad003dc54a0c" target="_top" xlink:title=" ">
<polygon fill="white" stroke="#666666" points="99.25,-96 0,-96 0,-76 99.25,-76 99.25,-96"/>
<text text-anchor="middle" x="49.62" y="-82.5" font-family="Helvetica,sans-Serif" font-size="10.00">FirstChoice::render</text>
</a>
</g>
</g>
<!-- Node1&#45;&gt;Node3 -->
<g id="edge2_Node000001_Node000003" class="edge">
<title>Node1&#45;&gt;Node3</title>
<g id="a_edge2_Node000001_Node000003"><a xlink:title=" ">
<path fill="none" stroke="#63b8ff" d="M123.54,-73.7C115.81,-75 107.62,-76.38 99.63,-77.73"/>
<polygon fill="#63b8ff" stroke="#63b8ff" points="124.06,-77.16 133.34,-72.05 122.89,-70.26 124.06,-77.16"/>
</a>
</g>
</g>
<!-- Node4 -->
<g id="Node000004" class="node">
<title>Node4</title>
<g id="a_Node000004"><a xlink:href="class_main_menu.html#adeafd7b49d1f995dd25a7e952700d76c" target="_top" xlink:title=" ">
<polygon fill="white" stroke="#666666" points="96.62,-58 2.62,-58 2.62,-38 96.62,-38 96.62,-58"/>
<text text-anchor="middle" x="49.62" y="-44.5" font-family="Helvetica,sans-Serif" font-size="10.00">MainMenu::render</text>
</a>
</g>
</g>
<!-- Node1&#45;&gt;Node4 -->
<g id="edge3_Node000001_Node000004" class="edge">
<title>Node1&#45;&gt;Node4</title>
<g id="a_edge3_Node000001_Node000004"><a xlink:title=" ">
<path fill="none" stroke="#63b8ff" d="M123.56,-60.3C114.97,-58.86 105.82,-57.31 97,-55.82"/>
<polygon fill="#63b8ff" stroke="#63b8ff" points="122.89,-63.74 133.34,-61.95 124.06,-56.84 122.89,-63.74"/>
</a>
</g>
</g>
<!-- Node5 -->
<g id="Node000005" class="node">
<title>Node5</title>
<g id="a_Node000005"><a xlink:href="class_start_menu.html#a306c6344f45d665ff008f6c0d3849e84" target="_top" xlink:title=" ">
<polygon fill="white" stroke="#666666" points="96.62,-20 2.62,-20 2.62,0 96.62,0 96.62,-20"/>
<text text-anchor="middle" x="49.62" y="-6.5" font-family="Helvetica,sans-Serif" font-size="10.00">StartMenu::render</text>
</a>
</g>
</g>
<!-- Node1&#45;&gt;Node5 -->
<g id="edge4_Node000001_Node000005" class="edge">
<title>Node1&#45;&gt;Node5</title>
<g id="a_edge4_Node000001_Node000005"><a xlink:title=" ">
<path fill="none" stroke="#63b8ff" d="M137.91,-50.66C126.36,-43.55 112.36,-35.4 99.25,-29 93.06,-25.98 86.26,-23.08 79.76,-20.49"/>
<polygon fill="#63b8ff" stroke="#63b8ff" points="135.73,-53.42 146.06,-55.76 139.45,-47.49 135.73,-53.42"/>
</a>
</g>
</g>
</g>
</svg>
