<?xml version="1.0" encoding="UTF-8" standalone="no"?>
<!DOCTYPE svg PUBLIC "-//W3C//DTD SVG 1.1//EN"
 "http://www.w3.org/Graphics/SVG/1.1/DTD/svg11.dtd">
<!-- Generated by graphviz version 12.2.1 (20241206.2353)
 -->
<!-- Title: colorizeText Pages: 1 -->
<svg width="479pt" height="218pt"
 viewBox="0.00 0.00 479.25 218.00" xmlns="http://www.w3.org/2000/svg" xmlns:xlink="http://www.w3.org/1999/xlink">
<g id="graph0" class="graph" transform="scale(1 1) rotate(0) translate(4 214)">
<title>colorizeText</title>
<!-- Node1 -->
<g id="Node000001" class="node">
<title>Node1</title>
<g id="a_Node000001"><a xlink:title="Colors text.">
<polygon fill="#999999" stroke="#666666" points="471.25,-115 402.75,-115 402.75,-95 471.25,-95 471.25,-115"/>
<text text-anchor="middle" x="437" y="-101.5" font-family="Helvetica,sans-Serif" font-size="10.00">colorizeText</text>
</a>
</g>
</g>
<!-- Node2 -->
<g id="Node000002" class="node">
<title>Node2</title>
<g id="a_Node000002"><a xlink:href="class_player.html#a86ad66429e7bf8ef4640bac1d0f3476f" target="_top" xlink:title=" ">
<polygon fill="white" stroke="#666666" points="355.5,-210 260.75,-210 260.75,-190 355.5,-190 355.5,-210"/>
<text text-anchor="middle" x="308.12" y="-196.5" font-family="Helvetica,sans-Serif" font-size="10.00">Player::addMoney</text>
</a>
</g>
</g>
<!-- Node1&#45;&gt;Node2 -->
<g id="edge1_Node000001_Node000002" class="edge">
<title>Node1&#45;&gt;Node2</title>
<g id="a_edge1_Node000001_Node000002"><a xlink:title=" ">
<path fill="none" stroke="#63b8ff" d="M420.96,-124.27C407.97,-139.89 387.99,-161.59 366.75,-176 358.77,-181.42 349.37,-185.97 340.51,-189.6"/>
<polygon fill="#63b8ff" stroke="#63b8ff" points="423.57,-126.61 427.14,-116.63 418.13,-122.2 423.57,-126.61"/>
</a>
</g>
</g>
<!-- Node3 -->
<g id="Node000003" class="node">
<title>Node3</title>
<g id="a_Node000003"><a xlink:href="class_shop.html#a6c1a27422ecdd1a5248f156f1355632b" target="_top" xlink:title="Buy an item from the shop.">
<polygon fill="white" stroke="#666666" points="212.38,-172 132.62,-172 132.62,-152 212.38,-152 212.38,-172"/>
<text text-anchor="middle" x="172.5" y="-158.5" font-family="Helvetica,sans-Serif" font-size="10.00">Shop::buyItem</text>
</a>
</g>
</g>
<!-- Node1&#45;&gt;Node3 -->
<g id="edge4_Node000001_Node000003" class="edge">
<title>Node1&#45;&gt;Node3</title>
<g id="a_edge4_Node000001_Node000003"><a xlink:title=" ">
<path fill="none" stroke="#63b8ff" d="M396.98,-119.07C387.19,-122.29 376.66,-125.5 366.75,-128 314.07,-141.31 252.02,-151.23 212.72,-156.82"/>
<polygon fill="#63b8ff" stroke="#63b8ff" points="397.85,-122.47 406.21,-115.95 395.61,-115.84 397.85,-122.47"/>
</a>
</g>
</g>
<!-- Node5 -->
<g id="Node000005" class="node">
<title>Node5</title>
<g id="a_Node000005"><a xlink:href="class_shop.html#ac213488671e8d976d97c3530e691fd44" target="_top" xlink:title=" ">
<polygon fill="white" stroke="#666666" points="213.5,-134 131.5,-134 131.5,-114 213.5,-114 213.5,-134"/>
<text text-anchor="middle" x="172.5" y="-120.5" font-family="Helvetica,sans-Serif" font-size="10.00">Shop::listItems</text>
</a>
</g>
</g>
<!-- Node1&#45;&gt;Node5 -->
<g id="edge5_Node000001_Node000005" class="edge">
<title>Node1&#45;&gt;Node5</title>
<g id="a_edge5_Node000001_Node000005"><a xlink:title=" ">
<path fill="none" stroke="#63b8ff" d="M391.11,-108.25C341.26,-111.86 261.54,-117.63 213.68,-121.09"/>
<polygon fill="#63b8ff" stroke="#63b8ff" points="391.26,-111.75 400.98,-107.53 390.75,-104.77 391.26,-111.75"/>
</a>
</g>
</g>
<!-- Node6 -->
<g id="Node000006" class="node">
<title>Node6</title>
<g id="a_Node000006"><a xlink:href="class_gamble_menu.html#a16377eb3720ba932d95c302ff8212372" target="_top" xlink:title=" ">
<polygon fill="white" stroke="#666666" points="361.5,-96 254.75,-96 254.75,-76 361.5,-76 361.5,-96"/>
<text text-anchor="middle" x="308.12" y="-82.5" font-family="Helvetica,sans-Serif" font-size="10.00">GambleMenu::render</text>
</a>
</g>
</g>
<!-- Node1&#45;&gt;Node6 -->
<g id="edge7_Node000001_Node000006" class="edge">
<title>Node1&#45;&gt;Node6</title>
<g id="a_edge7_Node000001_Node000006"><a xlink:title=" ">
<path fill="none" stroke="#63b8ff" d="M391.08,-98.27C381.55,-96.85 371.41,-95.33 361.62,-93.86"/>
<polygon fill="#63b8ff" stroke="#63b8ff" points="390.43,-101.71 400.84,-99.73 391.46,-94.79 390.43,-101.71"/>
</a>
</g>
</g>
<!-- Node7 -->
<g id="Node000007" class="node">
<title>Node7</title>
<g id="a_Node000007"><a xlink:href="class_jovial_aftermath.html#aaef00027bea6a3124e46ee2221733819" target="_top" xlink:title=" ">
<polygon fill="white" stroke="#666666" points="366.75,-58 249.5,-58 249.5,-38 366.75,-38 366.75,-58"/>
<text text-anchor="middle" x="308.12" y="-44.5" font-family="Helvetica,sans-Serif" font-size="10.00">JovialAftermath::render</text>
</a>
</g>
</g>
<!-- Node1&#45;&gt;Node7 -->
<g id="edge8_Node000001_Node000007" class="edge">
<title>Node1&#45;&gt;Node7</title>
<g id="a_edge8_Node000001_Node000007"><a xlink:title=" ">
<path fill="none" stroke="#63b8ff" d="M409.23,-88.81C396.61,-81.57 381.19,-73.28 366.75,-67 359.6,-63.89 351.77,-60.99 344.25,-58.44"/>
<polygon fill="#63b8ff" stroke="#63b8ff" points="407.38,-91.78 417.78,-93.81 410.91,-85.74 407.38,-91.78"/>
</a>
</g>
</g>
<!-- Node8 -->
<g id="Node000008" class="node">
<title>Node8</title>
<g id="a_Node000008"><a xlink:href="class_jovial_cutscene.html#a04bec76f83a74d9dd634c4cbf36038dd" target="_top" xlink:title=" ">
<polygon fill="white" stroke="#666666" points="366.38,-20 249.88,-20 249.88,0 366.38,0 366.38,-20"/>
<text text-anchor="middle" x="308.12" y="-6.5" font-family="Helvetica,sans-Serif" font-size="10.00">JovialCutscene::render</text>
</a>
</g>
</g>
<!-- Node1&#45;&gt;Node8 -->
<g id="edge9_Node000001_Node000008" class="edge">
<title>Node1&#45;&gt;Node8</title>
<g id="a_edge9_Node000001_Node000008"><a xlink:title=" ">
<path fill="none" stroke="#63b8ff" d="M422.72,-85.48C410.14,-68.36 389.79,-43.94 366.75,-29 361.53,-25.62 355.66,-22.79 349.71,-20.43"/>
<polygon fill="#63b8ff" stroke="#63b8ff" points="419.67,-87.23 428.31,-93.35 425.37,-83.17 419.67,-87.23"/>
</a>
</g>
</g>
<!-- Node2&#45;&gt;Node3 -->
<g id="edge2_Node000002_Node000003" class="edge">
<title>Node2&#45;&gt;Node3</title>
<g id="a_edge2_Node000002_Node000003"><a xlink:title=" ">
<path fill="none" stroke="#63b8ff" d="M259.38,-186.42C243.21,-181.82 225.42,-176.77 210.25,-172.45"/>
<polygon fill="#63b8ff" stroke="#63b8ff" points="258.23,-189.73 268.8,-189.1 260.14,-183 258.23,-189.73"/>
</a>
</g>
</g>
<!-- Node4 -->
<g id="Node000004" class="node">
<title>Node4</title>
<g id="a_Node000004"><a xlink:href="class_shop_menu.html#a06bcda13b56991f97aca332030008a86" target="_top" xlink:title=" ">
<polygon fill="white" stroke="#666666" points="95.5,-153 0,-153 0,-133 95.5,-133 95.5,-153"/>
<text text-anchor="middle" x="47.75" y="-139.5" font-family="Helvetica,sans-Serif" font-size="10.00">ShopMenu::render</text>
</a>
</g>
</g>
<!-- Node3&#45;&gt;Node4 -->
<g id="edge3_Node000003_Node000004" class="edge">
<title>Node3&#45;&gt;Node4</title>
<g id="a_edge3_Node000003_Node000004"><a xlink:title=" ">
<path fill="none" stroke="#63b8ff" d="M121.11,-154.2C112.7,-152.9 104.02,-151.55 95.71,-150.27"/>
<polygon fill="#63b8ff" stroke="#63b8ff" points="120.41,-157.63 130.83,-155.7 121.48,-150.72 120.41,-157.63"/>
</a>
</g>
</g>
<!-- Node5&#45;&gt;Node4 -->
<g id="edge6_Node000005_Node000004" class="edge">
<title>Node5&#45;&gt;Node4</title>
<g id="a_edge6_Node000005_Node000004"><a xlink:title=" ">
<path fill="none" stroke="#63b8ff" d="M120.14,-131.95C112.1,-133.19 103.81,-134.48 95.86,-135.71"/>
<polygon fill="#63b8ff" stroke="#63b8ff" points="120.46,-135.44 129.81,-130.45 119.39,-128.52 120.46,-135.44"/>
</a>
</g>
</g>
</g>
</svg>
