<?xml version="1.0" encoding="UTF-8" standalone="no"?>
<!DOCTYPE svg PUBLIC "-//W3C//DTD SVG 1.1//EN"
 "http://www.w3.org/Graphics/SVG/1.1/DTD/svg11.dtd">
<!-- Generated by graphviz version 12.2.1 (20241206.2353)
 -->
<!-- Title: colorizeText Pages: 1 -->
<svg width="230pt" height="142pt"
 viewBox="0.00 0.00 229.75 142.00" xmlns="http://www.w3.org/2000/svg" xmlns:xlink="http://www.w3.org/1999/xlink">
<g id="graph0" class="graph" transform="scale(1 1) rotate(0) translate(4 138)">
<title>colorizeText</title>
<!-- Node1 -->
<g id="Node000001" class="node">
<title>Node1</title>
<g id="a_Node000001"><a xlink:title="Colors text.">
<polygon fill="#999999" stroke="#666666" points="221.75,-77 153.25,-77 153.25,-57 221.75,-57 221.75,-77"/>
<text text-anchor="middle" x="187.5" y="-63.5" font-family="Helvetica,sans-Serif" font-size="10.00">colorizeText</text>
</a>
</g>
</g>
<!-- Node2 -->
<g id="Node000002" class="node">
<title>Node2</title>
<g id="a_Node000002"><a xlink:href="class_player.html#a86ad66429e7bf8ef4640bac1d0f3476f" target="_top" xlink:title=" ">
<polygon fill="white" stroke="#666666" points="106,-134 11.25,-134 11.25,-114 106,-114 106,-134"/>
<text text-anchor="middle" x="58.62" y="-120.5" font-family="Helvetica,sans-Serif" font-size="10.00">Player::addMoney</text>
</a>
</g>
</g>
<!-- Node1&#45;&gt;Node2 -->
<g id="edge1_Node000001_Node000002" class="edge">
<title>Node1&#45;&gt;Node2</title>
<g id="a_edge1_Node000001_Node000002"><a xlink:title=" ">
<path fill="none" stroke="#63b8ff" d="M159.73,-83.19C147.11,-90.43 131.69,-98.72 117.25,-105 110.1,-108.11 102.27,-111.01 94.75,-113.56"/>
<polygon fill="#63b8ff" stroke="#63b8ff" points="161.41,-86.26 168.28,-78.19 157.88,-80.22 161.41,-86.26"/>
</a>
</g>
</g>
<!-- Node3 -->
<g id="Node000003" class="node">
<title>Node3</title>
<g id="a_Node000003"><a xlink:href="class_gamble_menu.html#a16377eb3720ba932d95c302ff8212372" target="_top" xlink:title=" ">
<polygon fill="white" stroke="#666666" points="112,-96 5.25,-96 5.25,-76 112,-76 112,-96"/>
<text text-anchor="middle" x="58.62" y="-82.5" font-family="Helvetica,sans-Serif" font-size="10.00">GambleMenu::render</text>
</a>
</g>
</g>
<!-- Node1&#45;&gt;Node3 -->
<g id="edge2_Node000001_Node000003" class="edge">
<title>Node1&#45;&gt;Node3</title>
<g id="a_edge2_Node000001_Node000003"><a xlink:title=" ">
<path fill="none" stroke="#63b8ff" d="M141.58,-73.73C132.05,-75.15 121.91,-76.67 112.12,-78.14"/>
<polygon fill="#63b8ff" stroke="#63b8ff" points="141.96,-77.21 151.34,-72.27 140.93,-70.29 141.96,-77.21"/>
</a>
</g>
</g>
<!-- Node4 -->
<g id="Node000004" class="node">
<title>Node4</title>
<g id="a_Node000004"><a xlink:href="class_jovial_aftermath.html#aaef00027bea6a3124e46ee2221733819" target="_top" xlink:title=" ">
<polygon fill="white" stroke="#666666" points="117.25,-58 0,-58 0,-38 117.25,-38 117.25,-58"/>
<text text-anchor="middle" x="58.62" y="-44.5" font-family="Helvetica,sans-Serif" font-size="10.00">JovialAftermath::render</text>
</a>
</g>
</g>
<!-- Node1&#45;&gt;Node4 -->
<g id="edge3_Node000001_Node000004" class="edge">
<title>Node1&#45;&gt;Node4</title>
<g id="a_edge3_Node000001_Node000004"><a xlink:title=" ">
<path fill="none" stroke="#63b8ff" d="M141.71,-60.29C133.88,-59.12 125.63,-57.88 117.5,-56.67"/>
<polygon fill="#63b8ff" stroke="#63b8ff" points="140.93,-63.71 151.34,-61.73 141.96,-56.79 140.93,-63.71"/>
</a>
</g>
</g>
<!-- Node5 -->
<g id="Node000005" class="node">
<title>Node5</title>
<g id="a_Node000005"><a xlink:href="class_jovial_cutscene.html#a04bec76f83a74d9dd634c4cbf36038dd" target="_top" xlink:title=" ">
<polygon fill="white" stroke="#666666" points="116.88,-20 0.38,-20 0.38,0 116.88,0 116.88,-20"/>
<text text-anchor="middle" x="58.62" y="-6.5" font-family="Helvetica,sans-Serif" font-size="10.00">JovialCutscene::render</text>
</a>
</g>
</g>
<!-- Node1&#45;&gt;Node5 -->
<g id="edge4_Node000001_Node000005" class="edge">
<title>Node1&#45;&gt;Node5</title>
<g id="a_edge4_Node000001_Node000005"><a xlink:title=" ">
<path fill="none" stroke="#63b8ff" d="M159.73,-50.81C147.11,-43.57 131.69,-35.28 117.25,-29 110.1,-25.89 102.27,-22.99 94.75,-20.44"/>
<polygon fill="#63b8ff" stroke="#63b8ff" points="157.88,-53.78 168.28,-55.81 161.41,-47.74 157.88,-53.78"/>
</a>
</g>
</g>
</g>
</svg>
