<?xml version="1.0" encoding="UTF-8" standalone="no"?>
<!DOCTYPE svg PUBLIC "-//W3C//DTD SVG 1.1//EN"
 "http://www.w3.org/Graphics/SVG/1.1/DTD/svg11.dtd">
<!-- Generated by graphviz version 12.2.1 (20241206.2353)
 -->
<!-- Title: Graphical Class Hierarchy Pages: 1 -->
<svg width="347pt" height="104pt"
 viewBox="0.00 0.00 347.25 104.00" xmlns="http://www.w3.org/2000/svg" xmlns:xlink="http://www.w3.org/1999/xlink">
<g id="graph0" class="graph" transform="scale(1 1) rotate(0) translate(4 100)">
<title>Graphical Class Hierarchy</title>
<!-- Node0 -->
<g id="Node000000" class="node">
<title>Node0</title>
<g id="a_Node000000"><a xlink:href="class_i_item.html" target="_top" xlink:title="Base class for all items in the game.">
<polygon fill="white" stroke="#666666" points="38.5,-39 0,-39 0,-19 38.5,-19 38.5,-39"/>
<text text-anchor="middle" x="19.25" y="-25.5" font-family="Helvetica,sans-Serif" font-size="10.00">IItem</text>
</a>
</g>
</g>
<!-- Node1 -->
<g id="Node000001" class="node">
<title>Node1</title>
<g id="a_Node000001"><a xlink:href="class_i_enemy_item.html" target="_top" xlink:title="Enemy items. The use function takes in a player and an enemy.">
<polygon fill="white" stroke="#666666" points="143.75,-58 74.5,-58 74.5,-38 143.75,-38 143.75,-58"/>
<text text-anchor="middle" x="109.12" y="-44.5" font-family="Helvetica,sans-Serif" font-size="10.00">IEnemyItem</text>
</a>
</g>
</g>
<!-- Node0&#45;&gt;Node1 -->
<g id="edge2_Node000000_Node000001" class="edge">
<title>Node0&#45;&gt;Node1</title>
<g id="a_edge2_Node000000_Node000001"><a xlink:title=" ">
<path fill="none" stroke="#63b8ff" d="M50.05,-35.44C57.83,-37.13 66.28,-38.95 74.26,-40.68"/>
<polygon fill="#63b8ff" stroke="#63b8ff" points="50.88,-32.04 40.37,-33.35 49.4,-38.88 50.88,-32.04"/>
</a>
</g>
</g>
<!-- Node5 -->
<g id="Node000005" class="node">
<title>Node5</title>
<g id="a_Node000005"><a xlink:href="class_i_player_item.html" target="_top" xlink:title="Player items. The use function takes in a player only.">
<polygon fill="white" stroke="#666666" points="142.25,-20 76,-20 76,0 142.25,0 142.25,-20"/>
<text text-anchor="middle" x="109.12" y="-6.5" font-family="Helvetica,sans-Serif" font-size="10.00">IPlayerItem</text>
</a>
</g>
</g>
<!-- Node0&#45;&gt;Node5 -->
<g id="edge6_Node000000_Node000005" class="edge">
<title>Node0&#45;&gt;Node5</title>
<g id="a_edge6_Node000000_Node000005"><a xlink:title=" ">
<path fill="none" stroke="#63b8ff" d="M49.94,-22.58C58.21,-20.79 67.24,-18.84 75.67,-17.02"/>
<polygon fill="#63b8ff" stroke="#63b8ff" points="49.4,-19.12 40.37,-24.65 50.88,-25.96 49.4,-19.12"/>
</a>
</g>
</g>
<!-- Node2 -->
<g id="Node000002" class="node">
<title>Node2</title>
<g id="a_Node000002"><a xlink:href="class_weapon.html" target="_top" xlink:title="Weapons set the type to &quot;Weapon&quot; and implement the use function cuz all weapons attack lmao.">
<polygon fill="white" stroke="#666666" points="231,-58 179.75,-58 179.75,-38 231,-38 231,-58"/>
<text text-anchor="middle" x="205.38" y="-44.5" font-family="Helvetica,sans-Serif" font-size="10.00">Weapon</text>
</a>
</g>
</g>
<!-- Node1&#45;&gt;Node2 -->
<g id="edge3_Node000001_Node000002" class="edge">
<title>Node1&#45;&gt;Node2</title>
<g id="a_edge3_Node000001_Node000002"><a xlink:title=" ">
<path fill="none" stroke="#63b8ff" d="M155.55,-48C163.72,-48 171.95,-48 179.27,-48"/>
<polygon fill="#63b8ff" stroke="#63b8ff" points="155.66,-44.5 145.66,-48 155.66,-51.5 155.66,-44.5"/>
</a>
</g>
</g>
<!-- Node3 -->
<g id="Node000003" class="node">
<title>Node3</title>
<g id="a_Node000003"><a xlink:href="class_cool_stick.html" target="_top" xlink:title="The Cool Stick is the first weapon the player gets.">
<polygon fill="white" stroke="#666666" points="332.5,-96 273.75,-96 273.75,-76 332.5,-76 332.5,-96"/>
<text text-anchor="middle" x="303.12" y="-82.5" font-family="Helvetica,sans-Serif" font-size="10.00">CoolStick</text>
</a>
</g>
</g>
<!-- Node2&#45;&gt;Node3 -->
<g id="edge4_Node000002_Node000003" class="edge">
<title>Node2&#45;&gt;Node3</title>
<g id="a_edge4_Node000002_Node000003"><a xlink:title=" ">
<path fill="none" stroke="#63b8ff" d="M241.52,-61.95C252.88,-66.46 265.27,-71.37 275.87,-75.58"/>
<polygon fill="#63b8ff" stroke="#63b8ff" points="243.03,-58.78 232.44,-58.34 240.44,-65.29 243.03,-58.78"/>
</a>
</g>
</g>
<!-- Node4 -->
<g id="Node000004" class="node">
<title>Node4</title>
<g id="a_Node000004"><a xlink:href="class_yamato.html" target="_top" xlink:title="The OP weapon of the game, the Yamato!!!">
<polygon fill="white" stroke="#666666" points="327.62,-58 278.62,-58 278.62,-38 327.62,-38 327.62,-58"/>
<text text-anchor="middle" x="303.12" y="-44.5" font-family="Helvetica,sans-Serif" font-size="10.00">Yamato</text>
</a>
</g>
</g>
<!-- Node2&#45;&gt;Node4 -->
<g id="edge5_Node000002_Node000004" class="edge">
<title>Node2&#45;&gt;Node4</title>
<g id="a_edge5_Node000002_Node000004"><a xlink:title=" ">
<path fill="none" stroke="#63b8ff" d="M242.51,-48C254.45,-48 267.42,-48 278.21,-48"/>
<polygon fill="#63b8ff" stroke="#63b8ff" points="242.55,-44.5 232.55,-48 242.55,-51.5 242.55,-44.5"/>
</a>
</g>
</g>
<!-- Node6 -->
<g id="Node000006" class="node">
<title>Node6</title>
<g id="a_Node000006"><a xlink:href="class_i_potion.html" target="_top" xlink:title="Potions set the type to &quot;Potion&quot;.">
<polygon fill="white" stroke="#666666" points="228.75,-20 182,-20 182,0 228.75,0 228.75,-20"/>
<text text-anchor="middle" x="205.38" y="-6.5" font-family="Helvetica,sans-Serif" font-size="10.00">IPotion</text>
</a>
</g>
</g>
<!-- Node5&#45;&gt;Node6 -->
<g id="edge7_Node000005_Node000006" class="edge">
<title>Node5&#45;&gt;Node6</title>
<g id="a_edge7_Node000005_Node000006"><a xlink:title=" ">
<path fill="none" stroke="#63b8ff" d="M154.04,-10C163.6,-10 173.35,-10 181.69,-10"/>
<polygon fill="#63b8ff" stroke="#63b8ff" points="154.07,-6.5 144.07,-10 154.07,-13.5 154.07,-6.5"/>
</a>
</g>
</g>
<!-- Node7 -->
<g id="Node000007" class="node">
<title>Node7</title>
<g id="a_Node000007"><a xlink:href="class_health_potion.html" target="_top" xlink:title="Health potions heal the player of course.">
<polygon fill="white" stroke="#666666" points="339.25,-20 267,-20 267,0 339.25,0 339.25,-20"/>
<text text-anchor="middle" x="303.12" y="-6.5" font-family="Helvetica,sans-Serif" font-size="10.00">HealthPotion</text>
</a>
</g>
</g>
<!-- Node6&#45;&gt;Node7 -->
<g id="edge8_Node000006_Node000007" class="edge">
<title>Node6&#45;&gt;Node7</title>
<g id="a_edge8_Node000006_Node000007"><a xlink:title=" ">
<path fill="none" stroke="#63b8ff" d="M240.29,-10C248.91,-10 258.18,-10 266.87,-10"/>
<polygon fill="#63b8ff" stroke="#63b8ff" points="240.58,-6.5 230.58,-10 240.58,-13.5 240.58,-6.5"/>
</a>
</g>
</g>
</g>
</svg>
