<?xml version="1.0" encoding="UTF-8" standalone="no"?>
<!DOCTYPE svg PUBLIC "-//W3C//DTD SVG 1.1//EN"
 "http://www.w3.org/Graphics/SVG/1.1/DTD/svg11.dtd">
<!-- Generated by graphviz version 12.2.1 (20241206.2353)
 -->
<!-- Title: Graphical Class Hierarchy Pages: 1 -->
<svg width="356pt" height="142pt"
 viewBox="0.00 0.00 355.50 142.00" xmlns="http://www.w3.org/2000/svg" xmlns:xlink="http://www.w3.org/1999/xlink">
<g id="graph0" class="graph" transform="scale(1 1) rotate(0) translate(4 138)">
<title>Graphical Class Hierarchy</title>
<!-- Node0 -->
<g id="Node000000" class="node">
<title>Node0</title>
<g id="a_Node000000"><a xlink:href="class_i_item.html" target="_top" xlink:title="Base class for all items in the game.">
<polygon fill="white" stroke="#666666" points="38.5,-77 0,-77 0,-57 38.5,-57 38.5,-77"/>
<text text-anchor="middle" x="19.25" y="-63.5" font-family="Helvetica,sans-Serif" font-size="10.00">IItem</text>
</a>
</g>
</g>
<!-- Node1 -->
<g id="Node000001" class="node">
<title>Node1</title>
<g id="a_Node000001"><a xlink:href="class_i_enemy_item.html" target="_top" xlink:title="Enemy items. The use function takes in a player and an enemy.">
<polygon fill="white" stroke="#666666" points="143.75,-96 74.5,-96 74.5,-76 143.75,-76 143.75,-96"/>
<text text-anchor="middle" x="109.12" y="-82.5" font-family="Helvetica,sans-Serif" font-size="10.00">IEnemyItem</text>
</a>
</g>
</g>
<!-- Node0&#45;&gt;Node1 -->
<g id="edge2_Node000000_Node000001" class="edge">
<title>Node0&#45;&gt;Node1</title>
<g id="a_edge2_Node000000_Node000001"><a xlink:title=" ">
<path fill="none" stroke="#63b8ff" d="M50.05,-73.44C57.83,-75.13 66.28,-76.95 74.26,-78.68"/>
<polygon fill="#63b8ff" stroke="#63b8ff" points="50.88,-70.04 40.37,-71.35 49.4,-76.88 50.88,-70.04"/>
</a>
</g>
</g>
<!-- Node5 -->
<g id="Node000005" class="node">
<title>Node5</title>
<g id="a_Node000005"><a xlink:href="class_i_player_item.html" target="_top" xlink:title="Player items. The use function takes in a player only.">
<polygon fill="white" stroke="#666666" points="142.25,-58 76,-58 76,-38 142.25,-38 142.25,-58"/>
<text text-anchor="middle" x="109.12" y="-44.5" font-family="Helvetica,sans-Serif" font-size="10.00">IPlayerItem</text>
</a>
</g>
</g>
<!-- Node0&#45;&gt;Node5 -->
<g id="edge6_Node000000_Node000005" class="edge">
<title>Node0&#45;&gt;Node5</title>
<g id="a_edge6_Node000000_Node000005"><a xlink:title=" ">
<path fill="none" stroke="#63b8ff" d="M49.94,-60.58C58.21,-58.79 67.24,-56.84 75.67,-55.02"/>
<polygon fill="#63b8ff" stroke="#63b8ff" points="49.4,-57.12 40.37,-62.65 50.88,-63.96 49.4,-57.12"/>
</a>
</g>
</g>
<!-- Node2 -->
<g id="Node000002" class="node">
<title>Node2</title>
<g id="a_Node000002"><a xlink:href="class_weapon.html" target="_top" xlink:title="Weapons set the type to &quot;Weapon&quot; and implement the use function cuz all weapons attack lmao.">
<polygon fill="white" stroke="#666666" points="231,-96 179.75,-96 179.75,-76 231,-76 231,-96"/>
<text text-anchor="middle" x="205.38" y="-82.5" font-family="Helvetica,sans-Serif" font-size="10.00">Weapon</text>
</a>
</g>
</g>
<!-- Node1&#45;&gt;Node2 -->
<g id="edge3_Node000001_Node000002" class="edge">
<title>Node1&#45;&gt;Node2</title>
<g id="a_edge3_Node000001_Node000002"><a xlink:title=" ">
<path fill="none" stroke="#63b8ff" d="M155.55,-86C163.72,-86 171.95,-86 179.27,-86"/>
<polygon fill="#63b8ff" stroke="#63b8ff" points="155.66,-82.5 145.66,-86 155.66,-89.5 155.66,-82.5"/>
</a>
</g>
</g>
<!-- Node3 -->
<g id="Node000003" class="node">
<title>Node3</title>
<g id="a_Node000003"><a xlink:href="class_cool_stick.html" target="_top" xlink:title="The Cool Stick is the first weapon the player gets.">
<polygon fill="white" stroke="#666666" points="336.62,-134 277.88,-134 277.88,-114 336.62,-114 336.62,-134"/>
<text text-anchor="middle" x="307.25" y="-120.5" font-family="Helvetica,sans-Serif" font-size="10.00">CoolStick</text>
</a>
</g>
</g>
<!-- Node2&#45;&gt;Node3 -->
<g id="edge4_Node000002_Node000003" class="edge">
<title>Node2&#45;&gt;Node3</title>
<g id="a_edge4_Node000002_Node000003"><a xlink:title=" ">
<path fill="none" stroke="#63b8ff" d="M242,-99.56C254.11,-104.16 267.45,-109.24 278.82,-113.56"/>
<polygon fill="#63b8ff" stroke="#63b8ff" points="243.33,-96.31 232.73,-96.03 240.84,-102.86 243.33,-96.31"/>
</a>
</g>
</g>
<!-- Node4 -->
<g id="Node000004" class="node">
<title>Node4</title>
<g id="a_Node000004"><a xlink:href="class_yamato.html" target="_top" xlink:title="The OP weapon of the game, the Yamato!!!">
<polygon fill="white" stroke="#666666" points="331.75,-96 282.75,-96 282.75,-76 331.75,-76 331.75,-96"/>
<text text-anchor="middle" x="307.25" y="-82.5" font-family="Helvetica,sans-Serif" font-size="10.00">Yamato</text>
</a>
</g>
</g>
<!-- Node2&#45;&gt;Node4 -->
<g id="edge5_Node000002_Node000004" class="edge">
<title>Node2&#45;&gt;Node4</title>
<g id="a_edge5_Node000002_Node000004"><a xlink:title=" ">
<path fill="none" stroke="#63b8ff" d="M242.49,-86C255.74,-86 270.39,-86 282.31,-86"/>
<polygon fill="#63b8ff" stroke="#63b8ff" points="242.83,-82.5 232.83,-86 242.83,-89.5 242.83,-82.5"/>
</a>
</g>
</g>
<!-- Node6 -->
<g id="Node000006" class="node">
<title>Node6</title>
<g id="a_Node000006"><a xlink:href="class_i_potion.html" target="_top" xlink:title="Potions set the type to &quot;Potion&quot;.">
<polygon fill="white" stroke="#666666" points="228.75,-58 182,-58 182,-38 228.75,-38 228.75,-58"/>
<text text-anchor="middle" x="205.38" y="-44.5" font-family="Helvetica,sans-Serif" font-size="10.00">IPotion</text>
</a>
</g>
</g>
<!-- Node5&#45;&gt;Node6 -->
<g id="edge7_Node000005_Node000006" class="edge">
<title>Node5&#45;&gt;Node6</title>
<g id="a_edge7_Node000005_Node000006"><a xlink:title=" ">
<path fill="none" stroke="#63b8ff" d="M154.04,-48C163.6,-48 173.35,-48 181.69,-48"/>
<polygon fill="#63b8ff" stroke="#63b8ff" points="154.07,-44.5 144.07,-48 154.07,-51.5 154.07,-44.5"/>
</a>
</g>
</g>
<!-- Node7 -->
<g id="Node000007" class="node">
<title>Node7</title>
<g id="a_Node000007"><a xlink:href="class_health_potion.html" target="_top" xlink:title="Health potions heal the player of course.">
<polygon fill="white" stroke="#666666" points="343.38,-58 271.12,-58 271.12,-38 343.38,-38 343.38,-58"/>
<text text-anchor="middle" x="307.25" y="-44.5" font-family="Helvetica,sans-Serif" font-size="10.00">HealthPotion</text>
</a>
</g>
</g>
<!-- Node6&#45;&gt;Node7 -->
<g id="edge8_Node000006_Node000007" class="edge">
<title>Node6&#45;&gt;Node7</title>
<g id="a_edge8_Node000006_Node000007"><a xlink:title=" ">
<path fill="none" stroke="#63b8ff" d="M240.4,-48C250.18,-48 260.88,-48 270.75,-48"/>
<polygon fill="#63b8ff" stroke="#63b8ff" points="240.55,-44.5 230.55,-48 240.55,-51.5 240.55,-44.5"/>
</a>
</g>
</g>
<!-- Node8 -->
<g id="Node000008" class="node">
<title>Node8</title>
<g id="a_Node000008"><a xlink:href="class_strength_potion.html" target="_top" xlink:title="Increases player ATK.">
<polygon fill="white" stroke="#666666" points="347.5,-20 267,-20 267,0 347.5,0 347.5,-20"/>
<text text-anchor="middle" x="307.25" y="-6.5" font-family="Helvetica,sans-Serif" font-size="10.00">StrengthPotion</text>
</a>
</g>
</g>
<!-- Node6&#45;&gt;Node8 -->
<g id="edge9_Node000006_Node000008" class="edge">
<title>Node6&#45;&gt;Node8</title>
<g id="a_edge9_Node000006_Node000008"><a xlink:title=" ">
<path fill="none" stroke="#63b8ff" d="M239.66,-35.34C252.33,-30.52 266.61,-25.08 278.69,-20.48"/>
<polygon fill="#63b8ff" stroke="#63b8ff" points="238.55,-32.01 230.45,-38.84 241.04,-38.55 238.55,-32.01"/>
</a>
</g>
</g>
</g>
</svg>
