<?xml version="1.0" encoding="UTF-8" standalone="no"?>
<!DOCTYPE svg PUBLIC "-//W3C//DTD SVG 1.1//EN"
 "http://www.w3.org/Graphics/SVG/1.1/DTD/svg11.dtd">
<!-- Generated by graphviz version 12.2.1 (20241206.2353)
 -->
<!-- Title: Graphical Class Hierarchy Pages: 1 -->
<svg width="314pt" height="294pt"
 viewBox="0.00 0.00 314.00 294.00" xmlns="http://www.w3.org/2000/svg" xmlns:xlink="http://www.w3.org/1999/xlink">
<g id="graph0" class="graph" transform="scale(1 1) rotate(0) translate(4 290)">
<title>Graphical Class Hierarchy</title>
<!-- Node0 -->
<g id="Node000000" class="node">
<title>Node0</title>
<g id="a_Node000000"><a xlink:href="class_user_interface.html" target="_top" xlink:title="Base class for all user interfaces in the game.">
<polygon fill="white" stroke="#666666" points="75.25,-191 0,-191 0,-171 75.25,-171 75.25,-191"/>
<text text-anchor="middle" x="37.62" y="-177.5" font-family="Helvetica,sans-Serif" font-size="10.00">UserInterface</text>
</a>
</g>
</g>
<!-- Node1 -->
<g id="Node000001" class="node">
<title>Node1</title>
<g id="a_Node000001"><a xlink:href="class_game_over.html" target="_top" xlink:title="The game over screen. The user is sent back to the start menu after this.">
<polygon fill="white" stroke="#666666" points="180.12,-229 116.88,-229 116.88,-209 180.12,-209 180.12,-229"/>
<text text-anchor="middle" x="148.5" y="-215.5" font-family="Helvetica,sans-Serif" font-size="10.00">GameOver</text>
</a>
</g>
</g>
<!-- Node0&#45;&gt;Node1 -->
<g id="edge10_Node000000_Node000001" class="edge">
<title>Node0&#45;&gt;Node1</title>
<g id="a_edge10_Node000000_Node000001"><a xlink:title=" ">
<path fill="none" stroke="#63b8ff" d="M79.44,-195.24C92.09,-199.66 105.79,-204.44 117.56,-208.55"/>
<polygon fill="#63b8ff" stroke="#63b8ff" points="80.69,-191.97 70.09,-191.98 78.38,-198.58 80.69,-191.97"/>
</a>
</g>
</g>
<!-- Node2 -->
<g id="Node000002" class="node">
<title>Node2</title>
<g id="a_Node000002"><a xlink:href="class_start_menu.html" target="_top" xlink:title="The first menu the user sees when they start the game.">
<polygon fill="white" stroke="#666666" points="179,-191 118,-191 118,-171 179,-171 179,-191"/>
<text text-anchor="middle" x="148.5" y="-177.5" font-family="Helvetica,sans-Serif" font-size="10.00">StartMenu</text>
</a>
</g>
</g>
<!-- Node0&#45;&gt;Node2 -->
<g id="edge11_Node000000_Node000002" class="edge">
<title>Node0&#45;&gt;Node2</title>
<g id="a_edge11_Node000000_Node000002"><a xlink:title=" ">
<path fill="none" stroke="#63b8ff" d="M86.68,-181C97.17,-181 107.99,-181 117.54,-181"/>
<polygon fill="#63b8ff" stroke="#63b8ff" points="87,-177.5 77,-181 87,-184.5 87,-177.5"/>
</a>
</g>
</g>
<!-- Node3 -->
<g id="Node000003" class="node">
<title>Node3</title>
<g id="a_Node000003"><a xlink:href="class_u_i_with_player.html" target="_top" xlink:title="Basically just the base class for all user interfaces that have a player.">
<polygon fill="white" stroke="#666666" points="185.75,-153 111.25,-153 111.25,-133 185.75,-133 185.75,-153"/>
<text text-anchor="middle" x="148.5" y="-139.5" font-family="Helvetica,sans-Serif" font-size="10.00">UIWithPlayer</text>
</a>
</g>
</g>
<!-- Node0&#45;&gt;Node3 -->
<g id="edge12_Node000000_Node000003" class="edge">
<title>Node0&#45;&gt;Node3</title>
<g id="a_edge12_Node000000_Node000003"><a xlink:title=" ">
<path fill="none" stroke="#63b8ff" d="M79.44,-166.76C92.09,-162.34 105.79,-157.56 117.56,-153.45"/>
<polygon fill="#63b8ff" stroke="#63b8ff" points="78.38,-163.42 70.09,-170.02 80.69,-170.03 78.38,-163.42"/>
</a>
</g>
</g>
<!-- Node4 -->
<g id="Node000004" class="node">
<title>Node4</title>
<g id="a_Node000004"><a xlink:href="class_battle.html" target="_top" xlink:title="The battle screen. The user can attack, use an item, or run away.">
<polygon fill="white" stroke="#666666" points="284.62,-286 243.12,-286 243.12,-266 284.62,-266 284.62,-286"/>
<text text-anchor="middle" x="263.88" y="-272.5" font-family="Helvetica,sans-Serif" font-size="10.00">Battle</text>
</a>
</g>
</g>
<!-- Node3&#45;&gt;Node4 -->
<g id="edge13_Node000003_Node000004" class="edge">
<title>Node3&#45;&gt;Node4</title>
<g id="a_edge13_Node000003_Node000004"><a xlink:title=" ">
<path fill="none" stroke="#63b8ff" d="M183.98,-160.14C184.59,-160.74 185.18,-161.36 185.75,-162 215.7,-195.79 190.97,-223.97 221.75,-257 227.43,-263.1 235.46,-267.41 242.92,-270.36"/>
<polygon fill="#63b8ff" stroke="#63b8ff" points="186.27,-157.49 176.2,-154.21 182.03,-163.05 186.27,-157.49"/>
</a>
</g>
</g>
<!-- Node5 -->
<g id="Node000005" class="node">
<title>Node5</title>
<g id="a_Node000005"><a xlink:href="class_first_choice.html" target="_top" xlink:title="The part after the player meets the mysterious stranger.">
<polygon fill="white" stroke="#666666" points="297,-248 230.75,-248 230.75,-228 297,-228 297,-248"/>
<text text-anchor="middle" x="263.88" y="-234.5" font-family="Helvetica,sans-Serif" font-size="10.00">FirstChoice</text>
</a>
</g>
</g>
<!-- Node3&#45;&gt;Node5 -->
<g id="edge14_Node000003_Node000005" class="edge">
<title>Node3&#45;&gt;Node5</title>
<g id="a_edge14_Node000003_Node000005"><a xlink:title=" ">
<path fill="none" stroke="#63b8ff" d="M182.97,-159.62C183.93,-160.39 184.86,-161.18 185.75,-162 207.77,-182.32 199.23,-199.24 221.75,-219 225.53,-222.32 230,-225.17 234.56,-227.57"/>
<polygon fill="#63b8ff" stroke="#63b8ff" points="185.2,-156.9 174.95,-154.23 181.3,-162.71 185.2,-156.9"/>
</a>
</g>
</g>
<!-- Node6 -->
<g id="Node000006" class="node">
<title>Node6</title>
<g id="a_Node000006"><a xlink:href="class_gamble_menu.html" target="_top" xlink:title="The menu for gambling. The user can win a legendary sword or nothing.">
<polygon fill="white" stroke="#666666" points="300.75,-210 227,-210 227,-190 300.75,-190 300.75,-210"/>
<text text-anchor="middle" x="263.88" y="-196.5" font-family="Helvetica,sans-Serif" font-size="10.00">GambleMenu</text>
</a>
</g>
</g>
<!-- Node3&#45;&gt;Node6 -->
<g id="edge15_Node000003_Node000006" class="edge">
<title>Node3&#45;&gt;Node6</title>
<g id="a_edge15_Node000003_Node000006"><a xlink:title=" ">
<path fill="none" stroke="#63b8ff" d="M179.41,-158.67C181.56,-159.8 183.69,-160.91 185.75,-162 201.76,-170.42 205.53,-172.98 221.75,-181 227.53,-183.86 233.83,-186.84 239.72,-189.56"/>
<polygon fill="#63b8ff" stroke="#63b8ff" points="181.27,-155.69 170.79,-154.15 178.02,-161.89 181.27,-155.69"/>
</a>
</g>
</g>
<!-- Node7 -->
<g id="Node000007" class="node">
<title>Node7</title>
<g id="a_Node000007"><a xlink:href="class_intro_dialogue.html" target="_top" xlink:title="The intro dialogue. The player can choose their name and get a cool stick.">
<polygon fill="white" stroke="#666666" points="300.75,-172 227,-172 227,-152 300.75,-152 300.75,-172"/>
<text text-anchor="middle" x="263.88" y="-158.5" font-family="Helvetica,sans-Serif" font-size="10.00">IntroDialogue</text>
</a>
</g>
</g>
<!-- Node3&#45;&gt;Node7 -->
<g id="edge16_Node000003_Node000007" class="edge">
<title>Node3&#45;&gt;Node7</title>
<g id="a_edge16_Node000003_Node000007"><a xlink:title=" ">
<path fill="none" stroke="#63b8ff" d="M197.35,-151.02C207.22,-152.67 217.46,-154.39 226.83,-155.96"/>
<polygon fill="#63b8ff" stroke="#63b8ff" points="197.93,-147.57 187.49,-149.37 196.77,-154.47 197.93,-147.57"/>
</a>
</g>
</g>
<!-- Node8 -->
<g id="Node000008" class="node">
<title>Node8</title>
<g id="a_Node000008"><a xlink:href="class_jovial_aftermath.html" target="_top" xlink:title="The cutscene after the player wins the Jovial fight.">
<polygon fill="white" stroke="#666666" points="306,-134 221.75,-134 221.75,-114 306,-114 306,-134"/>
<text text-anchor="middle" x="263.88" y="-120.5" font-family="Helvetica,sans-Serif" font-size="10.00">JovialAftermath</text>
</a>
</g>
</g>
<!-- Node3&#45;&gt;Node8 -->
<g id="edge17_Node000003_Node000008" class="edge">
<title>Node3&#45;&gt;Node8</title>
<g id="a_edge17_Node000003_Node000008"><a xlink:title=" ">
<path fill="none" stroke="#63b8ff" d="M197.13,-135.02C205.17,-133.67 213.46,-132.28 221.32,-130.96"/>
<polygon fill="#63b8ff" stroke="#63b8ff" points="196.77,-131.53 187.49,-136.63 197.93,-138.43 196.77,-131.53"/>
</a>
</g>
</g>
<!-- Node9 -->
<g id="Node000009" class="node">
<title>Node9</title>
<g id="a_Node000009"><a xlink:href="class_jovial_cutscene.html" target="_top" xlink:title="The cutscene before the player fights Jovial.">
<polygon fill="white" stroke="#666666" points="305.62,-96 222.12,-96 222.12,-76 305.62,-76 305.62,-96"/>
<text text-anchor="middle" x="263.88" y="-82.5" font-family="Helvetica,sans-Serif" font-size="10.00">JovialCutscene</text>
</a>
</g>
</g>
<!-- Node3&#45;&gt;Node9 -->
<g id="edge18_Node000003_Node000009" class="edge">
<title>Node3&#45;&gt;Node9</title>
<g id="a_edge18_Node000003_Node000009"><a xlink:title=" ">
<path fill="none" stroke="#63b8ff" d="M178.56,-127.28C191.67,-120.3 207.41,-112.08 221.75,-105 227.53,-102.15 233.83,-99.17 239.72,-96.44"/>
<polygon fill="#63b8ff" stroke="#63b8ff" points="177.18,-124.05 170.02,-131.85 180.48,-130.22 177.18,-124.05"/>
</a>
</g>
</g>
<!-- Node10 -->
<g id="Node000010" class="node">
<title>Node10</title>
<g id="a_Node000010"><a xlink:href="class_main_menu.html" target="_top" xlink:title="The main menu after all the cutscenes and stuff.">
<polygon fill="white" stroke="#666666" points="294.38,-58 233.38,-58 233.38,-38 294.38,-38 294.38,-58"/>
<text text-anchor="middle" x="263.88" y="-44.5" font-family="Helvetica,sans-Serif" font-size="10.00">MainMenu</text>
</a>
</g>
</g>
<!-- Node3&#45;&gt;Node10 -->
<g id="edge19_Node000003_Node000010" class="edge">
<title>Node3&#45;&gt;Node10</title>
<g id="a_edge19_Node000003_Node000010"><a xlink:title=" ">
<path fill="none" stroke="#63b8ff" d="M164.19,-123.86C177.73,-107.19 199.11,-83.22 221.75,-67 226.23,-63.79 231.33,-60.92 236.38,-58.44"/>
<polygon fill="#63b8ff" stroke="#63b8ff" points="161.58,-121.52 158.11,-131.53 167.06,-125.87 161.58,-121.52"/>
</a>
</g>
</g>
<!-- Node11 -->
<g id="Node000011" class="node">
<title>Node11</title>
<g id="a_Node000011"><a xlink:href="class_shop_menu.html" target="_top" xlink:title="The main menu after all the cutscenes and stuff.">
<polygon fill="white" stroke="#666666" points="295.12,-20 232.62,-20 232.62,0 295.12,0 295.12,-20"/>
<text text-anchor="middle" x="263.88" y="-6.5" font-family="Helvetica,sans-Serif" font-size="10.00">ShopMenu</text>
</a>
</g>
</g>
<!-- Node3&#45;&gt;Node11 -->
<g id="edge20_Node000003_Node000011" class="edge">
<title>Node3&#45;&gt;Node11</title>
<g id="a_edge20_Node000003_Node000011"><a xlink:title=" ">
<path fill="none" stroke="#63b8ff" d="M158.15,-122.34C169.52,-97.36 191.62,-55.39 221.75,-29 225.54,-25.68 230,-22.84 234.57,-20.43"/>
<polygon fill="#63b8ff" stroke="#63b8ff" points="154.98,-120.85 154.18,-131.42 161.4,-123.66 154.98,-120.85"/>
</a>
</g>
</g>
</g>
</svg>
