<?xml version="1.0" encoding="UTF-8" standalone="no"?>
<!DOCTYPE svg PUBLIC "-//W3C//DTD SVG 1.1//EN"
 "http://www.w3.org/Graphics/SVG/1.1/DTD/svg11.dtd">
<!-- Generated by graphviz version 12.2.1 (20241206.2353)
 -->
<!-- Title: Graphical Class Hierarchy Pages: 1 -->
<svg width="314pt" height="256pt"
 viewBox="0.00 0.00 314.00 256.00" xmlns="http://www.w3.org/2000/svg" xmlns:xlink="http://www.w3.org/1999/xlink">
<g id="graph0" class="graph" transform="scale(1 1) rotate(0) translate(4 252)">
<title>Graphical Class Hierarchy</title>
<!-- Node0 -->
<g id="Node000000" class="node">
<title>Node0</title>
<g id="a_Node000000"><a xlink:href="class_user_interface.html" target="_top" xlink:title="Base class for all user interfaces in the game.">
<polygon fill="white" stroke="#666666" points="75.25,-172 0,-172 0,-152 75.25,-152 75.25,-172"/>
<text text-anchor="middle" x="37.62" y="-158.5" font-family="Helvetica,sans-Serif" font-size="10.00">UserInterface</text>
</a>
</g>
</g>
<!-- Node1 -->
<g id="Node000001" class="node">
<title>Node1</title>
<g id="a_Node000001"><a xlink:href="class_game_over.html" target="_top" xlink:title="The game over screen. The user is sent back to the start menu after this.">
<polygon fill="white" stroke="#666666" points="180.12,-210 116.88,-210 116.88,-190 180.12,-190 180.12,-210"/>
<text text-anchor="middle" x="148.5" y="-196.5" font-family="Helvetica,sans-Serif" font-size="10.00">GameOver</text>
</a>
</g>
</g>
<!-- Node0&#45;&gt;Node1 -->
<g id="edge9_Node000000_Node000001" class="edge">
<title>Node0&#45;&gt;Node1</title>
<g id="a_edge9_Node000000_Node000001"><a xlink:title=" ">
<path fill="none" stroke="#63b8ff" d="M79.44,-176.24C92.09,-180.66 105.79,-185.44 117.56,-189.55"/>
<polygon fill="#63b8ff" stroke="#63b8ff" points="80.69,-172.97 70.09,-172.98 78.38,-179.58 80.69,-172.97"/>
</a>
</g>
</g>
<!-- Node2 -->
<g id="Node000002" class="node">
<title>Node2</title>
<g id="a_Node000002"><a xlink:href="class_start_menu.html" target="_top" xlink:title="The first menu the user sees when they start the game.">
<polygon fill="white" stroke="#666666" points="179,-172 118,-172 118,-152 179,-152 179,-172"/>
<text text-anchor="middle" x="148.5" y="-158.5" font-family="Helvetica,sans-Serif" font-size="10.00">StartMenu</text>
</a>
</g>
</g>
<!-- Node0&#45;&gt;Node2 -->
<g id="edge10_Node000000_Node000002" class="edge">
<title>Node0&#45;&gt;Node2</title>
<g id="a_edge10_Node000000_Node000002"><a xlink:title=" ">
<path fill="none" stroke="#63b8ff" d="M86.68,-162C97.17,-162 107.99,-162 117.54,-162"/>
<polygon fill="#63b8ff" stroke="#63b8ff" points="87,-158.5 77,-162 87,-165.5 87,-158.5"/>
</a>
</g>
</g>
<!-- Node3 -->
<g id="Node000003" class="node">
<title>Node3</title>
<g id="a_Node000003"><a xlink:href="class_u_i_with_player.html" target="_top" xlink:title="Basically just the base class for all user interfaces that have a player.">
<polygon fill="white" stroke="#666666" points="185.75,-134 111.25,-134 111.25,-114 185.75,-114 185.75,-134"/>
<text text-anchor="middle" x="148.5" y="-120.5" font-family="Helvetica,sans-Serif" font-size="10.00">UIWithPlayer</text>
</a>
</g>
</g>
<!-- Node0&#45;&gt;Node3 -->
<g id="edge11_Node000000_Node000003" class="edge">
<title>Node0&#45;&gt;Node3</title>
<g id="a_edge11_Node000000_Node000003"><a xlink:title=" ">
<path fill="none" stroke="#63b8ff" d="M79.44,-147.76C92.09,-143.34 105.79,-138.56 117.56,-134.45"/>
<polygon fill="#63b8ff" stroke="#63b8ff" points="78.38,-144.42 70.09,-151.02 80.69,-151.03 78.38,-144.42"/>
</a>
</g>
</g>
<!-- Node4 -->
<g id="Node000004" class="node">
<title>Node4</title>
<g id="a_Node000004"><a xlink:href="class_battle.html" target="_top" xlink:title="The battle screen. The user can attack, use an item, or run away.">
<polygon fill="white" stroke="#666666" points="284.62,-248 243.12,-248 243.12,-228 284.62,-228 284.62,-248"/>
<text text-anchor="middle" x="263.88" y="-234.5" font-family="Helvetica,sans-Serif" font-size="10.00">Battle</text>
</a>
</g>
</g>
<!-- Node3&#45;&gt;Node4 -->
<g id="edge12_Node000003_Node000004" class="edge">
<title>Node3&#45;&gt;Node4</title>
<g id="a_edge12_Node000003_Node000004"><a xlink:title=" ">
<path fill="none" stroke="#63b8ff" d="M183.91,-141.2C184.54,-141.79 185.16,-142.39 185.75,-143 211.64,-169.96 195.2,-192.7 221.75,-219 227.56,-224.76 235.44,-228.97 242.74,-231.95"/>
<polygon fill="#63b8ff" stroke="#63b8ff" points="186.12,-138.49 175.99,-135.39 181.98,-144.13 186.12,-138.49"/>
</a>
</g>
</g>
<!-- Node5 -->
<g id="Node000005" class="node">
<title>Node5</title>
<g id="a_Node000005"><a xlink:href="class_first_choice.html" target="_top" xlink:title="The part after the player meets the mysterious stranger.">
<polygon fill="white" stroke="#666666" points="297,-210 230.75,-210 230.75,-190 297,-190 297,-210"/>
<text text-anchor="middle" x="263.88" y="-196.5" font-family="Helvetica,sans-Serif" font-size="10.00">FirstChoice</text>
</a>
</g>
</g>
<!-- Node3&#45;&gt;Node5 -->
<g id="edge13_Node000003_Node000005" class="edge">
<title>Node3&#45;&gt;Node5</title>
<g id="a_edge13_Node000003_Node000005"><a xlink:title=" ">
<path fill="none" stroke="#63b8ff" d="M181.66,-140.1C183.07,-141.04 184.44,-142.01 185.75,-143 204.3,-157.03 202.85,-167.43 221.75,-181 226.22,-184.21 231.32,-187.09 236.38,-189.57"/>
<polygon fill="#63b8ff" stroke="#63b8ff" points="183.73,-137.26 173.35,-135.12 180.13,-143.27 183.73,-137.26"/>
</a>
</g>
</g>
<!-- Node6 -->
<g id="Node000006" class="node">
<title>Node6</title>
<g id="a_Node000006"><a xlink:href="class_gamble_menu.html" target="_top" xlink:title="The menu for gambling. The user can win a legendary sword or nothing.">
<polygon fill="white" stroke="#666666" points="300.75,-172 227,-172 227,-152 300.75,-152 300.75,-172"/>
<text text-anchor="middle" x="263.88" y="-158.5" font-family="Helvetica,sans-Serif" font-size="10.00">GambleMenu</text>
</a>
</g>
</g>
<!-- Node3&#45;&gt;Node6 -->
<g id="edge14_Node000003_Node000006" class="edge">
<title>Node3&#45;&gt;Node6</title>
<g id="a_edge14_Node000003_Node000006"><a xlink:title=" ">
<path fill="none" stroke="#63b8ff" d="M191.6,-138.11C204.88,-142.56 219.32,-147.4 231.7,-151.55"/>
<polygon fill="#63b8ff" stroke="#63b8ff" points="192.81,-134.82 182.22,-134.97 190.58,-141.46 192.81,-134.82"/>
</a>
</g>
</g>
<!-- Node7 -->
<g id="Node000007" class="node">
<title>Node7</title>
<g id="a_Node000007"><a xlink:href="class_intro_dialogue.html" target="_top" xlink:title="The intro dialogue. The player can choose their name and get a cool stick.">
<polygon fill="white" stroke="#666666" points="300.75,-134 227,-134 227,-114 300.75,-114 300.75,-134"/>
<text text-anchor="middle" x="263.88" y="-120.5" font-family="Helvetica,sans-Serif" font-size="10.00">IntroDialogue</text>
</a>
</g>
</g>
<!-- Node3&#45;&gt;Node7 -->
<g id="edge15_Node000003_Node000007" class="edge">
<title>Node3&#45;&gt;Node7</title>
<g id="a_edge15_Node000003_Node000007"><a xlink:title=" ">
<path fill="none" stroke="#63b8ff" d="M197.35,-124C207.22,-124 217.46,-124 226.83,-124"/>
<polygon fill="#63b8ff" stroke="#63b8ff" points="197.51,-120.5 187.51,-124 197.51,-127.5 197.51,-120.5"/>
</a>
</g>
</g>
<!-- Node8 -->
<g id="Node000008" class="node">
<title>Node8</title>
<g id="a_Node000008"><a xlink:href="class_jovial_aftermath.html" target="_top" xlink:title="The cutscene after the player wins the Jovial fight.">
<polygon fill="white" stroke="#666666" points="306,-96 221.75,-96 221.75,-76 306,-76 306,-96"/>
<text text-anchor="middle" x="263.88" y="-82.5" font-family="Helvetica,sans-Serif" font-size="10.00">JovialAftermath</text>
</a>
</g>
</g>
<!-- Node3&#45;&gt;Node8 -->
<g id="edge16_Node000003_Node000008" class="edge">
<title>Node3&#45;&gt;Node8</title>
<g id="a_edge16_Node000003_Node000008"><a xlink:title=" ">
<path fill="none" stroke="#63b8ff" d="M191.6,-109.89C204.88,-105.44 219.32,-100.6 231.7,-96.45"/>
<polygon fill="#63b8ff" stroke="#63b8ff" points="190.58,-106.54 182.22,-113.03 192.81,-113.18 190.58,-106.54"/>
</a>
</g>
</g>
<!-- Node9 -->
<g id="Node000009" class="node">
<title>Node9</title>
<g id="a_Node000009"><a xlink:href="class_jovial_cutscene.html" target="_top" xlink:title="The cutscene before the player fights Jovial.">
<polygon fill="white" stroke="#666666" points="305.62,-58 222.12,-58 222.12,-38 305.62,-38 305.62,-58"/>
<text text-anchor="middle" x="263.88" y="-44.5" font-family="Helvetica,sans-Serif" font-size="10.00">JovialCutscene</text>
</a>
</g>
</g>
<!-- Node3&#45;&gt;Node9 -->
<g id="edge17_Node000003_Node000009" class="edge">
<title>Node3&#45;&gt;Node9</title>
<g id="a_edge17_Node000003_Node000009"><a xlink:title=" ">
<path fill="none" stroke="#63b8ff" d="M168.98,-106.56C183.02,-94.52 202.76,-78.65 221.75,-67 226.84,-63.87 232.54,-60.93 238.03,-58.33"/>
<polygon fill="#63b8ff" stroke="#63b8ff" points="167.02,-103.63 161.79,-112.84 171.62,-108.9 167.02,-103.63"/>
</a>
</g>
</g>
<!-- Node10 -->
<g id="Node000010" class="node">
<title>Node10</title>
<g id="a_Node000010"><a xlink:href="class_main_menu.html" target="_top" xlink:title="The main menu after all the cutscenes and stuff.">
<polygon fill="white" stroke="#666666" points="294.38,-20 233.38,-20 233.38,0 294.38,0 294.38,-20"/>
<text text-anchor="middle" x="263.88" y="-6.5" font-family="Helvetica,sans-Serif" font-size="10.00">MainMenu</text>
</a>
</g>
</g>
<!-- Node3&#45;&gt;Node10 -->
<g id="edge18_Node000003_Node000010" class="edge">
<title>Node3&#45;&gt;Node10</title>
<g id="a_edge18_Node000003_Node000010"><a xlink:title=" ">
<path fill="none" stroke="#63b8ff" d="M160.83,-103.73C173.42,-82.74 195.47,-50.1 221.75,-29 225.8,-25.75 230.49,-22.91 235.23,-20.49"/>
<polygon fill="#63b8ff" stroke="#63b8ff" points="157.9,-101.82 155.9,-112.22 163.95,-105.33 157.9,-101.82"/>
</a>
</g>
</g>
</g>
</svg>
