<?xml version="1.0" encoding="UTF-8" standalone="no"?>
<!DOCTYPE svg PUBLIC "-//W3C//DTD SVG 1.1//EN"
 "http://www.w3.org/Graphics/SVG/1.1/DTD/svg11.dtd">
<!-- Generated by graphviz version 12.2.1 (20241206.2353)
 -->
<!-- Title: src/inventory.h Pages: 1 -->
<svg width="515pt" height="196pt"
 viewBox="0.00 0.00 514.50 196.00" xmlns="http://www.w3.org/2000/svg" xmlns:xlink="http://www.w3.org/1999/xlink">
<g id="graph0" class="graph" transform="scale(1 1) rotate(0) translate(4 192)">
<title>src/inventory.h</title>
<!-- Node1 -->
<g id="Node000001" class="node">
<title>Node1</title>
<g id="a_Node000001"><a xlink:title=" ">
<polygon fill="#999999" stroke="#666666" points="428.25,-188 348.5,-188 348.5,-168 428.25,-168 428.25,-188"/>
<text text-anchor="middle" x="388.38" y="-174.5" font-family="Helvetica,sans-Serif" font-size="10.00">src/inventory.h</text>
</a>
</g>
</g>
<!-- Node2 -->
<g id="Node000002" class="node">
<title>Node2</title>
<g id="a_Node000002"><a xlink:href="entities_8h.html" target="_top" xlink:title=" ">
<polygon fill="white" stroke="#666666" points="291.5,-132 219.25,-132 219.25,-112 291.5,-112 291.5,-132"/>
<text text-anchor="middle" x="255.38" y="-118.5" font-family="Helvetica,sans-Serif" font-size="10.00">src/entities.h</text>
</a>
</g>
</g>
<!-- Node1&#45;&gt;Node2 -->
<g id="edge1_Node000001_Node000002" class="edge">
<title>Node1&#45;&gt;Node2</title>
<g id="a_edge1_Node000001_Node000002"><a xlink:title=" ">
<path fill="none" stroke="#63b8ff" d="M354.56,-163.27C330.84,-153.64 299.73,-141.01 278.72,-132.48"/>
<polygon fill="#63b8ff" stroke="#63b8ff" points="353.22,-166.51 363.81,-167.02 355.86,-160.02 353.22,-166.51"/>
</a>
</g>
</g>
<!-- Node9 -->
<g id="Node000009" class="node">
<title>Node9</title>
<g id="a_Node000009"><a xlink:href="main_8cpp.html" target="_top" xlink:title=" ">
<polygon fill="white" stroke="#666666" points="419.5,-20 347.25,-20 347.25,0 419.5,0 419.5,-20"/>
<text text-anchor="middle" x="383.38" y="-6.5" font-family="Helvetica,sans-Serif" font-size="10.00">src/main.cpp</text>
</a>
</g>
</g>
<!-- Node1&#45;&gt;Node9 -->
<g id="edge12_Node000001_Node000009" class="edge">
<title>Node1&#45;&gt;Node9</title>
<g id="a_edge12_Node000001_Node000009"><a xlink:title=" ">
<path fill="none" stroke="#63b8ff" d="M387.76,-156.5C386.67,-120.27 384.44,-46.31 383.66,-20.3"/>
<polygon fill="#63b8ff" stroke="#63b8ff" points="384.25,-156.2 388.05,-166.09 391.24,-155.99 384.25,-156.2"/>
</a>
</g>
</g>
<!-- Node10 -->
<g id="Node000010" class="node">
<title>Node10</title>
<g id="a_Node000010"><a xlink:href="inventory_8cpp.html" target="_top" xlink:title=" ">
<polygon fill="white" stroke="#666666" points="506.5,-132 416.25,-132 416.25,-112 506.5,-112 506.5,-132"/>
<text text-anchor="middle" x="461.38" y="-118.5" font-family="Helvetica,sans-Serif" font-size="10.00">src/inventory.cpp</text>
</a>
</g>
</g>
<!-- Node1&#45;&gt;Node10 -->
<g id="edge11_Node000001_Node000010" class="edge">
<title>Node1&#45;&gt;Node10</title>
<g id="a_edge11_Node000001_Node000010"><a xlink:title=" ">
<path fill="none" stroke="#63b8ff" d="M410.07,-160.95C422.69,-151.61 438.17,-140.16 448.81,-132.3"/>
<polygon fill="#63b8ff" stroke="#63b8ff" points="408.27,-157.93 402.31,-166.69 412.43,-163.56 408.27,-157.93"/>
</a>
</g>
</g>
<!-- Node3 -->
<g id="Node000003" class="node">
<title>Node3</title>
<g id="a_Node000003"><a xlink:href="entities_8cpp.html" target="_top" xlink:title=" ">
<polygon fill="white" stroke="#666666" points="82.75,-76 0,-76 0,-56 82.75,-56 82.75,-76"/>
<text text-anchor="middle" x="41.38" y="-62.5" font-family="Helvetica,sans-Serif" font-size="10.00">src/entities.cpp</text>
</a>
</g>
</g>
<!-- Node2&#45;&gt;Node3 -->
<g id="edge2_Node000002_Node000003" class="edge">
<title>Node2&#45;&gt;Node3</title>
<g id="a_edge2_Node000002_Node000003"><a xlink:title=" ">
<path fill="none" stroke="#63b8ff" d="M208.05,-109.06C169.18,-99.25 114.86,-85.54 78.94,-76.48"/>
<polygon fill="#63b8ff" stroke="#63b8ff" points="207.05,-112.42 217.61,-111.47 208.77,-105.63 207.05,-112.42"/>
</a>
</g>
</g>
<!-- Node4 -->
<g id="Node000004" class="node">
<title>Node4</title>
<g id="a_Node000004"><a xlink:href="items_8cpp.html" target="_top" xlink:title=" ">
<polygon fill="white" stroke="#666666" points="176,-76 100.75,-76 100.75,-56 176,-56 176,-76"/>
<text text-anchor="middle" x="138.38" y="-62.5" font-family="Helvetica,sans-Serif" font-size="10.00">src/items.cpp</text>
</a>
</g>
</g>
<!-- Node2&#45;&gt;Node4 -->
<g id="edge3_Node000002_Node000004" class="edge">
<title>Node2&#45;&gt;Node4</title>
<g id="a_edge3_Node000002_Node000004"><a xlink:title=" ">
<path fill="none" stroke="#63b8ff" d="M224.78,-106.88C204.02,-97.3 177.14,-84.89 158.91,-76.48"/>
<polygon fill="#63b8ff" stroke="#63b8ff" points="223.07,-109.95 233.62,-110.96 226.01,-103.59 223.07,-109.95"/>
</a>
</g>
</g>
<!-- Node5 -->
<g id="Node000005" class="node">
<title>Node5</title>
<g id="a_Node000005"><a xlink:href="shop_8h.html" target="_top" xlink:title=" ">
<polygon fill="white" stroke="#666666" points="256.25,-76 194.5,-76 194.5,-56 256.25,-56 256.25,-76"/>
<text text-anchor="middle" x="225.38" y="-62.5" font-family="Helvetica,sans-Serif" font-size="10.00">src/shop.h</text>
</a>
</g>
</g>
<!-- Node2&#45;&gt;Node5 -->
<g id="edge4_Node000002_Node000005" class="edge">
<title>Node2&#45;&gt;Node5</title>
<g id="a_edge4_Node000002_Node000005"><a xlink:title=" ">
<path fill="none" stroke="#63b8ff" d="M244.59,-101.58C239.8,-92.97 234.4,-83.24 230.54,-76.3"/>
<polygon fill="#63b8ff" stroke="#63b8ff" points="241.5,-103.23 249.41,-110.27 247.62,-99.83 241.5,-103.23"/>
</a>
</g>
</g>
<!-- Node7 -->
<g id="Node000007" class="node">
<title>Node7</title>
<g id="a_Node000007"><a xlink:href="ui_8cpp.html" target="_top" xlink:title=" ">
<polygon fill="white" stroke="#666666" points="318.75,-20 260,-20 260,0 318.75,0 318.75,-20"/>
<text text-anchor="middle" x="289.38" y="-6.5" font-family="Helvetica,sans-Serif" font-size="10.00">src/ui.cpp</text>
</a>
</g>
</g>
<!-- Node2&#45;&gt;Node7 -->
<g id="edge7_Node000002_Node000007" class="edge">
<title>Node2&#45;&gt;Node7</title>
<g id="a_edge7_Node000002_Node000007"><a xlink:title=" ">
<path fill="none" stroke="#63b8ff" d="M261.67,-100.64C269.06,-76.72 281.02,-38.03 286.48,-20.35"/>
<polygon fill="#63b8ff" stroke="#63b8ff" points="258.33,-99.59 258.72,-110.18 265.02,-101.65 258.33,-99.59"/>
</a>
</g>
</g>
<!-- Node8 -->
<g id="Node000008" class="node">
<title>Node8</title>
<g id="a_Node000008"><a xlink:href="ui_8h.html" target="_top" xlink:title=" ">
<polygon fill="white" stroke="#666666" points="360.5,-76 312.25,-76 312.25,-56 360.5,-56 360.5,-76"/>
<text text-anchor="middle" x="336.38" y="-62.5" font-family="Helvetica,sans-Serif" font-size="10.00">src/ui.h</text>
</a>
</g>
</g>
<!-- Node2&#45;&gt;Node8 -->
<g id="edge8_Node000002_Node000008" class="edge">
<title>Node2&#45;&gt;Node8</title>
<g id="a_edge8_Node000002_Node000008"><a xlink:title=" ">
<path fill="none" stroke="#63b8ff" d="M278.97,-105.27C292.96,-95.94 310.23,-84.43 322.16,-76.48"/>
<polygon fill="#63b8ff" stroke="#63b8ff" points="277.12,-102.3 270.74,-110.75 281.01,-108.12 277.12,-102.3"/>
</a>
</g>
</g>
<!-- Node6 -->
<g id="Node000006" class="node">
<title>Node6</title>
<g id="a_Node000006"><a xlink:href="shop_8cpp.html" target="_top" xlink:title=" ">
<polygon fill="white" stroke="#666666" points="241.5,-20 169.25,-20 169.25,0 241.5,0 241.5,-20"/>
<text text-anchor="middle" x="205.38" y="-6.5" font-family="Helvetica,sans-Serif" font-size="10.00">src/shop.cpp</text>
</a>
</g>
</g>
<!-- Node5&#45;&gt;Node6 -->
<g id="edge5_Node000005_Node000006" class="edge">
<title>Node5&#45;&gt;Node6</title>
<g id="a_edge5_Node000005_Node000006"><a xlink:title=" ">
<path fill="none" stroke="#63b8ff" d="M217.97,-45C214.83,-36.54 211.33,-27.08 208.82,-20.3"/>
<polygon fill="#63b8ff" stroke="#63b8ff" points="214.61,-46.01 221.37,-54.17 221.17,-43.58 214.61,-46.01"/>
</a>
</g>
</g>
<!-- Node5&#45;&gt;Node7 -->
<g id="edge6_Node000005_Node000007" class="edge">
<title>Node5&#45;&gt;Node7</title>
<g id="a_edge6_Node000005_Node000007"><a xlink:title=" ">
<path fill="none" stroke="#63b8ff" d="M245.05,-48.4C255.99,-39.17 269.22,-28.01 278.35,-20.3"/>
<polygon fill="#63b8ff" stroke="#63b8ff" points="243.07,-45.49 237.68,-54.62 247.58,-50.84 243.07,-45.49"/>
</a>
</g>
</g>
<!-- Node8&#45;&gt;Node7 -->
<g id="edge10_Node000008_Node000007" class="edge">
<title>Node8&#45;&gt;Node7</title>
<g id="a_edge10_Node000008_Node000007"><a xlink:title=" ">
<path fill="none" stroke="#63b8ff" d="M320.71,-47C312.93,-38.06 303.84,-27.62 297.47,-20.3"/>
<polygon fill="#63b8ff" stroke="#63b8ff" points="317.99,-49.21 327.19,-54.45 323.27,-44.61 317.99,-49.21"/>
</a>
</g>
</g>
<!-- Node8&#45;&gt;Node9 -->
<g id="edge9_Node000008_Node000009" class="edge">
<title>Node8&#45;&gt;Node9</title>
<g id="a_edge9_Node000008_Node000009"><a xlink:title=" ">
<path fill="none" stroke="#63b8ff" d="M352.04,-47C359.82,-38.06 368.91,-27.62 375.28,-20.3"/>
<polygon fill="#63b8ff" stroke="#63b8ff" points="349.48,-44.61 345.56,-54.45 354.76,-49.21 349.48,-44.61"/>
</a>
</g>
</g>
</g>
</svg>
