<?xml version="1.0" encoding="UTF-8" standalone="no"?>
<!DOCTYPE svg PUBLIC "-//W3C//DTD SVG 1.1//EN"
 "http://www.w3.org/Graphics/SVG/1.1/DTD/svg11.dtd">
<!-- Generated by graphviz version 12.2.1 (20241206.2353)
 -->
<!-- Title: src/inventory.h Pages: 1 -->
<svg width="463pt" height="196pt"
 viewBox="0.00 0.00 462.50 196.00" xmlns="http://www.w3.org/2000/svg" xmlns:xlink="http://www.w3.org/1999/xlink">
<g id="graph0" class="graph" transform="scale(1 1) rotate(0) translate(4 192)">
<title>src/inventory.h</title>
<!-- Node1 -->
<g id="Node000001" class="node">
<title>Node1</title>
<g id="a_Node000001"><a xlink:title=" ">
<polygon fill="#999999" stroke="#666666" points="376.25,-188 296.5,-188 296.5,-168 376.25,-168 376.25,-188"/>
<text text-anchor="middle" x="336.38" y="-174.5" font-family="Helvetica,sans-Serif" font-size="10.00">src/inventory.h</text>
</a>
</g>
</g>
<!-- Node2 -->
<g id="Node000002" class="node">
<title>Node2</title>
<g id="a_Node000002"><a xlink:href="entities_8h.html" target="_top" xlink:title=" ">
<polygon fill="white" stroke="#666666" points="239.5,-132 167.25,-132 167.25,-112 239.5,-112 239.5,-132"/>
<text text-anchor="middle" x="203.38" y="-118.5" font-family="Helvetica,sans-Serif" font-size="10.00">src/entities.h</text>
</a>
</g>
</g>
<!-- Node1&#45;&gt;Node2 -->
<g id="edge1_Node000001_Node000002" class="edge">
<title>Node1&#45;&gt;Node2</title>
<g id="a_edge1_Node000001_Node000002"><a xlink:title=" ">
<path fill="none" stroke="#63b8ff" d="M302.56,-163.27C278.84,-153.64 247.73,-141.01 226.72,-132.48"/>
<polygon fill="#63b8ff" stroke="#63b8ff" points="301.22,-166.51 311.81,-167.02 303.86,-160.02 301.22,-166.51"/>
</a>
</g>
</g>
<!-- Node9 -->
<g id="Node000009" class="node">
<title>Node9</title>
<g id="a_Node000009"><a xlink:href="main_8cpp.html" target="_top" xlink:title=" ">
<polygon fill="white" stroke="#666666" points="367.5,-20 295.25,-20 295.25,0 367.5,0 367.5,-20"/>
<text text-anchor="middle" x="331.38" y="-6.5" font-family="Helvetica,sans-Serif" font-size="10.00">src/main.cpp</text>
</a>
</g>
</g>
<!-- Node1&#45;&gt;Node9 -->
<g id="edge13_Node000001_Node000009" class="edge">
<title>Node1&#45;&gt;Node9</title>
<g id="a_edge13_Node000001_Node000009"><a xlink:title=" ">
<path fill="none" stroke="#63b8ff" d="M335.76,-156.5C334.67,-120.27 332.44,-46.31 331.66,-20.3"/>
<polygon fill="#63b8ff" stroke="#63b8ff" points="332.25,-156.2 336.05,-166.09 339.24,-155.99 332.25,-156.2"/>
</a>
</g>
</g>
<!-- Node10 -->
<g id="Node000010" class="node">
<title>Node10</title>
<g id="a_Node000010"><a xlink:href="inventory_8cpp.html" target="_top" xlink:title=" ">
<polygon fill="white" stroke="#666666" points="454.5,-132 364.25,-132 364.25,-112 454.5,-112 454.5,-132"/>
<text text-anchor="middle" x="409.38" y="-118.5" font-family="Helvetica,sans-Serif" font-size="10.00">src/inventory.cpp</text>
</a>
</g>
</g>
<!-- Node1&#45;&gt;Node10 -->
<g id="edge12_Node000001_Node000010" class="edge">
<title>Node1&#45;&gt;Node10</title>
<g id="a_edge12_Node000001_Node000010"><a xlink:title=" ">
<path fill="none" stroke="#63b8ff" d="M358.07,-160.95C370.69,-151.61 386.17,-140.16 396.81,-132.3"/>
<polygon fill="#63b8ff" stroke="#63b8ff" points="356.27,-157.93 350.31,-166.69 360.43,-163.56 356.27,-157.93"/>
</a>
</g>
</g>
<!-- Node3 -->
<g id="Node000003" class="node">
<title>Node3</title>
<g id="a_Node000003"><a xlink:href="entities_8cpp.html" target="_top" xlink:title=" ">
<polygon fill="white" stroke="#666666" points="82.75,-20 0,-20 0,0 82.75,0 82.75,-20"/>
<text text-anchor="middle" x="41.38" y="-6.5" font-family="Helvetica,sans-Serif" font-size="10.00">src/entities.cpp</text>
</a>
</g>
</g>
<!-- Node2&#45;&gt;Node3 -->
<g id="edge2_Node000002_Node000003" class="edge">
<title>Node2&#45;&gt;Node3</title>
<g id="a_edge2_Node000002_Node000003"><a xlink:title=" ">
<path fill="none" stroke="#63b8ff" d="M155.8,-114.4C112.59,-107.32 53.51,-94.53 39.38,-76 26.92,-59.66 33.18,-33.7 37.85,-20.06"/>
<polygon fill="#63b8ff" stroke="#63b8ff" points="155.05,-117.83 165.47,-115.93 156.14,-110.91 155.05,-117.83"/>
</a>
</g>
</g>
<!-- Node4 -->
<g id="Node000004" class="node">
<title>Node4</title>
<g id="a_Node000004"><a xlink:href="items_8cpp.html" target="_top" xlink:title=" ">
<polygon fill="white" stroke="#666666" points="124,-76 48.75,-76 48.75,-56 124,-56 124,-76"/>
<text text-anchor="middle" x="86.38" y="-62.5" font-family="Helvetica,sans-Serif" font-size="10.00">src/items.cpp</text>
</a>
</g>
</g>
<!-- Node2&#45;&gt;Node4 -->
<g id="edge3_Node000002_Node000004" class="edge">
<title>Node2&#45;&gt;Node4</title>
<g id="a_edge3_Node000002_Node000004"><a xlink:title=" ">
<path fill="none" stroke="#63b8ff" d="M172.78,-106.88C152.02,-97.3 125.14,-84.89 106.91,-76.48"/>
<polygon fill="#63b8ff" stroke="#63b8ff" points="171.07,-109.95 181.62,-110.96 174.01,-103.59 171.07,-109.95"/>
</a>
</g>
</g>
<!-- Node5 -->
<g id="Node000005" class="node">
<title>Node5</title>
<g id="a_Node000005"><a xlink:href="shop_8h.html" target="_top" xlink:title=" ">
<polygon fill="white" stroke="#666666" points="204.25,-76 142.5,-76 142.5,-56 204.25,-56 204.25,-76"/>
<text text-anchor="middle" x="173.38" y="-62.5" font-family="Helvetica,sans-Serif" font-size="10.00">src/shop.h</text>
</a>
</g>
</g>
<!-- Node2&#45;&gt;Node5 -->
<g id="edge4_Node000002_Node000005" class="edge">
<title>Node2&#45;&gt;Node5</title>
<g id="a_edge4_Node000002_Node000005"><a xlink:title=" ">
<path fill="none" stroke="#63b8ff" d="M192.59,-101.58C187.8,-92.97 182.4,-83.24 178.54,-76.3"/>
<polygon fill="#63b8ff" stroke="#63b8ff" points="189.5,-103.23 197.41,-110.27 195.62,-99.83 189.5,-103.23"/>
</a>
</g>
</g>
<!-- Node7 -->
<g id="Node000007" class="node">
<title>Node7</title>
<g id="a_Node000007"><a xlink:href="ui_8cpp.html" target="_top" xlink:title=" ">
<polygon fill="white" stroke="#666666" points="266.75,-20 208,-20 208,0 266.75,0 266.75,-20"/>
<text text-anchor="middle" x="237.38" y="-6.5" font-family="Helvetica,sans-Serif" font-size="10.00">src/ui.cpp</text>
</a>
</g>
</g>
<!-- Node2&#45;&gt;Node7 -->
<g id="edge8_Node000002_Node000007" class="edge">
<title>Node2&#45;&gt;Node7</title>
<g id="a_edge8_Node000002_Node000007"><a xlink:title=" ">
<path fill="none" stroke="#63b8ff" d="M209.67,-100.64C217.06,-76.72 229.02,-38.03 234.48,-20.35"/>
<polygon fill="#63b8ff" stroke="#63b8ff" points="206.33,-99.59 206.72,-110.18 213.02,-101.65 206.33,-99.59"/>
</a>
</g>
</g>
<!-- Node8 -->
<g id="Node000008" class="node">
<title>Node8</title>
<g id="a_Node000008"><a xlink:href="ui_8h.html" target="_top" xlink:title=" ">
<polygon fill="white" stroke="#666666" points="308.5,-76 260.25,-76 260.25,-56 308.5,-56 308.5,-76"/>
<text text-anchor="middle" x="284.38" y="-62.5" font-family="Helvetica,sans-Serif" font-size="10.00">src/ui.h</text>
</a>
</g>
</g>
<!-- Node2&#45;&gt;Node8 -->
<g id="edge9_Node000002_Node000008" class="edge">
<title>Node2&#45;&gt;Node8</title>
<g id="a_edge9_Node000002_Node000008"><a xlink:title=" ">
<path fill="none" stroke="#63b8ff" d="M226.97,-105.27C240.96,-95.94 258.23,-84.43 270.16,-76.48"/>
<polygon fill="#63b8ff" stroke="#63b8ff" points="225.12,-102.3 218.74,-110.75 229.01,-108.12 225.12,-102.3"/>
</a>
</g>
</g>
<!-- Node5&#45;&gt;Node3 -->
<g id="edge5_Node000005_Node000003" class="edge">
<title>Node5&#45;&gt;Node3</title>
<g id="a_edge5_Node000005_Node000003"><a xlink:title=" ">
<path fill="none" stroke="#63b8ff" d="M139.82,-51.27C116.27,-41.64 85.39,-29.01 64.55,-20.48"/>
<polygon fill="#63b8ff" stroke="#63b8ff" points="138.4,-54.47 148.98,-55.02 141.05,-48 138.4,-54.47"/>
</a>
</g>
</g>
<!-- Node6 -->
<g id="Node000006" class="node">
<title>Node6</title>
<g id="a_Node000006"><a xlink:href="shop_8cpp.html" target="_top" xlink:title=" ">
<polygon fill="white" stroke="#666666" points="189.5,-20 117.25,-20 117.25,0 189.5,0 189.5,-20"/>
<text text-anchor="middle" x="153.38" y="-6.5" font-family="Helvetica,sans-Serif" font-size="10.00">src/shop.cpp</text>
</a>
</g>
</g>
<!-- Node5&#45;&gt;Node6 -->
<g id="edge6_Node000005_Node000006" class="edge">
<title>Node5&#45;&gt;Node6</title>
<g id="a_edge6_Node000005_Node000006"><a xlink:title=" ">
<path fill="none" stroke="#63b8ff" d="M165.97,-45C162.83,-36.54 159.33,-27.08 156.82,-20.3"/>
<polygon fill="#63b8ff" stroke="#63b8ff" points="162.61,-46.01 169.37,-54.17 169.17,-43.58 162.61,-46.01"/>
</a>
</g>
</g>
<!-- Node5&#45;&gt;Node7 -->
<g id="edge7_Node000005_Node000007" class="edge">
<title>Node5&#45;&gt;Node7</title>
<g id="a_edge7_Node000005_Node000007"><a xlink:title=" ">
<path fill="none" stroke="#63b8ff" d="M193.05,-48.4C203.99,-39.17 217.22,-28.01 226.35,-20.3"/>
<polygon fill="#63b8ff" stroke="#63b8ff" points="191.07,-45.49 185.68,-54.62 195.58,-50.84 191.07,-45.49"/>
</a>
</g>
</g>
<!-- Node8&#45;&gt;Node7 -->
<g id="edge11_Node000008_Node000007" class="edge">
<title>Node8&#45;&gt;Node7</title>
<g id="a_edge11_Node000008_Node000007"><a xlink:title=" ">
<path fill="none" stroke="#63b8ff" d="M268.71,-47C260.93,-38.06 251.84,-27.62 245.47,-20.3"/>
<polygon fill="#63b8ff" stroke="#63b8ff" points="265.99,-49.21 275.19,-54.45 271.27,-44.61 265.99,-49.21"/>
</a>
</g>
</g>
<!-- Node8&#45;&gt;Node9 -->
<g id="edge10_Node000008_Node000009" class="edge">
<title>Node8&#45;&gt;Node9</title>
<g id="a_edge10_Node000008_Node000009"><a xlink:title=" ">
<path fill="none" stroke="#63b8ff" d="M300.04,-47C307.82,-38.06 316.91,-27.62 323.28,-20.3"/>
<polygon fill="#63b8ff" stroke="#63b8ff" points="297.48,-44.61 293.56,-54.45 302.76,-49.21 297.48,-44.61"/>
</a>
</g>
</g>
</g>
</svg>
