<?xml version="1.0" encoding="UTF-8" standalone="no"?>
<!DOCTYPE svg PUBLIC "-//W3C//DTD SVG 1.1//EN"
 "http://www.w3.org/Graphics/SVG/1.1/DTD/svg11.dtd">
<!-- Generated by graphviz version 12.2.1 (20241206.2353)
 -->
<!-- Title: src/inventory.h Pages: 1 -->
<svg width="122pt" height="84pt"
 viewBox="0.00 0.00 122.25 84.00" xmlns="http://www.w3.org/2000/svg" xmlns:xlink="http://www.w3.org/1999/xlink">
<g id="graph0" class="graph" transform="scale(1 1) rotate(0) translate(4 80)">
<title>src/inventory.h</title>
<!-- Node1 -->
<g id="Node000001" class="node">
<title>Node1</title>
<g id="a_Node000001"><a xlink:title=" ">
<polygon fill="#999999" stroke="#666666" points="94.38,-76 14.62,-76 14.62,-56 94.38,-56 94.38,-76"/>
<text text-anchor="middle" x="54.5" y="-62.5" font-family="Helvetica,sans-Serif" font-size="10.00">src/inventory.h</text>
</a>
</g>
</g>
<!-- Node2 -->
<g id="Node000002" class="node">
<title>Node2</title>
<g id="a_Node000002"><a xlink:title=" ">
<polygon fill="#e0e0e0" stroke="#999999" points="43,-20 0,-20 0,0 43,0 43,-20"/>
<text text-anchor="middle" x="21.5" y="-6.5" font-family="Helvetica,sans-Serif" font-size="10.00">vector</text>
</a>
</g>
</g>
<!-- Node1&#45;&gt;Node2 -->
<g id="edge1_Node000001_Node000002" class="edge">
<title>Node1&#45;&gt;Node2</title>
<g id="a_edge1_Node000001_Node000002"><a xlink:title=" ">
<path fill="none" stroke="#63b8ff" d="M48.75,-55.59C44.45,-48.55 38.41,-38.67 33.11,-30"/>
<polygon fill="#63b8ff" stroke="#63b8ff" points="36.17,-28.3 27.97,-21.59 30.2,-31.95 36.17,-28.3"/>
</a>
</g>
</g>
<!-- Node3 -->
<g id="Node000003" class="node">
<title>Node3</title>
<g id="a_Node000003"><a xlink:title=" ">
<polygon fill="#e0e0e0" stroke="#999999" points="114.25,-20 60.75,-20 60.75,0 114.25,0 114.25,-20"/>
<text text-anchor="middle" x="87.5" y="-6.5" font-family="Helvetica,sans-Serif" font-size="10.00">iostream</text>
</a>
</g>
</g>
<!-- Node1&#45;&gt;Node3 -->
<g id="edge2_Node000001_Node000003" class="edge">
<title>Node1&#45;&gt;Node3</title>
<g id="a_edge2_Node000001_Node000003"><a xlink:title=" ">
<path fill="none" stroke="#63b8ff" d="M60.25,-55.59C64.55,-48.55 70.59,-38.67 75.89,-30"/>
<polygon fill="#63b8ff" stroke="#63b8ff" points="78.8,-31.95 81.03,-21.59 72.83,-28.3 78.8,-31.95"/>
</a>
</g>
</g>
</g>
</svg>
