<?xml version="1.0" encoding="UTF-8" standalone="no"?>
<!DOCTYPE svg PUBLIC "-//W3C//DTD SVG 1.1//EN"
 "http://www.w3.org/Graphics/SVG/1.1/DTD/svg11.dtd">
<!-- Generated by graphviz version 12.2.1 (20241206.2353)
 -->
<!-- Title: src/inventory.h Pages: 1 -->
<svg width="435pt" height="196pt"
 viewBox="0.00 0.00 434.50 196.00" xmlns="http://www.w3.org/2000/svg" xmlns:xlink="http://www.w3.org/1999/xlink">

<svg id="main" version="1.1" xmlns="http://www.w3.org/2000/svg" xmlns:xlink="http://www.w3.org/1999/xlink" xml:space="preserve">

<style type="text/css"><![CDATA[
.node, .edge {opacity: 0.7;}
.node.selected, .edge.selected {opacity: 1;}
.edge:hover path { stroke: red; }
.edge:hover polygon { stroke: red; fill: red; }
]]></style>
<script type="application/ecmascript" xlink:href="svg.min.js"/>
<svg id="graph" class="graph">
<g id="graph0" class="graph" transform="scale(1 1) rotate(0) translate(4 192)">
<title>src/inventory.h</title>
<!-- Node1 -->
<g id="Node000001" class="node">
<title>Node1</title>
<g id="a_Node000001"><a xlink:title=" ">
<polygon fill="#999999" stroke="#666666" points="348.25,-188 268.5,-188 268.5,-168 348.25,-168 348.25,-188"/>
<text text-anchor="middle" x="308.38" y="-174.5" font-family="Helvetica,sans-Serif" font-size="10.00">src/inventory.h</text>
</a>
</g>
</g>
<!-- Node2 -->
<g id="Node000002" class="node">
<title>Node2</title>
<g id="a_Node000002"><a xlink:href="entities_8h.html" target="_top" xlink:title=" ">
<polygon fill="white" stroke="#666666" points="240.5,-132 168.25,-132 168.25,-112 240.5,-112 240.5,-132"/>
<text text-anchor="middle" x="204.38" y="-118.5" font-family="Helvetica,sans-Serif" font-size="10.00">src/entities.h</text>
</a>
</g>
</g>
<!-- Node1&#45;&gt;Node2 -->
<g id="edge1_Node000001_Node000002" class="edge">
<title>Node1&#45;&gt;Node2</title>
<g id="a_edge1_Node000001_Node000002"><a xlink:title=" ">
<path fill="none" stroke="#63b8ff" d="M280.15,-162.35C261.85,-152.84 238.54,-140.74 222.63,-132.48"/>
<polygon fill="#63b8ff" stroke="#63b8ff" points="278.43,-165.39 288.92,-166.9 281.65,-159.18 278.43,-165.39"/>
</a>
</g>
</g>
<!-- Node7 -->
<g id="Node000007" class="node">
<title>Node7</title>
<g id="a_Node000007"><a xlink:href="main_8cpp.html" target="_top" xlink:title=" ">
<polygon fill="white" stroke="#666666" points="339.5,-20 267.25,-20 267.25,0 339.5,0 339.5,-20"/>
<text text-anchor="middle" x="303.38" y="-6.5" font-family="Helvetica,sans-Serif" font-size="10.00">src/main.cpp</text>
</a>
</g>
</g>
<!-- Node1&#45;&gt;Node7 -->
<g id="edge9_Node000001_Node000007" class="edge">
<title>Node1&#45;&gt;Node7</title>
<g id="a_edge9_Node000001_Node000007"><a xlink:title=" ">
<path fill="none" stroke="#63b8ff" d="M307.76,-156.5C306.67,-120.27 304.44,-46.31 303.66,-20.3"/>
<polygon fill="#63b8ff" stroke="#63b8ff" points="304.25,-156.2 308.05,-166.09 311.24,-155.99 304.25,-156.2"/>
</a>
</g>
</g>
<!-- Node8 -->
<g id="Node000008" class="node">
<title>Node8</title>
<g id="a_Node000008"><a xlink:href="inventory_8cpp.html" target="_top" xlink:title=" ">
<polygon fill="white" stroke="#666666" points="426.5,-132 336.25,-132 336.25,-112 426.5,-112 426.5,-132"/>
<text text-anchor="middle" x="381.38" y="-118.5" font-family="Helvetica,sans-Serif" font-size="10.00">src/inventory.cpp</text>
</a>
</g>
</g>
<!-- Node1&#45;&gt;Node8 -->
<g id="edge8_Node000001_Node000008" class="edge">
<title>Node1&#45;&gt;Node8</title>
<g id="a_edge8_Node000001_Node000008"><a xlink:title=" ">
<path fill="none" stroke="#63b8ff" d="M330.07,-160.95C342.69,-151.61 358.17,-140.16 368.81,-132.3"/>
<polygon fill="#63b8ff" stroke="#63b8ff" points="328.27,-157.93 322.31,-166.69 332.43,-163.56 328.27,-157.93"/>
</a>
</g>
</g>
<!-- Node3 -->
<g id="Node000003" class="node">
<title>Node3</title>
<g id="a_Node000003"><a xlink:href="entities_8cpp.html" target="_top" xlink:title=" ">
<polygon fill="white" stroke="#666666" points="82.75,-76 0,-76 0,-56 82.75,-56 82.75,-76"/>
<text text-anchor="middle" x="41.38" y="-62.5" font-family="Helvetica,sans-Serif" font-size="10.00">src/entities.cpp</text>
</a>
</g>
</g>
<!-- Node2&#45;&gt;Node3 -->
<g id="edge2_Node000002_Node000003" class="edge">
<title>Node2&#45;&gt;Node3</title>
<g id="a_edge2_Node000002_Node000003"><a xlink:title=" ">
<path fill="none" stroke="#63b8ff" d="M165.28,-108.05C135.94,-98.33 96.43,-85.24 69.99,-76.48"/>
<polygon fill="#63b8ff" stroke="#63b8ff" points="163.95,-111.3 174.55,-111.12 166.15,-104.65 163.95,-111.3"/>
</a>
</g>
</g>
<!-- Node4 -->
<g id="Node000004" class="node">
<title>Node4</title>
<g id="a_Node000004"><a xlink:href="items_8cpp.html" target="_top" xlink:title=" ">
<polygon fill="white" stroke="#666666" points="176,-76 100.75,-76 100.75,-56 176,-56 176,-76"/>
<text text-anchor="middle" x="138.38" y="-62.5" font-family="Helvetica,sans-Serif" font-size="10.00">src/items.cpp</text>
</a>
</g>
</g>
<!-- Node2&#45;&gt;Node4 -->
<g id="edge3_Node000002_Node000004" class="edge">
<title>Node2&#45;&gt;Node4</title>
<g id="a_edge3_Node000002_Node000004"><a xlink:title=" ">
<path fill="none" stroke="#63b8ff" d="M184.09,-104.4C172.8,-95.17 159.16,-84.01 149.74,-76.3"/>
<polygon fill="#63b8ff" stroke="#63b8ff" points="181.75,-107.01 191.71,-110.64 186.18,-101.59 181.75,-107.01"/>
</a>
</g>
</g>
<!-- Node5 -->
<g id="Node000005" class="node">
<title>Node5</title>
<g id="a_Node000005"><a xlink:href="ui_8cpp.html" target="_top" xlink:title=" ">
<polygon fill="white" stroke="#666666" points="243.75,-20 185,-20 185,0 243.75,0 243.75,-20"/>
<text text-anchor="middle" x="214.38" y="-6.5" font-family="Helvetica,sans-Serif" font-size="10.00">src/ui.cpp</text>
</a>
</g>
</g>
<!-- Node2&#45;&gt;Node5 -->
<g id="edge4_Node000002_Node000005" class="edge">
<title>Node2&#45;&gt;Node5</title>
<g id="a_edge4_Node000002_Node000005"><a xlink:title=" ">
<path fill="none" stroke="#63b8ff" d="M206.26,-100.31C208.43,-76.36 211.92,-37.95 213.52,-20.35"/>
<polygon fill="#63b8ff" stroke="#63b8ff" points="202.78,-99.84 205.36,-110.11 209.76,-100.47 202.78,-99.84"/>
</a>
</g>
</g>
<!-- Node6 -->
<g id="Node000006" class="node">
<title>Node6</title>
<g id="a_Node000006"><a xlink:href="ui_8h.html" target="_top" xlink:title=" ">
<polygon fill="white" stroke="#666666" points="280.5,-76 232.25,-76 232.25,-56 280.5,-56 280.5,-76"/>
<text text-anchor="middle" x="256.38" y="-62.5" font-family="Helvetica,sans-Serif" font-size="10.00">src/ui.h</text>
</a>
</g>
</g>
<!-- Node2&#45;&gt;Node6 -->
<g id="edge5_Node000002_Node000006" class="edge">
<title>Node2&#45;&gt;Node6</title>
<g id="a_edge5_Node000002_Node000006"><a xlink:title=" ">
<path fill="none" stroke="#63b8ff" d="M221.16,-103.57C229.89,-94.5 240.22,-83.78 247.42,-76.3"/>
<polygon fill="#63b8ff" stroke="#63b8ff" points="218.9,-100.87 214.48,-110.5 223.94,-105.73 218.9,-100.87"/>
</a>
</g>
</g>
<!-- Node6&#45;&gt;Node5 -->
<g id="edge7_Node000006_Node000005" class="edge">
<title>Node6&#45;&gt;Node5</title>
<g id="a_edge7_Node000006_Node000005"><a xlink:title=" ">
<path fill="none" stroke="#63b8ff" d="M242.16,-46.72C235.25,-37.84 227.24,-27.55 221.61,-20.3"/>
<polygon fill="#63b8ff" stroke="#63b8ff" points="239.23,-48.65 248.13,-54.4 244.75,-44.36 239.23,-48.65"/>
</a>
</g>
</g>
<!-- Node6&#45;&gt;Node7 -->
<g id="edge6_Node000006_Node000007" class="edge">
<title>Node6&#45;&gt;Node7</title>
<g id="a_edge6_Node000006_Node000007"><a xlink:title=" ">
<path fill="none" stroke="#63b8ff" d="M272.04,-47C279.82,-38.06 288.91,-27.62 295.28,-20.3"/>
<polygon fill="#63b8ff" stroke="#63b8ff" points="269.48,-44.61 265.56,-54.45 274.76,-49.21 269.48,-44.61"/>
</a>
</g>
</g>
</g>
</svg>
</svg>

<style type='text/css'>
<![CDATA[
[data-mouse-over-selected='false'] { opacity: 0.7; }
[data-mouse-over-selected='true']  { opacity: 1.0; }
]]>
</style>
<script type="application/ecmascript"><![CDATA[
document.addEventListener('DOMContentLoaded', (event) => {
  highlightEdges();
  highlightAdjacentNodes();
});
]]></script>
</svg>
