<?xml version="1.0" encoding="UTF-8" standalone="no"?>
<!DOCTYPE svg PUBLIC "-//W3C//DTD SVG 1.1//EN"
 "http://www.w3.org/Graphics/SVG/1.1/DTD/svg11.dtd">
<!-- Generated by graphviz version 12.2.1 (20241206.2353)
 -->
<!-- Title: src/inventory.cpp Pages: 1 -->
<svg width="351pt" height="140pt"
 viewBox="0.00 0.00 351.12 140.00" xmlns="http://www.w3.org/2000/svg" xmlns:xlink="http://www.w3.org/1999/xlink">
<g id="graph0" class="graph" transform="scale(1 1) rotate(0) translate(4 136)">
<title>src/inventory.cpp</title>
<!-- Node1 -->
<g id="Node000001" class="node">
<title>Node1</title>
<g id="a_Node000001"><a xlink:title=" ">
<polygon fill="#999999" stroke="#666666" points="208.75,-132 118.5,-132 118.5,-112 208.75,-112 208.75,-132"/>
<text text-anchor="middle" x="163.62" y="-118.5" font-family="Helvetica,sans-Serif" font-size="10.00">src/inventory.cpp</text>
</a>
</g>
</g>
<!-- Node2 -->
<g id="Node000002" class="node">
<title>Node2</title>
<g id="a_Node000002"><a xlink:title=" ">
<polygon fill="#e0e0e0" stroke="#999999" points="200.38,-20 146.88,-20 146.88,0 200.38,0 200.38,-20"/>
<text text-anchor="middle" x="173.62" y="-6.5" font-family="Helvetica,sans-Serif" font-size="10.00">iostream</text>
</a>
</g>
</g>
<!-- Node1&#45;&gt;Node2 -->
<g id="edge1_Node000001_Node000002" class="edge">
<title>Node1&#45;&gt;Node2</title>
<g id="a_edge1_Node000001_Node000002"><a xlink:title=" ">
<path fill="none" stroke="#63b8ff" d="M173.27,-111.68C181.27,-103.24 192.04,-90 196.62,-76 201.75,-60.36 194.73,-42.77 187.14,-29.83"/>
<polygon fill="#63b8ff" stroke="#63b8ff" points="190.09,-27.95 181.7,-21.48 184.22,-31.77 190.09,-27.95"/>
</a>
</g>
</g>
<!-- Node3 -->
<g id="Node000003" class="node">
<title>Node3</title>
<g id="a_Node000003"><a xlink:title=" ">
<polygon fill="#e0e0e0" stroke="#999999" points="121.62,-76 81.62,-76 81.62,-56 121.62,-56 121.62,-76"/>
<text text-anchor="middle" x="101.62" y="-62.5" font-family="Helvetica,sans-Serif" font-size="10.00">string</text>
</a>
</g>
</g>
<!-- Node1&#45;&gt;Node3 -->
<g id="edge2_Node000001_Node000003" class="edge">
<title>Node1&#45;&gt;Node3</title>
<g id="a_edge2_Node000001_Node000003"><a xlink:title=" ">
<path fill="none" stroke="#63b8ff" d="M152.83,-111.59C144.02,-103.93 131.37,-92.91 120.85,-83.75"/>
<polygon fill="#63b8ff" stroke="#63b8ff" points="123.28,-81.22 113.44,-77.29 118.68,-86.5 123.28,-81.22"/>
</a>
</g>
</g>
<!-- Node4 -->
<g id="Node000004" class="node">
<title>Node4</title>
<g id="a_Node000004"><a xlink:href="inventory_8h.html" target="_top" xlink:title=" ">
<polygon fill="white" stroke="#666666" points="63.25,-76 0,-76 0,-56 63.25,-56 63.25,-76"/>
<text text-anchor="middle" x="31.62" y="-62.5" font-family="Helvetica,sans-Serif" font-size="10.00">inventory.h</text>
</a>
</g>
</g>
<!-- Node1&#45;&gt;Node4 -->
<g id="edge3_Node000001_Node000004" class="edge">
<title>Node1&#45;&gt;Node4</title>
<g id="a_edge3_Node000001_Node000004"><a xlink:title=" ">
<path fill="none" stroke="#63b8ff" d="M140.63,-111.59C119.84,-103.09 88.97,-90.46 65.39,-80.81"/>
<polygon fill="#63b8ff" stroke="#63b8ff" points="66.78,-77.6 56.2,-77.05 64.13,-84.08 66.78,-77.6"/>
</a>
</g>
</g>
<!-- Node6 -->
<g id="Node000006" class="node">
<title>Node6</title>
<g id="a_Node000006"><a xlink:href="extras_8h.html" target="_top" xlink:title=" ">
<polygon fill="white" stroke="#666666" points="295.25,-76 244,-76 244,-56 295.25,-56 295.25,-76"/>
<text text-anchor="middle" x="269.62" y="-62.5" font-family="Helvetica,sans-Serif" font-size="10.00">extras.h</text>
</a>
</g>
</g>
<!-- Node1&#45;&gt;Node6 -->
<g id="edge6_Node000001_Node000006" class="edge">
<title>Node1&#45;&gt;Node6</title>
<g id="a_edge6_Node000001_Node000006"><a xlink:title=" ">
<path fill="none" stroke="#63b8ff" d="M182.09,-111.59C198.33,-103.32 222.23,-91.14 240.96,-81.6"/>
<polygon fill="#63b8ff" stroke="#63b8ff" points="242.35,-84.82 249.67,-77.17 239.17,-78.59 242.35,-84.82"/>
</a>
</g>
</g>
<!-- Node9 -->
<g id="Node000009" class="node">
<title>Node9</title>
<g id="a_Node000009"><a xlink:href="items_8h.html" target="_top" xlink:title=" ">
<polygon fill="white" stroke="#666666" points="187.75,-76 139.5,-76 139.5,-56 187.75,-56 187.75,-76"/>
<text text-anchor="middle" x="163.62" y="-62.5" font-family="Helvetica,sans-Serif" font-size="10.00">items.h</text>
</a>
</g>
</g>
<!-- Node1&#45;&gt;Node9 -->
<g id="edge10_Node000001_Node000009" class="edge">
<title>Node1&#45;&gt;Node9</title>
<g id="a_edge10_Node000001_Node000009"><a xlink:title=" ">
<path fill="none" stroke="#63b8ff" d="M163.62,-111.59C163.62,-105.01 163.62,-95.96 163.62,-87.73"/>
<polygon fill="#63b8ff" stroke="#63b8ff" points="167.13,-87.81 163.63,-77.81 160.13,-87.81 167.13,-87.81"/>
</a>
</g>
</g>
<!-- Node4&#45;&gt;Node2 -->
<g id="edge5_Node000004_Node000002" class="edge">
<title>Node4&#45;&gt;Node2</title>
<g id="a_edge5_Node000004_Node000002"><a xlink:title=" ">
<path fill="none" stroke="#63b8ff" d="M56.36,-55.59C78.92,-47.01 112.53,-34.23 137.99,-24.55"/>
<polygon fill="#63b8ff" stroke="#63b8ff" points="139.18,-27.84 147.28,-21.02 136.69,-21.3 139.18,-27.84"/>
</a>
</g>
</g>
<!-- Node5 -->
<g id="Node000005" class="node">
<title>Node5</title>
<g id="a_Node000005"><a xlink:title=" ">
<polygon fill="#e0e0e0" stroke="#999999" points="53.12,-20 10.12,-20 10.12,0 53.12,0 53.12,-20"/>
<text text-anchor="middle" x="31.62" y="-6.5" font-family="Helvetica,sans-Serif" font-size="10.00">vector</text>
</a>
</g>
</g>
<!-- Node4&#45;&gt;Node5 -->
<g id="edge4_Node000004_Node000005" class="edge">
<title>Node4&#45;&gt;Node5</title>
<g id="a_edge4_Node000004_Node000005"><a xlink:title=" ">
<path fill="none" stroke="#63b8ff" d="M31.62,-55.59C31.62,-49.01 31.62,-39.96 31.62,-31.73"/>
<polygon fill="#63b8ff" stroke="#63b8ff" points="35.13,-31.81 31.63,-21.81 28.13,-31.81 35.13,-31.81"/>
</a>
</g>
</g>
<!-- Node6&#45;&gt;Node2 -->
<g id="edge9_Node000006_Node000002" class="edge">
<title>Node6&#45;&gt;Node2</title>
<g id="a_edge9_Node000006_Node000002"><a xlink:title=" ">
<path fill="none" stroke="#63b8ff" d="M252.9,-55.59C238.4,-47.44 217.15,-35.48 200.3,-26"/>
<polygon fill="#63b8ff" stroke="#63b8ff" points="202.23,-23.07 191.8,-21.22 198.8,-29.17 202.23,-23.07"/>
</a>
</g>
</g>
<!-- Node7 -->
<g id="Node000007" class="node">
<title>Node7</title>
<g id="a_Node000007"><a xlink:title=" ">
<polygon fill="#e0e0e0" stroke="#999999" points="282.25,-20 237,-20 237,0 282.25,0 282.25,-20"/>
<text text-anchor="middle" x="259.62" y="-6.5" font-family="Helvetica,sans-Serif" font-size="10.00">chrono</text>
</a>
</g>
</g>
<!-- Node6&#45;&gt;Node7 -->
<g id="edge7_Node000006_Node000007" class="edge">
<title>Node6&#45;&gt;Node7</title>
<g id="a_edge7_Node000006_Node000007"><a xlink:title=" ">
<path fill="none" stroke="#63b8ff" d="M267.88,-55.59C266.65,-48.93 264.95,-39.75 263.41,-31.44"/>
<polygon fill="#63b8ff" stroke="#63b8ff" points="266.88,-30.98 261.62,-21.79 260,-32.26 266.88,-30.98"/>
</a>
</g>
</g>
<!-- Node8 -->
<g id="Node000008" class="node">
<title>Node8</title>
<g id="a_Node000008"><a xlink:title=" ">
<polygon fill="#e0e0e0" stroke="#999999" points="343.12,-20 300.12,-20 300.12,0 343.12,0 343.12,-20"/>
<text text-anchor="middle" x="321.62" y="-6.5" font-family="Helvetica,sans-Serif" font-size="10.00">thread</text>
</a>
</g>
</g>
<!-- Node6&#45;&gt;Node8 -->
<g id="edge8_Node000006_Node000008" class="edge">
<title>Node6&#45;&gt;Node8</title>
<g id="a_edge8_Node000006_Node000008"><a xlink:title=" ">
<path fill="none" stroke="#63b8ff" d="M278.68,-55.59C285.84,-48.16 296.03,-37.58 304.69,-28.58"/>
<polygon fill="#63b8ff" stroke="#63b8ff" points="307.21,-31.02 311.62,-21.39 302.16,-26.16 307.21,-31.02"/>
</a>
</g>
</g>
<!-- Node9&#45;&gt;Node2 -->
<g id="edge11_Node000009_Node000002" class="edge">
<title>Node9&#45;&gt;Node2</title>
<g id="a_edge11_Node000009_Node000002"><a xlink:title=" ">
<path fill="none" stroke="#63b8ff" d="M165.37,-55.59C166.6,-48.93 168.3,-39.75 169.84,-31.44"/>
<polygon fill="#63b8ff" stroke="#63b8ff" points="173.25,-32.26 171.63,-21.79 166.37,-30.98 173.25,-32.26"/>
</a>
</g>
</g>
</g>
</svg>
