<?xml version="1.0" encoding="UTF-8" standalone="no"?>
<!DOCTYPE svg PUBLIC "-//W3C//DTD SVG 1.1//EN"
 "http://www.w3.org/Graphics/SVG/1.1/DTD/svg11.dtd">
<!-- Generated by graphviz version 12.2.1 (20241206.2353)
 -->
<!-- Title: src/items.cpp Pages: 1 -->
<svg width="209pt" height="196pt"
 viewBox="0.00 0.00 208.91 196.00" xmlns="http://www.w3.org/2000/svg" xmlns:xlink="http://www.w3.org/1999/xlink">
<g id="graph0" class="graph" transform="scale(1 1) rotate(0) translate(4 192)">
<title>src/items.cpp</title>
<!-- Node1 -->
<g id="Node000001" class="node">
<title>Node1</title>
<g id="a_Node000001"><a xlink:title=" ">
<polygon fill="#999999" stroke="#666666" points="92.91,-188 17.66,-188 17.66,-168 92.91,-168 92.91,-188"/>
<text text-anchor="middle" x="55.28" y="-174.5" font-family="Helvetica,sans-Serif" font-size="10.00">src/items.cpp</text>
</a>
</g>
</g>
<!-- Node2 -->
<g id="Node000002" class="node">
<title>Node2</title>
<g id="a_Node000002"><a xlink:title=" ">
<polygon fill="#e0e0e0" stroke="#999999" points="107.03,-20 53.53,-20 53.53,0 107.03,0 107.03,-20"/>
<text text-anchor="middle" x="80.28" y="-6.5" font-family="Helvetica,sans-Serif" font-size="10.00">iostream</text>
</a>
</g>
</g>
<!-- Node1&#45;&gt;Node2 -->
<g id="edge1_Node000001_Node000002" class="edge">
<title>Node1&#45;&gt;Node2</title>
<g id="a_edge1_Node000001_Node000002"><a xlink:title=" ">
<path fill="none" stroke="#63b8ff" d="M37.65,-167.59C25.22,-159.87 9.53,-147.66 2.28,-132 -1.45,-123.93 0.63,-120.73 2.28,-112 7.26,-85.73 8.44,-77.54 24.28,-56 32.6,-44.69 44.42,-34.63 55.07,-26.9"/>
<polygon fill="#63b8ff" stroke="#63b8ff" points="56.88,-29.91 63.13,-21.35 52.91,-24.14 56.88,-29.91"/>
</a>
</g>
</g>
<!-- Node3 -->
<g id="Node000003" class="node">
<title>Node3</title>
<g id="a_Node000003"><a xlink:title=" ">
<polygon fill="#e0e0e0" stroke="#999999" points="51.28,-132 11.28,-132 11.28,-112 51.28,-112 51.28,-132"/>
<text text-anchor="middle" x="31.28" y="-118.5" font-family="Helvetica,sans-Serif" font-size="10.00">string</text>
</a>
</g>
</g>
<!-- Node1&#45;&gt;Node3 -->
<g id="edge2_Node000001_Node000003" class="edge">
<title>Node1&#45;&gt;Node3</title>
<g id="a_edge2_Node000001_Node000003"><a xlink:title=" ">
<path fill="none" stroke="#63b8ff" d="M51.1,-167.59C48.04,-160.7 43.77,-151.1 39.98,-142.57"/>
<polygon fill="#63b8ff" stroke="#63b8ff" points="43.29,-141.4 36.03,-133.68 36.89,-144.24 43.29,-141.4"/>
</a>
</g>
</g>
<!-- Node4 -->
<g id="Node000004" class="node">
<title>Node4</title>
<g id="a_Node000004"><a xlink:href="entities_8h.html" target="_top" xlink:title=" ">
<polygon fill="white" stroke="#666666" points="163.16,-132 107.41,-132 107.41,-112 163.16,-112 163.16,-132"/>
<text text-anchor="middle" x="135.28" y="-118.5" font-family="Helvetica,sans-Serif" font-size="10.00">entities.h</text>
</a>
</g>
</g>
<!-- Node1&#45;&gt;Node4 -->
<g id="edge3_Node000001_Node000004" class="edge">
<title>Node1&#45;&gt;Node4</title>
<g id="a_edge3_Node000001_Node000004"><a xlink:title=" ">
<path fill="none" stroke="#63b8ff" d="M69.22,-167.59C80.96,-159.67 98.01,-148.16 111.85,-138.82"/>
<polygon fill="#63b8ff" stroke="#63b8ff" points="113.65,-141.82 119.98,-133.33 109.74,-136.02 113.65,-141.82"/>
</a>
</g>
</g>
<!-- Node7 -->
<g id="Node000007" class="node">
<title>Node7</title>
<g id="a_Node000007"><a xlink:href="items_8h.html" target="_top" xlink:title=" ">
<polygon fill="white" stroke="#666666" points="81.41,-76 33.16,-76 33.16,-56 81.41,-56 81.41,-76"/>
<text text-anchor="middle" x="57.28" y="-62.5" font-family="Helvetica,sans-Serif" font-size="10.00">items.h</text>
</a>
</g>
</g>
<!-- Node1&#45;&gt;Node7 -->
<g id="edge8_Node000001_Node000007" class="edge">
<title>Node1&#45;&gt;Node7</title>
<g id="a_edge8_Node000001_Node000007"><a xlink:title=" ">
<path fill="none" stroke="#63b8ff" d="M56.62,-167.72C57.85,-158.64 59.59,-144.4 60.28,-132 61.1,-117.11 60.28,-100.29 59.29,-87.5"/>
<polygon fill="#63b8ff" stroke="#63b8ff" points="62.8,-87.42 58.43,-77.77 55.82,-88.04 62.8,-87.42"/>
</a>
</g>
</g>
<!-- Node4&#45;&gt;Node2 -->
<g id="edge4_Node000004_Node000002" class="edge">
<title>Node4&#45;&gt;Node2</title>
<g id="a_edge4_Node000004_Node000002"><a xlink:title=" ">
<path fill="none" stroke="#63b8ff" d="M130.59,-111.62C121.62,-93.68 101.87,-54.17 89.95,-30.35"/>
<polygon fill="#63b8ff" stroke="#63b8ff" points="93.24,-29.09 85.63,-21.71 86.98,-32.22 93.24,-29.09"/>
</a>
</g>
</g>
<!-- Node5 -->
<g id="Node000005" class="node">
<title>Node5</title>
<g id="a_Node000005"><a xlink:href="inventory_8h.html" target="_top" xlink:title=" ">
<polygon fill="white" stroke="#666666" points="200.91,-76 137.66,-76 137.66,-56 200.91,-56 200.91,-76"/>
<text text-anchor="middle" x="169.28" y="-62.5" font-family="Helvetica,sans-Serif" font-size="10.00">inventory.h</text>
</a>
</g>
</g>
<!-- Node4&#45;&gt;Node5 -->
<g id="edge5_Node000004_Node000005" class="edge">
<title>Node4&#45;&gt;Node5</title>
<g id="a_edge5_Node000004_Node000005"><a xlink:title=" ">
<path fill="none" stroke="#63b8ff" d="M141.2,-111.59C145.64,-104.55 151.86,-94.67 157.32,-86"/>
<polygon fill="#63b8ff" stroke="#63b8ff" points="160.25,-87.91 162.62,-77.58 154.33,-84.18 160.25,-87.91"/>
</a>
</g>
</g>
<!-- Node5&#45;&gt;Node2 -->
<g id="edge7_Node000005_Node000002" class="edge">
<title>Node5&#45;&gt;Node2</title>
<g id="a_edge7_Node000005_Node000002"><a xlink:title=" ">
<path fill="none" stroke="#63b8ff" d="M153.78,-55.59C140.46,-47.51 121,-35.71 105.45,-26.27"/>
<polygon fill="#63b8ff" stroke="#63b8ff" points="107.56,-23.46 97.2,-21.26 103.93,-29.44 107.56,-23.46"/>
</a>
</g>
</g>
<!-- Node6 -->
<g id="Node000006" class="node">
<title>Node6</title>
<g id="a_Node000006"><a xlink:title=" ">
<polygon fill="#e0e0e0" stroke="#999999" points="190.78,-20 147.78,-20 147.78,0 190.78,0 190.78,-20"/>
<text text-anchor="middle" x="169.28" y="-6.5" font-family="Helvetica,sans-Serif" font-size="10.00">vector</text>
</a>
</g>
</g>
<!-- Node5&#45;&gt;Node6 -->
<g id="edge6_Node000005_Node000006" class="edge">
<title>Node5&#45;&gt;Node6</title>
<g id="a_edge6_Node000005_Node000006"><a xlink:title=" ">
<path fill="none" stroke="#63b8ff" d="M169.28,-55.59C169.28,-49.01 169.28,-39.96 169.28,-31.73"/>
<polygon fill="#63b8ff" stroke="#63b8ff" points="172.78,-31.81 169.28,-21.81 165.78,-31.81 172.78,-31.81"/>
</a>
</g>
</g>
<!-- Node7&#45;&gt;Node2 -->
<g id="edge9_Node000007_Node000002" class="edge">
<title>Node7&#45;&gt;Node2</title>
<g id="a_edge9_Node000007_Node000002"><a xlink:title=" ">
<path fill="none" stroke="#63b8ff" d="M61.29,-55.59C64.19,-48.78 68.22,-39.32 71.82,-30.86"/>
<polygon fill="#63b8ff" stroke="#63b8ff" points="75.03,-32.26 75.73,-21.69 68.59,-29.52 75.03,-32.26"/>
</a>
</g>
</g>
</g>
</svg>
