<?xml version="1.0" encoding="UTF-8" standalone="no"?>
<!DOCTYPE svg PUBLIC "-//W3C//DTD SVG 1.1//EN"
 "http://www.w3.org/Graphics/SVG/1.1/DTD/svg11.dtd">
<!-- Generated by graphviz version 12.2.1 (20241206.2353)
 -->
<!-- Title: src/items.h Pages: 1 -->
<svg width="439pt" height="140pt"
 viewBox="0.00 0.00 439.25 140.00" xmlns="http://www.w3.org/2000/svg" xmlns:xlink="http://www.w3.org/1999/xlink">
<g id="graph0" class="graph" transform="scale(1 1) rotate(0) translate(4 136)">
<title>src/items.h</title>
<!-- Node1 -->
<g id="Node000001" class="node">
<title>Node1</title>
<g id="a_Node000001"><a xlink:title=" ">
<polygon fill="#999999" stroke="#666666" points="270.5,-132 205.75,-132 205.75,-112 270.5,-112 270.5,-132"/>
<text text-anchor="middle" x="238.12" y="-118.5" font-family="Helvetica,sans-Serif" font-size="10.00">src/items.h</text>
</a>
</g>
</g>
<!-- Node2 -->
<g id="Node000002" class="node">
<title>Node2</title>
<g id="a_Node000002"><a xlink:href="inventory_8cpp.html" target="_top" xlink:title=" ">
<polygon fill="white" stroke="#666666" points="90.25,-76 0,-76 0,-56 90.25,-56 90.25,-76"/>
<text text-anchor="middle" x="45.12" y="-62.5" font-family="Helvetica,sans-Serif" font-size="10.00">src/inventory.cpp</text>
</a>
</g>
</g>
<!-- Node1&#45;&gt;Node2 -->
<g id="edge1_Node000001_Node000002" class="edge">
<title>Node1&#45;&gt;Node2</title>
<g id="a_edge1_Node000001_Node000002"><a xlink:title=" ">
<path fill="none" stroke="#63b8ff" d="M194.53,-108.8C159.55,-99.01 111.12,-85.47 79,-76.48"/>
<polygon fill="#63b8ff" stroke="#63b8ff" points="193.35,-112.11 203.93,-111.43 195.24,-105.37 193.35,-112.11"/>
</a>
</g>
</g>
<!-- Node3 -->
<g id="Node000003" class="node">
<title>Node3</title>
<g id="a_Node000003"><a xlink:href="items_8cpp.html" target="_top" xlink:title=" ">
<polygon fill="white" stroke="#666666" points="183.75,-76 108.5,-76 108.5,-56 183.75,-56 183.75,-76"/>
<text text-anchor="middle" x="146.12" y="-62.5" font-family="Helvetica,sans-Serif" font-size="10.00">src/items.cpp</text>
</a>
</g>
</g>
<!-- Node1&#45;&gt;Node3 -->
<g id="edge2_Node000001_Node000003" class="edge">
<title>Node1&#45;&gt;Node3</title>
<g id="a_edge2_Node000001_Node000003"><a xlink:title=" ">
<path fill="none" stroke="#63b8ff" d="M212.25,-105.81C196.2,-96.39 176.08,-84.58 162.28,-76.48"/>
<polygon fill="#63b8ff" stroke="#63b8ff" points="210.4,-108.78 220.79,-110.83 213.94,-102.75 210.4,-108.78"/>
</a>
</g>
</g>
<!-- Node4 -->
<g id="Node000004" class="node">
<title>Node4</title>
<g id="a_Node000004"><a xlink:href="main_8cpp.html" target="_top" xlink:title=" ">
<polygon fill="white" stroke="#666666" points="258.25,-20 186,-20 186,0 258.25,0 258.25,-20"/>
<text text-anchor="middle" x="222.12" y="-6.5" font-family="Helvetica,sans-Serif" font-size="10.00">src/main.cpp</text>
</a>
</g>
</g>
<!-- Node1&#45;&gt;Node4 -->
<g id="edge3_Node000001_Node000004" class="edge">
<title>Node1&#45;&gt;Node4</title>
<g id="a_edge3_Node000001_Node000004"><a xlink:title=" ">
<path fill="none" stroke="#63b8ff" d="M234.86,-100.5C233.66,-92.82 232.3,-84.01 231.12,-76 228.21,-56.16 225.05,-32.88 223.36,-20.26"/>
<polygon fill="#63b8ff" stroke="#63b8ff" points="231.38,-100.87 236.4,-110.2 238.29,-99.78 231.38,-100.87"/>
</a>
</g>
</g>
<!-- Node5 -->
<g id="Node000005" class="node">
<title>Node5</title>
<g id="a_Node000005"><a xlink:href="shop_8h.html" target="_top" xlink:title=" ">
<polygon fill="white" stroke="#666666" points="406,-76 344.25,-76 344.25,-56 406,-56 406,-76"/>
<text text-anchor="middle" x="375.12" y="-62.5" font-family="Helvetica,sans-Serif" font-size="10.00">src/shop.h</text>
</a>
</g>
</g>
<!-- Node1&#45;&gt;Node5 -->
<g id="edge4_Node000001_Node000005" class="edge">
<title>Node1&#45;&gt;Node5</title>
<g id="a_edge4_Node000001_Node000005"><a xlink:title=" ">
<path fill="none" stroke="#63b8ff" d="M272.62,-107.4C297.1,-97.75 329.34,-85.05 351.08,-76.48"/>
<polygon fill="#63b8ff" stroke="#63b8ff" points="271.42,-104.12 263.4,-111.04 273.98,-110.63 271.42,-104.12"/>
</a>
</g>
</g>
<!-- Node7 -->
<g id="Node000007" class="node">
<title>Node7</title>
<g id="a_Node000007"><a xlink:href="ui_8cpp.html" target="_top" xlink:title=" ">
<polygon fill="white" stroke="#666666" points="340.5,-20 281.75,-20 281.75,0 340.5,0 340.5,-20"/>
<text text-anchor="middle" x="311.12" y="-6.5" font-family="Helvetica,sans-Serif" font-size="10.00">src/ui.cpp</text>
</a>
</g>
</g>
<!-- Node1&#45;&gt;Node7 -->
<g id="edge7_Node000001_Node000007" class="edge">
<title>Node1&#45;&gt;Node7</title>
<g id="a_edge7_Node000001_Node000007"><a xlink:title=" ">
<path fill="none" stroke="#63b8ff" d="M266.21,-105.58C277.44,-98.06 289.49,-88.03 297.12,-76 308.26,-58.46 310.66,-33.45 311.1,-20.15"/>
<polygon fill="#63b8ff" stroke="#63b8ff" points="264.6,-102.46 257.98,-110.73 268.31,-108.4 264.6,-102.46"/>
</a>
</g>
</g>
<!-- Node8 -->
<g id="Node000008" class="node">
<title>Node8</title>
<g id="a_Node000008"><a xlink:href="ui_8h.html" target="_top" xlink:title=" ">
<polygon fill="white" stroke="#666666" points="288.25,-76 240,-76 240,-56 288.25,-56 288.25,-76"/>
<text text-anchor="middle" x="264.12" y="-62.5" font-family="Helvetica,sans-Serif" font-size="10.00">src/ui.h</text>
</a>
</g>
</g>
<!-- Node1&#45;&gt;Node8 -->
<g id="edge8_Node000001_Node000008" class="edge">
<title>Node1&#45;&gt;Node8</title>
<g id="a_edge8_Node000001_Node000008"><a xlink:title=" ">
<path fill="none" stroke="#63b8ff" d="M247.61,-101.29C251.73,-92.75 256.34,-83.16 259.65,-76.3"/>
<polygon fill="#63b8ff" stroke="#63b8ff" points="244.5,-99.7 243.31,-110.23 250.8,-102.74 244.5,-99.7"/>
</a>
</g>
</g>
<!-- Node6 -->
<g id="Node000006" class="node">
<title>Node6</title>
<g id="a_Node000006"><a xlink:href="shop_8cpp.html" target="_top" xlink:title=" ">
<polygon fill="white" stroke="#666666" points="431.25,-20 359,-20 359,0 431.25,0 431.25,-20"/>
<text text-anchor="middle" x="395.12" y="-6.5" font-family="Helvetica,sans-Serif" font-size="10.00">src/shop.cpp</text>
</a>
</g>
</g>
<!-- Node5&#45;&gt;Node6 -->
<g id="edge5_Node000005_Node000006" class="edge">
<title>Node5&#45;&gt;Node6</title>
<g id="a_edge5_Node000005_Node000006"><a xlink:title=" ">
<path fill="none" stroke="#63b8ff" d="M382.53,-45C385.67,-36.54 389.17,-27.08 391.68,-20.3"/>
<polygon fill="#63b8ff" stroke="#63b8ff" points="379.33,-43.58 379.13,-54.17 385.89,-46.01 379.33,-43.58"/>
</a>
</g>
</g>
<!-- Node5&#45;&gt;Node7 -->
<g id="edge6_Node000005_Node000007" class="edge">
<title>Node5&#45;&gt;Node7</title>
<g id="a_edge6_Node000005_Node000007"><a xlink:title=" ">
<path fill="none" stroke="#63b8ff" d="M355.45,-48.4C344.51,-39.17 331.28,-28.01 322.15,-20.3"/>
<polygon fill="#63b8ff" stroke="#63b8ff" points="352.92,-50.84 362.82,-54.62 357.43,-45.49 352.92,-50.84"/>
</a>
</g>
</g>
<!-- Node8&#45;&gt;Node4 -->
<g id="edge9_Node000008_Node000004" class="edge">
<title>Node8&#45;&gt;Node4</title>
<g id="a_edge9_Node000008_Node000004"><a xlink:title=" ">
<path fill="none" stroke="#63b8ff" d="M249.91,-46.72C243,-37.84 234.99,-27.55 229.36,-20.3"/>
<polygon fill="#63b8ff" stroke="#63b8ff" points="246.98,-48.65 255.88,-54.4 252.5,-44.36 246.98,-48.65"/>
</a>
</g>
</g>
<!-- Node8&#45;&gt;Node7 -->
<g id="edge10_Node000008_Node000007" class="edge">
<title>Node8&#45;&gt;Node7</title>
<g id="a_edge10_Node000008_Node000007"><a xlink:title=" ">
<path fill="none" stroke="#63b8ff" d="M279.79,-47C287.57,-38.06 296.66,-27.62 303.03,-20.3"/>
<polygon fill="#63b8ff" stroke="#63b8ff" points="277.23,-44.61 273.31,-54.45 282.51,-49.21 277.23,-44.61"/>
</a>
</g>
</g>
</g>
</svg>
