<?xml version="1.0" encoding="UTF-8" standalone="no"?>
<!DOCTYPE svg PUBLIC "-//W3C//DTD SVG 1.1//EN"
 "http://www.w3.org/Graphics/SVG/1.1/DTD/svg11.dtd">
<!-- Generated by graphviz version 12.2.1 (20241206.2353)
 -->
<!-- Title: src/items.h Pages: 1 -->
<svg width="526pt" height="140pt"
 viewBox="0.00 0.00 525.50 140.00" xmlns="http://www.w3.org/2000/svg" xmlns:xlink="http://www.w3.org/1999/xlink">
<g id="graph0" class="graph" transform="scale(1 1) rotate(0) translate(4 136)">
<title>src/items.h</title>
<!-- Node1 -->
<g id="Node000001" class="node">
<title>Node1</title>
<g id="a_Node000001"><a xlink:title=" ">
<polygon fill="#999999" stroke="#666666" points="270.5,-132 205.75,-132 205.75,-112 270.5,-112 270.5,-132"/>
<text text-anchor="middle" x="238.12" y="-118.5" font-family="Helvetica,sans-Serif" font-size="10.00">src/items.h</text>
</a>
</g>
</g>
<!-- Node2 -->
<g id="Node000002" class="node">
<title>Node2</title>
<g id="a_Node000002"><a xlink:href="inventory_8cpp.html" target="_top" xlink:title=" ">
<polygon fill="white" stroke="#666666" points="90.25,-76 0,-76 0,-56 90.25,-56 90.25,-76"/>
<text text-anchor="middle" x="45.12" y="-62.5" font-family="Helvetica,sans-Serif" font-size="10.00">src/inventory.cpp</text>
</a>
</g>
</g>
<!-- Node1&#45;&gt;Node2 -->
<g id="edge1_Node000001_Node000002" class="edge">
<title>Node1&#45;&gt;Node2</title>
<g id="a_edge1_Node000001_Node000002"><a xlink:title=" ">
<path fill="none" stroke="#63b8ff" d="M194.53,-108.8C159.55,-99.01 111.12,-85.47 79,-76.48"/>
<polygon fill="#63b8ff" stroke="#63b8ff" points="193.35,-112.11 203.93,-111.43 195.24,-105.37 193.35,-112.11"/>
</a>
</g>
</g>
<!-- Node3 -->
<g id="Node000003" class="node">
<title>Node3</title>
<g id="a_Node000003"><a xlink:href="items_8cpp.html" target="_top" xlink:title=" ">
<polygon fill="white" stroke="#666666" points="183.75,-76 108.5,-76 108.5,-56 183.75,-56 183.75,-76"/>
<text text-anchor="middle" x="146.12" y="-62.5" font-family="Helvetica,sans-Serif" font-size="10.00">src/items.cpp</text>
</a>
</g>
</g>
<!-- Node1&#45;&gt;Node3 -->
<g id="edge2_Node000001_Node000003" class="edge">
<title>Node1&#45;&gt;Node3</title>
<g id="a_edge2_Node000001_Node000003"><a xlink:title=" ">
<path fill="none" stroke="#63b8ff" d="M212.25,-105.81C196.2,-96.39 176.08,-84.58 162.28,-76.48"/>
<polygon fill="#63b8ff" stroke="#63b8ff" points="210.4,-108.78 220.79,-110.83 213.94,-102.75 210.4,-108.78"/>
</a>
</g>
</g>
<!-- Node4 -->
<g id="Node000004" class="node">
<title>Node4</title>
<g id="a_Node000004"><a xlink:href="main_8cpp.html" target="_top" xlink:title=" ">
<polygon fill="white" stroke="#666666" points="248.25,-20 176,-20 176,0 248.25,0 248.25,-20"/>
<text text-anchor="middle" x="212.12" y="-6.5" font-family="Helvetica,sans-Serif" font-size="10.00">src/main.cpp</text>
</a>
</g>
</g>
<!-- Node1&#45;&gt;Node4 -->
<g id="edge3_Node000001_Node000004" class="edge">
<title>Node1&#45;&gt;Node4</title>
<g id="a_edge3_Node000001_Node000004"><a xlink:title=" ">
<path fill="none" stroke="#63b8ff" d="M233.31,-100.64C227.66,-76.72 218.51,-38.03 214.34,-20.35"/>
<polygon fill="#63b8ff" stroke="#63b8ff" points="229.85,-101.22 235.56,-110.15 236.67,-99.61 229.85,-101.22"/>
</a>
</g>
</g>
<!-- Node5 -->
<g id="Node000005" class="node">
<title>Node5</title>
<g id="a_Node000005"><a xlink:href="shop_8h.html" target="_top" xlink:title=" ">
<polygon fill="white" stroke="#666666" points="409,-76 347.25,-76 347.25,-56 409,-56 409,-76"/>
<text text-anchor="middle" x="378.12" y="-62.5" font-family="Helvetica,sans-Serif" font-size="10.00">src/shop.h</text>
</a>
</g>
</g>
<!-- Node1&#45;&gt;Node5 -->
<g id="edge4_Node000001_Node000005" class="edge">
<title>Node1&#45;&gt;Node5</title>
<g id="a_edge4_Node000001_Node000005"><a xlink:title=" ">
<path fill="none" stroke="#63b8ff" d="M273.04,-107.53C298.1,-97.87 331.24,-85.08 353.55,-76.48"/>
<polygon fill="#63b8ff" stroke="#63b8ff" points="271.99,-104.18 263.92,-111.05 274.51,-110.72 271.99,-104.18"/>
</a>
</g>
</g>
<!-- Node8 -->
<g id="Node000008" class="node">
<title>Node8</title>
<g id="a_Node000008"><a xlink:href="ui_8cpp.html" target="_top" xlink:title=" ">
<polygon fill="white" stroke="#666666" points="325.5,-20 266.75,-20 266.75,0 325.5,0 325.5,-20"/>
<text text-anchor="middle" x="296.12" y="-6.5" font-family="Helvetica,sans-Serif" font-size="10.00">src/ui.cpp</text>
</a>
</g>
</g>
<!-- Node1&#45;&gt;Node8 -->
<g id="edge8_Node000001_Node000008" class="edge">
<title>Node1&#45;&gt;Node8</title>
<g id="a_edge8_Node000001_Node000008"><a xlink:title=" ">
<path fill="none" stroke="#63b8ff" d="M268.21,-105.83C279.43,-98.48 290.94,-88.5 297.12,-76 306.04,-58 302.07,-33.6 298.83,-20.41"/>
<polygon fill="#63b8ff" stroke="#63b8ff" points="266.64,-102.69 259.86,-110.83 270.24,-108.69 266.64,-102.69"/>
</a>
</g>
</g>
<!-- Node9 -->
<g id="Node000009" class="node">
<title>Node9</title>
<g id="a_Node000009"><a xlink:href="ui_8h.html" target="_top" xlink:title=" ">
<polygon fill="white" stroke="#666666" points="288.25,-76 240,-76 240,-56 288.25,-56 288.25,-76"/>
<text text-anchor="middle" x="264.12" y="-62.5" font-family="Helvetica,sans-Serif" font-size="10.00">src/ui.h</text>
</a>
</g>
</g>
<!-- Node1&#45;&gt;Node9 -->
<g id="edge9_Node000001_Node000009" class="edge">
<title>Node1&#45;&gt;Node9</title>
<g id="a_edge9_Node000001_Node000009"><a xlink:title=" ">
<path fill="none" stroke="#63b8ff" d="M247.61,-101.29C251.73,-92.75 256.34,-83.16 259.65,-76.3"/>
<polygon fill="#63b8ff" stroke="#63b8ff" points="244.5,-99.7 243.31,-110.23 250.8,-102.74 244.5,-99.7"/>
</a>
</g>
</g>
<!-- Node6 -->
<g id="Node000006" class="node">
<title>Node6</title>
<g id="a_Node000006"><a xlink:href="entities_8cpp.html" target="_top" xlink:title=" ">
<polygon fill="white" stroke="#666666" points="517.5,-20 434.75,-20 434.75,0 517.5,0 517.5,-20"/>
<text text-anchor="middle" x="476.12" y="-6.5" font-family="Helvetica,sans-Serif" font-size="10.00">src/entities.cpp</text>
</a>
</g>
</g>
<!-- Node5&#45;&gt;Node6 -->
<g id="edge5_Node000005_Node000006" class="edge">
<title>Node5&#45;&gt;Node6</title>
<g id="a_edge5_Node000005_Node000006"><a xlink:title=" ">
<path fill="none" stroke="#63b8ff" d="M405.2,-50.08C422.38,-40.62 444.08,-28.66 458.92,-20.48"/>
<polygon fill="#63b8ff" stroke="#63b8ff" points="403.59,-46.97 396.52,-54.86 406.97,-53.1 403.59,-46.97"/>
</a>
</g>
</g>
<!-- Node7 -->
<g id="Node000007" class="node">
<title>Node7</title>
<g id="a_Node000007"><a xlink:href="shop_8cpp.html" target="_top" xlink:title=" ">
<polygon fill="white" stroke="#666666" points="416.25,-20 344,-20 344,0 416.25,0 416.25,-20"/>
<text text-anchor="middle" x="380.12" y="-6.5" font-family="Helvetica,sans-Serif" font-size="10.00">src/shop.cpp</text>
</a>
</g>
</g>
<!-- Node5&#45;&gt;Node7 -->
<g id="edge6_Node000005_Node000007" class="edge">
<title>Node5&#45;&gt;Node7</title>
<g id="a_edge6_Node000005_Node000007"><a xlink:title=" ">
<path fill="none" stroke="#63b8ff" d="M378.9,-44.13C379.2,-35.9 379.54,-26.85 379.78,-20.3"/>
<polygon fill="#63b8ff" stroke="#63b8ff" points="375.4,-43.96 378.53,-54.08 382.4,-44.22 375.4,-43.96"/>
</a>
</g>
</g>
<!-- Node5&#45;&gt;Node8 -->
<g id="edge7_Node000005_Node000008" class="edge">
<title>Node5&#45;&gt;Node8</title>
<g id="a_edge7_Node000005_Node000008"><a xlink:title=" ">
<path fill="none" stroke="#63b8ff" d="M354.24,-49.27C340.08,-39.94 322.59,-28.43 310.52,-20.48"/>
<polygon fill="#63b8ff" stroke="#63b8ff" points="352.3,-52.18 362.58,-54.76 356.15,-46.34 352.3,-52.18"/>
</a>
</g>
</g>
<!-- Node9&#45;&gt;Node4 -->
<g id="edge10_Node000009_Node000004" class="edge">
<title>Node9&#45;&gt;Node4</title>
<g id="a_edge10_Node000009_Node000004"><a xlink:title=" ">
<path fill="none" stroke="#63b8ff" d="M247.34,-47.57C238.61,-38.5 228.28,-27.78 221.08,-20.3"/>
<polygon fill="#63b8ff" stroke="#63b8ff" points="244.56,-49.73 254.02,-54.5 249.6,-44.87 244.56,-49.73"/>
</a>
</g>
</g>
<!-- Node9&#45;&gt;Node8 -->
<g id="edge11_Node000009_Node000008" class="edge">
<title>Node9&#45;&gt;Node8</title>
<g id="a_edge11_Node000009_Node000008"><a xlink:title=" ">
<path fill="none" stroke="#63b8ff" d="M275.46,-45.87C280.61,-37.19 286.46,-27.32 290.61,-20.3"/>
<polygon fill="#63b8ff" stroke="#63b8ff" points="272.56,-43.9 270.47,-54.29 278.58,-47.47 272.56,-43.9"/>
</a>
</g>
</g>
</g>
</svg>
