<?xml version="1.0" encoding="UTF-8" standalone="no"?>
<!DOCTYPE svg PUBLIC "-//W3C//DTD SVG 1.1//EN"
 "http://www.w3.org/Graphics/SVG/1.1/DTD/svg11.dtd">
<!-- Generated by graphviz version 12.2.1 (20241206.2353)
 -->
<!-- Title: src/items.cpp Pages: 1 -->
<svg width="191pt" height="196pt"
 viewBox="0.00 0.00 191.25 196.00" xmlns="http://www.w3.org/2000/svg" xmlns:xlink="http://www.w3.org/1999/xlink">
<g id="graph0" class="graph" transform="scale(1 1) rotate(0) translate(4 192)">
<title>src/items.cpp</title>
<!-- Node1 -->
<g id="Node000001" class="node">
<title>Node1</title>
<g id="a_Node000001"><a xlink:title=" ">
<polygon fill="#999999" stroke="#666666" points="75.25,-188 0,-188 0,-168 75.25,-168 75.25,-188"/>
<text text-anchor="middle" x="37.62" y="-174.5" font-family="Helvetica,sans-Serif" font-size="10.00">src/items.cpp</text>
</a>
</g>
</g>
<!-- Node2 -->
<g id="Node000002" class="node">
<title>Node2</title>
<g id="a_Node000002"><a xlink:title=" ">
<polygon fill="#e0e0e0" stroke="#999999" points="89.38,-20 35.88,-20 35.88,0 89.38,0 89.38,-20"/>
<text text-anchor="middle" x="62.62" y="-6.5" font-family="Helvetica,sans-Serif" font-size="10.00">iostream</text>
</a>
</g>
</g>
<!-- Node1&#45;&gt;Node2 -->
<g id="edge1_Node000001_Node000002" class="edge">
<title>Node1&#45;&gt;Node2</title>
<g id="a_edge1_Node000001_Node000002"><a xlink:title=" ">
<path fill="none" stroke="#63b8ff" d="M31.13,-167.78C17.34,-146.96 -12.12,-95.11 6.62,-56 12.44,-43.86 23.31,-33.95 33.94,-26.56"/>
<polygon fill="#63b8ff" stroke="#63b8ff" points="35.65,-29.62 42.2,-21.3 31.89,-23.72 35.65,-29.62"/>
</a>
</g>
</g>
<!-- Node3 -->
<g id="Node000003" class="node">
<title>Node3</title>
<g id="a_Node000003"><a xlink:href="entities_8h.html" target="_top" xlink:title=" ">
<polygon fill="white" stroke="#666666" points="121.5,-132 65.75,-132 65.75,-112 121.5,-112 121.5,-132"/>
<text text-anchor="middle" x="93.62" y="-118.5" font-family="Helvetica,sans-Serif" font-size="10.00">entities.h</text>
</a>
</g>
</g>
<!-- Node1&#45;&gt;Node3 -->
<g id="edge2_Node000001_Node000003" class="edge">
<title>Node1&#45;&gt;Node3</title>
<g id="a_edge2_Node000001_Node000003"><a xlink:title=" ">
<path fill="none" stroke="#63b8ff" d="M47.38,-167.59C55.25,-160.01 66.52,-149.13 75.97,-140.02"/>
<polygon fill="#63b8ff" stroke="#63b8ff" points="78.12,-142.81 82.89,-133.35 73.26,-137.77 78.12,-142.81"/>
</a>
</g>
</g>
<!-- Node6 -->
<g id="Node000006" class="node">
<title>Node6</title>
<g id="a_Node000006"><a xlink:href="items_8h.html" target="_top" xlink:title=" ">
<polygon fill="white" stroke="#666666" points="63.75,-76 15.5,-76 15.5,-56 63.75,-56 63.75,-76"/>
<text text-anchor="middle" x="39.62" y="-62.5" font-family="Helvetica,sans-Serif" font-size="10.00">items.h</text>
</a>
</g>
</g>
<!-- Node1&#45;&gt;Node6 -->
<g id="edge7_Node000001_Node000006" class="edge">
<title>Node1&#45;&gt;Node6</title>
<g id="a_edge7_Node000001_Node000006"><a xlink:title=" ">
<path fill="none" stroke="#63b8ff" d="M37.8,-167.62C38.12,-150.01 38.81,-111.59 39.25,-87.65"/>
<polygon fill="#63b8ff" stroke="#63b8ff" points="42.74,-87.93 39.43,-77.87 35.75,-87.8 42.74,-87.93"/>
</a>
</g>
</g>
<!-- Node3&#45;&gt;Node2 -->
<g id="edge3_Node000003_Node000002" class="edge">
<title>Node3&#45;&gt;Node2</title>
<g id="a_edge3_Node000003_Node000002"><a xlink:title=" ">
<path fill="none" stroke="#63b8ff" d="M90.98,-111.62C85.99,-93.92 75.09,-55.24 68.35,-31.32"/>
<polygon fill="#63b8ff" stroke="#63b8ff" points="71.75,-30.49 65.67,-21.81 65.02,-32.39 71.75,-30.49"/>
</a>
</g>
</g>
<!-- Node4 -->
<g id="Node000004" class="node">
<title>Node4</title>
<g id="a_Node000004"><a xlink:href="inventory_8h.html" target="_top" xlink:title=" ">
<polygon fill="white" stroke="#666666" points="183.25,-76 120,-76 120,-56 183.25,-56 183.25,-76"/>
<text text-anchor="middle" x="151.62" y="-62.5" font-family="Helvetica,sans-Serif" font-size="10.00">inventory.h</text>
</a>
</g>
</g>
<!-- Node3&#45;&gt;Node4 -->
<g id="edge4_Node000003_Node000004" class="edge">
<title>Node3&#45;&gt;Node4</title>
<g id="a_edge4_Node000003_Node000004"><a xlink:title=" ">
<path fill="none" stroke="#63b8ff" d="M103.73,-111.59C111.88,-104.01 123.56,-93.13 133.34,-84.02"/>
<polygon fill="#63b8ff" stroke="#63b8ff" points="135.6,-86.71 140.53,-77.33 130.83,-81.58 135.6,-86.71"/>
</a>
</g>
</g>
<!-- Node4&#45;&gt;Node2 -->
<g id="edge6_Node000004_Node000002" class="edge">
<title>Node4&#45;&gt;Node2</title>
<g id="a_edge6_Node000004_Node000002"><a xlink:title=" ">
<path fill="none" stroke="#63b8ff" d="M136.12,-55.59C122.8,-47.51 103.35,-35.71 87.8,-26.27"/>
<polygon fill="#63b8ff" stroke="#63b8ff" points="89.91,-23.46 79.54,-21.26 86.28,-29.44 89.91,-23.46"/>
</a>
</g>
</g>
<!-- Node5 -->
<g id="Node000005" class="node">
<title>Node5</title>
<g id="a_Node000005"><a xlink:title=" ">
<polygon fill="#e0e0e0" stroke="#999999" points="173.12,-20 130.12,-20 130.12,0 173.12,0 173.12,-20"/>
<text text-anchor="middle" x="151.62" y="-6.5" font-family="Helvetica,sans-Serif" font-size="10.00">vector</text>
</a>
</g>
</g>
<!-- Node4&#45;&gt;Node5 -->
<g id="edge5_Node000004_Node000005" class="edge">
<title>Node4&#45;&gt;Node5</title>
<g id="a_edge5_Node000004_Node000005"><a xlink:title=" ">
<path fill="none" stroke="#63b8ff" d="M151.62,-55.59C151.62,-49.01 151.62,-39.96 151.62,-31.73"/>
<polygon fill="#63b8ff" stroke="#63b8ff" points="155.13,-31.81 151.63,-21.81 148.13,-31.81 155.13,-31.81"/>
</a>
</g>
</g>
<!-- Node6&#45;&gt;Node2 -->
<g id="edge8_Node000006_Node000002" class="edge">
<title>Node6&#45;&gt;Node2</title>
<g id="a_edge8_Node000006_Node000002"><a xlink:title=" ">
<path fill="none" stroke="#63b8ff" d="M43.63,-55.59C46.53,-48.78 50.56,-39.32 54.17,-30.86"/>
<polygon fill="#63b8ff" stroke="#63b8ff" points="57.37,-32.26 58.07,-21.69 50.93,-29.52 57.37,-32.26"/>
</a>
</g>
</g>
</g>
</svg>
