<?xml version="1.0" encoding="UTF-8" standalone="no"?>
<!DOCTYPE svg PUBLIC "-//W3C//DTD SVG 1.1//EN"
 "http://www.w3.org/Graphics/SVG/1.1/DTD/svg11.dtd">
<!-- Generated by graphviz version 12.2.1 (20241206.2353)
 -->
<!-- Title: src/main.cpp Pages: 1 -->
<svg width="537pt" height="252pt"
 viewBox="0.00 0.00 537.12 252.00" xmlns="http://www.w3.org/2000/svg" xmlns:xlink="http://www.w3.org/1999/xlink">
<g id="graph0" class="graph" transform="scale(1 1) rotate(0) translate(4 248)">
<title>src/main.cpp</title>
<!-- Node1 -->
<g id="Node000001" class="node">
<title>Node1</title>
<g id="a_Node000001"><a xlink:title=" ">
<polygon fill="#999999" stroke="#666666" points="373.75,-244 301.5,-244 301.5,-224 373.75,-224 373.75,-244"/>
<text text-anchor="middle" x="337.62" y="-230.5" font-family="Helvetica,sans-Serif" font-size="10.00">src/main.cpp</text>
</a>
</g>
</g>
<!-- Node2 -->
<g id="Node000002" class="node">
<title>Node2</title>
<g id="a_Node000002"><a xlink:title=" ">
<polygon fill="#e0e0e0" stroke="#999999" points="406.38,-20 352.88,-20 352.88,0 406.38,0 406.38,-20"/>
<text text-anchor="middle" x="379.62" y="-6.5" font-family="Helvetica,sans-Serif" font-size="10.00">iostream</text>
</a>
</g>
</g>
<!-- Node1&#45;&gt;Node2 -->
<g id="edge1_Node000001_Node000002" class="edge">
<title>Node1&#45;&gt;Node2</title>
<g id="a_edge1_Node000001_Node000002"><a xlink:title=" ">
<path fill="none" stroke="#63b8ff" d="M348.93,-223.55C367.53,-207.19 403.87,-171.51 417.62,-132 430.11,-96.13 408.52,-53.67 393.11,-29.78"/>
<polygon fill="#63b8ff" stroke="#63b8ff" points="396.16,-28.04 387.65,-21.73 390.36,-31.97 396.16,-28.04"/>
</a>
</g>
</g>
<!-- Node3 -->
<g id="Node000003" class="node">
<title>Node3</title>
<g id="a_Node000003"><a xlink:title=" ">
<polygon fill="#e0e0e0" stroke="#999999" points="529.12,-20 486.12,-20 486.12,0 529.12,0 529.12,-20"/>
<text text-anchor="middle" x="507.62" y="-6.5" font-family="Helvetica,sans-Serif" font-size="10.00">vector</text>
</a>
</g>
</g>
<!-- Node1&#45;&gt;Node3 -->
<g id="edge2_Node000001_Node000003" class="edge">
<title>Node1&#45;&gt;Node3</title>
<g id="a_edge2_Node000001_Node000003"><a xlink:title=" ">
<path fill="none" stroke="#63b8ff" d="M374.22,-228.86C403.55,-223.78 444.04,-212.57 470.62,-188 510.4,-151.24 507.74,-129.05 518.62,-76 521.69,-61.05 518.58,-44.03 514.89,-31.16"/>
<polygon fill="#63b8ff" stroke="#63b8ff" points="518.25,-30.16 511.83,-21.73 511.59,-32.33 518.25,-30.16"/>
</a>
</g>
</g>
<!-- Node4 -->
<g id="Node000004" class="node">
<title>Node4</title>
<g id="a_Node000004"><a xlink:href="extras_8h.html" target="_top" xlink:title=" ">
<polygon fill="white" stroke="#666666" points="79.25,-132 28,-132 28,-112 79.25,-112 79.25,-132"/>
<text text-anchor="middle" x="53.62" y="-118.5" font-family="Helvetica,sans-Serif" font-size="10.00">extras.h</text>
</a>
</g>
</g>
<!-- Node1&#45;&gt;Node4 -->
<g id="edge3_Node000001_Node000004" class="edge">
<title>Node1&#45;&gt;Node4</title>
<g id="a_edge3_Node000001_Node000004"><a xlink:title=" ">
<path fill="none" stroke="#63b8ff" d="M301.25,-224.94C268.57,-217.18 219.56,-204.24 178.62,-188 142.82,-173.79 103.75,-152.46 79,-138.15"/>
<polygon fill="#63b8ff" stroke="#63b8ff" points="81.02,-135.28 70.62,-133.26 77.49,-141.33 81.02,-135.28"/>
</a>
</g>
</g>
<!-- Node7 -->
<g id="Node000007" class="node">
<title>Node7</title>
<g id="a_Node000007"><a xlink:href="ui_8h.html" target="_top" xlink:title=" ">
<polygon fill="white" stroke="#666666" points="255.5,-188 223.75,-188 223.75,-168 255.5,-168 255.5,-188"/>
<text text-anchor="middle" x="239.62" y="-174.5" font-family="Helvetica,sans-Serif" font-size="10.00">ui.h</text>
</a>
</g>
</g>
<!-- Node1&#45;&gt;Node7 -->
<g id="edge7_Node000001_Node000007" class="edge">
<title>Node1&#45;&gt;Node7</title>
<g id="a_edge7_Node000001_Node000007"><a xlink:title=" ">
<path fill="none" stroke="#63b8ff" d="M320.55,-223.59C305.48,-215.29 283.26,-203.04 265.91,-193.48"/>
<polygon fill="#63b8ff" stroke="#63b8ff" points="267.62,-190.43 257.17,-188.67 264.24,-196.56 267.62,-190.43"/>
</a>
</g>
</g>
<!-- Node9 -->
<g id="Node000009" class="node">
<title>Node9</title>
<g id="a_Node000009"><a xlink:href="inventory_8h.html" target="_top" xlink:title=" ">
<polygon fill="white" stroke="#666666" points="509.25,-76 446,-76 446,-56 509.25,-56 509.25,-76"/>
<text text-anchor="middle" x="477.62" y="-62.5" font-family="Helvetica,sans-Serif" font-size="10.00">inventory.h</text>
</a>
</g>
</g>
<!-- Node1&#45;&gt;Node9 -->
<g id="edge19_Node000001_Node000009" class="edge">
<title>Node1&#45;&gt;Node9</title>
<g id="a_edge19_Node000001_Node000009"><a xlink:title=" ">
<path fill="none" stroke="#63b8ff" d="M374.12,-227.58C399.23,-221.93 431.38,-210.58 450.62,-188 474.86,-159.56 478.64,-114.05 478.57,-87.7"/>
<polygon fill="#63b8ff" stroke="#63b8ff" points="482.07,-87.89 478.33,-77.98 475.07,-88.06 482.07,-87.89"/>
</a>
</g>
</g>
<!-- Node10 -->
<g id="Node000010" class="node">
<title>Node10</title>
<g id="a_Node000010"><a xlink:href="items_8h.html" target="_top" xlink:title=" ">
<polygon fill="white" stroke="#666666" points="145.75,-132 97.5,-132 97.5,-112 145.75,-112 145.75,-132"/>
<text text-anchor="middle" x="121.62" y="-118.5" font-family="Helvetica,sans-Serif" font-size="10.00">items.h</text>
</a>
</g>
</g>
<!-- Node1&#45;&gt;Node10 -->
<g id="edge20_Node000001_Node000010" class="edge">
<title>Node1&#45;&gt;Node10</title>
<g id="a_edge20_Node000001_Node000010"><a xlink:title=" ">
<path fill="none" stroke="#63b8ff" d="M304.8,-223.55C279.44,-215.65 243.86,-203.24 214.62,-188 187.85,-174.05 159.8,-153.5 141.59,-139.26"/>
<polygon fill="#63b8ff" stroke="#63b8ff" points="144.22,-136.88 134.22,-133.39 139.87,-142.36 144.22,-136.88"/>
</a>
</g>
</g>
<!-- Node4&#45;&gt;Node2 -->
<g id="edge6_Node000004_Node000002" class="edge">
<title>Node4&#45;&gt;Node2</title>
<g id="a_edge6_Node000004_Node000002"><a xlink:title=" ">
<path fill="none" stroke="#63b8ff" d="M76.5,-111.55C108.94,-98.3 170.29,-73.85 223.62,-56 263.5,-42.65 309.88,-29.58 341.64,-20.99"/>
<polygon fill="#63b8ff" stroke="#63b8ff" points="342.42,-24.41 351.17,-18.43 340.61,-17.65 342.42,-24.41"/>
</a>
</g>
</g>
<!-- Node5 -->
<g id="Node000005" class="node">
<title>Node5</title>
<g id="a_Node000005"><a xlink:title=" ">
<polygon fill="#e0e0e0" stroke="#999999" points="45.25,-76 0,-76 0,-56 45.25,-56 45.25,-76"/>
<text text-anchor="middle" x="22.62" y="-62.5" font-family="Helvetica,sans-Serif" font-size="10.00">chrono</text>
</a>
</g>
</g>
<!-- Node4&#45;&gt;Node5 -->
<g id="edge4_Node000004_Node000005" class="edge">
<title>Node4&#45;&gt;Node5</title>
<g id="a_edge4_Node000004_Node000005"><a xlink:title=" ">
<path fill="none" stroke="#63b8ff" d="M48.23,-111.59C44.18,-104.55 38.51,-94.67 33.53,-86"/>
<polygon fill="#63b8ff" stroke="#63b8ff" points="36.73,-84.54 28.72,-77.61 30.66,-88.03 36.73,-84.54"/>
</a>
</g>
</g>
<!-- Node6 -->
<g id="Node000006" class="node">
<title>Node6</title>
<g id="a_Node000006"><a xlink:title=" ">
<polygon fill="#e0e0e0" stroke="#999999" points="106.12,-76 63.12,-76 63.12,-56 106.12,-56 106.12,-76"/>
<text text-anchor="middle" x="84.62" y="-62.5" font-family="Helvetica,sans-Serif" font-size="10.00">thread</text>
</a>
</g>
</g>
<!-- Node4&#45;&gt;Node6 -->
<g id="edge5_Node000004_Node000006" class="edge">
<title>Node4&#45;&gt;Node6</title>
<g id="a_edge5_Node000004_Node000006"><a xlink:title=" ">
<path fill="none" stroke="#63b8ff" d="M59.02,-111.59C63.07,-104.55 68.74,-94.67 73.72,-86"/>
<polygon fill="#63b8ff" stroke="#63b8ff" points="76.59,-88.03 78.53,-77.61 70.52,-84.54 76.59,-88.03"/>
</a>
</g>
</g>
<!-- Node7&#45;&gt;Node4 -->
<g id="edge13_Node000007_Node000004" class="edge">
<title>Node7&#45;&gt;Node4</title>
<g id="a_edge13_Node000007_Node000004"><a xlink:title=" ">
<path fill="none" stroke="#63b8ff" d="M223.44,-172.3C194.02,-163.76 131.06,-145.48 90.62,-133.74"/>
<polygon fill="#63b8ff" stroke="#63b8ff" points="91.64,-130.39 81.06,-130.96 89.69,-137.11 91.64,-130.39"/>
</a>
</g>
</g>
<!-- Node8 -->
<g id="Node000008" class="node">
<title>Node8</title>
<g id="a_Node000008"><a xlink:href="entities_8h.html" target="_top" xlink:title=" ">
<polygon fill="white" stroke="#666666" points="408.5,-132 352.75,-132 352.75,-112 408.5,-112 408.5,-132"/>
<text text-anchor="middle" x="380.62" y="-118.5" font-family="Helvetica,sans-Serif" font-size="10.00">entities.h</text>
</a>
</g>
</g>
<!-- Node7&#45;&gt;Node8 -->
<g id="edge8_Node000007_Node000008" class="edge">
<title>Node7&#45;&gt;Node8</title>
<g id="a_edge8_Node000007_Node000008"><a xlink:title=" ">
<path fill="none" stroke="#63b8ff" d="M255.8,-170.81C277.54,-162.48 316.78,-147.45 345.48,-136.46"/>
<polygon fill="#63b8ff" stroke="#63b8ff" points="346.4,-139.86 354.49,-133.01 343.9,-133.32 346.4,-139.86"/>
</a>
</g>
</g>
<!-- Node7&#45;&gt;Node10 -->
<g id="edge14_Node000007_Node000010" class="edge">
<title>Node7&#45;&gt;Node10</title>
<g id="a_edge14_Node000007_Node000010"><a xlink:title=" ">
<path fill="none" stroke="#63b8ff" d="M223.71,-169.72C205.46,-161.37 175.13,-147.48 152.25,-137.02"/>
<polygon fill="#63b8ff" stroke="#63b8ff" points="153.95,-133.95 143.4,-132.97 151.04,-140.31 153.95,-133.95"/>
</a>
</g>
</g>
<!-- Node11 -->
<g id="Node000011" class="node">
<title>Node11</title>
<g id="a_Node000011"><a xlink:title=" ">
<polygon fill="#e0e0e0" stroke="#999999" points="334.75,-132 286.5,-132 286.5,-112 334.75,-112 334.75,-132"/>
<text text-anchor="middle" x="310.62" y="-118.5" font-family="Helvetica,sans-Serif" font-size="10.00">random</text>
</a>
</g>
</g>
<!-- Node7&#45;&gt;Node11 -->
<g id="edge16_Node000007_Node000011" class="edge">
<title>Node7&#45;&gt;Node11</title>
<g id="a_edge16_Node000007_Node000011"><a xlink:title=" ">
<path fill="none" stroke="#63b8ff" d="M251.99,-167.59C262.27,-159.77 277.14,-148.46 289.34,-139.19"/>
<polygon fill="#63b8ff" stroke="#63b8ff" points="291.35,-142.05 297.19,-133.21 287.12,-136.48 291.35,-142.05"/>
</a>
</g>
</g>
<!-- Node12 -->
<g id="Node000012" class="node">
<title>Node12</title>
<g id="a_Node000012"><a xlink:title=" ">
<polygon fill="#e0e0e0" stroke="#999999" points="193.03,-132 164.22,-132 164.22,-112 193.03,-112 193.03,-132"/>
<text text-anchor="middle" x="178.62" y="-118.5" font-family="Helvetica,sans-Serif" font-size="10.00">list</text>
</a>
</g>
</g>
<!-- Node7&#45;&gt;Node12 -->
<g id="edge17_Node000007_Node000012" class="edge">
<title>Node7&#45;&gt;Node12</title>
<g id="a_edge17_Node000007_Node000012"><a xlink:title=" ">
<path fill="none" stroke="#63b8ff" d="M229,-167.59C220.34,-159.93 207.89,-148.91 197.54,-139.75"/>
<polygon fill="#63b8ff" stroke="#63b8ff" points="200.07,-137.31 190.26,-133.3 195.43,-142.55 200.07,-137.31"/>
</a>
</g>
</g>
<!-- Node13 -->
<g id="Node000013" class="node">
<title>Node13</title>
<g id="a_Node000013"><a xlink:title=" ">
<polygon fill="#e0e0e0" stroke="#999999" points="268.62,-132 210.62,-132 210.62,-112 268.62,-112 268.62,-132"/>
<text text-anchor="middle" x="239.62" y="-118.5" font-family="Helvetica,sans-Serif" font-size="10.00">functional</text>
</a>
</g>
</g>
<!-- Node7&#45;&gt;Node13 -->
<g id="edge18_Node000007_Node000013" class="edge">
<title>Node7&#45;&gt;Node13</title>
<g id="a_edge18_Node000007_Node000013"><a xlink:title=" ">
<path fill="none" stroke="#63b8ff" d="M239.62,-167.59C239.62,-161.01 239.62,-151.96 239.62,-143.73"/>
<polygon fill="#63b8ff" stroke="#63b8ff" points="243.13,-143.81 239.63,-133.81 236.13,-143.81 243.13,-143.81"/>
</a>
</g>
</g>
<!-- Node8&#45;&gt;Node2 -->
<g id="edge9_Node000008_Node000002" class="edge">
<title>Node8&#45;&gt;Node2</title>
<g id="a_edge9_Node000008_Node000002"><a xlink:title=" ">
<path fill="none" stroke="#63b8ff" d="M380.54,-111.62C380.38,-94.01 380.03,-55.59 379.81,-31.65"/>
<polygon fill="#63b8ff" stroke="#63b8ff" points="383.31,-31.84 379.72,-21.87 376.31,-31.9 383.31,-31.84"/>
</a>
</g>
</g>
<!-- Node8&#45;&gt;Node9 -->
<g id="edge10_Node000008_Node000009" class="edge">
<title>Node8&#45;&gt;Node9</title>
<g id="a_edge10_Node000008_Node000009"><a xlink:title=" ">
<path fill="none" stroke="#63b8ff" d="M397.52,-111.59C412.17,-103.44 433.65,-91.48 450.67,-82"/>
<polygon fill="#63b8ff" stroke="#63b8ff" points="452.24,-85.14 459.27,-77.22 448.83,-79.02 452.24,-85.14"/>
</a>
</g>
</g>
<!-- Node9&#45;&gt;Node2 -->
<g id="edge12_Node000009_Node000002" class="edge">
<title>Node9&#45;&gt;Node2</title>
<g id="a_edge12_Node000009_Node000002"><a xlink:title=" ">
<path fill="none" stroke="#63b8ff" d="M460.55,-55.59C445.75,-47.44 424.06,-35.48 406.86,-26"/>
<polygon fill="#63b8ff" stroke="#63b8ff" points="408.6,-22.97 398.15,-21.21 405.22,-29.1 408.6,-22.97"/>
</a>
</g>
</g>
<!-- Node9&#45;&gt;Node3 -->
<g id="edge11_Node000009_Node000003" class="edge">
<title>Node9&#45;&gt;Node3</title>
<g id="a_edge11_Node000009_Node000003"><a xlink:title=" ">
<path fill="none" stroke="#63b8ff" d="M482.85,-55.59C486.72,-48.63 492.13,-38.89 496.91,-30.29"/>
<polygon fill="#63b8ff" stroke="#63b8ff" points="499.93,-32.06 501.72,-21.62 493.81,-28.66 499.93,-32.06"/>
</a>
</g>
</g>
<!-- Node10&#45;&gt;Node2 -->
<g id="edge15_Node000010_Node000002" class="edge">
<title>Node10&#45;&gt;Node2</title>
<g id="a_edge15_Node000010_Node000002"><a xlink:title=" ">
<path fill="none" stroke="#63b8ff" d="M143.62,-111.62C189.13,-92.22 293.8,-47.59 347.12,-24.86"/>
<polygon fill="#63b8ff" stroke="#63b8ff" points="348.47,-28.09 356.29,-20.95 345.72,-21.65 348.47,-28.09"/>
</a>
</g>
</g>
</g>
</svg>
