<?xml version="1.0" encoding="UTF-8" standalone="no"?>
<!DOCTYPE svg PUBLIC "-//W3C//DTD SVG 1.1//EN"
 "http://www.w3.org/Graphics/SVG/1.1/DTD/svg11.dtd">
<!-- Generated by graphviz version 12.2.1 (20241206.2353)
 -->
<!-- Title: src/shop.cpp Pages: 1 -->
<svg width="350pt" height="252pt"
 viewBox="0.00 0.00 350.12 252.00" xmlns="http://www.w3.org/2000/svg" xmlns:xlink="http://www.w3.org/1999/xlink">
<g id="graph0" class="graph" transform="scale(1 1) rotate(0) translate(4 248)">
<title>src/shop.cpp</title>
<!-- Node1 -->
<g id="Node000001" class="node">
<title>Node1</title>
<g id="a_Node000001"><a xlink:title=" ">
<polygon fill="#999999" stroke="#666666" points="260.74,-244 188.49,-244 188.49,-224 260.74,-224 260.74,-244"/>
<text text-anchor="middle" x="224.62" y="-230.5" font-family="Helvetica,sans-Serif" font-size="10.00">src/shop.cpp</text>
</a>
</g>
</g>
<!-- Node2 -->
<g id="Node000002" class="node">
<title>Node2</title>
<g id="a_Node000002"><a xlink:href="shop_8h.html" target="_top" xlink:title=" ">
<polygon fill="white" stroke="#666666" points="160.24,-188 114.99,-188 114.99,-168 160.24,-168 160.24,-188"/>
<text text-anchor="middle" x="137.62" y="-174.5" font-family="Helvetica,sans-Serif" font-size="10.00">shop.h</text>
</a>
</g>
</g>
<!-- Node1&#45;&gt;Node2 -->
<g id="edge1_Node000001_Node000002" class="edge">
<title>Node1&#45;&gt;Node2</title>
<g id="a_edge1_Node000001_Node000002"><a xlink:title=" ">
<path fill="none" stroke="#63b8ff" d="M209.46,-223.59C196.57,-215.59 177.79,-203.93 162.66,-194.54"/>
<polygon fill="#63b8ff" stroke="#63b8ff" points="164.52,-191.58 154.18,-189.28 160.83,-197.53 164.52,-191.58"/>
</a>
</g>
</g>
<!-- Node8 -->
<g id="Node000008" class="node">
<title>Node8</title>
<g id="a_Node000008"><a xlink:href="extras_8h.html" target="_top" xlink:title=" ">
<polygon fill="white" stroke="#666666" points="250.24,-188 198.99,-188 198.99,-168 250.24,-168 250.24,-188"/>
<text text-anchor="middle" x="224.62" y="-174.5" font-family="Helvetica,sans-Serif" font-size="10.00">extras.h</text>
</a>
</g>
</g>
<!-- Node1&#45;&gt;Node8 -->
<g id="edge10_Node000001_Node000008" class="edge">
<title>Node1&#45;&gt;Node8</title>
<g id="a_edge10_Node000001_Node000008"><a xlink:title=" ">
<path fill="none" stroke="#63b8ff" d="M224.62,-223.59C224.62,-217.01 224.62,-207.96 224.62,-199.73"/>
<polygon fill="#63b8ff" stroke="#63b8ff" points="228.12,-199.81 224.62,-189.81 221.12,-199.81 228.12,-199.81"/>
</a>
</g>
</g>
<!-- Node11 -->
<g id="Node000011" class="node">
<title>Node11</title>
<g id="a_Node000011"><a xlink:title=" ">
<polygon fill="#e0e0e0" stroke="#999999" points="308.62,-188 268.62,-188 268.62,-168 308.62,-168 308.62,-188"/>
<text text-anchor="middle" x="288.62" y="-174.5" font-family="Helvetica,sans-Serif" font-size="10.00">string</text>
</a>
</g>
</g>
<!-- Node1&#45;&gt;Node11 -->
<g id="edge14_Node000001_Node000011" class="edge">
<title>Node1&#45;&gt;Node11</title>
<g id="a_edge14_Node000001_Node000011"><a xlink:title=" ">
<path fill="none" stroke="#63b8ff" d="M235.76,-223.59C244.94,-215.85 258.17,-204.69 269.1,-195.47"/>
<polygon fill="#63b8ff" stroke="#63b8ff" points="271.05,-198.4 276.44,-189.27 266.54,-193.05 271.05,-198.4"/>
</a>
</g>
</g>
<!-- Node3 -->
<g id="Node000003" class="node">
<title>Node3</title>
<g id="a_Node000003"><a xlink:href="items_8h.html" target="_top" xlink:title=" ">
<polygon fill="white" stroke="#666666" points="179.74,-76 131.49,-76 131.49,-56 179.74,-56 179.74,-76"/>
<text text-anchor="middle" x="155.62" y="-62.5" font-family="Helvetica,sans-Serif" font-size="10.00">items.h</text>
</a>
</g>
</g>
<!-- Node2&#45;&gt;Node3 -->
<g id="edge2_Node000002_Node000003" class="edge">
<title>Node2&#45;&gt;Node3</title>
<g id="a_edge2_Node000002_Node000003"><a xlink:title=" ">
<path fill="none" stroke="#63b8ff" d="M139.15,-167.62C142.03,-150.01 148.32,-111.59 152.24,-87.65"/>
<polygon fill="#63b8ff" stroke="#63b8ff" points="155.68,-88.28 153.84,-77.85 148.77,-87.15 155.68,-88.28"/>
</a>
</g>
</g>
<!-- Node5 -->
<g id="Node000005" class="node">
<title>Node5</title>
<g id="a_Node000005"><a xlink:title=" ">
<polygon fill="#e0e0e0" stroke="#999999" points="48.12,-20 5.12,-20 5.12,0 48.12,0 48.12,-20"/>
<text text-anchor="middle" x="26.62" y="-6.5" font-family="Helvetica,sans-Serif" font-size="10.00">vector</text>
</a>
</g>
</g>
<!-- Node2&#45;&gt;Node5 -->
<g id="edge4_Node000002_Node000005" class="edge">
<title>Node2&#45;&gt;Node5</title>
<g id="a_edge4_Node000002_Node000005"><a xlink:title=" ">
<path fill="none" stroke="#63b8ff" d="M114.54,-168.36C81.83,-154.62 23.62,-124.32 2.62,-76 -4.04,-60.68 3.59,-42.85 11.96,-29.75"/>
<polygon fill="#63b8ff" stroke="#63b8ff" points="14.79,-31.81 17.7,-21.62 9.07,-27.77 14.79,-31.81"/>
</a>
</g>
</g>
<!-- Node6 -->
<g id="Node000006" class="node">
<title>Node6</title>
<g id="a_Node000006"><a xlink:href="entities_8h.html" target="_top" xlink:title=" ">
<polygon fill="white" stroke="#666666" points="127.49,-132 71.74,-132 71.74,-112 127.49,-112 127.49,-132"/>
<text text-anchor="middle" x="99.62" y="-118.5" font-family="Helvetica,sans-Serif" font-size="10.00">entities.h</text>
</a>
</g>
</g>
<!-- Node2&#45;&gt;Node6 -->
<g id="edge5_Node000002_Node000006" class="edge">
<title>Node2&#45;&gt;Node6</title>
<g id="a_edge5_Node000002_Node000006"><a xlink:title=" ">
<path fill="none" stroke="#63b8ff" d="M131,-167.59C125.93,-160.39 118.78,-150.23 112.59,-141.43"/>
<polygon fill="#63b8ff" stroke="#63b8ff" points="115.65,-139.7 107.03,-133.54 109.92,-143.73 115.65,-139.7"/>
</a>
</g>
</g>
<!-- Node4 -->
<g id="Node000004" class="node">
<title>Node4</title>
<g id="a_Node000004"><a xlink:title=" ">
<polygon fill="#e0e0e0" stroke="#999999" points="146.37,-20 92.87,-20 92.87,0 146.37,0 146.37,-20"/>
<text text-anchor="middle" x="119.62" y="-6.5" font-family="Helvetica,sans-Serif" font-size="10.00">iostream</text>
</a>
</g>
</g>
<!-- Node3&#45;&gt;Node4 -->
<g id="edge3_Node000003_Node000004" class="edge">
<title>Node3&#45;&gt;Node4</title>
<g id="a_edge3_Node000003_Node000004"><a xlink:title=" ">
<path fill="none" stroke="#63b8ff" d="M149.35,-55.59C144.6,-48.47 137.92,-38.45 132.09,-29.72"/>
<polygon fill="#63b8ff" stroke="#63b8ff" points="135.11,-27.94 126.66,-21.56 129.29,-31.82 135.11,-27.94"/>
</a>
</g>
</g>
<!-- Node6&#45;&gt;Node4 -->
<g id="edge6_Node000006_Node000004" class="edge">
<title>Node6&#45;&gt;Node4</title>
<g id="a_edge6_Node000006_Node000004"><a xlink:title=" ">
<path fill="none" stroke="#63b8ff" d="M101.32,-111.62C104.52,-94.01 111.51,-55.59 115.86,-31.65"/>
<polygon fill="#63b8ff" stroke="#63b8ff" points="119.3,-32.31 117.65,-21.84 112.41,-31.06 119.3,-32.31"/>
</a>
</g>
</g>
<!-- Node7 -->
<g id="Node000007" class="node">
<title>Node7</title>
<g id="a_Node000007"><a xlink:href="inventory_8h.html" target="_top" xlink:title=" ">
<polygon fill="white" stroke="#666666" points="75.24,-76 11.99,-76 11.99,-56 75.24,-56 75.24,-76"/>
<text text-anchor="middle" x="43.62" y="-62.5" font-family="Helvetica,sans-Serif" font-size="10.00">inventory.h</text>
</a>
</g>
</g>
<!-- Node6&#45;&gt;Node7 -->
<g id="edge7_Node000006_Node000007" class="edge">
<title>Node6&#45;&gt;Node7</title>
<g id="a_edge7_Node000006_Node000007"><a xlink:title=" ">
<path fill="none" stroke="#63b8ff" d="M89.86,-111.59C81.99,-104.01 70.72,-93.13 61.27,-84.02"/>
<polygon fill="#63b8ff" stroke="#63b8ff" points="63.98,-81.77 54.35,-77.35 59.12,-86.81 63.98,-81.77"/>
</a>
</g>
</g>
<!-- Node7&#45;&gt;Node4 -->
<g id="edge9_Node000007_Node000004" class="edge">
<title>Node7&#45;&gt;Node4</title>
<g id="a_edge9_Node000007_Node000004"><a xlink:title=" ">
<path fill="none" stroke="#63b8ff" d="M56.85,-55.59C67.9,-47.74 83.9,-36.38 96.97,-27.09"/>
<polygon fill="#63b8ff" stroke="#63b8ff" points="98.92,-30 105.04,-21.36 94.86,-24.3 98.92,-30"/>
</a>
</g>
</g>
<!-- Node7&#45;&gt;Node5 -->
<g id="edge8_Node000007_Node000005" class="edge">
<title>Node7&#45;&gt;Node5</title>
<g id="a_edge8_Node000007_Node000005"><a xlink:title=" ">
<path fill="none" stroke="#63b8ff" d="M40.66,-55.59C38.53,-48.86 35.6,-39.53 32.96,-31.15"/>
<polygon fill="#63b8ff" stroke="#63b8ff" points="36.34,-30.23 30,-21.74 29.66,-32.33 36.34,-30.23"/>
</a>
</g>
</g>
<!-- Node8&#45;&gt;Node4 -->
<g id="edge13_Node000008_Node000004" class="edge">
<title>Node8&#45;&gt;Node4</title>
<g id="a_edge13_Node000008_Node000004"><a xlink:title=" ">
<path fill="none" stroke="#63b8ff" d="M223.99,-167.53C222.13,-145.76 214.96,-91.31 188.62,-56 179.17,-43.34 165.03,-33.22 152,-25.82"/>
<polygon fill="#63b8ff" stroke="#63b8ff" points="153.71,-22.77 143.24,-21.17 150.43,-28.95 153.71,-22.77"/>
</a>
</g>
</g>
<!-- Node9 -->
<g id="Node000009" class="node">
<title>Node9</title>
<g id="a_Node000009"><a xlink:title=" ">
<polygon fill="#e0e0e0" stroke="#999999" points="281.24,-132 235.99,-132 235.99,-112 281.24,-112 281.24,-132"/>
<text text-anchor="middle" x="258.62" y="-118.5" font-family="Helvetica,sans-Serif" font-size="10.00">chrono</text>
</a>
</g>
</g>
<!-- Node8&#45;&gt;Node9 -->
<g id="edge11_Node000008_Node000009" class="edge">
<title>Node8&#45;&gt;Node9</title>
<g id="a_edge11_Node000008_Node000009"><a xlink:title=" ">
<path fill="none" stroke="#63b8ff" d="M230.54,-167.59C234.98,-160.55 241.2,-150.67 246.65,-142"/>
<polygon fill="#63b8ff" stroke="#63b8ff" points="249.59,-143.91 251.96,-133.58 243.67,-140.18 249.59,-143.91"/>
</a>
</g>
</g>
<!-- Node10 -->
<g id="Node000010" class="node">
<title>Node10</title>
<g id="a_Node000010"><a xlink:title=" ">
<polygon fill="#e0e0e0" stroke="#999999" points="342.12,-132 299.12,-132 299.12,-112 342.12,-112 342.12,-132"/>
<text text-anchor="middle" x="320.62" y="-118.5" font-family="Helvetica,sans-Serif" font-size="10.00">thread</text>
</a>
</g>
</g>
<!-- Node8&#45;&gt;Node10 -->
<g id="edge12_Node000008_Node000010" class="edge">
<title>Node8&#45;&gt;Node10</title>
<g id="a_edge12_Node000008_Node000010"><a xlink:title=" ">
<path fill="none" stroke="#63b8ff" d="M241.34,-167.59C255.84,-159.44 277.09,-147.48 293.94,-138"/>
<polygon fill="#63b8ff" stroke="#63b8ff" points="295.45,-141.17 302.45,-133.22 292.01,-135.07 295.45,-141.17"/>
</a>
</g>
</g>
</g>
</svg>
