<?xml version="1.0" encoding="UTF-8" standalone="no"?>
<!DOCTYPE svg PUBLIC "-//W3C//DTD SVG 1.1//EN"
 "http://www.w3.org/Graphics/SVG/1.1/DTD/svg11.dtd">
<!-- Generated by graphviz version 12.2.1 (20241206.2353)
 -->
<!-- Title: src/shop.h Pages: 1 -->
<svg width="199pt" height="196pt"
 viewBox="0.00 0.00 198.62 196.00" xmlns="http://www.w3.org/2000/svg" xmlns:xlink="http://www.w3.org/1999/xlink">

<svg id="main" version="1.1" xmlns="http://www.w3.org/2000/svg" xmlns:xlink="http://www.w3.org/1999/xlink" xml:space="preserve">

<style type="text/css"><![CDATA[
.node, .edge {opacity: 0.7;}
.node.selected, .edge.selected {opacity: 1;}
.edge:hover path { stroke: red; }
.edge:hover polygon { stroke: red; fill: red; }
]]></style>
<script type="application/ecmascript" xlink:href="svg.min.js"/>
<svg id="graph" class="graph">
<g id="graph0" class="graph" transform="scale(1 1) rotate(0) translate(4 192)">
<title>src/shop.h</title>
<!-- Node1 -->
<g id="Node000001" class="node">
<title>Node1</title>
<g id="a_Node000001"><a xlink:title=" ">
<polygon fill="#999999" stroke="#666666" points="139,-188 77.25,-188 77.25,-168 139,-168 139,-188"/>
<text text-anchor="middle" x="108.12" y="-174.5" font-family="Helvetica,sans-Serif" font-size="10.00">src/shop.h</text>
</a>
</g>
</g>
<!-- Node2 -->
<g id="Node000002" class="node">
<title>Node2</title>
<g id="a_Node000002"><a xlink:href="items_8h.html" target="_top" xlink:title=" ">
<polygon fill="white" stroke="#666666" points="48.25,-76 0,-76 0,-56 48.25,-56 48.25,-76"/>
<text text-anchor="middle" x="24.12" y="-62.5" font-family="Helvetica,sans-Serif" font-size="10.00">items.h</text>
</a>
</g>
</g>
<!-- Node1&#45;&gt;Node2 -->
<g id="edge1_Node000001_Node000002" class="edge">
<title>Node1&#45;&gt;Node2</title>
<g id="a_edge1_Node000001_Node000002"><a xlink:title=" ">
<path fill="none" stroke="#63b8ff" d="M100.3,-167.83C92.69,-158.83 80.89,-144.65 71.12,-132 59.31,-116.69 46.48,-98.86 37.22,-85.75"/>
<polygon fill="#63b8ff" stroke="#63b8ff" points="40.12,-83.8 31.51,-77.63 34.4,-87.82 40.12,-83.8"/>
</a>
</g>
</g>
<!-- Node4 -->
<g id="Node000004" class="node">
<title>Node4</title>
<g id="a_Node000004"><a xlink:title=" ">
<polygon fill="#e0e0e0" stroke="#999999" points="190.62,-20 147.62,-20 147.62,0 190.62,0 190.62,-20"/>
<text text-anchor="middle" x="169.12" y="-6.5" font-family="Helvetica,sans-Serif" font-size="10.00">vector</text>
</a>
</g>
</g>
<!-- Node1&#45;&gt;Node4 -->
<g id="edge3_Node000001_Node000004" class="edge">
<title>Node1&#45;&gt;Node4</title>
<g id="a_edge3_Node000001_Node000004"><a xlink:title=" ">
<path fill="none" stroke="#63b8ff" d="M117.97,-167.57C134.47,-150.97 166.88,-114.59 177.12,-76 181.02,-61.34 178.68,-44.32 175.55,-31.37"/>
<polygon fill="#63b8ff" stroke="#63b8ff" points="178.96,-30.55 172.89,-21.87 172.22,-32.44 178.96,-30.55"/>
</a>
</g>
</g>
<!-- Node5 -->
<g id="Node000005" class="node">
<title>Node5</title>
<g id="a_Node000005"><a xlink:href="entities_8h.html" target="_top" xlink:title=" ">
<polygon fill="white" stroke="#666666" points="136,-132 80.25,-132 80.25,-112 136,-112 136,-132"/>
<text text-anchor="middle" x="108.12" y="-118.5" font-family="Helvetica,sans-Serif" font-size="10.00">entities.h</text>
</a>
</g>
</g>
<!-- Node1&#45;&gt;Node5 -->
<g id="edge4_Node000001_Node000005" class="edge">
<title>Node1&#45;&gt;Node5</title>
<g id="a_edge4_Node000001_Node000005"><a xlink:title=" ">
<path fill="none" stroke="#63b8ff" d="M108.12,-167.59C108.12,-161.01 108.12,-151.96 108.12,-143.73"/>
<polygon fill="#63b8ff" stroke="#63b8ff" points="111.63,-143.81 108.13,-133.81 104.63,-143.81 111.63,-143.81"/>
</a>
</g>
</g>
<!-- Node3 -->
<g id="Node000003" class="node">
<title>Node3</title>
<g id="a_Node000003"><a xlink:title=" ">
<polygon fill="#e0e0e0" stroke="#999999" points="102.88,-20 49.38,-20 49.38,0 102.88,0 102.88,-20"/>
<text text-anchor="middle" x="76.12" y="-6.5" font-family="Helvetica,sans-Serif" font-size="10.00">iostream</text>
</a>
</g>
</g>
<!-- Node2&#45;&gt;Node3 -->
<g id="edge2_Node000002_Node000003" class="edge">
<title>Node2&#45;&gt;Node3</title>
<g id="a_edge2_Node000002_Node000003"><a xlink:title=" ">
<path fill="none" stroke="#63b8ff" d="M33.18,-55.59C40.34,-48.16 50.53,-37.58 59.19,-28.58"/>
<polygon fill="#63b8ff" stroke="#63b8ff" points="61.71,-31.02 66.12,-21.39 56.66,-26.16 61.71,-31.02"/>
</a>
</g>
</g>
<!-- Node5&#45;&gt;Node3 -->
<g id="edge5_Node000005_Node000003" class="edge">
<title>Node5&#45;&gt;Node3</title>
<g id="a_edge5_Node000005_Node000003"><a xlink:title=" ">
<path fill="none" stroke="#63b8ff" d="M105.4,-111.62C100.25,-93.92 88.99,-55.24 82.04,-31.32"/>
<polygon fill="#63b8ff" stroke="#63b8ff" points="85.42,-30.43 79.27,-21.81 78.7,-32.39 85.42,-30.43"/>
</a>
</g>
</g>
<!-- Node6 -->
<g id="Node000006" class="node">
<title>Node6</title>
<g id="a_Node000006"><a xlink:href="inventory_8h.html" target="_top" xlink:title=" ">
<polygon fill="white" stroke="#666666" points="167.75,-76 104.5,-76 104.5,-56 167.75,-56 167.75,-76"/>
<text text-anchor="middle" x="136.12" y="-62.5" font-family="Helvetica,sans-Serif" font-size="10.00">inventory.h</text>
</a>
</g>
</g>
<!-- Node5&#45;&gt;Node6 -->
<g id="edge6_Node000005_Node000006" class="edge">
<title>Node5&#45;&gt;Node6</title>
<g id="a_edge6_Node000005_Node000006"><a xlink:title=" ">
<path fill="none" stroke="#63b8ff" d="M113,-111.59C116.62,-104.63 121.67,-94.89 126.12,-86.29"/>
<polygon fill="#63b8ff" stroke="#63b8ff" points="129.11,-88.13 130.61,-77.64 122.9,-84.91 129.11,-88.13"/>
</a>
</g>
</g>
<!-- Node6&#45;&gt;Node3 -->
<g id="edge8_Node000006_Node000003" class="edge">
<title>Node6&#45;&gt;Node3</title>
<g id="a_edge8_Node000006_Node000003"><a xlink:title=" ">
<path fill="none" stroke="#63b8ff" d="M125.67,-55.59C117.16,-47.93 104.91,-36.91 94.73,-27.75"/>
<polygon fill="#63b8ff" stroke="#63b8ff" points="97.36,-25.4 87.58,-21.31 92.67,-30.6 97.36,-25.4"/>
</a>
</g>
</g>
<!-- Node6&#45;&gt;Node4 -->
<g id="edge7_Node000006_Node000004" class="edge">
<title>Node6&#45;&gt;Node4</title>
<g id="a_edge7_Node000006_Node000004"><a xlink:title=" ">
<path fill="none" stroke="#63b8ff" d="M141.87,-55.59C146.18,-48.55 152.22,-38.67 157.51,-30"/>
<polygon fill="#63b8ff" stroke="#63b8ff" points="160.43,-31.95 162.65,-21.59 154.45,-28.3 160.43,-31.95"/>
</a>
</g>
</g>
</g>
</svg>
</svg>

<style type='text/css'>
<![CDATA[
[data-mouse-over-selected='false'] { opacity: 0.7; }
[data-mouse-over-selected='true']  { opacity: 1.0; }
]]>
</style>
<script type="application/ecmascript"><![CDATA[
document.addEventListener('DOMContentLoaded', (event) => {
  highlightEdges();
  highlightAdjacentNodes();
});
]]></script>
</svg>
