<?xml version="1.0" encoding="UTF-8" standalone="no"?>
<!DOCTYPE svg PUBLIC "-//W3C//DTD SVG 1.1//EN"
 "http://www.w3.org/Graphics/SVG/1.1/DTD/svg11.dtd">
<!-- Generated by graphviz version 12.2.1 (20241206.2353)
 -->
<!-- Title: src/shop.h Pages: 1 -->
<svg width="158pt" height="84pt"
 viewBox="0.00 0.00 157.50 84.00" xmlns="http://www.w3.org/2000/svg" xmlns:xlink="http://www.w3.org/1999/xlink">
<g id="graph0" class="graph" transform="scale(1 1) rotate(0) translate(4 80)">
<title>src/shop.h</title>
<!-- Node1 -->
<g id="Node000001" class="node">
<title>Node1</title>
<g id="a_Node000001"><a xlink:title=" ">
<polygon fill="#999999" stroke="#666666" points="109,-76 47.25,-76 47.25,-56 109,-56 109,-76"/>
<text text-anchor="middle" x="78.12" y="-62.5" font-family="Helvetica,sans-Serif" font-size="10.00">src/shop.h</text>
</a>
</g>
</g>
<!-- Node2 -->
<g id="Node000002" class="node">
<title>Node2</title>
<g id="a_Node000002"><a xlink:href="shop_8cpp.html" target="_top" xlink:title=" ">
<polygon fill="white" stroke="#666666" points="72.25,-20 0,-20 0,0 72.25,0 72.25,-20"/>
<text text-anchor="middle" x="36.12" y="-6.5" font-family="Helvetica,sans-Serif" font-size="10.00">src/shop.cpp</text>
</a>
</g>
</g>
<!-- Node1&#45;&gt;Node2 -->
<g id="edge1_Node000001_Node000002" class="edge">
<title>Node1&#45;&gt;Node2</title>
<g id="a_edge1_Node000001_Node000002"><a xlink:title=" ">
<path fill="none" stroke="#63b8ff" d="M63.91,-46.72C57,-37.84 48.99,-27.55 43.36,-20.3"/>
<polygon fill="#63b8ff" stroke="#63b8ff" points="60.98,-48.65 69.88,-54.4 66.5,-44.36 60.98,-48.65"/>
</a>
</g>
</g>
<!-- Node3 -->
<g id="Node000003" class="node">
<title>Node3</title>
<g id="a_Node000003"><a xlink:href="ui_8cpp.html" target="_top" xlink:title=" ">
<polygon fill="white" stroke="#666666" points="149.5,-20 90.75,-20 90.75,0 149.5,0 149.5,-20"/>
<text text-anchor="middle" x="120.12" y="-6.5" font-family="Helvetica,sans-Serif" font-size="10.00">src/ui.cpp</text>
</a>
</g>
</g>
<!-- Node1&#45;&gt;Node3 -->
<g id="edge2_Node000001_Node000003" class="edge">
<title>Node1&#45;&gt;Node3</title>
<g id="a_edge2_Node000001_Node000003"><a xlink:title=" ">
<path fill="none" stroke="#63b8ff" d="M92.34,-46.72C99.25,-37.84 107.26,-27.55 112.89,-20.3"/>
<polygon fill="#63b8ff" stroke="#63b8ff" points="89.75,-44.36 86.37,-54.4 95.27,-48.65 89.75,-44.36"/>
</a>
</g>
</g>
</g>
</svg>
