<?xml version="1.0" encoding="UTF-8" standalone="no"?>
<!DOCTYPE svg PUBLIC "-//W3C//DTD SVG 1.1//EN"
 "http://www.w3.org/Graphics/SVG/1.1/DTD/svg11.dtd">
<!-- Generated by graphviz version 12.2.1 (20241206.2353)
 -->
<!-- Title: src/shop.h Pages: 1 -->
<svg width="259pt" height="84pt"
 viewBox="0.00 0.00 258.75 84.00" xmlns="http://www.w3.org/2000/svg" xmlns:xlink="http://www.w3.org/1999/xlink">

<svg id="main" version="1.1" xmlns="http://www.w3.org/2000/svg" xmlns:xlink="http://www.w3.org/1999/xlink" xml:space="preserve">

<style type="text/css"><![CDATA[
.node, .edge {opacity: 0.7;}
.node.selected, .edge.selected {opacity: 1;}
.edge:hover path { stroke: red; }
.edge:hover polygon { stroke: red; fill: red; }
]]></style>
<script type="application/ecmascript" xlink:href="svg.min.js"/>
<svg id="graph" class="graph">
<g id="graph0" class="graph" transform="scale(1 1) rotate(0) translate(4 80)">
<title>src/shop.h</title>
<!-- Node1 -->
<g id="Node000001" class="node">
<title>Node1</title>
<g id="a_Node000001"><a xlink:title=" ">
<polygon fill="#999999" stroke="#666666" points="168.25,-76 106.5,-76 106.5,-56 168.25,-56 168.25,-76"/>
<text text-anchor="middle" x="137.38" y="-62.5" font-family="Helvetica,sans-Serif" font-size="10.00">src/shop.h</text>
</a>
</g>
</g>
<!-- Node2 -->
<g id="Node000002" class="node">
<title>Node2</title>
<g id="a_Node000002"><a xlink:href="entities_8cpp.html" target="_top" xlink:title=" ">
<polygon fill="white" stroke="#666666" points="82.75,-20 0,-20 0,0 82.75,0 82.75,-20"/>
<text text-anchor="middle" x="41.38" y="-6.5" font-family="Helvetica,sans-Serif" font-size="10.00">src/entities.cpp</text>
</a>
</g>
</g>
<!-- Node1&#45;&gt;Node2 -->
<g id="edge1_Node000001_Node000002" class="edge">
<title>Node1&#45;&gt;Node2</title>
<g id="a_edge1_Node000001_Node000002"><a xlink:title=" ">
<path fill="none" stroke="#63b8ff" d="M110.85,-50.08C94.03,-40.62 72.77,-28.66 58.23,-20.48"/>
<polygon fill="#63b8ff" stroke="#63b8ff" points="108.9,-53 119.33,-54.85 112.33,-46.9 108.9,-53"/>
</a>
</g>
</g>
<!-- Node3 -->
<g id="Node000003" class="node">
<title>Node3</title>
<g id="a_Node000003"><a xlink:href="shop_8cpp.html" target="_top" xlink:title=" ">
<polygon fill="white" stroke="#666666" points="173.5,-20 101.25,-20 101.25,0 173.5,0 173.5,-20"/>
<text text-anchor="middle" x="137.38" y="-6.5" font-family="Helvetica,sans-Serif" font-size="10.00">src/shop.cpp</text>
</a>
</g>
</g>
<!-- Node1&#45;&gt;Node3 -->
<g id="edge2_Node000001_Node000003" class="edge">
<title>Node1&#45;&gt;Node3</title>
<g id="a_edge2_Node000001_Node000003"><a xlink:title=" ">
<path fill="none" stroke="#63b8ff" d="M137.38,-44.13C137.38,-35.9 137.38,-26.85 137.38,-20.3"/>
<polygon fill="#63b8ff" stroke="#63b8ff" points="133.88,-44.08 137.38,-54.08 140.88,-44.08 133.88,-44.08"/>
</a>
</g>
</g>
<!-- Node4 -->
<g id="Node000004" class="node">
<title>Node4</title>
<g id="a_Node000004"><a xlink:href="ui_8cpp.html" target="_top" xlink:title=" ">
<polygon fill="white" stroke="#666666" points="250.75,-20 192,-20 192,0 250.75,0 250.75,-20"/>
<text text-anchor="middle" x="221.38" y="-6.5" font-family="Helvetica,sans-Serif" font-size="10.00">src/ui.cpp</text>
</a>
</g>
</g>
<!-- Node1&#45;&gt;Node4 -->
<g id="edge3_Node000001_Node000004" class="edge">
<title>Node1&#45;&gt;Node4</title>
<g id="a_edge3_Node000001_Node000004"><a xlink:title=" ">
<path fill="none" stroke="#63b8ff" d="M161.42,-49.54C176,-40.17 194.14,-28.51 206.63,-20.48"/>
<polygon fill="#63b8ff" stroke="#63b8ff" points="159.8,-46.42 153.28,-54.78 163.58,-52.31 159.8,-46.42"/>
</a>
</g>
</g>
</g>
</svg>
</svg>

<style type='text/css'>
<![CDATA[
[data-mouse-over-selected='false'] { opacity: 0.7; }
[data-mouse-over-selected='true']  { opacity: 1.0; }
]]>
</style>
<script type="application/ecmascript"><![CDATA[
document.addEventListener('DOMContentLoaded', (event) => {
  highlightEdges();
  highlightAdjacentNodes();
});
]]></script>
</svg>
