<?xml version="1.0" encoding="UTF-8" standalone="no"?>
<!DOCTYPE svg PUBLIC "-//W3C//DTD SVG 1.1//EN"
 "http://www.w3.org/Graphics/SVG/1.1/DTD/svg11.dtd">
<!-- Generated by graphviz version 12.2.1 (20241206.2353)
 -->
<!-- Title: src/ui.cpp Pages: 1 -->
<svg width="449pt" height="252pt"
 viewBox="0.00 0.00 448.98 252.00" xmlns="http://www.w3.org/2000/svg" xmlns:xlink="http://www.w3.org/1999/xlink">
<g id="graph0" class="graph" transform="scale(1 1) rotate(0) translate(4 248)">
<title>src/ui.cpp</title>
<!-- Node1 -->
<g id="Node000001" class="node">
<title>Node1</title>
<g id="a_Node000001"><a xlink:title=" ">
<polygon fill="#999999" stroke="#666666" points="282.35,-244 223.6,-244 223.6,-224 282.35,-224 282.35,-244"/>
<text text-anchor="middle" x="252.98" y="-230.5" font-family="Helvetica,sans-Serif" font-size="10.00">src/ui.cpp</text>
</a>
</g>
</g>
<!-- Node2 -->
<g id="Node000002" class="node">
<title>Node2</title>
<g id="a_Node000002"><a xlink:href="entities_8h.html" target="_top" xlink:title=" ">
<polygon fill="white" stroke="#666666" points="99.85,-132 44.1,-132 44.1,-112 99.85,-112 99.85,-132"/>
<text text-anchor="middle" x="71.98" y="-118.5" font-family="Helvetica,sans-Serif" font-size="10.00">entities.h</text>
</a>
</g>
</g>
<!-- Node1&#45;&gt;Node2 -->
<g id="edge1_Node000001_Node000002" class="edge">
<title>Node1&#45;&gt;Node2</title>
<g id="a_edge1_Node000001_Node000002"><a xlink:title=" ">
<path fill="none" stroke="#63b8ff" d="M223.18,-233.46C186.23,-232.35 123.74,-224.67 87.98,-188 76.56,-176.29 72.86,-157.8 71.84,-143.54"/>
<polygon fill="#63b8ff" stroke="#63b8ff" points="75.35,-143.76 71.56,-133.87 68.35,-143.97 75.35,-143.76"/>
</a>
</g>
</g>
<!-- Node6 -->
<g id="Node000006" class="node">
<title>Node6</title>
<g id="a_Node000006"><a xlink:href="extras_8h.html" target="_top" xlink:title=" ">
<polygon fill="white" stroke="#666666" points="235.6,-132 184.35,-132 184.35,-112 235.6,-112 235.6,-132"/>
<text text-anchor="middle" x="209.98" y="-118.5" font-family="Helvetica,sans-Serif" font-size="10.00">extras.h</text>
</a>
</g>
</g>
<!-- Node1&#45;&gt;Node6 -->
<g id="edge6_Node000001_Node000006" class="edge">
<title>Node1&#45;&gt;Node6</title>
<g id="a_edge6_Node000001_Node000006"><a xlink:title=" ">
<path fill="none" stroke="#63b8ff" d="M246.93,-223.67C241.39,-214.79 233.26,-200.9 227.98,-188 222.06,-173.55 217.42,-156.51 214.34,-143.51"/>
<polygon fill="#63b8ff" stroke="#63b8ff" points="217.8,-142.96 212.2,-133.97 210.97,-144.49 217.8,-142.96"/>
</a>
</g>
</g>
<!-- Node9 -->
<g id="Node000009" class="node">
<title>Node9</title>
<g id="a_Node000009"><a xlink:href="items_8h.html" target="_top" xlink:title=" ">
<polygon fill="white" stroke="#666666" points="166.1,-132 117.85,-132 117.85,-112 166.1,-112 166.1,-132"/>
<text text-anchor="middle" x="141.98" y="-118.5" font-family="Helvetica,sans-Serif" font-size="10.00">items.h</text>
</a>
</g>
</g>
<!-- Node1&#45;&gt;Node9 -->
<g id="edge10_Node000001_Node000009" class="edge">
<title>Node1&#45;&gt;Node9</title>
<g id="a_edge10_Node000001_Node000009"><a xlink:title=" ">
<path fill="none" stroke="#63b8ff" d="M243.52,-223.62C224.92,-205.19 183.36,-164.01 159.58,-140.44"/>
<polygon fill="#63b8ff" stroke="#63b8ff" points="162.06,-137.97 152.49,-133.42 157.13,-142.95 162.06,-137.97"/>
</a>
</g>
</g>
<!-- Node10 -->
<g id="Node000010" class="node">
<title>Node10</title>
<g id="a_Node000010"><a xlink:title=" ">
<polygon fill="#e0e0e0" stroke="#999999" points="302.1,-132 253.85,-132 253.85,-112 302.1,-112 302.1,-132"/>
<text text-anchor="middle" x="277.98" y="-118.5" font-family="Helvetica,sans-Serif" font-size="10.00">random</text>
</a>
</g>
</g>
<!-- Node1&#45;&gt;Node10 -->
<g id="edge12_Node000001_Node000010" class="edge">
<title>Node1&#45;&gt;Node10</title>
<g id="a_edge12_Node000001_Node000010"><a xlink:title=" ">
<path fill="none" stroke="#63b8ff" d="M260.08,-223.61C266.18,-214.9 274.53,-201.32 277.98,-188 281.72,-173.58 281.6,-156.75 280.61,-143.83"/>
<polygon fill="#63b8ff" stroke="#63b8ff" points="284.1,-143.54 279.59,-133.95 277.13,-144.25 284.1,-143.54"/>
</a>
</g>
</g>
<!-- Node11 -->
<g id="Node000011" class="node">
<title>Node11</title>
<g id="a_Node000011"><a xlink:title=" ">
<polygon fill="#e0e0e0" stroke="#999999" points="349.38,-132 320.58,-132 320.58,-112 349.38,-112 349.38,-132"/>
<text text-anchor="middle" x="334.98" y="-118.5" font-family="Helvetica,sans-Serif" font-size="10.00">list</text>
</a>
</g>
</g>
<!-- Node1&#45;&gt;Node11 -->
<g id="edge13_Node000001_Node000011" class="edge">
<title>Node1&#45;&gt;Node11</title>
<g id="a_edge13_Node000001_Node000011"><a xlink:title=" ">
<path fill="none" stroke="#63b8ff" d="M262,-223.71C270.41,-214.85 283.11,-200.98 292.98,-188 304.29,-173.13 315.7,-155.23 323.77,-141.99"/>
<polygon fill="#63b8ff" stroke="#63b8ff" points="326.77,-143.8 328.91,-133.42 320.77,-140.2 326.77,-143.8"/>
</a>
</g>
</g>
<!-- Node12 -->
<g id="Node000012" class="node">
<title>Node12</title>
<g id="a_Node000012"><a xlink:title=" ">
<polygon fill="#e0e0e0" stroke="#999999" points="424.98,-132 366.98,-132 366.98,-112 424.98,-112 424.98,-132"/>
<text text-anchor="middle" x="395.98" y="-118.5" font-family="Helvetica,sans-Serif" font-size="10.00">functional</text>
</a>
</g>
</g>
<!-- Node1&#45;&gt;Node12 -->
<g id="edge14_Node000001_Node000012" class="edge">
<title>Node1&#45;&gt;Node12</title>
<g id="a_edge14_Node000001_Node000012"><a xlink:title=" ">
<path fill="none" stroke="#63b8ff" d="M265.69,-223.82C278.1,-214.81 297.46,-200.63 313.98,-188 335.21,-171.76 359.12,-152.72 375.62,-139.46"/>
<polygon fill="#63b8ff" stroke="#63b8ff" points="377.63,-142.33 383.22,-133.33 373.24,-136.88 377.63,-142.33"/>
</a>
</g>
</g>
<!-- Node13 -->
<g id="Node000013" class="node">
<title>Node13</title>
<g id="a_Node000013"><a xlink:title=" ">
<polygon fill="#e0e0e0" stroke="#999999" points="440.98,-188 400.98,-188 400.98,-168 440.98,-168 440.98,-188"/>
<text text-anchor="middle" x="420.98" y="-174.5" font-family="Helvetica,sans-Serif" font-size="10.00">string</text>
</a>
</g>
</g>
<!-- Node1&#45;&gt;Node13 -->
<g id="edge15_Node000001_Node000013" class="edge">
<title>Node1&#45;&gt;Node13</title>
<g id="a_edge15_Node000001_Node000013"><a xlink:title=" ">
<path fill="none" stroke="#63b8ff" d="M282.24,-223.59C312.25,-213.95 358.77,-199 389.55,-189.1"/>
<polygon fill="#63b8ff" stroke="#63b8ff" points="390.61,-192.44 399.06,-186.04 388.47,-185.77 390.61,-192.44"/>
</a>
</g>
</g>
<!-- Node14 -->
<g id="Node000014" class="node">
<title>Node14</title>
<g id="a_Node000014"><a xlink:href="ui_8h.html" target="_top" xlink:title=" ">
<polygon fill="white" stroke="#666666" points="268.85,-188 237.1,-188 237.1,-168 268.85,-168 268.85,-188"/>
<text text-anchor="middle" x="252.98" y="-174.5" font-family="Helvetica,sans-Serif" font-size="10.00">ui.h</text>
</a>
</g>
</g>
<!-- Node1&#45;&gt;Node14 -->
<g id="edge16_Node000001_Node000014" class="edge">
<title>Node1&#45;&gt;Node14</title>
<g id="a_edge16_Node000001_Node000014"><a xlink:title=" ">
<path fill="none" stroke="#63b8ff" d="M252.98,-223.59C252.98,-217.01 252.98,-207.96 252.98,-199.73"/>
<polygon fill="#63b8ff" stroke="#63b8ff" points="256.48,-199.81 252.98,-189.81 249.48,-199.81 256.48,-199.81"/>
</a>
</g>
</g>
<!-- Node15 -->
<g id="Node000015" class="node">
<title>Node15</title>
<g id="a_Node000015"><a xlink:href="shop_8h.html" target="_top" xlink:title=" ">
<polygon fill="white" stroke="#666666" points="142.6,-188 97.35,-188 97.35,-168 142.6,-168 142.6,-188"/>
<text text-anchor="middle" x="119.98" y="-174.5" font-family="Helvetica,sans-Serif" font-size="10.00">shop.h</text>
</a>
</g>
</g>
<!-- Node1&#45;&gt;Node15 -->
<g id="edge23_Node000001_Node000015" class="edge">
<title>Node1&#45;&gt;Node15</title>
<g id="a_edge23_Node000001_Node000015"><a xlink:title=" ">
<path fill="none" stroke="#63b8ff" d="M229.81,-223.59C208.64,-215 177.1,-202.19 153.24,-192.5"/>
<polygon fill="#63b8ff" stroke="#63b8ff" points="154.86,-189.39 144.28,-188.87 152.23,-195.87 154.86,-189.39"/>
</a>
</g>
</g>
<!-- Node3 -->
<g id="Node000003" class="node">
<title>Node3</title>
<g id="a_Node000003"><a xlink:title=" ">
<polygon fill="#e0e0e0" stroke="#999999" points="146.73,-20 93.23,-20 93.23,0 146.73,0 146.73,-20"/>
<text text-anchor="middle" x="119.98" y="-6.5" font-family="Helvetica,sans-Serif" font-size="10.00">iostream</text>
</a>
</g>
</g>
<!-- Node2&#45;&gt;Node3 -->
<g id="edge2_Node000002_Node000003" class="edge">
<title>Node2&#45;&gt;Node3</title>
<g id="a_edge2_Node000002_Node000003"><a xlink:title=" ">
<path fill="none" stroke="#63b8ff" d="M76.07,-111.62C83.86,-93.76 100.99,-54.53 111.4,-30.67"/>
<polygon fill="#63b8ff" stroke="#63b8ff" points="114.5,-32.31 115.29,-21.74 108.08,-29.51 114.5,-32.31"/>
</a>
</g>
</g>
<!-- Node4 -->
<g id="Node000004" class="node">
<title>Node4</title>
<g id="a_Node000004"><a xlink:href="inventory_8h.html" target="_top" xlink:title=" ">
<polygon fill="white" stroke="#666666" points="75.6,-76 12.35,-76 12.35,-56 75.6,-56 75.6,-76"/>
<text text-anchor="middle" x="43.98" y="-62.5" font-family="Helvetica,sans-Serif" font-size="10.00">inventory.h</text>
</a>
</g>
</g>
<!-- Node2&#45;&gt;Node4 -->
<g id="edge3_Node000002_Node000004" class="edge">
<title>Node2&#45;&gt;Node4</title>
<g id="a_edge3_Node000002_Node000004"><a xlink:title=" ">
<path fill="none" stroke="#63b8ff" d="M67.1,-111.59C63.49,-104.63 58.44,-94.89 53.98,-86.29"/>
<polygon fill="#63b8ff" stroke="#63b8ff" points="57.21,-84.91 49.5,-77.64 50.99,-88.13 57.21,-84.91"/>
</a>
</g>
</g>
<!-- Node4&#45;&gt;Node3 -->
<g id="edge5_Node000004_Node000003" class="edge">
<title>Node4&#45;&gt;Node3</title>
<g id="a_edge5_Node000004_Node000003"><a xlink:title=" ">
<path fill="none" stroke="#63b8ff" d="M57.22,-55.59C68.27,-47.74 84.26,-36.38 97.34,-27.09"/>
<polygon fill="#63b8ff" stroke="#63b8ff" points="99.28,-30 105.4,-21.36 95.22,-24.3 99.28,-30"/>
</a>
</g>
</g>
<!-- Node5 -->
<g id="Node000005" class="node">
<title>Node5</title>
<g id="a_Node000005"><a xlink:title=" ">
<polygon fill="#e0e0e0" stroke="#999999" points="48.48,-20 5.48,-20 5.48,0 48.48,0 48.48,-20"/>
<text text-anchor="middle" x="26.98" y="-6.5" font-family="Helvetica,sans-Serif" font-size="10.00">vector</text>
</a>
</g>
</g>
<!-- Node4&#45;&gt;Node5 -->
<g id="edge4_Node000004_Node000005" class="edge">
<title>Node4&#45;&gt;Node5</title>
<g id="a_edge4_Node000004_Node000005"><a xlink:title=" ">
<path fill="none" stroke="#63b8ff" d="M41.02,-55.59C38.9,-48.86 35.96,-39.53 33.32,-31.15"/>
<polygon fill="#63b8ff" stroke="#63b8ff" points="36.7,-30.23 30.36,-21.74 30.03,-32.33 36.7,-30.23"/>
</a>
</g>
</g>
<!-- Node6&#45;&gt;Node3 -->
<g id="edge9_Node000006_Node000003" class="edge">
<title>Node6&#45;&gt;Node3</title>
<g id="a_edge9_Node000006_Node000003"><a xlink:title=" ">
<path fill="none" stroke="#63b8ff" d="M236.02,-111.86C264.51,-100.41 303.91,-79.44 285.98,-56 270.53,-35.81 202.19,-22.57 158.15,-15.97"/>
<polygon fill="#63b8ff" stroke="#63b8ff" points="158.88,-12.53 148.48,-14.57 157.88,-19.46 158.88,-12.53"/>
</a>
</g>
</g>
<!-- Node7 -->
<g id="Node000007" class="node">
<title>Node7</title>
<g id="a_Node000007"><a xlink:title=" ">
<polygon fill="#e0e0e0" stroke="#999999" points="215.6,-76 170.35,-76 170.35,-56 215.6,-56 215.6,-76"/>
<text text-anchor="middle" x="192.98" y="-62.5" font-family="Helvetica,sans-Serif" font-size="10.00">chrono</text>
</a>
</g>
</g>
<!-- Node6&#45;&gt;Node7 -->
<g id="edge7_Node000006_Node000007" class="edge">
<title>Node6&#45;&gt;Node7</title>
<g id="a_edge7_Node000006_Node000007"><a xlink:title=" ">
<path fill="none" stroke="#63b8ff" d="M207.02,-111.59C204.9,-104.86 201.96,-95.53 199.32,-87.15"/>
<polygon fill="#63b8ff" stroke="#63b8ff" points="202.7,-86.23 196.36,-77.74 196.03,-88.33 202.7,-86.23"/>
</a>
</g>
</g>
<!-- Node8 -->
<g id="Node000008" class="node">
<title>Node8</title>
<g id="a_Node000008"><a xlink:title=" ">
<polygon fill="#e0e0e0" stroke="#999999" points="276.48,-76 233.48,-76 233.48,-56 276.48,-56 276.48,-76"/>
<text text-anchor="middle" x="254.98" y="-62.5" font-family="Helvetica,sans-Serif" font-size="10.00">thread</text>
</a>
</g>
</g>
<!-- Node6&#45;&gt;Node8 -->
<g id="edge8_Node000006_Node000008" class="edge">
<title>Node6&#45;&gt;Node8</title>
<g id="a_edge8_Node000006_Node000008"><a xlink:title=" ">
<path fill="none" stroke="#63b8ff" d="M217.82,-111.59C223.95,-104.24 232.65,-93.8 240.09,-84.87"/>
<polygon fill="#63b8ff" stroke="#63b8ff" points="242.55,-87.38 246.26,-77.46 237.17,-82.9 242.55,-87.38"/>
</a>
</g>
</g>
<!-- Node9&#45;&gt;Node3 -->
<g id="edge11_Node000009_Node000003" class="edge">
<title>Node9&#45;&gt;Node3</title>
<g id="a_edge11_Node000009_Node000003"><a xlink:title=" ">
<path fill="none" stroke="#63b8ff" d="M140.1,-111.62C136.56,-93.92 128.83,-55.24 124.04,-31.32"/>
<polygon fill="#63b8ff" stroke="#63b8ff" points="127.54,-30.96 122.15,-21.84 120.68,-32.33 127.54,-30.96"/>
</a>
</g>
</g>
<!-- Node14&#45;&gt;Node2 -->
<g id="edge17_Node000014_Node000002" class="edge">
<title>Node14&#45;&gt;Node2</title>
<g id="a_edge17_Node000014_Node000002"><a xlink:title=" ">
<path fill="none" stroke="#63b8ff" d="M236.92,-172.21C208.96,-163.87 150.6,-146.46 111.35,-134.75"/>
<polygon fill="#63b8ff" stroke="#63b8ff" points="112.36,-131.4 101.78,-131.89 110.36,-138.1 112.36,-131.4"/>
</a>
</g>
</g>
<!-- Node14&#45;&gt;Node6 -->
<g id="edge18_Node000014_Node000006" class="edge">
<title>Node14&#45;&gt;Node6</title>
<g id="a_edge18_Node000014_Node000006"><a xlink:title=" ">
<path fill="none" stroke="#63b8ff" d="M245.49,-167.59C239.69,-160.32 231.49,-150.02 224.43,-141.15"/>
<polygon fill="#63b8ff" stroke="#63b8ff" points="227.29,-139.12 218.33,-133.48 221.82,-143.49 227.29,-139.12"/>
</a>
</g>
</g>
<!-- Node14&#45;&gt;Node9 -->
<g id="edge19_Node000014_Node000009" class="edge">
<title>Node14&#45;&gt;Node9</title>
<g id="a_edge19_Node000014_Node000009"><a xlink:title=" ">
<path fill="none" stroke="#63b8ff" d="M237.08,-169.26C220.03,-160.97 192.57,-147.61 171.54,-137.38"/>
<polygon fill="#63b8ff" stroke="#63b8ff" points="173.09,-134.24 162.57,-133.02 170.03,-140.54 173.09,-134.24"/>
</a>
</g>
</g>
<!-- Node14&#45;&gt;Node10 -->
<g id="edge20_Node000014_Node000010" class="edge">
<title>Node14&#45;&gt;Node10</title>
<g id="a_edge20_Node000014_Node000010"><a xlink:title=" ">
<path fill="none" stroke="#63b8ff" d="M257.33,-167.59C260.52,-160.7 264.97,-151.1 268.92,-142.57"/>
<polygon fill="#63b8ff" stroke="#63b8ff" points="272.01,-144.22 273.04,-133.67 265.66,-141.28 272.01,-144.22"/>
</a>
</g>
</g>
<!-- Node14&#45;&gt;Node11 -->
<g id="edge21_Node000014_Node000011" class="edge">
<title>Node14&#45;&gt;Node11</title>
<g id="a_edge21_Node000014_Node000011"><a xlink:title=" ">
<path fill="none" stroke="#63b8ff" d="M267.26,-167.59C279.42,-159.59 297.12,-147.93 311.38,-138.54"/>
<polygon fill="#63b8ff" stroke="#63b8ff" points="312.89,-141.73 319.32,-133.31 309.04,-135.89 312.89,-141.73"/>
</a>
</g>
</g>
<!-- Node14&#45;&gt;Node12 -->
<g id="edge22_Node000014_Node000012" class="edge">
<title>Node14&#45;&gt;Node12</title>
<g id="a_edge22_Node000014_Node000012"><a xlink:title=" ">
<path fill="none" stroke="#63b8ff" d="M269.1,-170.91C291.13,-162.59 331.2,-147.46 360.44,-136.42"/>
<polygon fill="#63b8ff" stroke="#63b8ff" points="361.52,-139.75 369.64,-132.95 359.04,-133.21 361.52,-139.75"/>
</a>
</g>
</g>
<!-- Node15&#45;&gt;Node2 -->
<g id="edge26_Node000015_Node000002" class="edge">
<title>Node15&#45;&gt;Node2</title>
<g id="a_edge26_Node000015_Node000002"><a xlink:title=" ">
<path fill="none" stroke="#63b8ff" d="M111.62,-167.59C105.08,-160.24 95.8,-149.8 87.86,-140.87"/>
<polygon fill="#63b8ff" stroke="#63b8ff" points="90.51,-138.58 81.25,-133.43 85.28,-143.23 90.51,-138.58"/>
</a>
</g>
</g>
<!-- Node15&#45;&gt;Node5 -->
<g id="edge25_Node000015_Node000005" class="edge">
<title>Node15&#45;&gt;Node5</title>
<g id="a_edge25_Node000015_Node000005"><a xlink:title=" ">
<path fill="none" stroke="#63b8ff" d="M97.21,-169.06C78.71,-161.71 52.85,-149.31 34.98,-132 8.65,-106.51 -5.91,-91.56 2.98,-56 5.23,-47.01 9.65,-37.85 14.09,-30.16"/>
<polygon fill="#63b8ff" stroke="#63b8ff" points="17.03,-32.06 19.36,-21.72 11.09,-28.35 17.03,-32.06"/>
</a>
</g>
</g>
<!-- Node15&#45;&gt;Node9 -->
<g id="edge24_Node000015_Node000009" class="edge">
<title>Node15&#45;&gt;Node9</title>
<g id="a_edge24_Node000015_Node000009"><a xlink:title=" ">
<path fill="none" stroke="#63b8ff" d="M123.81,-167.59C126.59,-160.78 130.44,-151.32 133.89,-142.86"/>
<polygon fill="#63b8ff" stroke="#63b8ff" points="137.09,-144.28 137.62,-133.7 130.61,-141.64 137.09,-144.28"/>
</a>
</g>
</g>
</g>
</svg>
