<?xml version="1.0" encoding="UTF-8" standalone="no"?>
<!DOCTYPE svg PUBLIC "-//W3C//DTD SVG 1.1//EN"
 "http://www.w3.org/Graphics/SVG/1.1/DTD/svg11.dtd">
<!-- Generated by graphviz version 12.2.1 (20241206.2353)
 -->
<!-- Title: src/ui.cpp Pages: 1 -->
<svg width="465pt" height="252pt"
 viewBox="0.00 0.00 464.62 252.00" xmlns="http://www.w3.org/2000/svg" xmlns:xlink="http://www.w3.org/1999/xlink">

<svg id="main" version="1.1" xmlns="http://www.w3.org/2000/svg" xmlns:xlink="http://www.w3.org/1999/xlink" xml:space="preserve">

<style type="text/css"><![CDATA[
.node, .edge {opacity: 0.7;}
.node.selected, .edge.selected {opacity: 1;}
.edge:hover path { stroke: red; }
.edge:hover polygon { stroke: red; fill: red; }
]]></style>
<script type="application/ecmascript" xlink:href="svg.min.js"/>
<svg id="graph" class="graph">
<g id="graph0" class="graph" transform="scale(1 1) rotate(0) translate(4 248)">
<title>src/ui.cpp</title>
<!-- Node1 -->
<g id="Node000001" class="node">
<title>Node1</title>
<g id="a_Node000001"><a xlink:title=" ">
<polygon fill="#999999" stroke="#666666" points="300,-244 241.25,-244 241.25,-224 300,-224 300,-244"/>
<text text-anchor="middle" x="270.62" y="-230.5" font-family="Helvetica,sans-Serif" font-size="10.00">src/ui.cpp</text>
</a>
</g>
</g>
<!-- Node2 -->
<g id="Node000002" class="node">
<title>Node2</title>
<g id="a_Node000002"><a xlink:href="entities_8h.html" target="_top" xlink:title=" ">
<polygon fill="white" stroke="#666666" points="127.5,-132 71.75,-132 71.75,-112 127.5,-112 127.5,-132"/>
<text text-anchor="middle" x="99.62" y="-118.5" font-family="Helvetica,sans-Serif" font-size="10.00">entities.h</text>
</a>
</g>
</g>
<!-- Node1&#45;&gt;Node2 -->
<g id="edge1_Node000001_Node000002" class="edge">
<title>Node1&#45;&gt;Node2</title>
<g id="a_edge1_Node000001_Node000002"><a xlink:title=" ">
<path fill="none" stroke="#63b8ff" d="M256.05,-223.62C226.52,-204.63 159.39,-161.45 123.43,-138.31"/>
<polygon fill="#63b8ff" stroke="#63b8ff" points="125.74,-135.64 115.44,-133.17 121.96,-141.53 125.74,-135.64"/>
</a>
</g>
</g>
<!-- Node6 -->
<g id="Node000006" class="node">
<title>Node6</title>
<g id="a_Node000006"><a xlink:href="extras_8h.html" target="_top" xlink:title=" ">
<polygon fill="white" stroke="#666666" points="201.25,-132 150,-132 150,-112 201.25,-112 201.25,-132"/>
<text text-anchor="middle" x="175.62" y="-118.5" font-family="Helvetica,sans-Serif" font-size="10.00">extras.h</text>
</a>
</g>
</g>
<!-- Node1&#45;&gt;Node6 -->
<g id="edge6_Node000001_Node000006" class="edge">
<title>Node1&#45;&gt;Node6</title>
<g id="a_edge6_Node000001_Node000006"><a xlink:title=" ">
<path fill="none" stroke="#63b8ff" d="M262.53,-223.62C246.75,-205.36 211.67,-164.73 191.23,-141.07"/>
<polygon fill="#63b8ff" stroke="#63b8ff" points="193.88,-138.78 184.69,-133.5 188.58,-143.36 193.88,-138.78"/>
</a>
</g>
</g>
<!-- Node9 -->
<g id="Node000009" class="node">
<title>Node9</title>
<g id="a_Node000009"><a xlink:href="items_8h.html" target="_top" xlink:title=" ">
<polygon fill="white" stroke="#666666" points="267.75,-132 219.5,-132 219.5,-112 267.75,-112 267.75,-132"/>
<text text-anchor="middle" x="243.62" y="-118.5" font-family="Helvetica,sans-Serif" font-size="10.00">items.h</text>
</a>
</g>
</g>
<!-- Node1&#45;&gt;Node9 -->
<g id="edge10_Node000001_Node000009" class="edge">
<title>Node1&#45;&gt;Node9</title>
<g id="a_edge10_Node000001_Node000009"><a xlink:title=" ">
<path fill="none" stroke="#63b8ff" d="M263.62,-223.58C257.59,-214.86 249.28,-201.27 245.62,-188 241.67,-173.63 241.26,-156.8 241.79,-143.86"/>
<polygon fill="#63b8ff" stroke="#63b8ff" points="245.28,-144.18 242.44,-133.97 238.29,-143.72 245.28,-144.18"/>
</a>
</g>
</g>
<!-- Node10 -->
<g id="Node000010" class="node">
<title>Node10</title>
<g id="a_Node000010"><a xlink:title=" ">
<polygon fill="#e0e0e0" stroke="#999999" points="333.75,-132 285.5,-132 285.5,-112 333.75,-112 333.75,-132"/>
<text text-anchor="middle" x="309.62" y="-118.5" font-family="Helvetica,sans-Serif" font-size="10.00">random</text>
</a>
</g>
</g>
<!-- Node1&#45;&gt;Node10 -->
<g id="edge12_Node000001_Node000010" class="edge">
<title>Node1&#45;&gt;Node10</title>
<g id="a_edge12_Node000001_Node000010"><a xlink:title=" ">
<path fill="none" stroke="#63b8ff" d="M276.84,-223.74C282.51,-214.91 290.72,-201.05 295.62,-188 301.1,-173.42 304.7,-156.16 306.87,-143.09"/>
<polygon fill="#63b8ff" stroke="#63b8ff" points="310.28,-143.98 308.31,-133.57 303.35,-142.93 310.28,-143.98"/>
</a>
</g>
</g>
<!-- Node11 -->
<g id="Node000011" class="node">
<title>Node11</title>
<g id="a_Node000011"><a xlink:title=" ">
<polygon fill="#e0e0e0" stroke="#999999" points="381.02,-132 352.23,-132 352.23,-112 381.02,-112 381.02,-132"/>
<text text-anchor="middle" x="366.62" y="-118.5" font-family="Helvetica,sans-Serif" font-size="10.00">list</text>
</a>
</g>
</g>
<!-- Node1&#45;&gt;Node11 -->
<g id="edge13_Node000001_Node000011" class="edge">
<title>Node1&#45;&gt;Node11</title>
<g id="a_edge13_Node000001_Node000011"><a xlink:title=" ">
<path fill="none" stroke="#63b8ff" d="M279.47,-223.84C288.08,-214.84 301.47,-200.67 312.62,-188 326.36,-172.41 341.42,-154.17 352.14,-140.99"/>
<polygon fill="#63b8ff" stroke="#63b8ff" points="354.58,-143.55 358.15,-133.58 349.14,-139.15 354.58,-143.55"/>
</a>
</g>
</g>
<!-- Node12 -->
<g id="Node000012" class="node">
<title>Node12</title>
<g id="a_Node000012"><a xlink:title=" ">
<polygon fill="#e0e0e0" stroke="#999999" points="456.62,-132 398.62,-132 398.62,-112 456.62,-112 456.62,-132"/>
<text text-anchor="middle" x="427.62" y="-118.5" font-family="Helvetica,sans-Serif" font-size="10.00">functional</text>
</a>
</g>
</g>
<!-- Node1&#45;&gt;Node12 -->
<g id="edge14_Node000001_Node000012" class="edge">
<title>Node1&#45;&gt;Node12</title>
<g id="a_edge14_Node000001_Node000012"><a xlink:title=" ">
<path fill="none" stroke="#63b8ff" d="M284.01,-223.62C310.89,-204.79 371.7,-162.18 404.92,-138.91"/>
<polygon fill="#63b8ff" stroke="#63b8ff" points="406.85,-141.83 413.03,-133.22 402.84,-136.09 406.85,-141.83"/>
</a>
</g>
</g>
<!-- Node13 -->
<g id="Node000013" class="node">
<title>Node13</title>
<g id="a_Node000013"><a xlink:href="ui_8h.html" target="_top" xlink:title=" ">
<polygon fill="white" stroke="#666666" points="286.5,-188 254.75,-188 254.75,-168 286.5,-168 286.5,-188"/>
<text text-anchor="middle" x="270.62" y="-174.5" font-family="Helvetica,sans-Serif" font-size="10.00">ui.h</text>
</a>
</g>
</g>
<!-- Node1&#45;&gt;Node13 -->
<g id="edge15_Node000001_Node000013" class="edge">
<title>Node1&#45;&gt;Node13</title>
<g id="a_edge15_Node000001_Node000013"><a xlink:title=" ">
<path fill="none" stroke="#63b8ff" d="M270.62,-223.59C270.62,-217.01 270.62,-207.96 270.62,-199.73"/>
<polygon fill="#63b8ff" stroke="#63b8ff" points="274.13,-199.81 270.63,-189.81 267.13,-199.81 274.13,-199.81"/>
</a>
</g>
</g>
<!-- Node3 -->
<g id="Node000003" class="node">
<title>Node3</title>
<g id="a_Node000003"><a xlink:title=" ">
<polygon fill="#e0e0e0" stroke="#999999" points="140.38,-20 86.88,-20 86.88,0 140.38,0 140.38,-20"/>
<text text-anchor="middle" x="113.62" y="-6.5" font-family="Helvetica,sans-Serif" font-size="10.00">iostream</text>
</a>
</g>
</g>
<!-- Node2&#45;&gt;Node3 -->
<g id="edge2_Node000002_Node000003" class="edge">
<title>Node2&#45;&gt;Node3</title>
<g id="a_edge2_Node000002_Node000003"><a xlink:title=" ">
<path fill="none" stroke="#63b8ff" d="M100.82,-111.62C103.06,-94.01 107.95,-55.59 111,-31.65"/>
<polygon fill="#63b8ff" stroke="#63b8ff" points="114.45,-32.22 112.24,-21.86 107.51,-31.33 114.45,-32.22"/>
</a>
</g>
</g>
<!-- Node4 -->
<g id="Node000004" class="node">
<title>Node4</title>
<g id="a_Node000004"><a xlink:href="inventory_8h.html" target="_top" xlink:title=" ">
<polygon fill="white" stroke="#666666" points="63.25,-76 0,-76 0,-56 63.25,-56 63.25,-76"/>
<text text-anchor="middle" x="31.62" y="-62.5" font-family="Helvetica,sans-Serif" font-size="10.00">inventory.h</text>
</a>
</g>
</g>
<!-- Node2&#45;&gt;Node4 -->
<g id="edge3_Node000002_Node000004" class="edge">
<title>Node2&#45;&gt;Node4</title>
<g id="a_edge3_Node000002_Node000004"><a xlink:title=" ">
<path fill="none" stroke="#63b8ff" d="M87.78,-111.59C77.93,-103.77 63.69,-92.46 52.02,-83.19"/>
<polygon fill="#63b8ff" stroke="#63b8ff" points="54.53,-80.72 44.52,-77.24 50.17,-86.2 54.53,-80.72"/>
</a>
</g>
</g>
<!-- Node4&#45;&gt;Node3 -->
<g id="edge5_Node000004_Node000003" class="edge">
<title>Node4&#45;&gt;Node3</title>
<g id="a_edge5_Node000004_Node000003"><a xlink:title=" ">
<path fill="none" stroke="#63b8ff" d="M45.91,-55.59C58.06,-47.59 75.76,-35.93 90.02,-26.54"/>
<polygon fill="#63b8ff" stroke="#63b8ff" points="91.54,-29.73 97.97,-21.31 87.69,-23.89 91.54,-29.73"/>
</a>
</g>
</g>
<!-- Node5 -->
<g id="Node000005" class="node">
<title>Node5</title>
<g id="a_Node000005"><a xlink:title=" ">
<polygon fill="#e0e0e0" stroke="#999999" points="53.12,-20 10.12,-20 10.12,0 53.12,0 53.12,-20"/>
<text text-anchor="middle" x="31.62" y="-6.5" font-family="Helvetica,sans-Serif" font-size="10.00">vector</text>
</a>
</g>
</g>
<!-- Node4&#45;&gt;Node5 -->
<g id="edge4_Node000004_Node000005" class="edge">
<title>Node4&#45;&gt;Node5</title>
<g id="a_edge4_Node000004_Node000005"><a xlink:title=" ">
<path fill="none" stroke="#63b8ff" d="M31.62,-55.59C31.62,-49.01 31.62,-39.96 31.62,-31.73"/>
<polygon fill="#63b8ff" stroke="#63b8ff" points="35.13,-31.81 31.63,-21.81 28.13,-31.81 35.13,-31.81"/>
</a>
</g>
</g>
<!-- Node6&#45;&gt;Node3 -->
<g id="edge9_Node000006_Node000003" class="edge">
<title>Node6&#45;&gt;Node3</title>
<g id="a_edge9_Node000006_Node000003"><a xlink:title=" ">
<path fill="none" stroke="#63b8ff" d="M169.91,-111.77C164.36,-102.72 155.74,-88.51 148.62,-76 140,-60.84 130.65,-43.42 123.79,-30.43"/>
<polygon fill="#63b8ff" stroke="#63b8ff" points="126.93,-28.89 119.18,-21.67 120.74,-32.15 126.93,-28.89"/>
</a>
</g>
</g>
<!-- Node7 -->
<g id="Node000007" class="node">
<title>Node7</title>
<g id="a_Node000007"><a xlink:title=" ">
<polygon fill="#e0e0e0" stroke="#999999" points="203.25,-76 158,-76 158,-56 203.25,-56 203.25,-76"/>
<text text-anchor="middle" x="180.62" y="-62.5" font-family="Helvetica,sans-Serif" font-size="10.00">chrono</text>
</a>
</g>
</g>
<!-- Node6&#45;&gt;Node7 -->
<g id="edge7_Node000006_Node000007" class="edge">
<title>Node6&#45;&gt;Node7</title>
<g id="a_edge7_Node000006_Node000007"><a xlink:title=" ">
<path fill="none" stroke="#63b8ff" d="M176.5,-111.59C177.11,-105.01 177.94,-95.96 178.71,-87.73"/>
<polygon fill="#63b8ff" stroke="#63b8ff" points="182.19,-88.09 179.62,-77.81 175.22,-87.44 182.19,-88.09"/>
</a>
</g>
</g>
<!-- Node8 -->
<g id="Node000008" class="node">
<title>Node8</title>
<g id="a_Node000008"><a xlink:title=" ">
<polygon fill="#e0e0e0" stroke="#999999" points="264.12,-76 221.12,-76 221.12,-56 264.12,-56 264.12,-76"/>
<text text-anchor="middle" x="242.62" y="-62.5" font-family="Helvetica,sans-Serif" font-size="10.00">thread</text>
</a>
</g>
</g>
<!-- Node6&#45;&gt;Node8 -->
<g id="edge8_Node000006_Node000008" class="edge">
<title>Node6&#45;&gt;Node8</title>
<g id="a_edge8_Node000006_Node000008"><a xlink:title=" ">
<path fill="none" stroke="#63b8ff" d="M187.3,-111.59C196.9,-103.85 210.75,-92.69 222.19,-83.47"/>
<polygon fill="#63b8ff" stroke="#63b8ff" points="224.32,-86.25 229.91,-77.25 219.93,-80.8 224.32,-86.25"/>
</a>
</g>
</g>
<!-- Node9&#45;&gt;Node3 -->
<g id="edge11_Node000009_Node000003" class="edge">
<title>Node9&#45;&gt;Node3</title>
<g id="a_edge11_Node000009_Node000003"><a xlink:title=" ">
<path fill="none" stroke="#63b8ff" d="M253.56,-111.93C266.81,-98.72 287.13,-73.83 273.62,-56 258.97,-36.66 194.51,-23.31 152.02,-16.42"/>
<polygon fill="#63b8ff" stroke="#63b8ff" points="152.59,-12.97 142.17,-14.89 151.51,-19.89 152.59,-12.97"/>
</a>
</g>
</g>
<!-- Node13&#45;&gt;Node2 -->
<g id="edge16_Node000013_Node000002" class="edge">
<title>Node13&#45;&gt;Node2</title>
<g id="a_edge16_Node000013_Node000002"><a xlink:title=" ">
<path fill="none" stroke="#63b8ff" d="M254.54,-171.92C228.24,-163.62 175.32,-146.9 138.7,-135.34"/>
<polygon fill="#63b8ff" stroke="#63b8ff" points="139.94,-132.06 129.35,-132.39 137.83,-138.74 139.94,-132.06"/>
</a>
</g>
</g>
<!-- Node13&#45;&gt;Node6 -->
<g id="edge17_Node000013_Node000006" class="edge">
<title>Node13&#45;&gt;Node6</title>
<g id="a_edge17_Node000013_Node000006"><a xlink:title=" ">
<path fill="none" stroke="#63b8ff" d="M254.51,-167.84C240.13,-159.67 218.81,-147.55 201.95,-137.97"/>
<polygon fill="#63b8ff" stroke="#63b8ff" points="203.88,-135.03 193.45,-133.13 200.42,-141.12 203.88,-135.03"/>
</a>
</g>
</g>
<!-- Node13&#45;&gt;Node9 -->
<g id="edge18_Node000013_Node000009" class="edge">
<title>Node13&#45;&gt;Node9</title>
<g id="a_edge18_Node000013_Node000009"><a xlink:title=" ">
<path fill="none" stroke="#63b8ff" d="M265.92,-167.59C262.48,-160.7 257.68,-151.1 253.41,-142.57"/>
<polygon fill="#63b8ff" stroke="#63b8ff" points="256.55,-141.03 248.95,-133.65 250.29,-144.16 256.55,-141.03"/>
</a>
</g>
</g>
<!-- Node13&#45;&gt;Node10 -->
<g id="edge19_Node000013_Node000010" class="edge">
<title>Node13&#45;&gt;Node10</title>
<g id="a_edge19_Node000013_Node000010"><a xlink:title=" ">
<path fill="none" stroke="#63b8ff" d="M277.42,-167.59C282.62,-160.39 289.96,-150.23 296.31,-141.43"/>
<polygon fill="#63b8ff" stroke="#63b8ff" points="299.01,-143.68 302.02,-133.53 293.33,-139.58 299.01,-143.68"/>
</a>
</g>
</g>
<!-- Node13&#45;&gt;Node11 -->
<g id="edge20_Node000013_Node000011" class="edge">
<title>Node13&#45;&gt;Node11</title>
<g id="a_edge20_Node000013_Node000011"><a xlink:title=" ">
<path fill="none" stroke="#63b8ff" d="M286.91,-167.84C301.97,-159.37 324.58,-146.65 341.87,-136.92"/>
<polygon fill="#63b8ff" stroke="#63b8ff" points="343.52,-140.01 350.52,-132.06 340.09,-133.91 343.52,-140.01"/>
</a>
</g>
</g>
<!-- Node13&#45;&gt;Node12 -->
<g id="edge21_Node000013_Node000012" class="edge">
<title>Node13&#45;&gt;Node12</title>
<g id="a_edge21_Node000013_Node000012"><a xlink:title=" ">
<path fill="none" stroke="#63b8ff" d="M286.84,-171.42C310.91,-163.14 356.79,-147.36 389.64,-136.06"/>
<polygon fill="#63b8ff" stroke="#63b8ff" points="390.48,-139.48 398.8,-132.91 388.2,-132.86 390.48,-139.48"/>
</a>
</g>
</g>
</g>
</svg>
</svg>

<style type='text/css'>
<![CDATA[
[data-mouse-over-selected='false'] { opacity: 0.7; }
[data-mouse-over-selected='true']  { opacity: 1.0; }
]]>
</style>
<script type="application/ecmascript"><![CDATA[
document.addEventListener('DOMContentLoaded', (event) => {
  highlightEdges();
  highlightAdjacentNodes();
});
]]></script>
</svg>
