<?xml version="1.0" encoding="UTF-8" standalone="no"?>
<!DOCTYPE svg PUBLIC "-//W3C//DTD SVG 1.1//EN"
 "http://www.w3.org/Graphics/SVG/1.1/DTD/svg11.dtd">
<!-- Generated by graphviz version 12.2.1 (20241206.2353)
 -->
<!-- Title: src/ui.h Pages: 1 -->
<svg width="442pt" height="196pt"
 viewBox="0.00 0.00 441.62 196.00" xmlns="http://www.w3.org/2000/svg" xmlns:xlink="http://www.w3.org/1999/xlink">
<g id="graph0" class="graph" transform="scale(1 1) rotate(0) translate(4 192)">
<title>src/ui.h</title>
<!-- Node1 -->
<g id="Node000001" class="node">
<title>Node1</title>
<g id="a_Node000001"><a xlink:title=" ">
<polygon fill="#999999" stroke="#666666" points="284.75,-188 236.5,-188 236.5,-168 284.75,-168 284.75,-188"/>
<text text-anchor="middle" x="260.62" y="-174.5" font-family="Helvetica,sans-Serif" font-size="10.00">src/ui.h</text>
</a>
</g>
</g>
<!-- Node2 -->
<g id="Node000002" class="node">
<title>Node2</title>
<g id="a_Node000002"><a xlink:href="entities_8h.html" target="_top" xlink:title=" ">
<polygon fill="white" stroke="#666666" points="119.5,-132 63.75,-132 63.75,-112 119.5,-112 119.5,-132"/>
<text text-anchor="middle" x="91.62" y="-118.5" font-family="Helvetica,sans-Serif" font-size="10.00">entities.h</text>
</a>
</g>
</g>
<!-- Node1&#45;&gt;Node2 -->
<g id="edge1_Node000001_Node000002" class="edge">
<title>Node1&#45;&gt;Node2</title>
<g id="a_edge1_Node000001_Node000002"><a xlink:title=" ">
<path fill="none" stroke="#63b8ff" d="M236.05,-169.15C208.45,-160.33 163.29,-145.9 130.81,-135.52"/>
<polygon fill="#63b8ff" stroke="#63b8ff" points="131.93,-132.2 121.34,-132.49 129.8,-138.87 131.93,-132.2"/>
</a>
</g>
</g>
<!-- Node6 -->
<g id="Node000006" class="node">
<title>Node6</title>
<g id="a_Node000006"><a xlink:href="extras_8h.html" target="_top" xlink:title=" ">
<polygon fill="white" stroke="#666666" points="206.25,-132 155,-132 155,-112 206.25,-112 206.25,-132"/>
<text text-anchor="middle" x="180.62" y="-118.5" font-family="Helvetica,sans-Serif" font-size="10.00">extras.h</text>
</a>
</g>
</g>
<!-- Node1&#45;&gt;Node6 -->
<g id="edge6_Node000001_Node000006" class="edge">
<title>Node1&#45;&gt;Node6</title>
<g id="a_edge6_Node000001_Node000006"><a xlink:title=" ">
<path fill="none" stroke="#63b8ff" d="M246.69,-167.59C234.95,-159.67 217.89,-148.16 204.06,-138.82"/>
<polygon fill="#63b8ff" stroke="#63b8ff" points="206.17,-136.02 195.92,-133.33 202.25,-141.82 206.17,-136.02"/>
</a>
</g>
</g>
<!-- Node9 -->
<g id="Node000009" class="node">
<title>Node9</title>
<g id="a_Node000009"><a xlink:href="items_8h.html" target="_top" xlink:title=" ">
<polygon fill="white" stroke="#666666" points="330.75,-76 282.5,-76 282.5,-56 330.75,-56 330.75,-76"/>
<text text-anchor="middle" x="306.62" y="-62.5" font-family="Helvetica,sans-Serif" font-size="10.00">items.h</text>
</a>
</g>
</g>
<!-- Node1&#45;&gt;Node9 -->
<g id="edge10_Node000001_Node000009" class="edge">
<title>Node1&#45;&gt;Node9</title>
<g id="a_edge10_Node000001_Node000009"><a xlink:title=" ">
<path fill="none" stroke="#63b8ff" d="M256.71,-167.68C251.84,-154.6 245.14,-130.33 253.62,-112 259.12,-100.13 269.46,-90.24 279.56,-82.79"/>
<polygon fill="#63b8ff" stroke="#63b8ff" points="281.42,-85.76 287.75,-77.25 277.5,-79.96 281.42,-85.76"/>
</a>
</g>
</g>
<!-- Node10 -->
<g id="Node000010" class="node">
<title>Node10</title>
<g id="a_Node000010"><a xlink:title=" ">
<polygon fill="#e0e0e0" stroke="#999999" points="310.75,-132 262.5,-132 262.5,-112 310.75,-112 310.75,-132"/>
<text text-anchor="middle" x="286.62" y="-118.5" font-family="Helvetica,sans-Serif" font-size="10.00">random</text>
</a>
</g>
</g>
<!-- Node1&#45;&gt;Node10 -->
<g id="edge12_Node000001_Node000010" class="edge">
<title>Node1&#45;&gt;Node10</title>
<g id="a_edge12_Node000001_Node000010"><a xlink:title=" ">
<path fill="none" stroke="#63b8ff" d="M265.15,-167.59C268.47,-160.7 273.09,-151.1 277.2,-142.57"/>
<polygon fill="#63b8ff" stroke="#63b8ff" points="280.31,-144.19 281.49,-133.66 274,-141.15 280.31,-144.19"/>
</a>
</g>
</g>
<!-- Node11 -->
<g id="Node000011" class="node">
<title>Node11</title>
<g id="a_Node000011"><a xlink:title=" ">
<polygon fill="#e0e0e0" stroke="#999999" points="358.02,-132 329.23,-132 329.23,-112 358.02,-112 358.02,-132"/>
<text text-anchor="middle" x="343.62" y="-118.5" font-family="Helvetica,sans-Serif" font-size="10.00">list</text>
</a>
</g>
</g>
<!-- Node1&#45;&gt;Node11 -->
<g id="edge13_Node000001_Node000011" class="edge">
<title>Node1&#45;&gt;Node11</title>
<g id="a_edge13_Node000001_Node000011"><a xlink:title=" ">
<path fill="none" stroke="#63b8ff" d="M275.08,-167.59C287.38,-159.59 305.3,-147.93 319.73,-138.54"/>
<polygon fill="#63b8ff" stroke="#63b8ff" points="321.31,-141.69 327.79,-133.3 317.5,-135.82 321.31,-141.69"/>
</a>
</g>
</g>
<!-- Node12 -->
<g id="Node000012" class="node">
<title>Node12</title>
<g id="a_Node000012"><a xlink:title=" ">
<polygon fill="#e0e0e0" stroke="#999999" points="433.62,-132 375.62,-132 375.62,-112 433.62,-112 433.62,-132"/>
<text text-anchor="middle" x="404.62" y="-118.5" font-family="Helvetica,sans-Serif" font-size="10.00">functional</text>
</a>
</g>
</g>
<!-- Node1&#45;&gt;Node12 -->
<g id="edge14_Node000001_Node000012" class="edge">
<title>Node1&#45;&gt;Node12</title>
<g id="a_edge14_Node000001_Node000012"><a xlink:title=" ">
<path fill="none" stroke="#63b8ff" d="M285.05,-167.84C308.08,-159.2 342.86,-146.16 368.99,-136.36"/>
<polygon fill="#63b8ff" stroke="#63b8ff" points="370.04,-139.71 378.18,-132.92 367.58,-133.15 370.04,-139.71"/>
</a>
</g>
</g>
<!-- Node3 -->
<g id="Node000003" class="node">
<title>Node3</title>
<g id="a_Node000003"><a xlink:title=" ">
<polygon fill="#e0e0e0" stroke="#999999" points="140.38,-20 86.88,-20 86.88,0 140.38,0 140.38,-20"/>
<text text-anchor="middle" x="113.62" y="-6.5" font-family="Helvetica,sans-Serif" font-size="10.00">iostream</text>
</a>
</g>
</g>
<!-- Node2&#45;&gt;Node3 -->
<g id="edge2_Node000002_Node000003" class="edge">
<title>Node2&#45;&gt;Node3</title>
<g id="a_edge2_Node000002_Node000003"><a xlink:title=" ">
<path fill="none" stroke="#63b8ff" d="M93.5,-111.62C97.04,-93.92 104.78,-55.24 109.56,-31.32"/>
<polygon fill="#63b8ff" stroke="#63b8ff" points="112.93,-32.33 111.46,-21.84 106.06,-30.96 112.93,-32.33"/>
</a>
</g>
</g>
<!-- Node4 -->
<g id="Node000004" class="node">
<title>Node4</title>
<g id="a_Node000004"><a xlink:href="inventory_8h.html" target="_top" xlink:title=" ">
<polygon fill="white" stroke="#666666" points="63.25,-76 0,-76 0,-56 63.25,-56 63.25,-76"/>
<text text-anchor="middle" x="31.62" y="-62.5" font-family="Helvetica,sans-Serif" font-size="10.00">inventory.h</text>
</a>
</g>
</g>
<!-- Node2&#45;&gt;Node4 -->
<g id="edge3_Node000002_Node000004" class="edge">
<title>Node2&#45;&gt;Node4</title>
<g id="a_edge3_Node000002_Node000004"><a xlink:title=" ">
<path fill="none" stroke="#63b8ff" d="M81.17,-111.59C72.66,-103.93 60.41,-92.91 50.23,-83.75"/>
<polygon fill="#63b8ff" stroke="#63b8ff" points="52.86,-81.4 43.08,-77.31 48.17,-86.6 52.86,-81.4"/>
</a>
</g>
</g>
<!-- Node4&#45;&gt;Node3 -->
<g id="edge5_Node000004_Node000003" class="edge">
<title>Node4&#45;&gt;Node3</title>
<g id="a_edge5_Node000004_Node000003"><a xlink:title=" ">
<path fill="none" stroke="#63b8ff" d="M45.91,-55.59C58.06,-47.59 75.76,-35.93 90.02,-26.54"/>
<polygon fill="#63b8ff" stroke="#63b8ff" points="91.54,-29.73 97.97,-21.31 87.69,-23.89 91.54,-29.73"/>
</a>
</g>
</g>
<!-- Node5 -->
<g id="Node000005" class="node">
<title>Node5</title>
<g id="a_Node000005"><a xlink:title=" ">
<polygon fill="#e0e0e0" stroke="#999999" points="53.12,-20 10.12,-20 10.12,0 53.12,0 53.12,-20"/>
<text text-anchor="middle" x="31.62" y="-6.5" font-family="Helvetica,sans-Serif" font-size="10.00">vector</text>
</a>
</g>
</g>
<!-- Node4&#45;&gt;Node5 -->
<g id="edge4_Node000004_Node000005" class="edge">
<title>Node4&#45;&gt;Node5</title>
<g id="a_edge4_Node000004_Node000005"><a xlink:title=" ">
<path fill="none" stroke="#63b8ff" d="M31.62,-55.59C31.62,-49.01 31.62,-39.96 31.62,-31.73"/>
<polygon fill="#63b8ff" stroke="#63b8ff" points="35.13,-31.81 31.63,-21.81 28.13,-31.81 35.13,-31.81"/>
</a>
</g>
</g>
<!-- Node6&#45;&gt;Node3 -->
<g id="edge9_Node000006_Node000003" class="edge">
<title>Node6&#45;&gt;Node3</title>
<g id="a_edge9_Node000006_Node000003"><a xlink:title=" ">
<path fill="none" stroke="#63b8ff" d="M173.4,-111.58C166.67,-102.63 156.52,-88.7 148.62,-76 139.42,-61.18 130.1,-43.74 123.4,-30.66"/>
<polygon fill="#63b8ff" stroke="#63b8ff" points="126.57,-29.16 118.94,-21.81 120.32,-32.32 126.57,-29.16"/>
</a>
</g>
</g>
<!-- Node7 -->
<g id="Node000007" class="node">
<title>Node7</title>
<g id="a_Node000007"><a xlink:title=" ">
<polygon fill="#e0e0e0" stroke="#999999" points="203.25,-76 158,-76 158,-56 203.25,-56 203.25,-76"/>
<text text-anchor="middle" x="180.62" y="-62.5" font-family="Helvetica,sans-Serif" font-size="10.00">chrono</text>
</a>
</g>
</g>
<!-- Node6&#45;&gt;Node7 -->
<g id="edge7_Node000006_Node000007" class="edge">
<title>Node6&#45;&gt;Node7</title>
<g id="a_edge7_Node000006_Node000007"><a xlink:title=" ">
<path fill="none" stroke="#63b8ff" d="M180.62,-111.59C180.62,-105.01 180.62,-95.96 180.62,-87.73"/>
<polygon fill="#63b8ff" stroke="#63b8ff" points="184.13,-87.81 180.63,-77.81 177.13,-87.81 184.13,-87.81"/>
</a>
</g>
</g>
<!-- Node8 -->
<g id="Node000008" class="node">
<title>Node8</title>
<g id="a_Node000008"><a xlink:title=" ">
<polygon fill="#e0e0e0" stroke="#999999" points="264.12,-76 221.12,-76 221.12,-56 264.12,-56 264.12,-76"/>
<text text-anchor="middle" x="242.62" y="-62.5" font-family="Helvetica,sans-Serif" font-size="10.00">thread</text>
</a>
</g>
</g>
<!-- Node6&#45;&gt;Node8 -->
<g id="edge8_Node000006_Node000008" class="edge">
<title>Node6&#45;&gt;Node8</title>
<g id="a_edge8_Node000006_Node000008"><a xlink:title=" ">
<path fill="none" stroke="#63b8ff" d="M191.42,-111.59C200.23,-103.93 212.88,-92.91 223.4,-83.75"/>
<polygon fill="#63b8ff" stroke="#63b8ff" points="225.57,-86.5 230.81,-77.29 220.97,-81.22 225.57,-86.5"/>
</a>
</g>
</g>
<!-- Node9&#45;&gt;Node3 -->
<g id="edge11_Node000009_Node000003" class="edge">
<title>Node9&#45;&gt;Node3</title>
<g id="a_edge11_Node000009_Node000003"><a xlink:title=" ">
<path fill="none" stroke="#63b8ff" d="M282.18,-58.16C249.22,-48.94 190.21,-32.43 151.49,-21.59"/>
<polygon fill="#63b8ff" stroke="#63b8ff" points="152.69,-18.3 142.12,-18.97 150.8,-25.04 152.69,-18.3"/>
</a>
</g>
</g>
</g>
</svg>
